M48
; DRILL file {KiCad 5.1.4} date Sun 24 Nov 2019 10:59:29 PM CET
; FORMAT={-:-/ absolute / metric / decimal}
; #@! TF.CreationDate,2019-11-24T22:59:29+01:00
; #@! TF.GenerationSoftware,Kicad,Pcbnew,5.1.4
; #@! TF.FileFunction,Plated,1,2,PTH
FMAT,2
METRIC
T1C0.400
T2C0.750
T3C0.762
T4C0.800
T5C1.000
T6C1.100
%
G90
G05
T1
X179.669Y-72.67
X197.612Y-41.402
X197.612Y-44.45
X200.152Y-43.688
X200.152Y-46.228
X202.692Y-43.688
X202.692Y-46.228
X205.232Y-43.688
X205.232Y-46.228
X207.772Y-43.688
X207.772Y-46.228
X209.042Y-37.372
X209.534Y-43.63
X209.55Y-45.212
X218.621Y-67.31
X219.346Y-69.596
X219.456Y-31.496
X219.456Y-83.566
X220.218Y-45.466
X220.218Y-39.878
X220.218Y-41.656
X220.218Y-43.18
X220.853Y-50.482
X220.853Y-57.15
X220.853Y-64.389
X220.98Y-78.232
X226.086Y-71.022
X226.192Y-69.728
X226.192Y-75.946
X228.092Y-77.978
X231.902Y-32.766
X234.95Y-50.292
X235.712Y-45.212
X237.49Y-76.708
X238.252Y-49.34
X238.76Y-45.466
X239.014Y-42.672
X241.046Y-67.818
X254.762Y-34.29
X254.762Y-37.338
X254.762Y-39.624
X254.762Y-46.99
X254.762Y-49.276
X254.762Y-52.07
X254.762Y-62.738
X254.762Y-66.04
X254.762Y-68.072
X254.762Y-75.438
X254.762Y-77.724
X254.762Y-80.518
T2
X182.118Y-67.056
X182.118Y-68.326
X182.118Y-69.596
T3
X195.58Y-33.02
X195.58Y-35.56
X195.58Y-38.1
X195.58Y-40.64
X195.58Y-43.18
X195.58Y-45.72
X195.58Y-48.26
X195.58Y-50.8
X195.58Y-53.34
X195.58Y-55.88
X195.58Y-58.42
X195.58Y-60.96
X195.58Y-63.5
X195.58Y-66.04
X195.58Y-68.58
X195.58Y-71.12
X195.58Y-73.66
X195.58Y-76.2
X195.58Y-78.74
X195.58Y-81.28
X210.82Y-33.02
X210.82Y-35.56
X210.82Y-38.1
X210.82Y-40.64
X210.82Y-43.18
X210.82Y-45.72
X210.82Y-48.26
X210.82Y-50.8
X210.82Y-53.34
X210.82Y-55.88
X210.82Y-58.42
X210.82Y-60.96
X210.82Y-63.5
X210.82Y-66.04
X210.82Y-68.58
X210.82Y-71.12
X210.82Y-73.66
X210.82Y-76.2
X210.82Y-78.74
X210.82Y-81.28
T4
X166.37Y-64.77
X166.37Y-67.27
X172.212Y-64.85
X172.212Y-67.35
X173.99Y-54.356
X173.99Y-61.976
X176.53Y-54.356
X176.53Y-61.976
X179.07Y-54.356
X179.07Y-61.976
X181.61Y-54.356
X181.61Y-61.976
X172.466Y-77.47
X175.006Y-77.47
X177.546Y-77.47
X229.616Y-60.198
X229.616Y-62.738
X229.616Y-65.278
X229.616Y-67.818
X229.616Y-70.358
X229.616Y-72.898
X229.616Y-75.438
X229.616Y-77.978
X229.616Y-80.518
X229.616Y-83.058
X244.856Y-60.198
X244.856Y-62.738
X244.856Y-65.278
X244.856Y-67.818
X244.856Y-70.358
X244.856Y-72.898
X244.856Y-75.438
X244.856Y-77.978
X244.856Y-80.518
X244.856Y-83.058
X229.616Y-31.75
X229.616Y-34.29
X229.616Y-36.83
X229.616Y-39.37
X229.616Y-41.91
X229.616Y-44.45
X229.616Y-46.99
X229.616Y-49.53
X229.616Y-52.07
X229.616Y-54.61
X244.856Y-31.75
X244.856Y-34.29
X244.856Y-36.83
X244.856Y-39.37
X244.856Y-41.91
X244.856Y-44.45
X244.856Y-46.99
X244.856Y-49.53
X244.856Y-52.07
X244.856Y-54.61
X168.148Y-60.706
X170.648Y-60.706
X168.188Y-54.864
X170.688Y-54.864
T5
X167.386Y-37.338
X167.386Y-39.878
X169.926Y-37.338
X169.926Y-39.878
X172.466Y-37.338
X172.466Y-39.878
X175.006Y-37.338
X175.006Y-39.878
X177.546Y-37.338
X177.546Y-39.878
X180.086Y-37.338
X180.086Y-39.878
X182.626Y-37.338
X182.626Y-39.878
X185.166Y-37.338
X185.166Y-39.878
X185.166Y-56.134
X185.166Y-58.674
X185.166Y-61.214
X221.996Y-39.37
X221.996Y-41.91
X221.996Y-44.45
X221.996Y-46.99
X224.536Y-39.37
X224.536Y-41.91
X224.536Y-44.45
X224.536Y-46.99
X184.658Y-77.978
X187.198Y-77.978
X189.738Y-77.978
X167.386Y-47.498
X167.386Y-50.038
X169.926Y-47.498
X169.926Y-50.038
X172.466Y-47.498
X172.466Y-50.038
X175.006Y-47.498
X175.006Y-50.038
X177.546Y-47.498
X177.546Y-50.038
X180.086Y-47.498
X180.086Y-50.038
X182.626Y-47.498
X182.626Y-50.038
X185.166Y-47.498
X185.166Y-50.038
X167.386Y-42.418
X167.386Y-44.958
X169.926Y-42.418
X169.926Y-44.958
X172.466Y-42.418
X172.466Y-44.958
X175.006Y-42.418
X175.006Y-44.958
X177.546Y-42.418
X177.546Y-44.958
X180.086Y-42.418
X180.086Y-44.958
X182.626Y-42.418
X182.626Y-44.958
X185.166Y-42.418
X185.166Y-44.958
X256.794Y-36.83
X256.794Y-39.37
X256.794Y-41.91
X256.794Y-44.45
X256.794Y-46.99
X256.794Y-49.53
X259.334Y-36.83
X259.334Y-39.37
X259.334Y-41.91
X259.334Y-44.45
X259.334Y-46.99
X259.334Y-49.53
X217.424Y-43.18
X217.424Y-45.72
X217.424Y-48.26
X217.424Y-50.8
X217.424Y-53.34
X217.424Y-55.88
X217.424Y-58.42
X217.424Y-60.96
X217.424Y-63.5
X217.424Y-66.04
X217.424Y-68.58
X217.424Y-71.12
X217.424Y-73.66
X217.424Y-76.2
X217.424Y-78.74
X188.976Y-33.02
X188.976Y-35.56
X188.976Y-38.1
X188.976Y-40.64
X188.976Y-43.18
X188.976Y-45.72
X188.976Y-48.26
X188.976Y-50.8
X188.976Y-53.34
X188.976Y-55.88
X188.976Y-58.42
X188.976Y-60.96
X188.976Y-63.5
X188.976Y-66.04
X188.976Y-68.58
X188.976Y-71.12
X188.976Y-73.66
X172.466Y-82.55
X175.006Y-82.55
X167.386Y-32.258
X167.386Y-34.798
X169.926Y-32.258
X169.926Y-34.798
X172.466Y-32.258
X172.466Y-34.798
X175.006Y-32.258
X175.006Y-34.798
X177.546Y-32.258
X177.546Y-34.798
X180.086Y-32.258
X180.086Y-34.798
X182.626Y-32.258
X182.626Y-34.798
X185.166Y-32.258
X185.166Y-34.798
X256.794Y-65.278
X256.794Y-67.818
X256.794Y-70.358
X256.794Y-72.898
X256.794Y-75.438
X256.794Y-77.978
X259.334Y-65.278
X259.334Y-67.818
X259.334Y-70.358
X259.334Y-72.898
X259.334Y-75.438
X259.334Y-77.978
X221.996Y-67.818
X221.996Y-70.358
X221.996Y-72.898
X221.996Y-75.438
X224.536Y-67.818
X224.536Y-70.358
X224.536Y-72.898
X224.536Y-75.438
T6
X172.466Y-71.12
X175.006Y-71.12
X177.546Y-71.12
T0
M30
