G04 #@! TF.GenerationSoftware,KiCad,Pcbnew,5.1.4*
G04 #@! TF.CreationDate,2019-11-24T22:59:27+01:00*
G04 #@! TF.ProjectId,control_board_prototype,636f6e74-726f-46c5-9f62-6f6172645f70,rev?*
G04 #@! TF.SameCoordinates,Original*
G04 #@! TF.FileFunction,Paste,Top*
G04 #@! TF.FilePolarity,Positive*
%FSLAX46Y46*%
G04 Gerber Fmt 4.6, Leading zero omitted, Abs format (unit mm)*
G04 Created by KiCad (PCBNEW 5.1.4) date 2019-11-24 22:59:27*
%MOMM*%
%LPD*%
G04 APERTURE LIST*
%ADD10R,1.000000X0.500000*%
%ADD11C,0.353906*%
%ADD12C,0.100000*%
%ADD13C,0.424616*%
%ADD14C,1.150000*%
%ADD15R,1.000000X0.400000*%
G04 APERTURE END LIST*
D10*
X179291000Y-67410000D03*
D11*
X179291000Y-66610000D03*
D12*
G36*
X179790500Y-66360000D02*
G01*
X179291500Y-66860000D01*
X179290500Y-66860000D01*
X178791500Y-66360000D01*
X179790500Y-66360000D01*
X179790500Y-66360000D01*
G37*
D13*
X179578000Y-67310000D03*
D12*
G36*
X179789778Y-66673957D02*
G01*
X179790486Y-67521778D01*
X179789778Y-67522486D01*
X178941957Y-67521778D01*
X179789778Y-66673957D01*
X179789778Y-66673957D01*
G37*
D13*
X179004000Y-67310000D03*
D12*
G36*
X179640043Y-67521778D02*
G01*
X178792222Y-67522486D01*
X178791514Y-67521778D01*
X178792222Y-66673957D01*
X179640043Y-67521778D01*
X179640043Y-67521778D01*
G37*
D10*
X179291000Y-66110000D03*
D12*
G36*
X183247505Y-63563204D02*
G01*
X183271773Y-63566804D01*
X183295572Y-63572765D01*
X183318671Y-63581030D01*
X183340850Y-63591520D01*
X183361893Y-63604132D01*
X183381599Y-63618747D01*
X183399777Y-63635223D01*
X183416253Y-63653401D01*
X183430868Y-63673107D01*
X183443480Y-63694150D01*
X183453970Y-63716329D01*
X183462235Y-63739428D01*
X183468196Y-63763227D01*
X183471796Y-63787495D01*
X183473000Y-63811999D01*
X183473000Y-64712001D01*
X183471796Y-64736505D01*
X183468196Y-64760773D01*
X183462235Y-64784572D01*
X183453970Y-64807671D01*
X183443480Y-64829850D01*
X183430868Y-64850893D01*
X183416253Y-64870599D01*
X183399777Y-64888777D01*
X183381599Y-64905253D01*
X183361893Y-64919868D01*
X183340850Y-64932480D01*
X183318671Y-64942970D01*
X183295572Y-64951235D01*
X183271773Y-64957196D01*
X183247505Y-64960796D01*
X183223001Y-64962000D01*
X182572999Y-64962000D01*
X182548495Y-64960796D01*
X182524227Y-64957196D01*
X182500428Y-64951235D01*
X182477329Y-64942970D01*
X182455150Y-64932480D01*
X182434107Y-64919868D01*
X182414401Y-64905253D01*
X182396223Y-64888777D01*
X182379747Y-64870599D01*
X182365132Y-64850893D01*
X182352520Y-64829850D01*
X182342030Y-64807671D01*
X182333765Y-64784572D01*
X182327804Y-64760773D01*
X182324204Y-64736505D01*
X182323000Y-64712001D01*
X182323000Y-63811999D01*
X182324204Y-63787495D01*
X182327804Y-63763227D01*
X182333765Y-63739428D01*
X182342030Y-63716329D01*
X182352520Y-63694150D01*
X182365132Y-63673107D01*
X182379747Y-63653401D01*
X182396223Y-63635223D01*
X182414401Y-63618747D01*
X182434107Y-63604132D01*
X182455150Y-63591520D01*
X182477329Y-63581030D01*
X182500428Y-63572765D01*
X182524227Y-63566804D01*
X182548495Y-63563204D01*
X182572999Y-63562000D01*
X183223001Y-63562000D01*
X183247505Y-63563204D01*
X183247505Y-63563204D01*
G37*
D14*
X182898000Y-64262000D03*
D12*
G36*
X181197505Y-63563204D02*
G01*
X181221773Y-63566804D01*
X181245572Y-63572765D01*
X181268671Y-63581030D01*
X181290850Y-63591520D01*
X181311893Y-63604132D01*
X181331599Y-63618747D01*
X181349777Y-63635223D01*
X181366253Y-63653401D01*
X181380868Y-63673107D01*
X181393480Y-63694150D01*
X181403970Y-63716329D01*
X181412235Y-63739428D01*
X181418196Y-63763227D01*
X181421796Y-63787495D01*
X181423000Y-63811999D01*
X181423000Y-64712001D01*
X181421796Y-64736505D01*
X181418196Y-64760773D01*
X181412235Y-64784572D01*
X181403970Y-64807671D01*
X181393480Y-64829850D01*
X181380868Y-64850893D01*
X181366253Y-64870599D01*
X181349777Y-64888777D01*
X181331599Y-64905253D01*
X181311893Y-64919868D01*
X181290850Y-64932480D01*
X181268671Y-64942970D01*
X181245572Y-64951235D01*
X181221773Y-64957196D01*
X181197505Y-64960796D01*
X181173001Y-64962000D01*
X180522999Y-64962000D01*
X180498495Y-64960796D01*
X180474227Y-64957196D01*
X180450428Y-64951235D01*
X180427329Y-64942970D01*
X180405150Y-64932480D01*
X180384107Y-64919868D01*
X180364401Y-64905253D01*
X180346223Y-64888777D01*
X180329747Y-64870599D01*
X180315132Y-64850893D01*
X180302520Y-64829850D01*
X180292030Y-64807671D01*
X180283765Y-64784572D01*
X180277804Y-64760773D01*
X180274204Y-64736505D01*
X180273000Y-64712001D01*
X180273000Y-63811999D01*
X180274204Y-63787495D01*
X180277804Y-63763227D01*
X180283765Y-63739428D01*
X180292030Y-63716329D01*
X180302520Y-63694150D01*
X180315132Y-63673107D01*
X180329747Y-63653401D01*
X180346223Y-63635223D01*
X180364401Y-63618747D01*
X180384107Y-63604132D01*
X180405150Y-63591520D01*
X180427329Y-63581030D01*
X180450428Y-63572765D01*
X180474227Y-63566804D01*
X180498495Y-63563204D01*
X180522999Y-63562000D01*
X181173001Y-63562000D01*
X181197505Y-63563204D01*
X181197505Y-63563204D01*
G37*
D14*
X180848000Y-64262000D03*
D12*
G36*
X179437505Y-63563204D02*
G01*
X179461773Y-63566804D01*
X179485572Y-63572765D01*
X179508671Y-63581030D01*
X179530850Y-63591520D01*
X179551893Y-63604132D01*
X179571599Y-63618747D01*
X179589777Y-63635223D01*
X179606253Y-63653401D01*
X179620868Y-63673107D01*
X179633480Y-63694150D01*
X179643970Y-63716329D01*
X179652235Y-63739428D01*
X179658196Y-63763227D01*
X179661796Y-63787495D01*
X179663000Y-63811999D01*
X179663000Y-64712001D01*
X179661796Y-64736505D01*
X179658196Y-64760773D01*
X179652235Y-64784572D01*
X179643970Y-64807671D01*
X179633480Y-64829850D01*
X179620868Y-64850893D01*
X179606253Y-64870599D01*
X179589777Y-64888777D01*
X179571599Y-64905253D01*
X179551893Y-64919868D01*
X179530850Y-64932480D01*
X179508671Y-64942970D01*
X179485572Y-64951235D01*
X179461773Y-64957196D01*
X179437505Y-64960796D01*
X179413001Y-64962000D01*
X178762999Y-64962000D01*
X178738495Y-64960796D01*
X178714227Y-64957196D01*
X178690428Y-64951235D01*
X178667329Y-64942970D01*
X178645150Y-64932480D01*
X178624107Y-64919868D01*
X178604401Y-64905253D01*
X178586223Y-64888777D01*
X178569747Y-64870599D01*
X178555132Y-64850893D01*
X178542520Y-64829850D01*
X178532030Y-64807671D01*
X178523765Y-64784572D01*
X178517804Y-64760773D01*
X178514204Y-64736505D01*
X178513000Y-64712001D01*
X178513000Y-63811999D01*
X178514204Y-63787495D01*
X178517804Y-63763227D01*
X178523765Y-63739428D01*
X178532030Y-63716329D01*
X178542520Y-63694150D01*
X178555132Y-63673107D01*
X178569747Y-63653401D01*
X178586223Y-63635223D01*
X178604401Y-63618747D01*
X178624107Y-63604132D01*
X178645150Y-63591520D01*
X178667329Y-63581030D01*
X178690428Y-63572765D01*
X178714227Y-63566804D01*
X178738495Y-63563204D01*
X178762999Y-63562000D01*
X179413001Y-63562000D01*
X179437505Y-63563204D01*
X179437505Y-63563204D01*
G37*
D14*
X179088000Y-64262000D03*
D12*
G36*
X177387505Y-63563204D02*
G01*
X177411773Y-63566804D01*
X177435572Y-63572765D01*
X177458671Y-63581030D01*
X177480850Y-63591520D01*
X177501893Y-63604132D01*
X177521599Y-63618747D01*
X177539777Y-63635223D01*
X177556253Y-63653401D01*
X177570868Y-63673107D01*
X177583480Y-63694150D01*
X177593970Y-63716329D01*
X177602235Y-63739428D01*
X177608196Y-63763227D01*
X177611796Y-63787495D01*
X177613000Y-63811999D01*
X177613000Y-64712001D01*
X177611796Y-64736505D01*
X177608196Y-64760773D01*
X177602235Y-64784572D01*
X177593970Y-64807671D01*
X177583480Y-64829850D01*
X177570868Y-64850893D01*
X177556253Y-64870599D01*
X177539777Y-64888777D01*
X177521599Y-64905253D01*
X177501893Y-64919868D01*
X177480850Y-64932480D01*
X177458671Y-64942970D01*
X177435572Y-64951235D01*
X177411773Y-64957196D01*
X177387505Y-64960796D01*
X177363001Y-64962000D01*
X176712999Y-64962000D01*
X176688495Y-64960796D01*
X176664227Y-64957196D01*
X176640428Y-64951235D01*
X176617329Y-64942970D01*
X176595150Y-64932480D01*
X176574107Y-64919868D01*
X176554401Y-64905253D01*
X176536223Y-64888777D01*
X176519747Y-64870599D01*
X176505132Y-64850893D01*
X176492520Y-64829850D01*
X176482030Y-64807671D01*
X176473765Y-64784572D01*
X176467804Y-64760773D01*
X176464204Y-64736505D01*
X176463000Y-64712001D01*
X176463000Y-63811999D01*
X176464204Y-63787495D01*
X176467804Y-63763227D01*
X176473765Y-63739428D01*
X176482030Y-63716329D01*
X176492520Y-63694150D01*
X176505132Y-63673107D01*
X176519747Y-63653401D01*
X176536223Y-63635223D01*
X176554401Y-63618747D01*
X176574107Y-63604132D01*
X176595150Y-63591520D01*
X176617329Y-63581030D01*
X176640428Y-63572765D01*
X176664227Y-63566804D01*
X176688495Y-63563204D01*
X176712999Y-63562000D01*
X177363001Y-63562000D01*
X177387505Y-63563204D01*
X177387505Y-63563204D01*
G37*
D14*
X177038000Y-64262000D03*
D12*
G36*
X178528505Y-83001204D02*
G01*
X178552773Y-83004804D01*
X178576572Y-83010765D01*
X178599671Y-83019030D01*
X178621850Y-83029520D01*
X178642893Y-83042132D01*
X178662599Y-83056747D01*
X178680777Y-83073223D01*
X178697253Y-83091401D01*
X178711868Y-83111107D01*
X178724480Y-83132150D01*
X178734970Y-83154329D01*
X178743235Y-83177428D01*
X178749196Y-83201227D01*
X178752796Y-83225495D01*
X178754000Y-83249999D01*
X178754000Y-83900001D01*
X178752796Y-83924505D01*
X178749196Y-83948773D01*
X178743235Y-83972572D01*
X178734970Y-83995671D01*
X178724480Y-84017850D01*
X178711868Y-84038893D01*
X178697253Y-84058599D01*
X178680777Y-84076777D01*
X178662599Y-84093253D01*
X178642893Y-84107868D01*
X178621850Y-84120480D01*
X178599671Y-84130970D01*
X178576572Y-84139235D01*
X178552773Y-84145196D01*
X178528505Y-84148796D01*
X178504001Y-84150000D01*
X177603999Y-84150000D01*
X177579495Y-84148796D01*
X177555227Y-84145196D01*
X177531428Y-84139235D01*
X177508329Y-84130970D01*
X177486150Y-84120480D01*
X177465107Y-84107868D01*
X177445401Y-84093253D01*
X177427223Y-84076777D01*
X177410747Y-84058599D01*
X177396132Y-84038893D01*
X177383520Y-84017850D01*
X177373030Y-83995671D01*
X177364765Y-83972572D01*
X177358804Y-83948773D01*
X177355204Y-83924505D01*
X177354000Y-83900001D01*
X177354000Y-83249999D01*
X177355204Y-83225495D01*
X177358804Y-83201227D01*
X177364765Y-83177428D01*
X177373030Y-83154329D01*
X177383520Y-83132150D01*
X177396132Y-83111107D01*
X177410747Y-83091401D01*
X177427223Y-83073223D01*
X177445401Y-83056747D01*
X177465107Y-83042132D01*
X177486150Y-83029520D01*
X177508329Y-83019030D01*
X177531428Y-83010765D01*
X177555227Y-83004804D01*
X177579495Y-83001204D01*
X177603999Y-83000000D01*
X178504001Y-83000000D01*
X178528505Y-83001204D01*
X178528505Y-83001204D01*
G37*
D14*
X178054000Y-83575000D03*
D12*
G36*
X178528505Y-80951204D02*
G01*
X178552773Y-80954804D01*
X178576572Y-80960765D01*
X178599671Y-80969030D01*
X178621850Y-80979520D01*
X178642893Y-80992132D01*
X178662599Y-81006747D01*
X178680777Y-81023223D01*
X178697253Y-81041401D01*
X178711868Y-81061107D01*
X178724480Y-81082150D01*
X178734970Y-81104329D01*
X178743235Y-81127428D01*
X178749196Y-81151227D01*
X178752796Y-81175495D01*
X178754000Y-81199999D01*
X178754000Y-81850001D01*
X178752796Y-81874505D01*
X178749196Y-81898773D01*
X178743235Y-81922572D01*
X178734970Y-81945671D01*
X178724480Y-81967850D01*
X178711868Y-81988893D01*
X178697253Y-82008599D01*
X178680777Y-82026777D01*
X178662599Y-82043253D01*
X178642893Y-82057868D01*
X178621850Y-82070480D01*
X178599671Y-82080970D01*
X178576572Y-82089235D01*
X178552773Y-82095196D01*
X178528505Y-82098796D01*
X178504001Y-82100000D01*
X177603999Y-82100000D01*
X177579495Y-82098796D01*
X177555227Y-82095196D01*
X177531428Y-82089235D01*
X177508329Y-82080970D01*
X177486150Y-82070480D01*
X177465107Y-82057868D01*
X177445401Y-82043253D01*
X177427223Y-82026777D01*
X177410747Y-82008599D01*
X177396132Y-81988893D01*
X177383520Y-81967850D01*
X177373030Y-81945671D01*
X177364765Y-81922572D01*
X177358804Y-81898773D01*
X177355204Y-81874505D01*
X177354000Y-81850001D01*
X177354000Y-81199999D01*
X177355204Y-81175495D01*
X177358804Y-81151227D01*
X177364765Y-81127428D01*
X177373030Y-81104329D01*
X177383520Y-81082150D01*
X177396132Y-81061107D01*
X177410747Y-81041401D01*
X177427223Y-81023223D01*
X177445401Y-81006747D01*
X177465107Y-80992132D01*
X177486150Y-80979520D01*
X177508329Y-80969030D01*
X177531428Y-80960765D01*
X177555227Y-80954804D01*
X177579495Y-80951204D01*
X177603999Y-80950000D01*
X178504001Y-80950000D01*
X178528505Y-80951204D01*
X178528505Y-80951204D01*
G37*
D14*
X178054000Y-81525000D03*
D12*
G36*
X177913505Y-67636204D02*
G01*
X177937773Y-67639804D01*
X177961572Y-67645765D01*
X177984671Y-67654030D01*
X178006850Y-67664520D01*
X178027893Y-67677132D01*
X178047599Y-67691747D01*
X178065777Y-67708223D01*
X178082253Y-67726401D01*
X178096868Y-67746107D01*
X178109480Y-67767150D01*
X178119970Y-67789329D01*
X178128235Y-67812428D01*
X178134196Y-67836227D01*
X178137796Y-67860495D01*
X178139000Y-67884999D01*
X178139000Y-68785001D01*
X178137796Y-68809505D01*
X178134196Y-68833773D01*
X178128235Y-68857572D01*
X178119970Y-68880671D01*
X178109480Y-68902850D01*
X178096868Y-68923893D01*
X178082253Y-68943599D01*
X178065777Y-68961777D01*
X178047599Y-68978253D01*
X178027893Y-68992868D01*
X178006850Y-69005480D01*
X177984671Y-69015970D01*
X177961572Y-69024235D01*
X177937773Y-69030196D01*
X177913505Y-69033796D01*
X177889001Y-69035000D01*
X177238999Y-69035000D01*
X177214495Y-69033796D01*
X177190227Y-69030196D01*
X177166428Y-69024235D01*
X177143329Y-69015970D01*
X177121150Y-69005480D01*
X177100107Y-68992868D01*
X177080401Y-68978253D01*
X177062223Y-68961777D01*
X177045747Y-68943599D01*
X177031132Y-68923893D01*
X177018520Y-68902850D01*
X177008030Y-68880671D01*
X176999765Y-68857572D01*
X176993804Y-68833773D01*
X176990204Y-68809505D01*
X176989000Y-68785001D01*
X176989000Y-67884999D01*
X176990204Y-67860495D01*
X176993804Y-67836227D01*
X176999765Y-67812428D01*
X177008030Y-67789329D01*
X177018520Y-67767150D01*
X177031132Y-67746107D01*
X177045747Y-67726401D01*
X177062223Y-67708223D01*
X177080401Y-67691747D01*
X177100107Y-67677132D01*
X177121150Y-67664520D01*
X177143329Y-67654030D01*
X177166428Y-67645765D01*
X177190227Y-67639804D01*
X177214495Y-67636204D01*
X177238999Y-67635000D01*
X177889001Y-67635000D01*
X177913505Y-67636204D01*
X177913505Y-67636204D01*
G37*
D14*
X177564000Y-68335000D03*
D12*
G36*
X175863505Y-67636204D02*
G01*
X175887773Y-67639804D01*
X175911572Y-67645765D01*
X175934671Y-67654030D01*
X175956850Y-67664520D01*
X175977893Y-67677132D01*
X175997599Y-67691747D01*
X176015777Y-67708223D01*
X176032253Y-67726401D01*
X176046868Y-67746107D01*
X176059480Y-67767150D01*
X176069970Y-67789329D01*
X176078235Y-67812428D01*
X176084196Y-67836227D01*
X176087796Y-67860495D01*
X176089000Y-67884999D01*
X176089000Y-68785001D01*
X176087796Y-68809505D01*
X176084196Y-68833773D01*
X176078235Y-68857572D01*
X176069970Y-68880671D01*
X176059480Y-68902850D01*
X176046868Y-68923893D01*
X176032253Y-68943599D01*
X176015777Y-68961777D01*
X175997599Y-68978253D01*
X175977893Y-68992868D01*
X175956850Y-69005480D01*
X175934671Y-69015970D01*
X175911572Y-69024235D01*
X175887773Y-69030196D01*
X175863505Y-69033796D01*
X175839001Y-69035000D01*
X175188999Y-69035000D01*
X175164495Y-69033796D01*
X175140227Y-69030196D01*
X175116428Y-69024235D01*
X175093329Y-69015970D01*
X175071150Y-69005480D01*
X175050107Y-68992868D01*
X175030401Y-68978253D01*
X175012223Y-68961777D01*
X174995747Y-68943599D01*
X174981132Y-68923893D01*
X174968520Y-68902850D01*
X174958030Y-68880671D01*
X174949765Y-68857572D01*
X174943804Y-68833773D01*
X174940204Y-68809505D01*
X174939000Y-68785001D01*
X174939000Y-67884999D01*
X174940204Y-67860495D01*
X174943804Y-67836227D01*
X174949765Y-67812428D01*
X174958030Y-67789329D01*
X174968520Y-67767150D01*
X174981132Y-67746107D01*
X174995747Y-67726401D01*
X175012223Y-67708223D01*
X175030401Y-67691747D01*
X175050107Y-67677132D01*
X175071150Y-67664520D01*
X175093329Y-67654030D01*
X175116428Y-67645765D01*
X175140227Y-67639804D01*
X175164495Y-67636204D01*
X175188999Y-67635000D01*
X175839001Y-67635000D01*
X175863505Y-67636204D01*
X175863505Y-67636204D01*
G37*
D14*
X175514000Y-68335000D03*
D12*
G36*
X223370505Y-54165204D02*
G01*
X223394773Y-54168804D01*
X223418572Y-54174765D01*
X223441671Y-54183030D01*
X223463850Y-54193520D01*
X223484893Y-54206132D01*
X223504599Y-54220747D01*
X223522777Y-54237223D01*
X223539253Y-54255401D01*
X223553868Y-54275107D01*
X223566480Y-54296150D01*
X223576970Y-54318329D01*
X223585235Y-54341428D01*
X223591196Y-54365227D01*
X223594796Y-54389495D01*
X223596000Y-54413999D01*
X223596000Y-55314001D01*
X223594796Y-55338505D01*
X223591196Y-55362773D01*
X223585235Y-55386572D01*
X223576970Y-55409671D01*
X223566480Y-55431850D01*
X223553868Y-55452893D01*
X223539253Y-55472599D01*
X223522777Y-55490777D01*
X223504599Y-55507253D01*
X223484893Y-55521868D01*
X223463850Y-55534480D01*
X223441671Y-55544970D01*
X223418572Y-55553235D01*
X223394773Y-55559196D01*
X223370505Y-55562796D01*
X223346001Y-55564000D01*
X222695999Y-55564000D01*
X222671495Y-55562796D01*
X222647227Y-55559196D01*
X222623428Y-55553235D01*
X222600329Y-55544970D01*
X222578150Y-55534480D01*
X222557107Y-55521868D01*
X222537401Y-55507253D01*
X222519223Y-55490777D01*
X222502747Y-55472599D01*
X222488132Y-55452893D01*
X222475520Y-55431850D01*
X222465030Y-55409671D01*
X222456765Y-55386572D01*
X222450804Y-55362773D01*
X222447204Y-55338505D01*
X222446000Y-55314001D01*
X222446000Y-54413999D01*
X222447204Y-54389495D01*
X222450804Y-54365227D01*
X222456765Y-54341428D01*
X222465030Y-54318329D01*
X222475520Y-54296150D01*
X222488132Y-54275107D01*
X222502747Y-54255401D01*
X222519223Y-54237223D01*
X222537401Y-54220747D01*
X222557107Y-54206132D01*
X222578150Y-54193520D01*
X222600329Y-54183030D01*
X222623428Y-54174765D01*
X222647227Y-54168804D01*
X222671495Y-54165204D01*
X222695999Y-54164000D01*
X223346001Y-54164000D01*
X223370505Y-54165204D01*
X223370505Y-54165204D01*
G37*
D14*
X223021000Y-54864000D03*
D12*
G36*
X221320505Y-54165204D02*
G01*
X221344773Y-54168804D01*
X221368572Y-54174765D01*
X221391671Y-54183030D01*
X221413850Y-54193520D01*
X221434893Y-54206132D01*
X221454599Y-54220747D01*
X221472777Y-54237223D01*
X221489253Y-54255401D01*
X221503868Y-54275107D01*
X221516480Y-54296150D01*
X221526970Y-54318329D01*
X221535235Y-54341428D01*
X221541196Y-54365227D01*
X221544796Y-54389495D01*
X221546000Y-54413999D01*
X221546000Y-55314001D01*
X221544796Y-55338505D01*
X221541196Y-55362773D01*
X221535235Y-55386572D01*
X221526970Y-55409671D01*
X221516480Y-55431850D01*
X221503868Y-55452893D01*
X221489253Y-55472599D01*
X221472777Y-55490777D01*
X221454599Y-55507253D01*
X221434893Y-55521868D01*
X221413850Y-55534480D01*
X221391671Y-55544970D01*
X221368572Y-55553235D01*
X221344773Y-55559196D01*
X221320505Y-55562796D01*
X221296001Y-55564000D01*
X220645999Y-55564000D01*
X220621495Y-55562796D01*
X220597227Y-55559196D01*
X220573428Y-55553235D01*
X220550329Y-55544970D01*
X220528150Y-55534480D01*
X220507107Y-55521868D01*
X220487401Y-55507253D01*
X220469223Y-55490777D01*
X220452747Y-55472599D01*
X220438132Y-55452893D01*
X220425520Y-55431850D01*
X220415030Y-55409671D01*
X220406765Y-55386572D01*
X220400804Y-55362773D01*
X220397204Y-55338505D01*
X220396000Y-55314001D01*
X220396000Y-54413999D01*
X220397204Y-54389495D01*
X220400804Y-54365227D01*
X220406765Y-54341428D01*
X220415030Y-54318329D01*
X220425520Y-54296150D01*
X220438132Y-54275107D01*
X220452747Y-54255401D01*
X220469223Y-54237223D01*
X220487401Y-54220747D01*
X220507107Y-54206132D01*
X220528150Y-54193520D01*
X220550329Y-54183030D01*
X220573428Y-54174765D01*
X220597227Y-54168804D01*
X220621495Y-54165204D01*
X220645999Y-54164000D01*
X221296001Y-54164000D01*
X221320505Y-54165204D01*
X221320505Y-54165204D01*
G37*
D14*
X220971000Y-54864000D03*
D12*
G36*
X223370505Y-33337204D02*
G01*
X223394773Y-33340804D01*
X223418572Y-33346765D01*
X223441671Y-33355030D01*
X223463850Y-33365520D01*
X223484893Y-33378132D01*
X223504599Y-33392747D01*
X223522777Y-33409223D01*
X223539253Y-33427401D01*
X223553868Y-33447107D01*
X223566480Y-33468150D01*
X223576970Y-33490329D01*
X223585235Y-33513428D01*
X223591196Y-33537227D01*
X223594796Y-33561495D01*
X223596000Y-33585999D01*
X223596000Y-34486001D01*
X223594796Y-34510505D01*
X223591196Y-34534773D01*
X223585235Y-34558572D01*
X223576970Y-34581671D01*
X223566480Y-34603850D01*
X223553868Y-34624893D01*
X223539253Y-34644599D01*
X223522777Y-34662777D01*
X223504599Y-34679253D01*
X223484893Y-34693868D01*
X223463850Y-34706480D01*
X223441671Y-34716970D01*
X223418572Y-34725235D01*
X223394773Y-34731196D01*
X223370505Y-34734796D01*
X223346001Y-34736000D01*
X222695999Y-34736000D01*
X222671495Y-34734796D01*
X222647227Y-34731196D01*
X222623428Y-34725235D01*
X222600329Y-34716970D01*
X222578150Y-34706480D01*
X222557107Y-34693868D01*
X222537401Y-34679253D01*
X222519223Y-34662777D01*
X222502747Y-34644599D01*
X222488132Y-34624893D01*
X222475520Y-34603850D01*
X222465030Y-34581671D01*
X222456765Y-34558572D01*
X222450804Y-34534773D01*
X222447204Y-34510505D01*
X222446000Y-34486001D01*
X222446000Y-33585999D01*
X222447204Y-33561495D01*
X222450804Y-33537227D01*
X222456765Y-33513428D01*
X222465030Y-33490329D01*
X222475520Y-33468150D01*
X222488132Y-33447107D01*
X222502747Y-33427401D01*
X222519223Y-33409223D01*
X222537401Y-33392747D01*
X222557107Y-33378132D01*
X222578150Y-33365520D01*
X222600329Y-33355030D01*
X222623428Y-33346765D01*
X222647227Y-33340804D01*
X222671495Y-33337204D01*
X222695999Y-33336000D01*
X223346001Y-33336000D01*
X223370505Y-33337204D01*
X223370505Y-33337204D01*
G37*
D14*
X223021000Y-34036000D03*
D12*
G36*
X221320505Y-33337204D02*
G01*
X221344773Y-33340804D01*
X221368572Y-33346765D01*
X221391671Y-33355030D01*
X221413850Y-33365520D01*
X221434893Y-33378132D01*
X221454599Y-33392747D01*
X221472777Y-33409223D01*
X221489253Y-33427401D01*
X221503868Y-33447107D01*
X221516480Y-33468150D01*
X221526970Y-33490329D01*
X221535235Y-33513428D01*
X221541196Y-33537227D01*
X221544796Y-33561495D01*
X221546000Y-33585999D01*
X221546000Y-34486001D01*
X221544796Y-34510505D01*
X221541196Y-34534773D01*
X221535235Y-34558572D01*
X221526970Y-34581671D01*
X221516480Y-34603850D01*
X221503868Y-34624893D01*
X221489253Y-34644599D01*
X221472777Y-34662777D01*
X221454599Y-34679253D01*
X221434893Y-34693868D01*
X221413850Y-34706480D01*
X221391671Y-34716970D01*
X221368572Y-34725235D01*
X221344773Y-34731196D01*
X221320505Y-34734796D01*
X221296001Y-34736000D01*
X220645999Y-34736000D01*
X220621495Y-34734796D01*
X220597227Y-34731196D01*
X220573428Y-34725235D01*
X220550329Y-34716970D01*
X220528150Y-34706480D01*
X220507107Y-34693868D01*
X220487401Y-34679253D01*
X220469223Y-34662777D01*
X220452747Y-34644599D01*
X220438132Y-34624893D01*
X220425520Y-34603850D01*
X220415030Y-34581671D01*
X220406765Y-34558572D01*
X220400804Y-34534773D01*
X220397204Y-34510505D01*
X220396000Y-34486001D01*
X220396000Y-33585999D01*
X220397204Y-33561495D01*
X220400804Y-33537227D01*
X220406765Y-33513428D01*
X220415030Y-33490329D01*
X220425520Y-33468150D01*
X220438132Y-33447107D01*
X220452747Y-33427401D01*
X220469223Y-33409223D01*
X220487401Y-33392747D01*
X220507107Y-33378132D01*
X220528150Y-33365520D01*
X220550329Y-33355030D01*
X220573428Y-33346765D01*
X220597227Y-33340804D01*
X220621495Y-33337204D01*
X220645999Y-33336000D01*
X221296001Y-33336000D01*
X221320505Y-33337204D01*
X221320505Y-33337204D01*
G37*
D14*
X220971000Y-34036000D03*
D12*
G36*
X251800505Y-33591204D02*
G01*
X251824773Y-33594804D01*
X251848572Y-33600765D01*
X251871671Y-33609030D01*
X251893850Y-33619520D01*
X251914893Y-33632132D01*
X251934599Y-33646747D01*
X251952777Y-33663223D01*
X251969253Y-33681401D01*
X251983868Y-33701107D01*
X251996480Y-33722150D01*
X252006970Y-33744329D01*
X252015235Y-33767428D01*
X252021196Y-33791227D01*
X252024796Y-33815495D01*
X252026000Y-33839999D01*
X252026000Y-34740001D01*
X252024796Y-34764505D01*
X252021196Y-34788773D01*
X252015235Y-34812572D01*
X252006970Y-34835671D01*
X251996480Y-34857850D01*
X251983868Y-34878893D01*
X251969253Y-34898599D01*
X251952777Y-34916777D01*
X251934599Y-34933253D01*
X251914893Y-34947868D01*
X251893850Y-34960480D01*
X251871671Y-34970970D01*
X251848572Y-34979235D01*
X251824773Y-34985196D01*
X251800505Y-34988796D01*
X251776001Y-34990000D01*
X251125999Y-34990000D01*
X251101495Y-34988796D01*
X251077227Y-34985196D01*
X251053428Y-34979235D01*
X251030329Y-34970970D01*
X251008150Y-34960480D01*
X250987107Y-34947868D01*
X250967401Y-34933253D01*
X250949223Y-34916777D01*
X250932747Y-34898599D01*
X250918132Y-34878893D01*
X250905520Y-34857850D01*
X250895030Y-34835671D01*
X250886765Y-34812572D01*
X250880804Y-34788773D01*
X250877204Y-34764505D01*
X250876000Y-34740001D01*
X250876000Y-33839999D01*
X250877204Y-33815495D01*
X250880804Y-33791227D01*
X250886765Y-33767428D01*
X250895030Y-33744329D01*
X250905520Y-33722150D01*
X250918132Y-33701107D01*
X250932747Y-33681401D01*
X250949223Y-33663223D01*
X250967401Y-33646747D01*
X250987107Y-33632132D01*
X251008150Y-33619520D01*
X251030329Y-33609030D01*
X251053428Y-33600765D01*
X251077227Y-33594804D01*
X251101495Y-33591204D01*
X251125999Y-33590000D01*
X251776001Y-33590000D01*
X251800505Y-33591204D01*
X251800505Y-33591204D01*
G37*
D14*
X251451000Y-34290000D03*
D12*
G36*
X253850505Y-33591204D02*
G01*
X253874773Y-33594804D01*
X253898572Y-33600765D01*
X253921671Y-33609030D01*
X253943850Y-33619520D01*
X253964893Y-33632132D01*
X253984599Y-33646747D01*
X254002777Y-33663223D01*
X254019253Y-33681401D01*
X254033868Y-33701107D01*
X254046480Y-33722150D01*
X254056970Y-33744329D01*
X254065235Y-33767428D01*
X254071196Y-33791227D01*
X254074796Y-33815495D01*
X254076000Y-33839999D01*
X254076000Y-34740001D01*
X254074796Y-34764505D01*
X254071196Y-34788773D01*
X254065235Y-34812572D01*
X254056970Y-34835671D01*
X254046480Y-34857850D01*
X254033868Y-34878893D01*
X254019253Y-34898599D01*
X254002777Y-34916777D01*
X253984599Y-34933253D01*
X253964893Y-34947868D01*
X253943850Y-34960480D01*
X253921671Y-34970970D01*
X253898572Y-34979235D01*
X253874773Y-34985196D01*
X253850505Y-34988796D01*
X253826001Y-34990000D01*
X253175999Y-34990000D01*
X253151495Y-34988796D01*
X253127227Y-34985196D01*
X253103428Y-34979235D01*
X253080329Y-34970970D01*
X253058150Y-34960480D01*
X253037107Y-34947868D01*
X253017401Y-34933253D01*
X252999223Y-34916777D01*
X252982747Y-34898599D01*
X252968132Y-34878893D01*
X252955520Y-34857850D01*
X252945030Y-34835671D01*
X252936765Y-34812572D01*
X252930804Y-34788773D01*
X252927204Y-34764505D01*
X252926000Y-34740001D01*
X252926000Y-33839999D01*
X252927204Y-33815495D01*
X252930804Y-33791227D01*
X252936765Y-33767428D01*
X252945030Y-33744329D01*
X252955520Y-33722150D01*
X252968132Y-33701107D01*
X252982747Y-33681401D01*
X252999223Y-33663223D01*
X253017401Y-33646747D01*
X253037107Y-33632132D01*
X253058150Y-33619520D01*
X253080329Y-33609030D01*
X253103428Y-33600765D01*
X253127227Y-33594804D01*
X253151495Y-33591204D01*
X253175999Y-33590000D01*
X253826001Y-33590000D01*
X253850505Y-33591204D01*
X253850505Y-33591204D01*
G37*
D14*
X253501000Y-34290000D03*
D12*
G36*
X238601505Y-47307204D02*
G01*
X238625773Y-47310804D01*
X238649572Y-47316765D01*
X238672671Y-47325030D01*
X238694850Y-47335520D01*
X238715893Y-47348132D01*
X238735599Y-47362747D01*
X238753777Y-47379223D01*
X238770253Y-47397401D01*
X238784868Y-47417107D01*
X238797480Y-47438150D01*
X238807970Y-47460329D01*
X238816235Y-47483428D01*
X238822196Y-47507227D01*
X238825796Y-47531495D01*
X238827000Y-47555999D01*
X238827000Y-48456001D01*
X238825796Y-48480505D01*
X238822196Y-48504773D01*
X238816235Y-48528572D01*
X238807970Y-48551671D01*
X238797480Y-48573850D01*
X238784868Y-48594893D01*
X238770253Y-48614599D01*
X238753777Y-48632777D01*
X238735599Y-48649253D01*
X238715893Y-48663868D01*
X238694850Y-48676480D01*
X238672671Y-48686970D01*
X238649572Y-48695235D01*
X238625773Y-48701196D01*
X238601505Y-48704796D01*
X238577001Y-48706000D01*
X237926999Y-48706000D01*
X237902495Y-48704796D01*
X237878227Y-48701196D01*
X237854428Y-48695235D01*
X237831329Y-48686970D01*
X237809150Y-48676480D01*
X237788107Y-48663868D01*
X237768401Y-48649253D01*
X237750223Y-48632777D01*
X237733747Y-48614599D01*
X237719132Y-48594893D01*
X237706520Y-48573850D01*
X237696030Y-48551671D01*
X237687765Y-48528572D01*
X237681804Y-48504773D01*
X237678204Y-48480505D01*
X237677000Y-48456001D01*
X237677000Y-47555999D01*
X237678204Y-47531495D01*
X237681804Y-47507227D01*
X237687765Y-47483428D01*
X237696030Y-47460329D01*
X237706520Y-47438150D01*
X237719132Y-47417107D01*
X237733747Y-47397401D01*
X237750223Y-47379223D01*
X237768401Y-47362747D01*
X237788107Y-47348132D01*
X237809150Y-47335520D01*
X237831329Y-47325030D01*
X237854428Y-47316765D01*
X237878227Y-47310804D01*
X237902495Y-47307204D01*
X237926999Y-47306000D01*
X238577001Y-47306000D01*
X238601505Y-47307204D01*
X238601505Y-47307204D01*
G37*
D14*
X238252000Y-48006000D03*
D12*
G36*
X236551505Y-47307204D02*
G01*
X236575773Y-47310804D01*
X236599572Y-47316765D01*
X236622671Y-47325030D01*
X236644850Y-47335520D01*
X236665893Y-47348132D01*
X236685599Y-47362747D01*
X236703777Y-47379223D01*
X236720253Y-47397401D01*
X236734868Y-47417107D01*
X236747480Y-47438150D01*
X236757970Y-47460329D01*
X236766235Y-47483428D01*
X236772196Y-47507227D01*
X236775796Y-47531495D01*
X236777000Y-47555999D01*
X236777000Y-48456001D01*
X236775796Y-48480505D01*
X236772196Y-48504773D01*
X236766235Y-48528572D01*
X236757970Y-48551671D01*
X236747480Y-48573850D01*
X236734868Y-48594893D01*
X236720253Y-48614599D01*
X236703777Y-48632777D01*
X236685599Y-48649253D01*
X236665893Y-48663868D01*
X236644850Y-48676480D01*
X236622671Y-48686970D01*
X236599572Y-48695235D01*
X236575773Y-48701196D01*
X236551505Y-48704796D01*
X236527001Y-48706000D01*
X235876999Y-48706000D01*
X235852495Y-48704796D01*
X235828227Y-48701196D01*
X235804428Y-48695235D01*
X235781329Y-48686970D01*
X235759150Y-48676480D01*
X235738107Y-48663868D01*
X235718401Y-48649253D01*
X235700223Y-48632777D01*
X235683747Y-48614599D01*
X235669132Y-48594893D01*
X235656520Y-48573850D01*
X235646030Y-48551671D01*
X235637765Y-48528572D01*
X235631804Y-48504773D01*
X235628204Y-48480505D01*
X235627000Y-48456001D01*
X235627000Y-47555999D01*
X235628204Y-47531495D01*
X235631804Y-47507227D01*
X235637765Y-47483428D01*
X235646030Y-47460329D01*
X235656520Y-47438150D01*
X235669132Y-47417107D01*
X235683747Y-47397401D01*
X235700223Y-47379223D01*
X235718401Y-47362747D01*
X235738107Y-47348132D01*
X235759150Y-47335520D01*
X235781329Y-47325030D01*
X235804428Y-47316765D01*
X235828227Y-47310804D01*
X235852495Y-47307204D01*
X235876999Y-47306000D01*
X236527001Y-47306000D01*
X236551505Y-47307204D01*
X236551505Y-47307204D01*
G37*
D14*
X236202000Y-48006000D03*
D12*
G36*
X233646505Y-34233204D02*
G01*
X233670773Y-34236804D01*
X233694572Y-34242765D01*
X233717671Y-34251030D01*
X233739850Y-34261520D01*
X233760893Y-34274132D01*
X233780599Y-34288747D01*
X233798777Y-34305223D01*
X233815253Y-34323401D01*
X233829868Y-34343107D01*
X233842480Y-34364150D01*
X233852970Y-34386329D01*
X233861235Y-34409428D01*
X233867196Y-34433227D01*
X233870796Y-34457495D01*
X233872000Y-34481999D01*
X233872000Y-35132001D01*
X233870796Y-35156505D01*
X233867196Y-35180773D01*
X233861235Y-35204572D01*
X233852970Y-35227671D01*
X233842480Y-35249850D01*
X233829868Y-35270893D01*
X233815253Y-35290599D01*
X233798777Y-35308777D01*
X233780599Y-35325253D01*
X233760893Y-35339868D01*
X233739850Y-35352480D01*
X233717671Y-35362970D01*
X233694572Y-35371235D01*
X233670773Y-35377196D01*
X233646505Y-35380796D01*
X233622001Y-35382000D01*
X232721999Y-35382000D01*
X232697495Y-35380796D01*
X232673227Y-35377196D01*
X232649428Y-35371235D01*
X232626329Y-35362970D01*
X232604150Y-35352480D01*
X232583107Y-35339868D01*
X232563401Y-35325253D01*
X232545223Y-35308777D01*
X232528747Y-35290599D01*
X232514132Y-35270893D01*
X232501520Y-35249850D01*
X232491030Y-35227671D01*
X232482765Y-35204572D01*
X232476804Y-35180773D01*
X232473204Y-35156505D01*
X232472000Y-35132001D01*
X232472000Y-34481999D01*
X232473204Y-34457495D01*
X232476804Y-34433227D01*
X232482765Y-34409428D01*
X232491030Y-34386329D01*
X232501520Y-34364150D01*
X232514132Y-34343107D01*
X232528747Y-34323401D01*
X232545223Y-34305223D01*
X232563401Y-34288747D01*
X232583107Y-34274132D01*
X232604150Y-34261520D01*
X232626329Y-34251030D01*
X232649428Y-34242765D01*
X232673227Y-34236804D01*
X232697495Y-34233204D01*
X232721999Y-34232000D01*
X233622001Y-34232000D01*
X233646505Y-34233204D01*
X233646505Y-34233204D01*
G37*
D14*
X233172000Y-34807000D03*
D12*
G36*
X233646505Y-32183204D02*
G01*
X233670773Y-32186804D01*
X233694572Y-32192765D01*
X233717671Y-32201030D01*
X233739850Y-32211520D01*
X233760893Y-32224132D01*
X233780599Y-32238747D01*
X233798777Y-32255223D01*
X233815253Y-32273401D01*
X233829868Y-32293107D01*
X233842480Y-32314150D01*
X233852970Y-32336329D01*
X233861235Y-32359428D01*
X233867196Y-32383227D01*
X233870796Y-32407495D01*
X233872000Y-32431999D01*
X233872000Y-33082001D01*
X233870796Y-33106505D01*
X233867196Y-33130773D01*
X233861235Y-33154572D01*
X233852970Y-33177671D01*
X233842480Y-33199850D01*
X233829868Y-33220893D01*
X233815253Y-33240599D01*
X233798777Y-33258777D01*
X233780599Y-33275253D01*
X233760893Y-33289868D01*
X233739850Y-33302480D01*
X233717671Y-33312970D01*
X233694572Y-33321235D01*
X233670773Y-33327196D01*
X233646505Y-33330796D01*
X233622001Y-33332000D01*
X232721999Y-33332000D01*
X232697495Y-33330796D01*
X232673227Y-33327196D01*
X232649428Y-33321235D01*
X232626329Y-33312970D01*
X232604150Y-33302480D01*
X232583107Y-33289868D01*
X232563401Y-33275253D01*
X232545223Y-33258777D01*
X232528747Y-33240599D01*
X232514132Y-33220893D01*
X232501520Y-33199850D01*
X232491030Y-33177671D01*
X232482765Y-33154572D01*
X232476804Y-33130773D01*
X232473204Y-33106505D01*
X232472000Y-33082001D01*
X232472000Y-32431999D01*
X232473204Y-32407495D01*
X232476804Y-32383227D01*
X232482765Y-32359428D01*
X232491030Y-32336329D01*
X232501520Y-32314150D01*
X232514132Y-32293107D01*
X232528747Y-32273401D01*
X232545223Y-32255223D01*
X232563401Y-32238747D01*
X232583107Y-32224132D01*
X232604150Y-32211520D01*
X232626329Y-32201030D01*
X232649428Y-32192765D01*
X232673227Y-32186804D01*
X232697495Y-32183204D01*
X232721999Y-32182000D01*
X233622001Y-32182000D01*
X233646505Y-32183204D01*
X233646505Y-32183204D01*
G37*
D14*
X233172000Y-32757000D03*
D12*
G36*
X251800505Y-38671204D02*
G01*
X251824773Y-38674804D01*
X251848572Y-38680765D01*
X251871671Y-38689030D01*
X251893850Y-38699520D01*
X251914893Y-38712132D01*
X251934599Y-38726747D01*
X251952777Y-38743223D01*
X251969253Y-38761401D01*
X251983868Y-38781107D01*
X251996480Y-38802150D01*
X252006970Y-38824329D01*
X252015235Y-38847428D01*
X252021196Y-38871227D01*
X252024796Y-38895495D01*
X252026000Y-38919999D01*
X252026000Y-39820001D01*
X252024796Y-39844505D01*
X252021196Y-39868773D01*
X252015235Y-39892572D01*
X252006970Y-39915671D01*
X251996480Y-39937850D01*
X251983868Y-39958893D01*
X251969253Y-39978599D01*
X251952777Y-39996777D01*
X251934599Y-40013253D01*
X251914893Y-40027868D01*
X251893850Y-40040480D01*
X251871671Y-40050970D01*
X251848572Y-40059235D01*
X251824773Y-40065196D01*
X251800505Y-40068796D01*
X251776001Y-40070000D01*
X251125999Y-40070000D01*
X251101495Y-40068796D01*
X251077227Y-40065196D01*
X251053428Y-40059235D01*
X251030329Y-40050970D01*
X251008150Y-40040480D01*
X250987107Y-40027868D01*
X250967401Y-40013253D01*
X250949223Y-39996777D01*
X250932747Y-39978599D01*
X250918132Y-39958893D01*
X250905520Y-39937850D01*
X250895030Y-39915671D01*
X250886765Y-39892572D01*
X250880804Y-39868773D01*
X250877204Y-39844505D01*
X250876000Y-39820001D01*
X250876000Y-38919999D01*
X250877204Y-38895495D01*
X250880804Y-38871227D01*
X250886765Y-38847428D01*
X250895030Y-38824329D01*
X250905520Y-38802150D01*
X250918132Y-38781107D01*
X250932747Y-38761401D01*
X250949223Y-38743223D01*
X250967401Y-38726747D01*
X250987107Y-38712132D01*
X251008150Y-38699520D01*
X251030329Y-38689030D01*
X251053428Y-38680765D01*
X251077227Y-38674804D01*
X251101495Y-38671204D01*
X251125999Y-38670000D01*
X251776001Y-38670000D01*
X251800505Y-38671204D01*
X251800505Y-38671204D01*
G37*
D14*
X251451000Y-39370000D03*
D12*
G36*
X253850505Y-38671204D02*
G01*
X253874773Y-38674804D01*
X253898572Y-38680765D01*
X253921671Y-38689030D01*
X253943850Y-38699520D01*
X253964893Y-38712132D01*
X253984599Y-38726747D01*
X254002777Y-38743223D01*
X254019253Y-38761401D01*
X254033868Y-38781107D01*
X254046480Y-38802150D01*
X254056970Y-38824329D01*
X254065235Y-38847428D01*
X254071196Y-38871227D01*
X254074796Y-38895495D01*
X254076000Y-38919999D01*
X254076000Y-39820001D01*
X254074796Y-39844505D01*
X254071196Y-39868773D01*
X254065235Y-39892572D01*
X254056970Y-39915671D01*
X254046480Y-39937850D01*
X254033868Y-39958893D01*
X254019253Y-39978599D01*
X254002777Y-39996777D01*
X253984599Y-40013253D01*
X253964893Y-40027868D01*
X253943850Y-40040480D01*
X253921671Y-40050970D01*
X253898572Y-40059235D01*
X253874773Y-40065196D01*
X253850505Y-40068796D01*
X253826001Y-40070000D01*
X253175999Y-40070000D01*
X253151495Y-40068796D01*
X253127227Y-40065196D01*
X253103428Y-40059235D01*
X253080329Y-40050970D01*
X253058150Y-40040480D01*
X253037107Y-40027868D01*
X253017401Y-40013253D01*
X252999223Y-39996777D01*
X252982747Y-39978599D01*
X252968132Y-39958893D01*
X252955520Y-39937850D01*
X252945030Y-39915671D01*
X252936765Y-39892572D01*
X252930804Y-39868773D01*
X252927204Y-39844505D01*
X252926000Y-39820001D01*
X252926000Y-38919999D01*
X252927204Y-38895495D01*
X252930804Y-38871227D01*
X252936765Y-38847428D01*
X252945030Y-38824329D01*
X252955520Y-38802150D01*
X252968132Y-38781107D01*
X252982747Y-38761401D01*
X252999223Y-38743223D01*
X253017401Y-38726747D01*
X253037107Y-38712132D01*
X253058150Y-38699520D01*
X253080329Y-38689030D01*
X253103428Y-38680765D01*
X253127227Y-38674804D01*
X253151495Y-38671204D01*
X253175999Y-38670000D01*
X253826001Y-38670000D01*
X253850505Y-38671204D01*
X253850505Y-38671204D01*
G37*
D14*
X253501000Y-39370000D03*
D12*
G36*
X250040505Y-33591204D02*
G01*
X250064773Y-33594804D01*
X250088572Y-33600765D01*
X250111671Y-33609030D01*
X250133850Y-33619520D01*
X250154893Y-33632132D01*
X250174599Y-33646747D01*
X250192777Y-33663223D01*
X250209253Y-33681401D01*
X250223868Y-33701107D01*
X250236480Y-33722150D01*
X250246970Y-33744329D01*
X250255235Y-33767428D01*
X250261196Y-33791227D01*
X250264796Y-33815495D01*
X250266000Y-33839999D01*
X250266000Y-34740001D01*
X250264796Y-34764505D01*
X250261196Y-34788773D01*
X250255235Y-34812572D01*
X250246970Y-34835671D01*
X250236480Y-34857850D01*
X250223868Y-34878893D01*
X250209253Y-34898599D01*
X250192777Y-34916777D01*
X250174599Y-34933253D01*
X250154893Y-34947868D01*
X250133850Y-34960480D01*
X250111671Y-34970970D01*
X250088572Y-34979235D01*
X250064773Y-34985196D01*
X250040505Y-34988796D01*
X250016001Y-34990000D01*
X249365999Y-34990000D01*
X249341495Y-34988796D01*
X249317227Y-34985196D01*
X249293428Y-34979235D01*
X249270329Y-34970970D01*
X249248150Y-34960480D01*
X249227107Y-34947868D01*
X249207401Y-34933253D01*
X249189223Y-34916777D01*
X249172747Y-34898599D01*
X249158132Y-34878893D01*
X249145520Y-34857850D01*
X249135030Y-34835671D01*
X249126765Y-34812572D01*
X249120804Y-34788773D01*
X249117204Y-34764505D01*
X249116000Y-34740001D01*
X249116000Y-33839999D01*
X249117204Y-33815495D01*
X249120804Y-33791227D01*
X249126765Y-33767428D01*
X249135030Y-33744329D01*
X249145520Y-33722150D01*
X249158132Y-33701107D01*
X249172747Y-33681401D01*
X249189223Y-33663223D01*
X249207401Y-33646747D01*
X249227107Y-33632132D01*
X249248150Y-33619520D01*
X249270329Y-33609030D01*
X249293428Y-33600765D01*
X249317227Y-33594804D01*
X249341495Y-33591204D01*
X249365999Y-33590000D01*
X250016001Y-33590000D01*
X250040505Y-33591204D01*
X250040505Y-33591204D01*
G37*
D14*
X249691000Y-34290000D03*
D12*
G36*
X247990505Y-33591204D02*
G01*
X248014773Y-33594804D01*
X248038572Y-33600765D01*
X248061671Y-33609030D01*
X248083850Y-33619520D01*
X248104893Y-33632132D01*
X248124599Y-33646747D01*
X248142777Y-33663223D01*
X248159253Y-33681401D01*
X248173868Y-33701107D01*
X248186480Y-33722150D01*
X248196970Y-33744329D01*
X248205235Y-33767428D01*
X248211196Y-33791227D01*
X248214796Y-33815495D01*
X248216000Y-33839999D01*
X248216000Y-34740001D01*
X248214796Y-34764505D01*
X248211196Y-34788773D01*
X248205235Y-34812572D01*
X248196970Y-34835671D01*
X248186480Y-34857850D01*
X248173868Y-34878893D01*
X248159253Y-34898599D01*
X248142777Y-34916777D01*
X248124599Y-34933253D01*
X248104893Y-34947868D01*
X248083850Y-34960480D01*
X248061671Y-34970970D01*
X248038572Y-34979235D01*
X248014773Y-34985196D01*
X247990505Y-34988796D01*
X247966001Y-34990000D01*
X247315999Y-34990000D01*
X247291495Y-34988796D01*
X247267227Y-34985196D01*
X247243428Y-34979235D01*
X247220329Y-34970970D01*
X247198150Y-34960480D01*
X247177107Y-34947868D01*
X247157401Y-34933253D01*
X247139223Y-34916777D01*
X247122747Y-34898599D01*
X247108132Y-34878893D01*
X247095520Y-34857850D01*
X247085030Y-34835671D01*
X247076765Y-34812572D01*
X247070804Y-34788773D01*
X247067204Y-34764505D01*
X247066000Y-34740001D01*
X247066000Y-33839999D01*
X247067204Y-33815495D01*
X247070804Y-33791227D01*
X247076765Y-33767428D01*
X247085030Y-33744329D01*
X247095520Y-33722150D01*
X247108132Y-33701107D01*
X247122747Y-33681401D01*
X247139223Y-33663223D01*
X247157401Y-33646747D01*
X247177107Y-33632132D01*
X247198150Y-33619520D01*
X247220329Y-33609030D01*
X247243428Y-33600765D01*
X247267227Y-33594804D01*
X247291495Y-33591204D01*
X247315999Y-33590000D01*
X247966001Y-33590000D01*
X247990505Y-33591204D01*
X247990505Y-33591204D01*
G37*
D14*
X247641000Y-34290000D03*
D12*
G36*
X225130505Y-30797204D02*
G01*
X225154773Y-30800804D01*
X225178572Y-30806765D01*
X225201671Y-30815030D01*
X225223850Y-30825520D01*
X225244893Y-30838132D01*
X225264599Y-30852747D01*
X225282777Y-30869223D01*
X225299253Y-30887401D01*
X225313868Y-30907107D01*
X225326480Y-30928150D01*
X225336970Y-30950329D01*
X225345235Y-30973428D01*
X225351196Y-30997227D01*
X225354796Y-31021495D01*
X225356000Y-31045999D01*
X225356000Y-31946001D01*
X225354796Y-31970505D01*
X225351196Y-31994773D01*
X225345235Y-32018572D01*
X225336970Y-32041671D01*
X225326480Y-32063850D01*
X225313868Y-32084893D01*
X225299253Y-32104599D01*
X225282777Y-32122777D01*
X225264599Y-32139253D01*
X225244893Y-32153868D01*
X225223850Y-32166480D01*
X225201671Y-32176970D01*
X225178572Y-32185235D01*
X225154773Y-32191196D01*
X225130505Y-32194796D01*
X225106001Y-32196000D01*
X224455999Y-32196000D01*
X224431495Y-32194796D01*
X224407227Y-32191196D01*
X224383428Y-32185235D01*
X224360329Y-32176970D01*
X224338150Y-32166480D01*
X224317107Y-32153868D01*
X224297401Y-32139253D01*
X224279223Y-32122777D01*
X224262747Y-32104599D01*
X224248132Y-32084893D01*
X224235520Y-32063850D01*
X224225030Y-32041671D01*
X224216765Y-32018572D01*
X224210804Y-31994773D01*
X224207204Y-31970505D01*
X224206000Y-31946001D01*
X224206000Y-31045999D01*
X224207204Y-31021495D01*
X224210804Y-30997227D01*
X224216765Y-30973428D01*
X224225030Y-30950329D01*
X224235520Y-30928150D01*
X224248132Y-30907107D01*
X224262747Y-30887401D01*
X224279223Y-30869223D01*
X224297401Y-30852747D01*
X224317107Y-30838132D01*
X224338150Y-30825520D01*
X224360329Y-30815030D01*
X224383428Y-30806765D01*
X224407227Y-30800804D01*
X224431495Y-30797204D01*
X224455999Y-30796000D01*
X225106001Y-30796000D01*
X225130505Y-30797204D01*
X225130505Y-30797204D01*
G37*
D14*
X224781000Y-31496000D03*
D12*
G36*
X227180505Y-30797204D02*
G01*
X227204773Y-30800804D01*
X227228572Y-30806765D01*
X227251671Y-30815030D01*
X227273850Y-30825520D01*
X227294893Y-30838132D01*
X227314599Y-30852747D01*
X227332777Y-30869223D01*
X227349253Y-30887401D01*
X227363868Y-30907107D01*
X227376480Y-30928150D01*
X227386970Y-30950329D01*
X227395235Y-30973428D01*
X227401196Y-30997227D01*
X227404796Y-31021495D01*
X227406000Y-31045999D01*
X227406000Y-31946001D01*
X227404796Y-31970505D01*
X227401196Y-31994773D01*
X227395235Y-32018572D01*
X227386970Y-32041671D01*
X227376480Y-32063850D01*
X227363868Y-32084893D01*
X227349253Y-32104599D01*
X227332777Y-32122777D01*
X227314599Y-32139253D01*
X227294893Y-32153868D01*
X227273850Y-32166480D01*
X227251671Y-32176970D01*
X227228572Y-32185235D01*
X227204773Y-32191196D01*
X227180505Y-32194796D01*
X227156001Y-32196000D01*
X226505999Y-32196000D01*
X226481495Y-32194796D01*
X226457227Y-32191196D01*
X226433428Y-32185235D01*
X226410329Y-32176970D01*
X226388150Y-32166480D01*
X226367107Y-32153868D01*
X226347401Y-32139253D01*
X226329223Y-32122777D01*
X226312747Y-32104599D01*
X226298132Y-32084893D01*
X226285520Y-32063850D01*
X226275030Y-32041671D01*
X226266765Y-32018572D01*
X226260804Y-31994773D01*
X226257204Y-31970505D01*
X226256000Y-31946001D01*
X226256000Y-31045999D01*
X226257204Y-31021495D01*
X226260804Y-30997227D01*
X226266765Y-30973428D01*
X226275030Y-30950329D01*
X226285520Y-30928150D01*
X226298132Y-30907107D01*
X226312747Y-30887401D01*
X226329223Y-30869223D01*
X226347401Y-30852747D01*
X226367107Y-30838132D01*
X226388150Y-30825520D01*
X226410329Y-30815030D01*
X226433428Y-30806765D01*
X226457227Y-30800804D01*
X226481495Y-30797204D01*
X226505999Y-30796000D01*
X227156001Y-30796000D01*
X227180505Y-30797204D01*
X227180505Y-30797204D01*
G37*
D14*
X226831000Y-31496000D03*
D12*
G36*
X250040505Y-36131204D02*
G01*
X250064773Y-36134804D01*
X250088572Y-36140765D01*
X250111671Y-36149030D01*
X250133850Y-36159520D01*
X250154893Y-36172132D01*
X250174599Y-36186747D01*
X250192777Y-36203223D01*
X250209253Y-36221401D01*
X250223868Y-36241107D01*
X250236480Y-36262150D01*
X250246970Y-36284329D01*
X250255235Y-36307428D01*
X250261196Y-36331227D01*
X250264796Y-36355495D01*
X250266000Y-36379999D01*
X250266000Y-37280001D01*
X250264796Y-37304505D01*
X250261196Y-37328773D01*
X250255235Y-37352572D01*
X250246970Y-37375671D01*
X250236480Y-37397850D01*
X250223868Y-37418893D01*
X250209253Y-37438599D01*
X250192777Y-37456777D01*
X250174599Y-37473253D01*
X250154893Y-37487868D01*
X250133850Y-37500480D01*
X250111671Y-37510970D01*
X250088572Y-37519235D01*
X250064773Y-37525196D01*
X250040505Y-37528796D01*
X250016001Y-37530000D01*
X249365999Y-37530000D01*
X249341495Y-37528796D01*
X249317227Y-37525196D01*
X249293428Y-37519235D01*
X249270329Y-37510970D01*
X249248150Y-37500480D01*
X249227107Y-37487868D01*
X249207401Y-37473253D01*
X249189223Y-37456777D01*
X249172747Y-37438599D01*
X249158132Y-37418893D01*
X249145520Y-37397850D01*
X249135030Y-37375671D01*
X249126765Y-37352572D01*
X249120804Y-37328773D01*
X249117204Y-37304505D01*
X249116000Y-37280001D01*
X249116000Y-36379999D01*
X249117204Y-36355495D01*
X249120804Y-36331227D01*
X249126765Y-36307428D01*
X249135030Y-36284329D01*
X249145520Y-36262150D01*
X249158132Y-36241107D01*
X249172747Y-36221401D01*
X249189223Y-36203223D01*
X249207401Y-36186747D01*
X249227107Y-36172132D01*
X249248150Y-36159520D01*
X249270329Y-36149030D01*
X249293428Y-36140765D01*
X249317227Y-36134804D01*
X249341495Y-36131204D01*
X249365999Y-36130000D01*
X250016001Y-36130000D01*
X250040505Y-36131204D01*
X250040505Y-36131204D01*
G37*
D14*
X249691000Y-36830000D03*
D12*
G36*
X247990505Y-36131204D02*
G01*
X248014773Y-36134804D01*
X248038572Y-36140765D01*
X248061671Y-36149030D01*
X248083850Y-36159520D01*
X248104893Y-36172132D01*
X248124599Y-36186747D01*
X248142777Y-36203223D01*
X248159253Y-36221401D01*
X248173868Y-36241107D01*
X248186480Y-36262150D01*
X248196970Y-36284329D01*
X248205235Y-36307428D01*
X248211196Y-36331227D01*
X248214796Y-36355495D01*
X248216000Y-36379999D01*
X248216000Y-37280001D01*
X248214796Y-37304505D01*
X248211196Y-37328773D01*
X248205235Y-37352572D01*
X248196970Y-37375671D01*
X248186480Y-37397850D01*
X248173868Y-37418893D01*
X248159253Y-37438599D01*
X248142777Y-37456777D01*
X248124599Y-37473253D01*
X248104893Y-37487868D01*
X248083850Y-37500480D01*
X248061671Y-37510970D01*
X248038572Y-37519235D01*
X248014773Y-37525196D01*
X247990505Y-37528796D01*
X247966001Y-37530000D01*
X247315999Y-37530000D01*
X247291495Y-37528796D01*
X247267227Y-37525196D01*
X247243428Y-37519235D01*
X247220329Y-37510970D01*
X247198150Y-37500480D01*
X247177107Y-37487868D01*
X247157401Y-37473253D01*
X247139223Y-37456777D01*
X247122747Y-37438599D01*
X247108132Y-37418893D01*
X247095520Y-37397850D01*
X247085030Y-37375671D01*
X247076765Y-37352572D01*
X247070804Y-37328773D01*
X247067204Y-37304505D01*
X247066000Y-37280001D01*
X247066000Y-36379999D01*
X247067204Y-36355495D01*
X247070804Y-36331227D01*
X247076765Y-36307428D01*
X247085030Y-36284329D01*
X247095520Y-36262150D01*
X247108132Y-36241107D01*
X247122747Y-36221401D01*
X247139223Y-36203223D01*
X247157401Y-36186747D01*
X247177107Y-36172132D01*
X247198150Y-36159520D01*
X247220329Y-36149030D01*
X247243428Y-36140765D01*
X247267227Y-36134804D01*
X247291495Y-36131204D01*
X247315999Y-36130000D01*
X247966001Y-36130000D01*
X247990505Y-36131204D01*
X247990505Y-36131204D01*
G37*
D14*
X247641000Y-36830000D03*
D12*
G36*
X225130505Y-33337204D02*
G01*
X225154773Y-33340804D01*
X225178572Y-33346765D01*
X225201671Y-33355030D01*
X225223850Y-33365520D01*
X225244893Y-33378132D01*
X225264599Y-33392747D01*
X225282777Y-33409223D01*
X225299253Y-33427401D01*
X225313868Y-33447107D01*
X225326480Y-33468150D01*
X225336970Y-33490329D01*
X225345235Y-33513428D01*
X225351196Y-33537227D01*
X225354796Y-33561495D01*
X225356000Y-33585999D01*
X225356000Y-34486001D01*
X225354796Y-34510505D01*
X225351196Y-34534773D01*
X225345235Y-34558572D01*
X225336970Y-34581671D01*
X225326480Y-34603850D01*
X225313868Y-34624893D01*
X225299253Y-34644599D01*
X225282777Y-34662777D01*
X225264599Y-34679253D01*
X225244893Y-34693868D01*
X225223850Y-34706480D01*
X225201671Y-34716970D01*
X225178572Y-34725235D01*
X225154773Y-34731196D01*
X225130505Y-34734796D01*
X225106001Y-34736000D01*
X224455999Y-34736000D01*
X224431495Y-34734796D01*
X224407227Y-34731196D01*
X224383428Y-34725235D01*
X224360329Y-34716970D01*
X224338150Y-34706480D01*
X224317107Y-34693868D01*
X224297401Y-34679253D01*
X224279223Y-34662777D01*
X224262747Y-34644599D01*
X224248132Y-34624893D01*
X224235520Y-34603850D01*
X224225030Y-34581671D01*
X224216765Y-34558572D01*
X224210804Y-34534773D01*
X224207204Y-34510505D01*
X224206000Y-34486001D01*
X224206000Y-33585999D01*
X224207204Y-33561495D01*
X224210804Y-33537227D01*
X224216765Y-33513428D01*
X224225030Y-33490329D01*
X224235520Y-33468150D01*
X224248132Y-33447107D01*
X224262747Y-33427401D01*
X224279223Y-33409223D01*
X224297401Y-33392747D01*
X224317107Y-33378132D01*
X224338150Y-33365520D01*
X224360329Y-33355030D01*
X224383428Y-33346765D01*
X224407227Y-33340804D01*
X224431495Y-33337204D01*
X224455999Y-33336000D01*
X225106001Y-33336000D01*
X225130505Y-33337204D01*
X225130505Y-33337204D01*
G37*
D14*
X224781000Y-34036000D03*
D12*
G36*
X227180505Y-33337204D02*
G01*
X227204773Y-33340804D01*
X227228572Y-33346765D01*
X227251671Y-33355030D01*
X227273850Y-33365520D01*
X227294893Y-33378132D01*
X227314599Y-33392747D01*
X227332777Y-33409223D01*
X227349253Y-33427401D01*
X227363868Y-33447107D01*
X227376480Y-33468150D01*
X227386970Y-33490329D01*
X227395235Y-33513428D01*
X227401196Y-33537227D01*
X227404796Y-33561495D01*
X227406000Y-33585999D01*
X227406000Y-34486001D01*
X227404796Y-34510505D01*
X227401196Y-34534773D01*
X227395235Y-34558572D01*
X227386970Y-34581671D01*
X227376480Y-34603850D01*
X227363868Y-34624893D01*
X227349253Y-34644599D01*
X227332777Y-34662777D01*
X227314599Y-34679253D01*
X227294893Y-34693868D01*
X227273850Y-34706480D01*
X227251671Y-34716970D01*
X227228572Y-34725235D01*
X227204773Y-34731196D01*
X227180505Y-34734796D01*
X227156001Y-34736000D01*
X226505999Y-34736000D01*
X226481495Y-34734796D01*
X226457227Y-34731196D01*
X226433428Y-34725235D01*
X226410329Y-34716970D01*
X226388150Y-34706480D01*
X226367107Y-34693868D01*
X226347401Y-34679253D01*
X226329223Y-34662777D01*
X226312747Y-34644599D01*
X226298132Y-34624893D01*
X226285520Y-34603850D01*
X226275030Y-34581671D01*
X226266765Y-34558572D01*
X226260804Y-34534773D01*
X226257204Y-34510505D01*
X226256000Y-34486001D01*
X226256000Y-33585999D01*
X226257204Y-33561495D01*
X226260804Y-33537227D01*
X226266765Y-33513428D01*
X226275030Y-33490329D01*
X226285520Y-33468150D01*
X226298132Y-33447107D01*
X226312747Y-33427401D01*
X226329223Y-33409223D01*
X226347401Y-33392747D01*
X226367107Y-33378132D01*
X226388150Y-33365520D01*
X226410329Y-33355030D01*
X226433428Y-33346765D01*
X226457227Y-33340804D01*
X226481495Y-33337204D01*
X226505999Y-33336000D01*
X227156001Y-33336000D01*
X227180505Y-33337204D01*
X227180505Y-33337204D01*
G37*
D14*
X226831000Y-34036000D03*
D12*
G36*
X250040505Y-38671204D02*
G01*
X250064773Y-38674804D01*
X250088572Y-38680765D01*
X250111671Y-38689030D01*
X250133850Y-38699520D01*
X250154893Y-38712132D01*
X250174599Y-38726747D01*
X250192777Y-38743223D01*
X250209253Y-38761401D01*
X250223868Y-38781107D01*
X250236480Y-38802150D01*
X250246970Y-38824329D01*
X250255235Y-38847428D01*
X250261196Y-38871227D01*
X250264796Y-38895495D01*
X250266000Y-38919999D01*
X250266000Y-39820001D01*
X250264796Y-39844505D01*
X250261196Y-39868773D01*
X250255235Y-39892572D01*
X250246970Y-39915671D01*
X250236480Y-39937850D01*
X250223868Y-39958893D01*
X250209253Y-39978599D01*
X250192777Y-39996777D01*
X250174599Y-40013253D01*
X250154893Y-40027868D01*
X250133850Y-40040480D01*
X250111671Y-40050970D01*
X250088572Y-40059235D01*
X250064773Y-40065196D01*
X250040505Y-40068796D01*
X250016001Y-40070000D01*
X249365999Y-40070000D01*
X249341495Y-40068796D01*
X249317227Y-40065196D01*
X249293428Y-40059235D01*
X249270329Y-40050970D01*
X249248150Y-40040480D01*
X249227107Y-40027868D01*
X249207401Y-40013253D01*
X249189223Y-39996777D01*
X249172747Y-39978599D01*
X249158132Y-39958893D01*
X249145520Y-39937850D01*
X249135030Y-39915671D01*
X249126765Y-39892572D01*
X249120804Y-39868773D01*
X249117204Y-39844505D01*
X249116000Y-39820001D01*
X249116000Y-38919999D01*
X249117204Y-38895495D01*
X249120804Y-38871227D01*
X249126765Y-38847428D01*
X249135030Y-38824329D01*
X249145520Y-38802150D01*
X249158132Y-38781107D01*
X249172747Y-38761401D01*
X249189223Y-38743223D01*
X249207401Y-38726747D01*
X249227107Y-38712132D01*
X249248150Y-38699520D01*
X249270329Y-38689030D01*
X249293428Y-38680765D01*
X249317227Y-38674804D01*
X249341495Y-38671204D01*
X249365999Y-38670000D01*
X250016001Y-38670000D01*
X250040505Y-38671204D01*
X250040505Y-38671204D01*
G37*
D14*
X249691000Y-39370000D03*
D12*
G36*
X247990505Y-38671204D02*
G01*
X248014773Y-38674804D01*
X248038572Y-38680765D01*
X248061671Y-38689030D01*
X248083850Y-38699520D01*
X248104893Y-38712132D01*
X248124599Y-38726747D01*
X248142777Y-38743223D01*
X248159253Y-38761401D01*
X248173868Y-38781107D01*
X248186480Y-38802150D01*
X248196970Y-38824329D01*
X248205235Y-38847428D01*
X248211196Y-38871227D01*
X248214796Y-38895495D01*
X248216000Y-38919999D01*
X248216000Y-39820001D01*
X248214796Y-39844505D01*
X248211196Y-39868773D01*
X248205235Y-39892572D01*
X248196970Y-39915671D01*
X248186480Y-39937850D01*
X248173868Y-39958893D01*
X248159253Y-39978599D01*
X248142777Y-39996777D01*
X248124599Y-40013253D01*
X248104893Y-40027868D01*
X248083850Y-40040480D01*
X248061671Y-40050970D01*
X248038572Y-40059235D01*
X248014773Y-40065196D01*
X247990505Y-40068796D01*
X247966001Y-40070000D01*
X247315999Y-40070000D01*
X247291495Y-40068796D01*
X247267227Y-40065196D01*
X247243428Y-40059235D01*
X247220329Y-40050970D01*
X247198150Y-40040480D01*
X247177107Y-40027868D01*
X247157401Y-40013253D01*
X247139223Y-39996777D01*
X247122747Y-39978599D01*
X247108132Y-39958893D01*
X247095520Y-39937850D01*
X247085030Y-39915671D01*
X247076765Y-39892572D01*
X247070804Y-39868773D01*
X247067204Y-39844505D01*
X247066000Y-39820001D01*
X247066000Y-38919999D01*
X247067204Y-38895495D01*
X247070804Y-38871227D01*
X247076765Y-38847428D01*
X247085030Y-38824329D01*
X247095520Y-38802150D01*
X247108132Y-38781107D01*
X247122747Y-38761401D01*
X247139223Y-38743223D01*
X247157401Y-38726747D01*
X247177107Y-38712132D01*
X247198150Y-38699520D01*
X247220329Y-38689030D01*
X247243428Y-38680765D01*
X247267227Y-38674804D01*
X247291495Y-38671204D01*
X247315999Y-38670000D01*
X247966001Y-38670000D01*
X247990505Y-38671204D01*
X247990505Y-38671204D01*
G37*
D14*
X247641000Y-39370000D03*
D12*
G36*
X250040505Y-46291204D02*
G01*
X250064773Y-46294804D01*
X250088572Y-46300765D01*
X250111671Y-46309030D01*
X250133850Y-46319520D01*
X250154893Y-46332132D01*
X250174599Y-46346747D01*
X250192777Y-46363223D01*
X250209253Y-46381401D01*
X250223868Y-46401107D01*
X250236480Y-46422150D01*
X250246970Y-46444329D01*
X250255235Y-46467428D01*
X250261196Y-46491227D01*
X250264796Y-46515495D01*
X250266000Y-46539999D01*
X250266000Y-47440001D01*
X250264796Y-47464505D01*
X250261196Y-47488773D01*
X250255235Y-47512572D01*
X250246970Y-47535671D01*
X250236480Y-47557850D01*
X250223868Y-47578893D01*
X250209253Y-47598599D01*
X250192777Y-47616777D01*
X250174599Y-47633253D01*
X250154893Y-47647868D01*
X250133850Y-47660480D01*
X250111671Y-47670970D01*
X250088572Y-47679235D01*
X250064773Y-47685196D01*
X250040505Y-47688796D01*
X250016001Y-47690000D01*
X249365999Y-47690000D01*
X249341495Y-47688796D01*
X249317227Y-47685196D01*
X249293428Y-47679235D01*
X249270329Y-47670970D01*
X249248150Y-47660480D01*
X249227107Y-47647868D01*
X249207401Y-47633253D01*
X249189223Y-47616777D01*
X249172747Y-47598599D01*
X249158132Y-47578893D01*
X249145520Y-47557850D01*
X249135030Y-47535671D01*
X249126765Y-47512572D01*
X249120804Y-47488773D01*
X249117204Y-47464505D01*
X249116000Y-47440001D01*
X249116000Y-46539999D01*
X249117204Y-46515495D01*
X249120804Y-46491227D01*
X249126765Y-46467428D01*
X249135030Y-46444329D01*
X249145520Y-46422150D01*
X249158132Y-46401107D01*
X249172747Y-46381401D01*
X249189223Y-46363223D01*
X249207401Y-46346747D01*
X249227107Y-46332132D01*
X249248150Y-46319520D01*
X249270329Y-46309030D01*
X249293428Y-46300765D01*
X249317227Y-46294804D01*
X249341495Y-46291204D01*
X249365999Y-46290000D01*
X250016001Y-46290000D01*
X250040505Y-46291204D01*
X250040505Y-46291204D01*
G37*
D14*
X249691000Y-46990000D03*
D12*
G36*
X247990505Y-46291204D02*
G01*
X248014773Y-46294804D01*
X248038572Y-46300765D01*
X248061671Y-46309030D01*
X248083850Y-46319520D01*
X248104893Y-46332132D01*
X248124599Y-46346747D01*
X248142777Y-46363223D01*
X248159253Y-46381401D01*
X248173868Y-46401107D01*
X248186480Y-46422150D01*
X248196970Y-46444329D01*
X248205235Y-46467428D01*
X248211196Y-46491227D01*
X248214796Y-46515495D01*
X248216000Y-46539999D01*
X248216000Y-47440001D01*
X248214796Y-47464505D01*
X248211196Y-47488773D01*
X248205235Y-47512572D01*
X248196970Y-47535671D01*
X248186480Y-47557850D01*
X248173868Y-47578893D01*
X248159253Y-47598599D01*
X248142777Y-47616777D01*
X248124599Y-47633253D01*
X248104893Y-47647868D01*
X248083850Y-47660480D01*
X248061671Y-47670970D01*
X248038572Y-47679235D01*
X248014773Y-47685196D01*
X247990505Y-47688796D01*
X247966001Y-47690000D01*
X247315999Y-47690000D01*
X247291495Y-47688796D01*
X247267227Y-47685196D01*
X247243428Y-47679235D01*
X247220329Y-47670970D01*
X247198150Y-47660480D01*
X247177107Y-47647868D01*
X247157401Y-47633253D01*
X247139223Y-47616777D01*
X247122747Y-47598599D01*
X247108132Y-47578893D01*
X247095520Y-47557850D01*
X247085030Y-47535671D01*
X247076765Y-47512572D01*
X247070804Y-47488773D01*
X247067204Y-47464505D01*
X247066000Y-47440001D01*
X247066000Y-46539999D01*
X247067204Y-46515495D01*
X247070804Y-46491227D01*
X247076765Y-46467428D01*
X247085030Y-46444329D01*
X247095520Y-46422150D01*
X247108132Y-46401107D01*
X247122747Y-46381401D01*
X247139223Y-46363223D01*
X247157401Y-46346747D01*
X247177107Y-46332132D01*
X247198150Y-46319520D01*
X247220329Y-46309030D01*
X247243428Y-46300765D01*
X247267227Y-46294804D01*
X247291495Y-46291204D01*
X247315999Y-46290000D01*
X247966001Y-46290000D01*
X247990505Y-46291204D01*
X247990505Y-46291204D01*
G37*
D14*
X247641000Y-46990000D03*
D12*
G36*
X223370505Y-30797204D02*
G01*
X223394773Y-30800804D01*
X223418572Y-30806765D01*
X223441671Y-30815030D01*
X223463850Y-30825520D01*
X223484893Y-30838132D01*
X223504599Y-30852747D01*
X223522777Y-30869223D01*
X223539253Y-30887401D01*
X223553868Y-30907107D01*
X223566480Y-30928150D01*
X223576970Y-30950329D01*
X223585235Y-30973428D01*
X223591196Y-30997227D01*
X223594796Y-31021495D01*
X223596000Y-31045999D01*
X223596000Y-31946001D01*
X223594796Y-31970505D01*
X223591196Y-31994773D01*
X223585235Y-32018572D01*
X223576970Y-32041671D01*
X223566480Y-32063850D01*
X223553868Y-32084893D01*
X223539253Y-32104599D01*
X223522777Y-32122777D01*
X223504599Y-32139253D01*
X223484893Y-32153868D01*
X223463850Y-32166480D01*
X223441671Y-32176970D01*
X223418572Y-32185235D01*
X223394773Y-32191196D01*
X223370505Y-32194796D01*
X223346001Y-32196000D01*
X222695999Y-32196000D01*
X222671495Y-32194796D01*
X222647227Y-32191196D01*
X222623428Y-32185235D01*
X222600329Y-32176970D01*
X222578150Y-32166480D01*
X222557107Y-32153868D01*
X222537401Y-32139253D01*
X222519223Y-32122777D01*
X222502747Y-32104599D01*
X222488132Y-32084893D01*
X222475520Y-32063850D01*
X222465030Y-32041671D01*
X222456765Y-32018572D01*
X222450804Y-31994773D01*
X222447204Y-31970505D01*
X222446000Y-31946001D01*
X222446000Y-31045999D01*
X222447204Y-31021495D01*
X222450804Y-30997227D01*
X222456765Y-30973428D01*
X222465030Y-30950329D01*
X222475520Y-30928150D01*
X222488132Y-30907107D01*
X222502747Y-30887401D01*
X222519223Y-30869223D01*
X222537401Y-30852747D01*
X222557107Y-30838132D01*
X222578150Y-30825520D01*
X222600329Y-30815030D01*
X222623428Y-30806765D01*
X222647227Y-30800804D01*
X222671495Y-30797204D01*
X222695999Y-30796000D01*
X223346001Y-30796000D01*
X223370505Y-30797204D01*
X223370505Y-30797204D01*
G37*
D14*
X223021000Y-31496000D03*
D12*
G36*
X221320505Y-30797204D02*
G01*
X221344773Y-30800804D01*
X221368572Y-30806765D01*
X221391671Y-30815030D01*
X221413850Y-30825520D01*
X221434893Y-30838132D01*
X221454599Y-30852747D01*
X221472777Y-30869223D01*
X221489253Y-30887401D01*
X221503868Y-30907107D01*
X221516480Y-30928150D01*
X221526970Y-30950329D01*
X221535235Y-30973428D01*
X221541196Y-30997227D01*
X221544796Y-31021495D01*
X221546000Y-31045999D01*
X221546000Y-31946001D01*
X221544796Y-31970505D01*
X221541196Y-31994773D01*
X221535235Y-32018572D01*
X221526970Y-32041671D01*
X221516480Y-32063850D01*
X221503868Y-32084893D01*
X221489253Y-32104599D01*
X221472777Y-32122777D01*
X221454599Y-32139253D01*
X221434893Y-32153868D01*
X221413850Y-32166480D01*
X221391671Y-32176970D01*
X221368572Y-32185235D01*
X221344773Y-32191196D01*
X221320505Y-32194796D01*
X221296001Y-32196000D01*
X220645999Y-32196000D01*
X220621495Y-32194796D01*
X220597227Y-32191196D01*
X220573428Y-32185235D01*
X220550329Y-32176970D01*
X220528150Y-32166480D01*
X220507107Y-32153868D01*
X220487401Y-32139253D01*
X220469223Y-32122777D01*
X220452747Y-32104599D01*
X220438132Y-32084893D01*
X220425520Y-32063850D01*
X220415030Y-32041671D01*
X220406765Y-32018572D01*
X220400804Y-31994773D01*
X220397204Y-31970505D01*
X220396000Y-31946001D01*
X220396000Y-31045999D01*
X220397204Y-31021495D01*
X220400804Y-30997227D01*
X220406765Y-30973428D01*
X220415030Y-30950329D01*
X220425520Y-30928150D01*
X220438132Y-30907107D01*
X220452747Y-30887401D01*
X220469223Y-30869223D01*
X220487401Y-30852747D01*
X220507107Y-30838132D01*
X220528150Y-30825520D01*
X220550329Y-30815030D01*
X220573428Y-30806765D01*
X220597227Y-30800804D01*
X220621495Y-30797204D01*
X220645999Y-30796000D01*
X221296001Y-30796000D01*
X221320505Y-30797204D01*
X221320505Y-30797204D01*
G37*
D14*
X220971000Y-31496000D03*
D12*
G36*
X223370505Y-51625204D02*
G01*
X223394773Y-51628804D01*
X223418572Y-51634765D01*
X223441671Y-51643030D01*
X223463850Y-51653520D01*
X223484893Y-51666132D01*
X223504599Y-51680747D01*
X223522777Y-51697223D01*
X223539253Y-51715401D01*
X223553868Y-51735107D01*
X223566480Y-51756150D01*
X223576970Y-51778329D01*
X223585235Y-51801428D01*
X223591196Y-51825227D01*
X223594796Y-51849495D01*
X223596000Y-51873999D01*
X223596000Y-52774001D01*
X223594796Y-52798505D01*
X223591196Y-52822773D01*
X223585235Y-52846572D01*
X223576970Y-52869671D01*
X223566480Y-52891850D01*
X223553868Y-52912893D01*
X223539253Y-52932599D01*
X223522777Y-52950777D01*
X223504599Y-52967253D01*
X223484893Y-52981868D01*
X223463850Y-52994480D01*
X223441671Y-53004970D01*
X223418572Y-53013235D01*
X223394773Y-53019196D01*
X223370505Y-53022796D01*
X223346001Y-53024000D01*
X222695999Y-53024000D01*
X222671495Y-53022796D01*
X222647227Y-53019196D01*
X222623428Y-53013235D01*
X222600329Y-53004970D01*
X222578150Y-52994480D01*
X222557107Y-52981868D01*
X222537401Y-52967253D01*
X222519223Y-52950777D01*
X222502747Y-52932599D01*
X222488132Y-52912893D01*
X222475520Y-52891850D01*
X222465030Y-52869671D01*
X222456765Y-52846572D01*
X222450804Y-52822773D01*
X222447204Y-52798505D01*
X222446000Y-52774001D01*
X222446000Y-51873999D01*
X222447204Y-51849495D01*
X222450804Y-51825227D01*
X222456765Y-51801428D01*
X222465030Y-51778329D01*
X222475520Y-51756150D01*
X222488132Y-51735107D01*
X222502747Y-51715401D01*
X222519223Y-51697223D01*
X222537401Y-51680747D01*
X222557107Y-51666132D01*
X222578150Y-51653520D01*
X222600329Y-51643030D01*
X222623428Y-51634765D01*
X222647227Y-51628804D01*
X222671495Y-51625204D01*
X222695999Y-51624000D01*
X223346001Y-51624000D01*
X223370505Y-51625204D01*
X223370505Y-51625204D01*
G37*
D14*
X223021000Y-52324000D03*
D12*
G36*
X221320505Y-51625204D02*
G01*
X221344773Y-51628804D01*
X221368572Y-51634765D01*
X221391671Y-51643030D01*
X221413850Y-51653520D01*
X221434893Y-51666132D01*
X221454599Y-51680747D01*
X221472777Y-51697223D01*
X221489253Y-51715401D01*
X221503868Y-51735107D01*
X221516480Y-51756150D01*
X221526970Y-51778329D01*
X221535235Y-51801428D01*
X221541196Y-51825227D01*
X221544796Y-51849495D01*
X221546000Y-51873999D01*
X221546000Y-52774001D01*
X221544796Y-52798505D01*
X221541196Y-52822773D01*
X221535235Y-52846572D01*
X221526970Y-52869671D01*
X221516480Y-52891850D01*
X221503868Y-52912893D01*
X221489253Y-52932599D01*
X221472777Y-52950777D01*
X221454599Y-52967253D01*
X221434893Y-52981868D01*
X221413850Y-52994480D01*
X221391671Y-53004970D01*
X221368572Y-53013235D01*
X221344773Y-53019196D01*
X221320505Y-53022796D01*
X221296001Y-53024000D01*
X220645999Y-53024000D01*
X220621495Y-53022796D01*
X220597227Y-53019196D01*
X220573428Y-53013235D01*
X220550329Y-53004970D01*
X220528150Y-52994480D01*
X220507107Y-52981868D01*
X220487401Y-52967253D01*
X220469223Y-52950777D01*
X220452747Y-52932599D01*
X220438132Y-52912893D01*
X220425520Y-52891850D01*
X220415030Y-52869671D01*
X220406765Y-52846572D01*
X220400804Y-52822773D01*
X220397204Y-52798505D01*
X220396000Y-52774001D01*
X220396000Y-51873999D01*
X220397204Y-51849495D01*
X220400804Y-51825227D01*
X220406765Y-51801428D01*
X220415030Y-51778329D01*
X220425520Y-51756150D01*
X220438132Y-51735107D01*
X220452747Y-51715401D01*
X220469223Y-51697223D01*
X220487401Y-51680747D01*
X220507107Y-51666132D01*
X220528150Y-51653520D01*
X220550329Y-51643030D01*
X220573428Y-51634765D01*
X220597227Y-51628804D01*
X220621495Y-51625204D01*
X220645999Y-51624000D01*
X221296001Y-51624000D01*
X221320505Y-51625204D01*
X221320505Y-51625204D01*
G37*
D14*
X220971000Y-52324000D03*
D15*
X240136000Y-42855000D03*
X240136000Y-45455000D03*
X240136000Y-46105000D03*
X240136000Y-44805000D03*
X240136000Y-44155000D03*
X240136000Y-43505000D03*
X240136000Y-42205000D03*
X240136000Y-40905000D03*
X240136000Y-40255000D03*
X234336000Y-41555000D03*
X234336000Y-43505000D03*
X234336000Y-46105000D03*
X234336000Y-42205000D03*
X234336000Y-45455000D03*
X234336000Y-44155000D03*
X234336000Y-40905000D03*
X234336000Y-42855000D03*
X240136000Y-41555000D03*
X234336000Y-44805000D03*
X234336000Y-40255000D03*
D12*
G36*
X251809505Y-51371204D02*
G01*
X251833773Y-51374804D01*
X251857572Y-51380765D01*
X251880671Y-51389030D01*
X251902850Y-51399520D01*
X251923893Y-51412132D01*
X251943599Y-51426747D01*
X251961777Y-51443223D01*
X251978253Y-51461401D01*
X251992868Y-51481107D01*
X252005480Y-51502150D01*
X252015970Y-51524329D01*
X252024235Y-51547428D01*
X252030196Y-51571227D01*
X252033796Y-51595495D01*
X252035000Y-51619999D01*
X252035000Y-52520001D01*
X252033796Y-52544505D01*
X252030196Y-52568773D01*
X252024235Y-52592572D01*
X252015970Y-52615671D01*
X252005480Y-52637850D01*
X251992868Y-52658893D01*
X251978253Y-52678599D01*
X251961777Y-52696777D01*
X251943599Y-52713253D01*
X251923893Y-52727868D01*
X251902850Y-52740480D01*
X251880671Y-52750970D01*
X251857572Y-52759235D01*
X251833773Y-52765196D01*
X251809505Y-52768796D01*
X251785001Y-52770000D01*
X251134999Y-52770000D01*
X251110495Y-52768796D01*
X251086227Y-52765196D01*
X251062428Y-52759235D01*
X251039329Y-52750970D01*
X251017150Y-52740480D01*
X250996107Y-52727868D01*
X250976401Y-52713253D01*
X250958223Y-52696777D01*
X250941747Y-52678599D01*
X250927132Y-52658893D01*
X250914520Y-52637850D01*
X250904030Y-52615671D01*
X250895765Y-52592572D01*
X250889804Y-52568773D01*
X250886204Y-52544505D01*
X250885000Y-52520001D01*
X250885000Y-51619999D01*
X250886204Y-51595495D01*
X250889804Y-51571227D01*
X250895765Y-51547428D01*
X250904030Y-51524329D01*
X250914520Y-51502150D01*
X250927132Y-51481107D01*
X250941747Y-51461401D01*
X250958223Y-51443223D01*
X250976401Y-51426747D01*
X250996107Y-51412132D01*
X251017150Y-51399520D01*
X251039329Y-51389030D01*
X251062428Y-51380765D01*
X251086227Y-51374804D01*
X251110495Y-51371204D01*
X251134999Y-51370000D01*
X251785001Y-51370000D01*
X251809505Y-51371204D01*
X251809505Y-51371204D01*
G37*
D14*
X251460000Y-52070000D03*
D12*
G36*
X253859505Y-51371204D02*
G01*
X253883773Y-51374804D01*
X253907572Y-51380765D01*
X253930671Y-51389030D01*
X253952850Y-51399520D01*
X253973893Y-51412132D01*
X253993599Y-51426747D01*
X254011777Y-51443223D01*
X254028253Y-51461401D01*
X254042868Y-51481107D01*
X254055480Y-51502150D01*
X254065970Y-51524329D01*
X254074235Y-51547428D01*
X254080196Y-51571227D01*
X254083796Y-51595495D01*
X254085000Y-51619999D01*
X254085000Y-52520001D01*
X254083796Y-52544505D01*
X254080196Y-52568773D01*
X254074235Y-52592572D01*
X254065970Y-52615671D01*
X254055480Y-52637850D01*
X254042868Y-52658893D01*
X254028253Y-52678599D01*
X254011777Y-52696777D01*
X253993599Y-52713253D01*
X253973893Y-52727868D01*
X253952850Y-52740480D01*
X253930671Y-52750970D01*
X253907572Y-52759235D01*
X253883773Y-52765196D01*
X253859505Y-52768796D01*
X253835001Y-52770000D01*
X253184999Y-52770000D01*
X253160495Y-52768796D01*
X253136227Y-52765196D01*
X253112428Y-52759235D01*
X253089329Y-52750970D01*
X253067150Y-52740480D01*
X253046107Y-52727868D01*
X253026401Y-52713253D01*
X253008223Y-52696777D01*
X252991747Y-52678599D01*
X252977132Y-52658893D01*
X252964520Y-52637850D01*
X252954030Y-52615671D01*
X252945765Y-52592572D01*
X252939804Y-52568773D01*
X252936204Y-52544505D01*
X252935000Y-52520001D01*
X252935000Y-51619999D01*
X252936204Y-51595495D01*
X252939804Y-51571227D01*
X252945765Y-51547428D01*
X252954030Y-51524329D01*
X252964520Y-51502150D01*
X252977132Y-51481107D01*
X252991747Y-51461401D01*
X253008223Y-51443223D01*
X253026401Y-51426747D01*
X253046107Y-51412132D01*
X253067150Y-51399520D01*
X253089329Y-51389030D01*
X253112428Y-51380765D01*
X253136227Y-51374804D01*
X253160495Y-51371204D01*
X253184999Y-51370000D01*
X253835001Y-51370000D01*
X253859505Y-51371204D01*
X253859505Y-51371204D01*
G37*
D14*
X253510000Y-52070000D03*
D12*
G36*
X251800505Y-36131204D02*
G01*
X251824773Y-36134804D01*
X251848572Y-36140765D01*
X251871671Y-36149030D01*
X251893850Y-36159520D01*
X251914893Y-36172132D01*
X251934599Y-36186747D01*
X251952777Y-36203223D01*
X251969253Y-36221401D01*
X251983868Y-36241107D01*
X251996480Y-36262150D01*
X252006970Y-36284329D01*
X252015235Y-36307428D01*
X252021196Y-36331227D01*
X252024796Y-36355495D01*
X252026000Y-36379999D01*
X252026000Y-37280001D01*
X252024796Y-37304505D01*
X252021196Y-37328773D01*
X252015235Y-37352572D01*
X252006970Y-37375671D01*
X251996480Y-37397850D01*
X251983868Y-37418893D01*
X251969253Y-37438599D01*
X251952777Y-37456777D01*
X251934599Y-37473253D01*
X251914893Y-37487868D01*
X251893850Y-37500480D01*
X251871671Y-37510970D01*
X251848572Y-37519235D01*
X251824773Y-37525196D01*
X251800505Y-37528796D01*
X251776001Y-37530000D01*
X251125999Y-37530000D01*
X251101495Y-37528796D01*
X251077227Y-37525196D01*
X251053428Y-37519235D01*
X251030329Y-37510970D01*
X251008150Y-37500480D01*
X250987107Y-37487868D01*
X250967401Y-37473253D01*
X250949223Y-37456777D01*
X250932747Y-37438599D01*
X250918132Y-37418893D01*
X250905520Y-37397850D01*
X250895030Y-37375671D01*
X250886765Y-37352572D01*
X250880804Y-37328773D01*
X250877204Y-37304505D01*
X250876000Y-37280001D01*
X250876000Y-36379999D01*
X250877204Y-36355495D01*
X250880804Y-36331227D01*
X250886765Y-36307428D01*
X250895030Y-36284329D01*
X250905520Y-36262150D01*
X250918132Y-36241107D01*
X250932747Y-36221401D01*
X250949223Y-36203223D01*
X250967401Y-36186747D01*
X250987107Y-36172132D01*
X251008150Y-36159520D01*
X251030329Y-36149030D01*
X251053428Y-36140765D01*
X251077227Y-36134804D01*
X251101495Y-36131204D01*
X251125999Y-36130000D01*
X251776001Y-36130000D01*
X251800505Y-36131204D01*
X251800505Y-36131204D01*
G37*
D14*
X251451000Y-36830000D03*
D12*
G36*
X253850505Y-36131204D02*
G01*
X253874773Y-36134804D01*
X253898572Y-36140765D01*
X253921671Y-36149030D01*
X253943850Y-36159520D01*
X253964893Y-36172132D01*
X253984599Y-36186747D01*
X254002777Y-36203223D01*
X254019253Y-36221401D01*
X254033868Y-36241107D01*
X254046480Y-36262150D01*
X254056970Y-36284329D01*
X254065235Y-36307428D01*
X254071196Y-36331227D01*
X254074796Y-36355495D01*
X254076000Y-36379999D01*
X254076000Y-37280001D01*
X254074796Y-37304505D01*
X254071196Y-37328773D01*
X254065235Y-37352572D01*
X254056970Y-37375671D01*
X254046480Y-37397850D01*
X254033868Y-37418893D01*
X254019253Y-37438599D01*
X254002777Y-37456777D01*
X253984599Y-37473253D01*
X253964893Y-37487868D01*
X253943850Y-37500480D01*
X253921671Y-37510970D01*
X253898572Y-37519235D01*
X253874773Y-37525196D01*
X253850505Y-37528796D01*
X253826001Y-37530000D01*
X253175999Y-37530000D01*
X253151495Y-37528796D01*
X253127227Y-37525196D01*
X253103428Y-37519235D01*
X253080329Y-37510970D01*
X253058150Y-37500480D01*
X253037107Y-37487868D01*
X253017401Y-37473253D01*
X252999223Y-37456777D01*
X252982747Y-37438599D01*
X252968132Y-37418893D01*
X252955520Y-37397850D01*
X252945030Y-37375671D01*
X252936765Y-37352572D01*
X252930804Y-37328773D01*
X252927204Y-37304505D01*
X252926000Y-37280001D01*
X252926000Y-36379999D01*
X252927204Y-36355495D01*
X252930804Y-36331227D01*
X252936765Y-36307428D01*
X252945030Y-36284329D01*
X252955520Y-36262150D01*
X252968132Y-36241107D01*
X252982747Y-36221401D01*
X252999223Y-36203223D01*
X253017401Y-36186747D01*
X253037107Y-36172132D01*
X253058150Y-36159520D01*
X253080329Y-36149030D01*
X253103428Y-36140765D01*
X253127227Y-36134804D01*
X253151495Y-36131204D01*
X253175999Y-36130000D01*
X253826001Y-36130000D01*
X253850505Y-36131204D01*
X253850505Y-36131204D01*
G37*
D14*
X253501000Y-36830000D03*
D12*
G36*
X225130505Y-54165204D02*
G01*
X225154773Y-54168804D01*
X225178572Y-54174765D01*
X225201671Y-54183030D01*
X225223850Y-54193520D01*
X225244893Y-54206132D01*
X225264599Y-54220747D01*
X225282777Y-54237223D01*
X225299253Y-54255401D01*
X225313868Y-54275107D01*
X225326480Y-54296150D01*
X225336970Y-54318329D01*
X225345235Y-54341428D01*
X225351196Y-54365227D01*
X225354796Y-54389495D01*
X225356000Y-54413999D01*
X225356000Y-55314001D01*
X225354796Y-55338505D01*
X225351196Y-55362773D01*
X225345235Y-55386572D01*
X225336970Y-55409671D01*
X225326480Y-55431850D01*
X225313868Y-55452893D01*
X225299253Y-55472599D01*
X225282777Y-55490777D01*
X225264599Y-55507253D01*
X225244893Y-55521868D01*
X225223850Y-55534480D01*
X225201671Y-55544970D01*
X225178572Y-55553235D01*
X225154773Y-55559196D01*
X225130505Y-55562796D01*
X225106001Y-55564000D01*
X224455999Y-55564000D01*
X224431495Y-55562796D01*
X224407227Y-55559196D01*
X224383428Y-55553235D01*
X224360329Y-55544970D01*
X224338150Y-55534480D01*
X224317107Y-55521868D01*
X224297401Y-55507253D01*
X224279223Y-55490777D01*
X224262747Y-55472599D01*
X224248132Y-55452893D01*
X224235520Y-55431850D01*
X224225030Y-55409671D01*
X224216765Y-55386572D01*
X224210804Y-55362773D01*
X224207204Y-55338505D01*
X224206000Y-55314001D01*
X224206000Y-54413999D01*
X224207204Y-54389495D01*
X224210804Y-54365227D01*
X224216765Y-54341428D01*
X224225030Y-54318329D01*
X224235520Y-54296150D01*
X224248132Y-54275107D01*
X224262747Y-54255401D01*
X224279223Y-54237223D01*
X224297401Y-54220747D01*
X224317107Y-54206132D01*
X224338150Y-54193520D01*
X224360329Y-54183030D01*
X224383428Y-54174765D01*
X224407227Y-54168804D01*
X224431495Y-54165204D01*
X224455999Y-54164000D01*
X225106001Y-54164000D01*
X225130505Y-54165204D01*
X225130505Y-54165204D01*
G37*
D14*
X224781000Y-54864000D03*
D12*
G36*
X227180505Y-54165204D02*
G01*
X227204773Y-54168804D01*
X227228572Y-54174765D01*
X227251671Y-54183030D01*
X227273850Y-54193520D01*
X227294893Y-54206132D01*
X227314599Y-54220747D01*
X227332777Y-54237223D01*
X227349253Y-54255401D01*
X227363868Y-54275107D01*
X227376480Y-54296150D01*
X227386970Y-54318329D01*
X227395235Y-54341428D01*
X227401196Y-54365227D01*
X227404796Y-54389495D01*
X227406000Y-54413999D01*
X227406000Y-55314001D01*
X227404796Y-55338505D01*
X227401196Y-55362773D01*
X227395235Y-55386572D01*
X227386970Y-55409671D01*
X227376480Y-55431850D01*
X227363868Y-55452893D01*
X227349253Y-55472599D01*
X227332777Y-55490777D01*
X227314599Y-55507253D01*
X227294893Y-55521868D01*
X227273850Y-55534480D01*
X227251671Y-55544970D01*
X227228572Y-55553235D01*
X227204773Y-55559196D01*
X227180505Y-55562796D01*
X227156001Y-55564000D01*
X226505999Y-55564000D01*
X226481495Y-55562796D01*
X226457227Y-55559196D01*
X226433428Y-55553235D01*
X226410329Y-55544970D01*
X226388150Y-55534480D01*
X226367107Y-55521868D01*
X226347401Y-55507253D01*
X226329223Y-55490777D01*
X226312747Y-55472599D01*
X226298132Y-55452893D01*
X226285520Y-55431850D01*
X226275030Y-55409671D01*
X226266765Y-55386572D01*
X226260804Y-55362773D01*
X226257204Y-55338505D01*
X226256000Y-55314001D01*
X226256000Y-54413999D01*
X226257204Y-54389495D01*
X226260804Y-54365227D01*
X226266765Y-54341428D01*
X226275030Y-54318329D01*
X226285520Y-54296150D01*
X226298132Y-54275107D01*
X226312747Y-54255401D01*
X226329223Y-54237223D01*
X226347401Y-54220747D01*
X226367107Y-54206132D01*
X226388150Y-54193520D01*
X226410329Y-54183030D01*
X226433428Y-54174765D01*
X226457227Y-54168804D01*
X226481495Y-54165204D01*
X226505999Y-54164000D01*
X227156001Y-54164000D01*
X227180505Y-54165204D01*
X227180505Y-54165204D01*
G37*
D14*
X226831000Y-54864000D03*
D12*
G36*
X241774505Y-34224204D02*
G01*
X241798773Y-34227804D01*
X241822572Y-34233765D01*
X241845671Y-34242030D01*
X241867850Y-34252520D01*
X241888893Y-34265132D01*
X241908599Y-34279747D01*
X241926777Y-34296223D01*
X241943253Y-34314401D01*
X241957868Y-34334107D01*
X241970480Y-34355150D01*
X241980970Y-34377329D01*
X241989235Y-34400428D01*
X241995196Y-34424227D01*
X241998796Y-34448495D01*
X242000000Y-34472999D01*
X242000000Y-35123001D01*
X241998796Y-35147505D01*
X241995196Y-35171773D01*
X241989235Y-35195572D01*
X241980970Y-35218671D01*
X241970480Y-35240850D01*
X241957868Y-35261893D01*
X241943253Y-35281599D01*
X241926777Y-35299777D01*
X241908599Y-35316253D01*
X241888893Y-35330868D01*
X241867850Y-35343480D01*
X241845671Y-35353970D01*
X241822572Y-35362235D01*
X241798773Y-35368196D01*
X241774505Y-35371796D01*
X241750001Y-35373000D01*
X240849999Y-35373000D01*
X240825495Y-35371796D01*
X240801227Y-35368196D01*
X240777428Y-35362235D01*
X240754329Y-35353970D01*
X240732150Y-35343480D01*
X240711107Y-35330868D01*
X240691401Y-35316253D01*
X240673223Y-35299777D01*
X240656747Y-35281599D01*
X240642132Y-35261893D01*
X240629520Y-35240850D01*
X240619030Y-35218671D01*
X240610765Y-35195572D01*
X240604804Y-35171773D01*
X240601204Y-35147505D01*
X240600000Y-35123001D01*
X240600000Y-34472999D01*
X240601204Y-34448495D01*
X240604804Y-34424227D01*
X240610765Y-34400428D01*
X240619030Y-34377329D01*
X240629520Y-34355150D01*
X240642132Y-34334107D01*
X240656747Y-34314401D01*
X240673223Y-34296223D01*
X240691401Y-34279747D01*
X240711107Y-34265132D01*
X240732150Y-34252520D01*
X240754329Y-34242030D01*
X240777428Y-34233765D01*
X240801227Y-34227804D01*
X240825495Y-34224204D01*
X240849999Y-34223000D01*
X241750001Y-34223000D01*
X241774505Y-34224204D01*
X241774505Y-34224204D01*
G37*
D14*
X241300000Y-34798000D03*
D12*
G36*
X241774505Y-32174204D02*
G01*
X241798773Y-32177804D01*
X241822572Y-32183765D01*
X241845671Y-32192030D01*
X241867850Y-32202520D01*
X241888893Y-32215132D01*
X241908599Y-32229747D01*
X241926777Y-32246223D01*
X241943253Y-32264401D01*
X241957868Y-32284107D01*
X241970480Y-32305150D01*
X241980970Y-32327329D01*
X241989235Y-32350428D01*
X241995196Y-32374227D01*
X241998796Y-32398495D01*
X242000000Y-32422999D01*
X242000000Y-33073001D01*
X241998796Y-33097505D01*
X241995196Y-33121773D01*
X241989235Y-33145572D01*
X241980970Y-33168671D01*
X241970480Y-33190850D01*
X241957868Y-33211893D01*
X241943253Y-33231599D01*
X241926777Y-33249777D01*
X241908599Y-33266253D01*
X241888893Y-33280868D01*
X241867850Y-33293480D01*
X241845671Y-33303970D01*
X241822572Y-33312235D01*
X241798773Y-33318196D01*
X241774505Y-33321796D01*
X241750001Y-33323000D01*
X240849999Y-33323000D01*
X240825495Y-33321796D01*
X240801227Y-33318196D01*
X240777428Y-33312235D01*
X240754329Y-33303970D01*
X240732150Y-33293480D01*
X240711107Y-33280868D01*
X240691401Y-33266253D01*
X240673223Y-33249777D01*
X240656747Y-33231599D01*
X240642132Y-33211893D01*
X240629520Y-33190850D01*
X240619030Y-33168671D01*
X240610765Y-33145572D01*
X240604804Y-33121773D01*
X240601204Y-33097505D01*
X240600000Y-33073001D01*
X240600000Y-32422999D01*
X240601204Y-32398495D01*
X240604804Y-32374227D01*
X240610765Y-32350428D01*
X240619030Y-32327329D01*
X240629520Y-32305150D01*
X240642132Y-32284107D01*
X240656747Y-32264401D01*
X240673223Y-32246223D01*
X240691401Y-32229747D01*
X240711107Y-32215132D01*
X240732150Y-32202520D01*
X240754329Y-32192030D01*
X240777428Y-32183765D01*
X240801227Y-32177804D01*
X240825495Y-32174204D01*
X240849999Y-32173000D01*
X241750001Y-32173000D01*
X241774505Y-32174204D01*
X241774505Y-32174204D01*
G37*
D14*
X241300000Y-32748000D03*
D12*
G36*
X225130505Y-51625204D02*
G01*
X225154773Y-51628804D01*
X225178572Y-51634765D01*
X225201671Y-51643030D01*
X225223850Y-51653520D01*
X225244893Y-51666132D01*
X225264599Y-51680747D01*
X225282777Y-51697223D01*
X225299253Y-51715401D01*
X225313868Y-51735107D01*
X225326480Y-51756150D01*
X225336970Y-51778329D01*
X225345235Y-51801428D01*
X225351196Y-51825227D01*
X225354796Y-51849495D01*
X225356000Y-51873999D01*
X225356000Y-52774001D01*
X225354796Y-52798505D01*
X225351196Y-52822773D01*
X225345235Y-52846572D01*
X225336970Y-52869671D01*
X225326480Y-52891850D01*
X225313868Y-52912893D01*
X225299253Y-52932599D01*
X225282777Y-52950777D01*
X225264599Y-52967253D01*
X225244893Y-52981868D01*
X225223850Y-52994480D01*
X225201671Y-53004970D01*
X225178572Y-53013235D01*
X225154773Y-53019196D01*
X225130505Y-53022796D01*
X225106001Y-53024000D01*
X224455999Y-53024000D01*
X224431495Y-53022796D01*
X224407227Y-53019196D01*
X224383428Y-53013235D01*
X224360329Y-53004970D01*
X224338150Y-52994480D01*
X224317107Y-52981868D01*
X224297401Y-52967253D01*
X224279223Y-52950777D01*
X224262747Y-52932599D01*
X224248132Y-52912893D01*
X224235520Y-52891850D01*
X224225030Y-52869671D01*
X224216765Y-52846572D01*
X224210804Y-52822773D01*
X224207204Y-52798505D01*
X224206000Y-52774001D01*
X224206000Y-51873999D01*
X224207204Y-51849495D01*
X224210804Y-51825227D01*
X224216765Y-51801428D01*
X224225030Y-51778329D01*
X224235520Y-51756150D01*
X224248132Y-51735107D01*
X224262747Y-51715401D01*
X224279223Y-51697223D01*
X224297401Y-51680747D01*
X224317107Y-51666132D01*
X224338150Y-51653520D01*
X224360329Y-51643030D01*
X224383428Y-51634765D01*
X224407227Y-51628804D01*
X224431495Y-51625204D01*
X224455999Y-51624000D01*
X225106001Y-51624000D01*
X225130505Y-51625204D01*
X225130505Y-51625204D01*
G37*
D14*
X224781000Y-52324000D03*
D12*
G36*
X227180505Y-51625204D02*
G01*
X227204773Y-51628804D01*
X227228572Y-51634765D01*
X227251671Y-51643030D01*
X227273850Y-51653520D01*
X227294893Y-51666132D01*
X227314599Y-51680747D01*
X227332777Y-51697223D01*
X227349253Y-51715401D01*
X227363868Y-51735107D01*
X227376480Y-51756150D01*
X227386970Y-51778329D01*
X227395235Y-51801428D01*
X227401196Y-51825227D01*
X227404796Y-51849495D01*
X227406000Y-51873999D01*
X227406000Y-52774001D01*
X227404796Y-52798505D01*
X227401196Y-52822773D01*
X227395235Y-52846572D01*
X227386970Y-52869671D01*
X227376480Y-52891850D01*
X227363868Y-52912893D01*
X227349253Y-52932599D01*
X227332777Y-52950777D01*
X227314599Y-52967253D01*
X227294893Y-52981868D01*
X227273850Y-52994480D01*
X227251671Y-53004970D01*
X227228572Y-53013235D01*
X227204773Y-53019196D01*
X227180505Y-53022796D01*
X227156001Y-53024000D01*
X226505999Y-53024000D01*
X226481495Y-53022796D01*
X226457227Y-53019196D01*
X226433428Y-53013235D01*
X226410329Y-53004970D01*
X226388150Y-52994480D01*
X226367107Y-52981868D01*
X226347401Y-52967253D01*
X226329223Y-52950777D01*
X226312747Y-52932599D01*
X226298132Y-52912893D01*
X226285520Y-52891850D01*
X226275030Y-52869671D01*
X226266765Y-52846572D01*
X226260804Y-52822773D01*
X226257204Y-52798505D01*
X226256000Y-52774001D01*
X226256000Y-51873999D01*
X226257204Y-51849495D01*
X226260804Y-51825227D01*
X226266765Y-51801428D01*
X226275030Y-51778329D01*
X226285520Y-51756150D01*
X226298132Y-51735107D01*
X226312747Y-51715401D01*
X226329223Y-51697223D01*
X226347401Y-51680747D01*
X226367107Y-51666132D01*
X226388150Y-51653520D01*
X226410329Y-51643030D01*
X226433428Y-51634765D01*
X226457227Y-51628804D01*
X226481495Y-51625204D01*
X226505999Y-51624000D01*
X227156001Y-51624000D01*
X227180505Y-51625204D01*
X227180505Y-51625204D01*
G37*
D14*
X226831000Y-52324000D03*
D12*
G36*
X251800505Y-46291204D02*
G01*
X251824773Y-46294804D01*
X251848572Y-46300765D01*
X251871671Y-46309030D01*
X251893850Y-46319520D01*
X251914893Y-46332132D01*
X251934599Y-46346747D01*
X251952777Y-46363223D01*
X251969253Y-46381401D01*
X251983868Y-46401107D01*
X251996480Y-46422150D01*
X252006970Y-46444329D01*
X252015235Y-46467428D01*
X252021196Y-46491227D01*
X252024796Y-46515495D01*
X252026000Y-46539999D01*
X252026000Y-47440001D01*
X252024796Y-47464505D01*
X252021196Y-47488773D01*
X252015235Y-47512572D01*
X252006970Y-47535671D01*
X251996480Y-47557850D01*
X251983868Y-47578893D01*
X251969253Y-47598599D01*
X251952777Y-47616777D01*
X251934599Y-47633253D01*
X251914893Y-47647868D01*
X251893850Y-47660480D01*
X251871671Y-47670970D01*
X251848572Y-47679235D01*
X251824773Y-47685196D01*
X251800505Y-47688796D01*
X251776001Y-47690000D01*
X251125999Y-47690000D01*
X251101495Y-47688796D01*
X251077227Y-47685196D01*
X251053428Y-47679235D01*
X251030329Y-47670970D01*
X251008150Y-47660480D01*
X250987107Y-47647868D01*
X250967401Y-47633253D01*
X250949223Y-47616777D01*
X250932747Y-47598599D01*
X250918132Y-47578893D01*
X250905520Y-47557850D01*
X250895030Y-47535671D01*
X250886765Y-47512572D01*
X250880804Y-47488773D01*
X250877204Y-47464505D01*
X250876000Y-47440001D01*
X250876000Y-46539999D01*
X250877204Y-46515495D01*
X250880804Y-46491227D01*
X250886765Y-46467428D01*
X250895030Y-46444329D01*
X250905520Y-46422150D01*
X250918132Y-46401107D01*
X250932747Y-46381401D01*
X250949223Y-46363223D01*
X250967401Y-46346747D01*
X250987107Y-46332132D01*
X251008150Y-46319520D01*
X251030329Y-46309030D01*
X251053428Y-46300765D01*
X251077227Y-46294804D01*
X251101495Y-46291204D01*
X251125999Y-46290000D01*
X251776001Y-46290000D01*
X251800505Y-46291204D01*
X251800505Y-46291204D01*
G37*
D14*
X251451000Y-46990000D03*
D12*
G36*
X253850505Y-46291204D02*
G01*
X253874773Y-46294804D01*
X253898572Y-46300765D01*
X253921671Y-46309030D01*
X253943850Y-46319520D01*
X253964893Y-46332132D01*
X253984599Y-46346747D01*
X254002777Y-46363223D01*
X254019253Y-46381401D01*
X254033868Y-46401107D01*
X254046480Y-46422150D01*
X254056970Y-46444329D01*
X254065235Y-46467428D01*
X254071196Y-46491227D01*
X254074796Y-46515495D01*
X254076000Y-46539999D01*
X254076000Y-47440001D01*
X254074796Y-47464505D01*
X254071196Y-47488773D01*
X254065235Y-47512572D01*
X254056970Y-47535671D01*
X254046480Y-47557850D01*
X254033868Y-47578893D01*
X254019253Y-47598599D01*
X254002777Y-47616777D01*
X253984599Y-47633253D01*
X253964893Y-47647868D01*
X253943850Y-47660480D01*
X253921671Y-47670970D01*
X253898572Y-47679235D01*
X253874773Y-47685196D01*
X253850505Y-47688796D01*
X253826001Y-47690000D01*
X253175999Y-47690000D01*
X253151495Y-47688796D01*
X253127227Y-47685196D01*
X253103428Y-47679235D01*
X253080329Y-47670970D01*
X253058150Y-47660480D01*
X253037107Y-47647868D01*
X253017401Y-47633253D01*
X252999223Y-47616777D01*
X252982747Y-47598599D01*
X252968132Y-47578893D01*
X252955520Y-47557850D01*
X252945030Y-47535671D01*
X252936765Y-47512572D01*
X252930804Y-47488773D01*
X252927204Y-47464505D01*
X252926000Y-47440001D01*
X252926000Y-46539999D01*
X252927204Y-46515495D01*
X252930804Y-46491227D01*
X252936765Y-46467428D01*
X252945030Y-46444329D01*
X252955520Y-46422150D01*
X252968132Y-46401107D01*
X252982747Y-46381401D01*
X252999223Y-46363223D01*
X253017401Y-46346747D01*
X253037107Y-46332132D01*
X253058150Y-46319520D01*
X253080329Y-46309030D01*
X253103428Y-46300765D01*
X253127227Y-46294804D01*
X253151495Y-46291204D01*
X253175999Y-46290000D01*
X253826001Y-46290000D01*
X253850505Y-46291204D01*
X253850505Y-46291204D01*
G37*
D14*
X253501000Y-46990000D03*
D12*
G36*
X250040505Y-48831204D02*
G01*
X250064773Y-48834804D01*
X250088572Y-48840765D01*
X250111671Y-48849030D01*
X250133850Y-48859520D01*
X250154893Y-48872132D01*
X250174599Y-48886747D01*
X250192777Y-48903223D01*
X250209253Y-48921401D01*
X250223868Y-48941107D01*
X250236480Y-48962150D01*
X250246970Y-48984329D01*
X250255235Y-49007428D01*
X250261196Y-49031227D01*
X250264796Y-49055495D01*
X250266000Y-49079999D01*
X250266000Y-49980001D01*
X250264796Y-50004505D01*
X250261196Y-50028773D01*
X250255235Y-50052572D01*
X250246970Y-50075671D01*
X250236480Y-50097850D01*
X250223868Y-50118893D01*
X250209253Y-50138599D01*
X250192777Y-50156777D01*
X250174599Y-50173253D01*
X250154893Y-50187868D01*
X250133850Y-50200480D01*
X250111671Y-50210970D01*
X250088572Y-50219235D01*
X250064773Y-50225196D01*
X250040505Y-50228796D01*
X250016001Y-50230000D01*
X249365999Y-50230000D01*
X249341495Y-50228796D01*
X249317227Y-50225196D01*
X249293428Y-50219235D01*
X249270329Y-50210970D01*
X249248150Y-50200480D01*
X249227107Y-50187868D01*
X249207401Y-50173253D01*
X249189223Y-50156777D01*
X249172747Y-50138599D01*
X249158132Y-50118893D01*
X249145520Y-50097850D01*
X249135030Y-50075671D01*
X249126765Y-50052572D01*
X249120804Y-50028773D01*
X249117204Y-50004505D01*
X249116000Y-49980001D01*
X249116000Y-49079999D01*
X249117204Y-49055495D01*
X249120804Y-49031227D01*
X249126765Y-49007428D01*
X249135030Y-48984329D01*
X249145520Y-48962150D01*
X249158132Y-48941107D01*
X249172747Y-48921401D01*
X249189223Y-48903223D01*
X249207401Y-48886747D01*
X249227107Y-48872132D01*
X249248150Y-48859520D01*
X249270329Y-48849030D01*
X249293428Y-48840765D01*
X249317227Y-48834804D01*
X249341495Y-48831204D01*
X249365999Y-48830000D01*
X250016001Y-48830000D01*
X250040505Y-48831204D01*
X250040505Y-48831204D01*
G37*
D14*
X249691000Y-49530000D03*
D12*
G36*
X247990505Y-48831204D02*
G01*
X248014773Y-48834804D01*
X248038572Y-48840765D01*
X248061671Y-48849030D01*
X248083850Y-48859520D01*
X248104893Y-48872132D01*
X248124599Y-48886747D01*
X248142777Y-48903223D01*
X248159253Y-48921401D01*
X248173868Y-48941107D01*
X248186480Y-48962150D01*
X248196970Y-48984329D01*
X248205235Y-49007428D01*
X248211196Y-49031227D01*
X248214796Y-49055495D01*
X248216000Y-49079999D01*
X248216000Y-49980001D01*
X248214796Y-50004505D01*
X248211196Y-50028773D01*
X248205235Y-50052572D01*
X248196970Y-50075671D01*
X248186480Y-50097850D01*
X248173868Y-50118893D01*
X248159253Y-50138599D01*
X248142777Y-50156777D01*
X248124599Y-50173253D01*
X248104893Y-50187868D01*
X248083850Y-50200480D01*
X248061671Y-50210970D01*
X248038572Y-50219235D01*
X248014773Y-50225196D01*
X247990505Y-50228796D01*
X247966001Y-50230000D01*
X247315999Y-50230000D01*
X247291495Y-50228796D01*
X247267227Y-50225196D01*
X247243428Y-50219235D01*
X247220329Y-50210970D01*
X247198150Y-50200480D01*
X247177107Y-50187868D01*
X247157401Y-50173253D01*
X247139223Y-50156777D01*
X247122747Y-50138599D01*
X247108132Y-50118893D01*
X247095520Y-50097850D01*
X247085030Y-50075671D01*
X247076765Y-50052572D01*
X247070804Y-50028773D01*
X247067204Y-50004505D01*
X247066000Y-49980001D01*
X247066000Y-49079999D01*
X247067204Y-49055495D01*
X247070804Y-49031227D01*
X247076765Y-49007428D01*
X247085030Y-48984329D01*
X247095520Y-48962150D01*
X247108132Y-48941107D01*
X247122747Y-48921401D01*
X247139223Y-48903223D01*
X247157401Y-48886747D01*
X247177107Y-48872132D01*
X247198150Y-48859520D01*
X247220329Y-48849030D01*
X247243428Y-48840765D01*
X247267227Y-48834804D01*
X247291495Y-48831204D01*
X247315999Y-48830000D01*
X247966001Y-48830000D01*
X247990505Y-48831204D01*
X247990505Y-48831204D01*
G37*
D14*
X247641000Y-49530000D03*
D12*
G36*
X251809505Y-48831204D02*
G01*
X251833773Y-48834804D01*
X251857572Y-48840765D01*
X251880671Y-48849030D01*
X251902850Y-48859520D01*
X251923893Y-48872132D01*
X251943599Y-48886747D01*
X251961777Y-48903223D01*
X251978253Y-48921401D01*
X251992868Y-48941107D01*
X252005480Y-48962150D01*
X252015970Y-48984329D01*
X252024235Y-49007428D01*
X252030196Y-49031227D01*
X252033796Y-49055495D01*
X252035000Y-49079999D01*
X252035000Y-49980001D01*
X252033796Y-50004505D01*
X252030196Y-50028773D01*
X252024235Y-50052572D01*
X252015970Y-50075671D01*
X252005480Y-50097850D01*
X251992868Y-50118893D01*
X251978253Y-50138599D01*
X251961777Y-50156777D01*
X251943599Y-50173253D01*
X251923893Y-50187868D01*
X251902850Y-50200480D01*
X251880671Y-50210970D01*
X251857572Y-50219235D01*
X251833773Y-50225196D01*
X251809505Y-50228796D01*
X251785001Y-50230000D01*
X251134999Y-50230000D01*
X251110495Y-50228796D01*
X251086227Y-50225196D01*
X251062428Y-50219235D01*
X251039329Y-50210970D01*
X251017150Y-50200480D01*
X250996107Y-50187868D01*
X250976401Y-50173253D01*
X250958223Y-50156777D01*
X250941747Y-50138599D01*
X250927132Y-50118893D01*
X250914520Y-50097850D01*
X250904030Y-50075671D01*
X250895765Y-50052572D01*
X250889804Y-50028773D01*
X250886204Y-50004505D01*
X250885000Y-49980001D01*
X250885000Y-49079999D01*
X250886204Y-49055495D01*
X250889804Y-49031227D01*
X250895765Y-49007428D01*
X250904030Y-48984329D01*
X250914520Y-48962150D01*
X250927132Y-48941107D01*
X250941747Y-48921401D01*
X250958223Y-48903223D01*
X250976401Y-48886747D01*
X250996107Y-48872132D01*
X251017150Y-48859520D01*
X251039329Y-48849030D01*
X251062428Y-48840765D01*
X251086227Y-48834804D01*
X251110495Y-48831204D01*
X251134999Y-48830000D01*
X251785001Y-48830000D01*
X251809505Y-48831204D01*
X251809505Y-48831204D01*
G37*
D14*
X251460000Y-49530000D03*
D12*
G36*
X253859505Y-48831204D02*
G01*
X253883773Y-48834804D01*
X253907572Y-48840765D01*
X253930671Y-48849030D01*
X253952850Y-48859520D01*
X253973893Y-48872132D01*
X253993599Y-48886747D01*
X254011777Y-48903223D01*
X254028253Y-48921401D01*
X254042868Y-48941107D01*
X254055480Y-48962150D01*
X254065970Y-48984329D01*
X254074235Y-49007428D01*
X254080196Y-49031227D01*
X254083796Y-49055495D01*
X254085000Y-49079999D01*
X254085000Y-49980001D01*
X254083796Y-50004505D01*
X254080196Y-50028773D01*
X254074235Y-50052572D01*
X254065970Y-50075671D01*
X254055480Y-50097850D01*
X254042868Y-50118893D01*
X254028253Y-50138599D01*
X254011777Y-50156777D01*
X253993599Y-50173253D01*
X253973893Y-50187868D01*
X253952850Y-50200480D01*
X253930671Y-50210970D01*
X253907572Y-50219235D01*
X253883773Y-50225196D01*
X253859505Y-50228796D01*
X253835001Y-50230000D01*
X253184999Y-50230000D01*
X253160495Y-50228796D01*
X253136227Y-50225196D01*
X253112428Y-50219235D01*
X253089329Y-50210970D01*
X253067150Y-50200480D01*
X253046107Y-50187868D01*
X253026401Y-50173253D01*
X253008223Y-50156777D01*
X252991747Y-50138599D01*
X252977132Y-50118893D01*
X252964520Y-50097850D01*
X252954030Y-50075671D01*
X252945765Y-50052572D01*
X252939804Y-50028773D01*
X252936204Y-50004505D01*
X252935000Y-49980001D01*
X252935000Y-49079999D01*
X252936204Y-49055495D01*
X252939804Y-49031227D01*
X252945765Y-49007428D01*
X252954030Y-48984329D01*
X252964520Y-48962150D01*
X252977132Y-48941107D01*
X252991747Y-48921401D01*
X253008223Y-48903223D01*
X253026401Y-48886747D01*
X253046107Y-48872132D01*
X253067150Y-48859520D01*
X253089329Y-48849030D01*
X253112428Y-48840765D01*
X253136227Y-48834804D01*
X253160495Y-48831204D01*
X253184999Y-48830000D01*
X253835001Y-48830000D01*
X253859505Y-48831204D01*
X253859505Y-48831204D01*
G37*
D14*
X253510000Y-49530000D03*
D12*
G36*
X250040505Y-51371204D02*
G01*
X250064773Y-51374804D01*
X250088572Y-51380765D01*
X250111671Y-51389030D01*
X250133850Y-51399520D01*
X250154893Y-51412132D01*
X250174599Y-51426747D01*
X250192777Y-51443223D01*
X250209253Y-51461401D01*
X250223868Y-51481107D01*
X250236480Y-51502150D01*
X250246970Y-51524329D01*
X250255235Y-51547428D01*
X250261196Y-51571227D01*
X250264796Y-51595495D01*
X250266000Y-51619999D01*
X250266000Y-52520001D01*
X250264796Y-52544505D01*
X250261196Y-52568773D01*
X250255235Y-52592572D01*
X250246970Y-52615671D01*
X250236480Y-52637850D01*
X250223868Y-52658893D01*
X250209253Y-52678599D01*
X250192777Y-52696777D01*
X250174599Y-52713253D01*
X250154893Y-52727868D01*
X250133850Y-52740480D01*
X250111671Y-52750970D01*
X250088572Y-52759235D01*
X250064773Y-52765196D01*
X250040505Y-52768796D01*
X250016001Y-52770000D01*
X249365999Y-52770000D01*
X249341495Y-52768796D01*
X249317227Y-52765196D01*
X249293428Y-52759235D01*
X249270329Y-52750970D01*
X249248150Y-52740480D01*
X249227107Y-52727868D01*
X249207401Y-52713253D01*
X249189223Y-52696777D01*
X249172747Y-52678599D01*
X249158132Y-52658893D01*
X249145520Y-52637850D01*
X249135030Y-52615671D01*
X249126765Y-52592572D01*
X249120804Y-52568773D01*
X249117204Y-52544505D01*
X249116000Y-52520001D01*
X249116000Y-51619999D01*
X249117204Y-51595495D01*
X249120804Y-51571227D01*
X249126765Y-51547428D01*
X249135030Y-51524329D01*
X249145520Y-51502150D01*
X249158132Y-51481107D01*
X249172747Y-51461401D01*
X249189223Y-51443223D01*
X249207401Y-51426747D01*
X249227107Y-51412132D01*
X249248150Y-51399520D01*
X249270329Y-51389030D01*
X249293428Y-51380765D01*
X249317227Y-51374804D01*
X249341495Y-51371204D01*
X249365999Y-51370000D01*
X250016001Y-51370000D01*
X250040505Y-51371204D01*
X250040505Y-51371204D01*
G37*
D14*
X249691000Y-52070000D03*
D12*
G36*
X247990505Y-51371204D02*
G01*
X248014773Y-51374804D01*
X248038572Y-51380765D01*
X248061671Y-51389030D01*
X248083850Y-51399520D01*
X248104893Y-51412132D01*
X248124599Y-51426747D01*
X248142777Y-51443223D01*
X248159253Y-51461401D01*
X248173868Y-51481107D01*
X248186480Y-51502150D01*
X248196970Y-51524329D01*
X248205235Y-51547428D01*
X248211196Y-51571227D01*
X248214796Y-51595495D01*
X248216000Y-51619999D01*
X248216000Y-52520001D01*
X248214796Y-52544505D01*
X248211196Y-52568773D01*
X248205235Y-52592572D01*
X248196970Y-52615671D01*
X248186480Y-52637850D01*
X248173868Y-52658893D01*
X248159253Y-52678599D01*
X248142777Y-52696777D01*
X248124599Y-52713253D01*
X248104893Y-52727868D01*
X248083850Y-52740480D01*
X248061671Y-52750970D01*
X248038572Y-52759235D01*
X248014773Y-52765196D01*
X247990505Y-52768796D01*
X247966001Y-52770000D01*
X247315999Y-52770000D01*
X247291495Y-52768796D01*
X247267227Y-52765196D01*
X247243428Y-52759235D01*
X247220329Y-52750970D01*
X247198150Y-52740480D01*
X247177107Y-52727868D01*
X247157401Y-52713253D01*
X247139223Y-52696777D01*
X247122747Y-52678599D01*
X247108132Y-52658893D01*
X247095520Y-52637850D01*
X247085030Y-52615671D01*
X247076765Y-52592572D01*
X247070804Y-52568773D01*
X247067204Y-52544505D01*
X247066000Y-52520001D01*
X247066000Y-51619999D01*
X247067204Y-51595495D01*
X247070804Y-51571227D01*
X247076765Y-51547428D01*
X247085030Y-51524329D01*
X247095520Y-51502150D01*
X247108132Y-51481107D01*
X247122747Y-51461401D01*
X247139223Y-51443223D01*
X247157401Y-51426747D01*
X247177107Y-51412132D01*
X247198150Y-51399520D01*
X247220329Y-51389030D01*
X247243428Y-51380765D01*
X247267227Y-51374804D01*
X247291495Y-51371204D01*
X247315999Y-51370000D01*
X247966001Y-51370000D01*
X247990505Y-51371204D01*
X247990505Y-51371204D01*
G37*
D14*
X247641000Y-52070000D03*
D15*
X234336000Y-68703000D03*
X234336000Y-73253000D03*
X240136000Y-70003000D03*
X234336000Y-71303000D03*
X234336000Y-69353000D03*
X234336000Y-72603000D03*
X234336000Y-73903000D03*
X234336000Y-70653000D03*
X234336000Y-74553000D03*
X234336000Y-71953000D03*
X234336000Y-70003000D03*
X240136000Y-68703000D03*
X240136000Y-69353000D03*
X240136000Y-70653000D03*
X240136000Y-71953000D03*
X240136000Y-72603000D03*
X240136000Y-73253000D03*
X240136000Y-74553000D03*
X240136000Y-73903000D03*
X240136000Y-71303000D03*
D12*
G36*
X247990505Y-62039204D02*
G01*
X248014773Y-62042804D01*
X248038572Y-62048765D01*
X248061671Y-62057030D01*
X248083850Y-62067520D01*
X248104893Y-62080132D01*
X248124599Y-62094747D01*
X248142777Y-62111223D01*
X248159253Y-62129401D01*
X248173868Y-62149107D01*
X248186480Y-62170150D01*
X248196970Y-62192329D01*
X248205235Y-62215428D01*
X248211196Y-62239227D01*
X248214796Y-62263495D01*
X248216000Y-62287999D01*
X248216000Y-63188001D01*
X248214796Y-63212505D01*
X248211196Y-63236773D01*
X248205235Y-63260572D01*
X248196970Y-63283671D01*
X248186480Y-63305850D01*
X248173868Y-63326893D01*
X248159253Y-63346599D01*
X248142777Y-63364777D01*
X248124599Y-63381253D01*
X248104893Y-63395868D01*
X248083850Y-63408480D01*
X248061671Y-63418970D01*
X248038572Y-63427235D01*
X248014773Y-63433196D01*
X247990505Y-63436796D01*
X247966001Y-63438000D01*
X247315999Y-63438000D01*
X247291495Y-63436796D01*
X247267227Y-63433196D01*
X247243428Y-63427235D01*
X247220329Y-63418970D01*
X247198150Y-63408480D01*
X247177107Y-63395868D01*
X247157401Y-63381253D01*
X247139223Y-63364777D01*
X247122747Y-63346599D01*
X247108132Y-63326893D01*
X247095520Y-63305850D01*
X247085030Y-63283671D01*
X247076765Y-63260572D01*
X247070804Y-63236773D01*
X247067204Y-63212505D01*
X247066000Y-63188001D01*
X247066000Y-62287999D01*
X247067204Y-62263495D01*
X247070804Y-62239227D01*
X247076765Y-62215428D01*
X247085030Y-62192329D01*
X247095520Y-62170150D01*
X247108132Y-62149107D01*
X247122747Y-62129401D01*
X247139223Y-62111223D01*
X247157401Y-62094747D01*
X247177107Y-62080132D01*
X247198150Y-62067520D01*
X247220329Y-62057030D01*
X247243428Y-62048765D01*
X247267227Y-62042804D01*
X247291495Y-62039204D01*
X247315999Y-62038000D01*
X247966001Y-62038000D01*
X247990505Y-62039204D01*
X247990505Y-62039204D01*
G37*
D14*
X247641000Y-62738000D03*
D12*
G36*
X250040505Y-62039204D02*
G01*
X250064773Y-62042804D01*
X250088572Y-62048765D01*
X250111671Y-62057030D01*
X250133850Y-62067520D01*
X250154893Y-62080132D01*
X250174599Y-62094747D01*
X250192777Y-62111223D01*
X250209253Y-62129401D01*
X250223868Y-62149107D01*
X250236480Y-62170150D01*
X250246970Y-62192329D01*
X250255235Y-62215428D01*
X250261196Y-62239227D01*
X250264796Y-62263495D01*
X250266000Y-62287999D01*
X250266000Y-63188001D01*
X250264796Y-63212505D01*
X250261196Y-63236773D01*
X250255235Y-63260572D01*
X250246970Y-63283671D01*
X250236480Y-63305850D01*
X250223868Y-63326893D01*
X250209253Y-63346599D01*
X250192777Y-63364777D01*
X250174599Y-63381253D01*
X250154893Y-63395868D01*
X250133850Y-63408480D01*
X250111671Y-63418970D01*
X250088572Y-63427235D01*
X250064773Y-63433196D01*
X250040505Y-63436796D01*
X250016001Y-63438000D01*
X249365999Y-63438000D01*
X249341495Y-63436796D01*
X249317227Y-63433196D01*
X249293428Y-63427235D01*
X249270329Y-63418970D01*
X249248150Y-63408480D01*
X249227107Y-63395868D01*
X249207401Y-63381253D01*
X249189223Y-63364777D01*
X249172747Y-63346599D01*
X249158132Y-63326893D01*
X249145520Y-63305850D01*
X249135030Y-63283671D01*
X249126765Y-63260572D01*
X249120804Y-63236773D01*
X249117204Y-63212505D01*
X249116000Y-63188001D01*
X249116000Y-62287999D01*
X249117204Y-62263495D01*
X249120804Y-62239227D01*
X249126765Y-62215428D01*
X249135030Y-62192329D01*
X249145520Y-62170150D01*
X249158132Y-62149107D01*
X249172747Y-62129401D01*
X249189223Y-62111223D01*
X249207401Y-62094747D01*
X249227107Y-62080132D01*
X249248150Y-62067520D01*
X249270329Y-62057030D01*
X249293428Y-62048765D01*
X249317227Y-62042804D01*
X249341495Y-62039204D01*
X249365999Y-62038000D01*
X250016001Y-62038000D01*
X250040505Y-62039204D01*
X250040505Y-62039204D01*
G37*
D14*
X249691000Y-62738000D03*
D12*
G36*
X227180505Y-59245204D02*
G01*
X227204773Y-59248804D01*
X227228572Y-59254765D01*
X227251671Y-59263030D01*
X227273850Y-59273520D01*
X227294893Y-59286132D01*
X227314599Y-59300747D01*
X227332777Y-59317223D01*
X227349253Y-59335401D01*
X227363868Y-59355107D01*
X227376480Y-59376150D01*
X227386970Y-59398329D01*
X227395235Y-59421428D01*
X227401196Y-59445227D01*
X227404796Y-59469495D01*
X227406000Y-59493999D01*
X227406000Y-60394001D01*
X227404796Y-60418505D01*
X227401196Y-60442773D01*
X227395235Y-60466572D01*
X227386970Y-60489671D01*
X227376480Y-60511850D01*
X227363868Y-60532893D01*
X227349253Y-60552599D01*
X227332777Y-60570777D01*
X227314599Y-60587253D01*
X227294893Y-60601868D01*
X227273850Y-60614480D01*
X227251671Y-60624970D01*
X227228572Y-60633235D01*
X227204773Y-60639196D01*
X227180505Y-60642796D01*
X227156001Y-60644000D01*
X226505999Y-60644000D01*
X226481495Y-60642796D01*
X226457227Y-60639196D01*
X226433428Y-60633235D01*
X226410329Y-60624970D01*
X226388150Y-60614480D01*
X226367107Y-60601868D01*
X226347401Y-60587253D01*
X226329223Y-60570777D01*
X226312747Y-60552599D01*
X226298132Y-60532893D01*
X226285520Y-60511850D01*
X226275030Y-60489671D01*
X226266765Y-60466572D01*
X226260804Y-60442773D01*
X226257204Y-60418505D01*
X226256000Y-60394001D01*
X226256000Y-59493999D01*
X226257204Y-59469495D01*
X226260804Y-59445227D01*
X226266765Y-59421428D01*
X226275030Y-59398329D01*
X226285520Y-59376150D01*
X226298132Y-59355107D01*
X226312747Y-59335401D01*
X226329223Y-59317223D01*
X226347401Y-59300747D01*
X226367107Y-59286132D01*
X226388150Y-59273520D01*
X226410329Y-59263030D01*
X226433428Y-59254765D01*
X226457227Y-59248804D01*
X226481495Y-59245204D01*
X226505999Y-59244000D01*
X227156001Y-59244000D01*
X227180505Y-59245204D01*
X227180505Y-59245204D01*
G37*
D14*
X226831000Y-59944000D03*
D12*
G36*
X225130505Y-59245204D02*
G01*
X225154773Y-59248804D01*
X225178572Y-59254765D01*
X225201671Y-59263030D01*
X225223850Y-59273520D01*
X225244893Y-59286132D01*
X225264599Y-59300747D01*
X225282777Y-59317223D01*
X225299253Y-59335401D01*
X225313868Y-59355107D01*
X225326480Y-59376150D01*
X225336970Y-59398329D01*
X225345235Y-59421428D01*
X225351196Y-59445227D01*
X225354796Y-59469495D01*
X225356000Y-59493999D01*
X225356000Y-60394001D01*
X225354796Y-60418505D01*
X225351196Y-60442773D01*
X225345235Y-60466572D01*
X225336970Y-60489671D01*
X225326480Y-60511850D01*
X225313868Y-60532893D01*
X225299253Y-60552599D01*
X225282777Y-60570777D01*
X225264599Y-60587253D01*
X225244893Y-60601868D01*
X225223850Y-60614480D01*
X225201671Y-60624970D01*
X225178572Y-60633235D01*
X225154773Y-60639196D01*
X225130505Y-60642796D01*
X225106001Y-60644000D01*
X224455999Y-60644000D01*
X224431495Y-60642796D01*
X224407227Y-60639196D01*
X224383428Y-60633235D01*
X224360329Y-60624970D01*
X224338150Y-60614480D01*
X224317107Y-60601868D01*
X224297401Y-60587253D01*
X224279223Y-60570777D01*
X224262747Y-60552599D01*
X224248132Y-60532893D01*
X224235520Y-60511850D01*
X224225030Y-60489671D01*
X224216765Y-60466572D01*
X224210804Y-60442773D01*
X224207204Y-60418505D01*
X224206000Y-60394001D01*
X224206000Y-59493999D01*
X224207204Y-59469495D01*
X224210804Y-59445227D01*
X224216765Y-59421428D01*
X224225030Y-59398329D01*
X224235520Y-59376150D01*
X224248132Y-59355107D01*
X224262747Y-59335401D01*
X224279223Y-59317223D01*
X224297401Y-59300747D01*
X224317107Y-59286132D01*
X224338150Y-59273520D01*
X224360329Y-59263030D01*
X224383428Y-59254765D01*
X224407227Y-59248804D01*
X224431495Y-59245204D01*
X224455999Y-59244000D01*
X225106001Y-59244000D01*
X225130505Y-59245204D01*
X225130505Y-59245204D01*
G37*
D14*
X224781000Y-59944000D03*
D12*
G36*
X247990505Y-64579204D02*
G01*
X248014773Y-64582804D01*
X248038572Y-64588765D01*
X248061671Y-64597030D01*
X248083850Y-64607520D01*
X248104893Y-64620132D01*
X248124599Y-64634747D01*
X248142777Y-64651223D01*
X248159253Y-64669401D01*
X248173868Y-64689107D01*
X248186480Y-64710150D01*
X248196970Y-64732329D01*
X248205235Y-64755428D01*
X248211196Y-64779227D01*
X248214796Y-64803495D01*
X248216000Y-64827999D01*
X248216000Y-65728001D01*
X248214796Y-65752505D01*
X248211196Y-65776773D01*
X248205235Y-65800572D01*
X248196970Y-65823671D01*
X248186480Y-65845850D01*
X248173868Y-65866893D01*
X248159253Y-65886599D01*
X248142777Y-65904777D01*
X248124599Y-65921253D01*
X248104893Y-65935868D01*
X248083850Y-65948480D01*
X248061671Y-65958970D01*
X248038572Y-65967235D01*
X248014773Y-65973196D01*
X247990505Y-65976796D01*
X247966001Y-65978000D01*
X247315999Y-65978000D01*
X247291495Y-65976796D01*
X247267227Y-65973196D01*
X247243428Y-65967235D01*
X247220329Y-65958970D01*
X247198150Y-65948480D01*
X247177107Y-65935868D01*
X247157401Y-65921253D01*
X247139223Y-65904777D01*
X247122747Y-65886599D01*
X247108132Y-65866893D01*
X247095520Y-65845850D01*
X247085030Y-65823671D01*
X247076765Y-65800572D01*
X247070804Y-65776773D01*
X247067204Y-65752505D01*
X247066000Y-65728001D01*
X247066000Y-64827999D01*
X247067204Y-64803495D01*
X247070804Y-64779227D01*
X247076765Y-64755428D01*
X247085030Y-64732329D01*
X247095520Y-64710150D01*
X247108132Y-64689107D01*
X247122747Y-64669401D01*
X247139223Y-64651223D01*
X247157401Y-64634747D01*
X247177107Y-64620132D01*
X247198150Y-64607520D01*
X247220329Y-64597030D01*
X247243428Y-64588765D01*
X247267227Y-64582804D01*
X247291495Y-64579204D01*
X247315999Y-64578000D01*
X247966001Y-64578000D01*
X247990505Y-64579204D01*
X247990505Y-64579204D01*
G37*
D14*
X247641000Y-65278000D03*
D12*
G36*
X250040505Y-64579204D02*
G01*
X250064773Y-64582804D01*
X250088572Y-64588765D01*
X250111671Y-64597030D01*
X250133850Y-64607520D01*
X250154893Y-64620132D01*
X250174599Y-64634747D01*
X250192777Y-64651223D01*
X250209253Y-64669401D01*
X250223868Y-64689107D01*
X250236480Y-64710150D01*
X250246970Y-64732329D01*
X250255235Y-64755428D01*
X250261196Y-64779227D01*
X250264796Y-64803495D01*
X250266000Y-64827999D01*
X250266000Y-65728001D01*
X250264796Y-65752505D01*
X250261196Y-65776773D01*
X250255235Y-65800572D01*
X250246970Y-65823671D01*
X250236480Y-65845850D01*
X250223868Y-65866893D01*
X250209253Y-65886599D01*
X250192777Y-65904777D01*
X250174599Y-65921253D01*
X250154893Y-65935868D01*
X250133850Y-65948480D01*
X250111671Y-65958970D01*
X250088572Y-65967235D01*
X250064773Y-65973196D01*
X250040505Y-65976796D01*
X250016001Y-65978000D01*
X249365999Y-65978000D01*
X249341495Y-65976796D01*
X249317227Y-65973196D01*
X249293428Y-65967235D01*
X249270329Y-65958970D01*
X249248150Y-65948480D01*
X249227107Y-65935868D01*
X249207401Y-65921253D01*
X249189223Y-65904777D01*
X249172747Y-65886599D01*
X249158132Y-65866893D01*
X249145520Y-65845850D01*
X249135030Y-65823671D01*
X249126765Y-65800572D01*
X249120804Y-65776773D01*
X249117204Y-65752505D01*
X249116000Y-65728001D01*
X249116000Y-64827999D01*
X249117204Y-64803495D01*
X249120804Y-64779227D01*
X249126765Y-64755428D01*
X249135030Y-64732329D01*
X249145520Y-64710150D01*
X249158132Y-64689107D01*
X249172747Y-64669401D01*
X249189223Y-64651223D01*
X249207401Y-64634747D01*
X249227107Y-64620132D01*
X249248150Y-64607520D01*
X249270329Y-64597030D01*
X249293428Y-64588765D01*
X249317227Y-64582804D01*
X249341495Y-64579204D01*
X249365999Y-64578000D01*
X250016001Y-64578000D01*
X250040505Y-64579204D01*
X250040505Y-64579204D01*
G37*
D14*
X249691000Y-65278000D03*
D12*
G36*
X227180505Y-61785204D02*
G01*
X227204773Y-61788804D01*
X227228572Y-61794765D01*
X227251671Y-61803030D01*
X227273850Y-61813520D01*
X227294893Y-61826132D01*
X227314599Y-61840747D01*
X227332777Y-61857223D01*
X227349253Y-61875401D01*
X227363868Y-61895107D01*
X227376480Y-61916150D01*
X227386970Y-61938329D01*
X227395235Y-61961428D01*
X227401196Y-61985227D01*
X227404796Y-62009495D01*
X227406000Y-62033999D01*
X227406000Y-62934001D01*
X227404796Y-62958505D01*
X227401196Y-62982773D01*
X227395235Y-63006572D01*
X227386970Y-63029671D01*
X227376480Y-63051850D01*
X227363868Y-63072893D01*
X227349253Y-63092599D01*
X227332777Y-63110777D01*
X227314599Y-63127253D01*
X227294893Y-63141868D01*
X227273850Y-63154480D01*
X227251671Y-63164970D01*
X227228572Y-63173235D01*
X227204773Y-63179196D01*
X227180505Y-63182796D01*
X227156001Y-63184000D01*
X226505999Y-63184000D01*
X226481495Y-63182796D01*
X226457227Y-63179196D01*
X226433428Y-63173235D01*
X226410329Y-63164970D01*
X226388150Y-63154480D01*
X226367107Y-63141868D01*
X226347401Y-63127253D01*
X226329223Y-63110777D01*
X226312747Y-63092599D01*
X226298132Y-63072893D01*
X226285520Y-63051850D01*
X226275030Y-63029671D01*
X226266765Y-63006572D01*
X226260804Y-62982773D01*
X226257204Y-62958505D01*
X226256000Y-62934001D01*
X226256000Y-62033999D01*
X226257204Y-62009495D01*
X226260804Y-61985227D01*
X226266765Y-61961428D01*
X226275030Y-61938329D01*
X226285520Y-61916150D01*
X226298132Y-61895107D01*
X226312747Y-61875401D01*
X226329223Y-61857223D01*
X226347401Y-61840747D01*
X226367107Y-61826132D01*
X226388150Y-61813520D01*
X226410329Y-61803030D01*
X226433428Y-61794765D01*
X226457227Y-61788804D01*
X226481495Y-61785204D01*
X226505999Y-61784000D01*
X227156001Y-61784000D01*
X227180505Y-61785204D01*
X227180505Y-61785204D01*
G37*
D14*
X226831000Y-62484000D03*
D12*
G36*
X225130505Y-61785204D02*
G01*
X225154773Y-61788804D01*
X225178572Y-61794765D01*
X225201671Y-61803030D01*
X225223850Y-61813520D01*
X225244893Y-61826132D01*
X225264599Y-61840747D01*
X225282777Y-61857223D01*
X225299253Y-61875401D01*
X225313868Y-61895107D01*
X225326480Y-61916150D01*
X225336970Y-61938329D01*
X225345235Y-61961428D01*
X225351196Y-61985227D01*
X225354796Y-62009495D01*
X225356000Y-62033999D01*
X225356000Y-62934001D01*
X225354796Y-62958505D01*
X225351196Y-62982773D01*
X225345235Y-63006572D01*
X225336970Y-63029671D01*
X225326480Y-63051850D01*
X225313868Y-63072893D01*
X225299253Y-63092599D01*
X225282777Y-63110777D01*
X225264599Y-63127253D01*
X225244893Y-63141868D01*
X225223850Y-63154480D01*
X225201671Y-63164970D01*
X225178572Y-63173235D01*
X225154773Y-63179196D01*
X225130505Y-63182796D01*
X225106001Y-63184000D01*
X224455999Y-63184000D01*
X224431495Y-63182796D01*
X224407227Y-63179196D01*
X224383428Y-63173235D01*
X224360329Y-63164970D01*
X224338150Y-63154480D01*
X224317107Y-63141868D01*
X224297401Y-63127253D01*
X224279223Y-63110777D01*
X224262747Y-63092599D01*
X224248132Y-63072893D01*
X224235520Y-63051850D01*
X224225030Y-63029671D01*
X224216765Y-63006572D01*
X224210804Y-62982773D01*
X224207204Y-62958505D01*
X224206000Y-62934001D01*
X224206000Y-62033999D01*
X224207204Y-62009495D01*
X224210804Y-61985227D01*
X224216765Y-61961428D01*
X224225030Y-61938329D01*
X224235520Y-61916150D01*
X224248132Y-61895107D01*
X224262747Y-61875401D01*
X224279223Y-61857223D01*
X224297401Y-61840747D01*
X224317107Y-61826132D01*
X224338150Y-61813520D01*
X224360329Y-61803030D01*
X224383428Y-61794765D01*
X224407227Y-61788804D01*
X224431495Y-61785204D01*
X224455999Y-61784000D01*
X225106001Y-61784000D01*
X225130505Y-61785204D01*
X225130505Y-61785204D01*
G37*
D14*
X224781000Y-62484000D03*
D12*
G36*
X247990505Y-67119204D02*
G01*
X248014773Y-67122804D01*
X248038572Y-67128765D01*
X248061671Y-67137030D01*
X248083850Y-67147520D01*
X248104893Y-67160132D01*
X248124599Y-67174747D01*
X248142777Y-67191223D01*
X248159253Y-67209401D01*
X248173868Y-67229107D01*
X248186480Y-67250150D01*
X248196970Y-67272329D01*
X248205235Y-67295428D01*
X248211196Y-67319227D01*
X248214796Y-67343495D01*
X248216000Y-67367999D01*
X248216000Y-68268001D01*
X248214796Y-68292505D01*
X248211196Y-68316773D01*
X248205235Y-68340572D01*
X248196970Y-68363671D01*
X248186480Y-68385850D01*
X248173868Y-68406893D01*
X248159253Y-68426599D01*
X248142777Y-68444777D01*
X248124599Y-68461253D01*
X248104893Y-68475868D01*
X248083850Y-68488480D01*
X248061671Y-68498970D01*
X248038572Y-68507235D01*
X248014773Y-68513196D01*
X247990505Y-68516796D01*
X247966001Y-68518000D01*
X247315999Y-68518000D01*
X247291495Y-68516796D01*
X247267227Y-68513196D01*
X247243428Y-68507235D01*
X247220329Y-68498970D01*
X247198150Y-68488480D01*
X247177107Y-68475868D01*
X247157401Y-68461253D01*
X247139223Y-68444777D01*
X247122747Y-68426599D01*
X247108132Y-68406893D01*
X247095520Y-68385850D01*
X247085030Y-68363671D01*
X247076765Y-68340572D01*
X247070804Y-68316773D01*
X247067204Y-68292505D01*
X247066000Y-68268001D01*
X247066000Y-67367999D01*
X247067204Y-67343495D01*
X247070804Y-67319227D01*
X247076765Y-67295428D01*
X247085030Y-67272329D01*
X247095520Y-67250150D01*
X247108132Y-67229107D01*
X247122747Y-67209401D01*
X247139223Y-67191223D01*
X247157401Y-67174747D01*
X247177107Y-67160132D01*
X247198150Y-67147520D01*
X247220329Y-67137030D01*
X247243428Y-67128765D01*
X247267227Y-67122804D01*
X247291495Y-67119204D01*
X247315999Y-67118000D01*
X247966001Y-67118000D01*
X247990505Y-67119204D01*
X247990505Y-67119204D01*
G37*
D14*
X247641000Y-67818000D03*
D12*
G36*
X250040505Y-67119204D02*
G01*
X250064773Y-67122804D01*
X250088572Y-67128765D01*
X250111671Y-67137030D01*
X250133850Y-67147520D01*
X250154893Y-67160132D01*
X250174599Y-67174747D01*
X250192777Y-67191223D01*
X250209253Y-67209401D01*
X250223868Y-67229107D01*
X250236480Y-67250150D01*
X250246970Y-67272329D01*
X250255235Y-67295428D01*
X250261196Y-67319227D01*
X250264796Y-67343495D01*
X250266000Y-67367999D01*
X250266000Y-68268001D01*
X250264796Y-68292505D01*
X250261196Y-68316773D01*
X250255235Y-68340572D01*
X250246970Y-68363671D01*
X250236480Y-68385850D01*
X250223868Y-68406893D01*
X250209253Y-68426599D01*
X250192777Y-68444777D01*
X250174599Y-68461253D01*
X250154893Y-68475868D01*
X250133850Y-68488480D01*
X250111671Y-68498970D01*
X250088572Y-68507235D01*
X250064773Y-68513196D01*
X250040505Y-68516796D01*
X250016001Y-68518000D01*
X249365999Y-68518000D01*
X249341495Y-68516796D01*
X249317227Y-68513196D01*
X249293428Y-68507235D01*
X249270329Y-68498970D01*
X249248150Y-68488480D01*
X249227107Y-68475868D01*
X249207401Y-68461253D01*
X249189223Y-68444777D01*
X249172747Y-68426599D01*
X249158132Y-68406893D01*
X249145520Y-68385850D01*
X249135030Y-68363671D01*
X249126765Y-68340572D01*
X249120804Y-68316773D01*
X249117204Y-68292505D01*
X249116000Y-68268001D01*
X249116000Y-67367999D01*
X249117204Y-67343495D01*
X249120804Y-67319227D01*
X249126765Y-67295428D01*
X249135030Y-67272329D01*
X249145520Y-67250150D01*
X249158132Y-67229107D01*
X249172747Y-67209401D01*
X249189223Y-67191223D01*
X249207401Y-67174747D01*
X249227107Y-67160132D01*
X249248150Y-67147520D01*
X249270329Y-67137030D01*
X249293428Y-67128765D01*
X249317227Y-67122804D01*
X249341495Y-67119204D01*
X249365999Y-67118000D01*
X250016001Y-67118000D01*
X250040505Y-67119204D01*
X250040505Y-67119204D01*
G37*
D14*
X249691000Y-67818000D03*
D12*
G36*
X247990505Y-74739204D02*
G01*
X248014773Y-74742804D01*
X248038572Y-74748765D01*
X248061671Y-74757030D01*
X248083850Y-74767520D01*
X248104893Y-74780132D01*
X248124599Y-74794747D01*
X248142777Y-74811223D01*
X248159253Y-74829401D01*
X248173868Y-74849107D01*
X248186480Y-74870150D01*
X248196970Y-74892329D01*
X248205235Y-74915428D01*
X248211196Y-74939227D01*
X248214796Y-74963495D01*
X248216000Y-74987999D01*
X248216000Y-75888001D01*
X248214796Y-75912505D01*
X248211196Y-75936773D01*
X248205235Y-75960572D01*
X248196970Y-75983671D01*
X248186480Y-76005850D01*
X248173868Y-76026893D01*
X248159253Y-76046599D01*
X248142777Y-76064777D01*
X248124599Y-76081253D01*
X248104893Y-76095868D01*
X248083850Y-76108480D01*
X248061671Y-76118970D01*
X248038572Y-76127235D01*
X248014773Y-76133196D01*
X247990505Y-76136796D01*
X247966001Y-76138000D01*
X247315999Y-76138000D01*
X247291495Y-76136796D01*
X247267227Y-76133196D01*
X247243428Y-76127235D01*
X247220329Y-76118970D01*
X247198150Y-76108480D01*
X247177107Y-76095868D01*
X247157401Y-76081253D01*
X247139223Y-76064777D01*
X247122747Y-76046599D01*
X247108132Y-76026893D01*
X247095520Y-76005850D01*
X247085030Y-75983671D01*
X247076765Y-75960572D01*
X247070804Y-75936773D01*
X247067204Y-75912505D01*
X247066000Y-75888001D01*
X247066000Y-74987999D01*
X247067204Y-74963495D01*
X247070804Y-74939227D01*
X247076765Y-74915428D01*
X247085030Y-74892329D01*
X247095520Y-74870150D01*
X247108132Y-74849107D01*
X247122747Y-74829401D01*
X247139223Y-74811223D01*
X247157401Y-74794747D01*
X247177107Y-74780132D01*
X247198150Y-74767520D01*
X247220329Y-74757030D01*
X247243428Y-74748765D01*
X247267227Y-74742804D01*
X247291495Y-74739204D01*
X247315999Y-74738000D01*
X247966001Y-74738000D01*
X247990505Y-74739204D01*
X247990505Y-74739204D01*
G37*
D14*
X247641000Y-75438000D03*
D12*
G36*
X250040505Y-74739204D02*
G01*
X250064773Y-74742804D01*
X250088572Y-74748765D01*
X250111671Y-74757030D01*
X250133850Y-74767520D01*
X250154893Y-74780132D01*
X250174599Y-74794747D01*
X250192777Y-74811223D01*
X250209253Y-74829401D01*
X250223868Y-74849107D01*
X250236480Y-74870150D01*
X250246970Y-74892329D01*
X250255235Y-74915428D01*
X250261196Y-74939227D01*
X250264796Y-74963495D01*
X250266000Y-74987999D01*
X250266000Y-75888001D01*
X250264796Y-75912505D01*
X250261196Y-75936773D01*
X250255235Y-75960572D01*
X250246970Y-75983671D01*
X250236480Y-76005850D01*
X250223868Y-76026893D01*
X250209253Y-76046599D01*
X250192777Y-76064777D01*
X250174599Y-76081253D01*
X250154893Y-76095868D01*
X250133850Y-76108480D01*
X250111671Y-76118970D01*
X250088572Y-76127235D01*
X250064773Y-76133196D01*
X250040505Y-76136796D01*
X250016001Y-76138000D01*
X249365999Y-76138000D01*
X249341495Y-76136796D01*
X249317227Y-76133196D01*
X249293428Y-76127235D01*
X249270329Y-76118970D01*
X249248150Y-76108480D01*
X249227107Y-76095868D01*
X249207401Y-76081253D01*
X249189223Y-76064777D01*
X249172747Y-76046599D01*
X249158132Y-76026893D01*
X249145520Y-76005850D01*
X249135030Y-75983671D01*
X249126765Y-75960572D01*
X249120804Y-75936773D01*
X249117204Y-75912505D01*
X249116000Y-75888001D01*
X249116000Y-74987999D01*
X249117204Y-74963495D01*
X249120804Y-74939227D01*
X249126765Y-74915428D01*
X249135030Y-74892329D01*
X249145520Y-74870150D01*
X249158132Y-74849107D01*
X249172747Y-74829401D01*
X249189223Y-74811223D01*
X249207401Y-74794747D01*
X249227107Y-74780132D01*
X249248150Y-74767520D01*
X249270329Y-74757030D01*
X249293428Y-74748765D01*
X249317227Y-74742804D01*
X249341495Y-74739204D01*
X249365999Y-74738000D01*
X250016001Y-74738000D01*
X250040505Y-74739204D01*
X250040505Y-74739204D01*
G37*
D14*
X249691000Y-75438000D03*
D12*
G36*
X247990505Y-77279204D02*
G01*
X248014773Y-77282804D01*
X248038572Y-77288765D01*
X248061671Y-77297030D01*
X248083850Y-77307520D01*
X248104893Y-77320132D01*
X248124599Y-77334747D01*
X248142777Y-77351223D01*
X248159253Y-77369401D01*
X248173868Y-77389107D01*
X248186480Y-77410150D01*
X248196970Y-77432329D01*
X248205235Y-77455428D01*
X248211196Y-77479227D01*
X248214796Y-77503495D01*
X248216000Y-77527999D01*
X248216000Y-78428001D01*
X248214796Y-78452505D01*
X248211196Y-78476773D01*
X248205235Y-78500572D01*
X248196970Y-78523671D01*
X248186480Y-78545850D01*
X248173868Y-78566893D01*
X248159253Y-78586599D01*
X248142777Y-78604777D01*
X248124599Y-78621253D01*
X248104893Y-78635868D01*
X248083850Y-78648480D01*
X248061671Y-78658970D01*
X248038572Y-78667235D01*
X248014773Y-78673196D01*
X247990505Y-78676796D01*
X247966001Y-78678000D01*
X247315999Y-78678000D01*
X247291495Y-78676796D01*
X247267227Y-78673196D01*
X247243428Y-78667235D01*
X247220329Y-78658970D01*
X247198150Y-78648480D01*
X247177107Y-78635868D01*
X247157401Y-78621253D01*
X247139223Y-78604777D01*
X247122747Y-78586599D01*
X247108132Y-78566893D01*
X247095520Y-78545850D01*
X247085030Y-78523671D01*
X247076765Y-78500572D01*
X247070804Y-78476773D01*
X247067204Y-78452505D01*
X247066000Y-78428001D01*
X247066000Y-77527999D01*
X247067204Y-77503495D01*
X247070804Y-77479227D01*
X247076765Y-77455428D01*
X247085030Y-77432329D01*
X247095520Y-77410150D01*
X247108132Y-77389107D01*
X247122747Y-77369401D01*
X247139223Y-77351223D01*
X247157401Y-77334747D01*
X247177107Y-77320132D01*
X247198150Y-77307520D01*
X247220329Y-77297030D01*
X247243428Y-77288765D01*
X247267227Y-77282804D01*
X247291495Y-77279204D01*
X247315999Y-77278000D01*
X247966001Y-77278000D01*
X247990505Y-77279204D01*
X247990505Y-77279204D01*
G37*
D14*
X247641000Y-77978000D03*
D12*
G36*
X250040505Y-77279204D02*
G01*
X250064773Y-77282804D01*
X250088572Y-77288765D01*
X250111671Y-77297030D01*
X250133850Y-77307520D01*
X250154893Y-77320132D01*
X250174599Y-77334747D01*
X250192777Y-77351223D01*
X250209253Y-77369401D01*
X250223868Y-77389107D01*
X250236480Y-77410150D01*
X250246970Y-77432329D01*
X250255235Y-77455428D01*
X250261196Y-77479227D01*
X250264796Y-77503495D01*
X250266000Y-77527999D01*
X250266000Y-78428001D01*
X250264796Y-78452505D01*
X250261196Y-78476773D01*
X250255235Y-78500572D01*
X250246970Y-78523671D01*
X250236480Y-78545850D01*
X250223868Y-78566893D01*
X250209253Y-78586599D01*
X250192777Y-78604777D01*
X250174599Y-78621253D01*
X250154893Y-78635868D01*
X250133850Y-78648480D01*
X250111671Y-78658970D01*
X250088572Y-78667235D01*
X250064773Y-78673196D01*
X250040505Y-78676796D01*
X250016001Y-78678000D01*
X249365999Y-78678000D01*
X249341495Y-78676796D01*
X249317227Y-78673196D01*
X249293428Y-78667235D01*
X249270329Y-78658970D01*
X249248150Y-78648480D01*
X249227107Y-78635868D01*
X249207401Y-78621253D01*
X249189223Y-78604777D01*
X249172747Y-78586599D01*
X249158132Y-78566893D01*
X249145520Y-78545850D01*
X249135030Y-78523671D01*
X249126765Y-78500572D01*
X249120804Y-78476773D01*
X249117204Y-78452505D01*
X249116000Y-78428001D01*
X249116000Y-77527999D01*
X249117204Y-77503495D01*
X249120804Y-77479227D01*
X249126765Y-77455428D01*
X249135030Y-77432329D01*
X249145520Y-77410150D01*
X249158132Y-77389107D01*
X249172747Y-77369401D01*
X249189223Y-77351223D01*
X249207401Y-77334747D01*
X249227107Y-77320132D01*
X249248150Y-77307520D01*
X249270329Y-77297030D01*
X249293428Y-77288765D01*
X249317227Y-77282804D01*
X249341495Y-77279204D01*
X249365999Y-77278000D01*
X250016001Y-77278000D01*
X250040505Y-77279204D01*
X250040505Y-77279204D01*
G37*
D14*
X249691000Y-77978000D03*
D12*
G36*
X227180505Y-80073204D02*
G01*
X227204773Y-80076804D01*
X227228572Y-80082765D01*
X227251671Y-80091030D01*
X227273850Y-80101520D01*
X227294893Y-80114132D01*
X227314599Y-80128747D01*
X227332777Y-80145223D01*
X227349253Y-80163401D01*
X227363868Y-80183107D01*
X227376480Y-80204150D01*
X227386970Y-80226329D01*
X227395235Y-80249428D01*
X227401196Y-80273227D01*
X227404796Y-80297495D01*
X227406000Y-80321999D01*
X227406000Y-81222001D01*
X227404796Y-81246505D01*
X227401196Y-81270773D01*
X227395235Y-81294572D01*
X227386970Y-81317671D01*
X227376480Y-81339850D01*
X227363868Y-81360893D01*
X227349253Y-81380599D01*
X227332777Y-81398777D01*
X227314599Y-81415253D01*
X227294893Y-81429868D01*
X227273850Y-81442480D01*
X227251671Y-81452970D01*
X227228572Y-81461235D01*
X227204773Y-81467196D01*
X227180505Y-81470796D01*
X227156001Y-81472000D01*
X226505999Y-81472000D01*
X226481495Y-81470796D01*
X226457227Y-81467196D01*
X226433428Y-81461235D01*
X226410329Y-81452970D01*
X226388150Y-81442480D01*
X226367107Y-81429868D01*
X226347401Y-81415253D01*
X226329223Y-81398777D01*
X226312747Y-81380599D01*
X226298132Y-81360893D01*
X226285520Y-81339850D01*
X226275030Y-81317671D01*
X226266765Y-81294572D01*
X226260804Y-81270773D01*
X226257204Y-81246505D01*
X226256000Y-81222001D01*
X226256000Y-80321999D01*
X226257204Y-80297495D01*
X226260804Y-80273227D01*
X226266765Y-80249428D01*
X226275030Y-80226329D01*
X226285520Y-80204150D01*
X226298132Y-80183107D01*
X226312747Y-80163401D01*
X226329223Y-80145223D01*
X226347401Y-80128747D01*
X226367107Y-80114132D01*
X226388150Y-80101520D01*
X226410329Y-80091030D01*
X226433428Y-80082765D01*
X226457227Y-80076804D01*
X226481495Y-80073204D01*
X226505999Y-80072000D01*
X227156001Y-80072000D01*
X227180505Y-80073204D01*
X227180505Y-80073204D01*
G37*
D14*
X226831000Y-80772000D03*
D12*
G36*
X225130505Y-80073204D02*
G01*
X225154773Y-80076804D01*
X225178572Y-80082765D01*
X225201671Y-80091030D01*
X225223850Y-80101520D01*
X225244893Y-80114132D01*
X225264599Y-80128747D01*
X225282777Y-80145223D01*
X225299253Y-80163401D01*
X225313868Y-80183107D01*
X225326480Y-80204150D01*
X225336970Y-80226329D01*
X225345235Y-80249428D01*
X225351196Y-80273227D01*
X225354796Y-80297495D01*
X225356000Y-80321999D01*
X225356000Y-81222001D01*
X225354796Y-81246505D01*
X225351196Y-81270773D01*
X225345235Y-81294572D01*
X225336970Y-81317671D01*
X225326480Y-81339850D01*
X225313868Y-81360893D01*
X225299253Y-81380599D01*
X225282777Y-81398777D01*
X225264599Y-81415253D01*
X225244893Y-81429868D01*
X225223850Y-81442480D01*
X225201671Y-81452970D01*
X225178572Y-81461235D01*
X225154773Y-81467196D01*
X225130505Y-81470796D01*
X225106001Y-81472000D01*
X224455999Y-81472000D01*
X224431495Y-81470796D01*
X224407227Y-81467196D01*
X224383428Y-81461235D01*
X224360329Y-81452970D01*
X224338150Y-81442480D01*
X224317107Y-81429868D01*
X224297401Y-81415253D01*
X224279223Y-81398777D01*
X224262747Y-81380599D01*
X224248132Y-81360893D01*
X224235520Y-81339850D01*
X224225030Y-81317671D01*
X224216765Y-81294572D01*
X224210804Y-81270773D01*
X224207204Y-81246505D01*
X224206000Y-81222001D01*
X224206000Y-80321999D01*
X224207204Y-80297495D01*
X224210804Y-80273227D01*
X224216765Y-80249428D01*
X224225030Y-80226329D01*
X224235520Y-80204150D01*
X224248132Y-80183107D01*
X224262747Y-80163401D01*
X224279223Y-80145223D01*
X224297401Y-80128747D01*
X224317107Y-80114132D01*
X224338150Y-80101520D01*
X224360329Y-80091030D01*
X224383428Y-80082765D01*
X224407227Y-80076804D01*
X224431495Y-80073204D01*
X224455999Y-80072000D01*
X225106001Y-80072000D01*
X225130505Y-80073204D01*
X225130505Y-80073204D01*
G37*
D14*
X224781000Y-80772000D03*
D12*
G36*
X247990505Y-79819204D02*
G01*
X248014773Y-79822804D01*
X248038572Y-79828765D01*
X248061671Y-79837030D01*
X248083850Y-79847520D01*
X248104893Y-79860132D01*
X248124599Y-79874747D01*
X248142777Y-79891223D01*
X248159253Y-79909401D01*
X248173868Y-79929107D01*
X248186480Y-79950150D01*
X248196970Y-79972329D01*
X248205235Y-79995428D01*
X248211196Y-80019227D01*
X248214796Y-80043495D01*
X248216000Y-80067999D01*
X248216000Y-80968001D01*
X248214796Y-80992505D01*
X248211196Y-81016773D01*
X248205235Y-81040572D01*
X248196970Y-81063671D01*
X248186480Y-81085850D01*
X248173868Y-81106893D01*
X248159253Y-81126599D01*
X248142777Y-81144777D01*
X248124599Y-81161253D01*
X248104893Y-81175868D01*
X248083850Y-81188480D01*
X248061671Y-81198970D01*
X248038572Y-81207235D01*
X248014773Y-81213196D01*
X247990505Y-81216796D01*
X247966001Y-81218000D01*
X247315999Y-81218000D01*
X247291495Y-81216796D01*
X247267227Y-81213196D01*
X247243428Y-81207235D01*
X247220329Y-81198970D01*
X247198150Y-81188480D01*
X247177107Y-81175868D01*
X247157401Y-81161253D01*
X247139223Y-81144777D01*
X247122747Y-81126599D01*
X247108132Y-81106893D01*
X247095520Y-81085850D01*
X247085030Y-81063671D01*
X247076765Y-81040572D01*
X247070804Y-81016773D01*
X247067204Y-80992505D01*
X247066000Y-80968001D01*
X247066000Y-80067999D01*
X247067204Y-80043495D01*
X247070804Y-80019227D01*
X247076765Y-79995428D01*
X247085030Y-79972329D01*
X247095520Y-79950150D01*
X247108132Y-79929107D01*
X247122747Y-79909401D01*
X247139223Y-79891223D01*
X247157401Y-79874747D01*
X247177107Y-79860132D01*
X247198150Y-79847520D01*
X247220329Y-79837030D01*
X247243428Y-79828765D01*
X247267227Y-79822804D01*
X247291495Y-79819204D01*
X247315999Y-79818000D01*
X247966001Y-79818000D01*
X247990505Y-79819204D01*
X247990505Y-79819204D01*
G37*
D14*
X247641000Y-80518000D03*
D12*
G36*
X250040505Y-79819204D02*
G01*
X250064773Y-79822804D01*
X250088572Y-79828765D01*
X250111671Y-79837030D01*
X250133850Y-79847520D01*
X250154893Y-79860132D01*
X250174599Y-79874747D01*
X250192777Y-79891223D01*
X250209253Y-79909401D01*
X250223868Y-79929107D01*
X250236480Y-79950150D01*
X250246970Y-79972329D01*
X250255235Y-79995428D01*
X250261196Y-80019227D01*
X250264796Y-80043495D01*
X250266000Y-80067999D01*
X250266000Y-80968001D01*
X250264796Y-80992505D01*
X250261196Y-81016773D01*
X250255235Y-81040572D01*
X250246970Y-81063671D01*
X250236480Y-81085850D01*
X250223868Y-81106893D01*
X250209253Y-81126599D01*
X250192777Y-81144777D01*
X250174599Y-81161253D01*
X250154893Y-81175868D01*
X250133850Y-81188480D01*
X250111671Y-81198970D01*
X250088572Y-81207235D01*
X250064773Y-81213196D01*
X250040505Y-81216796D01*
X250016001Y-81218000D01*
X249365999Y-81218000D01*
X249341495Y-81216796D01*
X249317227Y-81213196D01*
X249293428Y-81207235D01*
X249270329Y-81198970D01*
X249248150Y-81188480D01*
X249227107Y-81175868D01*
X249207401Y-81161253D01*
X249189223Y-81144777D01*
X249172747Y-81126599D01*
X249158132Y-81106893D01*
X249145520Y-81085850D01*
X249135030Y-81063671D01*
X249126765Y-81040572D01*
X249120804Y-81016773D01*
X249117204Y-80992505D01*
X249116000Y-80968001D01*
X249116000Y-80067999D01*
X249117204Y-80043495D01*
X249120804Y-80019227D01*
X249126765Y-79995428D01*
X249135030Y-79972329D01*
X249145520Y-79950150D01*
X249158132Y-79929107D01*
X249172747Y-79909401D01*
X249189223Y-79891223D01*
X249207401Y-79874747D01*
X249227107Y-79860132D01*
X249248150Y-79847520D01*
X249270329Y-79837030D01*
X249293428Y-79828765D01*
X249317227Y-79822804D01*
X249341495Y-79819204D01*
X249365999Y-79818000D01*
X250016001Y-79818000D01*
X250040505Y-79819204D01*
X250040505Y-79819204D01*
G37*
D14*
X249691000Y-80518000D03*
D12*
G36*
X227180505Y-82613204D02*
G01*
X227204773Y-82616804D01*
X227228572Y-82622765D01*
X227251671Y-82631030D01*
X227273850Y-82641520D01*
X227294893Y-82654132D01*
X227314599Y-82668747D01*
X227332777Y-82685223D01*
X227349253Y-82703401D01*
X227363868Y-82723107D01*
X227376480Y-82744150D01*
X227386970Y-82766329D01*
X227395235Y-82789428D01*
X227401196Y-82813227D01*
X227404796Y-82837495D01*
X227406000Y-82861999D01*
X227406000Y-83762001D01*
X227404796Y-83786505D01*
X227401196Y-83810773D01*
X227395235Y-83834572D01*
X227386970Y-83857671D01*
X227376480Y-83879850D01*
X227363868Y-83900893D01*
X227349253Y-83920599D01*
X227332777Y-83938777D01*
X227314599Y-83955253D01*
X227294893Y-83969868D01*
X227273850Y-83982480D01*
X227251671Y-83992970D01*
X227228572Y-84001235D01*
X227204773Y-84007196D01*
X227180505Y-84010796D01*
X227156001Y-84012000D01*
X226505999Y-84012000D01*
X226481495Y-84010796D01*
X226457227Y-84007196D01*
X226433428Y-84001235D01*
X226410329Y-83992970D01*
X226388150Y-83982480D01*
X226367107Y-83969868D01*
X226347401Y-83955253D01*
X226329223Y-83938777D01*
X226312747Y-83920599D01*
X226298132Y-83900893D01*
X226285520Y-83879850D01*
X226275030Y-83857671D01*
X226266765Y-83834572D01*
X226260804Y-83810773D01*
X226257204Y-83786505D01*
X226256000Y-83762001D01*
X226256000Y-82861999D01*
X226257204Y-82837495D01*
X226260804Y-82813227D01*
X226266765Y-82789428D01*
X226275030Y-82766329D01*
X226285520Y-82744150D01*
X226298132Y-82723107D01*
X226312747Y-82703401D01*
X226329223Y-82685223D01*
X226347401Y-82668747D01*
X226367107Y-82654132D01*
X226388150Y-82641520D01*
X226410329Y-82631030D01*
X226433428Y-82622765D01*
X226457227Y-82616804D01*
X226481495Y-82613204D01*
X226505999Y-82612000D01*
X227156001Y-82612000D01*
X227180505Y-82613204D01*
X227180505Y-82613204D01*
G37*
D14*
X226831000Y-83312000D03*
D12*
G36*
X225130505Y-82613204D02*
G01*
X225154773Y-82616804D01*
X225178572Y-82622765D01*
X225201671Y-82631030D01*
X225223850Y-82641520D01*
X225244893Y-82654132D01*
X225264599Y-82668747D01*
X225282777Y-82685223D01*
X225299253Y-82703401D01*
X225313868Y-82723107D01*
X225326480Y-82744150D01*
X225336970Y-82766329D01*
X225345235Y-82789428D01*
X225351196Y-82813227D01*
X225354796Y-82837495D01*
X225356000Y-82861999D01*
X225356000Y-83762001D01*
X225354796Y-83786505D01*
X225351196Y-83810773D01*
X225345235Y-83834572D01*
X225336970Y-83857671D01*
X225326480Y-83879850D01*
X225313868Y-83900893D01*
X225299253Y-83920599D01*
X225282777Y-83938777D01*
X225264599Y-83955253D01*
X225244893Y-83969868D01*
X225223850Y-83982480D01*
X225201671Y-83992970D01*
X225178572Y-84001235D01*
X225154773Y-84007196D01*
X225130505Y-84010796D01*
X225106001Y-84012000D01*
X224455999Y-84012000D01*
X224431495Y-84010796D01*
X224407227Y-84007196D01*
X224383428Y-84001235D01*
X224360329Y-83992970D01*
X224338150Y-83982480D01*
X224317107Y-83969868D01*
X224297401Y-83955253D01*
X224279223Y-83938777D01*
X224262747Y-83920599D01*
X224248132Y-83900893D01*
X224235520Y-83879850D01*
X224225030Y-83857671D01*
X224216765Y-83834572D01*
X224210804Y-83810773D01*
X224207204Y-83786505D01*
X224206000Y-83762001D01*
X224206000Y-82861999D01*
X224207204Y-82837495D01*
X224210804Y-82813227D01*
X224216765Y-82789428D01*
X224225030Y-82766329D01*
X224235520Y-82744150D01*
X224248132Y-82723107D01*
X224262747Y-82703401D01*
X224279223Y-82685223D01*
X224297401Y-82668747D01*
X224317107Y-82654132D01*
X224338150Y-82641520D01*
X224360329Y-82631030D01*
X224383428Y-82622765D01*
X224407227Y-82616804D01*
X224431495Y-82613204D01*
X224455999Y-82612000D01*
X225106001Y-82612000D01*
X225130505Y-82613204D01*
X225130505Y-82613204D01*
G37*
D14*
X224781000Y-83312000D03*
D12*
G36*
X233646505Y-60631204D02*
G01*
X233670773Y-60634804D01*
X233694572Y-60640765D01*
X233717671Y-60649030D01*
X233739850Y-60659520D01*
X233760893Y-60672132D01*
X233780599Y-60686747D01*
X233798777Y-60703223D01*
X233815253Y-60721401D01*
X233829868Y-60741107D01*
X233842480Y-60762150D01*
X233852970Y-60784329D01*
X233861235Y-60807428D01*
X233867196Y-60831227D01*
X233870796Y-60855495D01*
X233872000Y-60879999D01*
X233872000Y-61530001D01*
X233870796Y-61554505D01*
X233867196Y-61578773D01*
X233861235Y-61602572D01*
X233852970Y-61625671D01*
X233842480Y-61647850D01*
X233829868Y-61668893D01*
X233815253Y-61688599D01*
X233798777Y-61706777D01*
X233780599Y-61723253D01*
X233760893Y-61737868D01*
X233739850Y-61750480D01*
X233717671Y-61760970D01*
X233694572Y-61769235D01*
X233670773Y-61775196D01*
X233646505Y-61778796D01*
X233622001Y-61780000D01*
X232721999Y-61780000D01*
X232697495Y-61778796D01*
X232673227Y-61775196D01*
X232649428Y-61769235D01*
X232626329Y-61760970D01*
X232604150Y-61750480D01*
X232583107Y-61737868D01*
X232563401Y-61723253D01*
X232545223Y-61706777D01*
X232528747Y-61688599D01*
X232514132Y-61668893D01*
X232501520Y-61647850D01*
X232491030Y-61625671D01*
X232482765Y-61602572D01*
X232476804Y-61578773D01*
X232473204Y-61554505D01*
X232472000Y-61530001D01*
X232472000Y-60879999D01*
X232473204Y-60855495D01*
X232476804Y-60831227D01*
X232482765Y-60807428D01*
X232491030Y-60784329D01*
X232501520Y-60762150D01*
X232514132Y-60741107D01*
X232528747Y-60721401D01*
X232545223Y-60703223D01*
X232563401Y-60686747D01*
X232583107Y-60672132D01*
X232604150Y-60659520D01*
X232626329Y-60649030D01*
X232649428Y-60640765D01*
X232673227Y-60634804D01*
X232697495Y-60631204D01*
X232721999Y-60630000D01*
X233622001Y-60630000D01*
X233646505Y-60631204D01*
X233646505Y-60631204D01*
G37*
D14*
X233172000Y-61205000D03*
D12*
G36*
X233646505Y-62681204D02*
G01*
X233670773Y-62684804D01*
X233694572Y-62690765D01*
X233717671Y-62699030D01*
X233739850Y-62709520D01*
X233760893Y-62722132D01*
X233780599Y-62736747D01*
X233798777Y-62753223D01*
X233815253Y-62771401D01*
X233829868Y-62791107D01*
X233842480Y-62812150D01*
X233852970Y-62834329D01*
X233861235Y-62857428D01*
X233867196Y-62881227D01*
X233870796Y-62905495D01*
X233872000Y-62929999D01*
X233872000Y-63580001D01*
X233870796Y-63604505D01*
X233867196Y-63628773D01*
X233861235Y-63652572D01*
X233852970Y-63675671D01*
X233842480Y-63697850D01*
X233829868Y-63718893D01*
X233815253Y-63738599D01*
X233798777Y-63756777D01*
X233780599Y-63773253D01*
X233760893Y-63787868D01*
X233739850Y-63800480D01*
X233717671Y-63810970D01*
X233694572Y-63819235D01*
X233670773Y-63825196D01*
X233646505Y-63828796D01*
X233622001Y-63830000D01*
X232721999Y-63830000D01*
X232697495Y-63828796D01*
X232673227Y-63825196D01*
X232649428Y-63819235D01*
X232626329Y-63810970D01*
X232604150Y-63800480D01*
X232583107Y-63787868D01*
X232563401Y-63773253D01*
X232545223Y-63756777D01*
X232528747Y-63738599D01*
X232514132Y-63718893D01*
X232501520Y-63697850D01*
X232491030Y-63675671D01*
X232482765Y-63652572D01*
X232476804Y-63628773D01*
X232473204Y-63604505D01*
X232472000Y-63580001D01*
X232472000Y-62929999D01*
X232473204Y-62905495D01*
X232476804Y-62881227D01*
X232482765Y-62857428D01*
X232491030Y-62834329D01*
X232501520Y-62812150D01*
X232514132Y-62791107D01*
X232528747Y-62771401D01*
X232545223Y-62753223D01*
X232563401Y-62736747D01*
X232583107Y-62722132D01*
X232604150Y-62709520D01*
X232626329Y-62699030D01*
X232649428Y-62690765D01*
X232673227Y-62684804D01*
X232697495Y-62681204D01*
X232721999Y-62680000D01*
X233622001Y-62680000D01*
X233646505Y-62681204D01*
X233646505Y-62681204D01*
G37*
D14*
X233172000Y-63255000D03*
D12*
G36*
X241774505Y-60622204D02*
G01*
X241798773Y-60625804D01*
X241822572Y-60631765D01*
X241845671Y-60640030D01*
X241867850Y-60650520D01*
X241888893Y-60663132D01*
X241908599Y-60677747D01*
X241926777Y-60694223D01*
X241943253Y-60712401D01*
X241957868Y-60732107D01*
X241970480Y-60753150D01*
X241980970Y-60775329D01*
X241989235Y-60798428D01*
X241995196Y-60822227D01*
X241998796Y-60846495D01*
X242000000Y-60870999D01*
X242000000Y-61521001D01*
X241998796Y-61545505D01*
X241995196Y-61569773D01*
X241989235Y-61593572D01*
X241980970Y-61616671D01*
X241970480Y-61638850D01*
X241957868Y-61659893D01*
X241943253Y-61679599D01*
X241926777Y-61697777D01*
X241908599Y-61714253D01*
X241888893Y-61728868D01*
X241867850Y-61741480D01*
X241845671Y-61751970D01*
X241822572Y-61760235D01*
X241798773Y-61766196D01*
X241774505Y-61769796D01*
X241750001Y-61771000D01*
X240849999Y-61771000D01*
X240825495Y-61769796D01*
X240801227Y-61766196D01*
X240777428Y-61760235D01*
X240754329Y-61751970D01*
X240732150Y-61741480D01*
X240711107Y-61728868D01*
X240691401Y-61714253D01*
X240673223Y-61697777D01*
X240656747Y-61679599D01*
X240642132Y-61659893D01*
X240629520Y-61638850D01*
X240619030Y-61616671D01*
X240610765Y-61593572D01*
X240604804Y-61569773D01*
X240601204Y-61545505D01*
X240600000Y-61521001D01*
X240600000Y-60870999D01*
X240601204Y-60846495D01*
X240604804Y-60822227D01*
X240610765Y-60798428D01*
X240619030Y-60775329D01*
X240629520Y-60753150D01*
X240642132Y-60732107D01*
X240656747Y-60712401D01*
X240673223Y-60694223D01*
X240691401Y-60677747D01*
X240711107Y-60663132D01*
X240732150Y-60650520D01*
X240754329Y-60640030D01*
X240777428Y-60631765D01*
X240801227Y-60625804D01*
X240825495Y-60622204D01*
X240849999Y-60621000D01*
X241750001Y-60621000D01*
X241774505Y-60622204D01*
X241774505Y-60622204D01*
G37*
D14*
X241300000Y-61196000D03*
D12*
G36*
X241774505Y-62672204D02*
G01*
X241798773Y-62675804D01*
X241822572Y-62681765D01*
X241845671Y-62690030D01*
X241867850Y-62700520D01*
X241888893Y-62713132D01*
X241908599Y-62727747D01*
X241926777Y-62744223D01*
X241943253Y-62762401D01*
X241957868Y-62782107D01*
X241970480Y-62803150D01*
X241980970Y-62825329D01*
X241989235Y-62848428D01*
X241995196Y-62872227D01*
X241998796Y-62896495D01*
X242000000Y-62920999D01*
X242000000Y-63571001D01*
X241998796Y-63595505D01*
X241995196Y-63619773D01*
X241989235Y-63643572D01*
X241980970Y-63666671D01*
X241970480Y-63688850D01*
X241957868Y-63709893D01*
X241943253Y-63729599D01*
X241926777Y-63747777D01*
X241908599Y-63764253D01*
X241888893Y-63778868D01*
X241867850Y-63791480D01*
X241845671Y-63801970D01*
X241822572Y-63810235D01*
X241798773Y-63816196D01*
X241774505Y-63819796D01*
X241750001Y-63821000D01*
X240849999Y-63821000D01*
X240825495Y-63819796D01*
X240801227Y-63816196D01*
X240777428Y-63810235D01*
X240754329Y-63801970D01*
X240732150Y-63791480D01*
X240711107Y-63778868D01*
X240691401Y-63764253D01*
X240673223Y-63747777D01*
X240656747Y-63729599D01*
X240642132Y-63709893D01*
X240629520Y-63688850D01*
X240619030Y-63666671D01*
X240610765Y-63643572D01*
X240604804Y-63619773D01*
X240601204Y-63595505D01*
X240600000Y-63571001D01*
X240600000Y-62920999D01*
X240601204Y-62896495D01*
X240604804Y-62872227D01*
X240610765Y-62848428D01*
X240619030Y-62825329D01*
X240629520Y-62803150D01*
X240642132Y-62782107D01*
X240656747Y-62762401D01*
X240673223Y-62744223D01*
X240691401Y-62727747D01*
X240711107Y-62713132D01*
X240732150Y-62700520D01*
X240754329Y-62690030D01*
X240777428Y-62681765D01*
X240801227Y-62675804D01*
X240825495Y-62672204D01*
X240849999Y-62671000D01*
X241750001Y-62671000D01*
X241774505Y-62672204D01*
X241774505Y-62672204D01*
G37*
D14*
X241300000Y-63246000D03*
D12*
G36*
X236551505Y-75755204D02*
G01*
X236575773Y-75758804D01*
X236599572Y-75764765D01*
X236622671Y-75773030D01*
X236644850Y-75783520D01*
X236665893Y-75796132D01*
X236685599Y-75810747D01*
X236703777Y-75827223D01*
X236720253Y-75845401D01*
X236734868Y-75865107D01*
X236747480Y-75886150D01*
X236757970Y-75908329D01*
X236766235Y-75931428D01*
X236772196Y-75955227D01*
X236775796Y-75979495D01*
X236777000Y-76003999D01*
X236777000Y-76904001D01*
X236775796Y-76928505D01*
X236772196Y-76952773D01*
X236766235Y-76976572D01*
X236757970Y-76999671D01*
X236747480Y-77021850D01*
X236734868Y-77042893D01*
X236720253Y-77062599D01*
X236703777Y-77080777D01*
X236685599Y-77097253D01*
X236665893Y-77111868D01*
X236644850Y-77124480D01*
X236622671Y-77134970D01*
X236599572Y-77143235D01*
X236575773Y-77149196D01*
X236551505Y-77152796D01*
X236527001Y-77154000D01*
X235876999Y-77154000D01*
X235852495Y-77152796D01*
X235828227Y-77149196D01*
X235804428Y-77143235D01*
X235781329Y-77134970D01*
X235759150Y-77124480D01*
X235738107Y-77111868D01*
X235718401Y-77097253D01*
X235700223Y-77080777D01*
X235683747Y-77062599D01*
X235669132Y-77042893D01*
X235656520Y-77021850D01*
X235646030Y-76999671D01*
X235637765Y-76976572D01*
X235631804Y-76952773D01*
X235628204Y-76928505D01*
X235627000Y-76904001D01*
X235627000Y-76003999D01*
X235628204Y-75979495D01*
X235631804Y-75955227D01*
X235637765Y-75931428D01*
X235646030Y-75908329D01*
X235656520Y-75886150D01*
X235669132Y-75865107D01*
X235683747Y-75845401D01*
X235700223Y-75827223D01*
X235718401Y-75810747D01*
X235738107Y-75796132D01*
X235759150Y-75783520D01*
X235781329Y-75773030D01*
X235804428Y-75764765D01*
X235828227Y-75758804D01*
X235852495Y-75755204D01*
X235876999Y-75754000D01*
X236527001Y-75754000D01*
X236551505Y-75755204D01*
X236551505Y-75755204D01*
G37*
D14*
X236202000Y-76454000D03*
D12*
G36*
X238601505Y-75755204D02*
G01*
X238625773Y-75758804D01*
X238649572Y-75764765D01*
X238672671Y-75773030D01*
X238694850Y-75783520D01*
X238715893Y-75796132D01*
X238735599Y-75810747D01*
X238753777Y-75827223D01*
X238770253Y-75845401D01*
X238784868Y-75865107D01*
X238797480Y-75886150D01*
X238807970Y-75908329D01*
X238816235Y-75931428D01*
X238822196Y-75955227D01*
X238825796Y-75979495D01*
X238827000Y-76003999D01*
X238827000Y-76904001D01*
X238825796Y-76928505D01*
X238822196Y-76952773D01*
X238816235Y-76976572D01*
X238807970Y-76999671D01*
X238797480Y-77021850D01*
X238784868Y-77042893D01*
X238770253Y-77062599D01*
X238753777Y-77080777D01*
X238735599Y-77097253D01*
X238715893Y-77111868D01*
X238694850Y-77124480D01*
X238672671Y-77134970D01*
X238649572Y-77143235D01*
X238625773Y-77149196D01*
X238601505Y-77152796D01*
X238577001Y-77154000D01*
X237926999Y-77154000D01*
X237902495Y-77152796D01*
X237878227Y-77149196D01*
X237854428Y-77143235D01*
X237831329Y-77134970D01*
X237809150Y-77124480D01*
X237788107Y-77111868D01*
X237768401Y-77097253D01*
X237750223Y-77080777D01*
X237733747Y-77062599D01*
X237719132Y-77042893D01*
X237706520Y-77021850D01*
X237696030Y-76999671D01*
X237687765Y-76976572D01*
X237681804Y-76952773D01*
X237678204Y-76928505D01*
X237677000Y-76904001D01*
X237677000Y-76003999D01*
X237678204Y-75979495D01*
X237681804Y-75955227D01*
X237687765Y-75931428D01*
X237696030Y-75908329D01*
X237706520Y-75886150D01*
X237719132Y-75865107D01*
X237733747Y-75845401D01*
X237750223Y-75827223D01*
X237768401Y-75810747D01*
X237788107Y-75796132D01*
X237809150Y-75783520D01*
X237831329Y-75773030D01*
X237854428Y-75764765D01*
X237878227Y-75758804D01*
X237902495Y-75755204D01*
X237926999Y-75754000D01*
X238577001Y-75754000D01*
X238601505Y-75755204D01*
X238601505Y-75755204D01*
G37*
D14*
X238252000Y-76454000D03*
D12*
G36*
X253850505Y-62039204D02*
G01*
X253874773Y-62042804D01*
X253898572Y-62048765D01*
X253921671Y-62057030D01*
X253943850Y-62067520D01*
X253964893Y-62080132D01*
X253984599Y-62094747D01*
X254002777Y-62111223D01*
X254019253Y-62129401D01*
X254033868Y-62149107D01*
X254046480Y-62170150D01*
X254056970Y-62192329D01*
X254065235Y-62215428D01*
X254071196Y-62239227D01*
X254074796Y-62263495D01*
X254076000Y-62287999D01*
X254076000Y-63188001D01*
X254074796Y-63212505D01*
X254071196Y-63236773D01*
X254065235Y-63260572D01*
X254056970Y-63283671D01*
X254046480Y-63305850D01*
X254033868Y-63326893D01*
X254019253Y-63346599D01*
X254002777Y-63364777D01*
X253984599Y-63381253D01*
X253964893Y-63395868D01*
X253943850Y-63408480D01*
X253921671Y-63418970D01*
X253898572Y-63427235D01*
X253874773Y-63433196D01*
X253850505Y-63436796D01*
X253826001Y-63438000D01*
X253175999Y-63438000D01*
X253151495Y-63436796D01*
X253127227Y-63433196D01*
X253103428Y-63427235D01*
X253080329Y-63418970D01*
X253058150Y-63408480D01*
X253037107Y-63395868D01*
X253017401Y-63381253D01*
X252999223Y-63364777D01*
X252982747Y-63346599D01*
X252968132Y-63326893D01*
X252955520Y-63305850D01*
X252945030Y-63283671D01*
X252936765Y-63260572D01*
X252930804Y-63236773D01*
X252927204Y-63212505D01*
X252926000Y-63188001D01*
X252926000Y-62287999D01*
X252927204Y-62263495D01*
X252930804Y-62239227D01*
X252936765Y-62215428D01*
X252945030Y-62192329D01*
X252955520Y-62170150D01*
X252968132Y-62149107D01*
X252982747Y-62129401D01*
X252999223Y-62111223D01*
X253017401Y-62094747D01*
X253037107Y-62080132D01*
X253058150Y-62067520D01*
X253080329Y-62057030D01*
X253103428Y-62048765D01*
X253127227Y-62042804D01*
X253151495Y-62039204D01*
X253175999Y-62038000D01*
X253826001Y-62038000D01*
X253850505Y-62039204D01*
X253850505Y-62039204D01*
G37*
D14*
X253501000Y-62738000D03*
D12*
G36*
X251800505Y-62039204D02*
G01*
X251824773Y-62042804D01*
X251848572Y-62048765D01*
X251871671Y-62057030D01*
X251893850Y-62067520D01*
X251914893Y-62080132D01*
X251934599Y-62094747D01*
X251952777Y-62111223D01*
X251969253Y-62129401D01*
X251983868Y-62149107D01*
X251996480Y-62170150D01*
X252006970Y-62192329D01*
X252015235Y-62215428D01*
X252021196Y-62239227D01*
X252024796Y-62263495D01*
X252026000Y-62287999D01*
X252026000Y-63188001D01*
X252024796Y-63212505D01*
X252021196Y-63236773D01*
X252015235Y-63260572D01*
X252006970Y-63283671D01*
X251996480Y-63305850D01*
X251983868Y-63326893D01*
X251969253Y-63346599D01*
X251952777Y-63364777D01*
X251934599Y-63381253D01*
X251914893Y-63395868D01*
X251893850Y-63408480D01*
X251871671Y-63418970D01*
X251848572Y-63427235D01*
X251824773Y-63433196D01*
X251800505Y-63436796D01*
X251776001Y-63438000D01*
X251125999Y-63438000D01*
X251101495Y-63436796D01*
X251077227Y-63433196D01*
X251053428Y-63427235D01*
X251030329Y-63418970D01*
X251008150Y-63408480D01*
X250987107Y-63395868D01*
X250967401Y-63381253D01*
X250949223Y-63364777D01*
X250932747Y-63346599D01*
X250918132Y-63326893D01*
X250905520Y-63305850D01*
X250895030Y-63283671D01*
X250886765Y-63260572D01*
X250880804Y-63236773D01*
X250877204Y-63212505D01*
X250876000Y-63188001D01*
X250876000Y-62287999D01*
X250877204Y-62263495D01*
X250880804Y-62239227D01*
X250886765Y-62215428D01*
X250895030Y-62192329D01*
X250905520Y-62170150D01*
X250918132Y-62149107D01*
X250932747Y-62129401D01*
X250949223Y-62111223D01*
X250967401Y-62094747D01*
X250987107Y-62080132D01*
X251008150Y-62067520D01*
X251030329Y-62057030D01*
X251053428Y-62048765D01*
X251077227Y-62042804D01*
X251101495Y-62039204D01*
X251125999Y-62038000D01*
X251776001Y-62038000D01*
X251800505Y-62039204D01*
X251800505Y-62039204D01*
G37*
D14*
X251451000Y-62738000D03*
D12*
G36*
X221320505Y-59245204D02*
G01*
X221344773Y-59248804D01*
X221368572Y-59254765D01*
X221391671Y-59263030D01*
X221413850Y-59273520D01*
X221434893Y-59286132D01*
X221454599Y-59300747D01*
X221472777Y-59317223D01*
X221489253Y-59335401D01*
X221503868Y-59355107D01*
X221516480Y-59376150D01*
X221526970Y-59398329D01*
X221535235Y-59421428D01*
X221541196Y-59445227D01*
X221544796Y-59469495D01*
X221546000Y-59493999D01*
X221546000Y-60394001D01*
X221544796Y-60418505D01*
X221541196Y-60442773D01*
X221535235Y-60466572D01*
X221526970Y-60489671D01*
X221516480Y-60511850D01*
X221503868Y-60532893D01*
X221489253Y-60552599D01*
X221472777Y-60570777D01*
X221454599Y-60587253D01*
X221434893Y-60601868D01*
X221413850Y-60614480D01*
X221391671Y-60624970D01*
X221368572Y-60633235D01*
X221344773Y-60639196D01*
X221320505Y-60642796D01*
X221296001Y-60644000D01*
X220645999Y-60644000D01*
X220621495Y-60642796D01*
X220597227Y-60639196D01*
X220573428Y-60633235D01*
X220550329Y-60624970D01*
X220528150Y-60614480D01*
X220507107Y-60601868D01*
X220487401Y-60587253D01*
X220469223Y-60570777D01*
X220452747Y-60552599D01*
X220438132Y-60532893D01*
X220425520Y-60511850D01*
X220415030Y-60489671D01*
X220406765Y-60466572D01*
X220400804Y-60442773D01*
X220397204Y-60418505D01*
X220396000Y-60394001D01*
X220396000Y-59493999D01*
X220397204Y-59469495D01*
X220400804Y-59445227D01*
X220406765Y-59421428D01*
X220415030Y-59398329D01*
X220425520Y-59376150D01*
X220438132Y-59355107D01*
X220452747Y-59335401D01*
X220469223Y-59317223D01*
X220487401Y-59300747D01*
X220507107Y-59286132D01*
X220528150Y-59273520D01*
X220550329Y-59263030D01*
X220573428Y-59254765D01*
X220597227Y-59248804D01*
X220621495Y-59245204D01*
X220645999Y-59244000D01*
X221296001Y-59244000D01*
X221320505Y-59245204D01*
X221320505Y-59245204D01*
G37*
D14*
X220971000Y-59944000D03*
D12*
G36*
X223370505Y-59245204D02*
G01*
X223394773Y-59248804D01*
X223418572Y-59254765D01*
X223441671Y-59263030D01*
X223463850Y-59273520D01*
X223484893Y-59286132D01*
X223504599Y-59300747D01*
X223522777Y-59317223D01*
X223539253Y-59335401D01*
X223553868Y-59355107D01*
X223566480Y-59376150D01*
X223576970Y-59398329D01*
X223585235Y-59421428D01*
X223591196Y-59445227D01*
X223594796Y-59469495D01*
X223596000Y-59493999D01*
X223596000Y-60394001D01*
X223594796Y-60418505D01*
X223591196Y-60442773D01*
X223585235Y-60466572D01*
X223576970Y-60489671D01*
X223566480Y-60511850D01*
X223553868Y-60532893D01*
X223539253Y-60552599D01*
X223522777Y-60570777D01*
X223504599Y-60587253D01*
X223484893Y-60601868D01*
X223463850Y-60614480D01*
X223441671Y-60624970D01*
X223418572Y-60633235D01*
X223394773Y-60639196D01*
X223370505Y-60642796D01*
X223346001Y-60644000D01*
X222695999Y-60644000D01*
X222671495Y-60642796D01*
X222647227Y-60639196D01*
X222623428Y-60633235D01*
X222600329Y-60624970D01*
X222578150Y-60614480D01*
X222557107Y-60601868D01*
X222537401Y-60587253D01*
X222519223Y-60570777D01*
X222502747Y-60552599D01*
X222488132Y-60532893D01*
X222475520Y-60511850D01*
X222465030Y-60489671D01*
X222456765Y-60466572D01*
X222450804Y-60442773D01*
X222447204Y-60418505D01*
X222446000Y-60394001D01*
X222446000Y-59493999D01*
X222447204Y-59469495D01*
X222450804Y-59445227D01*
X222456765Y-59421428D01*
X222465030Y-59398329D01*
X222475520Y-59376150D01*
X222488132Y-59355107D01*
X222502747Y-59335401D01*
X222519223Y-59317223D01*
X222537401Y-59300747D01*
X222557107Y-59286132D01*
X222578150Y-59273520D01*
X222600329Y-59263030D01*
X222623428Y-59254765D01*
X222647227Y-59248804D01*
X222671495Y-59245204D01*
X222695999Y-59244000D01*
X223346001Y-59244000D01*
X223370505Y-59245204D01*
X223370505Y-59245204D01*
G37*
D14*
X223021000Y-59944000D03*
D12*
G36*
X253850505Y-64579204D02*
G01*
X253874773Y-64582804D01*
X253898572Y-64588765D01*
X253921671Y-64597030D01*
X253943850Y-64607520D01*
X253964893Y-64620132D01*
X253984599Y-64634747D01*
X254002777Y-64651223D01*
X254019253Y-64669401D01*
X254033868Y-64689107D01*
X254046480Y-64710150D01*
X254056970Y-64732329D01*
X254065235Y-64755428D01*
X254071196Y-64779227D01*
X254074796Y-64803495D01*
X254076000Y-64827999D01*
X254076000Y-65728001D01*
X254074796Y-65752505D01*
X254071196Y-65776773D01*
X254065235Y-65800572D01*
X254056970Y-65823671D01*
X254046480Y-65845850D01*
X254033868Y-65866893D01*
X254019253Y-65886599D01*
X254002777Y-65904777D01*
X253984599Y-65921253D01*
X253964893Y-65935868D01*
X253943850Y-65948480D01*
X253921671Y-65958970D01*
X253898572Y-65967235D01*
X253874773Y-65973196D01*
X253850505Y-65976796D01*
X253826001Y-65978000D01*
X253175999Y-65978000D01*
X253151495Y-65976796D01*
X253127227Y-65973196D01*
X253103428Y-65967235D01*
X253080329Y-65958970D01*
X253058150Y-65948480D01*
X253037107Y-65935868D01*
X253017401Y-65921253D01*
X252999223Y-65904777D01*
X252982747Y-65886599D01*
X252968132Y-65866893D01*
X252955520Y-65845850D01*
X252945030Y-65823671D01*
X252936765Y-65800572D01*
X252930804Y-65776773D01*
X252927204Y-65752505D01*
X252926000Y-65728001D01*
X252926000Y-64827999D01*
X252927204Y-64803495D01*
X252930804Y-64779227D01*
X252936765Y-64755428D01*
X252945030Y-64732329D01*
X252955520Y-64710150D01*
X252968132Y-64689107D01*
X252982747Y-64669401D01*
X252999223Y-64651223D01*
X253017401Y-64634747D01*
X253037107Y-64620132D01*
X253058150Y-64607520D01*
X253080329Y-64597030D01*
X253103428Y-64588765D01*
X253127227Y-64582804D01*
X253151495Y-64579204D01*
X253175999Y-64578000D01*
X253826001Y-64578000D01*
X253850505Y-64579204D01*
X253850505Y-64579204D01*
G37*
D14*
X253501000Y-65278000D03*
D12*
G36*
X251800505Y-64579204D02*
G01*
X251824773Y-64582804D01*
X251848572Y-64588765D01*
X251871671Y-64597030D01*
X251893850Y-64607520D01*
X251914893Y-64620132D01*
X251934599Y-64634747D01*
X251952777Y-64651223D01*
X251969253Y-64669401D01*
X251983868Y-64689107D01*
X251996480Y-64710150D01*
X252006970Y-64732329D01*
X252015235Y-64755428D01*
X252021196Y-64779227D01*
X252024796Y-64803495D01*
X252026000Y-64827999D01*
X252026000Y-65728001D01*
X252024796Y-65752505D01*
X252021196Y-65776773D01*
X252015235Y-65800572D01*
X252006970Y-65823671D01*
X251996480Y-65845850D01*
X251983868Y-65866893D01*
X251969253Y-65886599D01*
X251952777Y-65904777D01*
X251934599Y-65921253D01*
X251914893Y-65935868D01*
X251893850Y-65948480D01*
X251871671Y-65958970D01*
X251848572Y-65967235D01*
X251824773Y-65973196D01*
X251800505Y-65976796D01*
X251776001Y-65978000D01*
X251125999Y-65978000D01*
X251101495Y-65976796D01*
X251077227Y-65973196D01*
X251053428Y-65967235D01*
X251030329Y-65958970D01*
X251008150Y-65948480D01*
X250987107Y-65935868D01*
X250967401Y-65921253D01*
X250949223Y-65904777D01*
X250932747Y-65886599D01*
X250918132Y-65866893D01*
X250905520Y-65845850D01*
X250895030Y-65823671D01*
X250886765Y-65800572D01*
X250880804Y-65776773D01*
X250877204Y-65752505D01*
X250876000Y-65728001D01*
X250876000Y-64827999D01*
X250877204Y-64803495D01*
X250880804Y-64779227D01*
X250886765Y-64755428D01*
X250895030Y-64732329D01*
X250905520Y-64710150D01*
X250918132Y-64689107D01*
X250932747Y-64669401D01*
X250949223Y-64651223D01*
X250967401Y-64634747D01*
X250987107Y-64620132D01*
X251008150Y-64607520D01*
X251030329Y-64597030D01*
X251053428Y-64588765D01*
X251077227Y-64582804D01*
X251101495Y-64579204D01*
X251125999Y-64578000D01*
X251776001Y-64578000D01*
X251800505Y-64579204D01*
X251800505Y-64579204D01*
G37*
D14*
X251451000Y-65278000D03*
D12*
G36*
X221320505Y-61785204D02*
G01*
X221344773Y-61788804D01*
X221368572Y-61794765D01*
X221391671Y-61803030D01*
X221413850Y-61813520D01*
X221434893Y-61826132D01*
X221454599Y-61840747D01*
X221472777Y-61857223D01*
X221489253Y-61875401D01*
X221503868Y-61895107D01*
X221516480Y-61916150D01*
X221526970Y-61938329D01*
X221535235Y-61961428D01*
X221541196Y-61985227D01*
X221544796Y-62009495D01*
X221546000Y-62033999D01*
X221546000Y-62934001D01*
X221544796Y-62958505D01*
X221541196Y-62982773D01*
X221535235Y-63006572D01*
X221526970Y-63029671D01*
X221516480Y-63051850D01*
X221503868Y-63072893D01*
X221489253Y-63092599D01*
X221472777Y-63110777D01*
X221454599Y-63127253D01*
X221434893Y-63141868D01*
X221413850Y-63154480D01*
X221391671Y-63164970D01*
X221368572Y-63173235D01*
X221344773Y-63179196D01*
X221320505Y-63182796D01*
X221296001Y-63184000D01*
X220645999Y-63184000D01*
X220621495Y-63182796D01*
X220597227Y-63179196D01*
X220573428Y-63173235D01*
X220550329Y-63164970D01*
X220528150Y-63154480D01*
X220507107Y-63141868D01*
X220487401Y-63127253D01*
X220469223Y-63110777D01*
X220452747Y-63092599D01*
X220438132Y-63072893D01*
X220425520Y-63051850D01*
X220415030Y-63029671D01*
X220406765Y-63006572D01*
X220400804Y-62982773D01*
X220397204Y-62958505D01*
X220396000Y-62934001D01*
X220396000Y-62033999D01*
X220397204Y-62009495D01*
X220400804Y-61985227D01*
X220406765Y-61961428D01*
X220415030Y-61938329D01*
X220425520Y-61916150D01*
X220438132Y-61895107D01*
X220452747Y-61875401D01*
X220469223Y-61857223D01*
X220487401Y-61840747D01*
X220507107Y-61826132D01*
X220528150Y-61813520D01*
X220550329Y-61803030D01*
X220573428Y-61794765D01*
X220597227Y-61788804D01*
X220621495Y-61785204D01*
X220645999Y-61784000D01*
X221296001Y-61784000D01*
X221320505Y-61785204D01*
X221320505Y-61785204D01*
G37*
D14*
X220971000Y-62484000D03*
D12*
G36*
X223370505Y-61785204D02*
G01*
X223394773Y-61788804D01*
X223418572Y-61794765D01*
X223441671Y-61803030D01*
X223463850Y-61813520D01*
X223484893Y-61826132D01*
X223504599Y-61840747D01*
X223522777Y-61857223D01*
X223539253Y-61875401D01*
X223553868Y-61895107D01*
X223566480Y-61916150D01*
X223576970Y-61938329D01*
X223585235Y-61961428D01*
X223591196Y-61985227D01*
X223594796Y-62009495D01*
X223596000Y-62033999D01*
X223596000Y-62934001D01*
X223594796Y-62958505D01*
X223591196Y-62982773D01*
X223585235Y-63006572D01*
X223576970Y-63029671D01*
X223566480Y-63051850D01*
X223553868Y-63072893D01*
X223539253Y-63092599D01*
X223522777Y-63110777D01*
X223504599Y-63127253D01*
X223484893Y-63141868D01*
X223463850Y-63154480D01*
X223441671Y-63164970D01*
X223418572Y-63173235D01*
X223394773Y-63179196D01*
X223370505Y-63182796D01*
X223346001Y-63184000D01*
X222695999Y-63184000D01*
X222671495Y-63182796D01*
X222647227Y-63179196D01*
X222623428Y-63173235D01*
X222600329Y-63164970D01*
X222578150Y-63154480D01*
X222557107Y-63141868D01*
X222537401Y-63127253D01*
X222519223Y-63110777D01*
X222502747Y-63092599D01*
X222488132Y-63072893D01*
X222475520Y-63051850D01*
X222465030Y-63029671D01*
X222456765Y-63006572D01*
X222450804Y-62982773D01*
X222447204Y-62958505D01*
X222446000Y-62934001D01*
X222446000Y-62033999D01*
X222447204Y-62009495D01*
X222450804Y-61985227D01*
X222456765Y-61961428D01*
X222465030Y-61938329D01*
X222475520Y-61916150D01*
X222488132Y-61895107D01*
X222502747Y-61875401D01*
X222519223Y-61857223D01*
X222537401Y-61840747D01*
X222557107Y-61826132D01*
X222578150Y-61813520D01*
X222600329Y-61803030D01*
X222623428Y-61794765D01*
X222647227Y-61788804D01*
X222671495Y-61785204D01*
X222695999Y-61784000D01*
X223346001Y-61784000D01*
X223370505Y-61785204D01*
X223370505Y-61785204D01*
G37*
D14*
X223021000Y-62484000D03*
D12*
G36*
X253850505Y-67119204D02*
G01*
X253874773Y-67122804D01*
X253898572Y-67128765D01*
X253921671Y-67137030D01*
X253943850Y-67147520D01*
X253964893Y-67160132D01*
X253984599Y-67174747D01*
X254002777Y-67191223D01*
X254019253Y-67209401D01*
X254033868Y-67229107D01*
X254046480Y-67250150D01*
X254056970Y-67272329D01*
X254065235Y-67295428D01*
X254071196Y-67319227D01*
X254074796Y-67343495D01*
X254076000Y-67367999D01*
X254076000Y-68268001D01*
X254074796Y-68292505D01*
X254071196Y-68316773D01*
X254065235Y-68340572D01*
X254056970Y-68363671D01*
X254046480Y-68385850D01*
X254033868Y-68406893D01*
X254019253Y-68426599D01*
X254002777Y-68444777D01*
X253984599Y-68461253D01*
X253964893Y-68475868D01*
X253943850Y-68488480D01*
X253921671Y-68498970D01*
X253898572Y-68507235D01*
X253874773Y-68513196D01*
X253850505Y-68516796D01*
X253826001Y-68518000D01*
X253175999Y-68518000D01*
X253151495Y-68516796D01*
X253127227Y-68513196D01*
X253103428Y-68507235D01*
X253080329Y-68498970D01*
X253058150Y-68488480D01*
X253037107Y-68475868D01*
X253017401Y-68461253D01*
X252999223Y-68444777D01*
X252982747Y-68426599D01*
X252968132Y-68406893D01*
X252955520Y-68385850D01*
X252945030Y-68363671D01*
X252936765Y-68340572D01*
X252930804Y-68316773D01*
X252927204Y-68292505D01*
X252926000Y-68268001D01*
X252926000Y-67367999D01*
X252927204Y-67343495D01*
X252930804Y-67319227D01*
X252936765Y-67295428D01*
X252945030Y-67272329D01*
X252955520Y-67250150D01*
X252968132Y-67229107D01*
X252982747Y-67209401D01*
X252999223Y-67191223D01*
X253017401Y-67174747D01*
X253037107Y-67160132D01*
X253058150Y-67147520D01*
X253080329Y-67137030D01*
X253103428Y-67128765D01*
X253127227Y-67122804D01*
X253151495Y-67119204D01*
X253175999Y-67118000D01*
X253826001Y-67118000D01*
X253850505Y-67119204D01*
X253850505Y-67119204D01*
G37*
D14*
X253501000Y-67818000D03*
D12*
G36*
X251800505Y-67119204D02*
G01*
X251824773Y-67122804D01*
X251848572Y-67128765D01*
X251871671Y-67137030D01*
X251893850Y-67147520D01*
X251914893Y-67160132D01*
X251934599Y-67174747D01*
X251952777Y-67191223D01*
X251969253Y-67209401D01*
X251983868Y-67229107D01*
X251996480Y-67250150D01*
X252006970Y-67272329D01*
X252015235Y-67295428D01*
X252021196Y-67319227D01*
X252024796Y-67343495D01*
X252026000Y-67367999D01*
X252026000Y-68268001D01*
X252024796Y-68292505D01*
X252021196Y-68316773D01*
X252015235Y-68340572D01*
X252006970Y-68363671D01*
X251996480Y-68385850D01*
X251983868Y-68406893D01*
X251969253Y-68426599D01*
X251952777Y-68444777D01*
X251934599Y-68461253D01*
X251914893Y-68475868D01*
X251893850Y-68488480D01*
X251871671Y-68498970D01*
X251848572Y-68507235D01*
X251824773Y-68513196D01*
X251800505Y-68516796D01*
X251776001Y-68518000D01*
X251125999Y-68518000D01*
X251101495Y-68516796D01*
X251077227Y-68513196D01*
X251053428Y-68507235D01*
X251030329Y-68498970D01*
X251008150Y-68488480D01*
X250987107Y-68475868D01*
X250967401Y-68461253D01*
X250949223Y-68444777D01*
X250932747Y-68426599D01*
X250918132Y-68406893D01*
X250905520Y-68385850D01*
X250895030Y-68363671D01*
X250886765Y-68340572D01*
X250880804Y-68316773D01*
X250877204Y-68292505D01*
X250876000Y-68268001D01*
X250876000Y-67367999D01*
X250877204Y-67343495D01*
X250880804Y-67319227D01*
X250886765Y-67295428D01*
X250895030Y-67272329D01*
X250905520Y-67250150D01*
X250918132Y-67229107D01*
X250932747Y-67209401D01*
X250949223Y-67191223D01*
X250967401Y-67174747D01*
X250987107Y-67160132D01*
X251008150Y-67147520D01*
X251030329Y-67137030D01*
X251053428Y-67128765D01*
X251077227Y-67122804D01*
X251101495Y-67119204D01*
X251125999Y-67118000D01*
X251776001Y-67118000D01*
X251800505Y-67119204D01*
X251800505Y-67119204D01*
G37*
D14*
X251451000Y-67818000D03*
D12*
G36*
X253850505Y-74739204D02*
G01*
X253874773Y-74742804D01*
X253898572Y-74748765D01*
X253921671Y-74757030D01*
X253943850Y-74767520D01*
X253964893Y-74780132D01*
X253984599Y-74794747D01*
X254002777Y-74811223D01*
X254019253Y-74829401D01*
X254033868Y-74849107D01*
X254046480Y-74870150D01*
X254056970Y-74892329D01*
X254065235Y-74915428D01*
X254071196Y-74939227D01*
X254074796Y-74963495D01*
X254076000Y-74987999D01*
X254076000Y-75888001D01*
X254074796Y-75912505D01*
X254071196Y-75936773D01*
X254065235Y-75960572D01*
X254056970Y-75983671D01*
X254046480Y-76005850D01*
X254033868Y-76026893D01*
X254019253Y-76046599D01*
X254002777Y-76064777D01*
X253984599Y-76081253D01*
X253964893Y-76095868D01*
X253943850Y-76108480D01*
X253921671Y-76118970D01*
X253898572Y-76127235D01*
X253874773Y-76133196D01*
X253850505Y-76136796D01*
X253826001Y-76138000D01*
X253175999Y-76138000D01*
X253151495Y-76136796D01*
X253127227Y-76133196D01*
X253103428Y-76127235D01*
X253080329Y-76118970D01*
X253058150Y-76108480D01*
X253037107Y-76095868D01*
X253017401Y-76081253D01*
X252999223Y-76064777D01*
X252982747Y-76046599D01*
X252968132Y-76026893D01*
X252955520Y-76005850D01*
X252945030Y-75983671D01*
X252936765Y-75960572D01*
X252930804Y-75936773D01*
X252927204Y-75912505D01*
X252926000Y-75888001D01*
X252926000Y-74987999D01*
X252927204Y-74963495D01*
X252930804Y-74939227D01*
X252936765Y-74915428D01*
X252945030Y-74892329D01*
X252955520Y-74870150D01*
X252968132Y-74849107D01*
X252982747Y-74829401D01*
X252999223Y-74811223D01*
X253017401Y-74794747D01*
X253037107Y-74780132D01*
X253058150Y-74767520D01*
X253080329Y-74757030D01*
X253103428Y-74748765D01*
X253127227Y-74742804D01*
X253151495Y-74739204D01*
X253175999Y-74738000D01*
X253826001Y-74738000D01*
X253850505Y-74739204D01*
X253850505Y-74739204D01*
G37*
D14*
X253501000Y-75438000D03*
D12*
G36*
X251800505Y-74739204D02*
G01*
X251824773Y-74742804D01*
X251848572Y-74748765D01*
X251871671Y-74757030D01*
X251893850Y-74767520D01*
X251914893Y-74780132D01*
X251934599Y-74794747D01*
X251952777Y-74811223D01*
X251969253Y-74829401D01*
X251983868Y-74849107D01*
X251996480Y-74870150D01*
X252006970Y-74892329D01*
X252015235Y-74915428D01*
X252021196Y-74939227D01*
X252024796Y-74963495D01*
X252026000Y-74987999D01*
X252026000Y-75888001D01*
X252024796Y-75912505D01*
X252021196Y-75936773D01*
X252015235Y-75960572D01*
X252006970Y-75983671D01*
X251996480Y-76005850D01*
X251983868Y-76026893D01*
X251969253Y-76046599D01*
X251952777Y-76064777D01*
X251934599Y-76081253D01*
X251914893Y-76095868D01*
X251893850Y-76108480D01*
X251871671Y-76118970D01*
X251848572Y-76127235D01*
X251824773Y-76133196D01*
X251800505Y-76136796D01*
X251776001Y-76138000D01*
X251125999Y-76138000D01*
X251101495Y-76136796D01*
X251077227Y-76133196D01*
X251053428Y-76127235D01*
X251030329Y-76118970D01*
X251008150Y-76108480D01*
X250987107Y-76095868D01*
X250967401Y-76081253D01*
X250949223Y-76064777D01*
X250932747Y-76046599D01*
X250918132Y-76026893D01*
X250905520Y-76005850D01*
X250895030Y-75983671D01*
X250886765Y-75960572D01*
X250880804Y-75936773D01*
X250877204Y-75912505D01*
X250876000Y-75888001D01*
X250876000Y-74987999D01*
X250877204Y-74963495D01*
X250880804Y-74939227D01*
X250886765Y-74915428D01*
X250895030Y-74892329D01*
X250905520Y-74870150D01*
X250918132Y-74849107D01*
X250932747Y-74829401D01*
X250949223Y-74811223D01*
X250967401Y-74794747D01*
X250987107Y-74780132D01*
X251008150Y-74767520D01*
X251030329Y-74757030D01*
X251053428Y-74748765D01*
X251077227Y-74742804D01*
X251101495Y-74739204D01*
X251125999Y-74738000D01*
X251776001Y-74738000D01*
X251800505Y-74739204D01*
X251800505Y-74739204D01*
G37*
D14*
X251451000Y-75438000D03*
D12*
G36*
X253859505Y-77279204D02*
G01*
X253883773Y-77282804D01*
X253907572Y-77288765D01*
X253930671Y-77297030D01*
X253952850Y-77307520D01*
X253973893Y-77320132D01*
X253993599Y-77334747D01*
X254011777Y-77351223D01*
X254028253Y-77369401D01*
X254042868Y-77389107D01*
X254055480Y-77410150D01*
X254065970Y-77432329D01*
X254074235Y-77455428D01*
X254080196Y-77479227D01*
X254083796Y-77503495D01*
X254085000Y-77527999D01*
X254085000Y-78428001D01*
X254083796Y-78452505D01*
X254080196Y-78476773D01*
X254074235Y-78500572D01*
X254065970Y-78523671D01*
X254055480Y-78545850D01*
X254042868Y-78566893D01*
X254028253Y-78586599D01*
X254011777Y-78604777D01*
X253993599Y-78621253D01*
X253973893Y-78635868D01*
X253952850Y-78648480D01*
X253930671Y-78658970D01*
X253907572Y-78667235D01*
X253883773Y-78673196D01*
X253859505Y-78676796D01*
X253835001Y-78678000D01*
X253184999Y-78678000D01*
X253160495Y-78676796D01*
X253136227Y-78673196D01*
X253112428Y-78667235D01*
X253089329Y-78658970D01*
X253067150Y-78648480D01*
X253046107Y-78635868D01*
X253026401Y-78621253D01*
X253008223Y-78604777D01*
X252991747Y-78586599D01*
X252977132Y-78566893D01*
X252964520Y-78545850D01*
X252954030Y-78523671D01*
X252945765Y-78500572D01*
X252939804Y-78476773D01*
X252936204Y-78452505D01*
X252935000Y-78428001D01*
X252935000Y-77527999D01*
X252936204Y-77503495D01*
X252939804Y-77479227D01*
X252945765Y-77455428D01*
X252954030Y-77432329D01*
X252964520Y-77410150D01*
X252977132Y-77389107D01*
X252991747Y-77369401D01*
X253008223Y-77351223D01*
X253026401Y-77334747D01*
X253046107Y-77320132D01*
X253067150Y-77307520D01*
X253089329Y-77297030D01*
X253112428Y-77288765D01*
X253136227Y-77282804D01*
X253160495Y-77279204D01*
X253184999Y-77278000D01*
X253835001Y-77278000D01*
X253859505Y-77279204D01*
X253859505Y-77279204D01*
G37*
D14*
X253510000Y-77978000D03*
D12*
G36*
X251809505Y-77279204D02*
G01*
X251833773Y-77282804D01*
X251857572Y-77288765D01*
X251880671Y-77297030D01*
X251902850Y-77307520D01*
X251923893Y-77320132D01*
X251943599Y-77334747D01*
X251961777Y-77351223D01*
X251978253Y-77369401D01*
X251992868Y-77389107D01*
X252005480Y-77410150D01*
X252015970Y-77432329D01*
X252024235Y-77455428D01*
X252030196Y-77479227D01*
X252033796Y-77503495D01*
X252035000Y-77527999D01*
X252035000Y-78428001D01*
X252033796Y-78452505D01*
X252030196Y-78476773D01*
X252024235Y-78500572D01*
X252015970Y-78523671D01*
X252005480Y-78545850D01*
X251992868Y-78566893D01*
X251978253Y-78586599D01*
X251961777Y-78604777D01*
X251943599Y-78621253D01*
X251923893Y-78635868D01*
X251902850Y-78648480D01*
X251880671Y-78658970D01*
X251857572Y-78667235D01*
X251833773Y-78673196D01*
X251809505Y-78676796D01*
X251785001Y-78678000D01*
X251134999Y-78678000D01*
X251110495Y-78676796D01*
X251086227Y-78673196D01*
X251062428Y-78667235D01*
X251039329Y-78658970D01*
X251017150Y-78648480D01*
X250996107Y-78635868D01*
X250976401Y-78621253D01*
X250958223Y-78604777D01*
X250941747Y-78586599D01*
X250927132Y-78566893D01*
X250914520Y-78545850D01*
X250904030Y-78523671D01*
X250895765Y-78500572D01*
X250889804Y-78476773D01*
X250886204Y-78452505D01*
X250885000Y-78428001D01*
X250885000Y-77527999D01*
X250886204Y-77503495D01*
X250889804Y-77479227D01*
X250895765Y-77455428D01*
X250904030Y-77432329D01*
X250914520Y-77410150D01*
X250927132Y-77389107D01*
X250941747Y-77369401D01*
X250958223Y-77351223D01*
X250976401Y-77334747D01*
X250996107Y-77320132D01*
X251017150Y-77307520D01*
X251039329Y-77297030D01*
X251062428Y-77288765D01*
X251086227Y-77282804D01*
X251110495Y-77279204D01*
X251134999Y-77278000D01*
X251785001Y-77278000D01*
X251809505Y-77279204D01*
X251809505Y-77279204D01*
G37*
D14*
X251460000Y-77978000D03*
D12*
G36*
X221320505Y-80073204D02*
G01*
X221344773Y-80076804D01*
X221368572Y-80082765D01*
X221391671Y-80091030D01*
X221413850Y-80101520D01*
X221434893Y-80114132D01*
X221454599Y-80128747D01*
X221472777Y-80145223D01*
X221489253Y-80163401D01*
X221503868Y-80183107D01*
X221516480Y-80204150D01*
X221526970Y-80226329D01*
X221535235Y-80249428D01*
X221541196Y-80273227D01*
X221544796Y-80297495D01*
X221546000Y-80321999D01*
X221546000Y-81222001D01*
X221544796Y-81246505D01*
X221541196Y-81270773D01*
X221535235Y-81294572D01*
X221526970Y-81317671D01*
X221516480Y-81339850D01*
X221503868Y-81360893D01*
X221489253Y-81380599D01*
X221472777Y-81398777D01*
X221454599Y-81415253D01*
X221434893Y-81429868D01*
X221413850Y-81442480D01*
X221391671Y-81452970D01*
X221368572Y-81461235D01*
X221344773Y-81467196D01*
X221320505Y-81470796D01*
X221296001Y-81472000D01*
X220645999Y-81472000D01*
X220621495Y-81470796D01*
X220597227Y-81467196D01*
X220573428Y-81461235D01*
X220550329Y-81452970D01*
X220528150Y-81442480D01*
X220507107Y-81429868D01*
X220487401Y-81415253D01*
X220469223Y-81398777D01*
X220452747Y-81380599D01*
X220438132Y-81360893D01*
X220425520Y-81339850D01*
X220415030Y-81317671D01*
X220406765Y-81294572D01*
X220400804Y-81270773D01*
X220397204Y-81246505D01*
X220396000Y-81222001D01*
X220396000Y-80321999D01*
X220397204Y-80297495D01*
X220400804Y-80273227D01*
X220406765Y-80249428D01*
X220415030Y-80226329D01*
X220425520Y-80204150D01*
X220438132Y-80183107D01*
X220452747Y-80163401D01*
X220469223Y-80145223D01*
X220487401Y-80128747D01*
X220507107Y-80114132D01*
X220528150Y-80101520D01*
X220550329Y-80091030D01*
X220573428Y-80082765D01*
X220597227Y-80076804D01*
X220621495Y-80073204D01*
X220645999Y-80072000D01*
X221296001Y-80072000D01*
X221320505Y-80073204D01*
X221320505Y-80073204D01*
G37*
D14*
X220971000Y-80772000D03*
D12*
G36*
X223370505Y-80073204D02*
G01*
X223394773Y-80076804D01*
X223418572Y-80082765D01*
X223441671Y-80091030D01*
X223463850Y-80101520D01*
X223484893Y-80114132D01*
X223504599Y-80128747D01*
X223522777Y-80145223D01*
X223539253Y-80163401D01*
X223553868Y-80183107D01*
X223566480Y-80204150D01*
X223576970Y-80226329D01*
X223585235Y-80249428D01*
X223591196Y-80273227D01*
X223594796Y-80297495D01*
X223596000Y-80321999D01*
X223596000Y-81222001D01*
X223594796Y-81246505D01*
X223591196Y-81270773D01*
X223585235Y-81294572D01*
X223576970Y-81317671D01*
X223566480Y-81339850D01*
X223553868Y-81360893D01*
X223539253Y-81380599D01*
X223522777Y-81398777D01*
X223504599Y-81415253D01*
X223484893Y-81429868D01*
X223463850Y-81442480D01*
X223441671Y-81452970D01*
X223418572Y-81461235D01*
X223394773Y-81467196D01*
X223370505Y-81470796D01*
X223346001Y-81472000D01*
X222695999Y-81472000D01*
X222671495Y-81470796D01*
X222647227Y-81467196D01*
X222623428Y-81461235D01*
X222600329Y-81452970D01*
X222578150Y-81442480D01*
X222557107Y-81429868D01*
X222537401Y-81415253D01*
X222519223Y-81398777D01*
X222502747Y-81380599D01*
X222488132Y-81360893D01*
X222475520Y-81339850D01*
X222465030Y-81317671D01*
X222456765Y-81294572D01*
X222450804Y-81270773D01*
X222447204Y-81246505D01*
X222446000Y-81222001D01*
X222446000Y-80321999D01*
X222447204Y-80297495D01*
X222450804Y-80273227D01*
X222456765Y-80249428D01*
X222465030Y-80226329D01*
X222475520Y-80204150D01*
X222488132Y-80183107D01*
X222502747Y-80163401D01*
X222519223Y-80145223D01*
X222537401Y-80128747D01*
X222557107Y-80114132D01*
X222578150Y-80101520D01*
X222600329Y-80091030D01*
X222623428Y-80082765D01*
X222647227Y-80076804D01*
X222671495Y-80073204D01*
X222695999Y-80072000D01*
X223346001Y-80072000D01*
X223370505Y-80073204D01*
X223370505Y-80073204D01*
G37*
D14*
X223021000Y-80772000D03*
D12*
G36*
X253859505Y-79819204D02*
G01*
X253883773Y-79822804D01*
X253907572Y-79828765D01*
X253930671Y-79837030D01*
X253952850Y-79847520D01*
X253973893Y-79860132D01*
X253993599Y-79874747D01*
X254011777Y-79891223D01*
X254028253Y-79909401D01*
X254042868Y-79929107D01*
X254055480Y-79950150D01*
X254065970Y-79972329D01*
X254074235Y-79995428D01*
X254080196Y-80019227D01*
X254083796Y-80043495D01*
X254085000Y-80067999D01*
X254085000Y-80968001D01*
X254083796Y-80992505D01*
X254080196Y-81016773D01*
X254074235Y-81040572D01*
X254065970Y-81063671D01*
X254055480Y-81085850D01*
X254042868Y-81106893D01*
X254028253Y-81126599D01*
X254011777Y-81144777D01*
X253993599Y-81161253D01*
X253973893Y-81175868D01*
X253952850Y-81188480D01*
X253930671Y-81198970D01*
X253907572Y-81207235D01*
X253883773Y-81213196D01*
X253859505Y-81216796D01*
X253835001Y-81218000D01*
X253184999Y-81218000D01*
X253160495Y-81216796D01*
X253136227Y-81213196D01*
X253112428Y-81207235D01*
X253089329Y-81198970D01*
X253067150Y-81188480D01*
X253046107Y-81175868D01*
X253026401Y-81161253D01*
X253008223Y-81144777D01*
X252991747Y-81126599D01*
X252977132Y-81106893D01*
X252964520Y-81085850D01*
X252954030Y-81063671D01*
X252945765Y-81040572D01*
X252939804Y-81016773D01*
X252936204Y-80992505D01*
X252935000Y-80968001D01*
X252935000Y-80067999D01*
X252936204Y-80043495D01*
X252939804Y-80019227D01*
X252945765Y-79995428D01*
X252954030Y-79972329D01*
X252964520Y-79950150D01*
X252977132Y-79929107D01*
X252991747Y-79909401D01*
X253008223Y-79891223D01*
X253026401Y-79874747D01*
X253046107Y-79860132D01*
X253067150Y-79847520D01*
X253089329Y-79837030D01*
X253112428Y-79828765D01*
X253136227Y-79822804D01*
X253160495Y-79819204D01*
X253184999Y-79818000D01*
X253835001Y-79818000D01*
X253859505Y-79819204D01*
X253859505Y-79819204D01*
G37*
D14*
X253510000Y-80518000D03*
D12*
G36*
X251809505Y-79819204D02*
G01*
X251833773Y-79822804D01*
X251857572Y-79828765D01*
X251880671Y-79837030D01*
X251902850Y-79847520D01*
X251923893Y-79860132D01*
X251943599Y-79874747D01*
X251961777Y-79891223D01*
X251978253Y-79909401D01*
X251992868Y-79929107D01*
X252005480Y-79950150D01*
X252015970Y-79972329D01*
X252024235Y-79995428D01*
X252030196Y-80019227D01*
X252033796Y-80043495D01*
X252035000Y-80067999D01*
X252035000Y-80968001D01*
X252033796Y-80992505D01*
X252030196Y-81016773D01*
X252024235Y-81040572D01*
X252015970Y-81063671D01*
X252005480Y-81085850D01*
X251992868Y-81106893D01*
X251978253Y-81126599D01*
X251961777Y-81144777D01*
X251943599Y-81161253D01*
X251923893Y-81175868D01*
X251902850Y-81188480D01*
X251880671Y-81198970D01*
X251857572Y-81207235D01*
X251833773Y-81213196D01*
X251809505Y-81216796D01*
X251785001Y-81218000D01*
X251134999Y-81218000D01*
X251110495Y-81216796D01*
X251086227Y-81213196D01*
X251062428Y-81207235D01*
X251039329Y-81198970D01*
X251017150Y-81188480D01*
X250996107Y-81175868D01*
X250976401Y-81161253D01*
X250958223Y-81144777D01*
X250941747Y-81126599D01*
X250927132Y-81106893D01*
X250914520Y-81085850D01*
X250904030Y-81063671D01*
X250895765Y-81040572D01*
X250889804Y-81016773D01*
X250886204Y-80992505D01*
X250885000Y-80968001D01*
X250885000Y-80067999D01*
X250886204Y-80043495D01*
X250889804Y-80019227D01*
X250895765Y-79995428D01*
X250904030Y-79972329D01*
X250914520Y-79950150D01*
X250927132Y-79929107D01*
X250941747Y-79909401D01*
X250958223Y-79891223D01*
X250976401Y-79874747D01*
X250996107Y-79860132D01*
X251017150Y-79847520D01*
X251039329Y-79837030D01*
X251062428Y-79828765D01*
X251086227Y-79822804D01*
X251110495Y-79819204D01*
X251134999Y-79818000D01*
X251785001Y-79818000D01*
X251809505Y-79819204D01*
X251809505Y-79819204D01*
G37*
D14*
X251460000Y-80518000D03*
D12*
G36*
X221320505Y-82613204D02*
G01*
X221344773Y-82616804D01*
X221368572Y-82622765D01*
X221391671Y-82631030D01*
X221413850Y-82641520D01*
X221434893Y-82654132D01*
X221454599Y-82668747D01*
X221472777Y-82685223D01*
X221489253Y-82703401D01*
X221503868Y-82723107D01*
X221516480Y-82744150D01*
X221526970Y-82766329D01*
X221535235Y-82789428D01*
X221541196Y-82813227D01*
X221544796Y-82837495D01*
X221546000Y-82861999D01*
X221546000Y-83762001D01*
X221544796Y-83786505D01*
X221541196Y-83810773D01*
X221535235Y-83834572D01*
X221526970Y-83857671D01*
X221516480Y-83879850D01*
X221503868Y-83900893D01*
X221489253Y-83920599D01*
X221472777Y-83938777D01*
X221454599Y-83955253D01*
X221434893Y-83969868D01*
X221413850Y-83982480D01*
X221391671Y-83992970D01*
X221368572Y-84001235D01*
X221344773Y-84007196D01*
X221320505Y-84010796D01*
X221296001Y-84012000D01*
X220645999Y-84012000D01*
X220621495Y-84010796D01*
X220597227Y-84007196D01*
X220573428Y-84001235D01*
X220550329Y-83992970D01*
X220528150Y-83982480D01*
X220507107Y-83969868D01*
X220487401Y-83955253D01*
X220469223Y-83938777D01*
X220452747Y-83920599D01*
X220438132Y-83900893D01*
X220425520Y-83879850D01*
X220415030Y-83857671D01*
X220406765Y-83834572D01*
X220400804Y-83810773D01*
X220397204Y-83786505D01*
X220396000Y-83762001D01*
X220396000Y-82861999D01*
X220397204Y-82837495D01*
X220400804Y-82813227D01*
X220406765Y-82789428D01*
X220415030Y-82766329D01*
X220425520Y-82744150D01*
X220438132Y-82723107D01*
X220452747Y-82703401D01*
X220469223Y-82685223D01*
X220487401Y-82668747D01*
X220507107Y-82654132D01*
X220528150Y-82641520D01*
X220550329Y-82631030D01*
X220573428Y-82622765D01*
X220597227Y-82616804D01*
X220621495Y-82613204D01*
X220645999Y-82612000D01*
X221296001Y-82612000D01*
X221320505Y-82613204D01*
X221320505Y-82613204D01*
G37*
D14*
X220971000Y-83312000D03*
D12*
G36*
X223370505Y-82613204D02*
G01*
X223394773Y-82616804D01*
X223418572Y-82622765D01*
X223441671Y-82631030D01*
X223463850Y-82641520D01*
X223484893Y-82654132D01*
X223504599Y-82668747D01*
X223522777Y-82685223D01*
X223539253Y-82703401D01*
X223553868Y-82723107D01*
X223566480Y-82744150D01*
X223576970Y-82766329D01*
X223585235Y-82789428D01*
X223591196Y-82813227D01*
X223594796Y-82837495D01*
X223596000Y-82861999D01*
X223596000Y-83762001D01*
X223594796Y-83786505D01*
X223591196Y-83810773D01*
X223585235Y-83834572D01*
X223576970Y-83857671D01*
X223566480Y-83879850D01*
X223553868Y-83900893D01*
X223539253Y-83920599D01*
X223522777Y-83938777D01*
X223504599Y-83955253D01*
X223484893Y-83969868D01*
X223463850Y-83982480D01*
X223441671Y-83992970D01*
X223418572Y-84001235D01*
X223394773Y-84007196D01*
X223370505Y-84010796D01*
X223346001Y-84012000D01*
X222695999Y-84012000D01*
X222671495Y-84010796D01*
X222647227Y-84007196D01*
X222623428Y-84001235D01*
X222600329Y-83992970D01*
X222578150Y-83982480D01*
X222557107Y-83969868D01*
X222537401Y-83955253D01*
X222519223Y-83938777D01*
X222502747Y-83920599D01*
X222488132Y-83900893D01*
X222475520Y-83879850D01*
X222465030Y-83857671D01*
X222456765Y-83834572D01*
X222450804Y-83810773D01*
X222447204Y-83786505D01*
X222446000Y-83762001D01*
X222446000Y-82861999D01*
X222447204Y-82837495D01*
X222450804Y-82813227D01*
X222456765Y-82789428D01*
X222465030Y-82766329D01*
X222475520Y-82744150D01*
X222488132Y-82723107D01*
X222502747Y-82703401D01*
X222519223Y-82685223D01*
X222537401Y-82668747D01*
X222557107Y-82654132D01*
X222578150Y-82641520D01*
X222600329Y-82631030D01*
X222623428Y-82622765D01*
X222647227Y-82616804D01*
X222671495Y-82613204D01*
X222695999Y-82612000D01*
X223346001Y-82612000D01*
X223370505Y-82613204D01*
X223370505Y-82613204D01*
G37*
D14*
X223021000Y-83312000D03*
M02*
