M48
; DRILL file {KiCad 5.1.4} date Mon 25 Nov 2019 12:39:29 AM CET
; FORMAT={-:-/ absolute / metric / decimal}
; #@! TF.CreationDate,2019-11-25T00:39:29+01:00
; #@! TF.GenerationSoftware,Kicad,Pcbnew,5.1.4
; #@! TF.FileFunction,Plated,1,2,PTH
FMAT,2
METRIC
T1C0.400
T2C0.750
T3C0.800
T4C1.000
T5C1.100
%
G90
G05
T1
X170.942Y-51.562
X185.928Y-51.562
X191.77Y-39.624
X194.818Y-90.424
X195.966Y-69.85
X196.691Y-57.343
X198.374Y-76.454
X198.471Y-74.793
X198.755Y-49.784
X200.152Y-43.434
X201.24Y-69.922
X202.565Y-48.641
X202.946Y-43.434
X203.962Y-47.371
X208.159Y-71.794
X209.042Y-72.263
X210.274Y-72.699
X210.947Y-39.243
X210.947Y-43.18
X211.963Y-71.247
X215.646Y-71.12
X215.646Y-73.66
X216.916Y-61.722
X218.313Y-48.768
X218.437Y-51.054
X219.805Y-52.419
X222.123Y-32.131
X225.044Y-52.324
X225.298Y-46.482
X226.568Y-50.8
X227.33Y-48.006
X228.256Y-78.486
X229.108Y-82.042
X231.394Y-78.486
X246.127Y-46.735
T2
X199.834Y-57.213
X201.105Y-57.213
X202.374Y-57.213
X199.834Y-52.451
X201.105Y-52.451
X202.374Y-52.451
X222.25Y-94.742
X222.25Y-96.012
X222.25Y-97.282
X243.776Y-63.627
X243.776Y-64.897
X243.776Y-66.167
X228.981Y-58.039
X228.981Y-59.309
X228.981Y-60.579
X243.776Y-74.803
X243.776Y-76.073
X243.776Y-77.343
X228.981Y-69.215
X228.981Y-70.485
X228.981Y-71.755
X199.771Y-63.563
X199.771Y-64.834
X199.771Y-66.103
X228.981Y-74.803
X228.981Y-76.073
X228.981Y-77.343
X244.348Y-91.186
X244.348Y-92.456
X244.348Y-93.726
X243.776Y-52.451
X243.776Y-53.721
X243.776Y-54.991
X204.597Y-63.563
X204.597Y-64.834
X204.597Y-66.103
X166.37Y-69.088
X167.64Y-69.088
X168.91Y-69.088
X236.982Y-94.742
X236.982Y-96.012
X236.982Y-97.282
X228.981Y-52.451
X228.981Y-53.721
X228.981Y-54.991
X228.981Y-63.627
X228.981Y-64.897
X228.981Y-66.167
X166.37Y-73.914
X167.64Y-73.914
X168.91Y-73.914
X243.776Y-58.039
X243.776Y-59.309
X243.776Y-60.579
X215.138Y-91.186
X215.138Y-92.456
X215.138Y-93.726
X243.776Y-69.215
X243.776Y-70.485
X243.776Y-71.755
X228.981Y-46.863
X228.981Y-48.133
X228.981Y-49.403
X243.776Y-46.863
X243.776Y-48.133
X243.776Y-49.403
T3
X221.655Y-48.768
X224.155Y-48.768
X234.275Y-67.691
X239.275Y-67.691
X212.915Y-54.165
X212.915Y-56.706
X212.915Y-59.245
X212.915Y-61.785
X212.915Y-64.325
X212.915Y-66.865
X212.915Y-69.406
X220.535Y-54.165
X220.535Y-56.706
X220.535Y-59.245
X220.535Y-61.785
X220.535Y-64.325
X220.535Y-66.865
X220.535Y-69.406
X234.315Y-73.406
X239.315Y-73.406
X192.786Y-49.53
X195.286Y-49.53
X190.829Y-85.635
X190.829Y-88.175
X190.829Y-90.715
X190.829Y-93.255
X198.45Y-85.635
X198.45Y-88.175
X198.45Y-90.715
X198.45Y-93.255
X217.678Y-89.408
X225.298Y-89.408
X172.212Y-67.31
X172.212Y-74.93
X174.752Y-67.31
X174.752Y-74.93
X177.292Y-67.31
X177.292Y-74.93
X179.832Y-67.31
X179.832Y-74.93
X182.372Y-67.31
X182.372Y-74.93
X184.912Y-67.31
X184.912Y-74.93
X187.452Y-67.31
X187.452Y-74.93
X242.57Y-40.069
X242.57Y-42.569
X234.268Y-62.23
X239.268Y-62.23
X182.372Y-78.994
X184.912Y-78.994
X187.452Y-78.994
X233.934Y-89.408
X241.554Y-89.408
X192.024Y-66.04
X192.024Y-68.58
X192.024Y-71.12
X234.268Y-56.642
X239.268Y-56.642
T4
X209.55Y-90.678
X209.55Y-93.218
X170.942Y-37.592
X173.442Y-32.592
X175.942Y-37.592
X168.91Y-54.864
X171.41Y-49.864
X173.91Y-54.864
X176.022Y-44.196
X176.022Y-46.736
X178.562Y-44.196
X178.562Y-46.736
X181.102Y-44.196
X181.102Y-46.736
X239.856Y-31.242
X242.356Y-36.242
X244.856Y-31.242
X178.054Y-37.592
X180.554Y-32.592
X183.054Y-37.592
X204.851Y-59.499
X207.351Y-54.499
X209.851Y-59.499
X210.82Y-74.168
X210.82Y-76.708
X213.36Y-74.168
X213.36Y-76.708
X228.346Y-85.09
X228.346Y-87.63
X228.346Y-90.17
X228.346Y-92.71
X228.346Y-95.25
X228.346Y-97.79
X230.886Y-85.09
X230.886Y-87.63
X230.886Y-90.17
X230.886Y-92.71
X230.886Y-95.25
X230.886Y-97.79
X185.166Y-37.592
X187.666Y-32.592
X190.166Y-37.592
X208.153Y-35.306
X210.693Y-35.306
X216.662Y-43.18
X219.162Y-38.18
X221.662Y-43.18
X233.934Y-39.878
X233.934Y-42.418
X236.474Y-39.878
X236.474Y-42.418
X232.49Y-31.242
X234.99Y-36.242
X237.49Y-31.242
X216.662Y-35.331
X219.162Y-30.331
X221.662Y-35.331
X176.022Y-54.864
X178.522Y-49.864
X181.022Y-54.864
X192.024Y-76.2
X192.024Y-78.74
X194.564Y-76.2
X194.564Y-78.74
X225.124Y-31.242
X227.624Y-36.242
X230.124Y-31.242
X207.01Y-45.466
X209.51Y-40.466
X212.01Y-45.466
X167.132Y-59.817
X167.132Y-62.357
X167.132Y-64.897
X169.672Y-59.817
X169.672Y-62.357
X169.672Y-64.897
X172.212Y-59.817
X172.212Y-62.357
X172.212Y-64.897
X174.752Y-59.817
X174.752Y-62.357
X174.752Y-64.897
X177.292Y-59.817
X177.292Y-62.357
X177.292Y-64.897
X179.832Y-59.817
X179.832Y-62.357
X179.832Y-64.897
X182.372Y-59.817
X182.372Y-62.357
X182.372Y-64.897
X184.912Y-59.817
X184.912Y-62.357
X184.912Y-64.897
X187.452Y-59.817
X187.452Y-62.357
X187.452Y-64.897
X201.422Y-85.852
X201.422Y-90.852
X206.422Y-88.352
X183.134Y-54.864
X185.634Y-49.864
X188.134Y-54.864
X214.63Y-97.028
X217.17Y-97.028
X191.596Y-55.372
X194.096Y-60.372
X196.596Y-55.372
X197.612Y-80.518
X200.112Y-75.518
X202.612Y-80.518
X165.354Y-34.29
X165.354Y-36.83
X167.894Y-34.29
X167.894Y-36.83
X201.422Y-93.218
X201.422Y-98.218
X206.422Y-95.718
X199.644Y-37.592
X202.144Y-32.592
X204.644Y-37.592
X199.644Y-45.466
X202.144Y-40.466
X204.644Y-45.466
X184.912Y-88.138
X184.912Y-90.678
X187.452Y-88.138
X187.452Y-90.678
X242.062Y-97.028
X244.602Y-97.028
X193.802Y-33.274
X193.802Y-35.814
X196.342Y-33.274
X196.342Y-35.814
X188.722Y-42.164
X191.262Y-42.164
X193.802Y-42.164
X196.342Y-42.164
X223.854Y-41.188
X228.854Y-38.688
X228.854Y-43.688
T5
X234.188Y-86.36
X244.348Y-86.36
X214.884Y-86.36
X225.044Y-86.36
T0
M30
