G04 #@! TF.GenerationSoftware,KiCad,Pcbnew,(5.1.2)-2*
G04 #@! TF.CreationDate,2019-08-12T05:37:21+02:00*
G04 #@! TF.ProjectId,vco_mk1,76636f5f-6d6b-4312-9e6b-696361645f70,rev?*
G04 #@! TF.SameCoordinates,Original*
G04 #@! TF.FileFunction,Soldermask,Bot*
G04 #@! TF.FilePolarity,Negative*
%FSLAX46Y46*%
G04 Gerber Fmt 4.6, Leading zero omitted, Abs format (unit mm)*
G04 Created by KiCad (PCBNEW (5.1.2)-2) date 2019-08-12 05:37:21*
%MOMM*%
%LPD*%
G04 APERTURE LIST*
%ADD10C,0.100000*%
G04 APERTURE END LIST*
D10*
G36*
X187006999Y-136513737D02*
G01*
X187016608Y-136516652D01*
X187025472Y-136521390D01*
X187033237Y-136527763D01*
X187039610Y-136535528D01*
X187044348Y-136544392D01*
X187047263Y-136554001D01*
X187049047Y-136572119D01*
X187053827Y-136596153D01*
X187063204Y-136618791D01*
X187076818Y-136639166D01*
X187094145Y-136656493D01*
X187114519Y-136670107D01*
X187137158Y-136679484D01*
X187161191Y-136684265D01*
X187185695Y-136684265D01*
X187209729Y-136679485D01*
X187232367Y-136670108D01*
X187252742Y-136656494D01*
X187275564Y-136631953D01*
X187341097Y-136539114D01*
X187351702Y-136526847D01*
X187358710Y-136521390D01*
X187359629Y-136520674D01*
X187367255Y-136516846D01*
X187368605Y-136516168D01*
X187368607Y-136516167D01*
X187368608Y-136516167D01*
X187378293Y-136513498D01*
X187379073Y-136513283D01*
X187392338Y-136512148D01*
X188080860Y-136512148D01*
X188106864Y-136514709D01*
X188111539Y-136515639D01*
X188123793Y-136516241D01*
X188164175Y-136516241D01*
X188186455Y-136518435D01*
X188337836Y-136548547D01*
X188359255Y-136555045D01*
X188501854Y-136614111D01*
X188521599Y-136624665D01*
X188649936Y-136710417D01*
X188667241Y-136724618D01*
X188776382Y-136833759D01*
X188790583Y-136851064D01*
X188876335Y-136979401D01*
X188886889Y-136999146D01*
X188945955Y-137141745D01*
X188952453Y-137163164D01*
X188982565Y-137314545D01*
X188984759Y-137336825D01*
X188984759Y-137491175D01*
X188982565Y-137513455D01*
X188952453Y-137664836D01*
X188945955Y-137686255D01*
X188886889Y-137828854D01*
X188876335Y-137848599D01*
X188790583Y-137976936D01*
X188776382Y-137994241D01*
X188667241Y-138103382D01*
X188649936Y-138117583D01*
X188521599Y-138203335D01*
X188501854Y-138213889D01*
X188359255Y-138272955D01*
X188337836Y-138279453D01*
X188186455Y-138309565D01*
X188164175Y-138311759D01*
X188123793Y-138311759D01*
X188109263Y-138313190D01*
X188109250Y-138313056D01*
X188080860Y-138315852D01*
X187393140Y-138315852D01*
X187377001Y-138314263D01*
X187367392Y-138311348D01*
X187358528Y-138306610D01*
X187350135Y-138299722D01*
X187341561Y-138289543D01*
X187275310Y-138195687D01*
X187259285Y-138177150D01*
X187239951Y-138162095D01*
X187218052Y-138151101D01*
X187194428Y-138144591D01*
X187169989Y-138142814D01*
X187145672Y-138145840D01*
X187122413Y-138153551D01*
X187101105Y-138165652D01*
X187082568Y-138181677D01*
X187067513Y-138201011D01*
X187056519Y-138222910D01*
X187048520Y-138258710D01*
X187047503Y-138272704D01*
X187044832Y-138282395D01*
X187044223Y-138283608D01*
X187040326Y-138291371D01*
X187037239Y-138295334D01*
X187034153Y-138299298D01*
X187026554Y-138305867D01*
X187017819Y-138310828D01*
X187013504Y-138312258D01*
X187008282Y-138313990D01*
X186997000Y-138315247D01*
X186995483Y-138315247D01*
X186990055Y-138315852D01*
X184703140Y-138315852D01*
X184687001Y-138314263D01*
X184677392Y-138311348D01*
X184668528Y-138306610D01*
X184660763Y-138300237D01*
X184654390Y-138292472D01*
X184649652Y-138283608D01*
X184646737Y-138273999D01*
X184645148Y-138257860D01*
X184645148Y-136570140D01*
X184646737Y-136554001D01*
X184649652Y-136544392D01*
X184654390Y-136535528D01*
X184660763Y-136527763D01*
X184668528Y-136521390D01*
X184677392Y-136516652D01*
X184687001Y-136513737D01*
X184703140Y-136512148D01*
X186990860Y-136512148D01*
X187006999Y-136513737D01*
X187006999Y-136513737D01*
G37*
G36*
X179971000Y-138315000D02*
G01*
X178169000Y-138315000D01*
X178169000Y-136513000D01*
X179971000Y-136513000D01*
X179971000Y-138315000D01*
X179971000Y-138315000D01*
G37*
G36*
X206612443Y-135884519D02*
G01*
X206678627Y-135891037D01*
X206848466Y-135942557D01*
X207004991Y-136026222D01*
X207040729Y-136055552D01*
X207142186Y-136138814D01*
X207225448Y-136240271D01*
X207254778Y-136276009D01*
X207338443Y-136432534D01*
X207389963Y-136602373D01*
X207407359Y-136779000D01*
X207389963Y-136955627D01*
X207338443Y-137125466D01*
X207254778Y-137281991D01*
X207228061Y-137314545D01*
X207142186Y-137419186D01*
X207054466Y-137491175D01*
X207004991Y-137531778D01*
X206848466Y-137615443D01*
X206678627Y-137666963D01*
X206612443Y-137673481D01*
X206546260Y-137680000D01*
X206457740Y-137680000D01*
X206391557Y-137673481D01*
X206325373Y-137666963D01*
X206155534Y-137615443D01*
X205999009Y-137531778D01*
X205949534Y-137491175D01*
X205861814Y-137419186D01*
X205775939Y-137314545D01*
X205749222Y-137281991D01*
X205665557Y-137125466D01*
X205614037Y-136955627D01*
X205596641Y-136779000D01*
X205614037Y-136602373D01*
X205665557Y-136432534D01*
X205749222Y-136276009D01*
X205778552Y-136240271D01*
X205861814Y-136138814D01*
X205963271Y-136055552D01*
X205999009Y-136026222D01*
X206155534Y-135942557D01*
X206325373Y-135891037D01*
X206391557Y-135884519D01*
X206457740Y-135878000D01*
X206546260Y-135878000D01*
X206612443Y-135884519D01*
X206612443Y-135884519D01*
G37*
G36*
X204072443Y-135884519D02*
G01*
X204138627Y-135891037D01*
X204308466Y-135942557D01*
X204464991Y-136026222D01*
X204500729Y-136055552D01*
X204602186Y-136138814D01*
X204685448Y-136240271D01*
X204714778Y-136276009D01*
X204798443Y-136432534D01*
X204849963Y-136602373D01*
X204867359Y-136779000D01*
X204849963Y-136955627D01*
X204798443Y-137125466D01*
X204714778Y-137281991D01*
X204688061Y-137314545D01*
X204602186Y-137419186D01*
X204514466Y-137491175D01*
X204464991Y-137531778D01*
X204308466Y-137615443D01*
X204138627Y-137666963D01*
X204072443Y-137673481D01*
X204006260Y-137680000D01*
X203917740Y-137680000D01*
X203851557Y-137673481D01*
X203785373Y-137666963D01*
X203615534Y-137615443D01*
X203459009Y-137531778D01*
X203409534Y-137491175D01*
X203321814Y-137419186D01*
X203235939Y-137314545D01*
X203209222Y-137281991D01*
X203125557Y-137125466D01*
X203074037Y-136955627D01*
X203056641Y-136779000D01*
X203074037Y-136602373D01*
X203125557Y-136432534D01*
X203209222Y-136276009D01*
X203238552Y-136240271D01*
X203321814Y-136138814D01*
X203423271Y-136055552D01*
X203459009Y-136026222D01*
X203615534Y-135942557D01*
X203785373Y-135891037D01*
X203851557Y-135884519D01*
X203917740Y-135878000D01*
X204006260Y-135878000D01*
X204072443Y-135884519D01*
X204072443Y-135884519D01*
G37*
G36*
X204072442Y-133344518D02*
G01*
X204138627Y-133351037D01*
X204308466Y-133402557D01*
X204464991Y-133486222D01*
X204500729Y-133515552D01*
X204602186Y-133598814D01*
X204685448Y-133700271D01*
X204714778Y-133736009D01*
X204798443Y-133892534D01*
X204849963Y-134062373D01*
X204867359Y-134239000D01*
X204849963Y-134415627D01*
X204798443Y-134585466D01*
X204714778Y-134741991D01*
X204685448Y-134777729D01*
X204602186Y-134879186D01*
X204500729Y-134962448D01*
X204464991Y-134991778D01*
X204308466Y-135075443D01*
X204138627Y-135126963D01*
X204072443Y-135133481D01*
X204006260Y-135140000D01*
X203917740Y-135140000D01*
X203851557Y-135133481D01*
X203785373Y-135126963D01*
X203615534Y-135075443D01*
X203459009Y-134991778D01*
X203423271Y-134962448D01*
X203321814Y-134879186D01*
X203238552Y-134777729D01*
X203209222Y-134741991D01*
X203125557Y-134585466D01*
X203074037Y-134415627D01*
X203056641Y-134239000D01*
X203074037Y-134062373D01*
X203125557Y-133892534D01*
X203209222Y-133736009D01*
X203238552Y-133700271D01*
X203321814Y-133598814D01*
X203423271Y-133515552D01*
X203459009Y-133486222D01*
X203615534Y-133402557D01*
X203785373Y-133351037D01*
X203851558Y-133344518D01*
X203917740Y-133338000D01*
X204006260Y-133338000D01*
X204072442Y-133344518D01*
X204072442Y-133344518D01*
G37*
G36*
X206612442Y-133344518D02*
G01*
X206678627Y-133351037D01*
X206848466Y-133402557D01*
X207004991Y-133486222D01*
X207040729Y-133515552D01*
X207142186Y-133598814D01*
X207225448Y-133700271D01*
X207254778Y-133736009D01*
X207338443Y-133892534D01*
X207389963Y-134062373D01*
X207407359Y-134239000D01*
X207389963Y-134415627D01*
X207338443Y-134585466D01*
X207254778Y-134741991D01*
X207225448Y-134777729D01*
X207142186Y-134879186D01*
X207040729Y-134962448D01*
X207004991Y-134991778D01*
X206848466Y-135075443D01*
X206678627Y-135126963D01*
X206612443Y-135133481D01*
X206546260Y-135140000D01*
X206457740Y-135140000D01*
X206391557Y-135133481D01*
X206325373Y-135126963D01*
X206155534Y-135075443D01*
X205999009Y-134991778D01*
X205963271Y-134962448D01*
X205861814Y-134879186D01*
X205778552Y-134777729D01*
X205749222Y-134741991D01*
X205665557Y-134585466D01*
X205614037Y-134415627D01*
X205596641Y-134239000D01*
X205614037Y-134062373D01*
X205665557Y-133892534D01*
X205749222Y-133736009D01*
X205778552Y-133700271D01*
X205861814Y-133598814D01*
X205963271Y-133515552D01*
X205999009Y-133486222D01*
X206155534Y-133402557D01*
X206325373Y-133351037D01*
X206391558Y-133344518D01*
X206457740Y-133338000D01*
X206546260Y-133338000D01*
X206612442Y-133344518D01*
X206612442Y-133344518D01*
G37*
G36*
X206612442Y-130804518D02*
G01*
X206678627Y-130811037D01*
X206848466Y-130862557D01*
X207004991Y-130946222D01*
X207040729Y-130975552D01*
X207142186Y-131058814D01*
X207225448Y-131160271D01*
X207254778Y-131196009D01*
X207338443Y-131352534D01*
X207389963Y-131522373D01*
X207407359Y-131699000D01*
X207389963Y-131875627D01*
X207338443Y-132045466D01*
X207254778Y-132201991D01*
X207225448Y-132237729D01*
X207142186Y-132339186D01*
X207040729Y-132422448D01*
X207004991Y-132451778D01*
X206848466Y-132535443D01*
X206678627Y-132586963D01*
X206612442Y-132593482D01*
X206546260Y-132600000D01*
X206457740Y-132600000D01*
X206391558Y-132593482D01*
X206325373Y-132586963D01*
X206155534Y-132535443D01*
X205999009Y-132451778D01*
X205963271Y-132422448D01*
X205861814Y-132339186D01*
X205778552Y-132237729D01*
X205749222Y-132201991D01*
X205665557Y-132045466D01*
X205614037Y-131875627D01*
X205596641Y-131699000D01*
X205614037Y-131522373D01*
X205665557Y-131352534D01*
X205749222Y-131196009D01*
X205778552Y-131160271D01*
X205861814Y-131058814D01*
X205963271Y-130975552D01*
X205999009Y-130946222D01*
X206155534Y-130862557D01*
X206325373Y-130811037D01*
X206391558Y-130804518D01*
X206457740Y-130798000D01*
X206546260Y-130798000D01*
X206612442Y-130804518D01*
X206612442Y-130804518D01*
G37*
G36*
X204072442Y-130804518D02*
G01*
X204138627Y-130811037D01*
X204308466Y-130862557D01*
X204464991Y-130946222D01*
X204500729Y-130975552D01*
X204602186Y-131058814D01*
X204685448Y-131160271D01*
X204714778Y-131196009D01*
X204798443Y-131352534D01*
X204849963Y-131522373D01*
X204867359Y-131699000D01*
X204849963Y-131875627D01*
X204798443Y-132045466D01*
X204714778Y-132201991D01*
X204685448Y-132237729D01*
X204602186Y-132339186D01*
X204500729Y-132422448D01*
X204464991Y-132451778D01*
X204308466Y-132535443D01*
X204138627Y-132586963D01*
X204072442Y-132593482D01*
X204006260Y-132600000D01*
X203917740Y-132600000D01*
X203851558Y-132593482D01*
X203785373Y-132586963D01*
X203615534Y-132535443D01*
X203459009Y-132451778D01*
X203423271Y-132422448D01*
X203321814Y-132339186D01*
X203238552Y-132237729D01*
X203209222Y-132201991D01*
X203125557Y-132045466D01*
X203074037Y-131875627D01*
X203056641Y-131699000D01*
X203074037Y-131522373D01*
X203125557Y-131352534D01*
X203209222Y-131196009D01*
X203238552Y-131160271D01*
X203321814Y-131058814D01*
X203423271Y-130975552D01*
X203459009Y-130946222D01*
X203615534Y-130862557D01*
X203785373Y-130811037D01*
X203851558Y-130804518D01*
X203917740Y-130798000D01*
X204006260Y-130798000D01*
X204072442Y-130804518D01*
X204072442Y-130804518D01*
G37*
G36*
X168974000Y-132019000D02*
G01*
X167322000Y-132019000D01*
X167322000Y-130367000D01*
X168974000Y-130367000D01*
X168974000Y-132019000D01*
X168974000Y-132019000D01*
G37*
G36*
X163388935Y-130398742D02*
G01*
X163539258Y-130461008D01*
X163674545Y-130551404D01*
X163789596Y-130666455D01*
X163879992Y-130801742D01*
X163942258Y-130952065D01*
X163974000Y-131111646D01*
X163974000Y-131274354D01*
X163942258Y-131433935D01*
X163879992Y-131584258D01*
X163789596Y-131719545D01*
X163674545Y-131834596D01*
X163539258Y-131924992D01*
X163388935Y-131987258D01*
X163229354Y-132019000D01*
X163066646Y-132019000D01*
X162907065Y-131987258D01*
X162756742Y-131924992D01*
X162621455Y-131834596D01*
X162506404Y-131719545D01*
X162416008Y-131584258D01*
X162353742Y-131433935D01*
X162322000Y-131274354D01*
X162322000Y-131111646D01*
X162353742Y-130952065D01*
X162416008Y-130801742D01*
X162506404Y-130666455D01*
X162621455Y-130551404D01*
X162756742Y-130461008D01*
X162907065Y-130398742D01*
X163066646Y-130367000D01*
X163229354Y-130367000D01*
X163388935Y-130398742D01*
X163388935Y-130398742D01*
G37*
G36*
X179896000Y-132017000D02*
G01*
X178244000Y-132017000D01*
X178244000Y-130365000D01*
X179896000Y-130365000D01*
X179896000Y-132017000D01*
X179896000Y-132017000D01*
G37*
G36*
X174310935Y-130396742D02*
G01*
X174461258Y-130459008D01*
X174596545Y-130549404D01*
X174711596Y-130664455D01*
X174801992Y-130799742D01*
X174864258Y-130950065D01*
X174896000Y-131109646D01*
X174896000Y-131272354D01*
X174864258Y-131431935D01*
X174801992Y-131582258D01*
X174711596Y-131717545D01*
X174596545Y-131832596D01*
X174461258Y-131922992D01*
X174310935Y-131985258D01*
X174151354Y-132017000D01*
X173988646Y-132017000D01*
X173829065Y-131985258D01*
X173678742Y-131922992D01*
X173543455Y-131832596D01*
X173428404Y-131717545D01*
X173338008Y-131582258D01*
X173275742Y-131431935D01*
X173244000Y-131272354D01*
X173244000Y-131109646D01*
X173275742Y-130950065D01*
X173338008Y-130799742D01*
X173428404Y-130664455D01*
X173543455Y-130549404D01*
X173678742Y-130459008D01*
X173829065Y-130396742D01*
X173988646Y-130365000D01*
X174151354Y-130365000D01*
X174310935Y-130396742D01*
X174310935Y-130396742D01*
G37*
G36*
X206612443Y-128264519D02*
G01*
X206678627Y-128271037D01*
X206848466Y-128322557D01*
X207004991Y-128406222D01*
X207040729Y-128435552D01*
X207142186Y-128518814D01*
X207225448Y-128620271D01*
X207254778Y-128656009D01*
X207338443Y-128812534D01*
X207389963Y-128982373D01*
X207407359Y-129159000D01*
X207389963Y-129335627D01*
X207338443Y-129505466D01*
X207254778Y-129661991D01*
X207225448Y-129697729D01*
X207142186Y-129799186D01*
X207040729Y-129882448D01*
X207004991Y-129911778D01*
X206848466Y-129995443D01*
X206678627Y-130046963D01*
X206612442Y-130053482D01*
X206546260Y-130060000D01*
X206457740Y-130060000D01*
X206391558Y-130053482D01*
X206325373Y-130046963D01*
X206155534Y-129995443D01*
X205999009Y-129911778D01*
X205963271Y-129882448D01*
X205861814Y-129799186D01*
X205778552Y-129697729D01*
X205749222Y-129661991D01*
X205665557Y-129505466D01*
X205614037Y-129335627D01*
X205596641Y-129159000D01*
X205614037Y-128982373D01*
X205665557Y-128812534D01*
X205749222Y-128656009D01*
X205778552Y-128620271D01*
X205861814Y-128518814D01*
X205963271Y-128435552D01*
X205999009Y-128406222D01*
X206155534Y-128322557D01*
X206325373Y-128271037D01*
X206391557Y-128264519D01*
X206457740Y-128258000D01*
X206546260Y-128258000D01*
X206612443Y-128264519D01*
X206612443Y-128264519D01*
G37*
G36*
X204072443Y-128264519D02*
G01*
X204138627Y-128271037D01*
X204308466Y-128322557D01*
X204464991Y-128406222D01*
X204500729Y-128435552D01*
X204602186Y-128518814D01*
X204685448Y-128620271D01*
X204714778Y-128656009D01*
X204798443Y-128812534D01*
X204849963Y-128982373D01*
X204867359Y-129159000D01*
X204849963Y-129335627D01*
X204798443Y-129505466D01*
X204714778Y-129661991D01*
X204685448Y-129697729D01*
X204602186Y-129799186D01*
X204500729Y-129882448D01*
X204464991Y-129911778D01*
X204308466Y-129995443D01*
X204138627Y-130046963D01*
X204072442Y-130053482D01*
X204006260Y-130060000D01*
X203917740Y-130060000D01*
X203851558Y-130053482D01*
X203785373Y-130046963D01*
X203615534Y-129995443D01*
X203459009Y-129911778D01*
X203423271Y-129882448D01*
X203321814Y-129799186D01*
X203238552Y-129697729D01*
X203209222Y-129661991D01*
X203125557Y-129505466D01*
X203074037Y-129335627D01*
X203056641Y-129159000D01*
X203074037Y-128982373D01*
X203125557Y-128812534D01*
X203209222Y-128656009D01*
X203238552Y-128620271D01*
X203321814Y-128518814D01*
X203423271Y-128435552D01*
X203459009Y-128406222D01*
X203615534Y-128322557D01*
X203785373Y-128271037D01*
X203851557Y-128264519D01*
X203917740Y-128258000D01*
X204006260Y-128258000D01*
X204072443Y-128264519D01*
X204072443Y-128264519D01*
G37*
G36*
X192062823Y-127941313D02*
G01*
X192223242Y-127989976D01*
X192355906Y-128060886D01*
X192371078Y-128068996D01*
X192500659Y-128175341D01*
X192607004Y-128304922D01*
X192607005Y-128304924D01*
X192686024Y-128452758D01*
X192734687Y-128613177D01*
X192751117Y-128780000D01*
X192734687Y-128946823D01*
X192686024Y-129107242D01*
X192615114Y-129239906D01*
X192607004Y-129255078D01*
X192500659Y-129384659D01*
X192371078Y-129491004D01*
X192371076Y-129491005D01*
X192223242Y-129570024D01*
X192062823Y-129618687D01*
X191937804Y-129631000D01*
X191854196Y-129631000D01*
X191729177Y-129618687D01*
X191568758Y-129570024D01*
X191420924Y-129491005D01*
X191420922Y-129491004D01*
X191291341Y-129384659D01*
X191184996Y-129255078D01*
X191176886Y-129239906D01*
X191105976Y-129107242D01*
X191057313Y-128946823D01*
X191040883Y-128780000D01*
X191057313Y-128613177D01*
X191105976Y-128452758D01*
X191184995Y-128304924D01*
X191184996Y-128304922D01*
X191291341Y-128175341D01*
X191420922Y-128068996D01*
X191436094Y-128060886D01*
X191568758Y-127989976D01*
X191729177Y-127941313D01*
X191854196Y-127929000D01*
X191937804Y-127929000D01*
X192062823Y-127941313D01*
X192062823Y-127941313D01*
G37*
G36*
X184442823Y-127941313D02*
G01*
X184603242Y-127989976D01*
X184735906Y-128060886D01*
X184751078Y-128068996D01*
X184880659Y-128175341D01*
X184987004Y-128304922D01*
X184987005Y-128304924D01*
X185066024Y-128452758D01*
X185114687Y-128613177D01*
X185131117Y-128780000D01*
X185114687Y-128946823D01*
X185066024Y-129107242D01*
X184995114Y-129239906D01*
X184987004Y-129255078D01*
X184880659Y-129384659D01*
X184751078Y-129491004D01*
X184751076Y-129491005D01*
X184603242Y-129570024D01*
X184442823Y-129618687D01*
X184317804Y-129631000D01*
X184234196Y-129631000D01*
X184109177Y-129618687D01*
X183948758Y-129570024D01*
X183800924Y-129491005D01*
X183800922Y-129491004D01*
X183671341Y-129384659D01*
X183564996Y-129255078D01*
X183556886Y-129239906D01*
X183485976Y-129107242D01*
X183437313Y-128946823D01*
X183420883Y-128780000D01*
X183437313Y-128613177D01*
X183485976Y-128452758D01*
X183564995Y-128304924D01*
X183564996Y-128304922D01*
X183671341Y-128175341D01*
X183800922Y-128068996D01*
X183816094Y-128060886D01*
X183948758Y-127989976D01*
X184109177Y-127941313D01*
X184234196Y-127929000D01*
X184317804Y-127929000D01*
X184442823Y-127941313D01*
X184442823Y-127941313D01*
G37*
G36*
X206612443Y-125724519D02*
G01*
X206678627Y-125731037D01*
X206848466Y-125782557D01*
X207004991Y-125866222D01*
X207040729Y-125895552D01*
X207142186Y-125978814D01*
X207225448Y-126080271D01*
X207254778Y-126116009D01*
X207338443Y-126272534D01*
X207389963Y-126442373D01*
X207407359Y-126619000D01*
X207389963Y-126795627D01*
X207338443Y-126965466D01*
X207254778Y-127121991D01*
X207225448Y-127157729D01*
X207142186Y-127259186D01*
X207040729Y-127342448D01*
X207004991Y-127371778D01*
X206848466Y-127455443D01*
X206678627Y-127506963D01*
X206612442Y-127513482D01*
X206546260Y-127520000D01*
X206457740Y-127520000D01*
X206391558Y-127513482D01*
X206325373Y-127506963D01*
X206155534Y-127455443D01*
X205999009Y-127371778D01*
X205963271Y-127342448D01*
X205861814Y-127259186D01*
X205778552Y-127157729D01*
X205749222Y-127121991D01*
X205665557Y-126965466D01*
X205614037Y-126795627D01*
X205596641Y-126619000D01*
X205614037Y-126442373D01*
X205665557Y-126272534D01*
X205749222Y-126116009D01*
X205778552Y-126080271D01*
X205861814Y-125978814D01*
X205963271Y-125895552D01*
X205999009Y-125866222D01*
X206155534Y-125782557D01*
X206325373Y-125731037D01*
X206391557Y-125724519D01*
X206457740Y-125718000D01*
X206546260Y-125718000D01*
X206612443Y-125724519D01*
X206612443Y-125724519D01*
G37*
G36*
X204072443Y-125724519D02*
G01*
X204138627Y-125731037D01*
X204308466Y-125782557D01*
X204464991Y-125866222D01*
X204500729Y-125895552D01*
X204602186Y-125978814D01*
X204685448Y-126080271D01*
X204714778Y-126116009D01*
X204798443Y-126272534D01*
X204849963Y-126442373D01*
X204867359Y-126619000D01*
X204849963Y-126795627D01*
X204798443Y-126965466D01*
X204714778Y-127121991D01*
X204685448Y-127157729D01*
X204602186Y-127259186D01*
X204500729Y-127342448D01*
X204464991Y-127371778D01*
X204308466Y-127455443D01*
X204138627Y-127506963D01*
X204072442Y-127513482D01*
X204006260Y-127520000D01*
X203917740Y-127520000D01*
X203851558Y-127513482D01*
X203785373Y-127506963D01*
X203615534Y-127455443D01*
X203459009Y-127371778D01*
X203423271Y-127342448D01*
X203321814Y-127259186D01*
X203238552Y-127157729D01*
X203209222Y-127121991D01*
X203125557Y-126965466D01*
X203074037Y-126795627D01*
X203056641Y-126619000D01*
X203074037Y-126442373D01*
X203125557Y-126272534D01*
X203209222Y-126116009D01*
X203238552Y-126080271D01*
X203321814Y-125978814D01*
X203423271Y-125895552D01*
X203459009Y-125866222D01*
X203615534Y-125782557D01*
X203785373Y-125731037D01*
X203851557Y-125724519D01*
X203917740Y-125718000D01*
X204006260Y-125718000D01*
X204072443Y-125724519D01*
X204072443Y-125724519D01*
G37*
G36*
X184442823Y-125401313D02*
G01*
X184603242Y-125449976D01*
X184735906Y-125520886D01*
X184751078Y-125528996D01*
X184880659Y-125635341D01*
X184987004Y-125764922D01*
X184987005Y-125764924D01*
X185066024Y-125912758D01*
X185114687Y-126073177D01*
X185131117Y-126240000D01*
X185114687Y-126406823D01*
X185066024Y-126567242D01*
X184995114Y-126699906D01*
X184987004Y-126715078D01*
X184880659Y-126844659D01*
X184751078Y-126951004D01*
X184751076Y-126951005D01*
X184603242Y-127030024D01*
X184442823Y-127078687D01*
X184317804Y-127091000D01*
X184234196Y-127091000D01*
X184109177Y-127078687D01*
X183948758Y-127030024D01*
X183800924Y-126951005D01*
X183800922Y-126951004D01*
X183671341Y-126844659D01*
X183564996Y-126715078D01*
X183556886Y-126699906D01*
X183485976Y-126567242D01*
X183437313Y-126406823D01*
X183420883Y-126240000D01*
X183437313Y-126073177D01*
X183485976Y-125912758D01*
X183564995Y-125764924D01*
X183564996Y-125764922D01*
X183671341Y-125635341D01*
X183800922Y-125528996D01*
X183816094Y-125520886D01*
X183948758Y-125449976D01*
X184109177Y-125401313D01*
X184234196Y-125389000D01*
X184317804Y-125389000D01*
X184442823Y-125401313D01*
X184442823Y-125401313D01*
G37*
G36*
X192062823Y-125401313D02*
G01*
X192223242Y-125449976D01*
X192355906Y-125520886D01*
X192371078Y-125528996D01*
X192500659Y-125635341D01*
X192607004Y-125764922D01*
X192607005Y-125764924D01*
X192686024Y-125912758D01*
X192734687Y-126073177D01*
X192751117Y-126240000D01*
X192734687Y-126406823D01*
X192686024Y-126567242D01*
X192615114Y-126699906D01*
X192607004Y-126715078D01*
X192500659Y-126844659D01*
X192371078Y-126951004D01*
X192371076Y-126951005D01*
X192223242Y-127030024D01*
X192062823Y-127078687D01*
X191937804Y-127091000D01*
X191854196Y-127091000D01*
X191729177Y-127078687D01*
X191568758Y-127030024D01*
X191420924Y-126951005D01*
X191420922Y-126951004D01*
X191291341Y-126844659D01*
X191184996Y-126715078D01*
X191176886Y-126699906D01*
X191105976Y-126567242D01*
X191057313Y-126406823D01*
X191040883Y-126240000D01*
X191057313Y-126073177D01*
X191105976Y-125912758D01*
X191184995Y-125764924D01*
X191184996Y-125764922D01*
X191291341Y-125635341D01*
X191420922Y-125528996D01*
X191436094Y-125520886D01*
X191568758Y-125449976D01*
X191729177Y-125401313D01*
X191854196Y-125389000D01*
X191937804Y-125389000D01*
X192062823Y-125401313D01*
X192062823Y-125401313D01*
G37*
G36*
X165888935Y-125398742D02*
G01*
X166039258Y-125461008D01*
X166174545Y-125551404D01*
X166289596Y-125666455D01*
X166379992Y-125801742D01*
X166442258Y-125952065D01*
X166474000Y-126111646D01*
X166474000Y-126274354D01*
X166442258Y-126433935D01*
X166379992Y-126584258D01*
X166289596Y-126719545D01*
X166174545Y-126834596D01*
X166039258Y-126924992D01*
X165888935Y-126987258D01*
X165729354Y-127019000D01*
X165566646Y-127019000D01*
X165407065Y-126987258D01*
X165256742Y-126924992D01*
X165121455Y-126834596D01*
X165006404Y-126719545D01*
X164916008Y-126584258D01*
X164853742Y-126433935D01*
X164822000Y-126274354D01*
X164822000Y-126111646D01*
X164853742Y-125952065D01*
X164916008Y-125801742D01*
X165006404Y-125666455D01*
X165121455Y-125551404D01*
X165256742Y-125461008D01*
X165407065Y-125398742D01*
X165566646Y-125367000D01*
X165729354Y-125367000D01*
X165888935Y-125398742D01*
X165888935Y-125398742D01*
G37*
G36*
X176810935Y-125396742D02*
G01*
X176961258Y-125459008D01*
X177096545Y-125549404D01*
X177211596Y-125664455D01*
X177301992Y-125799742D01*
X177364258Y-125950065D01*
X177396000Y-126109646D01*
X177396000Y-126272354D01*
X177364258Y-126431935D01*
X177301992Y-126582258D01*
X177211596Y-126717545D01*
X177096545Y-126832596D01*
X176961258Y-126922992D01*
X176810935Y-126985258D01*
X176651354Y-127017000D01*
X176488646Y-127017000D01*
X176329065Y-126985258D01*
X176178742Y-126922992D01*
X176043455Y-126832596D01*
X175928404Y-126717545D01*
X175838008Y-126582258D01*
X175775742Y-126431935D01*
X175744000Y-126272354D01*
X175744000Y-126109646D01*
X175775742Y-125950065D01*
X175838008Y-125799742D01*
X175928404Y-125664455D01*
X176043455Y-125549404D01*
X176178742Y-125459008D01*
X176329065Y-125396742D01*
X176488646Y-125365000D01*
X176651354Y-125365000D01*
X176810935Y-125396742D01*
X176810935Y-125396742D01*
G37*
G36*
X206612442Y-123184518D02*
G01*
X206678627Y-123191037D01*
X206848466Y-123242557D01*
X207004991Y-123326222D01*
X207040729Y-123355552D01*
X207142186Y-123438814D01*
X207225448Y-123540271D01*
X207254778Y-123576009D01*
X207338443Y-123732534D01*
X207389963Y-123902373D01*
X207407359Y-124079000D01*
X207389963Y-124255627D01*
X207339191Y-124423000D01*
X207338442Y-124425468D01*
X207329280Y-124442608D01*
X207254778Y-124581991D01*
X207225448Y-124617729D01*
X207142186Y-124719186D01*
X207040729Y-124802448D01*
X207004991Y-124831778D01*
X206848466Y-124915443D01*
X206678627Y-124966963D01*
X206612443Y-124973481D01*
X206546260Y-124980000D01*
X206457740Y-124980000D01*
X206391557Y-124973481D01*
X206325373Y-124966963D01*
X206155534Y-124915443D01*
X205999009Y-124831778D01*
X205963271Y-124802448D01*
X205861814Y-124719186D01*
X205778552Y-124617729D01*
X205749222Y-124581991D01*
X205674720Y-124442608D01*
X205665558Y-124425468D01*
X205664809Y-124423000D01*
X205614037Y-124255627D01*
X205596641Y-124079000D01*
X205614037Y-123902373D01*
X205665557Y-123732534D01*
X205749222Y-123576009D01*
X205778552Y-123540271D01*
X205861814Y-123438814D01*
X205963271Y-123355552D01*
X205999009Y-123326222D01*
X206155534Y-123242557D01*
X206325373Y-123191037D01*
X206391558Y-123184518D01*
X206457740Y-123178000D01*
X206546260Y-123178000D01*
X206612442Y-123184518D01*
X206612442Y-123184518D01*
G37*
G36*
X204072442Y-123184518D02*
G01*
X204138627Y-123191037D01*
X204308466Y-123242557D01*
X204464991Y-123326222D01*
X204500729Y-123355552D01*
X204602186Y-123438814D01*
X204685448Y-123540271D01*
X204714778Y-123576009D01*
X204798443Y-123732534D01*
X204849963Y-123902373D01*
X204867359Y-124079000D01*
X204849963Y-124255627D01*
X204799191Y-124423000D01*
X204798442Y-124425468D01*
X204789280Y-124442608D01*
X204714778Y-124581991D01*
X204685448Y-124617729D01*
X204602186Y-124719186D01*
X204500729Y-124802448D01*
X204464991Y-124831778D01*
X204308466Y-124915443D01*
X204138627Y-124966963D01*
X204072443Y-124973481D01*
X204006260Y-124980000D01*
X203917740Y-124980000D01*
X203851557Y-124973481D01*
X203785373Y-124966963D01*
X203615534Y-124915443D01*
X203459009Y-124831778D01*
X203423271Y-124802448D01*
X203321814Y-124719186D01*
X203238552Y-124617729D01*
X203209222Y-124581991D01*
X203134720Y-124442608D01*
X203125558Y-124425468D01*
X203124809Y-124423000D01*
X203074037Y-124255627D01*
X203056641Y-124079000D01*
X203074037Y-123902373D01*
X203125557Y-123732534D01*
X203209222Y-123576009D01*
X203238552Y-123540271D01*
X203321814Y-123438814D01*
X203423271Y-123355552D01*
X203459009Y-123326222D01*
X203615534Y-123242557D01*
X203785373Y-123191037D01*
X203851558Y-123184518D01*
X203917740Y-123178000D01*
X204006260Y-123178000D01*
X204072442Y-123184518D01*
X204072442Y-123184518D01*
G37*
G36*
X184442823Y-122861313D02*
G01*
X184603242Y-122909976D01*
X184735906Y-122980886D01*
X184751078Y-122988996D01*
X184880659Y-123095341D01*
X184987004Y-123224922D01*
X184987005Y-123224924D01*
X185066024Y-123372758D01*
X185114687Y-123533177D01*
X185131117Y-123700000D01*
X185114687Y-123866823D01*
X185066024Y-124027242D01*
X184995114Y-124159906D01*
X184987004Y-124175078D01*
X184880659Y-124304659D01*
X184751078Y-124411004D01*
X184751076Y-124411005D01*
X184603242Y-124490024D01*
X184442823Y-124538687D01*
X184317804Y-124551000D01*
X184234196Y-124551000D01*
X184109177Y-124538687D01*
X183948758Y-124490024D01*
X183800924Y-124411005D01*
X183800922Y-124411004D01*
X183671341Y-124304659D01*
X183564996Y-124175078D01*
X183556886Y-124159906D01*
X183485976Y-124027242D01*
X183437313Y-123866823D01*
X183420883Y-123700000D01*
X183437313Y-123533177D01*
X183485976Y-123372758D01*
X183564995Y-123224924D01*
X183564996Y-123224922D01*
X183671341Y-123095341D01*
X183800922Y-122988996D01*
X183816094Y-122980886D01*
X183948758Y-122909976D01*
X184109177Y-122861313D01*
X184234196Y-122849000D01*
X184317804Y-122849000D01*
X184442823Y-122861313D01*
X184442823Y-122861313D01*
G37*
G36*
X192062823Y-122861313D02*
G01*
X192223242Y-122909976D01*
X192355906Y-122980886D01*
X192371078Y-122988996D01*
X192500659Y-123095341D01*
X192607004Y-123224922D01*
X192607005Y-123224924D01*
X192686024Y-123372758D01*
X192734687Y-123533177D01*
X192751117Y-123700000D01*
X192734687Y-123866823D01*
X192686024Y-124027242D01*
X192615114Y-124159906D01*
X192607004Y-124175078D01*
X192500659Y-124304659D01*
X192371078Y-124411004D01*
X192371076Y-124411005D01*
X192223242Y-124490024D01*
X192062823Y-124538687D01*
X191937804Y-124551000D01*
X191854196Y-124551000D01*
X191729177Y-124538687D01*
X191568758Y-124490024D01*
X191420924Y-124411005D01*
X191420922Y-124411004D01*
X191291341Y-124304659D01*
X191184996Y-124175078D01*
X191176886Y-124159906D01*
X191105976Y-124027242D01*
X191057313Y-123866823D01*
X191040883Y-123700000D01*
X191057313Y-123533177D01*
X191105976Y-123372758D01*
X191184995Y-123224924D01*
X191184996Y-123224922D01*
X191291341Y-123095341D01*
X191420922Y-122988996D01*
X191436094Y-122980886D01*
X191568758Y-122909976D01*
X191729177Y-122861313D01*
X191854196Y-122849000D01*
X191937804Y-122849000D01*
X192062823Y-122861313D01*
X192062823Y-122861313D01*
G37*
G36*
X163167455Y-117597435D02*
G01*
X163318836Y-117627547D01*
X163340255Y-117634045D01*
X163482854Y-117693111D01*
X163502599Y-117703665D01*
X163630936Y-117789417D01*
X163648241Y-117803618D01*
X163757382Y-117912759D01*
X163771583Y-117930064D01*
X163857335Y-118058401D01*
X163867889Y-118078146D01*
X163926955Y-118220745D01*
X163933453Y-118242164D01*
X163963565Y-118393545D01*
X163965759Y-118415825D01*
X163965759Y-118456207D01*
X163967190Y-118470737D01*
X163967056Y-118470750D01*
X163969852Y-118499140D01*
X163969852Y-119186860D01*
X163968263Y-119202999D01*
X163965348Y-119212608D01*
X163960610Y-119221472D01*
X163953722Y-119229865D01*
X163943543Y-119238439D01*
X163849687Y-119304690D01*
X163831150Y-119320715D01*
X163816095Y-119340049D01*
X163805101Y-119361948D01*
X163798591Y-119385572D01*
X163796814Y-119410011D01*
X163799840Y-119434328D01*
X163807551Y-119457587D01*
X163819652Y-119478895D01*
X163835677Y-119497432D01*
X163855011Y-119512487D01*
X163876910Y-119523481D01*
X163912710Y-119531480D01*
X163926704Y-119532497D01*
X163927578Y-119532738D01*
X163936392Y-119535167D01*
X163936393Y-119535167D01*
X163936395Y-119535168D01*
X163940900Y-119537430D01*
X163945371Y-119539674D01*
X163946290Y-119540390D01*
X163953298Y-119545847D01*
X163959867Y-119553446D01*
X163964828Y-119562181D01*
X163965228Y-119563389D01*
X163967990Y-119571718D01*
X163969247Y-119583000D01*
X163969247Y-119584517D01*
X163969852Y-119589945D01*
X163969852Y-121726860D01*
X163968263Y-121742999D01*
X163965348Y-121752608D01*
X163960610Y-121761472D01*
X163953722Y-121769865D01*
X163943543Y-121778439D01*
X163849687Y-121844690D01*
X163831150Y-121860715D01*
X163816095Y-121880049D01*
X163805101Y-121901948D01*
X163798591Y-121925572D01*
X163796814Y-121950011D01*
X163799840Y-121974328D01*
X163807551Y-121997587D01*
X163819652Y-122018895D01*
X163835677Y-122037432D01*
X163855011Y-122052487D01*
X163876910Y-122063481D01*
X163912710Y-122071480D01*
X163926704Y-122072497D01*
X163927578Y-122072738D01*
X163936392Y-122075167D01*
X163936393Y-122075167D01*
X163936395Y-122075168D01*
X163940900Y-122077430D01*
X163945371Y-122079674D01*
X163946290Y-122080390D01*
X163953298Y-122085847D01*
X163959867Y-122093446D01*
X163964828Y-122102181D01*
X163964828Y-122102182D01*
X163967990Y-122111718D01*
X163969247Y-122123000D01*
X163969247Y-122124517D01*
X163969852Y-122129945D01*
X163969852Y-124416860D01*
X163968263Y-124432999D01*
X163965348Y-124442608D01*
X163960610Y-124451472D01*
X163954237Y-124459237D01*
X163946472Y-124465610D01*
X163937608Y-124470348D01*
X163927999Y-124473263D01*
X163911860Y-124474852D01*
X162224140Y-124474852D01*
X162208001Y-124473263D01*
X162198392Y-124470348D01*
X162189528Y-124465610D01*
X162181763Y-124459237D01*
X162175390Y-124451472D01*
X162170652Y-124442608D01*
X162167737Y-124432999D01*
X162166148Y-124416860D01*
X162166148Y-122129140D01*
X162167737Y-122113001D01*
X162170652Y-122103392D01*
X162175390Y-122094528D01*
X162181763Y-122086763D01*
X162189528Y-122080390D01*
X162198392Y-122075652D01*
X162208001Y-122072737D01*
X162226119Y-122070953D01*
X162250153Y-122066173D01*
X162272791Y-122056796D01*
X162293166Y-122043182D01*
X162310493Y-122025855D01*
X162324107Y-122005481D01*
X162333484Y-121982842D01*
X162338265Y-121958809D01*
X162338265Y-121934305D01*
X162333485Y-121910271D01*
X162324108Y-121887633D01*
X162310494Y-121867258D01*
X162285953Y-121844436D01*
X162193114Y-121778903D01*
X162180847Y-121768298D01*
X162177760Y-121764334D01*
X162174674Y-121760371D01*
X162170777Y-121752608D01*
X162170168Y-121751395D01*
X162167283Y-121740927D01*
X162166148Y-121727662D01*
X162166148Y-119589140D01*
X162167737Y-119573001D01*
X162170652Y-119563392D01*
X162175390Y-119554528D01*
X162181763Y-119546763D01*
X162189528Y-119540390D01*
X162198392Y-119535652D01*
X162208001Y-119532737D01*
X162226119Y-119530953D01*
X162250153Y-119526173D01*
X162272791Y-119516796D01*
X162293166Y-119503182D01*
X162310493Y-119485855D01*
X162324107Y-119465481D01*
X162333484Y-119442842D01*
X162338265Y-119418809D01*
X162338265Y-119394305D01*
X162333485Y-119370271D01*
X162324108Y-119347633D01*
X162310494Y-119327258D01*
X162285953Y-119304436D01*
X162193114Y-119238903D01*
X162180847Y-119228298D01*
X162177760Y-119224334D01*
X162174674Y-119220371D01*
X162170777Y-119212608D01*
X162170168Y-119211395D01*
X162167283Y-119200927D01*
X162166148Y-119187662D01*
X162166148Y-118499140D01*
X162168709Y-118473136D01*
X162169639Y-118468461D01*
X162170241Y-118456207D01*
X162170241Y-118415825D01*
X162172435Y-118393545D01*
X162202547Y-118242164D01*
X162209045Y-118220745D01*
X162268111Y-118078146D01*
X162278665Y-118058401D01*
X162364417Y-117930064D01*
X162378618Y-117912759D01*
X162487759Y-117803618D01*
X162505064Y-117789417D01*
X162633401Y-117703665D01*
X162653146Y-117693111D01*
X162795745Y-117634045D01*
X162817164Y-117627547D01*
X162968545Y-117597435D01*
X162990825Y-117595241D01*
X163145175Y-117595241D01*
X163167455Y-117597435D01*
X163167455Y-117597435D01*
G37*
G36*
X204863000Y-122440000D02*
G01*
X203061000Y-122440000D01*
X203061000Y-120638000D01*
X204863000Y-120638000D01*
X204863000Y-122440000D01*
X204863000Y-122440000D01*
G37*
G36*
X206612443Y-120644519D02*
G01*
X206678627Y-120651037D01*
X206848466Y-120702557D01*
X206848468Y-120702558D01*
X206872671Y-120715495D01*
X207004991Y-120786222D01*
X207040729Y-120815552D01*
X207142186Y-120898814D01*
X207225448Y-121000271D01*
X207254778Y-121036009D01*
X207338443Y-121192534D01*
X207389963Y-121362373D01*
X207407359Y-121539000D01*
X207389963Y-121715627D01*
X207338443Y-121885466D01*
X207254778Y-122041991D01*
X207237141Y-122063481D01*
X207142186Y-122179186D01*
X207040729Y-122262448D01*
X207004991Y-122291778D01*
X206848466Y-122375443D01*
X206678627Y-122426963D01*
X206612443Y-122433481D01*
X206546260Y-122440000D01*
X206457740Y-122440000D01*
X206391557Y-122433481D01*
X206325373Y-122426963D01*
X206155534Y-122375443D01*
X205999009Y-122291778D01*
X205963271Y-122262448D01*
X205861814Y-122179186D01*
X205766859Y-122063481D01*
X205749222Y-122041991D01*
X205665557Y-121885466D01*
X205614037Y-121715627D01*
X205596641Y-121539000D01*
X205614037Y-121362373D01*
X205665557Y-121192534D01*
X205749222Y-121036009D01*
X205778552Y-121000271D01*
X205861814Y-120898814D01*
X205963271Y-120815552D01*
X205999009Y-120786222D01*
X206131329Y-120715495D01*
X206155532Y-120702558D01*
X206155534Y-120702557D01*
X206325373Y-120651037D01*
X206391557Y-120644519D01*
X206457740Y-120638000D01*
X206546260Y-120638000D01*
X206612443Y-120644519D01*
X206612443Y-120644519D01*
G37*
G36*
X192062823Y-120321313D02*
G01*
X192223242Y-120369976D01*
X192271929Y-120396000D01*
X192371078Y-120448996D01*
X192500659Y-120555341D01*
X192607004Y-120684922D01*
X192607005Y-120684924D01*
X192686024Y-120832758D01*
X192734687Y-120993177D01*
X192751117Y-121160000D01*
X192734687Y-121326823D01*
X192686024Y-121487242D01*
X192615114Y-121619906D01*
X192607004Y-121635078D01*
X192500659Y-121764659D01*
X192371078Y-121871004D01*
X192371076Y-121871005D01*
X192223242Y-121950024D01*
X192062823Y-121998687D01*
X191937804Y-122011000D01*
X191854196Y-122011000D01*
X191729177Y-121998687D01*
X191568758Y-121950024D01*
X191420924Y-121871005D01*
X191420922Y-121871004D01*
X191291341Y-121764659D01*
X191184996Y-121635078D01*
X191176886Y-121619906D01*
X191105976Y-121487242D01*
X191057313Y-121326823D01*
X191040883Y-121160000D01*
X191057313Y-120993177D01*
X191105976Y-120832758D01*
X191184995Y-120684924D01*
X191184996Y-120684922D01*
X191291341Y-120555341D01*
X191420922Y-120448996D01*
X191520071Y-120396000D01*
X191568758Y-120369976D01*
X191729177Y-120321313D01*
X191854196Y-120309000D01*
X191937804Y-120309000D01*
X192062823Y-120321313D01*
X192062823Y-120321313D01*
G37*
G36*
X184442823Y-120321313D02*
G01*
X184603242Y-120369976D01*
X184651929Y-120396000D01*
X184751078Y-120448996D01*
X184880659Y-120555341D01*
X184987004Y-120684922D01*
X184987005Y-120684924D01*
X185066024Y-120832758D01*
X185114687Y-120993177D01*
X185131117Y-121160000D01*
X185114687Y-121326823D01*
X185066024Y-121487242D01*
X184995114Y-121619906D01*
X184987004Y-121635078D01*
X184880659Y-121764659D01*
X184751078Y-121871004D01*
X184751076Y-121871005D01*
X184603242Y-121950024D01*
X184442823Y-121998687D01*
X184317804Y-122011000D01*
X184234196Y-122011000D01*
X184109177Y-121998687D01*
X183948758Y-121950024D01*
X183800924Y-121871005D01*
X183800922Y-121871004D01*
X183671341Y-121764659D01*
X183564996Y-121635078D01*
X183556886Y-121619906D01*
X183485976Y-121487242D01*
X183437313Y-121326823D01*
X183420883Y-121160000D01*
X183437313Y-120993177D01*
X183485976Y-120832758D01*
X183564995Y-120684924D01*
X183564996Y-120684922D01*
X183671341Y-120555341D01*
X183800922Y-120448996D01*
X183900071Y-120396000D01*
X183948758Y-120369976D01*
X184109177Y-120321313D01*
X184234196Y-120309000D01*
X184317804Y-120309000D01*
X184442823Y-120321313D01*
X184442823Y-120321313D01*
G37*
G36*
X170927915Y-119476334D02*
G01*
X171036491Y-119509271D01*
X171036494Y-119509272D01*
X171068113Y-119526173D01*
X171136556Y-119562756D01*
X171224264Y-119634736D01*
X171296244Y-119722443D01*
X171330429Y-119786399D01*
X171349728Y-119822505D01*
X171349729Y-119822508D01*
X171382666Y-119931084D01*
X171391000Y-120015702D01*
X171391000Y-120522297D01*
X171382666Y-120606916D01*
X171350252Y-120713767D01*
X171349728Y-120715495D01*
X171339761Y-120734141D01*
X171296244Y-120815557D01*
X171224264Y-120903264D01*
X171136557Y-120975244D01*
X171072601Y-121009429D01*
X171036495Y-121028728D01*
X171036492Y-121028729D01*
X170927916Y-121061666D01*
X170815000Y-121072787D01*
X170702085Y-121061666D01*
X170593509Y-121028729D01*
X170593506Y-121028728D01*
X170557400Y-121009429D01*
X170493444Y-120975244D01*
X170405737Y-120903264D01*
X170333757Y-120815557D01*
X170290239Y-120734141D01*
X170276625Y-120713766D01*
X170259298Y-120696439D01*
X170238924Y-120682826D01*
X170216285Y-120673448D01*
X170192252Y-120668668D01*
X170167748Y-120668668D01*
X170143715Y-120673448D01*
X170121076Y-120682826D01*
X170100701Y-120696440D01*
X170083374Y-120713767D01*
X170069761Y-120734141D01*
X170026244Y-120815557D01*
X169954264Y-120903264D01*
X169866557Y-120975244D01*
X169802601Y-121009429D01*
X169766495Y-121028728D01*
X169766492Y-121028729D01*
X169657916Y-121061666D01*
X169545000Y-121072787D01*
X169432085Y-121061666D01*
X169323509Y-121028729D01*
X169323506Y-121028728D01*
X169287400Y-121009429D01*
X169223444Y-120975244D01*
X169135737Y-120903264D01*
X169072622Y-120826359D01*
X169055297Y-120809034D01*
X169034923Y-120795420D01*
X169012284Y-120786043D01*
X168988250Y-120781263D01*
X168963746Y-120781263D01*
X168939713Y-120786044D01*
X168917074Y-120795421D01*
X168896700Y-120809035D01*
X168879373Y-120826362D01*
X168865759Y-120846736D01*
X168856382Y-120869375D01*
X168851000Y-120905660D01*
X168851000Y-121070000D01*
X167699000Y-121070000D01*
X167699000Y-119468000D01*
X168851000Y-119468000D01*
X168851000Y-119632341D01*
X168853402Y-119656727D01*
X168860515Y-119680176D01*
X168872066Y-119701787D01*
X168887611Y-119720729D01*
X168906553Y-119736274D01*
X168928164Y-119747825D01*
X168951613Y-119754938D01*
X168975999Y-119757340D01*
X169000385Y-119754938D01*
X169023834Y-119747825D01*
X169045445Y-119736274D01*
X169064387Y-119720729D01*
X169072608Y-119711657D01*
X169135736Y-119634736D01*
X169223443Y-119562756D01*
X169291886Y-119526173D01*
X169323505Y-119509272D01*
X169323508Y-119509271D01*
X169432084Y-119476334D01*
X169545000Y-119465213D01*
X169657915Y-119476334D01*
X169766491Y-119509271D01*
X169766494Y-119509272D01*
X169798113Y-119526173D01*
X169866556Y-119562756D01*
X169954264Y-119634736D01*
X170026244Y-119722443D01*
X170066247Y-119797285D01*
X170069761Y-119803859D01*
X170083375Y-119824234D01*
X170100702Y-119841561D01*
X170121076Y-119855174D01*
X170143715Y-119864552D01*
X170167748Y-119869332D01*
X170192252Y-119869332D01*
X170216285Y-119864552D01*
X170238924Y-119855174D01*
X170259299Y-119841560D01*
X170276626Y-119824233D01*
X170290239Y-119803860D01*
X170333756Y-119722444D01*
X170405736Y-119634736D01*
X170493443Y-119562756D01*
X170561886Y-119526173D01*
X170593505Y-119509272D01*
X170593508Y-119509271D01*
X170702084Y-119476334D01*
X170815000Y-119465213D01*
X170927915Y-119476334D01*
X170927915Y-119476334D01*
G37*
G36*
X196635000Y-118432000D02*
G01*
X196470660Y-118432000D01*
X196446274Y-118434402D01*
X196422825Y-118441515D01*
X196401214Y-118453066D01*
X196382272Y-118468611D01*
X196366727Y-118487553D01*
X196355176Y-118509164D01*
X196348063Y-118532613D01*
X196345661Y-118556999D01*
X196348063Y-118581385D01*
X196355176Y-118604834D01*
X196366727Y-118626445D01*
X196382272Y-118645387D01*
X196391345Y-118653609D01*
X196468264Y-118716736D01*
X196540244Y-118804443D01*
X196574429Y-118868399D01*
X196593728Y-118904505D01*
X196593729Y-118904508D01*
X196626666Y-119013084D01*
X196637787Y-119126000D01*
X196626666Y-119238916D01*
X196598730Y-119331005D01*
X196593728Y-119347495D01*
X196581554Y-119370271D01*
X196540244Y-119447557D01*
X196468264Y-119535264D01*
X196380557Y-119607244D01*
X196329120Y-119634737D01*
X196299141Y-119650761D01*
X196278766Y-119664375D01*
X196261439Y-119681702D01*
X196247826Y-119702076D01*
X196238448Y-119724715D01*
X196233668Y-119748748D01*
X196233668Y-119773252D01*
X196238448Y-119797285D01*
X196247826Y-119819924D01*
X196261440Y-119840299D01*
X196278767Y-119857626D01*
X196299141Y-119871239D01*
X196380557Y-119914756D01*
X196468264Y-119986736D01*
X196540244Y-120074443D01*
X196574429Y-120138399D01*
X196593728Y-120174505D01*
X196593729Y-120174508D01*
X196626666Y-120283084D01*
X196637787Y-120396000D01*
X196626666Y-120508916D01*
X196596938Y-120606914D01*
X196593728Y-120617495D01*
X196575799Y-120651037D01*
X196540244Y-120717557D01*
X196468264Y-120805264D01*
X196380557Y-120877244D01*
X196316601Y-120911429D01*
X196280495Y-120930728D01*
X196280492Y-120930729D01*
X196171916Y-120963666D01*
X196087298Y-120972000D01*
X195580702Y-120972000D01*
X195496084Y-120963666D01*
X195387508Y-120930729D01*
X195387505Y-120930728D01*
X195351399Y-120911429D01*
X195287443Y-120877244D01*
X195199736Y-120805264D01*
X195127756Y-120717557D01*
X195092201Y-120651037D01*
X195074272Y-120617495D01*
X195071062Y-120606914D01*
X195041334Y-120508916D01*
X195030213Y-120396000D01*
X195041334Y-120283084D01*
X195074271Y-120174508D01*
X195074272Y-120174505D01*
X195093571Y-120138399D01*
X195127756Y-120074443D01*
X195199736Y-119986736D01*
X195287443Y-119914756D01*
X195368859Y-119871239D01*
X195389234Y-119857625D01*
X195406561Y-119840298D01*
X195420174Y-119819924D01*
X195429552Y-119797285D01*
X195434332Y-119773252D01*
X195434332Y-119748748D01*
X195429552Y-119724715D01*
X195420174Y-119702076D01*
X195406560Y-119681701D01*
X195389233Y-119664374D01*
X195368859Y-119650761D01*
X195338880Y-119634737D01*
X195287443Y-119607244D01*
X195199736Y-119535264D01*
X195127756Y-119447557D01*
X195086446Y-119370271D01*
X195074272Y-119347495D01*
X195069270Y-119331005D01*
X195041334Y-119238916D01*
X195030213Y-119126000D01*
X195041334Y-119013084D01*
X195074271Y-118904508D01*
X195074272Y-118904505D01*
X195093571Y-118868399D01*
X195127756Y-118804443D01*
X195199736Y-118716736D01*
X195276646Y-118653617D01*
X195293965Y-118636298D01*
X195307579Y-118615923D01*
X195316957Y-118593284D01*
X195321737Y-118569251D01*
X195321737Y-118544747D01*
X195316957Y-118520714D01*
X195307579Y-118498075D01*
X195293966Y-118477701D01*
X195276639Y-118460374D01*
X195256264Y-118446760D01*
X195233625Y-118437382D01*
X195209592Y-118432602D01*
X195197340Y-118432000D01*
X195033000Y-118432000D01*
X195033000Y-117280000D01*
X196635000Y-117280000D01*
X196635000Y-118432000D01*
X196635000Y-118432000D01*
G37*
G36*
X192062823Y-117781313D02*
G01*
X192223242Y-117829976D01*
X192355906Y-117900886D01*
X192371078Y-117908996D01*
X192500659Y-118015341D01*
X192607004Y-118144922D01*
X192607005Y-118144924D01*
X192686024Y-118292758D01*
X192734687Y-118453177D01*
X192751117Y-118620000D01*
X192734687Y-118786823D01*
X192686024Y-118947242D01*
X192615114Y-119079906D01*
X192607004Y-119095078D01*
X192500659Y-119224659D01*
X192371078Y-119331004D01*
X192371076Y-119331005D01*
X192223242Y-119410024D01*
X192062823Y-119458687D01*
X191937804Y-119471000D01*
X191854196Y-119471000D01*
X191729177Y-119458687D01*
X191568758Y-119410024D01*
X191420924Y-119331005D01*
X191420922Y-119331004D01*
X191291341Y-119224659D01*
X191184996Y-119095078D01*
X191176886Y-119079906D01*
X191105976Y-118947242D01*
X191057313Y-118786823D01*
X191040883Y-118620000D01*
X191057313Y-118453177D01*
X191105976Y-118292758D01*
X191184995Y-118144924D01*
X191184996Y-118144922D01*
X191291341Y-118015341D01*
X191420922Y-117908996D01*
X191436094Y-117900886D01*
X191568758Y-117829976D01*
X191729177Y-117781313D01*
X191854196Y-117769000D01*
X191937804Y-117769000D01*
X192062823Y-117781313D01*
X192062823Y-117781313D01*
G37*
G36*
X184442823Y-117781313D02*
G01*
X184603242Y-117829976D01*
X184735906Y-117900886D01*
X184751078Y-117908996D01*
X184880659Y-118015341D01*
X184987004Y-118144922D01*
X184987005Y-118144924D01*
X185066024Y-118292758D01*
X185114687Y-118453177D01*
X185131117Y-118620000D01*
X185114687Y-118786823D01*
X185066024Y-118947242D01*
X184995114Y-119079906D01*
X184987004Y-119095078D01*
X184880659Y-119224659D01*
X184751078Y-119331004D01*
X184751076Y-119331005D01*
X184603242Y-119410024D01*
X184442823Y-119458687D01*
X184317804Y-119471000D01*
X184234196Y-119471000D01*
X184109177Y-119458687D01*
X183948758Y-119410024D01*
X183800924Y-119331005D01*
X183800922Y-119331004D01*
X183671341Y-119224659D01*
X183564996Y-119095078D01*
X183556886Y-119079906D01*
X183485976Y-118947242D01*
X183437313Y-118786823D01*
X183420883Y-118620000D01*
X183437313Y-118453177D01*
X183485976Y-118292758D01*
X183564995Y-118144924D01*
X183564996Y-118144922D01*
X183671341Y-118015341D01*
X183800922Y-117908996D01*
X183816094Y-117900886D01*
X183948758Y-117829976D01*
X184109177Y-117781313D01*
X184234196Y-117769000D01*
X184317804Y-117769000D01*
X184442823Y-117781313D01*
X184442823Y-117781313D01*
G37*
G36*
X192062823Y-115241313D02*
G01*
X192223242Y-115289976D01*
X192355906Y-115360886D01*
X192371078Y-115368996D01*
X192500659Y-115475341D01*
X192607004Y-115604922D01*
X192607005Y-115604924D01*
X192686024Y-115752758D01*
X192734687Y-115913177D01*
X192751117Y-116080000D01*
X192734687Y-116246823D01*
X192686024Y-116407242D01*
X192615114Y-116539906D01*
X192607004Y-116555078D01*
X192500659Y-116684659D01*
X192371078Y-116791004D01*
X192371076Y-116791005D01*
X192223242Y-116870024D01*
X192062823Y-116918687D01*
X191937804Y-116931000D01*
X191854196Y-116931000D01*
X191729177Y-116918687D01*
X191568758Y-116870024D01*
X191420924Y-116791005D01*
X191420922Y-116791004D01*
X191291341Y-116684659D01*
X191184996Y-116555078D01*
X191176886Y-116539906D01*
X191105976Y-116407242D01*
X191057313Y-116246823D01*
X191040883Y-116080000D01*
X191057313Y-115913177D01*
X191105976Y-115752758D01*
X191184995Y-115604924D01*
X191184996Y-115604922D01*
X191291341Y-115475341D01*
X191420922Y-115368996D01*
X191436094Y-115360886D01*
X191568758Y-115289976D01*
X191729177Y-115241313D01*
X191854196Y-115229000D01*
X191937804Y-115229000D01*
X192062823Y-115241313D01*
X192062823Y-115241313D01*
G37*
G36*
X184442823Y-115241313D02*
G01*
X184603242Y-115289976D01*
X184735906Y-115360886D01*
X184751078Y-115368996D01*
X184880659Y-115475341D01*
X184987004Y-115604922D01*
X184987005Y-115604924D01*
X185066024Y-115752758D01*
X185114687Y-115913177D01*
X185131117Y-116080000D01*
X185114687Y-116246823D01*
X185066024Y-116407242D01*
X184995114Y-116539906D01*
X184987004Y-116555078D01*
X184880659Y-116684659D01*
X184751078Y-116791004D01*
X184751076Y-116791005D01*
X184603242Y-116870024D01*
X184442823Y-116918687D01*
X184317804Y-116931000D01*
X184234196Y-116931000D01*
X184109177Y-116918687D01*
X183948758Y-116870024D01*
X183800924Y-116791005D01*
X183800922Y-116791004D01*
X183671341Y-116684659D01*
X183564996Y-116555078D01*
X183556886Y-116539906D01*
X183485976Y-116407242D01*
X183437313Y-116246823D01*
X183420883Y-116080000D01*
X183437313Y-115913177D01*
X183485976Y-115752758D01*
X183564995Y-115604924D01*
X183564996Y-115604922D01*
X183671341Y-115475341D01*
X183800922Y-115368996D01*
X183816094Y-115360886D01*
X183948758Y-115289976D01*
X184109177Y-115241313D01*
X184234196Y-115229000D01*
X184317804Y-115229000D01*
X184442823Y-115241313D01*
X184442823Y-115241313D01*
G37*
G36*
X169669589Y-113538876D02*
G01*
X169768893Y-113558629D01*
X169909206Y-113616748D01*
X170035484Y-113701125D01*
X170142875Y-113808516D01*
X170227252Y-113934794D01*
X170285371Y-114075107D01*
X170315000Y-114224063D01*
X170315000Y-114375937D01*
X170285371Y-114524893D01*
X170227252Y-114665206D01*
X170142875Y-114791484D01*
X170035484Y-114898875D01*
X169909206Y-114983252D01*
X169768893Y-115041371D01*
X169669589Y-115061124D01*
X169619938Y-115071000D01*
X169468062Y-115071000D01*
X169418411Y-115061124D01*
X169319107Y-115041371D01*
X169178794Y-114983252D01*
X169052516Y-114898875D01*
X168945125Y-114791484D01*
X168860748Y-114665206D01*
X168802629Y-114524893D01*
X168773000Y-114375937D01*
X168773000Y-114224063D01*
X168802629Y-114075107D01*
X168860748Y-113934794D01*
X168945125Y-113808516D01*
X169052516Y-113701125D01*
X169178794Y-113616748D01*
X169319107Y-113558629D01*
X169418411Y-113538876D01*
X169468062Y-113529000D01*
X169619938Y-113529000D01*
X169669589Y-113538876D01*
X169669589Y-113538876D01*
G37*
G36*
X172209589Y-113538876D02*
G01*
X172308893Y-113558629D01*
X172449206Y-113616748D01*
X172575484Y-113701125D01*
X172682875Y-113808516D01*
X172767252Y-113934794D01*
X172825371Y-114075107D01*
X172855000Y-114224063D01*
X172855000Y-114375937D01*
X172825371Y-114524893D01*
X172767252Y-114665206D01*
X172682875Y-114791484D01*
X172575484Y-114898875D01*
X172449206Y-114983252D01*
X172308893Y-115041371D01*
X172209589Y-115061124D01*
X172159938Y-115071000D01*
X172008062Y-115071000D01*
X171958411Y-115061124D01*
X171859107Y-115041371D01*
X171718794Y-114983252D01*
X171592516Y-114898875D01*
X171485125Y-114791484D01*
X171400748Y-114665206D01*
X171342629Y-114524893D01*
X171313000Y-114375937D01*
X171313000Y-114224063D01*
X171342629Y-114075107D01*
X171400748Y-113934794D01*
X171485125Y-113808516D01*
X171592516Y-113701125D01*
X171718794Y-113616748D01*
X171859107Y-113558629D01*
X171958411Y-113538876D01*
X172008062Y-113529000D01*
X172159938Y-113529000D01*
X172209589Y-113538876D01*
X172209589Y-113538876D01*
G37*
G36*
X167129589Y-113538876D02*
G01*
X167228893Y-113558629D01*
X167369206Y-113616748D01*
X167495484Y-113701125D01*
X167602875Y-113808516D01*
X167687252Y-113934794D01*
X167745371Y-114075107D01*
X167775000Y-114224063D01*
X167775000Y-114375937D01*
X167745371Y-114524893D01*
X167687252Y-114665206D01*
X167602875Y-114791484D01*
X167495484Y-114898875D01*
X167369206Y-114983252D01*
X167228893Y-115041371D01*
X167129589Y-115061124D01*
X167079938Y-115071000D01*
X166928062Y-115071000D01*
X166878411Y-115061124D01*
X166779107Y-115041371D01*
X166638794Y-114983252D01*
X166512516Y-114898875D01*
X166405125Y-114791484D01*
X166320748Y-114665206D01*
X166262629Y-114524893D01*
X166233000Y-114375937D01*
X166233000Y-114224063D01*
X166262629Y-114075107D01*
X166320748Y-113934794D01*
X166405125Y-113808516D01*
X166512516Y-113701125D01*
X166638794Y-113616748D01*
X166779107Y-113558629D01*
X166878411Y-113538876D01*
X166928062Y-113529000D01*
X167079938Y-113529000D01*
X167129589Y-113538876D01*
X167129589Y-113538876D01*
G37*
G36*
X192062823Y-112701313D02*
G01*
X192223242Y-112749976D01*
X192355906Y-112820886D01*
X192371078Y-112828996D01*
X192500659Y-112935341D01*
X192607004Y-113064922D01*
X192607005Y-113064924D01*
X192686024Y-113212758D01*
X192734687Y-113373177D01*
X192751117Y-113540000D01*
X192734687Y-113706823D01*
X192686024Y-113867242D01*
X192615114Y-113999906D01*
X192607004Y-114015078D01*
X192500659Y-114144659D01*
X192371078Y-114251004D01*
X192371076Y-114251005D01*
X192223242Y-114330024D01*
X192062823Y-114378687D01*
X191937804Y-114391000D01*
X191854196Y-114391000D01*
X191729177Y-114378687D01*
X191568758Y-114330024D01*
X191420924Y-114251005D01*
X191420922Y-114251004D01*
X191291341Y-114144659D01*
X191184996Y-114015078D01*
X191176886Y-113999906D01*
X191105976Y-113867242D01*
X191057313Y-113706823D01*
X191040883Y-113540000D01*
X191057313Y-113373177D01*
X191105976Y-113212758D01*
X191184995Y-113064924D01*
X191184996Y-113064922D01*
X191291341Y-112935341D01*
X191420922Y-112828996D01*
X191436094Y-112820886D01*
X191568758Y-112749976D01*
X191729177Y-112701313D01*
X191854196Y-112689000D01*
X191937804Y-112689000D01*
X192062823Y-112701313D01*
X192062823Y-112701313D01*
G37*
G36*
X185127000Y-114391000D02*
G01*
X183425000Y-114391000D01*
X183425000Y-112689000D01*
X185127000Y-112689000D01*
X185127000Y-114391000D01*
X185127000Y-114391000D01*
G37*
G36*
X163940443Y-106547519D02*
G01*
X164006627Y-106554037D01*
X164176466Y-106605557D01*
X164332991Y-106689222D01*
X164368729Y-106718552D01*
X164470186Y-106801814D01*
X164553448Y-106903271D01*
X164582778Y-106939009D01*
X164666443Y-107095534D01*
X164717963Y-107265373D01*
X164735359Y-107442000D01*
X164717963Y-107618627D01*
X164666443Y-107788466D01*
X164582778Y-107944991D01*
X164553448Y-107980729D01*
X164470186Y-108082186D01*
X164368729Y-108165448D01*
X164332991Y-108194778D01*
X164176466Y-108278443D01*
X164006627Y-108329963D01*
X163940442Y-108336482D01*
X163874260Y-108343000D01*
X163785740Y-108343000D01*
X163719558Y-108336482D01*
X163653373Y-108329963D01*
X163483534Y-108278443D01*
X163327009Y-108194778D01*
X163291271Y-108165448D01*
X163189814Y-108082186D01*
X163106552Y-107980729D01*
X163077222Y-107944991D01*
X162993557Y-107788466D01*
X162942037Y-107618627D01*
X162924641Y-107442000D01*
X162942037Y-107265373D01*
X162993557Y-107095534D01*
X163077222Y-106939009D01*
X163106552Y-106903271D01*
X163189814Y-106801814D01*
X163291271Y-106718552D01*
X163327009Y-106689222D01*
X163483534Y-106605557D01*
X163653373Y-106554037D01*
X163719557Y-106547519D01*
X163785740Y-106541000D01*
X163874260Y-106541000D01*
X163940443Y-106547519D01*
X163940443Y-106547519D01*
G37*
G36*
X166480443Y-106547519D02*
G01*
X166546627Y-106554037D01*
X166716466Y-106605557D01*
X166872991Y-106689222D01*
X166908729Y-106718552D01*
X167010186Y-106801814D01*
X167093448Y-106903271D01*
X167122778Y-106939009D01*
X167206443Y-107095534D01*
X167257963Y-107265373D01*
X167275359Y-107442000D01*
X167257963Y-107618627D01*
X167206443Y-107788466D01*
X167122778Y-107944991D01*
X167093448Y-107980729D01*
X167010186Y-108082186D01*
X166908729Y-108165448D01*
X166872991Y-108194778D01*
X166716466Y-108278443D01*
X166546627Y-108329963D01*
X166480442Y-108336482D01*
X166414260Y-108343000D01*
X166325740Y-108343000D01*
X166259558Y-108336482D01*
X166193373Y-108329963D01*
X166023534Y-108278443D01*
X165867009Y-108194778D01*
X165831271Y-108165448D01*
X165729814Y-108082186D01*
X165646552Y-107980729D01*
X165617222Y-107944991D01*
X165533557Y-107788466D01*
X165482037Y-107618627D01*
X165464641Y-107442000D01*
X165482037Y-107265373D01*
X165533557Y-107095534D01*
X165617222Y-106939009D01*
X165646552Y-106903271D01*
X165729814Y-106801814D01*
X165831271Y-106718552D01*
X165867009Y-106689222D01*
X166023534Y-106605557D01*
X166193373Y-106554037D01*
X166259557Y-106547519D01*
X166325740Y-106541000D01*
X166414260Y-106541000D01*
X166480443Y-106547519D01*
X166480443Y-106547519D01*
G37*
G36*
X208123999Y-98413737D02*
G01*
X208133608Y-98416652D01*
X208142472Y-98421390D01*
X208150237Y-98427763D01*
X208156610Y-98435528D01*
X208161348Y-98444392D01*
X208164263Y-98454001D01*
X208165852Y-98470140D01*
X208165852Y-100757860D01*
X208164263Y-100773999D01*
X208161348Y-100783608D01*
X208156610Y-100792472D01*
X208150237Y-100800237D01*
X208142472Y-100806610D01*
X208133608Y-100811348D01*
X208123999Y-100814263D01*
X208105881Y-100816047D01*
X208081847Y-100820827D01*
X208059209Y-100830204D01*
X208038834Y-100843818D01*
X208021507Y-100861145D01*
X208007893Y-100881519D01*
X207998516Y-100904158D01*
X207993735Y-100928191D01*
X207993735Y-100952695D01*
X207998515Y-100976729D01*
X208007892Y-100999367D01*
X208021506Y-101019742D01*
X208046047Y-101042564D01*
X208138886Y-101108097D01*
X208151153Y-101118702D01*
X208154012Y-101122374D01*
X208157326Y-101126629D01*
X208159570Y-101131100D01*
X208161832Y-101135605D01*
X208164717Y-101146073D01*
X208165852Y-101159338D01*
X208165852Y-103297860D01*
X208164263Y-103313999D01*
X208161348Y-103323608D01*
X208156610Y-103332472D01*
X208150237Y-103340237D01*
X208142472Y-103346610D01*
X208133608Y-103351348D01*
X208123999Y-103354263D01*
X208105881Y-103356047D01*
X208081847Y-103360827D01*
X208059209Y-103370204D01*
X208038834Y-103383818D01*
X208021507Y-103401145D01*
X208007893Y-103421519D01*
X207998516Y-103444158D01*
X207993735Y-103468191D01*
X207993735Y-103492695D01*
X207998515Y-103516729D01*
X208007892Y-103539367D01*
X208021506Y-103559742D01*
X208046047Y-103582564D01*
X208138886Y-103648097D01*
X208151153Y-103658702D01*
X208154234Y-103662659D01*
X208157326Y-103666629D01*
X208159570Y-103671100D01*
X208161832Y-103675605D01*
X208164717Y-103686073D01*
X208165852Y-103699338D01*
X208165852Y-105837860D01*
X208164263Y-105853999D01*
X208161348Y-105863608D01*
X208156610Y-105872472D01*
X208150237Y-105880237D01*
X208142472Y-105886610D01*
X208133608Y-105891348D01*
X208123999Y-105894263D01*
X208105881Y-105896047D01*
X208081847Y-105900827D01*
X208059209Y-105910204D01*
X208038834Y-105923818D01*
X208021507Y-105941145D01*
X208007893Y-105961519D01*
X207998516Y-105984158D01*
X207993735Y-106008191D01*
X207993735Y-106032695D01*
X207998515Y-106056729D01*
X208007892Y-106079367D01*
X208021506Y-106099742D01*
X208046047Y-106122564D01*
X208138886Y-106188097D01*
X208151153Y-106198702D01*
X208154234Y-106202659D01*
X208157326Y-106206629D01*
X208159570Y-106211100D01*
X208161832Y-106215605D01*
X208164717Y-106226073D01*
X208165852Y-106239338D01*
X208165852Y-106927860D01*
X208163291Y-106953864D01*
X208162361Y-106958539D01*
X208161759Y-106970793D01*
X208161759Y-107011175D01*
X208159565Y-107033455D01*
X208129453Y-107184836D01*
X208122955Y-107206255D01*
X208063889Y-107348854D01*
X208053335Y-107368599D01*
X207967583Y-107496936D01*
X207953382Y-107514241D01*
X207844241Y-107623382D01*
X207826936Y-107637583D01*
X207698599Y-107723335D01*
X207678854Y-107733889D01*
X207536255Y-107792955D01*
X207514836Y-107799453D01*
X207363455Y-107829565D01*
X207341175Y-107831759D01*
X207186825Y-107831759D01*
X207164545Y-107829565D01*
X207013164Y-107799453D01*
X206991745Y-107792955D01*
X206849146Y-107733889D01*
X206829401Y-107723335D01*
X206701064Y-107637583D01*
X206683759Y-107623382D01*
X206574618Y-107514241D01*
X206560417Y-107496936D01*
X206474665Y-107368599D01*
X206464111Y-107348854D01*
X206405045Y-107206255D01*
X206398547Y-107184836D01*
X206368435Y-107033455D01*
X206366241Y-107011175D01*
X206366241Y-106970793D01*
X206364810Y-106956263D01*
X206364944Y-106956250D01*
X206362148Y-106927860D01*
X206362148Y-106240140D01*
X206363737Y-106224001D01*
X206366652Y-106214392D01*
X206371390Y-106205528D01*
X206378278Y-106197135D01*
X206388457Y-106188561D01*
X206482313Y-106122310D01*
X206500850Y-106106285D01*
X206515905Y-106086951D01*
X206526899Y-106065052D01*
X206533409Y-106041428D01*
X206535186Y-106016989D01*
X206532160Y-105992672D01*
X206524449Y-105969413D01*
X206512348Y-105948105D01*
X206496323Y-105929568D01*
X206476989Y-105914513D01*
X206455090Y-105903519D01*
X206419290Y-105895520D01*
X206405296Y-105894503D01*
X206400450Y-105893167D01*
X206395608Y-105891833D01*
X206395607Y-105891833D01*
X206395605Y-105891832D01*
X206391100Y-105889570D01*
X206386629Y-105887326D01*
X206382666Y-105884240D01*
X206378702Y-105881153D01*
X206372133Y-105873554D01*
X206367172Y-105864819D01*
X206364265Y-105856050D01*
X206364010Y-105855282D01*
X206362753Y-105844000D01*
X206362753Y-105842483D01*
X206362148Y-105837055D01*
X206362148Y-103700140D01*
X206363737Y-103684001D01*
X206366652Y-103674392D01*
X206371390Y-103665528D01*
X206378278Y-103657135D01*
X206388457Y-103648561D01*
X206482313Y-103582310D01*
X206500850Y-103566285D01*
X206515905Y-103546951D01*
X206526899Y-103525052D01*
X206533409Y-103501428D01*
X206535186Y-103476989D01*
X206532160Y-103452672D01*
X206524449Y-103429413D01*
X206512348Y-103408105D01*
X206496323Y-103389568D01*
X206476989Y-103374513D01*
X206455090Y-103363519D01*
X206419290Y-103355520D01*
X206405296Y-103354503D01*
X206400451Y-103353168D01*
X206395608Y-103351833D01*
X206395607Y-103351833D01*
X206395605Y-103351832D01*
X206391100Y-103349570D01*
X206386629Y-103347326D01*
X206382666Y-103344239D01*
X206378702Y-103341153D01*
X206372133Y-103333554D01*
X206367172Y-103324819D01*
X206364265Y-103316050D01*
X206364010Y-103315282D01*
X206362753Y-103304000D01*
X206362753Y-103302483D01*
X206362148Y-103297055D01*
X206362148Y-101160140D01*
X206363737Y-101144001D01*
X206366652Y-101134392D01*
X206371390Y-101125528D01*
X206378278Y-101117135D01*
X206388457Y-101108561D01*
X206482313Y-101042310D01*
X206500850Y-101026285D01*
X206515905Y-101006951D01*
X206526899Y-100985052D01*
X206533409Y-100961428D01*
X206535186Y-100936989D01*
X206532160Y-100912672D01*
X206524449Y-100889413D01*
X206512348Y-100868105D01*
X206496323Y-100849568D01*
X206476989Y-100834513D01*
X206455090Y-100823519D01*
X206419290Y-100815520D01*
X206405296Y-100814503D01*
X206400451Y-100813168D01*
X206395608Y-100811833D01*
X206395607Y-100811833D01*
X206395605Y-100811832D01*
X206391100Y-100809570D01*
X206386629Y-100807326D01*
X206382666Y-100804240D01*
X206378702Y-100801153D01*
X206372133Y-100793554D01*
X206367172Y-100784819D01*
X206364265Y-100776050D01*
X206364010Y-100775282D01*
X206362753Y-100764000D01*
X206362753Y-100762483D01*
X206362148Y-100757055D01*
X206362148Y-98470140D01*
X206363737Y-98454001D01*
X206366652Y-98444392D01*
X206371390Y-98435528D01*
X206377763Y-98427763D01*
X206385528Y-98421390D01*
X206394392Y-98416652D01*
X206404001Y-98413737D01*
X206420140Y-98412148D01*
X208107860Y-98412148D01*
X208123999Y-98413737D01*
X208123999Y-98413737D01*
G37*
G36*
X185729823Y-104759313D02*
G01*
X185890242Y-104807976D01*
X186022906Y-104878886D01*
X186038078Y-104886996D01*
X186167659Y-104993341D01*
X186274004Y-105122922D01*
X186274005Y-105122924D01*
X186353024Y-105270758D01*
X186401687Y-105431177D01*
X186418117Y-105598000D01*
X186401687Y-105764823D01*
X186353024Y-105925242D01*
X186316982Y-105992672D01*
X186274004Y-106073078D01*
X186167659Y-106202659D01*
X186038078Y-106309004D01*
X186038076Y-106309005D01*
X185890242Y-106388024D01*
X185729823Y-106436687D01*
X185604804Y-106449000D01*
X185521196Y-106449000D01*
X185396177Y-106436687D01*
X185235758Y-106388024D01*
X185087924Y-106309005D01*
X185087922Y-106309004D01*
X184958341Y-106202659D01*
X184851996Y-106073078D01*
X184809018Y-105992672D01*
X184772976Y-105925242D01*
X184724313Y-105764823D01*
X184707883Y-105598000D01*
X184724313Y-105431177D01*
X184772976Y-105270758D01*
X184851995Y-105122924D01*
X184851996Y-105122922D01*
X184958341Y-104993341D01*
X185087922Y-104886996D01*
X185103094Y-104878886D01*
X185235758Y-104807976D01*
X185396177Y-104759313D01*
X185521196Y-104747000D01*
X185604804Y-104747000D01*
X185729823Y-104759313D01*
X185729823Y-104759313D01*
G37*
G36*
X193349823Y-104759313D02*
G01*
X193510242Y-104807976D01*
X193642906Y-104878886D01*
X193658078Y-104886996D01*
X193787659Y-104993341D01*
X193894004Y-105122922D01*
X193894005Y-105122924D01*
X193973024Y-105270758D01*
X194021687Y-105431177D01*
X194038117Y-105598000D01*
X194021687Y-105764823D01*
X193973024Y-105925242D01*
X193936982Y-105992672D01*
X193894004Y-106073078D01*
X193787659Y-106202659D01*
X193658078Y-106309004D01*
X193658076Y-106309005D01*
X193510242Y-106388024D01*
X193349823Y-106436687D01*
X193224804Y-106449000D01*
X193141196Y-106449000D01*
X193016177Y-106436687D01*
X192855758Y-106388024D01*
X192707924Y-106309005D01*
X192707922Y-106309004D01*
X192578341Y-106202659D01*
X192471996Y-106073078D01*
X192429018Y-105992672D01*
X192392976Y-105925242D01*
X192344313Y-105764823D01*
X192327883Y-105598000D01*
X192344313Y-105431177D01*
X192392976Y-105270758D01*
X192471995Y-105122924D01*
X192471996Y-105122922D01*
X192578341Y-104993341D01*
X192707922Y-104886996D01*
X192723094Y-104878886D01*
X192855758Y-104807976D01*
X193016177Y-104759313D01*
X193141196Y-104747000D01*
X193224804Y-104747000D01*
X193349823Y-104759313D01*
X193349823Y-104759313D01*
G37*
G36*
X166480443Y-104007519D02*
G01*
X166546627Y-104014037D01*
X166716466Y-104065557D01*
X166872991Y-104149222D01*
X166908729Y-104178552D01*
X167010186Y-104261814D01*
X167093448Y-104363271D01*
X167122778Y-104399009D01*
X167206443Y-104555534D01*
X167257963Y-104725373D01*
X167275359Y-104902000D01*
X167257963Y-105078627D01*
X167206443Y-105248466D01*
X167122778Y-105404991D01*
X167093448Y-105440729D01*
X167010186Y-105542186D01*
X166942175Y-105598000D01*
X166872991Y-105654778D01*
X166716466Y-105738443D01*
X166546627Y-105789963D01*
X166480442Y-105796482D01*
X166414260Y-105803000D01*
X166325740Y-105803000D01*
X166259558Y-105796482D01*
X166193373Y-105789963D01*
X166023534Y-105738443D01*
X165867009Y-105654778D01*
X165797825Y-105598000D01*
X165729814Y-105542186D01*
X165646552Y-105440729D01*
X165617222Y-105404991D01*
X165533557Y-105248466D01*
X165482037Y-105078627D01*
X165464641Y-104902000D01*
X165482037Y-104725373D01*
X165533557Y-104555534D01*
X165617222Y-104399009D01*
X165646552Y-104363271D01*
X165729814Y-104261814D01*
X165831271Y-104178552D01*
X165867009Y-104149222D01*
X166023534Y-104065557D01*
X166193373Y-104014037D01*
X166259558Y-104007518D01*
X166325740Y-104001000D01*
X166414260Y-104001000D01*
X166480443Y-104007519D01*
X166480443Y-104007519D01*
G37*
G36*
X163940443Y-104007519D02*
G01*
X164006627Y-104014037D01*
X164176466Y-104065557D01*
X164332991Y-104149222D01*
X164368729Y-104178552D01*
X164470186Y-104261814D01*
X164553448Y-104363271D01*
X164582778Y-104399009D01*
X164666443Y-104555534D01*
X164717963Y-104725373D01*
X164735359Y-104902000D01*
X164717963Y-105078627D01*
X164666443Y-105248466D01*
X164582778Y-105404991D01*
X164553448Y-105440729D01*
X164470186Y-105542186D01*
X164402175Y-105598000D01*
X164332991Y-105654778D01*
X164176466Y-105738443D01*
X164006627Y-105789963D01*
X163940442Y-105796482D01*
X163874260Y-105803000D01*
X163785740Y-105803000D01*
X163719558Y-105796482D01*
X163653373Y-105789963D01*
X163483534Y-105738443D01*
X163327009Y-105654778D01*
X163257825Y-105598000D01*
X163189814Y-105542186D01*
X163106552Y-105440729D01*
X163077222Y-105404991D01*
X162993557Y-105248466D01*
X162942037Y-105078627D01*
X162924641Y-104902000D01*
X162942037Y-104725373D01*
X162993557Y-104555534D01*
X163077222Y-104399009D01*
X163106552Y-104363271D01*
X163189814Y-104261814D01*
X163291271Y-104178552D01*
X163327009Y-104149222D01*
X163483534Y-104065557D01*
X163653373Y-104014037D01*
X163719558Y-104007518D01*
X163785740Y-104001000D01*
X163874260Y-104001000D01*
X163940443Y-104007519D01*
X163940443Y-104007519D01*
G37*
G36*
X193349823Y-102219313D02*
G01*
X193510242Y-102267976D01*
X193636091Y-102335244D01*
X193658078Y-102346996D01*
X193787659Y-102453341D01*
X193894004Y-102582922D01*
X193894005Y-102582924D01*
X193973024Y-102730758D01*
X194021687Y-102891177D01*
X194038117Y-103058000D01*
X194021687Y-103224823D01*
X193973024Y-103385242D01*
X193936982Y-103452672D01*
X193894004Y-103533078D01*
X193787659Y-103662659D01*
X193658078Y-103769004D01*
X193658076Y-103769005D01*
X193510242Y-103848024D01*
X193349823Y-103896687D01*
X193224804Y-103909000D01*
X193141196Y-103909000D01*
X193016177Y-103896687D01*
X192855758Y-103848024D01*
X192707924Y-103769005D01*
X192707922Y-103769004D01*
X192578341Y-103662659D01*
X192471996Y-103533078D01*
X192429018Y-103452672D01*
X192392976Y-103385242D01*
X192344313Y-103224823D01*
X192327883Y-103058000D01*
X192344313Y-102891177D01*
X192392976Y-102730758D01*
X192471995Y-102582924D01*
X192471996Y-102582922D01*
X192578341Y-102453341D01*
X192707922Y-102346996D01*
X192729909Y-102335244D01*
X192855758Y-102267976D01*
X193016177Y-102219313D01*
X193141196Y-102207000D01*
X193224804Y-102207000D01*
X193349823Y-102219313D01*
X193349823Y-102219313D01*
G37*
G36*
X185729823Y-102219313D02*
G01*
X185890242Y-102267976D01*
X186016091Y-102335244D01*
X186038078Y-102346996D01*
X186167659Y-102453341D01*
X186274004Y-102582922D01*
X186274005Y-102582924D01*
X186353024Y-102730758D01*
X186401687Y-102891177D01*
X186418117Y-103058000D01*
X186401687Y-103224823D01*
X186353024Y-103385242D01*
X186316982Y-103452672D01*
X186274004Y-103533078D01*
X186167659Y-103662659D01*
X186038078Y-103769004D01*
X186038076Y-103769005D01*
X185890242Y-103848024D01*
X185729823Y-103896687D01*
X185604804Y-103909000D01*
X185521196Y-103909000D01*
X185396177Y-103896687D01*
X185235758Y-103848024D01*
X185087924Y-103769005D01*
X185087922Y-103769004D01*
X184958341Y-103662659D01*
X184851996Y-103533078D01*
X184809018Y-103452672D01*
X184772976Y-103385242D01*
X184724313Y-103224823D01*
X184707883Y-103058000D01*
X184724313Y-102891177D01*
X184772976Y-102730758D01*
X184851995Y-102582924D01*
X184851996Y-102582922D01*
X184958341Y-102453341D01*
X185087922Y-102346996D01*
X185109909Y-102335244D01*
X185235758Y-102267976D01*
X185396177Y-102219313D01*
X185521196Y-102207000D01*
X185604804Y-102207000D01*
X185729823Y-102219313D01*
X185729823Y-102219313D01*
G37*
G36*
X176767442Y-101467518D02*
G01*
X176833627Y-101474037D01*
X177003466Y-101525557D01*
X177003468Y-101525558D01*
X177081729Y-101567390D01*
X177159991Y-101609222D01*
X177188361Y-101632505D01*
X177297186Y-101721814D01*
X177380448Y-101823271D01*
X177409778Y-101859009D01*
X177493443Y-102015534D01*
X177544963Y-102185373D01*
X177562359Y-102362000D01*
X177544963Y-102538627D01*
X177493443Y-102708466D01*
X177409778Y-102864991D01*
X177380448Y-102900729D01*
X177297186Y-103002186D01*
X177229175Y-103058000D01*
X177159991Y-103114778D01*
X177003466Y-103198443D01*
X176833627Y-103249963D01*
X176767442Y-103256482D01*
X176701260Y-103263000D01*
X176612740Y-103263000D01*
X176546558Y-103256482D01*
X176480373Y-103249963D01*
X176310534Y-103198443D01*
X176154009Y-103114778D01*
X176084825Y-103058000D01*
X176016814Y-103002186D01*
X175933552Y-102900729D01*
X175904222Y-102864991D01*
X175820557Y-102708466D01*
X175769037Y-102538627D01*
X175751641Y-102362000D01*
X175769037Y-102185373D01*
X175820557Y-102015534D01*
X175904222Y-101859009D01*
X175933552Y-101823271D01*
X176016814Y-101721814D01*
X176125639Y-101632505D01*
X176154009Y-101609222D01*
X176232272Y-101567389D01*
X176310532Y-101525558D01*
X176310534Y-101525557D01*
X176480373Y-101474037D01*
X176546558Y-101467518D01*
X176612740Y-101461000D01*
X176701260Y-101461000D01*
X176767442Y-101467518D01*
X176767442Y-101467518D01*
G37*
G36*
X174227442Y-101467518D02*
G01*
X174293627Y-101474037D01*
X174463466Y-101525557D01*
X174463468Y-101525558D01*
X174541729Y-101567390D01*
X174619991Y-101609222D01*
X174648361Y-101632505D01*
X174757186Y-101721814D01*
X174840448Y-101823271D01*
X174869778Y-101859009D01*
X174953443Y-102015534D01*
X175004963Y-102185373D01*
X175022359Y-102362000D01*
X175004963Y-102538627D01*
X174953443Y-102708466D01*
X174869778Y-102864991D01*
X174840448Y-102900729D01*
X174757186Y-103002186D01*
X174689175Y-103058000D01*
X174619991Y-103114778D01*
X174463466Y-103198443D01*
X174293627Y-103249963D01*
X174227442Y-103256482D01*
X174161260Y-103263000D01*
X174072740Y-103263000D01*
X174006558Y-103256482D01*
X173940373Y-103249963D01*
X173770534Y-103198443D01*
X173614009Y-103114778D01*
X173544825Y-103058000D01*
X173476814Y-103002186D01*
X173393552Y-102900729D01*
X173364222Y-102864991D01*
X173280557Y-102708466D01*
X173229037Y-102538627D01*
X173211641Y-102362000D01*
X173229037Y-102185373D01*
X173280557Y-102015534D01*
X173364222Y-101859009D01*
X173393552Y-101823271D01*
X173476814Y-101721814D01*
X173585639Y-101632505D01*
X173614009Y-101609222D01*
X173692272Y-101567389D01*
X173770532Y-101525558D01*
X173770534Y-101525557D01*
X173940373Y-101474037D01*
X174006558Y-101467518D01*
X174072740Y-101461000D01*
X174161260Y-101461000D01*
X174227442Y-101467518D01*
X174227442Y-101467518D01*
G37*
G36*
X172478000Y-103263000D02*
G01*
X170676000Y-103263000D01*
X170676000Y-101461000D01*
X172478000Y-101461000D01*
X172478000Y-103263000D01*
X172478000Y-103263000D01*
G37*
G36*
X166480442Y-101467518D02*
G01*
X166546627Y-101474037D01*
X166716466Y-101525557D01*
X166716468Y-101525558D01*
X166794729Y-101567390D01*
X166872991Y-101609222D01*
X166901361Y-101632505D01*
X167010186Y-101721814D01*
X167093448Y-101823271D01*
X167122778Y-101859009D01*
X167206443Y-102015534D01*
X167257963Y-102185373D01*
X167275359Y-102362000D01*
X167257963Y-102538627D01*
X167206443Y-102708466D01*
X167122778Y-102864991D01*
X167093448Y-102900729D01*
X167010186Y-103002186D01*
X166942175Y-103058000D01*
X166872991Y-103114778D01*
X166716466Y-103198443D01*
X166546627Y-103249963D01*
X166480442Y-103256482D01*
X166414260Y-103263000D01*
X166325740Y-103263000D01*
X166259558Y-103256482D01*
X166193373Y-103249963D01*
X166023534Y-103198443D01*
X165867009Y-103114778D01*
X165797825Y-103058000D01*
X165729814Y-103002186D01*
X165646552Y-102900729D01*
X165617222Y-102864991D01*
X165533557Y-102708466D01*
X165482037Y-102538627D01*
X165464641Y-102362000D01*
X165482037Y-102185373D01*
X165533557Y-102015534D01*
X165617222Y-101859009D01*
X165646552Y-101823271D01*
X165729814Y-101721814D01*
X165838639Y-101632505D01*
X165867009Y-101609222D01*
X165945272Y-101567389D01*
X166023532Y-101525558D01*
X166023534Y-101525557D01*
X166193373Y-101474037D01*
X166259558Y-101467518D01*
X166325740Y-101461000D01*
X166414260Y-101461000D01*
X166480442Y-101467518D01*
X166480442Y-101467518D01*
G37*
G36*
X164731000Y-103263000D02*
G01*
X162929000Y-103263000D01*
X162929000Y-101461000D01*
X164731000Y-101461000D01*
X164731000Y-103263000D01*
X164731000Y-103263000D01*
G37*
G36*
X201080000Y-99890000D02*
G01*
X200915660Y-99890000D01*
X200891274Y-99892402D01*
X200867825Y-99899515D01*
X200846214Y-99911066D01*
X200827272Y-99926611D01*
X200811727Y-99945553D01*
X200800176Y-99967164D01*
X200793063Y-99990613D01*
X200790661Y-100014999D01*
X200793063Y-100039385D01*
X200800176Y-100062834D01*
X200811727Y-100084445D01*
X200827272Y-100103387D01*
X200836345Y-100111609D01*
X200913264Y-100174736D01*
X200985244Y-100262443D01*
X201019429Y-100326399D01*
X201038728Y-100362505D01*
X201038729Y-100362508D01*
X201071666Y-100471084D01*
X201082787Y-100584000D01*
X201071666Y-100696916D01*
X201042350Y-100793554D01*
X201038728Y-100805495D01*
X201023217Y-100834513D01*
X200985244Y-100905557D01*
X200913264Y-100993264D01*
X200825557Y-101065244D01*
X200745383Y-101108097D01*
X200744141Y-101108761D01*
X200723766Y-101122375D01*
X200706439Y-101139702D01*
X200692826Y-101160076D01*
X200683448Y-101182715D01*
X200678668Y-101206748D01*
X200678668Y-101231252D01*
X200683448Y-101255285D01*
X200692826Y-101277924D01*
X200706440Y-101298299D01*
X200723767Y-101315626D01*
X200744141Y-101329239D01*
X200825557Y-101372756D01*
X200913264Y-101444736D01*
X200985244Y-101532443D01*
X201019429Y-101596399D01*
X201038728Y-101632505D01*
X201038729Y-101632508D01*
X201071666Y-101741084D01*
X201082787Y-101854000D01*
X201071666Y-101966916D01*
X201038729Y-102075492D01*
X201038728Y-102075495D01*
X201019429Y-102111601D01*
X200985244Y-102175557D01*
X200913264Y-102263264D01*
X200825557Y-102335244D01*
X200775499Y-102362000D01*
X200725495Y-102388728D01*
X200725492Y-102388729D01*
X200616916Y-102421666D01*
X200532298Y-102430000D01*
X200025702Y-102430000D01*
X199941084Y-102421666D01*
X199832508Y-102388729D01*
X199832505Y-102388728D01*
X199782501Y-102362000D01*
X199732443Y-102335244D01*
X199644736Y-102263264D01*
X199572756Y-102175557D01*
X199538571Y-102111601D01*
X199519272Y-102075495D01*
X199519271Y-102075492D01*
X199486334Y-101966916D01*
X199475213Y-101854000D01*
X199486334Y-101741084D01*
X199519271Y-101632508D01*
X199519272Y-101632505D01*
X199538571Y-101596399D01*
X199572756Y-101532443D01*
X199644736Y-101444736D01*
X199732443Y-101372756D01*
X199813859Y-101329239D01*
X199834234Y-101315625D01*
X199851561Y-101298298D01*
X199865174Y-101277924D01*
X199874552Y-101255285D01*
X199879332Y-101231252D01*
X199879332Y-101206748D01*
X199874552Y-101182715D01*
X199865174Y-101160076D01*
X199851560Y-101139701D01*
X199834233Y-101122374D01*
X199813859Y-101108761D01*
X199812617Y-101108097D01*
X199732443Y-101065244D01*
X199644736Y-100993264D01*
X199572756Y-100905557D01*
X199534783Y-100834513D01*
X199519272Y-100805495D01*
X199515650Y-100793554D01*
X199486334Y-100696916D01*
X199475213Y-100584000D01*
X199486334Y-100471084D01*
X199519271Y-100362508D01*
X199519272Y-100362505D01*
X199538571Y-100326399D01*
X199572756Y-100262443D01*
X199644736Y-100174736D01*
X199721646Y-100111617D01*
X199738965Y-100094298D01*
X199752579Y-100073923D01*
X199761957Y-100051284D01*
X199766737Y-100027251D01*
X199766737Y-100002747D01*
X199761957Y-99978714D01*
X199752579Y-99956075D01*
X199738966Y-99935701D01*
X199721639Y-99918374D01*
X199701264Y-99904760D01*
X199678625Y-99895382D01*
X199654592Y-99890602D01*
X199642340Y-99890000D01*
X199478000Y-99890000D01*
X199478000Y-98738000D01*
X201080000Y-98738000D01*
X201080000Y-99890000D01*
X201080000Y-99890000D01*
G37*
G36*
X185729823Y-99679313D02*
G01*
X185890242Y-99727976D01*
X186022906Y-99798886D01*
X186038078Y-99806996D01*
X186167659Y-99913341D01*
X186274004Y-100042922D01*
X186274005Y-100042924D01*
X186353024Y-100190758D01*
X186401687Y-100351177D01*
X186418117Y-100518000D01*
X186401687Y-100684823D01*
X186353024Y-100845242D01*
X186320786Y-100905555D01*
X186274004Y-100993078D01*
X186167659Y-101122659D01*
X186038078Y-101229004D01*
X186038076Y-101229005D01*
X185890242Y-101308024D01*
X185729823Y-101356687D01*
X185604804Y-101369000D01*
X185521196Y-101369000D01*
X185396177Y-101356687D01*
X185235758Y-101308024D01*
X185087924Y-101229005D01*
X185087922Y-101229004D01*
X184958341Y-101122659D01*
X184851996Y-100993078D01*
X184805214Y-100905555D01*
X184772976Y-100845242D01*
X184724313Y-100684823D01*
X184707883Y-100518000D01*
X184724313Y-100351177D01*
X184772976Y-100190758D01*
X184851995Y-100042924D01*
X184851996Y-100042922D01*
X184958341Y-99913341D01*
X185087922Y-99806996D01*
X185103094Y-99798886D01*
X185235758Y-99727976D01*
X185396177Y-99679313D01*
X185521196Y-99667000D01*
X185604804Y-99667000D01*
X185729823Y-99679313D01*
X185729823Y-99679313D01*
G37*
G36*
X193349823Y-99679313D02*
G01*
X193510242Y-99727976D01*
X193642906Y-99798886D01*
X193658078Y-99806996D01*
X193787659Y-99913341D01*
X193894004Y-100042922D01*
X193894005Y-100042924D01*
X193973024Y-100190758D01*
X194021687Y-100351177D01*
X194038117Y-100518000D01*
X194021687Y-100684823D01*
X193973024Y-100845242D01*
X193940786Y-100905555D01*
X193894004Y-100993078D01*
X193787659Y-101122659D01*
X193658078Y-101229004D01*
X193658076Y-101229005D01*
X193510242Y-101308024D01*
X193349823Y-101356687D01*
X193224804Y-101369000D01*
X193141196Y-101369000D01*
X193016177Y-101356687D01*
X192855758Y-101308024D01*
X192707924Y-101229005D01*
X192707922Y-101229004D01*
X192578341Y-101122659D01*
X192471996Y-100993078D01*
X192425214Y-100905555D01*
X192392976Y-100845242D01*
X192344313Y-100684823D01*
X192327883Y-100518000D01*
X192344313Y-100351177D01*
X192392976Y-100190758D01*
X192471995Y-100042924D01*
X192471996Y-100042922D01*
X192578341Y-99913341D01*
X192707922Y-99806996D01*
X192723094Y-99798886D01*
X192855758Y-99727976D01*
X193016177Y-99679313D01*
X193141196Y-99667000D01*
X193224804Y-99667000D01*
X193349823Y-99679313D01*
X193349823Y-99679313D01*
G37*
G36*
X185729823Y-97139313D02*
G01*
X185890242Y-97187976D01*
X186022906Y-97258886D01*
X186038078Y-97266996D01*
X186167659Y-97373341D01*
X186274004Y-97502922D01*
X186274005Y-97502924D01*
X186353024Y-97650758D01*
X186401687Y-97811177D01*
X186418117Y-97978000D01*
X186401687Y-98144823D01*
X186353024Y-98305242D01*
X186287535Y-98427763D01*
X186274004Y-98453078D01*
X186167659Y-98582659D01*
X186038078Y-98689004D01*
X186038076Y-98689005D01*
X185890242Y-98768024D01*
X185729823Y-98816687D01*
X185604804Y-98829000D01*
X185521196Y-98829000D01*
X185396177Y-98816687D01*
X185235758Y-98768024D01*
X185087924Y-98689005D01*
X185087922Y-98689004D01*
X184958341Y-98582659D01*
X184851996Y-98453078D01*
X184838465Y-98427763D01*
X184772976Y-98305242D01*
X184724313Y-98144823D01*
X184707883Y-97978000D01*
X184724313Y-97811177D01*
X184772976Y-97650758D01*
X184851995Y-97502924D01*
X184851996Y-97502922D01*
X184958341Y-97373341D01*
X185087922Y-97266996D01*
X185103094Y-97258886D01*
X185235758Y-97187976D01*
X185396177Y-97139313D01*
X185521196Y-97127000D01*
X185604804Y-97127000D01*
X185729823Y-97139313D01*
X185729823Y-97139313D01*
G37*
G36*
X193349823Y-97139313D02*
G01*
X193510242Y-97187976D01*
X193642906Y-97258886D01*
X193658078Y-97266996D01*
X193787659Y-97373341D01*
X193894004Y-97502922D01*
X193894005Y-97502924D01*
X193973024Y-97650758D01*
X194021687Y-97811177D01*
X194038117Y-97978000D01*
X194021687Y-98144823D01*
X193973024Y-98305242D01*
X193907535Y-98427763D01*
X193894004Y-98453078D01*
X193787659Y-98582659D01*
X193658078Y-98689004D01*
X193658076Y-98689005D01*
X193510242Y-98768024D01*
X193349823Y-98816687D01*
X193224804Y-98829000D01*
X193141196Y-98829000D01*
X193016177Y-98816687D01*
X192855758Y-98768024D01*
X192707924Y-98689005D01*
X192707922Y-98689004D01*
X192578341Y-98582659D01*
X192471996Y-98453078D01*
X192458465Y-98427763D01*
X192392976Y-98305242D01*
X192344313Y-98144823D01*
X192327883Y-97978000D01*
X192344313Y-97811177D01*
X192392976Y-97650758D01*
X192471995Y-97502924D01*
X192471996Y-97502922D01*
X192578341Y-97373341D01*
X192707922Y-97266996D01*
X192723094Y-97258886D01*
X192855758Y-97187976D01*
X193016177Y-97139313D01*
X193141196Y-97127000D01*
X193224804Y-97127000D01*
X193349823Y-97139313D01*
X193349823Y-97139313D01*
G37*
G36*
X167806823Y-96951313D02*
G01*
X167967242Y-96999976D01*
X168099906Y-97070886D01*
X168115078Y-97078996D01*
X168244659Y-97185341D01*
X168351004Y-97314922D01*
X168351005Y-97314924D01*
X168430024Y-97462758D01*
X168478687Y-97623177D01*
X168495117Y-97790000D01*
X168478687Y-97956823D01*
X168430024Y-98117242D01*
X168359114Y-98249906D01*
X168351004Y-98265078D01*
X168244659Y-98394659D01*
X168115078Y-98501004D01*
X168115076Y-98501005D01*
X167967242Y-98580024D01*
X167806823Y-98628687D01*
X167681804Y-98641000D01*
X167598196Y-98641000D01*
X167473177Y-98628687D01*
X167312758Y-98580024D01*
X167164924Y-98501005D01*
X167164922Y-98501004D01*
X167035341Y-98394659D01*
X166928996Y-98265078D01*
X166920886Y-98249906D01*
X166849976Y-98117242D01*
X166801313Y-97956823D01*
X166784883Y-97790000D01*
X166801313Y-97623177D01*
X166849976Y-97462758D01*
X166928995Y-97314924D01*
X166928996Y-97314922D01*
X167035341Y-97185341D01*
X167164922Y-97078996D01*
X167180094Y-97070886D01*
X167312758Y-96999976D01*
X167473177Y-96951313D01*
X167598196Y-96939000D01*
X167681804Y-96939000D01*
X167806823Y-96951313D01*
X167806823Y-96951313D01*
G37*
G36*
X176111000Y-98641000D02*
G01*
X174409000Y-98641000D01*
X174409000Y-96939000D01*
X176111000Y-96939000D01*
X176111000Y-98641000D01*
X176111000Y-98641000D01*
G37*
G36*
X193349823Y-94599313D02*
G01*
X193510242Y-94647976D01*
X193642906Y-94718886D01*
X193658078Y-94726996D01*
X193787659Y-94833341D01*
X193894004Y-94962922D01*
X193894005Y-94962924D01*
X193973024Y-95110758D01*
X194021687Y-95271177D01*
X194038117Y-95438000D01*
X194021687Y-95604823D01*
X193973024Y-95765242D01*
X193902114Y-95897906D01*
X193894004Y-95913078D01*
X193787659Y-96042659D01*
X193658078Y-96149004D01*
X193658076Y-96149005D01*
X193510242Y-96228024D01*
X193349823Y-96276687D01*
X193224804Y-96289000D01*
X193141196Y-96289000D01*
X193016177Y-96276687D01*
X192855758Y-96228024D01*
X192707924Y-96149005D01*
X192707922Y-96149004D01*
X192578341Y-96042659D01*
X192471996Y-95913078D01*
X192463886Y-95897906D01*
X192392976Y-95765242D01*
X192344313Y-95604823D01*
X192327883Y-95438000D01*
X192344313Y-95271177D01*
X192392976Y-95110758D01*
X192471995Y-94962924D01*
X192471996Y-94962922D01*
X192578341Y-94833341D01*
X192707922Y-94726996D01*
X192723094Y-94718886D01*
X192855758Y-94647976D01*
X193016177Y-94599313D01*
X193141196Y-94587000D01*
X193224804Y-94587000D01*
X193349823Y-94599313D01*
X193349823Y-94599313D01*
G37*
G36*
X185729823Y-94599313D02*
G01*
X185890242Y-94647976D01*
X186022906Y-94718886D01*
X186038078Y-94726996D01*
X186167659Y-94833341D01*
X186274004Y-94962922D01*
X186274005Y-94962924D01*
X186353024Y-95110758D01*
X186401687Y-95271177D01*
X186418117Y-95438000D01*
X186401687Y-95604823D01*
X186353024Y-95765242D01*
X186282114Y-95897906D01*
X186274004Y-95913078D01*
X186167659Y-96042659D01*
X186038078Y-96149004D01*
X186038076Y-96149005D01*
X185890242Y-96228024D01*
X185729823Y-96276687D01*
X185604804Y-96289000D01*
X185521196Y-96289000D01*
X185396177Y-96276687D01*
X185235758Y-96228024D01*
X185087924Y-96149005D01*
X185087922Y-96149004D01*
X184958341Y-96042659D01*
X184851996Y-95913078D01*
X184843886Y-95897906D01*
X184772976Y-95765242D01*
X184724313Y-95604823D01*
X184707883Y-95438000D01*
X184724313Y-95271177D01*
X184772976Y-95110758D01*
X184851995Y-94962924D01*
X184851996Y-94962922D01*
X184958341Y-94833341D01*
X185087922Y-94726996D01*
X185103094Y-94718886D01*
X185235758Y-94647976D01*
X185396177Y-94599313D01*
X185521196Y-94587000D01*
X185604804Y-94587000D01*
X185729823Y-94599313D01*
X185729823Y-94599313D01*
G37*
G36*
X185729823Y-92059313D02*
G01*
X185890242Y-92107976D01*
X185924078Y-92126062D01*
X186038078Y-92186996D01*
X186167659Y-92293341D01*
X186274004Y-92422922D01*
X186282114Y-92438094D01*
X186353024Y-92570758D01*
X186401687Y-92731177D01*
X186418117Y-92898000D01*
X186401687Y-93064823D01*
X186353024Y-93225242D01*
X186282114Y-93357906D01*
X186274004Y-93373078D01*
X186167659Y-93502659D01*
X186038078Y-93609004D01*
X186038076Y-93609005D01*
X185890242Y-93688024D01*
X185729823Y-93736687D01*
X185604804Y-93749000D01*
X185521196Y-93749000D01*
X185396177Y-93736687D01*
X185235758Y-93688024D01*
X185087924Y-93609005D01*
X185087922Y-93609004D01*
X184958341Y-93502659D01*
X184851996Y-93373078D01*
X184843886Y-93357906D01*
X184772976Y-93225242D01*
X184724313Y-93064823D01*
X184707883Y-92898000D01*
X184724313Y-92731177D01*
X184772976Y-92570758D01*
X184843886Y-92438094D01*
X184851996Y-92422922D01*
X184958341Y-92293341D01*
X185087922Y-92186996D01*
X185201922Y-92126062D01*
X185235758Y-92107976D01*
X185396177Y-92059313D01*
X185521196Y-92047000D01*
X185604804Y-92047000D01*
X185729823Y-92059313D01*
X185729823Y-92059313D01*
G37*
G36*
X193349823Y-92059313D02*
G01*
X193510242Y-92107976D01*
X193544078Y-92126062D01*
X193658078Y-92186996D01*
X193787659Y-92293341D01*
X193894004Y-92422922D01*
X193902114Y-92438094D01*
X193973024Y-92570758D01*
X194021687Y-92731177D01*
X194038117Y-92898000D01*
X194021687Y-93064823D01*
X193973024Y-93225242D01*
X193902114Y-93357906D01*
X193894004Y-93373078D01*
X193787659Y-93502659D01*
X193658078Y-93609004D01*
X193658076Y-93609005D01*
X193510242Y-93688024D01*
X193349823Y-93736687D01*
X193224804Y-93749000D01*
X193141196Y-93749000D01*
X193016177Y-93736687D01*
X192855758Y-93688024D01*
X192707924Y-93609005D01*
X192707922Y-93609004D01*
X192578341Y-93502659D01*
X192471996Y-93373078D01*
X192463886Y-93357906D01*
X192392976Y-93225242D01*
X192344313Y-93064823D01*
X192327883Y-92898000D01*
X192344313Y-92731177D01*
X192392976Y-92570758D01*
X192463886Y-92438094D01*
X192471996Y-92422922D01*
X192578341Y-92293341D01*
X192707922Y-92186996D01*
X192821922Y-92126062D01*
X192855758Y-92107976D01*
X193016177Y-92059313D01*
X193141196Y-92047000D01*
X193224804Y-92047000D01*
X193349823Y-92059313D01*
X193349823Y-92059313D01*
G37*
G36*
X174115589Y-91440876D02*
G01*
X174214893Y-91460629D01*
X174355206Y-91518748D01*
X174481484Y-91603125D01*
X174588875Y-91710516D01*
X174673252Y-91836794D01*
X174731371Y-91977107D01*
X174761000Y-92126063D01*
X174761000Y-92277937D01*
X174731371Y-92426893D01*
X174673252Y-92567206D01*
X174588875Y-92693484D01*
X174481484Y-92800875D01*
X174355206Y-92885252D01*
X174214893Y-92943371D01*
X174115589Y-92963124D01*
X174065938Y-92973000D01*
X173914062Y-92973000D01*
X173864411Y-92963124D01*
X173765107Y-92943371D01*
X173624794Y-92885252D01*
X173498516Y-92800875D01*
X173391125Y-92693484D01*
X173306748Y-92567206D01*
X173248629Y-92426893D01*
X173219000Y-92277937D01*
X173219000Y-92126063D01*
X173248629Y-91977107D01*
X173306748Y-91836794D01*
X173391125Y-91710516D01*
X173498516Y-91603125D01*
X173624794Y-91518748D01*
X173765107Y-91460629D01*
X173864411Y-91440876D01*
X173914062Y-91431000D01*
X174065938Y-91431000D01*
X174115589Y-91440876D01*
X174115589Y-91440876D01*
G37*
G36*
X171575589Y-91440876D02*
G01*
X171674893Y-91460629D01*
X171815206Y-91518748D01*
X171941484Y-91603125D01*
X172048875Y-91710516D01*
X172133252Y-91836794D01*
X172191371Y-91977107D01*
X172221000Y-92126063D01*
X172221000Y-92277937D01*
X172191371Y-92426893D01*
X172133252Y-92567206D01*
X172048875Y-92693484D01*
X171941484Y-92800875D01*
X171815206Y-92885252D01*
X171674893Y-92943371D01*
X171575589Y-92963124D01*
X171525938Y-92973000D01*
X171374062Y-92973000D01*
X171324411Y-92963124D01*
X171225107Y-92943371D01*
X171084794Y-92885252D01*
X170958516Y-92800875D01*
X170851125Y-92693484D01*
X170766748Y-92567206D01*
X170708629Y-92426893D01*
X170679000Y-92277937D01*
X170679000Y-92126063D01*
X170708629Y-91977107D01*
X170766748Y-91836794D01*
X170851125Y-91710516D01*
X170958516Y-91603125D01*
X171084794Y-91518748D01*
X171225107Y-91460629D01*
X171324411Y-91440876D01*
X171374062Y-91431000D01*
X171525938Y-91431000D01*
X171575589Y-91440876D01*
X171575589Y-91440876D01*
G37*
G36*
X169035589Y-91440876D02*
G01*
X169134893Y-91460629D01*
X169275206Y-91518748D01*
X169401484Y-91603125D01*
X169508875Y-91710516D01*
X169593252Y-91836794D01*
X169651371Y-91977107D01*
X169681000Y-92126063D01*
X169681000Y-92277937D01*
X169651371Y-92426893D01*
X169593252Y-92567206D01*
X169508875Y-92693484D01*
X169401484Y-92800875D01*
X169275206Y-92885252D01*
X169134893Y-92943371D01*
X169035589Y-92963124D01*
X168985938Y-92973000D01*
X168834062Y-92973000D01*
X168784411Y-92963124D01*
X168685107Y-92943371D01*
X168544794Y-92885252D01*
X168418516Y-92800875D01*
X168311125Y-92693484D01*
X168226748Y-92567206D01*
X168168629Y-92426893D01*
X168139000Y-92277937D01*
X168139000Y-92126063D01*
X168168629Y-91977107D01*
X168226748Y-91836794D01*
X168311125Y-91710516D01*
X168418516Y-91603125D01*
X168544794Y-91518748D01*
X168685107Y-91460629D01*
X168784411Y-91440876D01*
X168834062Y-91431000D01*
X168985938Y-91431000D01*
X169035589Y-91440876D01*
X169035589Y-91440876D01*
G37*
G36*
X165192059Y-89955860D02*
G01*
X165328732Y-90012472D01*
X165451735Y-90094660D01*
X165556340Y-90199265D01*
X165556341Y-90199267D01*
X165638529Y-90322270D01*
X165695140Y-90458941D01*
X165724000Y-90604032D01*
X165724000Y-90751968D01*
X165695140Y-90897059D01*
X165667968Y-90962659D01*
X165638528Y-91033732D01*
X165556340Y-91156735D01*
X165451735Y-91261340D01*
X165328732Y-91343528D01*
X165328731Y-91343529D01*
X165328730Y-91343529D01*
X165192059Y-91400140D01*
X165046968Y-91429000D01*
X164899032Y-91429000D01*
X164753941Y-91400140D01*
X164617270Y-91343529D01*
X164617269Y-91343529D01*
X164617268Y-91343528D01*
X164494265Y-91261340D01*
X164389660Y-91156735D01*
X164307472Y-91033732D01*
X164278033Y-90962659D01*
X164250860Y-90897059D01*
X164222000Y-90751968D01*
X164222000Y-90604032D01*
X164250860Y-90458941D01*
X164307471Y-90322270D01*
X164389659Y-90199267D01*
X164389660Y-90199265D01*
X164494265Y-90094660D01*
X164617268Y-90012472D01*
X164753941Y-89955860D01*
X164899032Y-89927000D01*
X165046968Y-89927000D01*
X165192059Y-89955860D01*
X165192059Y-89955860D01*
G37*
G36*
X193349823Y-89519313D02*
G01*
X193510242Y-89567976D01*
X193642906Y-89638886D01*
X193658078Y-89646996D01*
X193787659Y-89753341D01*
X193894004Y-89882922D01*
X193894005Y-89882924D01*
X193973024Y-90030758D01*
X194021687Y-90191177D01*
X194038117Y-90358000D01*
X194021687Y-90524823D01*
X193973024Y-90685242D01*
X193937358Y-90751968D01*
X193894004Y-90833078D01*
X193787659Y-90962659D01*
X193658078Y-91069004D01*
X193658076Y-91069005D01*
X193510242Y-91148024D01*
X193349823Y-91196687D01*
X193224804Y-91209000D01*
X193141196Y-91209000D01*
X193016177Y-91196687D01*
X192855758Y-91148024D01*
X192707924Y-91069005D01*
X192707922Y-91069004D01*
X192578341Y-90962659D01*
X192471996Y-90833078D01*
X192428642Y-90751968D01*
X192392976Y-90685242D01*
X192344313Y-90524823D01*
X192327883Y-90358000D01*
X192344313Y-90191177D01*
X192392976Y-90030758D01*
X192471995Y-89882924D01*
X192471996Y-89882922D01*
X192578341Y-89753341D01*
X192707922Y-89646996D01*
X192723094Y-89638886D01*
X192855758Y-89567976D01*
X193016177Y-89519313D01*
X193141196Y-89507000D01*
X193224804Y-89507000D01*
X193349823Y-89519313D01*
X193349823Y-89519313D01*
G37*
G36*
X186414000Y-91209000D02*
G01*
X184712000Y-91209000D01*
X184712000Y-89507000D01*
X186414000Y-89507000D01*
X186414000Y-91209000D01*
X186414000Y-91209000D01*
G37*
G36*
X165046665Y-87390622D02*
G01*
X165120222Y-87397867D01*
X165261786Y-87440810D01*
X165392252Y-87510546D01*
X165422040Y-87534992D01*
X165506607Y-87604393D01*
X165576008Y-87688960D01*
X165600454Y-87718748D01*
X165670190Y-87849214D01*
X165713133Y-87990778D01*
X165727633Y-88138000D01*
X165713133Y-88285222D01*
X165670190Y-88426786D01*
X165600454Y-88557252D01*
X165576008Y-88587040D01*
X165506607Y-88671607D01*
X165422040Y-88741008D01*
X165392252Y-88765454D01*
X165261786Y-88835190D01*
X165120222Y-88878133D01*
X165046665Y-88885378D01*
X165009888Y-88889000D01*
X164936112Y-88889000D01*
X164899335Y-88885378D01*
X164825778Y-88878133D01*
X164684214Y-88835190D01*
X164553748Y-88765454D01*
X164523960Y-88741008D01*
X164439393Y-88671607D01*
X164369992Y-88587040D01*
X164345546Y-88557252D01*
X164275810Y-88426786D01*
X164232867Y-88285222D01*
X164218367Y-88138000D01*
X164232867Y-87990778D01*
X164275810Y-87849214D01*
X164345546Y-87718748D01*
X164369992Y-87688960D01*
X164439393Y-87604393D01*
X164523960Y-87534992D01*
X164553748Y-87510546D01*
X164684214Y-87440810D01*
X164825778Y-87397867D01*
X164899335Y-87390622D01*
X164936112Y-87387000D01*
X165009888Y-87387000D01*
X165046665Y-87390622D01*
X165046665Y-87390622D01*
G37*
G36*
X195646935Y-84676742D02*
G01*
X195797258Y-84739008D01*
X195932545Y-84829404D01*
X196047596Y-84944455D01*
X196137992Y-85079742D01*
X196200258Y-85230065D01*
X196232000Y-85389646D01*
X196232000Y-85552354D01*
X196200258Y-85711935D01*
X196137992Y-85862258D01*
X196047596Y-85997545D01*
X195932545Y-86112596D01*
X195797258Y-86202992D01*
X195646935Y-86265258D01*
X195487354Y-86297000D01*
X195324646Y-86297000D01*
X195165065Y-86265258D01*
X195014742Y-86202992D01*
X194879455Y-86112596D01*
X194764404Y-85997545D01*
X194674008Y-85862258D01*
X194611742Y-85711935D01*
X194580000Y-85552354D01*
X194580000Y-85389646D01*
X194611742Y-85230065D01*
X194674008Y-85079742D01*
X194764404Y-84944455D01*
X194879455Y-84829404D01*
X195014742Y-84739008D01*
X195165065Y-84676742D01*
X195324646Y-84645000D01*
X195487354Y-84645000D01*
X195646935Y-84676742D01*
X195646935Y-84676742D01*
G37*
G36*
X201232000Y-86297000D02*
G01*
X199580000Y-86297000D01*
X199580000Y-84645000D01*
X201232000Y-84645000D01*
X201232000Y-86297000D01*
X201232000Y-86297000D01*
G37*
G36*
X171016999Y-83554737D02*
G01*
X171026608Y-83557652D01*
X171035472Y-83562390D01*
X171043865Y-83569278D01*
X171052439Y-83579457D01*
X171118690Y-83673313D01*
X171134715Y-83691850D01*
X171154049Y-83706905D01*
X171175948Y-83717899D01*
X171199572Y-83724409D01*
X171224011Y-83726186D01*
X171248328Y-83723160D01*
X171271587Y-83715449D01*
X171292895Y-83703348D01*
X171311432Y-83687323D01*
X171326487Y-83667989D01*
X171337481Y-83646090D01*
X171345480Y-83610290D01*
X171346497Y-83596296D01*
X171349168Y-83586605D01*
X171352427Y-83580114D01*
X171353674Y-83577629D01*
X171356761Y-83573666D01*
X171359847Y-83569702D01*
X171367446Y-83563133D01*
X171376181Y-83558172D01*
X171380805Y-83556639D01*
X171385718Y-83555010D01*
X171397000Y-83553753D01*
X171398517Y-83553753D01*
X171403945Y-83553148D01*
X173690860Y-83553148D01*
X173706999Y-83554737D01*
X173716608Y-83557652D01*
X173725472Y-83562390D01*
X173733237Y-83568763D01*
X173739610Y-83576528D01*
X173744348Y-83585392D01*
X173747263Y-83595001D01*
X173748852Y-83611140D01*
X173748852Y-85298860D01*
X173747263Y-85314999D01*
X173744348Y-85324608D01*
X173739610Y-85333472D01*
X173733237Y-85341237D01*
X173725472Y-85347610D01*
X173716608Y-85352348D01*
X173706999Y-85355263D01*
X173690860Y-85356852D01*
X171403140Y-85356852D01*
X171387001Y-85355263D01*
X171377392Y-85352348D01*
X171368528Y-85347610D01*
X171360763Y-85341237D01*
X171354390Y-85333472D01*
X171349652Y-85324608D01*
X171346737Y-85314999D01*
X171344953Y-85296881D01*
X171340173Y-85272847D01*
X171330796Y-85250209D01*
X171317182Y-85229834D01*
X171299855Y-85212507D01*
X171279481Y-85198893D01*
X171256842Y-85189516D01*
X171232809Y-85184735D01*
X171208305Y-85184735D01*
X171184271Y-85189515D01*
X171161633Y-85198892D01*
X171141258Y-85212506D01*
X171118436Y-85237047D01*
X171052903Y-85329886D01*
X171042298Y-85342153D01*
X171038334Y-85345240D01*
X171034371Y-85348326D01*
X171029910Y-85350565D01*
X171025395Y-85352832D01*
X171025393Y-85352833D01*
X171025392Y-85352833D01*
X171023476Y-85353361D01*
X171014927Y-85355717D01*
X171001662Y-85356852D01*
X170313140Y-85356852D01*
X170287136Y-85354291D01*
X170282461Y-85353361D01*
X170270207Y-85352759D01*
X170229825Y-85352759D01*
X170207545Y-85350565D01*
X170056164Y-85320453D01*
X170034745Y-85313955D01*
X169892146Y-85254889D01*
X169872401Y-85244335D01*
X169744064Y-85158583D01*
X169726759Y-85144382D01*
X169617618Y-85035241D01*
X169603417Y-85017936D01*
X169517665Y-84889599D01*
X169507111Y-84869854D01*
X169448045Y-84727255D01*
X169441547Y-84705836D01*
X169411435Y-84554455D01*
X169409241Y-84532175D01*
X169409241Y-84377825D01*
X169411435Y-84355545D01*
X169441547Y-84204164D01*
X169448045Y-84182745D01*
X169507111Y-84040146D01*
X169517665Y-84020401D01*
X169603417Y-83892064D01*
X169617618Y-83874759D01*
X169726759Y-83765618D01*
X169744064Y-83751417D01*
X169872401Y-83665665D01*
X169892146Y-83655111D01*
X170034745Y-83596045D01*
X170056164Y-83589547D01*
X170207545Y-83559435D01*
X170229825Y-83557241D01*
X170270207Y-83557241D01*
X170284737Y-83555810D01*
X170284750Y-83555944D01*
X170313140Y-83553148D01*
X171000860Y-83553148D01*
X171016999Y-83554737D01*
X171016999Y-83554737D01*
G37*
G36*
X165809999Y-83554737D02*
G01*
X165819608Y-83557652D01*
X165828472Y-83562390D01*
X165836865Y-83569278D01*
X165845439Y-83579457D01*
X165911690Y-83673313D01*
X165927715Y-83691850D01*
X165947049Y-83706905D01*
X165968948Y-83717899D01*
X165992572Y-83724409D01*
X166017011Y-83726186D01*
X166041328Y-83723160D01*
X166064587Y-83715449D01*
X166085895Y-83703348D01*
X166104432Y-83687323D01*
X166119487Y-83667989D01*
X166130481Y-83646090D01*
X166138480Y-83610290D01*
X166139497Y-83596296D01*
X166142168Y-83586605D01*
X166145427Y-83580114D01*
X166146674Y-83577629D01*
X166149761Y-83573666D01*
X166152847Y-83569702D01*
X166160446Y-83563133D01*
X166169181Y-83558172D01*
X166173805Y-83556639D01*
X166178718Y-83555010D01*
X166190000Y-83553753D01*
X166191517Y-83553753D01*
X166196945Y-83553148D01*
X168483860Y-83553148D01*
X168499999Y-83554737D01*
X168509608Y-83557652D01*
X168518472Y-83562390D01*
X168526237Y-83568763D01*
X168532610Y-83576528D01*
X168537348Y-83585392D01*
X168540263Y-83595001D01*
X168541852Y-83611140D01*
X168541852Y-85298860D01*
X168540263Y-85314999D01*
X168537348Y-85324608D01*
X168532610Y-85333472D01*
X168526237Y-85341237D01*
X168518472Y-85347610D01*
X168509608Y-85352348D01*
X168499999Y-85355263D01*
X168483860Y-85356852D01*
X166196140Y-85356852D01*
X166180001Y-85355263D01*
X166170392Y-85352348D01*
X166161528Y-85347610D01*
X166153763Y-85341237D01*
X166147390Y-85333472D01*
X166142652Y-85324608D01*
X166139737Y-85314999D01*
X166137953Y-85296881D01*
X166133173Y-85272847D01*
X166123796Y-85250209D01*
X166110182Y-85229834D01*
X166092855Y-85212507D01*
X166072481Y-85198893D01*
X166049842Y-85189516D01*
X166025809Y-85184735D01*
X166001305Y-85184735D01*
X165977271Y-85189515D01*
X165954633Y-85198892D01*
X165934258Y-85212506D01*
X165911436Y-85237047D01*
X165845903Y-85329886D01*
X165835298Y-85342153D01*
X165831334Y-85345240D01*
X165827371Y-85348326D01*
X165822910Y-85350565D01*
X165818395Y-85352832D01*
X165818393Y-85352833D01*
X165818392Y-85352833D01*
X165816476Y-85353361D01*
X165807927Y-85355717D01*
X165794662Y-85356852D01*
X165106140Y-85356852D01*
X165080136Y-85354291D01*
X165075461Y-85353361D01*
X165063207Y-85352759D01*
X165022825Y-85352759D01*
X165000545Y-85350565D01*
X164849164Y-85320453D01*
X164827745Y-85313955D01*
X164685146Y-85254889D01*
X164665401Y-85244335D01*
X164537064Y-85158583D01*
X164519759Y-85144382D01*
X164410618Y-85035241D01*
X164396417Y-85017936D01*
X164310665Y-84889599D01*
X164300111Y-84869854D01*
X164241045Y-84727255D01*
X164234547Y-84705836D01*
X164204435Y-84554455D01*
X164202241Y-84532175D01*
X164202241Y-84377825D01*
X164204435Y-84355545D01*
X164234547Y-84204164D01*
X164241045Y-84182745D01*
X164300111Y-84040146D01*
X164310665Y-84020401D01*
X164396417Y-83892064D01*
X164410618Y-83874759D01*
X164519759Y-83765618D01*
X164537064Y-83751417D01*
X164665401Y-83665665D01*
X164685146Y-83655111D01*
X164827745Y-83596045D01*
X164849164Y-83589547D01*
X165000545Y-83559435D01*
X165022825Y-83557241D01*
X165063207Y-83557241D01*
X165077737Y-83555810D01*
X165077750Y-83555944D01*
X165106140Y-83553148D01*
X165793860Y-83553148D01*
X165809999Y-83554737D01*
X165809999Y-83554737D01*
G37*
G36*
X186625999Y-83554737D02*
G01*
X186635608Y-83557652D01*
X186644472Y-83562390D01*
X186652237Y-83568763D01*
X186658610Y-83576528D01*
X186663348Y-83585392D01*
X186666263Y-83595001D01*
X186668047Y-83613119D01*
X186672827Y-83637153D01*
X186682204Y-83659791D01*
X186695818Y-83680166D01*
X186713145Y-83697493D01*
X186733519Y-83711107D01*
X186756158Y-83720484D01*
X186780191Y-83725265D01*
X186804695Y-83725265D01*
X186828729Y-83720485D01*
X186851367Y-83711108D01*
X186871742Y-83697494D01*
X186894564Y-83672953D01*
X186960097Y-83580114D01*
X186970702Y-83567847D01*
X186977710Y-83562390D01*
X186978629Y-83561674D01*
X186984293Y-83558831D01*
X186987605Y-83557168D01*
X186987607Y-83557167D01*
X186987608Y-83557167D01*
X186997293Y-83554498D01*
X186998073Y-83554283D01*
X187011338Y-83553148D01*
X187699860Y-83553148D01*
X187725864Y-83555709D01*
X187730539Y-83556639D01*
X187742793Y-83557241D01*
X187783175Y-83557241D01*
X187805455Y-83559435D01*
X187956836Y-83589547D01*
X187978255Y-83596045D01*
X188120854Y-83655111D01*
X188140599Y-83665665D01*
X188268936Y-83751417D01*
X188286241Y-83765618D01*
X188395382Y-83874759D01*
X188409583Y-83892064D01*
X188495335Y-84020401D01*
X188505889Y-84040146D01*
X188564955Y-84182745D01*
X188571453Y-84204164D01*
X188601565Y-84355545D01*
X188603759Y-84377825D01*
X188603759Y-84532175D01*
X188601565Y-84554455D01*
X188571453Y-84705836D01*
X188564955Y-84727255D01*
X188505889Y-84869854D01*
X188495335Y-84889599D01*
X188409583Y-85017936D01*
X188395382Y-85035241D01*
X188286241Y-85144382D01*
X188268936Y-85158583D01*
X188140599Y-85244335D01*
X188120854Y-85254889D01*
X187978255Y-85313955D01*
X187956836Y-85320453D01*
X187805455Y-85350565D01*
X187783175Y-85352759D01*
X187742793Y-85352759D01*
X187728263Y-85354190D01*
X187728250Y-85354056D01*
X187699860Y-85356852D01*
X187012140Y-85356852D01*
X186996001Y-85355263D01*
X186986392Y-85352348D01*
X186977528Y-85347610D01*
X186969135Y-85340722D01*
X186960561Y-85330543D01*
X186894310Y-85236687D01*
X186878285Y-85218150D01*
X186858951Y-85203095D01*
X186837052Y-85192101D01*
X186813428Y-85185591D01*
X186788989Y-85183814D01*
X186764672Y-85186840D01*
X186741413Y-85194551D01*
X186720105Y-85206652D01*
X186701568Y-85222677D01*
X186686513Y-85242011D01*
X186675519Y-85263910D01*
X186667520Y-85299710D01*
X186666503Y-85313704D01*
X186663832Y-85323395D01*
X186663223Y-85324608D01*
X186659326Y-85332371D01*
X186656239Y-85336334D01*
X186653153Y-85340298D01*
X186645554Y-85346867D01*
X186636819Y-85351828D01*
X186633790Y-85352832D01*
X186627282Y-85354990D01*
X186616000Y-85356247D01*
X186614483Y-85356247D01*
X186609055Y-85356852D01*
X184322140Y-85356852D01*
X184306001Y-85355263D01*
X184296392Y-85352348D01*
X184287528Y-85347610D01*
X184279763Y-85341237D01*
X184273390Y-85333472D01*
X184268652Y-85324608D01*
X184265737Y-85314999D01*
X184264148Y-85298860D01*
X184264148Y-83611140D01*
X184265737Y-83595001D01*
X184268652Y-83585392D01*
X184273390Y-83576528D01*
X184279763Y-83568763D01*
X184287528Y-83562390D01*
X184296392Y-83557652D01*
X184306001Y-83554737D01*
X184322140Y-83553148D01*
X186609860Y-83553148D01*
X186625999Y-83554737D01*
X186625999Y-83554737D01*
G37*
G36*
X198146935Y-79676742D02*
G01*
X198297258Y-79739008D01*
X198432545Y-79829404D01*
X198547596Y-79944455D01*
X198637992Y-80079742D01*
X198700258Y-80230065D01*
X198732000Y-80389646D01*
X198732000Y-80552354D01*
X198700258Y-80711935D01*
X198637992Y-80862258D01*
X198547596Y-80997545D01*
X198432545Y-81112596D01*
X198297258Y-81202992D01*
X198146935Y-81265258D01*
X197987354Y-81297000D01*
X197824646Y-81297000D01*
X197665065Y-81265258D01*
X197514742Y-81202992D01*
X197379455Y-81112596D01*
X197264404Y-80997545D01*
X197174008Y-80862258D01*
X197111742Y-80711935D01*
X197080000Y-80552354D01*
X197080000Y-80389646D01*
X197111742Y-80230065D01*
X197174008Y-80079742D01*
X197264404Y-79944455D01*
X197379455Y-79829404D01*
X197514742Y-79739008D01*
X197665065Y-79676742D01*
X197824646Y-79645000D01*
X197987354Y-79645000D01*
X198146935Y-79676742D01*
X198146935Y-79676742D01*
G37*
G36*
X204072443Y-77718519D02*
G01*
X204138627Y-77725037D01*
X204308466Y-77776557D01*
X204464991Y-77860222D01*
X204500729Y-77889552D01*
X204602186Y-77972814D01*
X204650426Y-78031596D01*
X204714778Y-78110009D01*
X204798443Y-78266534D01*
X204849963Y-78436373D01*
X204867359Y-78613000D01*
X204849963Y-78789627D01*
X204798443Y-78959466D01*
X204714778Y-79115991D01*
X204685448Y-79151729D01*
X204602186Y-79253186D01*
X204500729Y-79336448D01*
X204464991Y-79365778D01*
X204308466Y-79449443D01*
X204138627Y-79500963D01*
X204072443Y-79507481D01*
X204006260Y-79514000D01*
X203917740Y-79514000D01*
X203851557Y-79507481D01*
X203785373Y-79500963D01*
X203615534Y-79449443D01*
X203459009Y-79365778D01*
X203423271Y-79336448D01*
X203321814Y-79253186D01*
X203238552Y-79151729D01*
X203209222Y-79115991D01*
X203125557Y-78959466D01*
X203074037Y-78789627D01*
X203056641Y-78613000D01*
X203074037Y-78436373D01*
X203125557Y-78266534D01*
X203209222Y-78110009D01*
X203273574Y-78031596D01*
X203321814Y-77972814D01*
X203423271Y-77889552D01*
X203459009Y-77860222D01*
X203615534Y-77776557D01*
X203785373Y-77725037D01*
X203851557Y-77718519D01*
X203917740Y-77712000D01*
X204006260Y-77712000D01*
X204072443Y-77718519D01*
X204072443Y-77718519D01*
G37*
G36*
X206612443Y-77718519D02*
G01*
X206678627Y-77725037D01*
X206848466Y-77776557D01*
X207004991Y-77860222D01*
X207040729Y-77889552D01*
X207142186Y-77972814D01*
X207190426Y-78031596D01*
X207254778Y-78110009D01*
X207338443Y-78266534D01*
X207389963Y-78436373D01*
X207407359Y-78613000D01*
X207389963Y-78789627D01*
X207338443Y-78959466D01*
X207254778Y-79115991D01*
X207225448Y-79151729D01*
X207142186Y-79253186D01*
X207040729Y-79336448D01*
X207004991Y-79365778D01*
X206848466Y-79449443D01*
X206678627Y-79500963D01*
X206612443Y-79507481D01*
X206546260Y-79514000D01*
X206457740Y-79514000D01*
X206391557Y-79507481D01*
X206325373Y-79500963D01*
X206155534Y-79449443D01*
X205999009Y-79365778D01*
X205963271Y-79336448D01*
X205861814Y-79253186D01*
X205778552Y-79151729D01*
X205749222Y-79115991D01*
X205665557Y-78959466D01*
X205614037Y-78789627D01*
X205596641Y-78613000D01*
X205614037Y-78436373D01*
X205665557Y-78266534D01*
X205749222Y-78110009D01*
X205813574Y-78031596D01*
X205861814Y-77972814D01*
X205963271Y-77889552D01*
X205999009Y-77860222D01*
X206155534Y-77776557D01*
X206325373Y-77725037D01*
X206391557Y-77718519D01*
X206457740Y-77712000D01*
X206546260Y-77712000D01*
X206612443Y-77718519D01*
X206612443Y-77718519D01*
G37*
G36*
X166833823Y-77262313D02*
G01*
X166964380Y-77301917D01*
X166986565Y-77308647D01*
X166994242Y-77310976D01*
X167126906Y-77381886D01*
X167142078Y-77389996D01*
X167271659Y-77496341D01*
X167378004Y-77625922D01*
X167378005Y-77625924D01*
X167457024Y-77773758D01*
X167505687Y-77934177D01*
X167522117Y-78101000D01*
X167505687Y-78267823D01*
X167457024Y-78428242D01*
X167386114Y-78560906D01*
X167378004Y-78576078D01*
X167271659Y-78705659D01*
X167142078Y-78812004D01*
X167142076Y-78812005D01*
X166994242Y-78891024D01*
X166833823Y-78939687D01*
X166708804Y-78952000D01*
X166625196Y-78952000D01*
X166500177Y-78939687D01*
X166339758Y-78891024D01*
X166191924Y-78812005D01*
X166191922Y-78812004D01*
X166062341Y-78705659D01*
X165955996Y-78576078D01*
X165947886Y-78560906D01*
X165876976Y-78428242D01*
X165828313Y-78267823D01*
X165811883Y-78101000D01*
X165828313Y-77934177D01*
X165876976Y-77773758D01*
X165955995Y-77625924D01*
X165955996Y-77625922D01*
X166062341Y-77496341D01*
X166191922Y-77389996D01*
X166207094Y-77381886D01*
X166339758Y-77310976D01*
X166347436Y-77308647D01*
X166369620Y-77301917D01*
X166500177Y-77262313D01*
X166625196Y-77250000D01*
X166708804Y-77250000D01*
X166833823Y-77262313D01*
X166833823Y-77262313D01*
G37*
G36*
X169373823Y-77262313D02*
G01*
X169504380Y-77301917D01*
X169526565Y-77308647D01*
X169534242Y-77310976D01*
X169666906Y-77381886D01*
X169682078Y-77389996D01*
X169811659Y-77496341D01*
X169918004Y-77625922D01*
X169918005Y-77625924D01*
X169997024Y-77773758D01*
X170045687Y-77934177D01*
X170062117Y-78101000D01*
X170045687Y-78267823D01*
X169997024Y-78428242D01*
X169926114Y-78560906D01*
X169918004Y-78576078D01*
X169811659Y-78705659D01*
X169682078Y-78812004D01*
X169682076Y-78812005D01*
X169534242Y-78891024D01*
X169373823Y-78939687D01*
X169248804Y-78952000D01*
X169165196Y-78952000D01*
X169040177Y-78939687D01*
X168879758Y-78891024D01*
X168731924Y-78812005D01*
X168731922Y-78812004D01*
X168602341Y-78705659D01*
X168495996Y-78576078D01*
X168487886Y-78560906D01*
X168416976Y-78428242D01*
X168368313Y-78267823D01*
X168351883Y-78101000D01*
X168368313Y-77934177D01*
X168416976Y-77773758D01*
X168495995Y-77625924D01*
X168495996Y-77625922D01*
X168602341Y-77496341D01*
X168731922Y-77389996D01*
X168747094Y-77381886D01*
X168879758Y-77310976D01*
X168887436Y-77308647D01*
X168909620Y-77301917D01*
X169040177Y-77262313D01*
X169165196Y-77250000D01*
X169248804Y-77250000D01*
X169373823Y-77262313D01*
X169373823Y-77262313D01*
G37*
G36*
X164293823Y-77262313D02*
G01*
X164424380Y-77301917D01*
X164446565Y-77308647D01*
X164454242Y-77310976D01*
X164586906Y-77381886D01*
X164602078Y-77389996D01*
X164731659Y-77496341D01*
X164838004Y-77625922D01*
X164838005Y-77625924D01*
X164917024Y-77773758D01*
X164965687Y-77934177D01*
X164982117Y-78101000D01*
X164965687Y-78267823D01*
X164917024Y-78428242D01*
X164846114Y-78560906D01*
X164838004Y-78576078D01*
X164731659Y-78705659D01*
X164602078Y-78812004D01*
X164602076Y-78812005D01*
X164454242Y-78891024D01*
X164293823Y-78939687D01*
X164168804Y-78952000D01*
X164085196Y-78952000D01*
X163960177Y-78939687D01*
X163799758Y-78891024D01*
X163651924Y-78812005D01*
X163651922Y-78812004D01*
X163522341Y-78705659D01*
X163415996Y-78576078D01*
X163407886Y-78560906D01*
X163336976Y-78428242D01*
X163288313Y-78267823D01*
X163271883Y-78101000D01*
X163288313Y-77934177D01*
X163336976Y-77773758D01*
X163415995Y-77625924D01*
X163415996Y-77625922D01*
X163522341Y-77496341D01*
X163651922Y-77389996D01*
X163667094Y-77381886D01*
X163799758Y-77310976D01*
X163807436Y-77308647D01*
X163829620Y-77301917D01*
X163960177Y-77262313D01*
X164085196Y-77250000D01*
X164168804Y-77250000D01*
X164293823Y-77262313D01*
X164293823Y-77262313D01*
G37*
G36*
X197050935Y-76595742D02*
G01*
X197201258Y-76658008D01*
X197336545Y-76748404D01*
X197451596Y-76863455D01*
X197541992Y-76998742D01*
X197604258Y-77149065D01*
X197636000Y-77308646D01*
X197636000Y-77471354D01*
X197604258Y-77630935D01*
X197541992Y-77781258D01*
X197451596Y-77916545D01*
X197336545Y-78031596D01*
X197201258Y-78121992D01*
X197050935Y-78184258D01*
X196891354Y-78216000D01*
X196728646Y-78216000D01*
X196569065Y-78184258D01*
X196418742Y-78121992D01*
X196283455Y-78031596D01*
X196168404Y-77916545D01*
X196078008Y-77781258D01*
X196015742Y-77630935D01*
X195984000Y-77471354D01*
X195984000Y-77308646D01*
X196015742Y-77149065D01*
X196078008Y-76998742D01*
X196168404Y-76863455D01*
X196283455Y-76748404D01*
X196418742Y-76658008D01*
X196569065Y-76595742D01*
X196728646Y-76564000D01*
X196891354Y-76564000D01*
X197050935Y-76595742D01*
X197050935Y-76595742D01*
G37*
G36*
X206612442Y-75178518D02*
G01*
X206678627Y-75185037D01*
X206848466Y-75236557D01*
X207004991Y-75320222D01*
X207015337Y-75328713D01*
X207142186Y-75432814D01*
X207195876Y-75498237D01*
X207254778Y-75570009D01*
X207338443Y-75726534D01*
X207389963Y-75896373D01*
X207407359Y-76073000D01*
X207389963Y-76249627D01*
X207338443Y-76419466D01*
X207254778Y-76575991D01*
X207238568Y-76595743D01*
X207142186Y-76713186D01*
X207073980Y-76769160D01*
X207004991Y-76825778D01*
X206848466Y-76909443D01*
X206678627Y-76960963D01*
X206612442Y-76967482D01*
X206546260Y-76974000D01*
X206457740Y-76974000D01*
X206391558Y-76967482D01*
X206325373Y-76960963D01*
X206155534Y-76909443D01*
X205999009Y-76825778D01*
X205930020Y-76769160D01*
X205861814Y-76713186D01*
X205765432Y-76595743D01*
X205749222Y-76575991D01*
X205665557Y-76419466D01*
X205614037Y-76249627D01*
X205596641Y-76073000D01*
X205614037Y-75896373D01*
X205665557Y-75726534D01*
X205749222Y-75570009D01*
X205808124Y-75498237D01*
X205861814Y-75432814D01*
X205988663Y-75328713D01*
X205999009Y-75320222D01*
X206155534Y-75236557D01*
X206325373Y-75185037D01*
X206391558Y-75178518D01*
X206457740Y-75172000D01*
X206546260Y-75172000D01*
X206612442Y-75178518D01*
X206612442Y-75178518D01*
G37*
G36*
X204072442Y-75178518D02*
G01*
X204138627Y-75185037D01*
X204308466Y-75236557D01*
X204464991Y-75320222D01*
X204475337Y-75328713D01*
X204602186Y-75432814D01*
X204655876Y-75498237D01*
X204714778Y-75570009D01*
X204798443Y-75726534D01*
X204849963Y-75896373D01*
X204867359Y-76073000D01*
X204849963Y-76249627D01*
X204798443Y-76419466D01*
X204714778Y-76575991D01*
X204698568Y-76595743D01*
X204602186Y-76713186D01*
X204533980Y-76769160D01*
X204464991Y-76825778D01*
X204308466Y-76909443D01*
X204138627Y-76960963D01*
X204072442Y-76967482D01*
X204006260Y-76974000D01*
X203917740Y-76974000D01*
X203851558Y-76967482D01*
X203785373Y-76960963D01*
X203615534Y-76909443D01*
X203459009Y-76825778D01*
X203390020Y-76769160D01*
X203321814Y-76713186D01*
X203225432Y-76595743D01*
X203209222Y-76575991D01*
X203125557Y-76419466D01*
X203074037Y-76249627D01*
X203056641Y-76073000D01*
X203074037Y-75896373D01*
X203125557Y-75726534D01*
X203209222Y-75570009D01*
X203268124Y-75498237D01*
X203321814Y-75432814D01*
X203448663Y-75328713D01*
X203459009Y-75320222D01*
X203615534Y-75236557D01*
X203785373Y-75185037D01*
X203851558Y-75178518D01*
X203917740Y-75172000D01*
X204006260Y-75172000D01*
X204072442Y-75178518D01*
X204072442Y-75178518D01*
G37*
G36*
X168176916Y-75339834D02*
G01*
X168285492Y-75372771D01*
X168285495Y-75372772D01*
X168321601Y-75392071D01*
X168385557Y-75426256D01*
X168473264Y-75498236D01*
X168536383Y-75575146D01*
X168553702Y-75592465D01*
X168574077Y-75606079D01*
X168596716Y-75615457D01*
X168620749Y-75620237D01*
X168645253Y-75620237D01*
X168669286Y-75615457D01*
X168691925Y-75606079D01*
X168712299Y-75592466D01*
X168729626Y-75575139D01*
X168743240Y-75554764D01*
X168752618Y-75532125D01*
X168757398Y-75508092D01*
X168758000Y-75495840D01*
X168758000Y-75331500D01*
X169910000Y-75331500D01*
X169910000Y-76933500D01*
X168758000Y-76933500D01*
X168758000Y-76769160D01*
X168755598Y-76744774D01*
X168748485Y-76721325D01*
X168736934Y-76699714D01*
X168721389Y-76680772D01*
X168702447Y-76665227D01*
X168680836Y-76653676D01*
X168657387Y-76646563D01*
X168633001Y-76644161D01*
X168608615Y-76646563D01*
X168585166Y-76653676D01*
X168563555Y-76665227D01*
X168536381Y-76689856D01*
X168473264Y-76766764D01*
X168385556Y-76838744D01*
X168339324Y-76863455D01*
X168285494Y-76892228D01*
X168285491Y-76892229D01*
X168176915Y-76925166D01*
X168064000Y-76936287D01*
X167951084Y-76925166D01*
X167842508Y-76892229D01*
X167842505Y-76892228D01*
X167788675Y-76863455D01*
X167742443Y-76838744D01*
X167654736Y-76766764D01*
X167582756Y-76679056D01*
X167539239Y-76597640D01*
X167525625Y-76577266D01*
X167508298Y-76559939D01*
X167487924Y-76546325D01*
X167465285Y-76536948D01*
X167441251Y-76532168D01*
X167416747Y-76532168D01*
X167392714Y-76536949D01*
X167370075Y-76546326D01*
X167349701Y-76559940D01*
X167332374Y-76577267D01*
X167318762Y-76597640D01*
X167275244Y-76679057D01*
X167203264Y-76766764D01*
X167115556Y-76838744D01*
X167069324Y-76863455D01*
X167015494Y-76892228D01*
X167015491Y-76892229D01*
X166906915Y-76925166D01*
X166794000Y-76936287D01*
X166681084Y-76925166D01*
X166572508Y-76892229D01*
X166572505Y-76892228D01*
X166518675Y-76863455D01*
X166472443Y-76838744D01*
X166384736Y-76766764D01*
X166312756Y-76679056D01*
X166268224Y-76595742D01*
X166259272Y-76578994D01*
X166258360Y-76575989D01*
X166226334Y-76470415D01*
X166218000Y-76385797D01*
X166218000Y-75879202D01*
X166226334Y-75794584D01*
X166259271Y-75686008D01*
X166259272Y-75686005D01*
X166312756Y-75585945D01*
X166312757Y-75585943D01*
X166384737Y-75498236D01*
X166472444Y-75426256D01*
X166536400Y-75392071D01*
X166572506Y-75372772D01*
X166572509Y-75372771D01*
X166681085Y-75339834D01*
X166794000Y-75328713D01*
X166906916Y-75339834D01*
X167015492Y-75372771D01*
X167015495Y-75372772D01*
X167051601Y-75392071D01*
X167115557Y-75426256D01*
X167203264Y-75498236D01*
X167275244Y-75585943D01*
X167291019Y-75615457D01*
X167318761Y-75667359D01*
X167332375Y-75687734D01*
X167349702Y-75705061D01*
X167370076Y-75718674D01*
X167392715Y-75728052D01*
X167416748Y-75732832D01*
X167441252Y-75732832D01*
X167465285Y-75728052D01*
X167487924Y-75718674D01*
X167508299Y-75705060D01*
X167525626Y-75687733D01*
X167539239Y-75667359D01*
X167582756Y-75585945D01*
X167582757Y-75585943D01*
X167654737Y-75498236D01*
X167742444Y-75426256D01*
X167806400Y-75392071D01*
X167842506Y-75372772D01*
X167842509Y-75372771D01*
X167951085Y-75339834D01*
X168064000Y-75328713D01*
X168176916Y-75339834D01*
X168176916Y-75339834D01*
G37*
G36*
X175147000Y-76761000D02*
G01*
X173445000Y-76761000D01*
X173445000Y-75059000D01*
X175147000Y-75059000D01*
X175147000Y-76761000D01*
X175147000Y-76761000D01*
G37*
G36*
X177002823Y-75071313D02*
G01*
X177163242Y-75119976D01*
X177260572Y-75172000D01*
X177311078Y-75198996D01*
X177440659Y-75305341D01*
X177547004Y-75434922D01*
X177547005Y-75434924D01*
X177626024Y-75582758D01*
X177674687Y-75743177D01*
X177691117Y-75910000D01*
X177674687Y-76076823D01*
X177626024Y-76237242D01*
X177619405Y-76249625D01*
X177547004Y-76385078D01*
X177440659Y-76514659D01*
X177311078Y-76621004D01*
X177311076Y-76621005D01*
X177163242Y-76700024D01*
X177002823Y-76748687D01*
X176877804Y-76761000D01*
X176794196Y-76761000D01*
X176669177Y-76748687D01*
X176508758Y-76700024D01*
X176360924Y-76621005D01*
X176360922Y-76621004D01*
X176231341Y-76514659D01*
X176124996Y-76385078D01*
X176052595Y-76249625D01*
X176045976Y-76237242D01*
X175997313Y-76076823D01*
X175980883Y-75910000D01*
X175997313Y-75743177D01*
X176045976Y-75582758D01*
X176124995Y-75434924D01*
X176124996Y-75434922D01*
X176231341Y-75305341D01*
X176360922Y-75198996D01*
X176411428Y-75172000D01*
X176508758Y-75119976D01*
X176669177Y-75071313D01*
X176794196Y-75059000D01*
X176877804Y-75059000D01*
X177002823Y-75071313D01*
X177002823Y-75071313D01*
G37*
G36*
X179542823Y-75071313D02*
G01*
X179703242Y-75119976D01*
X179800572Y-75172000D01*
X179851078Y-75198996D01*
X179980659Y-75305341D01*
X180087004Y-75434922D01*
X180087005Y-75434924D01*
X180166024Y-75582758D01*
X180214687Y-75743177D01*
X180231117Y-75910000D01*
X180214687Y-76076823D01*
X180166024Y-76237242D01*
X180159405Y-76249625D01*
X180087004Y-76385078D01*
X179980659Y-76514659D01*
X179851078Y-76621004D01*
X179851076Y-76621005D01*
X179703242Y-76700024D01*
X179542823Y-76748687D01*
X179417804Y-76761000D01*
X179334196Y-76761000D01*
X179209177Y-76748687D01*
X179048758Y-76700024D01*
X178900924Y-76621005D01*
X178900922Y-76621004D01*
X178771341Y-76514659D01*
X178664996Y-76385078D01*
X178592595Y-76249625D01*
X178585976Y-76237242D01*
X178537313Y-76076823D01*
X178520883Y-75910000D01*
X178537313Y-75743177D01*
X178585976Y-75582758D01*
X178664995Y-75434924D01*
X178664996Y-75434922D01*
X178771341Y-75305341D01*
X178900922Y-75198996D01*
X178951428Y-75172000D01*
X179048758Y-75119976D01*
X179209177Y-75071313D01*
X179334196Y-75059000D01*
X179417804Y-75059000D01*
X179542823Y-75071313D01*
X179542823Y-75071313D01*
G37*
G36*
X182082823Y-75071313D02*
G01*
X182243242Y-75119976D01*
X182340572Y-75172000D01*
X182391078Y-75198996D01*
X182520659Y-75305341D01*
X182627004Y-75434922D01*
X182627005Y-75434924D01*
X182706024Y-75582758D01*
X182754687Y-75743177D01*
X182771117Y-75910000D01*
X182754687Y-76076823D01*
X182706024Y-76237242D01*
X182699405Y-76249625D01*
X182627004Y-76385078D01*
X182520659Y-76514659D01*
X182391078Y-76621004D01*
X182391076Y-76621005D01*
X182243242Y-76700024D01*
X182082823Y-76748687D01*
X181957804Y-76761000D01*
X181874196Y-76761000D01*
X181749177Y-76748687D01*
X181588758Y-76700024D01*
X181440924Y-76621005D01*
X181440922Y-76621004D01*
X181311341Y-76514659D01*
X181204996Y-76385078D01*
X181132595Y-76249625D01*
X181125976Y-76237242D01*
X181077313Y-76076823D01*
X181060883Y-75910000D01*
X181077313Y-75743177D01*
X181125976Y-75582758D01*
X181204995Y-75434924D01*
X181204996Y-75434922D01*
X181311341Y-75305341D01*
X181440922Y-75198996D01*
X181491428Y-75172000D01*
X181588758Y-75119976D01*
X181749177Y-75071313D01*
X181874196Y-75059000D01*
X181957804Y-75059000D01*
X182082823Y-75071313D01*
X182082823Y-75071313D01*
G37*
G36*
X189702823Y-75071313D02*
G01*
X189863242Y-75119976D01*
X189960572Y-75172000D01*
X190011078Y-75198996D01*
X190140659Y-75305341D01*
X190247004Y-75434922D01*
X190247005Y-75434924D01*
X190326024Y-75582758D01*
X190374687Y-75743177D01*
X190391117Y-75910000D01*
X190374687Y-76076823D01*
X190326024Y-76237242D01*
X190319405Y-76249625D01*
X190247004Y-76385078D01*
X190140659Y-76514659D01*
X190011078Y-76621004D01*
X190011076Y-76621005D01*
X189863242Y-76700024D01*
X189702823Y-76748687D01*
X189577804Y-76761000D01*
X189494196Y-76761000D01*
X189369177Y-76748687D01*
X189208758Y-76700024D01*
X189060924Y-76621005D01*
X189060922Y-76621004D01*
X188931341Y-76514659D01*
X188824996Y-76385078D01*
X188752595Y-76249625D01*
X188745976Y-76237242D01*
X188697313Y-76076823D01*
X188680883Y-75910000D01*
X188697313Y-75743177D01*
X188745976Y-75582758D01*
X188824995Y-75434924D01*
X188824996Y-75434922D01*
X188931341Y-75305341D01*
X189060922Y-75198996D01*
X189111428Y-75172000D01*
X189208758Y-75119976D01*
X189369177Y-75071313D01*
X189494196Y-75059000D01*
X189577804Y-75059000D01*
X189702823Y-75071313D01*
X189702823Y-75071313D01*
G37*
G36*
X184622823Y-75071313D02*
G01*
X184783242Y-75119976D01*
X184880572Y-75172000D01*
X184931078Y-75198996D01*
X185060659Y-75305341D01*
X185167004Y-75434922D01*
X185167005Y-75434924D01*
X185246024Y-75582758D01*
X185294687Y-75743177D01*
X185311117Y-75910000D01*
X185294687Y-76076823D01*
X185246024Y-76237242D01*
X185239405Y-76249625D01*
X185167004Y-76385078D01*
X185060659Y-76514659D01*
X184931078Y-76621004D01*
X184931076Y-76621005D01*
X184783242Y-76700024D01*
X184622823Y-76748687D01*
X184497804Y-76761000D01*
X184414196Y-76761000D01*
X184289177Y-76748687D01*
X184128758Y-76700024D01*
X183980924Y-76621005D01*
X183980922Y-76621004D01*
X183851341Y-76514659D01*
X183744996Y-76385078D01*
X183672595Y-76249625D01*
X183665976Y-76237242D01*
X183617313Y-76076823D01*
X183600883Y-75910000D01*
X183617313Y-75743177D01*
X183665976Y-75582758D01*
X183744995Y-75434924D01*
X183744996Y-75434922D01*
X183851341Y-75305341D01*
X183980922Y-75198996D01*
X184031428Y-75172000D01*
X184128758Y-75119976D01*
X184289177Y-75071313D01*
X184414196Y-75059000D01*
X184497804Y-75059000D01*
X184622823Y-75071313D01*
X184622823Y-75071313D01*
G37*
G36*
X187162823Y-75071313D02*
G01*
X187323242Y-75119976D01*
X187420572Y-75172000D01*
X187471078Y-75198996D01*
X187600659Y-75305341D01*
X187707004Y-75434922D01*
X187707005Y-75434924D01*
X187786024Y-75582758D01*
X187834687Y-75743177D01*
X187851117Y-75910000D01*
X187834687Y-76076823D01*
X187786024Y-76237242D01*
X187779405Y-76249625D01*
X187707004Y-76385078D01*
X187600659Y-76514659D01*
X187471078Y-76621004D01*
X187471076Y-76621005D01*
X187323242Y-76700024D01*
X187162823Y-76748687D01*
X187037804Y-76761000D01*
X186954196Y-76761000D01*
X186829177Y-76748687D01*
X186668758Y-76700024D01*
X186520924Y-76621005D01*
X186520922Y-76621004D01*
X186391341Y-76514659D01*
X186284996Y-76385078D01*
X186212595Y-76249625D01*
X186205976Y-76237242D01*
X186157313Y-76076823D01*
X186140883Y-75910000D01*
X186157313Y-75743177D01*
X186205976Y-75582758D01*
X186284995Y-75434924D01*
X186284996Y-75434922D01*
X186391341Y-75305341D01*
X186520922Y-75198996D01*
X186571428Y-75172000D01*
X186668758Y-75119976D01*
X186829177Y-75071313D01*
X186954196Y-75059000D01*
X187037804Y-75059000D01*
X187162823Y-75071313D01*
X187162823Y-75071313D01*
G37*
G36*
X206612443Y-72638519D02*
G01*
X206678627Y-72645037D01*
X206848466Y-72696557D01*
X207004991Y-72780222D01*
X207040729Y-72809552D01*
X207142186Y-72892814D01*
X207210388Y-72975920D01*
X207254778Y-73030009D01*
X207254779Y-73030011D01*
X207337227Y-73184258D01*
X207338443Y-73186534D01*
X207389963Y-73356373D01*
X207407359Y-73533000D01*
X207389963Y-73709627D01*
X207338443Y-73879466D01*
X207254778Y-74035991D01*
X207225448Y-74071729D01*
X207142186Y-74173186D01*
X207040729Y-74256448D01*
X207004991Y-74285778D01*
X206848466Y-74369443D01*
X206678627Y-74420963D01*
X206612443Y-74427481D01*
X206546260Y-74434000D01*
X206457740Y-74434000D01*
X206391557Y-74427481D01*
X206325373Y-74420963D01*
X206155534Y-74369443D01*
X205999009Y-74285778D01*
X205963271Y-74256448D01*
X205861814Y-74173186D01*
X205778552Y-74071729D01*
X205749222Y-74035991D01*
X205665557Y-73879466D01*
X205614037Y-73709627D01*
X205596641Y-73533000D01*
X205614037Y-73356373D01*
X205665557Y-73186534D01*
X205666774Y-73184258D01*
X205749221Y-73030011D01*
X205749222Y-73030009D01*
X205793612Y-72975920D01*
X205861814Y-72892814D01*
X205963271Y-72809552D01*
X205999009Y-72780222D01*
X206155534Y-72696557D01*
X206325373Y-72645037D01*
X206391557Y-72638519D01*
X206457740Y-72632000D01*
X206546260Y-72632000D01*
X206612443Y-72638519D01*
X206612443Y-72638519D01*
G37*
G36*
X204072443Y-72638519D02*
G01*
X204138627Y-72645037D01*
X204308466Y-72696557D01*
X204464991Y-72780222D01*
X204500729Y-72809552D01*
X204602186Y-72892814D01*
X204670388Y-72975920D01*
X204714778Y-73030009D01*
X204714779Y-73030011D01*
X204797227Y-73184258D01*
X204798443Y-73186534D01*
X204849963Y-73356373D01*
X204867359Y-73533000D01*
X204849963Y-73709627D01*
X204798443Y-73879466D01*
X204714778Y-74035991D01*
X204685448Y-74071729D01*
X204602186Y-74173186D01*
X204500729Y-74256448D01*
X204464991Y-74285778D01*
X204308466Y-74369443D01*
X204138627Y-74420963D01*
X204072443Y-74427481D01*
X204006260Y-74434000D01*
X203917740Y-74434000D01*
X203851557Y-74427481D01*
X203785373Y-74420963D01*
X203615534Y-74369443D01*
X203459009Y-74285778D01*
X203423271Y-74256448D01*
X203321814Y-74173186D01*
X203238552Y-74071729D01*
X203209222Y-74035991D01*
X203125557Y-73879466D01*
X203074037Y-73709627D01*
X203056641Y-73533000D01*
X203074037Y-73356373D01*
X203125557Y-73186534D01*
X203126774Y-73184258D01*
X203209221Y-73030011D01*
X203209222Y-73030009D01*
X203253612Y-72975920D01*
X203321814Y-72892814D01*
X203423271Y-72809552D01*
X203459009Y-72780222D01*
X203615534Y-72696557D01*
X203785373Y-72645037D01*
X203851557Y-72638519D01*
X203917740Y-72632000D01*
X204006260Y-72632000D01*
X204072443Y-72638519D01*
X204072443Y-72638519D01*
G37*
G36*
X169446915Y-71656834D02*
G01*
X169555491Y-71689771D01*
X169555494Y-71689772D01*
X169591600Y-71709071D01*
X169655556Y-71743256D01*
X169743264Y-71815236D01*
X169815244Y-71902943D01*
X169849429Y-71966899D01*
X169868728Y-72003005D01*
X169868729Y-72003008D01*
X169901666Y-72111584D01*
X169910000Y-72196202D01*
X169910000Y-72702797D01*
X169901666Y-72787416D01*
X169869252Y-72894267D01*
X169868728Y-72895995D01*
X169849429Y-72932101D01*
X169815244Y-72996057D01*
X169743264Y-73083764D01*
X169655557Y-73155744D01*
X169602212Y-73184257D01*
X169555495Y-73209228D01*
X169555492Y-73209229D01*
X169446916Y-73242166D01*
X169334000Y-73253287D01*
X169221085Y-73242166D01*
X169112509Y-73209229D01*
X169112506Y-73209228D01*
X169065789Y-73184257D01*
X169012444Y-73155744D01*
X168924737Y-73083764D01*
X168852757Y-72996057D01*
X168809239Y-72914641D01*
X168795625Y-72894266D01*
X168778298Y-72876939D01*
X168757924Y-72863326D01*
X168735285Y-72853948D01*
X168711252Y-72849168D01*
X168686748Y-72849168D01*
X168662715Y-72853948D01*
X168640076Y-72863326D01*
X168619701Y-72876940D01*
X168602374Y-72894267D01*
X168588761Y-72914641D01*
X168545244Y-72996057D01*
X168473264Y-73083764D01*
X168385557Y-73155744D01*
X168332212Y-73184257D01*
X168285495Y-73209228D01*
X168285492Y-73209229D01*
X168176916Y-73242166D01*
X168064000Y-73253287D01*
X167951085Y-73242166D01*
X167842509Y-73209229D01*
X167842506Y-73209228D01*
X167795789Y-73184257D01*
X167742444Y-73155744D01*
X167654737Y-73083764D01*
X167591622Y-73006859D01*
X167574297Y-72989534D01*
X167553923Y-72975920D01*
X167531284Y-72966543D01*
X167507250Y-72961763D01*
X167482746Y-72961763D01*
X167458713Y-72966544D01*
X167436074Y-72975921D01*
X167415700Y-72989535D01*
X167398373Y-73006862D01*
X167384759Y-73027236D01*
X167375382Y-73049875D01*
X167370000Y-73086160D01*
X167370000Y-73250500D01*
X166218000Y-73250500D01*
X166218000Y-71648500D01*
X167370000Y-71648500D01*
X167370000Y-71812841D01*
X167372402Y-71837227D01*
X167379515Y-71860676D01*
X167391066Y-71882287D01*
X167406611Y-71901229D01*
X167425553Y-71916774D01*
X167447164Y-71928325D01*
X167470613Y-71935438D01*
X167494999Y-71937840D01*
X167519385Y-71935438D01*
X167542834Y-71928325D01*
X167564445Y-71916774D01*
X167583387Y-71901229D01*
X167591608Y-71892157D01*
X167654736Y-71815236D01*
X167742443Y-71743256D01*
X167806399Y-71709071D01*
X167842505Y-71689772D01*
X167842508Y-71689771D01*
X167951084Y-71656834D01*
X168064000Y-71645713D01*
X168176915Y-71656834D01*
X168285491Y-71689771D01*
X168285494Y-71689772D01*
X168321600Y-71709071D01*
X168385556Y-71743256D01*
X168473264Y-71815236D01*
X168545244Y-71902943D01*
X168588761Y-71984359D01*
X168602375Y-72004734D01*
X168619702Y-72022061D01*
X168640076Y-72035674D01*
X168662715Y-72045052D01*
X168686748Y-72049832D01*
X168711252Y-72049832D01*
X168735285Y-72045052D01*
X168757924Y-72035674D01*
X168778299Y-72022060D01*
X168795626Y-72004733D01*
X168809239Y-71984360D01*
X168852756Y-71902944D01*
X168924736Y-71815236D01*
X169012443Y-71743256D01*
X169076399Y-71709071D01*
X169112505Y-71689772D01*
X169112508Y-71689771D01*
X169221084Y-71656834D01*
X169334000Y-71645713D01*
X169446915Y-71656834D01*
X169446915Y-71656834D01*
G37*
G36*
X195136000Y-73216000D02*
G01*
X193484000Y-73216000D01*
X193484000Y-71564000D01*
X195136000Y-71564000D01*
X195136000Y-73216000D01*
X195136000Y-73216000D01*
G37*
G36*
X199550935Y-71595742D02*
G01*
X199701258Y-71658008D01*
X199836545Y-71748404D01*
X199951596Y-71863455D01*
X200041992Y-71998742D01*
X200104258Y-72149065D01*
X200136000Y-72308646D01*
X200136000Y-72471354D01*
X200104258Y-72630935D01*
X200041992Y-72781258D01*
X199951596Y-72916545D01*
X199836545Y-73031596D01*
X199701258Y-73121992D01*
X199550935Y-73184258D01*
X199391354Y-73216000D01*
X199228646Y-73216000D01*
X199069065Y-73184258D01*
X198918742Y-73121992D01*
X198783455Y-73031596D01*
X198668404Y-72916545D01*
X198578008Y-72781258D01*
X198515742Y-72630935D01*
X198484000Y-72471354D01*
X198484000Y-72308646D01*
X198515742Y-72149065D01*
X198578008Y-71998742D01*
X198668404Y-71863455D01*
X198783455Y-71748404D01*
X198918742Y-71658008D01*
X199069065Y-71595742D01*
X199228646Y-71564000D01*
X199391354Y-71564000D01*
X199550935Y-71595742D01*
X199550935Y-71595742D01*
G37*
G36*
X206612443Y-70098519D02*
G01*
X206678627Y-70105037D01*
X206848466Y-70156557D01*
X207004991Y-70240222D01*
X207040729Y-70269552D01*
X207142186Y-70352814D01*
X207225448Y-70454271D01*
X207254778Y-70490009D01*
X207338443Y-70646534D01*
X207389963Y-70816373D01*
X207407359Y-70993000D01*
X207389963Y-71169627D01*
X207338443Y-71339466D01*
X207254778Y-71495991D01*
X207225448Y-71531729D01*
X207142186Y-71633186D01*
X207040729Y-71716448D01*
X207004991Y-71745778D01*
X206848466Y-71829443D01*
X206678627Y-71880963D01*
X206612443Y-71887481D01*
X206546260Y-71894000D01*
X206457740Y-71894000D01*
X206391557Y-71887481D01*
X206325373Y-71880963D01*
X206155534Y-71829443D01*
X205999009Y-71745778D01*
X205963271Y-71716448D01*
X205861814Y-71633186D01*
X205778552Y-71531729D01*
X205749222Y-71495991D01*
X205665557Y-71339466D01*
X205614037Y-71169627D01*
X205596641Y-70993000D01*
X205614037Y-70816373D01*
X205665557Y-70646534D01*
X205749222Y-70490009D01*
X205778552Y-70454271D01*
X205861814Y-70352814D01*
X205963271Y-70269552D01*
X205999009Y-70240222D01*
X206155534Y-70156557D01*
X206325373Y-70105037D01*
X206391557Y-70098519D01*
X206457740Y-70092000D01*
X206546260Y-70092000D01*
X206612443Y-70098519D01*
X206612443Y-70098519D01*
G37*
G36*
X204072443Y-70098519D02*
G01*
X204138627Y-70105037D01*
X204308466Y-70156557D01*
X204464991Y-70240222D01*
X204500729Y-70269552D01*
X204602186Y-70352814D01*
X204685448Y-70454271D01*
X204714778Y-70490009D01*
X204798443Y-70646534D01*
X204849963Y-70816373D01*
X204867359Y-70993000D01*
X204849963Y-71169627D01*
X204798443Y-71339466D01*
X204714778Y-71495991D01*
X204685448Y-71531729D01*
X204602186Y-71633186D01*
X204500729Y-71716448D01*
X204464991Y-71745778D01*
X204308466Y-71829443D01*
X204138627Y-71880963D01*
X204072443Y-71887481D01*
X204006260Y-71894000D01*
X203917740Y-71894000D01*
X203851557Y-71887481D01*
X203785373Y-71880963D01*
X203615534Y-71829443D01*
X203459009Y-71745778D01*
X203423271Y-71716448D01*
X203321814Y-71633186D01*
X203238552Y-71531729D01*
X203209222Y-71495991D01*
X203125557Y-71339466D01*
X203074037Y-71169627D01*
X203056641Y-70993000D01*
X203074037Y-70816373D01*
X203125557Y-70646534D01*
X203209222Y-70490009D01*
X203238552Y-70454271D01*
X203321814Y-70352814D01*
X203423271Y-70269552D01*
X203459009Y-70240222D01*
X203615534Y-70156557D01*
X203785373Y-70105037D01*
X203851557Y-70098519D01*
X203917740Y-70092000D01*
X204006260Y-70092000D01*
X204072443Y-70098519D01*
X204072443Y-70098519D01*
G37*
G36*
X164293823Y-69642313D02*
G01*
X164454242Y-69690976D01*
X164586906Y-69761886D01*
X164602078Y-69769996D01*
X164731659Y-69876341D01*
X164838004Y-70005922D01*
X164838005Y-70005924D01*
X164917024Y-70153758D01*
X164965687Y-70314177D01*
X164982117Y-70481000D01*
X164965687Y-70647823D01*
X164917024Y-70808242D01*
X164846114Y-70940906D01*
X164838004Y-70956078D01*
X164731659Y-71085659D01*
X164602078Y-71192004D01*
X164602076Y-71192005D01*
X164454242Y-71271024D01*
X164293823Y-71319687D01*
X164168804Y-71332000D01*
X164085196Y-71332000D01*
X163960177Y-71319687D01*
X163799758Y-71271024D01*
X163651924Y-71192005D01*
X163651922Y-71192004D01*
X163522341Y-71085659D01*
X163415996Y-70956078D01*
X163407886Y-70940906D01*
X163336976Y-70808242D01*
X163288313Y-70647823D01*
X163271883Y-70481000D01*
X163288313Y-70314177D01*
X163336976Y-70153758D01*
X163415995Y-70005924D01*
X163415996Y-70005922D01*
X163522341Y-69876341D01*
X163651922Y-69769996D01*
X163667094Y-69761886D01*
X163799758Y-69690976D01*
X163960177Y-69642313D01*
X164085196Y-69630000D01*
X164168804Y-69630000D01*
X164293823Y-69642313D01*
X164293823Y-69642313D01*
G37*
G36*
X170058000Y-71332000D02*
G01*
X168356000Y-71332000D01*
X168356000Y-69630000D01*
X170058000Y-69630000D01*
X170058000Y-71332000D01*
X170058000Y-71332000D01*
G37*
G36*
X166833823Y-69642313D02*
G01*
X166994242Y-69690976D01*
X167126906Y-69761886D01*
X167142078Y-69769996D01*
X167271659Y-69876341D01*
X167378004Y-70005922D01*
X167378005Y-70005924D01*
X167457024Y-70153758D01*
X167505687Y-70314177D01*
X167522117Y-70481000D01*
X167505687Y-70647823D01*
X167457024Y-70808242D01*
X167386114Y-70940906D01*
X167378004Y-70956078D01*
X167271659Y-71085659D01*
X167142078Y-71192004D01*
X167142076Y-71192005D01*
X166994242Y-71271024D01*
X166833823Y-71319687D01*
X166708804Y-71332000D01*
X166625196Y-71332000D01*
X166500177Y-71319687D01*
X166339758Y-71271024D01*
X166191924Y-71192005D01*
X166191922Y-71192004D01*
X166062341Y-71085659D01*
X165955996Y-70956078D01*
X165947886Y-70940906D01*
X165876976Y-70808242D01*
X165828313Y-70647823D01*
X165811883Y-70481000D01*
X165828313Y-70314177D01*
X165876976Y-70153758D01*
X165955995Y-70005924D01*
X165955996Y-70005922D01*
X166062341Y-69876341D01*
X166191922Y-69769996D01*
X166207094Y-69761886D01*
X166339758Y-69690976D01*
X166500177Y-69642313D01*
X166625196Y-69630000D01*
X166708804Y-69630000D01*
X166833823Y-69642313D01*
X166833823Y-69642313D01*
G37*
G36*
X204072443Y-67558519D02*
G01*
X204138627Y-67565037D01*
X204308466Y-67616557D01*
X204464991Y-67700222D01*
X204500729Y-67729552D01*
X204602186Y-67812814D01*
X204685448Y-67914271D01*
X204714778Y-67950009D01*
X204798443Y-68106534D01*
X204849963Y-68276373D01*
X204867359Y-68453000D01*
X204849963Y-68629627D01*
X204798443Y-68799466D01*
X204714778Y-68955991D01*
X204685448Y-68991729D01*
X204602186Y-69093186D01*
X204500729Y-69176448D01*
X204464991Y-69205778D01*
X204308466Y-69289443D01*
X204138627Y-69340963D01*
X204072443Y-69347481D01*
X204006260Y-69354000D01*
X203917740Y-69354000D01*
X203851557Y-69347481D01*
X203785373Y-69340963D01*
X203615534Y-69289443D01*
X203459009Y-69205778D01*
X203423271Y-69176448D01*
X203321814Y-69093186D01*
X203238552Y-68991729D01*
X203209222Y-68955991D01*
X203125557Y-68799466D01*
X203074037Y-68629627D01*
X203056641Y-68453000D01*
X203074037Y-68276373D01*
X203125557Y-68106534D01*
X203209222Y-67950009D01*
X203238552Y-67914271D01*
X203321814Y-67812814D01*
X203423271Y-67729552D01*
X203459009Y-67700222D01*
X203615534Y-67616557D01*
X203785373Y-67565037D01*
X203851557Y-67558519D01*
X203917740Y-67552000D01*
X204006260Y-67552000D01*
X204072443Y-67558519D01*
X204072443Y-67558519D01*
G37*
G36*
X206612443Y-67558519D02*
G01*
X206678627Y-67565037D01*
X206848466Y-67616557D01*
X207004991Y-67700222D01*
X207040729Y-67729552D01*
X207142186Y-67812814D01*
X207225448Y-67914271D01*
X207254778Y-67950009D01*
X207338443Y-68106534D01*
X207389963Y-68276373D01*
X207407359Y-68453000D01*
X207389963Y-68629627D01*
X207338443Y-68799466D01*
X207254778Y-68955991D01*
X207225448Y-68991729D01*
X207142186Y-69093186D01*
X207040729Y-69176448D01*
X207004991Y-69205778D01*
X206848466Y-69289443D01*
X206678627Y-69340963D01*
X206612443Y-69347481D01*
X206546260Y-69354000D01*
X206457740Y-69354000D01*
X206391557Y-69347481D01*
X206325373Y-69340963D01*
X206155534Y-69289443D01*
X205999009Y-69205778D01*
X205963271Y-69176448D01*
X205861814Y-69093186D01*
X205778552Y-68991729D01*
X205749222Y-68955991D01*
X205665557Y-68799466D01*
X205614037Y-68629627D01*
X205596641Y-68453000D01*
X205614037Y-68276373D01*
X205665557Y-68106534D01*
X205749222Y-67950009D01*
X205778552Y-67914271D01*
X205861814Y-67812814D01*
X205963271Y-67729552D01*
X205999009Y-67700222D01*
X206155534Y-67616557D01*
X206325373Y-67565037D01*
X206391557Y-67558519D01*
X206457740Y-67552000D01*
X206546260Y-67552000D01*
X206612443Y-67558519D01*
X206612443Y-67558519D01*
G37*
G36*
X179542823Y-67451313D02*
G01*
X179703242Y-67499976D01*
X179800572Y-67552000D01*
X179851078Y-67578996D01*
X179980659Y-67685341D01*
X180087004Y-67814922D01*
X180087005Y-67814924D01*
X180166024Y-67962758D01*
X180214687Y-68123177D01*
X180231117Y-68290000D01*
X180214687Y-68456823D01*
X180166024Y-68617242D01*
X180159405Y-68629625D01*
X180087004Y-68765078D01*
X179980659Y-68894659D01*
X179851078Y-69001004D01*
X179851076Y-69001005D01*
X179703242Y-69080024D01*
X179542823Y-69128687D01*
X179417804Y-69141000D01*
X179334196Y-69141000D01*
X179209177Y-69128687D01*
X179048758Y-69080024D01*
X178900924Y-69001005D01*
X178900922Y-69001004D01*
X178771341Y-68894659D01*
X178664996Y-68765078D01*
X178592595Y-68629625D01*
X178585976Y-68617242D01*
X178537313Y-68456823D01*
X178520883Y-68290000D01*
X178537313Y-68123177D01*
X178585976Y-67962758D01*
X178664995Y-67814924D01*
X178664996Y-67814922D01*
X178771341Y-67685341D01*
X178900922Y-67578996D01*
X178951428Y-67552000D01*
X179048758Y-67499976D01*
X179209177Y-67451313D01*
X179334196Y-67439000D01*
X179417804Y-67439000D01*
X179542823Y-67451313D01*
X179542823Y-67451313D01*
G37*
G36*
X174462823Y-67451313D02*
G01*
X174623242Y-67499976D01*
X174720572Y-67552000D01*
X174771078Y-67578996D01*
X174900659Y-67685341D01*
X175007004Y-67814922D01*
X175007005Y-67814924D01*
X175086024Y-67962758D01*
X175134687Y-68123177D01*
X175151117Y-68290000D01*
X175134687Y-68456823D01*
X175086024Y-68617242D01*
X175079405Y-68629625D01*
X175007004Y-68765078D01*
X174900659Y-68894659D01*
X174771078Y-69001004D01*
X174771076Y-69001005D01*
X174623242Y-69080024D01*
X174462823Y-69128687D01*
X174337804Y-69141000D01*
X174254196Y-69141000D01*
X174129177Y-69128687D01*
X173968758Y-69080024D01*
X173820924Y-69001005D01*
X173820922Y-69001004D01*
X173691341Y-68894659D01*
X173584996Y-68765078D01*
X173512595Y-68629625D01*
X173505976Y-68617242D01*
X173457313Y-68456823D01*
X173440883Y-68290000D01*
X173457313Y-68123177D01*
X173505976Y-67962758D01*
X173584995Y-67814924D01*
X173584996Y-67814922D01*
X173691341Y-67685341D01*
X173820922Y-67578996D01*
X173871428Y-67552000D01*
X173968758Y-67499976D01*
X174129177Y-67451313D01*
X174254196Y-67439000D01*
X174337804Y-67439000D01*
X174462823Y-67451313D01*
X174462823Y-67451313D01*
G37*
G36*
X182082823Y-67451313D02*
G01*
X182243242Y-67499976D01*
X182340572Y-67552000D01*
X182391078Y-67578996D01*
X182520659Y-67685341D01*
X182627004Y-67814922D01*
X182627005Y-67814924D01*
X182706024Y-67962758D01*
X182754687Y-68123177D01*
X182771117Y-68290000D01*
X182754687Y-68456823D01*
X182706024Y-68617242D01*
X182699405Y-68629625D01*
X182627004Y-68765078D01*
X182520659Y-68894659D01*
X182391078Y-69001004D01*
X182391076Y-69001005D01*
X182243242Y-69080024D01*
X182082823Y-69128687D01*
X181957804Y-69141000D01*
X181874196Y-69141000D01*
X181749177Y-69128687D01*
X181588758Y-69080024D01*
X181440924Y-69001005D01*
X181440922Y-69001004D01*
X181311341Y-68894659D01*
X181204996Y-68765078D01*
X181132595Y-68629625D01*
X181125976Y-68617242D01*
X181077313Y-68456823D01*
X181060883Y-68290000D01*
X181077313Y-68123177D01*
X181125976Y-67962758D01*
X181204995Y-67814924D01*
X181204996Y-67814922D01*
X181311341Y-67685341D01*
X181440922Y-67578996D01*
X181491428Y-67552000D01*
X181588758Y-67499976D01*
X181749177Y-67451313D01*
X181874196Y-67439000D01*
X181957804Y-67439000D01*
X182082823Y-67451313D01*
X182082823Y-67451313D01*
G37*
G36*
X184622823Y-67451313D02*
G01*
X184783242Y-67499976D01*
X184880572Y-67552000D01*
X184931078Y-67578996D01*
X185060659Y-67685341D01*
X185167004Y-67814922D01*
X185167005Y-67814924D01*
X185246024Y-67962758D01*
X185294687Y-68123177D01*
X185311117Y-68290000D01*
X185294687Y-68456823D01*
X185246024Y-68617242D01*
X185239405Y-68629625D01*
X185167004Y-68765078D01*
X185060659Y-68894659D01*
X184931078Y-69001004D01*
X184931076Y-69001005D01*
X184783242Y-69080024D01*
X184622823Y-69128687D01*
X184497804Y-69141000D01*
X184414196Y-69141000D01*
X184289177Y-69128687D01*
X184128758Y-69080024D01*
X183980924Y-69001005D01*
X183980922Y-69001004D01*
X183851341Y-68894659D01*
X183744996Y-68765078D01*
X183672595Y-68629625D01*
X183665976Y-68617242D01*
X183617313Y-68456823D01*
X183600883Y-68290000D01*
X183617313Y-68123177D01*
X183665976Y-67962758D01*
X183744995Y-67814924D01*
X183744996Y-67814922D01*
X183851341Y-67685341D01*
X183980922Y-67578996D01*
X184031428Y-67552000D01*
X184128758Y-67499976D01*
X184289177Y-67451313D01*
X184414196Y-67439000D01*
X184497804Y-67439000D01*
X184622823Y-67451313D01*
X184622823Y-67451313D01*
G37*
G36*
X187162823Y-67451313D02*
G01*
X187323242Y-67499976D01*
X187420572Y-67552000D01*
X187471078Y-67578996D01*
X187600659Y-67685341D01*
X187707004Y-67814922D01*
X187707005Y-67814924D01*
X187786024Y-67962758D01*
X187834687Y-68123177D01*
X187851117Y-68290000D01*
X187834687Y-68456823D01*
X187786024Y-68617242D01*
X187779405Y-68629625D01*
X187707004Y-68765078D01*
X187600659Y-68894659D01*
X187471078Y-69001004D01*
X187471076Y-69001005D01*
X187323242Y-69080024D01*
X187162823Y-69128687D01*
X187037804Y-69141000D01*
X186954196Y-69141000D01*
X186829177Y-69128687D01*
X186668758Y-69080024D01*
X186520924Y-69001005D01*
X186520922Y-69001004D01*
X186391341Y-68894659D01*
X186284996Y-68765078D01*
X186212595Y-68629625D01*
X186205976Y-68617242D01*
X186157313Y-68456823D01*
X186140883Y-68290000D01*
X186157313Y-68123177D01*
X186205976Y-67962758D01*
X186284995Y-67814924D01*
X186284996Y-67814922D01*
X186391341Y-67685341D01*
X186520922Y-67578996D01*
X186571428Y-67552000D01*
X186668758Y-67499976D01*
X186829177Y-67451313D01*
X186954196Y-67439000D01*
X187037804Y-67439000D01*
X187162823Y-67451313D01*
X187162823Y-67451313D01*
G37*
G36*
X189702823Y-67451313D02*
G01*
X189863242Y-67499976D01*
X189960572Y-67552000D01*
X190011078Y-67578996D01*
X190140659Y-67685341D01*
X190247004Y-67814922D01*
X190247005Y-67814924D01*
X190326024Y-67962758D01*
X190374687Y-68123177D01*
X190391117Y-68290000D01*
X190374687Y-68456823D01*
X190326024Y-68617242D01*
X190319405Y-68629625D01*
X190247004Y-68765078D01*
X190140659Y-68894659D01*
X190011078Y-69001004D01*
X190011076Y-69001005D01*
X189863242Y-69080024D01*
X189702823Y-69128687D01*
X189577804Y-69141000D01*
X189494196Y-69141000D01*
X189369177Y-69128687D01*
X189208758Y-69080024D01*
X189060924Y-69001005D01*
X189060922Y-69001004D01*
X188931341Y-68894659D01*
X188824996Y-68765078D01*
X188752595Y-68629625D01*
X188745976Y-68617242D01*
X188697313Y-68456823D01*
X188680883Y-68290000D01*
X188697313Y-68123177D01*
X188745976Y-67962758D01*
X188824995Y-67814924D01*
X188824996Y-67814922D01*
X188931341Y-67685341D01*
X189060922Y-67578996D01*
X189111428Y-67552000D01*
X189208758Y-67499976D01*
X189369177Y-67451313D01*
X189494196Y-67439000D01*
X189577804Y-67439000D01*
X189702823Y-67451313D01*
X189702823Y-67451313D01*
G37*
G36*
X177002823Y-67451313D02*
G01*
X177163242Y-67499976D01*
X177260572Y-67552000D01*
X177311078Y-67578996D01*
X177440659Y-67685341D01*
X177547004Y-67814922D01*
X177547005Y-67814924D01*
X177626024Y-67962758D01*
X177674687Y-68123177D01*
X177691117Y-68290000D01*
X177674687Y-68456823D01*
X177626024Y-68617242D01*
X177619405Y-68629625D01*
X177547004Y-68765078D01*
X177440659Y-68894659D01*
X177311078Y-69001004D01*
X177311076Y-69001005D01*
X177163242Y-69080024D01*
X177002823Y-69128687D01*
X176877804Y-69141000D01*
X176794196Y-69141000D01*
X176669177Y-69128687D01*
X176508758Y-69080024D01*
X176360924Y-69001005D01*
X176360922Y-69001004D01*
X176231341Y-68894659D01*
X176124996Y-68765078D01*
X176052595Y-68629625D01*
X176045976Y-68617242D01*
X175997313Y-68456823D01*
X175980883Y-68290000D01*
X175997313Y-68123177D01*
X176045976Y-67962758D01*
X176124995Y-67814924D01*
X176124996Y-67814922D01*
X176231341Y-67685341D01*
X176360922Y-67578996D01*
X176411428Y-67552000D01*
X176508758Y-67499976D01*
X176669177Y-67451313D01*
X176794196Y-67439000D01*
X176877804Y-67439000D01*
X177002823Y-67451313D01*
X177002823Y-67451313D01*
G37*
G36*
X204072442Y-65018518D02*
G01*
X204138627Y-65025037D01*
X204308466Y-65076557D01*
X204464991Y-65160222D01*
X204500729Y-65189552D01*
X204602186Y-65272814D01*
X204685448Y-65374271D01*
X204714778Y-65410009D01*
X204798443Y-65566534D01*
X204849963Y-65736373D01*
X204867359Y-65913000D01*
X204849963Y-66089627D01*
X204798443Y-66259466D01*
X204714778Y-66415991D01*
X204685448Y-66451729D01*
X204602186Y-66553186D01*
X204500729Y-66636448D01*
X204464991Y-66665778D01*
X204308466Y-66749443D01*
X204138627Y-66800963D01*
X204072442Y-66807482D01*
X204006260Y-66814000D01*
X203917740Y-66814000D01*
X203851558Y-66807482D01*
X203785373Y-66800963D01*
X203615534Y-66749443D01*
X203459009Y-66665778D01*
X203423271Y-66636448D01*
X203321814Y-66553186D01*
X203238552Y-66451729D01*
X203209222Y-66415991D01*
X203125557Y-66259466D01*
X203074037Y-66089627D01*
X203056641Y-65913000D01*
X203074037Y-65736373D01*
X203125557Y-65566534D01*
X203209222Y-65410009D01*
X203238552Y-65374271D01*
X203321814Y-65272814D01*
X203423271Y-65189552D01*
X203459009Y-65160222D01*
X203615534Y-65076557D01*
X203785373Y-65025037D01*
X203851558Y-65018518D01*
X203917740Y-65012000D01*
X204006260Y-65012000D01*
X204072442Y-65018518D01*
X204072442Y-65018518D01*
G37*
G36*
X206612442Y-65018518D02*
G01*
X206678627Y-65025037D01*
X206848466Y-65076557D01*
X207004991Y-65160222D01*
X207040729Y-65189552D01*
X207142186Y-65272814D01*
X207225448Y-65374271D01*
X207254778Y-65410009D01*
X207338443Y-65566534D01*
X207389963Y-65736373D01*
X207407359Y-65913000D01*
X207389963Y-66089627D01*
X207338443Y-66259466D01*
X207254778Y-66415991D01*
X207225448Y-66451729D01*
X207142186Y-66553186D01*
X207040729Y-66636448D01*
X207004991Y-66665778D01*
X206848466Y-66749443D01*
X206678627Y-66800963D01*
X206612442Y-66807482D01*
X206546260Y-66814000D01*
X206457740Y-66814000D01*
X206391558Y-66807482D01*
X206325373Y-66800963D01*
X206155534Y-66749443D01*
X205999009Y-66665778D01*
X205963271Y-66636448D01*
X205861814Y-66553186D01*
X205778552Y-66451729D01*
X205749222Y-66415991D01*
X205665557Y-66259466D01*
X205614037Y-66089627D01*
X205596641Y-65913000D01*
X205614037Y-65736373D01*
X205665557Y-65566534D01*
X205749222Y-65410009D01*
X205778552Y-65374271D01*
X205861814Y-65272814D01*
X205963271Y-65189552D01*
X205999009Y-65160222D01*
X206155534Y-65076557D01*
X206325373Y-65025037D01*
X206391558Y-65018518D01*
X206457740Y-65012000D01*
X206546260Y-65012000D01*
X206612442Y-65018518D01*
X206612442Y-65018518D01*
G37*
G36*
X173095183Y-63373000D02*
G01*
X173198893Y-63393629D01*
X173339206Y-63451748D01*
X173465484Y-63536125D01*
X173572875Y-63643516D01*
X173657252Y-63769794D01*
X173715371Y-63910107D01*
X173745000Y-64059063D01*
X173745000Y-64210937D01*
X173715371Y-64359893D01*
X173657252Y-64500206D01*
X173572875Y-64626484D01*
X173465484Y-64733875D01*
X173339206Y-64818252D01*
X173198893Y-64876371D01*
X173099589Y-64896124D01*
X173049938Y-64906000D01*
X172898062Y-64906000D01*
X172848411Y-64896124D01*
X172749107Y-64876371D01*
X172608794Y-64818252D01*
X172482516Y-64733875D01*
X172375125Y-64626484D01*
X172290748Y-64500206D01*
X172232629Y-64359893D01*
X172203000Y-64210937D01*
X172203000Y-64059063D01*
X172232629Y-63910107D01*
X172290748Y-63769794D01*
X172375125Y-63643516D01*
X172482516Y-63536125D01*
X172608794Y-63451748D01*
X172749107Y-63393629D01*
X172852817Y-63373000D01*
X172898062Y-63364000D01*
X173049938Y-63364000D01*
X173095183Y-63373000D01*
X173095183Y-63373000D01*
G37*
G36*
X175635183Y-63373000D02*
G01*
X175738893Y-63393629D01*
X175879206Y-63451748D01*
X176005484Y-63536125D01*
X176112875Y-63643516D01*
X176197252Y-63769794D01*
X176255371Y-63910107D01*
X176285000Y-64059063D01*
X176285000Y-64210937D01*
X176255371Y-64359893D01*
X176197252Y-64500206D01*
X176112875Y-64626484D01*
X176005484Y-64733875D01*
X175879206Y-64818252D01*
X175738893Y-64876371D01*
X175639589Y-64896124D01*
X175589938Y-64906000D01*
X175438062Y-64906000D01*
X175388411Y-64896124D01*
X175289107Y-64876371D01*
X175148794Y-64818252D01*
X175022516Y-64733875D01*
X174915125Y-64626484D01*
X174830748Y-64500206D01*
X174772629Y-64359893D01*
X174743000Y-64210937D01*
X174743000Y-64059063D01*
X174772629Y-63910107D01*
X174830748Y-63769794D01*
X174915125Y-63643516D01*
X175022516Y-63536125D01*
X175148794Y-63451748D01*
X175289107Y-63393629D01*
X175392817Y-63373000D01*
X175438062Y-63364000D01*
X175589938Y-63364000D01*
X175635183Y-63373000D01*
X175635183Y-63373000D01*
G37*
G36*
X178175183Y-63373000D02*
G01*
X178278893Y-63393629D01*
X178419206Y-63451748D01*
X178545484Y-63536125D01*
X178652875Y-63643516D01*
X178737252Y-63769794D01*
X178795371Y-63910107D01*
X178825000Y-64059063D01*
X178825000Y-64210937D01*
X178795371Y-64359893D01*
X178737252Y-64500206D01*
X178652875Y-64626484D01*
X178545484Y-64733875D01*
X178419206Y-64818252D01*
X178278893Y-64876371D01*
X178179589Y-64896124D01*
X178129938Y-64906000D01*
X177978062Y-64906000D01*
X177928411Y-64896124D01*
X177829107Y-64876371D01*
X177688794Y-64818252D01*
X177562516Y-64733875D01*
X177455125Y-64626484D01*
X177370748Y-64500206D01*
X177312629Y-64359893D01*
X177283000Y-64210937D01*
X177283000Y-64059063D01*
X177312629Y-63910107D01*
X177370748Y-63769794D01*
X177455125Y-63643516D01*
X177562516Y-63536125D01*
X177688794Y-63451748D01*
X177829107Y-63393629D01*
X177932817Y-63373000D01*
X177978062Y-63364000D01*
X178129938Y-63364000D01*
X178175183Y-63373000D01*
X178175183Y-63373000D01*
G37*
G36*
X204863000Y-64274000D02*
G01*
X203061000Y-64274000D01*
X203061000Y-62472000D01*
X204863000Y-62472000D01*
X204863000Y-64274000D01*
X204863000Y-64274000D01*
G37*
G36*
X206612443Y-62478519D02*
G01*
X206678627Y-62485037D01*
X206848466Y-62536557D01*
X207004991Y-62620222D01*
X207040729Y-62649552D01*
X207142186Y-62732814D01*
X207225448Y-62834271D01*
X207254778Y-62870009D01*
X207338443Y-63026534D01*
X207389963Y-63196373D01*
X207407359Y-63373000D01*
X207389963Y-63549627D01*
X207338443Y-63719466D01*
X207254778Y-63875991D01*
X207226778Y-63910109D01*
X207142186Y-64013186D01*
X207040729Y-64096448D01*
X207004991Y-64125778D01*
X206848466Y-64209443D01*
X206678627Y-64260963D01*
X206612443Y-64267481D01*
X206546260Y-64274000D01*
X206457740Y-64274000D01*
X206391557Y-64267481D01*
X206325373Y-64260963D01*
X206155534Y-64209443D01*
X205999009Y-64125778D01*
X205963271Y-64096448D01*
X205861814Y-64013186D01*
X205777222Y-63910109D01*
X205749222Y-63875991D01*
X205665557Y-63719466D01*
X205614037Y-63549627D01*
X205596641Y-63373000D01*
X205614037Y-63196373D01*
X205665557Y-63026534D01*
X205749222Y-62870009D01*
X205778552Y-62834271D01*
X205861814Y-62732814D01*
X205963271Y-62649552D01*
X205999009Y-62620222D01*
X206155534Y-62536557D01*
X206325373Y-62485037D01*
X206391557Y-62478519D01*
X206457740Y-62472000D01*
X206546260Y-62472000D01*
X206612443Y-62478519D01*
X206612443Y-62478519D01*
G37*
M02*
