G04 #@! TF.GenerationSoftware,KiCad,Pcbnew,(5.1.2)-2*
G04 #@! TF.CreationDate,2019-08-12T05:37:20+02:00*
G04 #@! TF.ProjectId,vco_mk1,76636f5f-6d6b-4312-9e6b-696361645f70,rev?*
G04 #@! TF.SameCoordinates,Original*
G04 #@! TF.FileFunction,Legend,Top*
G04 #@! TF.FilePolarity,Positive*
%FSLAX46Y46*%
G04 Gerber Fmt 4.6, Leading zero omitted, Abs format (unit mm)*
G04 Created by KiCad (PCBNEW (5.1.2)-2) date 2019-08-12 05:37:20*
%MOMM*%
%LPD*%
G04 APERTURE LIST*
%ADD10C,0.150000*%
%ADD11C,0.120000*%
%ADD12C,0.160000*%
%ADD13C,0.010000*%
G04 APERTURE END LIST*
D10*
X208532428Y-76915857D02*
X209132428Y-76915857D01*
X208561000Y-76915857D02*
X208532428Y-76858714D01*
X208532428Y-76744428D01*
X208561000Y-76687285D01*
X208589571Y-76658714D01*
X208646714Y-76630142D01*
X208818142Y-76630142D01*
X208875285Y-76658714D01*
X208903857Y-76687285D01*
X208932428Y-76744428D01*
X208932428Y-76858714D01*
X208903857Y-76915857D01*
X208532428Y-76430142D02*
X208932428Y-76315857D01*
X208646714Y-76201571D01*
X208932428Y-76087285D01*
X208532428Y-75973000D01*
X208932428Y-75744428D02*
X208532428Y-75744428D01*
X208589571Y-75744428D02*
X208561000Y-75715857D01*
X208532428Y-75658714D01*
X208532428Y-75573000D01*
X208561000Y-75515857D01*
X208618142Y-75487285D01*
X208932428Y-75487285D01*
X208618142Y-75487285D02*
X208561000Y-75458714D01*
X208532428Y-75401571D01*
X208532428Y-75315857D01*
X208561000Y-75258714D01*
X208618142Y-75230142D01*
X208932428Y-75230142D01*
X209059428Y-70995857D02*
X209030857Y-71053000D01*
X208973714Y-71081571D01*
X208459428Y-71081571D01*
X209059428Y-70767285D02*
X208659428Y-70767285D01*
X208459428Y-70767285D02*
X208488000Y-70795857D01*
X208516571Y-70767285D01*
X208488000Y-70738714D01*
X208459428Y-70767285D01*
X208516571Y-70767285D01*
X208659428Y-70481571D02*
X209059428Y-70481571D01*
X208716571Y-70481571D02*
X208688000Y-70453000D01*
X208659428Y-70395857D01*
X208659428Y-70310142D01*
X208688000Y-70253000D01*
X208745142Y-70224428D01*
X209059428Y-70224428D01*
X209002285Y-69938714D02*
X209030857Y-69910142D01*
X209059428Y-69938714D01*
X209030857Y-69967285D01*
X209002285Y-69938714D01*
X209059428Y-69938714D01*
X208659428Y-69653000D02*
X209259428Y-69653000D01*
X208688000Y-69653000D02*
X208659428Y-69595857D01*
X208659428Y-69481571D01*
X208688000Y-69424428D01*
X208716571Y-69395857D01*
X208773714Y-69367285D01*
X208945142Y-69367285D01*
X209002285Y-69395857D01*
X209030857Y-69424428D01*
X209059428Y-69481571D01*
X209059428Y-69595857D01*
X209030857Y-69653000D01*
X209059428Y-69110142D02*
X208659428Y-69110142D01*
X208459428Y-69110142D02*
X208488000Y-69138714D01*
X208516571Y-69110142D01*
X208488000Y-69081571D01*
X208459428Y-69110142D01*
X208516571Y-69110142D01*
X208659428Y-68910142D02*
X208659428Y-68681571D01*
X208459428Y-68824428D02*
X208973714Y-68824428D01*
X209030857Y-68795857D01*
X209059428Y-68738714D01*
X209059428Y-68681571D01*
X209030857Y-68224428D02*
X209059428Y-68281571D01*
X209059428Y-68395857D01*
X209030857Y-68453000D01*
X209002285Y-68481571D01*
X208945142Y-68510142D01*
X208773714Y-68510142D01*
X208716571Y-68481571D01*
X208688000Y-68453000D01*
X208659428Y-68395857D01*
X208659428Y-68281571D01*
X208688000Y-68224428D01*
X209059428Y-67967285D02*
X208459428Y-67967285D01*
X209059428Y-67710142D02*
X208745142Y-67710142D01*
X208688000Y-67738714D01*
X208659428Y-67795857D01*
X208659428Y-67881571D01*
X208688000Y-67938714D01*
X208716571Y-67967285D01*
X209059428Y-67424428D02*
X208659428Y-67424428D01*
X208716571Y-67424428D02*
X208688000Y-67395857D01*
X208659428Y-67338714D01*
X208659428Y-67253000D01*
X208688000Y-67195857D01*
X208745142Y-67167285D01*
X209059428Y-67167285D01*
X208745142Y-67167285D02*
X208688000Y-67138714D01*
X208659428Y-67081571D01*
X208659428Y-66995857D01*
X208688000Y-66938714D01*
X208745142Y-66910142D01*
X209059428Y-66910142D01*
X209059428Y-66538714D02*
X209030857Y-66595857D01*
X209002285Y-66624428D01*
X208945142Y-66653000D01*
X208773714Y-66653000D01*
X208716571Y-66624428D01*
X208688000Y-66595857D01*
X208659428Y-66538714D01*
X208659428Y-66453000D01*
X208688000Y-66395857D01*
X208716571Y-66367285D01*
X208773714Y-66338714D01*
X208945142Y-66338714D01*
X209002285Y-66367285D01*
X209030857Y-66395857D01*
X209059428Y-66453000D01*
X209059428Y-66538714D01*
X209059428Y-65824428D02*
X208459428Y-65824428D01*
X209030857Y-65824428D02*
X209059428Y-65881571D01*
X209059428Y-65995857D01*
X209030857Y-66053000D01*
X209002285Y-66081571D01*
X208945142Y-66110142D01*
X208773714Y-66110142D01*
X208716571Y-66081571D01*
X208688000Y-66053000D01*
X208659428Y-65995857D01*
X208659428Y-65881571D01*
X208688000Y-65824428D01*
X208932428Y-74161571D02*
X208532428Y-74161571D01*
X208646714Y-74161571D02*
X208589571Y-74133000D01*
X208561000Y-74104428D01*
X208532428Y-74047285D01*
X208532428Y-73990142D01*
X208932428Y-73533000D02*
X208618142Y-73533000D01*
X208561000Y-73561571D01*
X208532428Y-73618714D01*
X208532428Y-73733000D01*
X208561000Y-73790142D01*
X208903857Y-73533000D02*
X208932428Y-73590142D01*
X208932428Y-73733000D01*
X208903857Y-73790142D01*
X208846714Y-73818714D01*
X208789571Y-73818714D01*
X208732428Y-73790142D01*
X208703857Y-73733000D01*
X208703857Y-73590142D01*
X208675285Y-73533000D01*
X208532428Y-73304428D02*
X208932428Y-73190142D01*
X208646714Y-73075857D01*
X208932428Y-72961571D01*
X208532428Y-72847285D01*
X201601428Y-70467285D02*
X202201428Y-70267285D01*
X201601428Y-70067285D01*
X202258571Y-70010142D02*
X202258571Y-69553000D01*
X202172857Y-69153000D02*
X202201428Y-69210142D01*
X202201428Y-69324428D01*
X202172857Y-69381571D01*
X202144285Y-69410142D01*
X202087142Y-69438714D01*
X201915714Y-69438714D01*
X201858571Y-69410142D01*
X201830000Y-69381571D01*
X201801428Y-69324428D01*
X201801428Y-69210142D01*
X201830000Y-69153000D01*
X202201428Y-68810142D02*
X202172857Y-68867285D01*
X202144285Y-68895857D01*
X202087142Y-68924428D01*
X201915714Y-68924428D01*
X201858571Y-68895857D01*
X201830000Y-68867285D01*
X201801428Y-68810142D01*
X201801428Y-68724428D01*
X201830000Y-68667285D01*
X201858571Y-68638714D01*
X201915714Y-68610142D01*
X202087142Y-68610142D01*
X202144285Y-68638714D01*
X202172857Y-68667285D01*
X202201428Y-68724428D01*
X202201428Y-68810142D01*
X201801428Y-68353000D02*
X202201428Y-68353000D01*
X201858571Y-68353000D02*
X201830000Y-68324428D01*
X201801428Y-68267285D01*
X201801428Y-68181571D01*
X201830000Y-68124428D01*
X201887142Y-68095857D01*
X202201428Y-68095857D01*
X201801428Y-67895857D02*
X201801428Y-67667285D01*
X201601428Y-67810142D02*
X202115714Y-67810142D01*
X202172857Y-67781571D01*
X202201428Y-67724428D01*
X202201428Y-67667285D01*
X202201428Y-67467285D02*
X201801428Y-67467285D01*
X201915714Y-67467285D02*
X201858571Y-67438714D01*
X201830000Y-67410142D01*
X201801428Y-67353000D01*
X201801428Y-67295857D01*
X202201428Y-67010142D02*
X202172857Y-67067285D01*
X202144285Y-67095857D01*
X202087142Y-67124428D01*
X201915714Y-67124428D01*
X201858571Y-67095857D01*
X201830000Y-67067285D01*
X201801428Y-67010142D01*
X201801428Y-66924428D01*
X201830000Y-66867285D01*
X201858571Y-66838714D01*
X201915714Y-66810142D01*
X202087142Y-66810142D01*
X202144285Y-66838714D01*
X202172857Y-66867285D01*
X202201428Y-66924428D01*
X202201428Y-67010142D01*
X202201428Y-66467285D02*
X202172857Y-66524428D01*
X202115714Y-66553000D01*
X201601428Y-66553000D01*
X202201428Y-74161571D02*
X201801428Y-74161571D01*
X201915714Y-74161571D02*
X201858571Y-74133000D01*
X201830000Y-74104428D01*
X201801428Y-74047285D01*
X201801428Y-73990142D01*
X202201428Y-73533000D02*
X201887142Y-73533000D01*
X201830000Y-73561571D01*
X201801428Y-73618714D01*
X201801428Y-73733000D01*
X201830000Y-73790142D01*
X202172857Y-73533000D02*
X202201428Y-73590142D01*
X202201428Y-73733000D01*
X202172857Y-73790142D01*
X202115714Y-73818714D01*
X202058571Y-73818714D01*
X202001428Y-73790142D01*
X201972857Y-73733000D01*
X201972857Y-73590142D01*
X201944285Y-73533000D01*
X201801428Y-73304428D02*
X202201428Y-73190142D01*
X201915714Y-73075857D01*
X202201428Y-72961571D01*
X201801428Y-72847285D01*
X202172857Y-76258714D02*
X202201428Y-76315857D01*
X202201428Y-76430142D01*
X202172857Y-76487285D01*
X202144285Y-76515857D01*
X202087142Y-76544428D01*
X201915714Y-76544428D01*
X201858571Y-76515857D01*
X201830000Y-76487285D01*
X201801428Y-76430142D01*
X201801428Y-76315857D01*
X201830000Y-76258714D01*
X201801428Y-76087285D02*
X201801428Y-75858714D01*
X201601428Y-76001571D02*
X202115714Y-76001571D01*
X202172857Y-75973000D01*
X202201428Y-75915857D01*
X202201428Y-75858714D01*
X202201428Y-75573000D02*
X202172857Y-75630142D01*
X202115714Y-75658714D01*
X201601428Y-75658714D01*
X168011571Y-102404857D02*
X168468714Y-102404857D01*
X168240142Y-102633428D02*
X168240142Y-102176285D01*
X169040142Y-102033428D02*
X168754428Y-102033428D01*
X168725857Y-102319142D01*
X168754428Y-102290571D01*
X168811571Y-102262000D01*
X168954428Y-102262000D01*
X169011571Y-102290571D01*
X169040142Y-102319142D01*
X169068714Y-102376285D01*
X169068714Y-102519142D01*
X169040142Y-102576285D01*
X169011571Y-102604857D01*
X168954428Y-102633428D01*
X168811571Y-102633428D01*
X168754428Y-102604857D01*
X168725857Y-102576285D01*
X169240142Y-102033428D02*
X169440142Y-102633428D01*
X169640142Y-102033428D01*
X168279857Y-104602000D02*
X168222714Y-104573428D01*
X168137000Y-104573428D01*
X168051285Y-104602000D01*
X167994142Y-104659142D01*
X167965571Y-104716285D01*
X167937000Y-104830571D01*
X167937000Y-104916285D01*
X167965571Y-105030571D01*
X167994142Y-105087714D01*
X168051285Y-105144857D01*
X168137000Y-105173428D01*
X168194142Y-105173428D01*
X168279857Y-105144857D01*
X168308428Y-105116285D01*
X168308428Y-104916285D01*
X168194142Y-104916285D01*
X168565571Y-105173428D02*
X168565571Y-104573428D01*
X168908428Y-105173428D01*
X168908428Y-104573428D01*
X169194142Y-105173428D02*
X169194142Y-104573428D01*
X169337000Y-104573428D01*
X169422714Y-104602000D01*
X169479857Y-104659142D01*
X169508428Y-104716285D01*
X169537000Y-104830571D01*
X169537000Y-104916285D01*
X169508428Y-105030571D01*
X169479857Y-105087714D01*
X169422714Y-105144857D01*
X169337000Y-105173428D01*
X169194142Y-105173428D01*
X169794142Y-105173428D02*
X169794142Y-104573428D01*
X169937000Y-104573428D01*
X170022714Y-104602000D01*
X170079857Y-104659142D01*
X170108428Y-104716285D01*
X170137000Y-104830571D01*
X170137000Y-104916285D01*
X170108428Y-105030571D01*
X170079857Y-105087714D01*
X170022714Y-105144857D01*
X169937000Y-105173428D01*
X169794142Y-105173428D01*
X160674142Y-107240428D02*
X160874142Y-107840428D01*
X161074142Y-107240428D01*
X161274142Y-107526142D02*
X161474142Y-107526142D01*
X161559857Y-107840428D02*
X161274142Y-107840428D01*
X161274142Y-107240428D01*
X161559857Y-107240428D01*
X161817000Y-107526142D02*
X162017000Y-107526142D01*
X162102714Y-107840428D02*
X161817000Y-107840428D01*
X161817000Y-107240428D01*
X162102714Y-107240428D01*
X160959857Y-104602000D02*
X160902714Y-104573428D01*
X160817000Y-104573428D01*
X160731285Y-104602000D01*
X160674142Y-104659142D01*
X160645571Y-104716285D01*
X160617000Y-104830571D01*
X160617000Y-104916285D01*
X160645571Y-105030571D01*
X160674142Y-105087714D01*
X160731285Y-105144857D01*
X160817000Y-105173428D01*
X160874142Y-105173428D01*
X160959857Y-105144857D01*
X160988428Y-105116285D01*
X160988428Y-104916285D01*
X160874142Y-104916285D01*
X161245571Y-105173428D02*
X161245571Y-104573428D01*
X161588428Y-105173428D01*
X161588428Y-104573428D01*
X161874142Y-105173428D02*
X161874142Y-104573428D01*
X162017000Y-104573428D01*
X162102714Y-104602000D01*
X162159857Y-104659142D01*
X162188428Y-104716285D01*
X162217000Y-104830571D01*
X162217000Y-104916285D01*
X162188428Y-105030571D01*
X162159857Y-105087714D01*
X162102714Y-105144857D01*
X162017000Y-105173428D01*
X161874142Y-105173428D01*
X160617000Y-102160428D02*
X160817000Y-102760428D01*
X161017000Y-102160428D01*
X161559857Y-102703285D02*
X161531285Y-102731857D01*
X161445571Y-102760428D01*
X161388428Y-102760428D01*
X161302714Y-102731857D01*
X161245571Y-102674714D01*
X161217000Y-102617571D01*
X161188428Y-102503285D01*
X161188428Y-102417571D01*
X161217000Y-102303285D01*
X161245571Y-102246142D01*
X161302714Y-102189000D01*
X161388428Y-102160428D01*
X161445571Y-102160428D01*
X161531285Y-102189000D01*
X161559857Y-102217571D01*
X162159857Y-102703285D02*
X162131285Y-102731857D01*
X162045571Y-102760428D01*
X161988428Y-102760428D01*
X161902714Y-102731857D01*
X161845571Y-102674714D01*
X161817000Y-102617571D01*
X161788428Y-102503285D01*
X161788428Y-102417571D01*
X161817000Y-102303285D01*
X161845571Y-102246142D01*
X161902714Y-102189000D01*
X161988428Y-102160428D01*
X162045571Y-102160428D01*
X162131285Y-102189000D01*
X162159857Y-102217571D01*
D11*
X203962000Y-119634000D02*
X203962000Y-120142000D01*
X203454000Y-119253000D02*
X204470000Y-119253000D01*
X203454000Y-119634000D02*
X204470000Y-119634000D01*
X203962000Y-119253000D02*
X203962000Y-118745000D01*
X203962000Y-139065000D02*
X203962000Y-139573000D01*
X203454000Y-138684000D02*
X204470000Y-138684000D01*
X203454000Y-139065000D02*
X204470000Y-139065000D01*
X203962000Y-138684000D02*
X203962000Y-138176000D01*
D12*
X209657904Y-135432666D02*
X209124571Y-135432666D01*
X209200761Y-135432666D02*
X209162666Y-135394571D01*
X209124571Y-135318380D01*
X209124571Y-135204095D01*
X209162666Y-135127904D01*
X209238857Y-135089809D01*
X209657904Y-135089809D01*
X209238857Y-135089809D02*
X209162666Y-135051714D01*
X209124571Y-134975523D01*
X209124571Y-134861238D01*
X209162666Y-134785047D01*
X209238857Y-134746952D01*
X209657904Y-134746952D01*
X209657904Y-134251714D02*
X209619809Y-134327904D01*
X209581714Y-134366000D01*
X209505523Y-134404095D01*
X209276952Y-134404095D01*
X209200761Y-134366000D01*
X209162666Y-134327904D01*
X209124571Y-134251714D01*
X209124571Y-134137428D01*
X209162666Y-134061238D01*
X209200761Y-134023142D01*
X209276952Y-133985047D01*
X209505523Y-133985047D01*
X209581714Y-134023142D01*
X209619809Y-134061238D01*
X209657904Y-134137428D01*
X209657904Y-134251714D01*
X209657904Y-133299333D02*
X208857904Y-133299333D01*
X209619809Y-133299333D02*
X209657904Y-133375523D01*
X209657904Y-133527904D01*
X209619809Y-133604095D01*
X209581714Y-133642190D01*
X209505523Y-133680285D01*
X209276952Y-133680285D01*
X209200761Y-133642190D01*
X209162666Y-133604095D01*
X209124571Y-133527904D01*
X209124571Y-133375523D01*
X209162666Y-133299333D01*
X209619809Y-124326619D02*
X209657904Y-124402809D01*
X209657904Y-124555190D01*
X209619809Y-124631380D01*
X209581714Y-124669476D01*
X209505523Y-124707571D01*
X209276952Y-124707571D01*
X209200761Y-124669476D01*
X209162666Y-124631380D01*
X209124571Y-124555190D01*
X209124571Y-124402809D01*
X209162666Y-124326619D01*
X209124571Y-124098047D02*
X209124571Y-123793285D01*
X208857904Y-123983761D02*
X209543619Y-123983761D01*
X209619809Y-123945666D01*
X209657904Y-123869476D01*
X209657904Y-123793285D01*
X209657904Y-123412333D02*
X209619809Y-123488523D01*
X209543619Y-123526619D01*
X208857904Y-123526619D01*
D11*
X208153000Y-124079000D02*
X208153000Y-124587000D01*
X208661000Y-132080000D02*
X208153000Y-132080000D01*
X208661000Y-126365000D02*
X208153000Y-126365000D01*
X208661000Y-126873000D02*
X208153000Y-126873000D01*
X208153000Y-132080000D02*
X208153000Y-132588000D01*
X208153000Y-124587000D02*
X208661000Y-124587000D01*
X208153000Y-129413000D02*
X208661000Y-129921000D01*
X208153000Y-131318000D02*
X208153000Y-131826000D01*
X208661000Y-131826000D02*
X208661000Y-132080000D01*
X208153000Y-123571000D02*
X208661000Y-123571000D01*
X208661000Y-131064000D02*
X208661000Y-131318000D01*
X208153000Y-131826000D02*
X208661000Y-131826000D01*
X208153000Y-123317000D02*
X208153000Y-123571000D01*
X208661000Y-124079000D02*
X208153000Y-124079000D01*
X208661000Y-128905000D02*
X208153000Y-129413000D01*
X208153000Y-131064000D02*
X208661000Y-131064000D01*
X208661000Y-123571000D02*
X208661000Y-124079000D01*
X208153000Y-128397000D02*
X208661000Y-128905000D01*
X208153000Y-126873000D02*
X208407000Y-127127000D01*
X208153000Y-132588000D02*
X208661000Y-132588000D01*
X208661000Y-131318000D02*
X208153000Y-131318000D01*
X208153000Y-130937000D02*
X208153000Y-131064000D01*
X208661000Y-132588000D02*
X208661000Y-132715000D01*
X208153000Y-125857000D02*
X208661000Y-126365000D01*
X208661000Y-124587000D02*
X208661000Y-124841000D01*
X208153000Y-126365000D02*
X208661000Y-126873000D01*
X208153000Y-135128000D02*
X208661000Y-135128000D01*
X208153000Y-133604000D02*
X208661000Y-133604000D01*
X208153000Y-134620000D02*
X208153000Y-135128000D01*
X208661000Y-134620000D02*
X208153000Y-134620000D01*
X208661000Y-134366000D02*
X208661000Y-134620000D01*
X208153000Y-134366000D02*
X208661000Y-134366000D01*
X208153000Y-133477000D02*
X208153000Y-133604000D01*
X208661000Y-133604000D02*
X208661000Y-133858000D01*
X208661000Y-133858000D02*
X208153000Y-133858000D01*
X208661000Y-135128000D02*
X208661000Y-135255000D01*
X208153000Y-133858000D02*
X208153000Y-134366000D01*
D10*
X173539428Y-104755904D02*
X173539428Y-104222571D01*
X173539428Y-104374952D02*
X173577523Y-104298761D01*
X173615619Y-104260666D01*
X173691809Y-104222571D01*
X173768000Y-104222571D01*
X174034666Y-104755904D02*
X174034666Y-104222571D01*
X174034666Y-103955904D02*
X173996571Y-103994000D01*
X174034666Y-104032095D01*
X174072761Y-103994000D01*
X174034666Y-103955904D01*
X174034666Y-104032095D01*
X174415619Y-104222571D02*
X174415619Y-104755904D01*
X174415619Y-104298761D02*
X174453714Y-104260666D01*
X174529904Y-104222571D01*
X174644190Y-104222571D01*
X174720380Y-104260666D01*
X174758476Y-104336857D01*
X174758476Y-104755904D01*
X175482285Y-104222571D02*
X175482285Y-104870190D01*
X175444190Y-104946380D01*
X175406095Y-104984476D01*
X175329904Y-105022571D01*
X175215619Y-105022571D01*
X175139428Y-104984476D01*
X175482285Y-104717809D02*
X175406095Y-104755904D01*
X175253714Y-104755904D01*
X175177523Y-104717809D01*
X175139428Y-104679714D01*
X175101333Y-104603523D01*
X175101333Y-104374952D01*
X175139428Y-104298761D01*
X175177523Y-104260666D01*
X175253714Y-104222571D01*
X175406095Y-104222571D01*
X175482285Y-104260666D01*
X175863238Y-104755904D02*
X175863238Y-104222571D01*
X175863238Y-104298761D02*
X175901333Y-104260666D01*
X175977523Y-104222571D01*
X176091809Y-104222571D01*
X176168000Y-104260666D01*
X176206095Y-104336857D01*
X176206095Y-104755904D01*
X176206095Y-104336857D02*
X176244190Y-104260666D01*
X176320380Y-104222571D01*
X176434666Y-104222571D01*
X176510857Y-104260666D01*
X176548952Y-104336857D01*
X176548952Y-104755904D01*
X177044190Y-104755904D02*
X176968000Y-104717809D01*
X176929904Y-104679714D01*
X176891809Y-104603523D01*
X176891809Y-104374952D01*
X176929904Y-104298761D01*
X176968000Y-104260666D01*
X177044190Y-104222571D01*
X177158476Y-104222571D01*
X177234666Y-104260666D01*
X177272761Y-104298761D01*
X177310857Y-104374952D01*
X177310857Y-104603523D01*
X177272761Y-104679714D01*
X177234666Y-104717809D01*
X177158476Y-104755904D01*
X177044190Y-104755904D01*
X177996571Y-104755904D02*
X177996571Y-103955904D01*
X177996571Y-104717809D02*
X177920380Y-104755904D01*
X177768000Y-104755904D01*
X177691809Y-104717809D01*
X177653714Y-104679714D01*
X177615619Y-104603523D01*
X177615619Y-104374952D01*
X177653714Y-104298761D01*
X177691809Y-104260666D01*
X177768000Y-104222571D01*
X177920380Y-104222571D01*
X177996571Y-104260666D01*
X166871761Y-82746809D02*
X166795571Y-82784904D01*
X166643190Y-82784904D01*
X166567000Y-82746809D01*
X166528904Y-82670619D01*
X166528904Y-82365857D01*
X166567000Y-82289666D01*
X166643190Y-82251571D01*
X166795571Y-82251571D01*
X166871761Y-82289666D01*
X166909857Y-82365857D01*
X166909857Y-82442047D01*
X166528904Y-82518238D01*
X167176523Y-82784904D02*
X167595571Y-82251571D01*
X167176523Y-82251571D02*
X167595571Y-82784904D01*
X167900333Y-82251571D02*
X167900333Y-83051571D01*
X167900333Y-82289666D02*
X167976523Y-82251571D01*
X168128904Y-82251571D01*
X168205095Y-82289666D01*
X168243190Y-82327761D01*
X168281285Y-82403952D01*
X168281285Y-82632523D01*
X168243190Y-82708714D01*
X168205095Y-82746809D01*
X168128904Y-82784904D01*
X167976523Y-82784904D01*
X167900333Y-82746809D01*
X168738428Y-82784904D02*
X168662238Y-82746809D01*
X168624142Y-82708714D01*
X168586047Y-82632523D01*
X168586047Y-82403952D01*
X168624142Y-82327761D01*
X168662238Y-82289666D01*
X168738428Y-82251571D01*
X168852714Y-82251571D01*
X168928904Y-82289666D01*
X168967000Y-82327761D01*
X169005095Y-82403952D01*
X169005095Y-82632523D01*
X168967000Y-82708714D01*
X168928904Y-82746809D01*
X168852714Y-82784904D01*
X168738428Y-82784904D01*
D11*
X164973000Y-123317000D02*
X164973000Y-122936000D01*
X164465000Y-123317000D02*
X165481000Y-123317000D01*
X164909500Y-123825000D02*
X165036500Y-123825000D01*
X165227000Y-123571000D02*
X164719000Y-123571000D01*
D10*
X168241214Y-64812571D02*
X168431690Y-65345904D01*
X168622166Y-64812571D01*
X169269785Y-65345904D02*
X169269785Y-64926857D01*
X169231690Y-64850666D01*
X169155500Y-64812571D01*
X169003119Y-64812571D01*
X168926928Y-64850666D01*
X169269785Y-65307809D02*
X169193595Y-65345904D01*
X169003119Y-65345904D01*
X168926928Y-65307809D01*
X168888833Y-65231619D01*
X168888833Y-65155428D01*
X168926928Y-65079238D01*
X169003119Y-65041142D01*
X169193595Y-65041142D01*
X169269785Y-65003047D01*
X169650738Y-65345904D02*
X169650738Y-64812571D01*
X169650738Y-64964952D02*
X169688833Y-64888761D01*
X169726928Y-64850666D01*
X169803119Y-64812571D01*
X169879309Y-64812571D01*
X167631690Y-66162571D02*
X167822166Y-66695904D01*
X168012642Y-66162571D01*
X168279309Y-66657809D02*
X168355500Y-66695904D01*
X168507880Y-66695904D01*
X168584071Y-66657809D01*
X168622166Y-66581619D01*
X168622166Y-66543523D01*
X168584071Y-66467333D01*
X168507880Y-66429238D01*
X168393595Y-66429238D01*
X168317404Y-66391142D01*
X168279309Y-66314952D01*
X168279309Y-66276857D01*
X168317404Y-66200666D01*
X168393595Y-66162571D01*
X168507880Y-66162571D01*
X168584071Y-66200666D01*
X168965023Y-66695904D02*
X168965023Y-66162571D01*
X168965023Y-66314952D02*
X169003119Y-66238761D01*
X169041214Y-66200666D01*
X169117404Y-66162571D01*
X169193595Y-66162571D01*
X169803119Y-66657809D02*
X169726928Y-66695904D01*
X169574547Y-66695904D01*
X169498357Y-66657809D01*
X169460261Y-66619714D01*
X169422166Y-66543523D01*
X169422166Y-66314952D01*
X169460261Y-66238761D01*
X169498357Y-66200666D01*
X169574547Y-66162571D01*
X169726928Y-66162571D01*
X169803119Y-66200666D01*
X163899809Y-116769761D02*
X163937904Y-116693571D01*
X163937904Y-116541190D01*
X163899809Y-116465000D01*
X163823619Y-116426904D01*
X163785523Y-116426904D01*
X163709333Y-116465000D01*
X163671238Y-116541190D01*
X163671238Y-116655476D01*
X163633142Y-116731666D01*
X163556952Y-116769761D01*
X163518857Y-116769761D01*
X163442666Y-116731666D01*
X163404571Y-116655476D01*
X163404571Y-116541190D01*
X163442666Y-116465000D01*
X163937904Y-116084047D02*
X163137904Y-116084047D01*
X163937904Y-115741190D02*
X163518857Y-115741190D01*
X163442666Y-115779285D01*
X163404571Y-115855476D01*
X163404571Y-115969761D01*
X163442666Y-116045952D01*
X163480761Y-116084047D01*
X163937904Y-115017380D02*
X163518857Y-115017380D01*
X163442666Y-115055476D01*
X163404571Y-115131666D01*
X163404571Y-115284047D01*
X163442666Y-115360238D01*
X163899809Y-115017380D02*
X163937904Y-115093571D01*
X163937904Y-115284047D01*
X163899809Y-115360238D01*
X163823619Y-115398333D01*
X163747428Y-115398333D01*
X163671238Y-115360238D01*
X163633142Y-115284047D01*
X163633142Y-115093571D01*
X163595047Y-115017380D01*
X163404571Y-114636428D02*
X164204571Y-114636428D01*
X163442666Y-114636428D02*
X163404571Y-114560238D01*
X163404571Y-114407857D01*
X163442666Y-114331666D01*
X163480761Y-114293571D01*
X163556952Y-114255476D01*
X163785523Y-114255476D01*
X163861714Y-114293571D01*
X163899809Y-114331666D01*
X163937904Y-114407857D01*
X163937904Y-114560238D01*
X163899809Y-114636428D01*
X163899809Y-113607857D02*
X163937904Y-113684047D01*
X163937904Y-113836428D01*
X163899809Y-113912619D01*
X163823619Y-113950714D01*
X163518857Y-113950714D01*
X163442666Y-113912619D01*
X163404571Y-113836428D01*
X163404571Y-113684047D01*
X163442666Y-113607857D01*
X163518857Y-113569761D01*
X163595047Y-113569761D01*
X163671238Y-113950714D01*
X163404571Y-112731666D02*
X163404571Y-112426904D01*
X163137904Y-112617380D02*
X163823619Y-112617380D01*
X163899809Y-112579285D01*
X163937904Y-112503095D01*
X163937904Y-112426904D01*
X163937904Y-112160238D02*
X163404571Y-112160238D01*
X163556952Y-112160238D02*
X163480761Y-112122142D01*
X163442666Y-112084047D01*
X163404571Y-112007857D01*
X163404571Y-111931666D01*
X163937904Y-111665000D02*
X163404571Y-111665000D01*
X163137904Y-111665000D02*
X163176000Y-111703095D01*
X163214095Y-111665000D01*
X163176000Y-111626904D01*
X163137904Y-111665000D01*
X163214095Y-111665000D01*
X163937904Y-111284047D02*
X163404571Y-111284047D01*
X163480761Y-111284047D02*
X163442666Y-111245952D01*
X163404571Y-111169761D01*
X163404571Y-111055476D01*
X163442666Y-110979285D01*
X163518857Y-110941190D01*
X163937904Y-110941190D01*
X163518857Y-110941190D02*
X163442666Y-110903095D01*
X163404571Y-110826904D01*
X163404571Y-110712619D01*
X163442666Y-110636428D01*
X163518857Y-110598333D01*
X163937904Y-110598333D01*
X167557904Y-134054809D02*
X167634095Y-134092904D01*
X167786476Y-134092904D01*
X167862666Y-134054809D01*
X167900761Y-133978619D01*
X167900761Y-133940523D01*
X167862666Y-133864333D01*
X167786476Y-133826238D01*
X167672190Y-133826238D01*
X167596000Y-133788142D01*
X167557904Y-133711952D01*
X167557904Y-133673857D01*
X167596000Y-133597666D01*
X167672190Y-133559571D01*
X167786476Y-133559571D01*
X167862666Y-133597666D01*
X168586476Y-134054809D02*
X168510285Y-134092904D01*
X168357904Y-134092904D01*
X168281714Y-134054809D01*
X168243619Y-134016714D01*
X168205523Y-133940523D01*
X168205523Y-133711952D01*
X168243619Y-133635761D01*
X168281714Y-133597666D01*
X168357904Y-133559571D01*
X168510285Y-133559571D01*
X168586476Y-133597666D01*
X168929333Y-134092904D02*
X168929333Y-133292904D01*
X169272190Y-134092904D02*
X169272190Y-133673857D01*
X169234095Y-133597666D01*
X169157904Y-133559571D01*
X169043619Y-133559571D01*
X168967428Y-133597666D01*
X168929333Y-133635761D01*
X169653142Y-134092904D02*
X169653142Y-133559571D01*
X169653142Y-133635761D02*
X169691238Y-133597666D01*
X169767428Y-133559571D01*
X169881714Y-133559571D01*
X169957904Y-133597666D01*
X169996000Y-133673857D01*
X169996000Y-134092904D01*
X169996000Y-133673857D02*
X170034095Y-133597666D01*
X170110285Y-133559571D01*
X170224571Y-133559571D01*
X170300761Y-133597666D01*
X170338857Y-133673857D01*
X170338857Y-134092904D01*
X170719809Y-134092904D02*
X170719809Y-133559571D01*
X170719809Y-133292904D02*
X170681714Y-133331000D01*
X170719809Y-133369095D01*
X170757904Y-133331000D01*
X170719809Y-133292904D01*
X170719809Y-133369095D01*
X170986476Y-133559571D02*
X171291238Y-133559571D01*
X171100761Y-133292904D02*
X171100761Y-133978619D01*
X171138857Y-134054809D01*
X171215047Y-134092904D01*
X171291238Y-134092904D01*
X171443619Y-133559571D02*
X171748380Y-133559571D01*
X171557904Y-133292904D02*
X171557904Y-133978619D01*
X171596000Y-134054809D01*
X171672190Y-134092904D01*
X171748380Y-134092904D01*
X172510285Y-133559571D02*
X172815047Y-133559571D01*
X172624571Y-134092904D02*
X172624571Y-133407190D01*
X172662666Y-133331000D01*
X172738857Y-133292904D01*
X172815047Y-133292904D01*
X173424571Y-134092904D02*
X173424571Y-133292904D01*
X173424571Y-134054809D02*
X173348380Y-134092904D01*
X173196000Y-134092904D01*
X173119809Y-134054809D01*
X173081714Y-134016714D01*
X173043619Y-133940523D01*
X173043619Y-133711952D01*
X173081714Y-133635761D01*
X173119809Y-133597666D01*
X173196000Y-133559571D01*
X173348380Y-133559571D01*
X173424571Y-133597666D01*
X173805523Y-134092904D02*
X173805523Y-133292904D01*
X173805523Y-133597666D02*
X173881714Y-133559571D01*
X174034095Y-133559571D01*
X174110285Y-133597666D01*
X174148380Y-133635761D01*
X174186476Y-133711952D01*
X174186476Y-133940523D01*
X174148380Y-134016714D01*
X174110285Y-134054809D01*
X174034095Y-134092904D01*
X173881714Y-134092904D01*
X173805523Y-134054809D01*
X174529333Y-134092904D02*
X174529333Y-133292904D01*
X174605523Y-133788142D02*
X174834095Y-134092904D01*
X174834095Y-133559571D02*
X174529333Y-133864333D01*
X172409095Y-95992904D02*
X172409095Y-95459571D01*
X172409095Y-95611952D02*
X172447190Y-95535761D01*
X172485285Y-95497666D01*
X172561476Y-95459571D01*
X172637666Y-95459571D01*
X173018619Y-95992904D02*
X172942428Y-95954809D01*
X172904333Y-95916714D01*
X172866238Y-95840523D01*
X172866238Y-95611952D01*
X172904333Y-95535761D01*
X172942428Y-95497666D01*
X173018619Y-95459571D01*
X173132904Y-95459571D01*
X173209095Y-95497666D01*
X173247190Y-95535761D01*
X173285285Y-95611952D01*
X173285285Y-95840523D01*
X173247190Y-95916714D01*
X173209095Y-95954809D01*
X173132904Y-95992904D01*
X173018619Y-95992904D01*
X173590047Y-95954809D02*
X173666238Y-95992904D01*
X173818619Y-95992904D01*
X173894809Y-95954809D01*
X173932904Y-95878619D01*
X173932904Y-95840523D01*
X173894809Y-95764333D01*
X173818619Y-95726238D01*
X173704333Y-95726238D01*
X173628142Y-95688142D01*
X173590047Y-95611952D01*
X173590047Y-95573857D01*
X173628142Y-95497666D01*
X173704333Y-95459571D01*
X173818619Y-95459571D01*
X173894809Y-95497666D01*
X174237666Y-95954809D02*
X174313857Y-95992904D01*
X174466238Y-95992904D01*
X174542428Y-95954809D01*
X174580523Y-95878619D01*
X174580523Y-95840523D01*
X174542428Y-95764333D01*
X174466238Y-95726238D01*
X174351952Y-95726238D01*
X174275761Y-95688142D01*
X174237666Y-95611952D01*
X174237666Y-95573857D01*
X174275761Y-95497666D01*
X174351952Y-95459571D01*
X174466238Y-95459571D01*
X174542428Y-95497666D01*
X175266238Y-95459571D02*
X175266238Y-95992904D01*
X174923380Y-95459571D02*
X174923380Y-95878619D01*
X174961476Y-95954809D01*
X175037666Y-95992904D01*
X175151952Y-95992904D01*
X175228142Y-95954809D01*
X175266238Y-95916714D01*
X175647190Y-95992904D02*
X175647190Y-95459571D01*
X175647190Y-95535761D02*
X175685285Y-95497666D01*
X175761476Y-95459571D01*
X175875761Y-95459571D01*
X175951952Y-95497666D01*
X175990047Y-95573857D01*
X175990047Y-95992904D01*
X175990047Y-95573857D02*
X176028142Y-95497666D01*
X176104333Y-95459571D01*
X176218619Y-95459571D01*
X176294809Y-95497666D01*
X176332904Y-95573857D01*
X176332904Y-95992904D01*
X196900952Y-88601571D02*
X197205714Y-88601571D01*
X197015238Y-88334904D02*
X197015238Y-89020619D01*
X197053333Y-89096809D01*
X197129523Y-89134904D01*
X197205714Y-89134904D01*
X197815238Y-88601571D02*
X197815238Y-89134904D01*
X197472380Y-88601571D02*
X197472380Y-89020619D01*
X197510476Y-89096809D01*
X197586666Y-89134904D01*
X197700952Y-89134904D01*
X197777142Y-89096809D01*
X197815238Y-89058714D01*
X198196190Y-88601571D02*
X198196190Y-89134904D01*
X198196190Y-88677761D02*
X198234285Y-88639666D01*
X198310476Y-88601571D01*
X198424761Y-88601571D01*
X198500952Y-88639666D01*
X198539047Y-88715857D01*
X198539047Y-89134904D01*
X199224761Y-89096809D02*
X199148571Y-89134904D01*
X198996190Y-89134904D01*
X198920000Y-89096809D01*
X198881904Y-89020619D01*
X198881904Y-88715857D01*
X198920000Y-88639666D01*
X198996190Y-88601571D01*
X199148571Y-88601571D01*
X199224761Y-88639666D01*
X199262857Y-88715857D01*
X199262857Y-88792047D01*
X198881904Y-88868238D01*
X161101738Y-136168380D02*
X161435071Y-137168380D01*
X161768404Y-136168380D01*
X162673166Y-137073142D02*
X162625547Y-137120761D01*
X162482690Y-137168380D01*
X162387452Y-137168380D01*
X162244595Y-137120761D01*
X162149357Y-137025523D01*
X162101738Y-136930285D01*
X162054119Y-136739809D01*
X162054119Y-136596952D01*
X162101738Y-136406476D01*
X162149357Y-136311238D01*
X162244595Y-136216000D01*
X162387452Y-136168380D01*
X162482690Y-136168380D01*
X162625547Y-136216000D01*
X162673166Y-136263619D01*
X163292214Y-136168380D02*
X163482690Y-136168380D01*
X163577928Y-136216000D01*
X163673166Y-136311238D01*
X163720785Y-136501714D01*
X163720785Y-136835047D01*
X163673166Y-137025523D01*
X163577928Y-137120761D01*
X163482690Y-137168380D01*
X163292214Y-137168380D01*
X163196976Y-137120761D01*
X163101738Y-137025523D01*
X163054119Y-136835047D01*
X163054119Y-136501714D01*
X163101738Y-136311238D01*
X163196976Y-136216000D01*
X163292214Y-136168380D01*
X165339833Y-137168380D02*
X165339833Y-136168380D01*
X165339833Y-137120761D02*
X165244595Y-137168380D01*
X165054119Y-137168380D01*
X164958880Y-137120761D01*
X164911261Y-137073142D01*
X164863642Y-136977904D01*
X164863642Y-136692190D01*
X164911261Y-136596952D01*
X164958880Y-136549333D01*
X165054119Y-136501714D01*
X165244595Y-136501714D01*
X165339833Y-136549333D01*
X166196976Y-137120761D02*
X166101738Y-137168380D01*
X165911261Y-137168380D01*
X165816023Y-137120761D01*
X165768404Y-137025523D01*
X165768404Y-136644571D01*
X165816023Y-136549333D01*
X165911261Y-136501714D01*
X166101738Y-136501714D01*
X166196976Y-136549333D01*
X166244595Y-136644571D01*
X166244595Y-136739809D01*
X165768404Y-136835047D01*
X166577928Y-136501714D02*
X166816023Y-137168380D01*
X167054119Y-136501714D01*
X167816023Y-137120761D02*
X167720785Y-137168380D01*
X167530309Y-137168380D01*
X167435071Y-137120761D01*
X167387452Y-137025523D01*
X167387452Y-136644571D01*
X167435071Y-136549333D01*
X167530309Y-136501714D01*
X167720785Y-136501714D01*
X167816023Y-136549333D01*
X167863642Y-136644571D01*
X167863642Y-136739809D01*
X167387452Y-136835047D01*
X168435071Y-137168380D02*
X168339833Y-137120761D01*
X168292214Y-137025523D01*
X168292214Y-136168380D01*
X168958880Y-137168380D02*
X168863642Y-137120761D01*
X168816023Y-137073142D01*
X168768404Y-136977904D01*
X168768404Y-136692190D01*
X168816023Y-136596952D01*
X168863642Y-136549333D01*
X168958880Y-136501714D01*
X169101738Y-136501714D01*
X169196976Y-136549333D01*
X169244595Y-136596952D01*
X169292214Y-136692190D01*
X169292214Y-136977904D01*
X169244595Y-137073142D01*
X169196976Y-137120761D01*
X169101738Y-137168380D01*
X168958880Y-137168380D01*
X169720785Y-136501714D02*
X169720785Y-137501714D01*
X169720785Y-136549333D02*
X169816023Y-136501714D01*
X170006500Y-136501714D01*
X170101738Y-136549333D01*
X170149357Y-136596952D01*
X170196976Y-136692190D01*
X170196976Y-136977904D01*
X170149357Y-137073142D01*
X170101738Y-137120761D01*
X170006500Y-137168380D01*
X169816023Y-137168380D01*
X169720785Y-137120761D01*
X170625547Y-137168380D02*
X170625547Y-136501714D01*
X170625547Y-136596952D02*
X170673166Y-136549333D01*
X170768404Y-136501714D01*
X170911261Y-136501714D01*
X171006500Y-136549333D01*
X171054119Y-136644571D01*
X171054119Y-137168380D01*
X171054119Y-136644571D02*
X171101738Y-136549333D01*
X171196976Y-136501714D01*
X171339833Y-136501714D01*
X171435071Y-136549333D01*
X171482690Y-136644571D01*
X171482690Y-137168380D01*
X172339833Y-137120761D02*
X172244595Y-137168380D01*
X172054119Y-137168380D01*
X171958880Y-137120761D01*
X171911261Y-137025523D01*
X171911261Y-136644571D01*
X171958880Y-136549333D01*
X172054119Y-136501714D01*
X172244595Y-136501714D01*
X172339833Y-136549333D01*
X172387452Y-136644571D01*
X172387452Y-136739809D01*
X171911261Y-136835047D01*
X172816023Y-136501714D02*
X172816023Y-137168380D01*
X172816023Y-136596952D02*
X172863642Y-136549333D01*
X172958880Y-136501714D01*
X173101738Y-136501714D01*
X173196976Y-136549333D01*
X173244595Y-136644571D01*
X173244595Y-137168380D01*
X173577928Y-136501714D02*
X173958880Y-136501714D01*
X173720785Y-136168380D02*
X173720785Y-137025523D01*
X173768404Y-137120761D01*
X173863642Y-137168380D01*
X173958880Y-137168380D01*
X161244595Y-138818380D02*
X161244595Y-137818380D01*
X161244595Y-138199333D02*
X161339833Y-138151714D01*
X161530309Y-138151714D01*
X161625547Y-138199333D01*
X161673166Y-138246952D01*
X161720785Y-138342190D01*
X161720785Y-138627904D01*
X161673166Y-138723142D01*
X161625547Y-138770761D01*
X161530309Y-138818380D01*
X161339833Y-138818380D01*
X161244595Y-138770761D01*
X162292214Y-138818380D02*
X162196976Y-138770761D01*
X162149357Y-138723142D01*
X162101738Y-138627904D01*
X162101738Y-138342190D01*
X162149357Y-138246952D01*
X162196976Y-138199333D01*
X162292214Y-138151714D01*
X162435071Y-138151714D01*
X162530309Y-138199333D01*
X162577928Y-138246952D01*
X162625547Y-138342190D01*
X162625547Y-138627904D01*
X162577928Y-138723142D01*
X162530309Y-138770761D01*
X162435071Y-138818380D01*
X162292214Y-138818380D01*
X163482690Y-138818380D02*
X163482690Y-138294571D01*
X163435071Y-138199333D01*
X163339833Y-138151714D01*
X163149357Y-138151714D01*
X163054119Y-138199333D01*
X163482690Y-138770761D02*
X163387452Y-138818380D01*
X163149357Y-138818380D01*
X163054119Y-138770761D01*
X163006500Y-138675523D01*
X163006500Y-138580285D01*
X163054119Y-138485047D01*
X163149357Y-138437428D01*
X163387452Y-138437428D01*
X163482690Y-138389809D01*
X163958880Y-138818380D02*
X163958880Y-138151714D01*
X163958880Y-138342190D02*
X164006500Y-138246952D01*
X164054119Y-138199333D01*
X164149357Y-138151714D01*
X164244595Y-138151714D01*
X165006500Y-138818380D02*
X165006500Y-137818380D01*
X165006500Y-138770761D02*
X164911261Y-138818380D01*
X164720785Y-138818380D01*
X164625547Y-138770761D01*
X164577928Y-138723142D01*
X164530309Y-138627904D01*
X164530309Y-138342190D01*
X164577928Y-138246952D01*
X164625547Y-138199333D01*
X164720785Y-138151714D01*
X164911261Y-138151714D01*
X165006500Y-138199333D01*
X166244595Y-138818380D02*
X166244595Y-138151714D01*
X166244595Y-138246952D02*
X166292214Y-138199333D01*
X166387452Y-138151714D01*
X166530309Y-138151714D01*
X166625547Y-138199333D01*
X166673166Y-138294571D01*
X166673166Y-138818380D01*
X166673166Y-138294571D02*
X166720785Y-138199333D01*
X166816023Y-138151714D01*
X166958880Y-138151714D01*
X167054119Y-138199333D01*
X167101738Y-138294571D01*
X167101738Y-138818380D01*
X167577928Y-138818380D02*
X167577928Y-137818380D01*
X167673166Y-138437428D02*
X167958880Y-138818380D01*
X167958880Y-138151714D02*
X167577928Y-138532666D01*
X169149357Y-138818380D02*
X169149357Y-137818380D01*
D11*
X182753000Y-137668000D02*
X183515000Y-137668000D01*
X182372000Y-138938000D02*
X181102000Y-138938000D01*
X182372000Y-139573000D02*
X182372000Y-138303000D01*
X182880000Y-138938000D02*
X184023000Y-138938000D01*
X182245000Y-137668000D02*
X181737000Y-137668000D01*
X182880000Y-138303000D02*
X182880000Y-139573000D01*
X182245000Y-137668000D02*
X182880000Y-137287000D01*
X181737000Y-138938000D02*
X181737000Y-137668000D01*
X183515000Y-138938000D02*
X183515000Y-137668000D01*
D10*
X174968047Y-138372809D02*
X175044238Y-138410904D01*
X175196619Y-138410904D01*
X175272809Y-138372809D01*
X175310904Y-138296619D01*
X175310904Y-138258523D01*
X175272809Y-138182333D01*
X175196619Y-138144238D01*
X175082333Y-138144238D01*
X175006142Y-138106142D01*
X174968047Y-138029952D01*
X174968047Y-137991857D01*
X175006142Y-137915666D01*
X175082333Y-137877571D01*
X175196619Y-137877571D01*
X175272809Y-137915666D01*
X175577571Y-137877571D02*
X175768047Y-138410904D01*
X175958523Y-137877571D02*
X175768047Y-138410904D01*
X175691857Y-138601380D01*
X175653761Y-138639476D01*
X175577571Y-138677571D01*
X176263285Y-137877571D02*
X176263285Y-138410904D01*
X176263285Y-137953761D02*
X176301380Y-137915666D01*
X176377571Y-137877571D01*
X176491857Y-137877571D01*
X176568047Y-137915666D01*
X176606142Y-137991857D01*
X176606142Y-138410904D01*
X177329952Y-138372809D02*
X177253761Y-138410904D01*
X177101380Y-138410904D01*
X177025190Y-138372809D01*
X176987095Y-138334714D01*
X176949000Y-138258523D01*
X176949000Y-138029952D01*
X176987095Y-137953761D01*
X177025190Y-137915666D01*
X177101380Y-137877571D01*
X177253761Y-137877571D01*
X177329952Y-137915666D01*
D13*
G36*
X165524000Y-65278000D02*
G01*
X162476000Y-65278000D01*
X162476000Y-62544960D01*
X163034800Y-62544960D01*
X163034800Y-63032640D01*
X163324493Y-63032640D01*
X163504747Y-63393319D01*
X163685002Y-63753999D01*
X163504747Y-64114679D01*
X163324493Y-64475360D01*
X163034800Y-64475360D01*
X163034800Y-64963040D01*
X163568200Y-64962746D01*
X163781560Y-64541461D01*
X163824963Y-64455966D01*
X163865620Y-64376279D01*
X163902606Y-64304184D01*
X163934996Y-64241465D01*
X163961866Y-64189906D01*
X163982290Y-64151290D01*
X163995343Y-64127403D01*
X164000045Y-64119968D01*
X164005528Y-64128702D01*
X164019224Y-64153805D01*
X164040210Y-64193493D01*
X164067561Y-64245985D01*
X164100354Y-64309501D01*
X164137663Y-64382257D01*
X164178566Y-64462472D01*
X164218485Y-64541148D01*
X164431800Y-64962536D01*
X164703763Y-64962788D01*
X164975727Y-64963040D01*
X164973003Y-64721740D01*
X164970280Y-64480440D01*
X164680402Y-64474800D01*
X164500287Y-64114400D01*
X164320173Y-63753999D01*
X164500287Y-63393599D01*
X164680402Y-63033199D01*
X164825341Y-63030379D01*
X164970280Y-63027560D01*
X164973003Y-62786260D01*
X164975727Y-62544960D01*
X164703763Y-62545208D01*
X164431800Y-62545457D01*
X164218440Y-62966825D01*
X164175044Y-63052315D01*
X164134396Y-63131982D01*
X164097418Y-63204044D01*
X164065036Y-63266720D01*
X164038174Y-63318228D01*
X164017755Y-63356787D01*
X164004703Y-63380614D01*
X164000000Y-63387994D01*
X163994523Y-63379176D01*
X163980829Y-63353995D01*
X163959841Y-63314234D01*
X163932484Y-63261679D01*
X163899683Y-63198111D01*
X163862361Y-63125316D01*
X163821443Y-63045078D01*
X163781560Y-62966497D01*
X163568200Y-62545200D01*
X163034800Y-62544960D01*
X162476000Y-62544960D01*
X162476000Y-62230000D01*
X165524000Y-62230000D01*
X165524000Y-65278000D01*
X165524000Y-65278000D01*
G37*
X165524000Y-65278000D02*
X162476000Y-65278000D01*
X162476000Y-62544960D01*
X163034800Y-62544960D01*
X163034800Y-63032640D01*
X163324493Y-63032640D01*
X163504747Y-63393319D01*
X163685002Y-63753999D01*
X163504747Y-64114679D01*
X163324493Y-64475360D01*
X163034800Y-64475360D01*
X163034800Y-64963040D01*
X163568200Y-64962746D01*
X163781560Y-64541461D01*
X163824963Y-64455966D01*
X163865620Y-64376279D01*
X163902606Y-64304184D01*
X163934996Y-64241465D01*
X163961866Y-64189906D01*
X163982290Y-64151290D01*
X163995343Y-64127403D01*
X164000045Y-64119968D01*
X164005528Y-64128702D01*
X164019224Y-64153805D01*
X164040210Y-64193493D01*
X164067561Y-64245985D01*
X164100354Y-64309501D01*
X164137663Y-64382257D01*
X164178566Y-64462472D01*
X164218485Y-64541148D01*
X164431800Y-64962536D01*
X164703763Y-64962788D01*
X164975727Y-64963040D01*
X164973003Y-64721740D01*
X164970280Y-64480440D01*
X164680402Y-64474800D01*
X164500287Y-64114400D01*
X164320173Y-63753999D01*
X164500287Y-63393599D01*
X164680402Y-63033199D01*
X164825341Y-63030379D01*
X164970280Y-63027560D01*
X164973003Y-62786260D01*
X164975727Y-62544960D01*
X164703763Y-62545208D01*
X164431800Y-62545457D01*
X164218440Y-62966825D01*
X164175044Y-63052315D01*
X164134396Y-63131982D01*
X164097418Y-63204044D01*
X164065036Y-63266720D01*
X164038174Y-63318228D01*
X164017755Y-63356787D01*
X164004703Y-63380614D01*
X164000000Y-63387994D01*
X163994523Y-63379176D01*
X163980829Y-63353995D01*
X163959841Y-63314234D01*
X163932484Y-63261679D01*
X163899683Y-63198111D01*
X163862361Y-63125316D01*
X163821443Y-63045078D01*
X163781560Y-62966497D01*
X163568200Y-62545200D01*
X163034800Y-62544960D01*
X162476000Y-62544960D01*
X162476000Y-62230000D01*
X165524000Y-62230000D01*
X165524000Y-65278000D01*
D11*
X170597000Y-79431000D02*
X170597000Y-69151000D01*
X162737000Y-79431000D02*
X170597000Y-79431000D01*
X162737000Y-69151000D02*
X162737000Y-79431000D01*
X170597000Y-69151000D02*
X162737000Y-69151000D01*
X170537000Y-75291000D02*
G75*
G02X170537000Y-73291000I0J1000000D01*
G01*
X166264000Y-74227500D02*
X169864000Y-74227500D01*
X166233437Y-74202100D02*
G75*
G02X165574800Y-71660337I1830563J1830563D01*
G01*
X169892800Y-74202100D02*
G75*
G03X170551437Y-71660337I-1830563J1830563D01*
G01*
X169864000Y-74354500D02*
X166264000Y-74354500D01*
X169894563Y-74379900D02*
G75*
G02X170553200Y-76921663I-1830563J-1830563D01*
G01*
X166235200Y-74379900D02*
G75*
G03X165576563Y-76921663I1830563J-1830563D01*
G01*
X172966000Y-71100000D02*
G75*
G02X172966000Y-73100000I0J-1000000D01*
G01*
X172966000Y-73100000D02*
X172966000Y-74750000D01*
X172966000Y-74750000D02*
X190866000Y-74750000D01*
X190866000Y-74750000D02*
X190866000Y-69450000D01*
X190866000Y-69450000D02*
X172966000Y-69450000D01*
X172966000Y-69450000D02*
X172966000Y-71100000D01*
X202632000Y-120209000D02*
X203962000Y-120209000D01*
X202632000Y-121539000D02*
X202632000Y-120209000D01*
X205232000Y-120209000D02*
X207832000Y-120209000D01*
X205232000Y-122809000D02*
X205232000Y-120209000D01*
X202632000Y-122809000D02*
X205232000Y-122809000D01*
X207832000Y-120209000D02*
X207832000Y-138109000D01*
X202632000Y-122809000D02*
X202632000Y-138109000D01*
X202632000Y-138109000D02*
X207832000Y-138109000D01*
X174429000Y-111770000D02*
X174429000Y-116840000D01*
X164659000Y-111770000D02*
X164659000Y-116840000D01*
X164659000Y-116840000D02*
X174429000Y-116840000D01*
X164659000Y-111770000D02*
X174429000Y-111770000D01*
X190373000Y-89028000D02*
G75*
G02X188373000Y-89028000I-1000000J0D01*
G01*
X188373000Y-89028000D02*
X186723000Y-89028000D01*
X186723000Y-89028000D02*
X186723000Y-106928000D01*
X186723000Y-106928000D02*
X192023000Y-106928000D01*
X192023000Y-106928000D02*
X192023000Y-89028000D01*
X192023000Y-89028000D02*
X190373000Y-89028000D01*
X190736000Y-112210000D02*
X189086000Y-112210000D01*
X190736000Y-130110000D02*
X190736000Y-112210000D01*
X185436000Y-130110000D02*
X190736000Y-130110000D01*
X185436000Y-112210000D02*
X185436000Y-130110000D01*
X187086000Y-112210000D02*
X185436000Y-112210000D01*
X189086000Y-112210000D02*
G75*
G02X187086000Y-112210000I-1000000J0D01*
G01*
X194596000Y-86681000D02*
X194596000Y-85991000D01*
X194696000Y-86681000D02*
X194596000Y-86681000D01*
X201216000Y-86681000D02*
X201216000Y-86431000D01*
X201116000Y-86681000D02*
X201216000Y-86681000D01*
X201116000Y-86881000D02*
X201116000Y-86681000D01*
X199696000Y-86681000D02*
X199696000Y-86881000D01*
X194596000Y-80971000D02*
G75*
G02X195906000Y-79661000I1310000J0D01*
G01*
X199906000Y-79661000D02*
G75*
G02X201216000Y-80971000I0J-1310000D01*
G01*
X195906000Y-79661000D02*
X197396000Y-79661000D01*
X194596000Y-84951000D02*
X194596000Y-80971000D01*
X201216000Y-80971000D02*
X201216000Y-84511000D01*
X198416000Y-79661000D02*
X199906000Y-79661000D01*
X194696000Y-86881000D02*
X194696000Y-86681000D01*
X196116000Y-86881000D02*
X194696000Y-86881000D01*
X196116000Y-86681000D02*
X196116000Y-86881000D01*
X199696000Y-86681000D02*
X196116000Y-86681000D01*
X201116000Y-86881000D02*
X199696000Y-86881000D01*
X201116000Y-94353748D02*
X201116000Y-94876252D01*
X199696000Y-94353748D02*
X199696000Y-94876252D01*
X194997000Y-99255252D02*
X194997000Y-98732748D01*
X196417000Y-99255252D02*
X196417000Y-98732748D01*
X192682252Y-109229000D02*
X192159748Y-109229000D01*
X192682252Y-107809000D02*
X192159748Y-107809000D01*
X196417000Y-104066748D02*
X196417000Y-104589252D01*
X194997000Y-104066748D02*
X194997000Y-104589252D01*
X194997000Y-91635252D02*
X194997000Y-91112748D01*
X196417000Y-91635252D02*
X196417000Y-91112748D01*
X182313000Y-99509252D02*
X182313000Y-98986748D01*
X183733000Y-99509252D02*
X183733000Y-98986748D01*
X191905748Y-88274000D02*
X192428252Y-88274000D01*
X191905748Y-86854000D02*
X192428252Y-86854000D01*
X180161000Y-93906748D02*
X180161000Y-94429252D01*
X178741000Y-93906748D02*
X178741000Y-94429252D01*
X181447000Y-98986748D02*
X181447000Y-99509252D01*
X180027000Y-98986748D02*
X180027000Y-99509252D01*
X183717000Y-93906748D02*
X183717000Y-94429252D01*
X182297000Y-93906748D02*
X182297000Y-94429252D01*
X182522252Y-90560000D02*
X181999748Y-90560000D01*
X182522252Y-89140000D02*
X181999748Y-89140000D01*
X194742000Y-127502748D02*
X194742000Y-128025252D01*
X196162000Y-127502748D02*
X196162000Y-128025252D01*
X199397252Y-125782000D02*
X198874748Y-125782000D01*
X199397252Y-127202000D02*
X198874748Y-127202000D01*
X197559000Y-112912252D02*
X197559000Y-112389748D01*
X196139000Y-112912252D02*
X196139000Y-112389748D01*
X195968252Y-122734000D02*
X195445748Y-122734000D01*
X195968252Y-124154000D02*
X195445748Y-124154000D01*
X198553000Y-112387748D02*
X198553000Y-112910252D01*
X199973000Y-112387748D02*
X199973000Y-112910252D01*
X199568000Y-118117252D02*
X199568000Y-117594748D01*
X200988000Y-118117252D02*
X200988000Y-117594748D01*
X191508748Y-138124000D02*
X192031252Y-138124000D01*
X191508748Y-136704000D02*
X192031252Y-136704000D01*
X182320000Y-130055252D02*
X182320000Y-129532748D01*
X180900000Y-130055252D02*
X180900000Y-129532748D01*
X174931000Y-119127748D02*
X174931000Y-119650252D01*
X176351000Y-119127748D02*
X176351000Y-119650252D01*
X179780000Y-132601000D02*
X178360000Y-132601000D01*
X178360000Y-132401000D02*
X174780000Y-132401000D01*
X174780000Y-132401000D02*
X174780000Y-132601000D01*
X174780000Y-132601000D02*
X173360000Y-132601000D01*
X173360000Y-132601000D02*
X173360000Y-132401000D01*
X177080000Y-125381000D02*
X178570000Y-125381000D01*
X179880000Y-126691000D02*
X179880000Y-130231000D01*
X173260000Y-130671000D02*
X173260000Y-126691000D01*
X174570000Y-125381000D02*
X176060000Y-125381000D01*
X178570000Y-125381000D02*
G75*
G02X179880000Y-126691000I0J-1310000D01*
G01*
X173260000Y-126691000D02*
G75*
G02X174570000Y-125381000I1310000J0D01*
G01*
X178360000Y-132401000D02*
X178360000Y-132601000D01*
X179780000Y-132601000D02*
X179780000Y-132401000D01*
X179780000Y-132401000D02*
X179880000Y-132401000D01*
X179880000Y-132401000D02*
X179880000Y-132151000D01*
X173360000Y-132401000D02*
X173260000Y-132401000D01*
X173260000Y-132401000D02*
X173260000Y-131711000D01*
X178173748Y-124281000D02*
X178696252Y-124281000D01*
X178173748Y-122861000D02*
X178696252Y-122861000D01*
X170359000Y-125976748D02*
X170359000Y-126499252D01*
X171779000Y-125976748D02*
X171779000Y-126499252D01*
X168858000Y-132603000D02*
X167438000Y-132603000D01*
X167438000Y-132403000D02*
X163858000Y-132403000D01*
X163858000Y-132403000D02*
X163858000Y-132603000D01*
X163858000Y-132603000D02*
X162438000Y-132603000D01*
X162438000Y-132603000D02*
X162438000Y-132403000D01*
X166158000Y-125383000D02*
X167648000Y-125383000D01*
X168958000Y-126693000D02*
X168958000Y-130233000D01*
X162338000Y-130673000D02*
X162338000Y-126693000D01*
X163648000Y-125383000D02*
X165138000Y-125383000D01*
X167648000Y-125383000D02*
G75*
G02X168958000Y-126693000I0J-1310000D01*
G01*
X162338000Y-126693000D02*
G75*
G02X163648000Y-125383000I1310000J0D01*
G01*
X167438000Y-132403000D02*
X167438000Y-132603000D01*
X168858000Y-132603000D02*
X168858000Y-132403000D01*
X168858000Y-132403000D02*
X168958000Y-132403000D01*
X168958000Y-132403000D02*
X168958000Y-132153000D01*
X162438000Y-132403000D02*
X162338000Y-132403000D01*
X162338000Y-132403000D02*
X162338000Y-131713000D01*
X185031748Y-133425000D02*
X185554252Y-133425000D01*
X185031748Y-132005000D02*
X185554252Y-132005000D01*
X180458748Y-119330000D02*
X180981252Y-119330000D01*
X180458748Y-117910000D02*
X180981252Y-117910000D01*
X179824748Y-114502000D02*
X180347252Y-114502000D01*
X179824748Y-113082000D02*
X180347252Y-113082000D01*
X170553748Y-110819000D02*
X171076252Y-110819000D01*
X170553748Y-109399000D02*
X171076252Y-109399000D01*
X176395748Y-110819000D02*
X176918252Y-110819000D01*
X176395748Y-109399000D02*
X176918252Y-109399000D01*
X193600000Y-70980000D02*
X195020000Y-70980000D01*
X195020000Y-71180000D02*
X198600000Y-71180000D01*
X198600000Y-71180000D02*
X198600000Y-70980000D01*
X198600000Y-70980000D02*
X200020000Y-70980000D01*
X200020000Y-70980000D02*
X200020000Y-71180000D01*
X196300000Y-78200000D02*
X194810000Y-78200000D01*
X193500000Y-76890000D02*
X193500000Y-73350000D01*
X200120000Y-72910000D02*
X200120000Y-76890000D01*
X198810000Y-78200000D02*
X197320000Y-78200000D01*
X194810000Y-78200000D02*
G75*
G02X193500000Y-76890000I0J1310000D01*
G01*
X200120000Y-76890000D02*
G75*
G02X198810000Y-78200000I-1310000J0D01*
G01*
X195020000Y-71180000D02*
X195020000Y-70980000D01*
X193600000Y-70980000D02*
X193600000Y-71180000D01*
X193600000Y-71180000D02*
X193500000Y-71180000D01*
X193500000Y-71180000D02*
X193500000Y-71430000D01*
X200020000Y-71180000D02*
X200120000Y-71180000D01*
X200120000Y-71180000D02*
X200120000Y-71870000D01*
X206754252Y-82498000D02*
X206231748Y-82498000D01*
X206754252Y-81078000D02*
X206231748Y-81078000D01*
X206763252Y-83364000D02*
X206240748Y-83364000D01*
X206763252Y-84784000D02*
X206240748Y-84784000D01*
X206763252Y-87070000D02*
X206240748Y-87070000D01*
X206763252Y-85650000D02*
X206240748Y-85650000D01*
X188258748Y-80026000D02*
X188781252Y-80026000D01*
X188258748Y-81446000D02*
X188781252Y-81446000D01*
X182670748Y-77740000D02*
X183193252Y-77740000D01*
X182670748Y-79160000D02*
X183193252Y-79160000D01*
X166565000Y-94732000D02*
X166565000Y-89662000D01*
X176335000Y-94732000D02*
X176335000Y-89662000D01*
X176335000Y-89662000D02*
X166565000Y-89662000D01*
X176335000Y-94732000D02*
X166565000Y-94732000D01*
X172322748Y-88848000D02*
X172845252Y-88848000D01*
X172322748Y-87428000D02*
X172845252Y-87428000D01*
X168536252Y-87428000D02*
X168013748Y-87428000D01*
X168536252Y-88848000D02*
X168013748Y-88848000D01*
X161850000Y-85723252D02*
X161850000Y-85200748D01*
X163270000Y-85723252D02*
X163270000Y-85200748D01*
X161850000Y-90177252D02*
X161850000Y-89654748D01*
X163270000Y-90177252D02*
X163270000Y-89654748D01*
X165893000Y-90678000D02*
G75*
G03X165893000Y-90678000I-920000J0D01*
G01*
X164973000Y-89758000D02*
X164973000Y-89138000D01*
X176531748Y-87419000D02*
X177054252Y-87419000D01*
X176531748Y-88839000D02*
X177054252Y-88839000D01*
X175573252Y-79160000D02*
X175050748Y-79160000D01*
X175573252Y-77740000D02*
X175050748Y-77740000D01*
X175573252Y-81446000D02*
X175050748Y-81446000D01*
X175573252Y-80026000D02*
X175050748Y-80026000D01*
X199255748Y-68147000D02*
X199778252Y-68147000D01*
X199255748Y-66727000D02*
X199778252Y-66727000D01*
X199255748Y-65734000D02*
X199778252Y-65734000D01*
X199255748Y-64314000D02*
X199778252Y-64314000D01*
X199255748Y-61901000D02*
X199778252Y-61901000D01*
X199255748Y-63321000D02*
X199778252Y-63321000D01*
X182880000Y-64599748D02*
X182880000Y-65122252D01*
X181460000Y-64599748D02*
X181460000Y-65122252D01*
X180399000Y-66665000D02*
X170629000Y-66665000D01*
X180399000Y-61595000D02*
X170629000Y-61595000D01*
X180399000Y-66665000D02*
X180399000Y-61595000D01*
X170629000Y-66665000D02*
X170629000Y-61595000D01*
X182670748Y-80026000D02*
X183193252Y-80026000D01*
X182670748Y-81446000D02*
X183193252Y-81446000D01*
X198429000Y-98784000D02*
X198429000Y-102384000D01*
X198440522Y-98745522D02*
G75*
G02X202879000Y-100584000I1838478J-1838478D01*
G01*
X198440522Y-102422478D02*
G75*
G03X202879000Y-100584000I1838478J1838478D01*
G01*
X193995522Y-120964478D02*
G75*
G03X198434000Y-119126000I1838478J1838478D01*
G01*
X193995522Y-117287522D02*
G75*
G02X198434000Y-119126000I1838478J-1838478D01*
G01*
X193984000Y-117326000D02*
X193984000Y-120926000D01*
X171383478Y-122107478D02*
G75*
G03X169545000Y-117669000I-1838478J1838478D01*
G01*
X167706522Y-122107478D02*
G75*
G02X169545000Y-117669000I1838478J1838478D01*
G01*
X167745000Y-122119000D02*
X171345000Y-122119000D01*
X162776500Y-73591000D02*
X162776500Y-74991000D01*
X165096500Y-74991000D02*
X165096500Y-73091000D01*
X177740000Y-136084000D02*
X179070000Y-136084000D01*
X177740000Y-137414000D02*
X177740000Y-136084000D01*
X177740000Y-138684000D02*
X180400000Y-138684000D01*
X180400000Y-138684000D02*
X180400000Y-138744000D01*
X177740000Y-138684000D02*
X177740000Y-138744000D01*
X177740000Y-138744000D02*
X180400000Y-138744000D01*
X170247000Y-103692000D02*
X170247000Y-102362000D01*
X171577000Y-103692000D02*
X170247000Y-103692000D01*
X172847000Y-103692000D02*
X172847000Y-101032000D01*
X172847000Y-101032000D02*
X177987000Y-101032000D01*
X172847000Y-103692000D02*
X177987000Y-103692000D01*
X177987000Y-103692000D02*
X177987000Y-101032000D01*
X202632000Y-62043000D02*
X203962000Y-62043000D01*
X202632000Y-63373000D02*
X202632000Y-62043000D01*
X205232000Y-62043000D02*
X207832000Y-62043000D01*
X205232000Y-64643000D02*
X205232000Y-62043000D01*
X202632000Y-64643000D02*
X205232000Y-64643000D01*
X207832000Y-62043000D02*
X207832000Y-79943000D01*
X202632000Y-64643000D02*
X202632000Y-79943000D01*
X202632000Y-79943000D02*
X207832000Y-79943000D01*
X162500000Y-101032000D02*
X163830000Y-101032000D01*
X162500000Y-102362000D02*
X162500000Y-101032000D01*
X165100000Y-101032000D02*
X167700000Y-101032000D01*
X165100000Y-103632000D02*
X165100000Y-101032000D01*
X162500000Y-103632000D02*
X165100000Y-103632000D01*
X167700000Y-101032000D02*
X167700000Y-108772000D01*
X162500000Y-103632000D02*
X162500000Y-108772000D01*
X162500000Y-108772000D02*
X167700000Y-108772000D01*
X172970000Y-98910000D02*
X172970000Y-96670000D01*
X172730000Y-98910000D02*
X172730000Y-96670000D01*
X172850000Y-98910000D02*
X172850000Y-96670000D01*
X168680000Y-97790000D02*
X169330000Y-97790000D01*
X174220000Y-97790000D02*
X173570000Y-97790000D01*
X169330000Y-98910000D02*
X173570000Y-98910000D01*
X169330000Y-96670000D02*
X169330000Y-98910000D01*
X173570000Y-96670000D02*
X169330000Y-96670000D01*
X173570000Y-98910000D02*
X173570000Y-96670000D01*
X197814000Y-136668252D02*
X197814000Y-136145748D01*
X196394000Y-136668252D02*
X196394000Y-136145748D01*
X198807000Y-130684748D02*
X198807000Y-131207252D01*
X200227000Y-130684748D02*
X200227000Y-131207252D01*
X199950000Y-136136748D02*
X199950000Y-136659252D01*
X201370000Y-136136748D02*
X201370000Y-136659252D01*
X196163000Y-132477252D02*
X196163000Y-131954748D01*
X194743000Y-132477252D02*
X194743000Y-131954748D01*
X206113748Y-117169000D02*
X206636252Y-117169000D01*
X206113748Y-115749000D02*
X206636252Y-115749000D01*
X187063748Y-107748000D02*
X187586252Y-107748000D01*
X187063748Y-109168000D02*
X187586252Y-109168000D01*
X200077000Y-122674748D02*
X200077000Y-123197252D01*
X201497000Y-122674748D02*
X201497000Y-123197252D01*
X180458748Y-121870000D02*
X180981252Y-121870000D01*
X180458748Y-120450000D02*
X180981252Y-120450000D01*
X186824252Y-134291000D02*
X186301748Y-134291000D01*
X186824252Y-135711000D02*
X186301748Y-135711000D01*
X183267252Y-109399000D02*
X182744748Y-109399000D01*
X183267252Y-110819000D02*
X182744748Y-110819000D01*
X188781252Y-79160000D02*
X188258748Y-79160000D01*
X188781252Y-77740000D02*
X188258748Y-77740000D01*
X184000000Y-65122252D02*
X184000000Y-64599748D01*
X185420000Y-65122252D02*
X185420000Y-64599748D01*
X180034000Y-80637748D02*
X180034000Y-81160252D01*
X178614000Y-80637748D02*
X178614000Y-81160252D01*
D10*
X170989380Y-74624333D02*
X171703666Y-74624333D01*
X171846523Y-74671952D01*
X171941761Y-74767190D01*
X171989380Y-74910047D01*
X171989380Y-75005285D01*
X170989380Y-73671952D02*
X170989380Y-74148142D01*
X171465571Y-74195761D01*
X171417952Y-74148142D01*
X171370333Y-74052904D01*
X171370333Y-73814809D01*
X171417952Y-73719571D01*
X171465571Y-73671952D01*
X171560809Y-73624333D01*
X171798904Y-73624333D01*
X171894142Y-73671952D01*
X171941761Y-73719571D01*
X171989380Y-73814809D01*
X171989380Y-74052904D01*
X171941761Y-74148142D01*
X171894142Y-74195761D01*
X167968761Y-68873619D02*
X167873523Y-68826000D01*
X167778285Y-68730761D01*
X167635428Y-68587904D01*
X167540190Y-68540285D01*
X167444952Y-68540285D01*
X167492571Y-68778380D02*
X167397333Y-68730761D01*
X167302095Y-68635523D01*
X167254476Y-68445047D01*
X167254476Y-68111714D01*
X167302095Y-67921238D01*
X167397333Y-67826000D01*
X167492571Y-67778380D01*
X167683047Y-67778380D01*
X167778285Y-67826000D01*
X167873523Y-67921238D01*
X167921142Y-68111714D01*
X167921142Y-68445047D01*
X167873523Y-68635523D01*
X167778285Y-68730761D01*
X167683047Y-68778380D01*
X167492571Y-68778380D01*
X168302095Y-67873619D02*
X168349714Y-67826000D01*
X168444952Y-67778380D01*
X168683047Y-67778380D01*
X168778285Y-67826000D01*
X168825904Y-67873619D01*
X168873523Y-67968857D01*
X168873523Y-68064095D01*
X168825904Y-68206952D01*
X168254476Y-68778380D01*
X168873523Y-68778380D01*
X167968761Y-80811619D02*
X167873523Y-80764000D01*
X167778285Y-80668761D01*
X167635428Y-80525904D01*
X167540190Y-80478285D01*
X167444952Y-80478285D01*
X167492571Y-80716380D02*
X167397333Y-80668761D01*
X167302095Y-80573523D01*
X167254476Y-80383047D01*
X167254476Y-80049714D01*
X167302095Y-79859238D01*
X167397333Y-79764000D01*
X167492571Y-79716380D01*
X167683047Y-79716380D01*
X167778285Y-79764000D01*
X167873523Y-79859238D01*
X167921142Y-80049714D01*
X167921142Y-80383047D01*
X167873523Y-80573523D01*
X167778285Y-80668761D01*
X167683047Y-80716380D01*
X167492571Y-80716380D01*
X168254476Y-79716380D02*
X168873523Y-79716380D01*
X168540190Y-80097333D01*
X168683047Y-80097333D01*
X168778285Y-80144952D01*
X168825904Y-80192571D01*
X168873523Y-80287809D01*
X168873523Y-80525904D01*
X168825904Y-80621142D01*
X168778285Y-80668761D01*
X168683047Y-80716380D01*
X168397333Y-80716380D01*
X168302095Y-80668761D01*
X168254476Y-80621142D01*
X187833095Y-65492380D02*
X187833095Y-66301904D01*
X187880714Y-66397142D01*
X187928333Y-66444761D01*
X188023571Y-66492380D01*
X188214047Y-66492380D01*
X188309285Y-66444761D01*
X188356904Y-66397142D01*
X188404523Y-66301904D01*
X188404523Y-65492380D01*
X189404523Y-66492380D02*
X188833095Y-66492380D01*
X189118809Y-66492380D02*
X189118809Y-65492380D01*
X189023571Y-65635238D01*
X188928333Y-65730476D01*
X188833095Y-65778095D01*
X206168666Y-118705380D02*
X206168666Y-119419666D01*
X206121047Y-119562523D01*
X206025809Y-119657761D01*
X205882952Y-119705380D01*
X205787714Y-119705380D01*
X206549619Y-118705380D02*
X207168666Y-118705380D01*
X206835333Y-119086333D01*
X206978190Y-119086333D01*
X207073428Y-119133952D01*
X207121047Y-119181571D01*
X207168666Y-119276809D01*
X207168666Y-119514904D01*
X207121047Y-119610142D01*
X207073428Y-119657761D01*
X206978190Y-119705380D01*
X206692476Y-119705380D01*
X206597238Y-119657761D01*
X206549619Y-119610142D01*
X165853142Y-111196380D02*
X165519809Y-110720190D01*
X165281714Y-111196380D02*
X165281714Y-110196380D01*
X165662666Y-110196380D01*
X165757904Y-110244000D01*
X165805523Y-110291619D01*
X165853142Y-110386857D01*
X165853142Y-110529714D01*
X165805523Y-110624952D01*
X165757904Y-110672571D01*
X165662666Y-110720190D01*
X165281714Y-110720190D01*
X166234095Y-110291619D02*
X166281714Y-110244000D01*
X166376952Y-110196380D01*
X166615047Y-110196380D01*
X166710285Y-110244000D01*
X166757904Y-110291619D01*
X166805523Y-110386857D01*
X166805523Y-110482095D01*
X166757904Y-110624952D01*
X166186476Y-111196380D01*
X166805523Y-111196380D01*
X167710285Y-110196380D02*
X167234095Y-110196380D01*
X167186476Y-110672571D01*
X167234095Y-110624952D01*
X167329333Y-110577333D01*
X167567428Y-110577333D01*
X167662666Y-110624952D01*
X167710285Y-110672571D01*
X167757904Y-110767809D01*
X167757904Y-111005904D01*
X167710285Y-111101142D01*
X167662666Y-111148761D01*
X167567428Y-111196380D01*
X167329333Y-111196380D01*
X167234095Y-111148761D01*
X167186476Y-111101142D01*
X187960095Y-87336380D02*
X187960095Y-88145904D01*
X188007714Y-88241142D01*
X188055333Y-88288761D01*
X188150571Y-88336380D01*
X188341047Y-88336380D01*
X188436285Y-88288761D01*
X188483904Y-88241142D01*
X188531523Y-88145904D01*
X188531523Y-87336380D01*
X188912476Y-87336380D02*
X189531523Y-87336380D01*
X189198190Y-87717333D01*
X189341047Y-87717333D01*
X189436285Y-87764952D01*
X189483904Y-87812571D01*
X189531523Y-87907809D01*
X189531523Y-88145904D01*
X189483904Y-88241142D01*
X189436285Y-88288761D01*
X189341047Y-88336380D01*
X189055333Y-88336380D01*
X188960095Y-88288761D01*
X188912476Y-88241142D01*
X188341095Y-110577380D02*
X188341095Y-111386904D01*
X188388714Y-111482142D01*
X188436333Y-111529761D01*
X188531571Y-111577380D01*
X188722047Y-111577380D01*
X188817285Y-111529761D01*
X188864904Y-111482142D01*
X188912523Y-111386904D01*
X188912523Y-110577380D01*
X189341095Y-110672619D02*
X189388714Y-110625000D01*
X189483952Y-110577380D01*
X189722047Y-110577380D01*
X189817285Y-110625000D01*
X189864904Y-110672619D01*
X189912523Y-110767857D01*
X189912523Y-110863095D01*
X189864904Y-111005952D01*
X189293476Y-111577380D01*
X189912523Y-111577380D01*
X197350142Y-88082380D02*
X197016809Y-87606190D01*
X196778714Y-88082380D02*
X196778714Y-87082380D01*
X197159666Y-87082380D01*
X197254904Y-87130000D01*
X197302523Y-87177619D01*
X197350142Y-87272857D01*
X197350142Y-87415714D01*
X197302523Y-87510952D01*
X197254904Y-87558571D01*
X197159666Y-87606190D01*
X196778714Y-87606190D01*
X198254904Y-87082380D02*
X197778714Y-87082380D01*
X197731095Y-87558571D01*
X197778714Y-87510952D01*
X197873952Y-87463333D01*
X198112047Y-87463333D01*
X198207285Y-87510952D01*
X198254904Y-87558571D01*
X198302523Y-87653809D01*
X198302523Y-87891904D01*
X198254904Y-87987142D01*
X198207285Y-88034761D01*
X198112047Y-88082380D01*
X197873952Y-88082380D01*
X197778714Y-88034761D01*
X197731095Y-87987142D01*
X198683476Y-87177619D02*
X198731095Y-87130000D01*
X198826333Y-87082380D01*
X199064428Y-87082380D01*
X199159666Y-87130000D01*
X199207285Y-87177619D01*
X199254904Y-87272857D01*
X199254904Y-87368095D01*
X199207285Y-87510952D01*
X198635857Y-88082380D01*
X199254904Y-88082380D01*
X199146380Y-95273857D02*
X198670190Y-95607190D01*
X199146380Y-95845285D02*
X198146380Y-95845285D01*
X198146380Y-95464333D01*
X198194000Y-95369095D01*
X198241619Y-95321476D01*
X198336857Y-95273857D01*
X198479714Y-95273857D01*
X198574952Y-95321476D01*
X198622571Y-95369095D01*
X198670190Y-95464333D01*
X198670190Y-95845285D01*
X198146380Y-94369095D02*
X198146380Y-94845285D01*
X198622571Y-94892904D01*
X198574952Y-94845285D01*
X198527333Y-94750047D01*
X198527333Y-94511952D01*
X198574952Y-94416714D01*
X198622571Y-94369095D01*
X198717809Y-94321476D01*
X198955904Y-94321476D01*
X199051142Y-94369095D01*
X199098761Y-94416714D01*
X199146380Y-94511952D01*
X199146380Y-94750047D01*
X199098761Y-94845285D01*
X199051142Y-94892904D01*
X199146380Y-93369095D02*
X199146380Y-93940523D01*
X199146380Y-93654809D02*
X198146380Y-93654809D01*
X198289238Y-93750047D01*
X198384476Y-93845285D01*
X198432095Y-93940523D01*
X197921380Y-99636857D02*
X197445190Y-99970190D01*
X197921380Y-100208285D02*
X196921380Y-100208285D01*
X196921380Y-99827333D01*
X196969000Y-99732095D01*
X197016619Y-99684476D01*
X197111857Y-99636857D01*
X197254714Y-99636857D01*
X197349952Y-99684476D01*
X197397571Y-99732095D01*
X197445190Y-99827333D01*
X197445190Y-100208285D01*
X196921380Y-98732095D02*
X196921380Y-99208285D01*
X197397571Y-99255904D01*
X197349952Y-99208285D01*
X197302333Y-99113047D01*
X197302333Y-98874952D01*
X197349952Y-98779714D01*
X197397571Y-98732095D01*
X197492809Y-98684476D01*
X197730904Y-98684476D01*
X197826142Y-98732095D01*
X197873761Y-98779714D01*
X197921380Y-98874952D01*
X197921380Y-99113047D01*
X197873761Y-99208285D01*
X197826142Y-99255904D01*
X196921380Y-98065428D02*
X196921380Y-97970190D01*
X196969000Y-97874952D01*
X197016619Y-97827333D01*
X197111857Y-97779714D01*
X197302333Y-97732095D01*
X197540428Y-97732095D01*
X197730904Y-97779714D01*
X197826142Y-97827333D01*
X197873761Y-97874952D01*
X197921380Y-97970190D01*
X197921380Y-98065428D01*
X197873761Y-98160666D01*
X197826142Y-98208285D01*
X197730904Y-98255904D01*
X197540428Y-98303523D01*
X197302333Y-98303523D01*
X197111857Y-98255904D01*
X197016619Y-98208285D01*
X196969000Y-98160666D01*
X196921380Y-98065428D01*
X191778142Y-110688380D02*
X191444809Y-110212190D01*
X191206714Y-110688380D02*
X191206714Y-109688380D01*
X191587666Y-109688380D01*
X191682904Y-109736000D01*
X191730523Y-109783619D01*
X191778142Y-109878857D01*
X191778142Y-110021714D01*
X191730523Y-110116952D01*
X191682904Y-110164571D01*
X191587666Y-110212190D01*
X191206714Y-110212190D01*
X192635285Y-110021714D02*
X192635285Y-110688380D01*
X192397190Y-109640761D02*
X192159095Y-110355047D01*
X192778142Y-110355047D01*
X193206714Y-110688380D02*
X193397190Y-110688380D01*
X193492428Y-110640761D01*
X193540047Y-110593142D01*
X193635285Y-110450285D01*
X193682904Y-110259809D01*
X193682904Y-109878857D01*
X193635285Y-109783619D01*
X193587666Y-109736000D01*
X193492428Y-109688380D01*
X193301952Y-109688380D01*
X193206714Y-109736000D01*
X193159095Y-109783619D01*
X193111476Y-109878857D01*
X193111476Y-110116952D01*
X193159095Y-110212190D01*
X193206714Y-110259809D01*
X193301952Y-110307428D01*
X193492428Y-110307428D01*
X193587666Y-110259809D01*
X193635285Y-110212190D01*
X193682904Y-110116952D01*
X197937380Y-104970857D02*
X197461190Y-105304190D01*
X197937380Y-105542285D02*
X196937380Y-105542285D01*
X196937380Y-105161333D01*
X196985000Y-105066095D01*
X197032619Y-105018476D01*
X197127857Y-104970857D01*
X197270714Y-104970857D01*
X197365952Y-105018476D01*
X197413571Y-105066095D01*
X197461190Y-105161333D01*
X197461190Y-105542285D01*
X197270714Y-104113714D02*
X197937380Y-104113714D01*
X196889761Y-104351809D02*
X197604047Y-104589904D01*
X197604047Y-103970857D01*
X197365952Y-103447047D02*
X197318333Y-103542285D01*
X197270714Y-103589904D01*
X197175476Y-103637523D01*
X197127857Y-103637523D01*
X197032619Y-103589904D01*
X196985000Y-103542285D01*
X196937380Y-103447047D01*
X196937380Y-103256571D01*
X196985000Y-103161333D01*
X197032619Y-103113714D01*
X197127857Y-103066095D01*
X197175476Y-103066095D01*
X197270714Y-103113714D01*
X197318333Y-103161333D01*
X197365952Y-103256571D01*
X197365952Y-103447047D01*
X197413571Y-103542285D01*
X197461190Y-103589904D01*
X197556428Y-103637523D01*
X197746904Y-103637523D01*
X197842142Y-103589904D01*
X197889761Y-103542285D01*
X197937380Y-103447047D01*
X197937380Y-103256571D01*
X197889761Y-103161333D01*
X197842142Y-103113714D01*
X197746904Y-103066095D01*
X197556428Y-103066095D01*
X197461190Y-103113714D01*
X197413571Y-103161333D01*
X197365952Y-103256571D01*
X197937380Y-91955857D02*
X197461190Y-92289190D01*
X197937380Y-92527285D02*
X196937380Y-92527285D01*
X196937380Y-92146333D01*
X196985000Y-92051095D01*
X197032619Y-92003476D01*
X197127857Y-91955857D01*
X197270714Y-91955857D01*
X197365952Y-92003476D01*
X197413571Y-92051095D01*
X197461190Y-92146333D01*
X197461190Y-92527285D01*
X197270714Y-91098714D02*
X197937380Y-91098714D01*
X196889761Y-91336809D02*
X197604047Y-91574904D01*
X197604047Y-90955857D01*
X196937380Y-90670142D02*
X196937380Y-90003476D01*
X197937380Y-90432047D01*
X183459380Y-103258857D02*
X182983190Y-103592190D01*
X183459380Y-103830285D02*
X182459380Y-103830285D01*
X182459380Y-103449333D01*
X182507000Y-103354095D01*
X182554619Y-103306476D01*
X182649857Y-103258857D01*
X182792714Y-103258857D01*
X182887952Y-103306476D01*
X182935571Y-103354095D01*
X182983190Y-103449333D01*
X182983190Y-103830285D01*
X182792714Y-102401714D02*
X183459380Y-102401714D01*
X182411761Y-102639809D02*
X183126047Y-102877904D01*
X183126047Y-102258857D01*
X182459380Y-101449333D02*
X182459380Y-101639809D01*
X182507000Y-101735047D01*
X182554619Y-101782666D01*
X182697476Y-101877904D01*
X182887952Y-101925523D01*
X183268904Y-101925523D01*
X183364142Y-101877904D01*
X183411761Y-101830285D01*
X183459380Y-101735047D01*
X183459380Y-101544571D01*
X183411761Y-101449333D01*
X183364142Y-101401714D01*
X183268904Y-101354095D01*
X183030809Y-101354095D01*
X182935571Y-101401714D01*
X182887952Y-101449333D01*
X182840333Y-101544571D01*
X182840333Y-101735047D01*
X182887952Y-101830285D01*
X182935571Y-101877904D01*
X183030809Y-101925523D01*
X191524142Y-86304380D02*
X191190809Y-85828190D01*
X190952714Y-86304380D02*
X190952714Y-85304380D01*
X191333666Y-85304380D01*
X191428904Y-85352000D01*
X191476523Y-85399619D01*
X191524142Y-85494857D01*
X191524142Y-85637714D01*
X191476523Y-85732952D01*
X191428904Y-85780571D01*
X191333666Y-85828190D01*
X190952714Y-85828190D01*
X192381285Y-85637714D02*
X192381285Y-86304380D01*
X192143190Y-85256761D02*
X191905095Y-85971047D01*
X192524142Y-85971047D01*
X193381285Y-85304380D02*
X192905095Y-85304380D01*
X192857476Y-85780571D01*
X192905095Y-85732952D01*
X193000333Y-85685333D01*
X193238428Y-85685333D01*
X193333666Y-85732952D01*
X193381285Y-85780571D01*
X193428904Y-85875809D01*
X193428904Y-86113904D01*
X193381285Y-86209142D01*
X193333666Y-86256761D01*
X193238428Y-86304380D01*
X193000333Y-86304380D01*
X192905095Y-86256761D01*
X192857476Y-86209142D01*
X178252380Y-94876857D02*
X177776190Y-95210190D01*
X178252380Y-95448285D02*
X177252380Y-95448285D01*
X177252380Y-95067333D01*
X177300000Y-94972095D01*
X177347619Y-94924476D01*
X177442857Y-94876857D01*
X177585714Y-94876857D01*
X177680952Y-94924476D01*
X177728571Y-94972095D01*
X177776190Y-95067333D01*
X177776190Y-95448285D01*
X177585714Y-94019714D02*
X178252380Y-94019714D01*
X177204761Y-94257809D02*
X177919047Y-94495904D01*
X177919047Y-93876857D01*
X177585714Y-93067333D02*
X178252380Y-93067333D01*
X177204761Y-93305428D02*
X177919047Y-93543523D01*
X177919047Y-92924476D01*
X181300380Y-103258857D02*
X180824190Y-103592190D01*
X181300380Y-103830285D02*
X180300380Y-103830285D01*
X180300380Y-103449333D01*
X180348000Y-103354095D01*
X180395619Y-103306476D01*
X180490857Y-103258857D01*
X180633714Y-103258857D01*
X180728952Y-103306476D01*
X180776571Y-103354095D01*
X180824190Y-103449333D01*
X180824190Y-103830285D01*
X180633714Y-102401714D02*
X181300380Y-102401714D01*
X180252761Y-102639809D02*
X180967047Y-102877904D01*
X180967047Y-102258857D01*
X180300380Y-101973142D02*
X180300380Y-101354095D01*
X180681333Y-101687428D01*
X180681333Y-101544571D01*
X180728952Y-101449333D01*
X180776571Y-101401714D01*
X180871809Y-101354095D01*
X181109904Y-101354095D01*
X181205142Y-101401714D01*
X181252761Y-101449333D01*
X181300380Y-101544571D01*
X181300380Y-101830285D01*
X181252761Y-101925523D01*
X181205142Y-101973142D01*
X181792380Y-94876857D02*
X181316190Y-95210190D01*
X181792380Y-95448285D02*
X180792380Y-95448285D01*
X180792380Y-95067333D01*
X180840000Y-94972095D01*
X180887619Y-94924476D01*
X180982857Y-94876857D01*
X181125714Y-94876857D01*
X181220952Y-94924476D01*
X181268571Y-94972095D01*
X181316190Y-95067333D01*
X181316190Y-95448285D01*
X181125714Y-94019714D02*
X181792380Y-94019714D01*
X180744761Y-94257809D02*
X181459047Y-94495904D01*
X181459047Y-93876857D01*
X180887619Y-93543523D02*
X180840000Y-93495904D01*
X180792380Y-93400666D01*
X180792380Y-93162571D01*
X180840000Y-93067333D01*
X180887619Y-93019714D01*
X180982857Y-92972095D01*
X181078095Y-92972095D01*
X181220952Y-93019714D01*
X181792380Y-93591142D01*
X181792380Y-92972095D01*
X181618142Y-88717380D02*
X181284809Y-88241190D01*
X181046714Y-88717380D02*
X181046714Y-87717380D01*
X181427666Y-87717380D01*
X181522904Y-87765000D01*
X181570523Y-87812619D01*
X181618142Y-87907857D01*
X181618142Y-88050714D01*
X181570523Y-88145952D01*
X181522904Y-88193571D01*
X181427666Y-88241190D01*
X181046714Y-88241190D01*
X182475285Y-88050714D02*
X182475285Y-88717380D01*
X182237190Y-87669761D02*
X181999095Y-88384047D01*
X182618142Y-88384047D01*
X183522904Y-88717380D02*
X182951476Y-88717380D01*
X183237190Y-88717380D02*
X183237190Y-87717380D01*
X183141952Y-87860238D01*
X183046714Y-87955476D01*
X182951476Y-88003095D01*
X194254380Y-128404857D02*
X193778190Y-128738190D01*
X194254380Y-128976285D02*
X193254380Y-128976285D01*
X193254380Y-128595333D01*
X193302000Y-128500095D01*
X193349619Y-128452476D01*
X193444857Y-128404857D01*
X193587714Y-128404857D01*
X193682952Y-128452476D01*
X193730571Y-128500095D01*
X193778190Y-128595333D01*
X193778190Y-128976285D01*
X193587714Y-127547714D02*
X194254380Y-127547714D01*
X193206761Y-127785809D02*
X193921047Y-128023904D01*
X193921047Y-127404857D01*
X193254380Y-126833428D02*
X193254380Y-126738190D01*
X193302000Y-126642952D01*
X193349619Y-126595333D01*
X193444857Y-126547714D01*
X193635333Y-126500095D01*
X193873428Y-126500095D01*
X194063904Y-126547714D01*
X194159142Y-126595333D01*
X194206761Y-126642952D01*
X194254380Y-126738190D01*
X194254380Y-126833428D01*
X194206761Y-126928666D01*
X194159142Y-126976285D01*
X194063904Y-127023904D01*
X193873428Y-127071523D01*
X193635333Y-127071523D01*
X193444857Y-127023904D01*
X193349619Y-126976285D01*
X193302000Y-126928666D01*
X193254380Y-126833428D01*
X198493142Y-128594380D02*
X198159809Y-128118190D01*
X197921714Y-128594380D02*
X197921714Y-127594380D01*
X198302666Y-127594380D01*
X198397904Y-127642000D01*
X198445523Y-127689619D01*
X198493142Y-127784857D01*
X198493142Y-127927714D01*
X198445523Y-128022952D01*
X198397904Y-128070571D01*
X198302666Y-128118190D01*
X197921714Y-128118190D01*
X198826476Y-127594380D02*
X199445523Y-127594380D01*
X199112190Y-127975333D01*
X199255047Y-127975333D01*
X199350285Y-128022952D01*
X199397904Y-128070571D01*
X199445523Y-128165809D01*
X199445523Y-128403904D01*
X199397904Y-128499142D01*
X199350285Y-128546761D01*
X199255047Y-128594380D01*
X198969333Y-128594380D01*
X198874095Y-128546761D01*
X198826476Y-128499142D01*
X199921714Y-128594380D02*
X200112190Y-128594380D01*
X200207428Y-128546761D01*
X200255047Y-128499142D01*
X200350285Y-128356285D01*
X200397904Y-128165809D01*
X200397904Y-127784857D01*
X200350285Y-127689619D01*
X200302666Y-127642000D01*
X200207428Y-127594380D01*
X200016952Y-127594380D01*
X199921714Y-127642000D01*
X199874095Y-127689619D01*
X199826476Y-127784857D01*
X199826476Y-128022952D01*
X199874095Y-128118190D01*
X199921714Y-128165809D01*
X200016952Y-128213428D01*
X200207428Y-128213428D01*
X200302666Y-128165809D01*
X200350285Y-128118190D01*
X200397904Y-128022952D01*
X195698142Y-110563380D02*
X195364809Y-110087190D01*
X195126714Y-110563380D02*
X195126714Y-109563380D01*
X195507666Y-109563380D01*
X195602904Y-109611000D01*
X195650523Y-109658619D01*
X195698142Y-109753857D01*
X195698142Y-109896714D01*
X195650523Y-109991952D01*
X195602904Y-110039571D01*
X195507666Y-110087190D01*
X195126714Y-110087190D01*
X196031476Y-109563380D02*
X196650523Y-109563380D01*
X196317190Y-109944333D01*
X196460047Y-109944333D01*
X196555285Y-109991952D01*
X196602904Y-110039571D01*
X196650523Y-110134809D01*
X196650523Y-110372904D01*
X196602904Y-110468142D01*
X196555285Y-110515761D01*
X196460047Y-110563380D01*
X196174333Y-110563380D01*
X196079095Y-110515761D01*
X196031476Y-110468142D01*
X197221952Y-109991952D02*
X197126714Y-109944333D01*
X197079095Y-109896714D01*
X197031476Y-109801476D01*
X197031476Y-109753857D01*
X197079095Y-109658619D01*
X197126714Y-109611000D01*
X197221952Y-109563380D01*
X197412428Y-109563380D01*
X197507666Y-109611000D01*
X197555285Y-109658619D01*
X197602904Y-109753857D01*
X197602904Y-109801476D01*
X197555285Y-109896714D01*
X197507666Y-109944333D01*
X197412428Y-109991952D01*
X197221952Y-109991952D01*
X197126714Y-110039571D01*
X197079095Y-110087190D01*
X197031476Y-110182428D01*
X197031476Y-110372904D01*
X197079095Y-110468142D01*
X197126714Y-110515761D01*
X197221952Y-110563380D01*
X197412428Y-110563380D01*
X197507666Y-110515761D01*
X197555285Y-110468142D01*
X197602904Y-110372904D01*
X197602904Y-110182428D01*
X197555285Y-110087190D01*
X197507666Y-110039571D01*
X197412428Y-109991952D01*
X195064142Y-125546380D02*
X194730809Y-125070190D01*
X194492714Y-125546380D02*
X194492714Y-124546380D01*
X194873666Y-124546380D01*
X194968904Y-124594000D01*
X195016523Y-124641619D01*
X195064142Y-124736857D01*
X195064142Y-124879714D01*
X195016523Y-124974952D01*
X194968904Y-125022571D01*
X194873666Y-125070190D01*
X194492714Y-125070190D01*
X195397476Y-124546380D02*
X196016523Y-124546380D01*
X195683190Y-124927333D01*
X195826047Y-124927333D01*
X195921285Y-124974952D01*
X195968904Y-125022571D01*
X196016523Y-125117809D01*
X196016523Y-125355904D01*
X195968904Y-125451142D01*
X195921285Y-125498761D01*
X195826047Y-125546380D01*
X195540333Y-125546380D01*
X195445095Y-125498761D01*
X195397476Y-125451142D01*
X196349857Y-124546380D02*
X197016523Y-124546380D01*
X196587952Y-125546380D01*
X199128142Y-110561380D02*
X198794809Y-110085190D01*
X198556714Y-110561380D02*
X198556714Y-109561380D01*
X198937666Y-109561380D01*
X199032904Y-109609000D01*
X199080523Y-109656619D01*
X199128142Y-109751857D01*
X199128142Y-109894714D01*
X199080523Y-109989952D01*
X199032904Y-110037571D01*
X198937666Y-110085190D01*
X198556714Y-110085190D01*
X199461476Y-109561380D02*
X200080523Y-109561380D01*
X199747190Y-109942333D01*
X199890047Y-109942333D01*
X199985285Y-109989952D01*
X200032904Y-110037571D01*
X200080523Y-110132809D01*
X200080523Y-110370904D01*
X200032904Y-110466142D01*
X199985285Y-110513761D01*
X199890047Y-110561380D01*
X199604333Y-110561380D01*
X199509095Y-110513761D01*
X199461476Y-110466142D01*
X200937666Y-109561380D02*
X200747190Y-109561380D01*
X200651952Y-109609000D01*
X200604333Y-109656619D01*
X200509095Y-109799476D01*
X200461476Y-109989952D01*
X200461476Y-110370904D01*
X200509095Y-110466142D01*
X200556714Y-110513761D01*
X200651952Y-110561380D01*
X200842428Y-110561380D01*
X200937666Y-110513761D01*
X200985285Y-110466142D01*
X201032904Y-110370904D01*
X201032904Y-110132809D01*
X200985285Y-110037571D01*
X200937666Y-109989952D01*
X200842428Y-109942333D01*
X200651952Y-109942333D01*
X200556714Y-109989952D01*
X200509095Y-110037571D01*
X200461476Y-110132809D01*
X202508380Y-118752857D02*
X202032190Y-119086190D01*
X202508380Y-119324285D02*
X201508380Y-119324285D01*
X201508380Y-118943333D01*
X201556000Y-118848095D01*
X201603619Y-118800476D01*
X201698857Y-118752857D01*
X201841714Y-118752857D01*
X201936952Y-118800476D01*
X201984571Y-118848095D01*
X202032190Y-118943333D01*
X202032190Y-119324285D01*
X201508380Y-118419523D02*
X201508380Y-117800476D01*
X201889333Y-118133809D01*
X201889333Y-117990952D01*
X201936952Y-117895714D01*
X201984571Y-117848095D01*
X202079809Y-117800476D01*
X202317904Y-117800476D01*
X202413142Y-117848095D01*
X202460761Y-117895714D01*
X202508380Y-117990952D01*
X202508380Y-118276666D01*
X202460761Y-118371904D01*
X202413142Y-118419523D01*
X201508380Y-116895714D02*
X201508380Y-117371904D01*
X201984571Y-117419523D01*
X201936952Y-117371904D01*
X201889333Y-117276666D01*
X201889333Y-117038571D01*
X201936952Y-116943333D01*
X201984571Y-116895714D01*
X202079809Y-116848095D01*
X202317904Y-116848095D01*
X202413142Y-116895714D01*
X202460761Y-116943333D01*
X202508380Y-117038571D01*
X202508380Y-117276666D01*
X202460761Y-117371904D01*
X202413142Y-117419523D01*
X191061142Y-136088380D02*
X190727809Y-135612190D01*
X190489714Y-136088380D02*
X190489714Y-135088380D01*
X190870666Y-135088380D01*
X190965904Y-135136000D01*
X191013523Y-135183619D01*
X191061142Y-135278857D01*
X191061142Y-135421714D01*
X191013523Y-135516952D01*
X190965904Y-135564571D01*
X190870666Y-135612190D01*
X190489714Y-135612190D01*
X191394476Y-135088380D02*
X192013523Y-135088380D01*
X191680190Y-135469333D01*
X191823047Y-135469333D01*
X191918285Y-135516952D01*
X191965904Y-135564571D01*
X192013523Y-135659809D01*
X192013523Y-135897904D01*
X191965904Y-135993142D01*
X191918285Y-136040761D01*
X191823047Y-136088380D01*
X191537333Y-136088380D01*
X191442095Y-136040761D01*
X191394476Y-135993142D01*
X192870666Y-135421714D02*
X192870666Y-136088380D01*
X192632571Y-135040761D02*
X192394476Y-135755047D01*
X193013523Y-135755047D01*
X182062380Y-127134857D02*
X181586190Y-127468190D01*
X182062380Y-127706285D02*
X181062380Y-127706285D01*
X181062380Y-127325333D01*
X181110000Y-127230095D01*
X181157619Y-127182476D01*
X181252857Y-127134857D01*
X181395714Y-127134857D01*
X181490952Y-127182476D01*
X181538571Y-127230095D01*
X181586190Y-127325333D01*
X181586190Y-127706285D01*
X181062380Y-126801523D02*
X181062380Y-126182476D01*
X181443333Y-126515809D01*
X181443333Y-126372952D01*
X181490952Y-126277714D01*
X181538571Y-126230095D01*
X181633809Y-126182476D01*
X181871904Y-126182476D01*
X181967142Y-126230095D01*
X182014761Y-126277714D01*
X182062380Y-126372952D01*
X182062380Y-126658666D01*
X182014761Y-126753904D01*
X181967142Y-126801523D01*
X181062380Y-125849142D02*
X181062380Y-125230095D01*
X181443333Y-125563428D01*
X181443333Y-125420571D01*
X181490952Y-125325333D01*
X181538571Y-125277714D01*
X181633809Y-125230095D01*
X181871904Y-125230095D01*
X181967142Y-125277714D01*
X182014761Y-125325333D01*
X182062380Y-125420571D01*
X182062380Y-125706285D01*
X182014761Y-125801523D01*
X181967142Y-125849142D01*
X174442380Y-120022857D02*
X173966190Y-120356190D01*
X174442380Y-120594285D02*
X173442380Y-120594285D01*
X173442380Y-120213333D01*
X173490000Y-120118095D01*
X173537619Y-120070476D01*
X173632857Y-120022857D01*
X173775714Y-120022857D01*
X173870952Y-120070476D01*
X173918571Y-120118095D01*
X173966190Y-120213333D01*
X173966190Y-120594285D01*
X173442380Y-119689523D02*
X173442380Y-119070476D01*
X173823333Y-119403809D01*
X173823333Y-119260952D01*
X173870952Y-119165714D01*
X173918571Y-119118095D01*
X174013809Y-119070476D01*
X174251904Y-119070476D01*
X174347142Y-119118095D01*
X174394761Y-119165714D01*
X174442380Y-119260952D01*
X174442380Y-119546666D01*
X174394761Y-119641904D01*
X174347142Y-119689523D01*
X173537619Y-118689523D02*
X173490000Y-118641904D01*
X173442380Y-118546666D01*
X173442380Y-118308571D01*
X173490000Y-118213333D01*
X173537619Y-118165714D01*
X173632857Y-118118095D01*
X173728095Y-118118095D01*
X173870952Y-118165714D01*
X174442380Y-118737142D01*
X174442380Y-118118095D01*
X176395142Y-134054380D02*
X176061809Y-133578190D01*
X175823714Y-134054380D02*
X175823714Y-133054380D01*
X176204666Y-133054380D01*
X176299904Y-133102000D01*
X176347523Y-133149619D01*
X176395142Y-133244857D01*
X176395142Y-133387714D01*
X176347523Y-133482952D01*
X176299904Y-133530571D01*
X176204666Y-133578190D01*
X175823714Y-133578190D01*
X176728476Y-133054380D02*
X177347523Y-133054380D01*
X177014190Y-133435333D01*
X177157047Y-133435333D01*
X177252285Y-133482952D01*
X177299904Y-133530571D01*
X177347523Y-133625809D01*
X177347523Y-133863904D01*
X177299904Y-133959142D01*
X177252285Y-134006761D01*
X177157047Y-134054380D01*
X176871333Y-134054380D01*
X176776095Y-134006761D01*
X176728476Y-133959142D01*
X178299904Y-134054380D02*
X177728476Y-134054380D01*
X178014190Y-134054380D02*
X178014190Y-133054380D01*
X177918952Y-133197238D01*
X177823714Y-133292476D01*
X177728476Y-133340095D01*
X174110142Y-124148380D02*
X173776809Y-123672190D01*
X173538714Y-124148380D02*
X173538714Y-123148380D01*
X173919666Y-123148380D01*
X174014904Y-123196000D01*
X174062523Y-123243619D01*
X174110142Y-123338857D01*
X174110142Y-123481714D01*
X174062523Y-123576952D01*
X174014904Y-123624571D01*
X173919666Y-123672190D01*
X173538714Y-123672190D01*
X174443476Y-123148380D02*
X175062523Y-123148380D01*
X174729190Y-123529333D01*
X174872047Y-123529333D01*
X174967285Y-123576952D01*
X175014904Y-123624571D01*
X175062523Y-123719809D01*
X175062523Y-123957904D01*
X175014904Y-124053142D01*
X174967285Y-124100761D01*
X174872047Y-124148380D01*
X174586333Y-124148380D01*
X174491095Y-124100761D01*
X174443476Y-124053142D01*
X175681571Y-123148380D02*
X175776809Y-123148380D01*
X175872047Y-123196000D01*
X175919666Y-123243619D01*
X175967285Y-123338857D01*
X176014904Y-123529333D01*
X176014904Y-123767428D01*
X175967285Y-123957904D01*
X175919666Y-124053142D01*
X175872047Y-124100761D01*
X175776809Y-124148380D01*
X175681571Y-124148380D01*
X175586333Y-124100761D01*
X175538714Y-124053142D01*
X175491095Y-123957904D01*
X175443476Y-123767428D01*
X175443476Y-123529333D01*
X175491095Y-123338857D01*
X175538714Y-123243619D01*
X175586333Y-123196000D01*
X175681571Y-123148380D01*
X171521380Y-130309857D02*
X171045190Y-130643190D01*
X171521380Y-130881285D02*
X170521380Y-130881285D01*
X170521380Y-130500333D01*
X170569000Y-130405095D01*
X170616619Y-130357476D01*
X170711857Y-130309857D01*
X170854714Y-130309857D01*
X170949952Y-130357476D01*
X170997571Y-130405095D01*
X171045190Y-130500333D01*
X171045190Y-130881285D01*
X170616619Y-129928904D02*
X170569000Y-129881285D01*
X170521380Y-129786047D01*
X170521380Y-129547952D01*
X170569000Y-129452714D01*
X170616619Y-129405095D01*
X170711857Y-129357476D01*
X170807095Y-129357476D01*
X170949952Y-129405095D01*
X171521380Y-129976523D01*
X171521380Y-129357476D01*
X171521380Y-128881285D02*
X171521380Y-128690809D01*
X171473761Y-128595571D01*
X171426142Y-128547952D01*
X171283285Y-128452714D01*
X171092809Y-128405095D01*
X170711857Y-128405095D01*
X170616619Y-128452714D01*
X170569000Y-128500333D01*
X170521380Y-128595571D01*
X170521380Y-128786047D01*
X170569000Y-128881285D01*
X170616619Y-128928904D01*
X170711857Y-128976523D01*
X170949952Y-128976523D01*
X171045190Y-128928904D01*
X171092809Y-128881285D01*
X171140428Y-128786047D01*
X171140428Y-128595571D01*
X171092809Y-128500333D01*
X171045190Y-128452714D01*
X170949952Y-128405095D01*
X164584142Y-134056380D02*
X164250809Y-133580190D01*
X164012714Y-134056380D02*
X164012714Y-133056380D01*
X164393666Y-133056380D01*
X164488904Y-133104000D01*
X164536523Y-133151619D01*
X164584142Y-133246857D01*
X164584142Y-133389714D01*
X164536523Y-133484952D01*
X164488904Y-133532571D01*
X164393666Y-133580190D01*
X164012714Y-133580190D01*
X164965095Y-133151619D02*
X165012714Y-133104000D01*
X165107952Y-133056380D01*
X165346047Y-133056380D01*
X165441285Y-133104000D01*
X165488904Y-133151619D01*
X165536523Y-133246857D01*
X165536523Y-133342095D01*
X165488904Y-133484952D01*
X164917476Y-134056380D01*
X165536523Y-134056380D01*
X166107952Y-133484952D02*
X166012714Y-133437333D01*
X165965095Y-133389714D01*
X165917476Y-133294476D01*
X165917476Y-133246857D01*
X165965095Y-133151619D01*
X166012714Y-133104000D01*
X166107952Y-133056380D01*
X166298428Y-133056380D01*
X166393666Y-133104000D01*
X166441285Y-133151619D01*
X166488904Y-133246857D01*
X166488904Y-133294476D01*
X166441285Y-133389714D01*
X166393666Y-133437333D01*
X166298428Y-133484952D01*
X166107952Y-133484952D01*
X166012714Y-133532571D01*
X165965095Y-133580190D01*
X165917476Y-133675428D01*
X165917476Y-133865904D01*
X165965095Y-133961142D01*
X166012714Y-134008761D01*
X166107952Y-134056380D01*
X166298428Y-134056380D01*
X166393666Y-134008761D01*
X166441285Y-133961142D01*
X166488904Y-133865904D01*
X166488904Y-133675428D01*
X166441285Y-133580190D01*
X166393666Y-133532571D01*
X166298428Y-133484952D01*
X181348142Y-133294380D02*
X181014809Y-132818190D01*
X180776714Y-133294380D02*
X180776714Y-132294380D01*
X181157666Y-132294380D01*
X181252904Y-132342000D01*
X181300523Y-132389619D01*
X181348142Y-132484857D01*
X181348142Y-132627714D01*
X181300523Y-132722952D01*
X181252904Y-132770571D01*
X181157666Y-132818190D01*
X180776714Y-132818190D01*
X181729095Y-132389619D02*
X181776714Y-132342000D01*
X181871952Y-132294380D01*
X182110047Y-132294380D01*
X182205285Y-132342000D01*
X182252904Y-132389619D01*
X182300523Y-132484857D01*
X182300523Y-132580095D01*
X182252904Y-132722952D01*
X181681476Y-133294380D01*
X182300523Y-133294380D01*
X182633857Y-132294380D02*
X183300523Y-132294380D01*
X182871952Y-133294380D01*
X179951142Y-117038380D02*
X179617809Y-116562190D01*
X179379714Y-117038380D02*
X179379714Y-116038380D01*
X179760666Y-116038380D01*
X179855904Y-116086000D01*
X179903523Y-116133619D01*
X179951142Y-116228857D01*
X179951142Y-116371714D01*
X179903523Y-116466952D01*
X179855904Y-116514571D01*
X179760666Y-116562190D01*
X179379714Y-116562190D01*
X180332095Y-116133619D02*
X180379714Y-116086000D01*
X180474952Y-116038380D01*
X180713047Y-116038380D01*
X180808285Y-116086000D01*
X180855904Y-116133619D01*
X180903523Y-116228857D01*
X180903523Y-116324095D01*
X180855904Y-116466952D01*
X180284476Y-117038380D01*
X180903523Y-117038380D01*
X181760666Y-116038380D02*
X181570190Y-116038380D01*
X181474952Y-116086000D01*
X181427333Y-116133619D01*
X181332095Y-116276476D01*
X181284476Y-116466952D01*
X181284476Y-116847904D01*
X181332095Y-116943142D01*
X181379714Y-116990761D01*
X181474952Y-117038380D01*
X181665428Y-117038380D01*
X181760666Y-116990761D01*
X181808285Y-116943142D01*
X181855904Y-116847904D01*
X181855904Y-116609809D01*
X181808285Y-116514571D01*
X181760666Y-116466952D01*
X181665428Y-116419333D01*
X181474952Y-116419333D01*
X181379714Y-116466952D01*
X181332095Y-116514571D01*
X181284476Y-116609809D01*
X175887142Y-114244380D02*
X175553809Y-113768190D01*
X175315714Y-114244380D02*
X175315714Y-113244380D01*
X175696666Y-113244380D01*
X175791904Y-113292000D01*
X175839523Y-113339619D01*
X175887142Y-113434857D01*
X175887142Y-113577714D01*
X175839523Y-113672952D01*
X175791904Y-113720571D01*
X175696666Y-113768190D01*
X175315714Y-113768190D01*
X176268095Y-113339619D02*
X176315714Y-113292000D01*
X176410952Y-113244380D01*
X176649047Y-113244380D01*
X176744285Y-113292000D01*
X176791904Y-113339619D01*
X176839523Y-113434857D01*
X176839523Y-113530095D01*
X176791904Y-113672952D01*
X176220476Y-114244380D01*
X176839523Y-114244380D01*
X177696666Y-113577714D02*
X177696666Y-114244380D01*
X177458571Y-113196761D02*
X177220476Y-113911047D01*
X177839523Y-113911047D01*
X170172142Y-108911380D02*
X169838809Y-108435190D01*
X169600714Y-108911380D02*
X169600714Y-107911380D01*
X169981666Y-107911380D01*
X170076904Y-107959000D01*
X170124523Y-108006619D01*
X170172142Y-108101857D01*
X170172142Y-108244714D01*
X170124523Y-108339952D01*
X170076904Y-108387571D01*
X169981666Y-108435190D01*
X169600714Y-108435190D01*
X170553095Y-108006619D02*
X170600714Y-107959000D01*
X170695952Y-107911380D01*
X170934047Y-107911380D01*
X171029285Y-107959000D01*
X171076904Y-108006619D01*
X171124523Y-108101857D01*
X171124523Y-108197095D01*
X171076904Y-108339952D01*
X170505476Y-108911380D01*
X171124523Y-108911380D01*
X171457857Y-107911380D02*
X172076904Y-107911380D01*
X171743571Y-108292333D01*
X171886428Y-108292333D01*
X171981666Y-108339952D01*
X172029285Y-108387571D01*
X172076904Y-108482809D01*
X172076904Y-108720904D01*
X172029285Y-108816142D01*
X171981666Y-108863761D01*
X171886428Y-108911380D01*
X171600714Y-108911380D01*
X171505476Y-108863761D01*
X171457857Y-108816142D01*
X176014142Y-108911380D02*
X175680809Y-108435190D01*
X175442714Y-108911380D02*
X175442714Y-107911380D01*
X175823666Y-107911380D01*
X175918904Y-107959000D01*
X175966523Y-108006619D01*
X176014142Y-108101857D01*
X176014142Y-108244714D01*
X175966523Y-108339952D01*
X175918904Y-108387571D01*
X175823666Y-108435190D01*
X175442714Y-108435190D01*
X176395095Y-108006619D02*
X176442714Y-107959000D01*
X176537952Y-107911380D01*
X176776047Y-107911380D01*
X176871285Y-107959000D01*
X176918904Y-108006619D01*
X176966523Y-108101857D01*
X176966523Y-108197095D01*
X176918904Y-108339952D01*
X176347476Y-108911380D01*
X176966523Y-108911380D01*
X177347476Y-108006619D02*
X177395095Y-107959000D01*
X177490333Y-107911380D01*
X177728428Y-107911380D01*
X177823666Y-107959000D01*
X177871285Y-108006619D01*
X177918904Y-108101857D01*
X177918904Y-108197095D01*
X177871285Y-108339952D01*
X177299857Y-108911380D01*
X177918904Y-108911380D01*
X196267142Y-70556380D02*
X195933809Y-70080190D01*
X195695714Y-70556380D02*
X195695714Y-69556380D01*
X196076666Y-69556380D01*
X196171904Y-69604000D01*
X196219523Y-69651619D01*
X196267142Y-69746857D01*
X196267142Y-69889714D01*
X196219523Y-69984952D01*
X196171904Y-70032571D01*
X196076666Y-70080190D01*
X195695714Y-70080190D01*
X196648095Y-69651619D02*
X196695714Y-69604000D01*
X196790952Y-69556380D01*
X197029047Y-69556380D01*
X197124285Y-69604000D01*
X197171904Y-69651619D01*
X197219523Y-69746857D01*
X197219523Y-69842095D01*
X197171904Y-69984952D01*
X196600476Y-70556380D01*
X197219523Y-70556380D01*
X198171904Y-70556380D02*
X197600476Y-70556380D01*
X197886190Y-70556380D02*
X197886190Y-69556380D01*
X197790952Y-69699238D01*
X197695714Y-69794476D01*
X197600476Y-69842095D01*
X202430142Y-82240380D02*
X202096809Y-81764190D01*
X201858714Y-82240380D02*
X201858714Y-81240380D01*
X202239666Y-81240380D01*
X202334904Y-81288000D01*
X202382523Y-81335619D01*
X202430142Y-81430857D01*
X202430142Y-81573714D01*
X202382523Y-81668952D01*
X202334904Y-81716571D01*
X202239666Y-81764190D01*
X201858714Y-81764190D01*
X202811095Y-81335619D02*
X202858714Y-81288000D01*
X202953952Y-81240380D01*
X203192047Y-81240380D01*
X203287285Y-81288000D01*
X203334904Y-81335619D01*
X203382523Y-81430857D01*
X203382523Y-81526095D01*
X203334904Y-81668952D01*
X202763476Y-82240380D01*
X203382523Y-82240380D01*
X204001571Y-81240380D02*
X204096809Y-81240380D01*
X204192047Y-81288000D01*
X204239666Y-81335619D01*
X204287285Y-81430857D01*
X204334904Y-81621333D01*
X204334904Y-81859428D01*
X204287285Y-82049904D01*
X204239666Y-82145142D01*
X204192047Y-82192761D01*
X204096809Y-82240380D01*
X204001571Y-82240380D01*
X203906333Y-82192761D01*
X203858714Y-82145142D01*
X203811095Y-82049904D01*
X203763476Y-81859428D01*
X203763476Y-81621333D01*
X203811095Y-81430857D01*
X203858714Y-81335619D01*
X203906333Y-81288000D01*
X204001571Y-81240380D01*
X202430142Y-84526380D02*
X202096809Y-84050190D01*
X201858714Y-84526380D02*
X201858714Y-83526380D01*
X202239666Y-83526380D01*
X202334904Y-83574000D01*
X202382523Y-83621619D01*
X202430142Y-83716857D01*
X202430142Y-83859714D01*
X202382523Y-83954952D01*
X202334904Y-84002571D01*
X202239666Y-84050190D01*
X201858714Y-84050190D01*
X203382523Y-84526380D02*
X202811095Y-84526380D01*
X203096809Y-84526380D02*
X203096809Y-83526380D01*
X203001571Y-83669238D01*
X202906333Y-83764476D01*
X202811095Y-83812095D01*
X203858714Y-84526380D02*
X204049190Y-84526380D01*
X204144428Y-84478761D01*
X204192047Y-84431142D01*
X204287285Y-84288285D01*
X204334904Y-84097809D01*
X204334904Y-83716857D01*
X204287285Y-83621619D01*
X204239666Y-83574000D01*
X204144428Y-83526380D01*
X203953952Y-83526380D01*
X203858714Y-83574000D01*
X203811095Y-83621619D01*
X203763476Y-83716857D01*
X203763476Y-83954952D01*
X203811095Y-84050190D01*
X203858714Y-84097809D01*
X203953952Y-84145428D01*
X204144428Y-84145428D01*
X204239666Y-84097809D01*
X204287285Y-84050190D01*
X204334904Y-83954952D01*
X202439142Y-86812380D02*
X202105809Y-86336190D01*
X201867714Y-86812380D02*
X201867714Y-85812380D01*
X202248666Y-85812380D01*
X202343904Y-85860000D01*
X202391523Y-85907619D01*
X202439142Y-86002857D01*
X202439142Y-86145714D01*
X202391523Y-86240952D01*
X202343904Y-86288571D01*
X202248666Y-86336190D01*
X201867714Y-86336190D01*
X203391523Y-86812380D02*
X202820095Y-86812380D01*
X203105809Y-86812380D02*
X203105809Y-85812380D01*
X203010571Y-85955238D01*
X202915333Y-86050476D01*
X202820095Y-86098095D01*
X203962952Y-86240952D02*
X203867714Y-86193333D01*
X203820095Y-86145714D01*
X203772476Y-86050476D01*
X203772476Y-86002857D01*
X203820095Y-85907619D01*
X203867714Y-85860000D01*
X203962952Y-85812380D01*
X204153428Y-85812380D01*
X204248666Y-85860000D01*
X204296285Y-85907619D01*
X204343904Y-86002857D01*
X204343904Y-86050476D01*
X204296285Y-86145714D01*
X204248666Y-86193333D01*
X204153428Y-86240952D01*
X203962952Y-86240952D01*
X203867714Y-86288571D01*
X203820095Y-86336190D01*
X203772476Y-86431428D01*
X203772476Y-86621904D01*
X203820095Y-86717142D01*
X203867714Y-86764761D01*
X203962952Y-86812380D01*
X204153428Y-86812380D01*
X204248666Y-86764761D01*
X204296285Y-86717142D01*
X204343904Y-86621904D01*
X204343904Y-86431428D01*
X204296285Y-86336190D01*
X204248666Y-86288571D01*
X204153428Y-86240952D01*
X191381142Y-81097380D02*
X191047809Y-80621190D01*
X190809714Y-81097380D02*
X190809714Y-80097380D01*
X191190666Y-80097380D01*
X191285904Y-80145000D01*
X191333523Y-80192619D01*
X191381142Y-80287857D01*
X191381142Y-80430714D01*
X191333523Y-80525952D01*
X191285904Y-80573571D01*
X191190666Y-80621190D01*
X190809714Y-80621190D01*
X192333523Y-81097380D02*
X191762095Y-81097380D01*
X192047809Y-81097380D02*
X192047809Y-80097380D01*
X191952571Y-80240238D01*
X191857333Y-80335476D01*
X191762095Y-80383095D01*
X192666857Y-80097380D02*
X193333523Y-80097380D01*
X192904952Y-81097380D01*
X178681142Y-78557380D02*
X178347809Y-78081190D01*
X178109714Y-78557380D02*
X178109714Y-77557380D01*
X178490666Y-77557380D01*
X178585904Y-77605000D01*
X178633523Y-77652619D01*
X178681142Y-77747857D01*
X178681142Y-77890714D01*
X178633523Y-77985952D01*
X178585904Y-78033571D01*
X178490666Y-78081190D01*
X178109714Y-78081190D01*
X179633523Y-78557380D02*
X179062095Y-78557380D01*
X179347809Y-78557380D02*
X179347809Y-77557380D01*
X179252571Y-77700238D01*
X179157333Y-77795476D01*
X179062095Y-77843095D01*
X180490666Y-77557380D02*
X180300190Y-77557380D01*
X180204952Y-77605000D01*
X180157333Y-77652619D01*
X180062095Y-77795476D01*
X180014476Y-77985952D01*
X180014476Y-78366904D01*
X180062095Y-78462142D01*
X180109714Y-78509761D01*
X180204952Y-78557380D01*
X180395428Y-78557380D01*
X180490666Y-78509761D01*
X180538285Y-78462142D01*
X180585904Y-78366904D01*
X180585904Y-78128809D01*
X180538285Y-78033571D01*
X180490666Y-77985952D01*
X180395428Y-77938333D01*
X180204952Y-77938333D01*
X180109714Y-77985952D01*
X180062095Y-78033571D01*
X180014476Y-78128809D01*
X167124142Y-96210380D02*
X166790809Y-95734190D01*
X166552714Y-96210380D02*
X166552714Y-95210380D01*
X166933666Y-95210380D01*
X167028904Y-95258000D01*
X167076523Y-95305619D01*
X167124142Y-95400857D01*
X167124142Y-95543714D01*
X167076523Y-95638952D01*
X167028904Y-95686571D01*
X166933666Y-95734190D01*
X166552714Y-95734190D01*
X168076523Y-96210380D02*
X167505095Y-96210380D01*
X167790809Y-96210380D02*
X167790809Y-95210380D01*
X167695571Y-95353238D01*
X167600333Y-95448476D01*
X167505095Y-95496095D01*
X168981285Y-95210380D02*
X168505095Y-95210380D01*
X168457476Y-95686571D01*
X168505095Y-95638952D01*
X168600333Y-95591333D01*
X168838428Y-95591333D01*
X168933666Y-95638952D01*
X168981285Y-95686571D01*
X169028904Y-95781809D01*
X169028904Y-96019904D01*
X168981285Y-96115142D01*
X168933666Y-96162761D01*
X168838428Y-96210380D01*
X168600333Y-96210380D01*
X168505095Y-96162761D01*
X168457476Y-96115142D01*
X171950142Y-86812380D02*
X171616809Y-86336190D01*
X171378714Y-86812380D02*
X171378714Y-85812380D01*
X171759666Y-85812380D01*
X171854904Y-85860000D01*
X171902523Y-85907619D01*
X171950142Y-86002857D01*
X171950142Y-86145714D01*
X171902523Y-86240952D01*
X171854904Y-86288571D01*
X171759666Y-86336190D01*
X171378714Y-86336190D01*
X172902523Y-86812380D02*
X172331095Y-86812380D01*
X172616809Y-86812380D02*
X172616809Y-85812380D01*
X172521571Y-85955238D01*
X172426333Y-86050476D01*
X172331095Y-86098095D01*
X173759666Y-86145714D02*
X173759666Y-86812380D01*
X173521571Y-85764761D02*
X173283476Y-86479047D01*
X173902523Y-86479047D01*
X167632142Y-86812380D02*
X167298809Y-86336190D01*
X167060714Y-86812380D02*
X167060714Y-85812380D01*
X167441666Y-85812380D01*
X167536904Y-85860000D01*
X167584523Y-85907619D01*
X167632142Y-86002857D01*
X167632142Y-86145714D01*
X167584523Y-86240952D01*
X167536904Y-86288571D01*
X167441666Y-86336190D01*
X167060714Y-86336190D01*
X168584523Y-86812380D02*
X168013095Y-86812380D01*
X168298809Y-86812380D02*
X168298809Y-85812380D01*
X168203571Y-85955238D01*
X168108333Y-86050476D01*
X168013095Y-86098095D01*
X168917857Y-85812380D02*
X169536904Y-85812380D01*
X169203571Y-86193333D01*
X169346428Y-86193333D01*
X169441666Y-86240952D01*
X169489285Y-86288571D01*
X169536904Y-86383809D01*
X169536904Y-86621904D01*
X169489285Y-86717142D01*
X169441666Y-86764761D01*
X169346428Y-86812380D01*
X169060714Y-86812380D01*
X168965476Y-86764761D01*
X168917857Y-86717142D01*
X163012380Y-82548857D02*
X162536190Y-82882190D01*
X163012380Y-83120285D02*
X162012380Y-83120285D01*
X162012380Y-82739333D01*
X162060000Y-82644095D01*
X162107619Y-82596476D01*
X162202857Y-82548857D01*
X162345714Y-82548857D01*
X162440952Y-82596476D01*
X162488571Y-82644095D01*
X162536190Y-82739333D01*
X162536190Y-83120285D01*
X163012380Y-81596476D02*
X163012380Y-82167904D01*
X163012380Y-81882190D02*
X162012380Y-81882190D01*
X162155238Y-81977428D01*
X162250476Y-82072666D01*
X162298095Y-82167904D01*
X162107619Y-81215523D02*
X162060000Y-81167904D01*
X162012380Y-81072666D01*
X162012380Y-80834571D01*
X162060000Y-80739333D01*
X162107619Y-80691714D01*
X162202857Y-80644095D01*
X162298095Y-80644095D01*
X162440952Y-80691714D01*
X163012380Y-81263142D01*
X163012380Y-80644095D01*
X163012380Y-94114857D02*
X162536190Y-94448190D01*
X163012380Y-94686285D02*
X162012380Y-94686285D01*
X162012380Y-94305333D01*
X162060000Y-94210095D01*
X162107619Y-94162476D01*
X162202857Y-94114857D01*
X162345714Y-94114857D01*
X162440952Y-94162476D01*
X162488571Y-94210095D01*
X162536190Y-94305333D01*
X162536190Y-94686285D01*
X163012380Y-93162476D02*
X163012380Y-93733904D01*
X163012380Y-93448190D02*
X162012380Y-93448190D01*
X162155238Y-93543428D01*
X162250476Y-93638666D01*
X162298095Y-93733904D01*
X163012380Y-92210095D02*
X163012380Y-92781523D01*
X163012380Y-92495809D02*
X162012380Y-92495809D01*
X162155238Y-92591047D01*
X162250476Y-92686285D01*
X162298095Y-92781523D01*
X165425380Y-94114857D02*
X164949190Y-94448190D01*
X165425380Y-94686285D02*
X164425380Y-94686285D01*
X164425380Y-94305333D01*
X164473000Y-94210095D01*
X164520619Y-94162476D01*
X164615857Y-94114857D01*
X164758714Y-94114857D01*
X164853952Y-94162476D01*
X164901571Y-94210095D01*
X164949190Y-94305333D01*
X164949190Y-94686285D01*
X165425380Y-93162476D02*
X165425380Y-93733904D01*
X165425380Y-93448190D02*
X164425380Y-93448190D01*
X164568238Y-93543428D01*
X164663476Y-93638666D01*
X164711095Y-93733904D01*
X164425380Y-92543428D02*
X164425380Y-92448190D01*
X164473000Y-92352952D01*
X164520619Y-92305333D01*
X164615857Y-92257714D01*
X164806333Y-92210095D01*
X165044428Y-92210095D01*
X165234904Y-92257714D01*
X165330142Y-92305333D01*
X165377761Y-92352952D01*
X165425380Y-92448190D01*
X165425380Y-92543428D01*
X165377761Y-92638666D01*
X165330142Y-92686285D01*
X165234904Y-92733904D01*
X165044428Y-92781523D01*
X164806333Y-92781523D01*
X164615857Y-92733904D01*
X164520619Y-92686285D01*
X164473000Y-92638666D01*
X164425380Y-92543428D01*
X176617333Y-86812380D02*
X176284000Y-86336190D01*
X176045904Y-86812380D02*
X176045904Y-85812380D01*
X176426857Y-85812380D01*
X176522095Y-85860000D01*
X176569714Y-85907619D01*
X176617333Y-86002857D01*
X176617333Y-86145714D01*
X176569714Y-86240952D01*
X176522095Y-86288571D01*
X176426857Y-86336190D01*
X176045904Y-86336190D01*
X177093523Y-86812380D02*
X177284000Y-86812380D01*
X177379238Y-86764761D01*
X177426857Y-86717142D01*
X177522095Y-86574285D01*
X177569714Y-86383809D01*
X177569714Y-86002857D01*
X177522095Y-85907619D01*
X177474476Y-85860000D01*
X177379238Y-85812380D01*
X177188761Y-85812380D01*
X177093523Y-85860000D01*
X177045904Y-85907619D01*
X176998285Y-86002857D01*
X176998285Y-86240952D01*
X177045904Y-86336190D01*
X177093523Y-86383809D01*
X177188761Y-86431428D01*
X177379238Y-86431428D01*
X177474476Y-86383809D01*
X177522095Y-86336190D01*
X177569714Y-86240952D01*
X172172333Y-79065380D02*
X171839000Y-78589190D01*
X171600904Y-79065380D02*
X171600904Y-78065380D01*
X171981857Y-78065380D01*
X172077095Y-78113000D01*
X172124714Y-78160619D01*
X172172333Y-78255857D01*
X172172333Y-78398714D01*
X172124714Y-78493952D01*
X172077095Y-78541571D01*
X171981857Y-78589190D01*
X171600904Y-78589190D01*
X172743761Y-78493952D02*
X172648523Y-78446333D01*
X172600904Y-78398714D01*
X172553285Y-78303476D01*
X172553285Y-78255857D01*
X172600904Y-78160619D01*
X172648523Y-78113000D01*
X172743761Y-78065380D01*
X172934238Y-78065380D01*
X173029476Y-78113000D01*
X173077095Y-78160619D01*
X173124714Y-78255857D01*
X173124714Y-78303476D01*
X173077095Y-78398714D01*
X173029476Y-78446333D01*
X172934238Y-78493952D01*
X172743761Y-78493952D01*
X172648523Y-78541571D01*
X172600904Y-78589190D01*
X172553285Y-78684428D01*
X172553285Y-78874904D01*
X172600904Y-78970142D01*
X172648523Y-79017761D01*
X172743761Y-79065380D01*
X172934238Y-79065380D01*
X173029476Y-79017761D01*
X173077095Y-78970142D01*
X173124714Y-78874904D01*
X173124714Y-78684428D01*
X173077095Y-78589190D01*
X173029476Y-78541571D01*
X172934238Y-78493952D01*
X172172333Y-81224380D02*
X171839000Y-80748190D01*
X171600904Y-81224380D02*
X171600904Y-80224380D01*
X171981857Y-80224380D01*
X172077095Y-80272000D01*
X172124714Y-80319619D01*
X172172333Y-80414857D01*
X172172333Y-80557714D01*
X172124714Y-80652952D01*
X172077095Y-80700571D01*
X171981857Y-80748190D01*
X171600904Y-80748190D01*
X172505666Y-80224380D02*
X173172333Y-80224380D01*
X172743761Y-81224380D01*
X196302333Y-67889380D02*
X195969000Y-67413190D01*
X195730904Y-67889380D02*
X195730904Y-66889380D01*
X196111857Y-66889380D01*
X196207095Y-66937000D01*
X196254714Y-66984619D01*
X196302333Y-67079857D01*
X196302333Y-67222714D01*
X196254714Y-67317952D01*
X196207095Y-67365571D01*
X196111857Y-67413190D01*
X195730904Y-67413190D01*
X197159476Y-66889380D02*
X196969000Y-66889380D01*
X196873761Y-66937000D01*
X196826142Y-66984619D01*
X196730904Y-67127476D01*
X196683285Y-67317952D01*
X196683285Y-67698904D01*
X196730904Y-67794142D01*
X196778523Y-67841761D01*
X196873761Y-67889380D01*
X197064238Y-67889380D01*
X197159476Y-67841761D01*
X197207095Y-67794142D01*
X197254714Y-67698904D01*
X197254714Y-67460809D01*
X197207095Y-67365571D01*
X197159476Y-67317952D01*
X197064238Y-67270333D01*
X196873761Y-67270333D01*
X196778523Y-67317952D01*
X196730904Y-67365571D01*
X196683285Y-67460809D01*
X196302333Y-65222380D02*
X195969000Y-64746190D01*
X195730904Y-65222380D02*
X195730904Y-64222380D01*
X196111857Y-64222380D01*
X196207095Y-64270000D01*
X196254714Y-64317619D01*
X196302333Y-64412857D01*
X196302333Y-64555714D01*
X196254714Y-64650952D01*
X196207095Y-64698571D01*
X196111857Y-64746190D01*
X195730904Y-64746190D01*
X197207095Y-64222380D02*
X196730904Y-64222380D01*
X196683285Y-64698571D01*
X196730904Y-64650952D01*
X196826142Y-64603333D01*
X197064238Y-64603333D01*
X197159476Y-64650952D01*
X197207095Y-64698571D01*
X197254714Y-64793809D01*
X197254714Y-65031904D01*
X197207095Y-65127142D01*
X197159476Y-65174761D01*
X197064238Y-65222380D01*
X196826142Y-65222380D01*
X196730904Y-65174761D01*
X196683285Y-65127142D01*
X196302333Y-63063380D02*
X195969000Y-62587190D01*
X195730904Y-63063380D02*
X195730904Y-62063380D01*
X196111857Y-62063380D01*
X196207095Y-62111000D01*
X196254714Y-62158619D01*
X196302333Y-62253857D01*
X196302333Y-62396714D01*
X196254714Y-62491952D01*
X196207095Y-62539571D01*
X196111857Y-62587190D01*
X195730904Y-62587190D01*
X197159476Y-62396714D02*
X197159476Y-63063380D01*
X196921380Y-62015761D02*
X196683285Y-62730047D01*
X197302333Y-62730047D01*
X182003333Y-62555380D02*
X181670000Y-62079190D01*
X181431904Y-62555380D02*
X181431904Y-61555380D01*
X181812857Y-61555380D01*
X181908095Y-61603000D01*
X181955714Y-61650619D01*
X182003333Y-61745857D01*
X182003333Y-61888714D01*
X181955714Y-61983952D01*
X181908095Y-62031571D01*
X181812857Y-62079190D01*
X181431904Y-62079190D01*
X182336666Y-61555380D02*
X182955714Y-61555380D01*
X182622380Y-61936333D01*
X182765238Y-61936333D01*
X182860476Y-61983952D01*
X182908095Y-62031571D01*
X182955714Y-62126809D01*
X182955714Y-62364904D01*
X182908095Y-62460142D01*
X182860476Y-62507761D01*
X182765238Y-62555380D01*
X182479523Y-62555380D01*
X182384285Y-62507761D01*
X182336666Y-62460142D01*
X168997333Y-62682380D02*
X168664000Y-62206190D01*
X168425904Y-62682380D02*
X168425904Y-61682380D01*
X168806857Y-61682380D01*
X168902095Y-61730000D01*
X168949714Y-61777619D01*
X168997333Y-61872857D01*
X168997333Y-62015714D01*
X168949714Y-62110952D01*
X168902095Y-62158571D01*
X168806857Y-62206190D01*
X168425904Y-62206190D01*
X169378285Y-61777619D02*
X169425904Y-61730000D01*
X169521142Y-61682380D01*
X169759238Y-61682380D01*
X169854476Y-61730000D01*
X169902095Y-61777619D01*
X169949714Y-61872857D01*
X169949714Y-61968095D01*
X169902095Y-62110952D01*
X169330666Y-62682380D01*
X169949714Y-62682380D01*
X182713333Y-82966380D02*
X182380000Y-82490190D01*
X182141904Y-82966380D02*
X182141904Y-81966380D01*
X182522857Y-81966380D01*
X182618095Y-82014000D01*
X182665714Y-82061619D01*
X182713333Y-82156857D01*
X182713333Y-82299714D01*
X182665714Y-82394952D01*
X182618095Y-82442571D01*
X182522857Y-82490190D01*
X182141904Y-82490190D01*
X183665714Y-82966380D02*
X183094285Y-82966380D01*
X183380000Y-82966380D02*
X183380000Y-81966380D01*
X183284761Y-82109238D01*
X183189523Y-82204476D01*
X183094285Y-82252095D01*
X204386619Y-100679238D02*
X204339000Y-100774476D01*
X204243761Y-100869714D01*
X204100904Y-101012571D01*
X204053285Y-101107809D01*
X204053285Y-101203047D01*
X204291380Y-101155428D02*
X204243761Y-101250666D01*
X204148523Y-101345904D01*
X203958047Y-101393523D01*
X203624714Y-101393523D01*
X203434238Y-101345904D01*
X203339000Y-101250666D01*
X203291380Y-101155428D01*
X203291380Y-100964952D01*
X203339000Y-100869714D01*
X203434238Y-100774476D01*
X203624714Y-100726857D01*
X203958047Y-100726857D01*
X204148523Y-100774476D01*
X204243761Y-100869714D01*
X204291380Y-100964952D01*
X204291380Y-101155428D01*
X203291380Y-99869714D02*
X203291380Y-100060190D01*
X203339000Y-100155428D01*
X203386619Y-100203047D01*
X203529476Y-100298285D01*
X203719952Y-100345904D01*
X204100904Y-100345904D01*
X204196142Y-100298285D01*
X204243761Y-100250666D01*
X204291380Y-100155428D01*
X204291380Y-99964952D01*
X204243761Y-99869714D01*
X204196142Y-99822095D01*
X204100904Y-99774476D01*
X203862809Y-99774476D01*
X203767571Y-99822095D01*
X203719952Y-99869714D01*
X203672333Y-99964952D01*
X203672333Y-100155428D01*
X203719952Y-100250666D01*
X203767571Y-100298285D01*
X203862809Y-100345904D01*
X196500761Y-116117619D02*
X196405523Y-116070000D01*
X196310285Y-115974761D01*
X196167428Y-115831904D01*
X196072190Y-115784285D01*
X195976952Y-115784285D01*
X196024571Y-116022380D02*
X195929333Y-115974761D01*
X195834095Y-115879523D01*
X195786476Y-115689047D01*
X195786476Y-115355714D01*
X195834095Y-115165238D01*
X195929333Y-115070000D01*
X196024571Y-115022380D01*
X196215047Y-115022380D01*
X196310285Y-115070000D01*
X196405523Y-115165238D01*
X196453142Y-115355714D01*
X196453142Y-115689047D01*
X196405523Y-115879523D01*
X196310285Y-115974761D01*
X196215047Y-116022380D01*
X196024571Y-116022380D01*
X197357904Y-115022380D02*
X196881714Y-115022380D01*
X196834095Y-115498571D01*
X196881714Y-115450952D01*
X196976952Y-115403333D01*
X197215047Y-115403333D01*
X197310285Y-115450952D01*
X197357904Y-115498571D01*
X197405523Y-115593809D01*
X197405523Y-115831904D01*
X197357904Y-115927142D01*
X197310285Y-115974761D01*
X197215047Y-116022380D01*
X196976952Y-116022380D01*
X196881714Y-115974761D01*
X196834095Y-115927142D01*
X169449761Y-123610619D02*
X169354523Y-123563000D01*
X169259285Y-123467761D01*
X169116428Y-123324904D01*
X169021190Y-123277285D01*
X168925952Y-123277285D01*
X168973571Y-123515380D02*
X168878333Y-123467761D01*
X168783095Y-123372523D01*
X168735476Y-123182047D01*
X168735476Y-122848714D01*
X168783095Y-122658238D01*
X168878333Y-122563000D01*
X168973571Y-122515380D01*
X169164047Y-122515380D01*
X169259285Y-122563000D01*
X169354523Y-122658238D01*
X169402142Y-122848714D01*
X169402142Y-123182047D01*
X169354523Y-123372523D01*
X169259285Y-123467761D01*
X169164047Y-123515380D01*
X168973571Y-123515380D01*
X170259285Y-122848714D02*
X170259285Y-123515380D01*
X170021190Y-122467761D02*
X169783095Y-123182047D01*
X170402142Y-123182047D01*
X161964619Y-74386238D02*
X161917000Y-74481476D01*
X161821761Y-74576714D01*
X161678904Y-74719571D01*
X161631285Y-74814809D01*
X161631285Y-74910047D01*
X161869380Y-74862428D02*
X161821761Y-74957666D01*
X161726523Y-75052904D01*
X161536047Y-75100523D01*
X161202714Y-75100523D01*
X161012238Y-75052904D01*
X160917000Y-74957666D01*
X160869380Y-74862428D01*
X160869380Y-74671952D01*
X160917000Y-74576714D01*
X161012238Y-74481476D01*
X161202714Y-74433857D01*
X161536047Y-74433857D01*
X161726523Y-74481476D01*
X161821761Y-74576714D01*
X161869380Y-74671952D01*
X161869380Y-74862428D01*
X161869380Y-73481476D02*
X161869380Y-74052904D01*
X161869380Y-73767190D02*
X160869380Y-73767190D01*
X161012238Y-73862428D01*
X161107476Y-73957666D01*
X161155095Y-74052904D01*
X204557380Y-104846333D02*
X205271666Y-104846333D01*
X205414523Y-104893952D01*
X205509761Y-104989190D01*
X205557380Y-105132047D01*
X205557380Y-105227285D01*
X205557380Y-104370142D02*
X204557380Y-104370142D01*
X204557380Y-103989190D01*
X204605000Y-103893952D01*
X204652619Y-103846333D01*
X204747857Y-103798714D01*
X204890714Y-103798714D01*
X204985952Y-103846333D01*
X205033571Y-103893952D01*
X205081190Y-103989190D01*
X205081190Y-104370142D01*
X204557380Y-102941571D02*
X204557380Y-103132047D01*
X204605000Y-103227285D01*
X204652619Y-103274904D01*
X204795476Y-103370142D01*
X204985952Y-103417761D01*
X205366904Y-103417761D01*
X205462142Y-103370142D01*
X205509761Y-103322523D01*
X205557380Y-103227285D01*
X205557380Y-103036809D01*
X205509761Y-102941571D01*
X205462142Y-102893952D01*
X205366904Y-102846333D01*
X205128809Y-102846333D01*
X205033571Y-102893952D01*
X204985952Y-102941571D01*
X204938333Y-103036809D01*
X204938333Y-103227285D01*
X204985952Y-103322523D01*
X205033571Y-103370142D01*
X205128809Y-103417761D01*
X181792666Y-136104380D02*
X181792666Y-136818666D01*
X181745047Y-136961523D01*
X181649809Y-137056761D01*
X181506952Y-137104380D01*
X181411714Y-137104380D01*
X182268857Y-137104380D02*
X182268857Y-136104380D01*
X182649809Y-136104380D01*
X182745047Y-136152000D01*
X182792666Y-136199619D01*
X182840285Y-136294857D01*
X182840285Y-136437714D01*
X182792666Y-136532952D01*
X182745047Y-136580571D01*
X182649809Y-136628190D01*
X182268857Y-136628190D01*
X183745047Y-136104380D02*
X183268857Y-136104380D01*
X183221238Y-136580571D01*
X183268857Y-136532952D01*
X183364095Y-136485333D01*
X183602190Y-136485333D01*
X183697428Y-136532952D01*
X183745047Y-136580571D01*
X183792666Y-136675809D01*
X183792666Y-136913904D01*
X183745047Y-137009142D01*
X183697428Y-137056761D01*
X183602190Y-137104380D01*
X183364095Y-137104380D01*
X183268857Y-137056761D01*
X183221238Y-137009142D01*
X164425380Y-121864333D02*
X165139666Y-121864333D01*
X165282523Y-121911952D01*
X165377761Y-122007190D01*
X165425380Y-122150047D01*
X165425380Y-122245285D01*
X165425380Y-121388142D02*
X164425380Y-121388142D01*
X164425380Y-121007190D01*
X164473000Y-120911952D01*
X164520619Y-120864333D01*
X164615857Y-120816714D01*
X164758714Y-120816714D01*
X164853952Y-120864333D01*
X164901571Y-120911952D01*
X164949190Y-121007190D01*
X164949190Y-121388142D01*
X164758714Y-119959571D02*
X165425380Y-119959571D01*
X164377761Y-120197666D02*
X165092047Y-120435761D01*
X165092047Y-119816714D01*
X164012666Y-82002380D02*
X164012666Y-82716666D01*
X163965047Y-82859523D01*
X163869809Y-82954761D01*
X163726952Y-83002380D01*
X163631714Y-83002380D01*
X164488857Y-83002380D02*
X164488857Y-82002380D01*
X164869809Y-82002380D01*
X164965047Y-82050000D01*
X165012666Y-82097619D01*
X165060285Y-82192857D01*
X165060285Y-82335714D01*
X165012666Y-82430952D01*
X164965047Y-82478571D01*
X164869809Y-82526190D01*
X164488857Y-82526190D01*
X165393619Y-82002380D02*
X166012666Y-82002380D01*
X165679333Y-82383333D01*
X165822190Y-82383333D01*
X165917428Y-82430952D01*
X165965047Y-82478571D01*
X166012666Y-82573809D01*
X166012666Y-82811904D01*
X165965047Y-82907142D01*
X165917428Y-82954761D01*
X165822190Y-83002380D01*
X165536476Y-83002380D01*
X165441238Y-82954761D01*
X165393619Y-82907142D01*
X181919666Y-84034380D02*
X181919666Y-84748666D01*
X181872047Y-84891523D01*
X181776809Y-84986761D01*
X181633952Y-85034380D01*
X181538714Y-85034380D01*
X182395857Y-85034380D02*
X182395857Y-84034380D01*
X182776809Y-84034380D01*
X182872047Y-84082000D01*
X182919666Y-84129619D01*
X182967285Y-84224857D01*
X182967285Y-84367714D01*
X182919666Y-84462952D01*
X182872047Y-84510571D01*
X182776809Y-84558190D01*
X182395857Y-84558190D01*
X183348238Y-84129619D02*
X183395857Y-84082000D01*
X183491095Y-84034380D01*
X183729190Y-84034380D01*
X183824428Y-84082000D01*
X183872047Y-84129619D01*
X183919666Y-84224857D01*
X183919666Y-84320095D01*
X183872047Y-84462952D01*
X183300619Y-85034380D01*
X183919666Y-85034380D01*
X170743666Y-82002380D02*
X170743666Y-82716666D01*
X170696047Y-82859523D01*
X170600809Y-82954761D01*
X170457952Y-83002380D01*
X170362714Y-83002380D01*
X171219857Y-83002380D02*
X171219857Y-82002380D01*
X171600809Y-82002380D01*
X171696047Y-82050000D01*
X171743666Y-82097619D01*
X171791285Y-82192857D01*
X171791285Y-82335714D01*
X171743666Y-82430952D01*
X171696047Y-82478571D01*
X171600809Y-82526190D01*
X171219857Y-82526190D01*
X172743666Y-83002380D02*
X172172238Y-83002380D01*
X172457952Y-83002380D02*
X172457952Y-82002380D01*
X172362714Y-82145238D01*
X172267476Y-82240476D01*
X172172238Y-82288095D01*
X176323666Y-136104380D02*
X176323666Y-136818666D01*
X176276047Y-136961523D01*
X176180809Y-137056761D01*
X176037952Y-137104380D01*
X175942714Y-137104380D01*
X177228428Y-136104380D02*
X177037952Y-136104380D01*
X176942714Y-136152000D01*
X176895095Y-136199619D01*
X176799857Y-136342476D01*
X176752238Y-136532952D01*
X176752238Y-136913904D01*
X176799857Y-137009142D01*
X176847476Y-137056761D01*
X176942714Y-137104380D01*
X177133190Y-137104380D01*
X177228428Y-137056761D01*
X177276047Y-137009142D01*
X177323666Y-136913904D01*
X177323666Y-136675809D01*
X177276047Y-136580571D01*
X177228428Y-136532952D01*
X177133190Y-136485333D01*
X176942714Y-136485333D01*
X176847476Y-136532952D01*
X176799857Y-136580571D01*
X176752238Y-136675809D01*
X171497666Y-103973380D02*
X171497666Y-104687666D01*
X171450047Y-104830523D01*
X171354809Y-104925761D01*
X171211952Y-104973380D01*
X171116714Y-104973380D01*
X172402428Y-104306714D02*
X172402428Y-104973380D01*
X172164333Y-103925761D02*
X171926238Y-104640047D01*
X172545285Y-104640047D01*
X204898666Y-60666380D02*
X204898666Y-61380666D01*
X204851047Y-61523523D01*
X204755809Y-61618761D01*
X204612952Y-61666380D01*
X204517714Y-61666380D01*
X205327238Y-60761619D02*
X205374857Y-60714000D01*
X205470095Y-60666380D01*
X205708190Y-60666380D01*
X205803428Y-60714000D01*
X205851047Y-60761619D01*
X205898666Y-60856857D01*
X205898666Y-60952095D01*
X205851047Y-61094952D01*
X205279619Y-61666380D01*
X205898666Y-61666380D01*
X164766666Y-99484380D02*
X164766666Y-100198666D01*
X164719047Y-100341523D01*
X164623809Y-100436761D01*
X164480952Y-100484380D01*
X164385714Y-100484380D01*
X165766666Y-100484380D02*
X165195238Y-100484380D01*
X165480952Y-100484380D02*
X165480952Y-99484380D01*
X165385714Y-99627238D01*
X165290476Y-99722476D01*
X165195238Y-99770095D01*
X170711904Y-100362380D02*
X170711904Y-99362380D01*
X170950000Y-99362380D01*
X171092857Y-99410000D01*
X171188095Y-99505238D01*
X171235714Y-99600476D01*
X171283333Y-99790952D01*
X171283333Y-99933809D01*
X171235714Y-100124285D01*
X171188095Y-100219523D01*
X171092857Y-100314761D01*
X170950000Y-100362380D01*
X170711904Y-100362380D01*
X172235714Y-100362380D02*
X171664285Y-100362380D01*
X171950000Y-100362380D02*
X171950000Y-99362380D01*
X171854761Y-99505238D01*
X171759523Y-99600476D01*
X171664285Y-99648095D01*
X174998095Y-100042380D02*
X174998095Y-99042380D01*
X175569523Y-100042380D02*
X175140952Y-99470952D01*
X175569523Y-99042380D02*
X174998095Y-99613809D01*
X195811142Y-137049857D02*
X195858761Y-137097476D01*
X195906380Y-137240333D01*
X195906380Y-137335571D01*
X195858761Y-137478428D01*
X195763523Y-137573666D01*
X195668285Y-137621285D01*
X195477809Y-137668904D01*
X195334952Y-137668904D01*
X195144476Y-137621285D01*
X195049238Y-137573666D01*
X194954000Y-137478428D01*
X194906380Y-137335571D01*
X194906380Y-137240333D01*
X194954000Y-137097476D01*
X195001619Y-137049857D01*
X195906380Y-136097476D02*
X195906380Y-136668904D01*
X195906380Y-136383190D02*
X194906380Y-136383190D01*
X195049238Y-136478428D01*
X195144476Y-136573666D01*
X195192095Y-136668904D01*
X194906380Y-135764142D02*
X194906380Y-135145095D01*
X195287333Y-135478428D01*
X195287333Y-135335571D01*
X195334952Y-135240333D01*
X195382571Y-135192714D01*
X195477809Y-135145095D01*
X195715904Y-135145095D01*
X195811142Y-135192714D01*
X195858761Y-135240333D01*
X195906380Y-135335571D01*
X195906380Y-135621285D01*
X195858761Y-135716523D01*
X195811142Y-135764142D01*
X198223142Y-131461857D02*
X198270761Y-131509476D01*
X198318380Y-131652333D01*
X198318380Y-131747571D01*
X198270761Y-131890428D01*
X198175523Y-131985666D01*
X198080285Y-132033285D01*
X197889809Y-132080904D01*
X197746952Y-132080904D01*
X197556476Y-132033285D01*
X197461238Y-131985666D01*
X197366000Y-131890428D01*
X197318380Y-131747571D01*
X197318380Y-131652333D01*
X197366000Y-131509476D01*
X197413619Y-131461857D01*
X198318380Y-130509476D02*
X198318380Y-131080904D01*
X198318380Y-130795190D02*
X197318380Y-130795190D01*
X197461238Y-130890428D01*
X197556476Y-130985666D01*
X197604095Y-131080904D01*
X197413619Y-130128523D02*
X197366000Y-130080904D01*
X197318380Y-129985666D01*
X197318380Y-129747571D01*
X197366000Y-129652333D01*
X197413619Y-129604714D01*
X197508857Y-129557095D01*
X197604095Y-129557095D01*
X197746952Y-129604714D01*
X198318380Y-130176142D01*
X198318380Y-129557095D01*
X199366142Y-136913857D02*
X199413761Y-136961476D01*
X199461380Y-137104333D01*
X199461380Y-137199571D01*
X199413761Y-137342428D01*
X199318523Y-137437666D01*
X199223285Y-137485285D01*
X199032809Y-137532904D01*
X198889952Y-137532904D01*
X198699476Y-137485285D01*
X198604238Y-137437666D01*
X198509000Y-137342428D01*
X198461380Y-137199571D01*
X198461380Y-137104333D01*
X198509000Y-136961476D01*
X198556619Y-136913857D01*
X199461380Y-135961476D02*
X199461380Y-136532904D01*
X199461380Y-136247190D02*
X198461380Y-136247190D01*
X198604238Y-136342428D01*
X198699476Y-136437666D01*
X198747095Y-136532904D01*
X199461380Y-135009095D02*
X199461380Y-135580523D01*
X199461380Y-135294809D02*
X198461380Y-135294809D01*
X198604238Y-135390047D01*
X198699476Y-135485285D01*
X198747095Y-135580523D01*
X194032142Y-132849857D02*
X194079761Y-132897476D01*
X194127380Y-133040333D01*
X194127380Y-133135571D01*
X194079761Y-133278428D01*
X193984523Y-133373666D01*
X193889285Y-133421285D01*
X193698809Y-133468904D01*
X193555952Y-133468904D01*
X193365476Y-133421285D01*
X193270238Y-133373666D01*
X193175000Y-133278428D01*
X193127380Y-133135571D01*
X193127380Y-133040333D01*
X193175000Y-132897476D01*
X193222619Y-132849857D01*
X194127380Y-131897476D02*
X194127380Y-132468904D01*
X194127380Y-132183190D02*
X193127380Y-132183190D01*
X193270238Y-132278428D01*
X193365476Y-132373666D01*
X193413095Y-132468904D01*
X193127380Y-131278428D02*
X193127380Y-131183190D01*
X193175000Y-131087952D01*
X193222619Y-131040333D01*
X193317857Y-130992714D01*
X193508333Y-130945095D01*
X193746428Y-130945095D01*
X193936904Y-130992714D01*
X194032142Y-131040333D01*
X194079761Y-131087952D01*
X194127380Y-131183190D01*
X194127380Y-131278428D01*
X194079761Y-131373666D01*
X194032142Y-131421285D01*
X193936904Y-131468904D01*
X193746428Y-131516523D01*
X193508333Y-131516523D01*
X193317857Y-131468904D01*
X193222619Y-131421285D01*
X193175000Y-131373666D01*
X193127380Y-131278428D01*
X206208333Y-115166142D02*
X206160714Y-115213761D01*
X206017857Y-115261380D01*
X205922619Y-115261380D01*
X205779761Y-115213761D01*
X205684523Y-115118523D01*
X205636904Y-115023285D01*
X205589285Y-114832809D01*
X205589285Y-114689952D01*
X205636904Y-114499476D01*
X205684523Y-114404238D01*
X205779761Y-114309000D01*
X205922619Y-114261380D01*
X206017857Y-114261380D01*
X206160714Y-114309000D01*
X206208333Y-114356619D01*
X206684523Y-115261380D02*
X206875000Y-115261380D01*
X206970238Y-115213761D01*
X207017857Y-115166142D01*
X207113095Y-115023285D01*
X207160714Y-114832809D01*
X207160714Y-114451857D01*
X207113095Y-114356619D01*
X207065476Y-114309000D01*
X206970238Y-114261380D01*
X206779761Y-114261380D01*
X206684523Y-114309000D01*
X206636904Y-114356619D01*
X206589285Y-114451857D01*
X206589285Y-114689952D01*
X206636904Y-114785190D01*
X206684523Y-114832809D01*
X206779761Y-114880428D01*
X206970238Y-114880428D01*
X207065476Y-114832809D01*
X207113095Y-114785190D01*
X207160714Y-114689952D01*
X186269333Y-110593142D02*
X186221714Y-110640761D01*
X186078857Y-110688380D01*
X185983619Y-110688380D01*
X185840761Y-110640761D01*
X185745523Y-110545523D01*
X185697904Y-110450285D01*
X185650285Y-110259809D01*
X185650285Y-110116952D01*
X185697904Y-109926476D01*
X185745523Y-109831238D01*
X185840761Y-109736000D01*
X185983619Y-109688380D01*
X186078857Y-109688380D01*
X186221714Y-109736000D01*
X186269333Y-109783619D01*
X186840761Y-110116952D02*
X186745523Y-110069333D01*
X186697904Y-110021714D01*
X186650285Y-109926476D01*
X186650285Y-109878857D01*
X186697904Y-109783619D01*
X186745523Y-109736000D01*
X186840761Y-109688380D01*
X187031238Y-109688380D01*
X187126476Y-109736000D01*
X187174095Y-109783619D01*
X187221714Y-109878857D01*
X187221714Y-109926476D01*
X187174095Y-110021714D01*
X187126476Y-110069333D01*
X187031238Y-110116952D01*
X186840761Y-110116952D01*
X186745523Y-110164571D01*
X186697904Y-110212190D01*
X186650285Y-110307428D01*
X186650285Y-110497904D01*
X186697904Y-110593142D01*
X186745523Y-110640761D01*
X186840761Y-110688380D01*
X187031238Y-110688380D01*
X187126476Y-110640761D01*
X187174095Y-110593142D01*
X187221714Y-110497904D01*
X187221714Y-110307428D01*
X187174095Y-110212190D01*
X187126476Y-110164571D01*
X187031238Y-110116952D01*
X199367142Y-123100666D02*
X199414761Y-123148285D01*
X199462380Y-123291142D01*
X199462380Y-123386380D01*
X199414761Y-123529238D01*
X199319523Y-123624476D01*
X199224285Y-123672095D01*
X199033809Y-123719714D01*
X198890952Y-123719714D01*
X198700476Y-123672095D01*
X198605238Y-123624476D01*
X198510000Y-123529238D01*
X198462380Y-123386380D01*
X198462380Y-123291142D01*
X198510000Y-123148285D01*
X198557619Y-123100666D01*
X198462380Y-122767333D02*
X198462380Y-122100666D01*
X199462380Y-122529238D01*
X181569333Y-123295142D02*
X181521714Y-123342761D01*
X181378857Y-123390380D01*
X181283619Y-123390380D01*
X181140761Y-123342761D01*
X181045523Y-123247523D01*
X180997904Y-123152285D01*
X180950285Y-122961809D01*
X180950285Y-122818952D01*
X180997904Y-122628476D01*
X181045523Y-122533238D01*
X181140761Y-122438000D01*
X181283619Y-122390380D01*
X181378857Y-122390380D01*
X181521714Y-122438000D01*
X181569333Y-122485619D01*
X182426476Y-122390380D02*
X182236000Y-122390380D01*
X182140761Y-122438000D01*
X182093142Y-122485619D01*
X181997904Y-122628476D01*
X181950285Y-122818952D01*
X181950285Y-123199904D01*
X181997904Y-123295142D01*
X182045523Y-123342761D01*
X182140761Y-123390380D01*
X182331238Y-123390380D01*
X182426476Y-123342761D01*
X182474095Y-123295142D01*
X182521714Y-123199904D01*
X182521714Y-122961809D01*
X182474095Y-122866571D01*
X182426476Y-122818952D01*
X182331238Y-122771333D01*
X182140761Y-122771333D01*
X182045523Y-122818952D01*
X181997904Y-122866571D01*
X181950285Y-122961809D01*
X183205333Y-135358142D02*
X183157714Y-135405761D01*
X183014857Y-135453380D01*
X182919619Y-135453380D01*
X182776761Y-135405761D01*
X182681523Y-135310523D01*
X182633904Y-135215285D01*
X182586285Y-135024809D01*
X182586285Y-134881952D01*
X182633904Y-134691476D01*
X182681523Y-134596238D01*
X182776761Y-134501000D01*
X182919619Y-134453380D01*
X183014857Y-134453380D01*
X183157714Y-134501000D01*
X183205333Y-134548619D01*
X184110095Y-134453380D02*
X183633904Y-134453380D01*
X183586285Y-134929571D01*
X183633904Y-134881952D01*
X183729142Y-134834333D01*
X183967238Y-134834333D01*
X184062476Y-134881952D01*
X184110095Y-134929571D01*
X184157714Y-135024809D01*
X184157714Y-135262904D01*
X184110095Y-135358142D01*
X184062476Y-135405761D01*
X183967238Y-135453380D01*
X183729142Y-135453380D01*
X183633904Y-135405761D01*
X183586285Y-135358142D01*
X182839333Y-108688142D02*
X182791714Y-108735761D01*
X182648857Y-108783380D01*
X182553619Y-108783380D01*
X182410761Y-108735761D01*
X182315523Y-108640523D01*
X182267904Y-108545285D01*
X182220285Y-108354809D01*
X182220285Y-108211952D01*
X182267904Y-108021476D01*
X182315523Y-107926238D01*
X182410761Y-107831000D01*
X182553619Y-107783380D01*
X182648857Y-107783380D01*
X182791714Y-107831000D01*
X182839333Y-107878619D01*
X183696476Y-108116714D02*
X183696476Y-108783380D01*
X183458380Y-107735761D02*
X183220285Y-108450047D01*
X183839333Y-108450047D01*
X191349333Y-78716142D02*
X191301714Y-78763761D01*
X191158857Y-78811380D01*
X191063619Y-78811380D01*
X190920761Y-78763761D01*
X190825523Y-78668523D01*
X190777904Y-78573285D01*
X190730285Y-78382809D01*
X190730285Y-78239952D01*
X190777904Y-78049476D01*
X190825523Y-77954238D01*
X190920761Y-77859000D01*
X191063619Y-77811380D01*
X191158857Y-77811380D01*
X191301714Y-77859000D01*
X191349333Y-77906619D01*
X191682666Y-77811380D02*
X192301714Y-77811380D01*
X191968380Y-78192333D01*
X192111238Y-78192333D01*
X192206476Y-78239952D01*
X192254095Y-78287571D01*
X192301714Y-78382809D01*
X192301714Y-78620904D01*
X192254095Y-78716142D01*
X192206476Y-78763761D01*
X192111238Y-78811380D01*
X191825523Y-78811380D01*
X191730285Y-78763761D01*
X191682666Y-78716142D01*
X184491333Y-62460142D02*
X184443714Y-62507761D01*
X184300857Y-62555380D01*
X184205619Y-62555380D01*
X184062761Y-62507761D01*
X183967523Y-62412523D01*
X183919904Y-62317285D01*
X183872285Y-62126809D01*
X183872285Y-61983952D01*
X183919904Y-61793476D01*
X183967523Y-61698238D01*
X184062761Y-61603000D01*
X184205619Y-61555380D01*
X184300857Y-61555380D01*
X184443714Y-61603000D01*
X184491333Y-61650619D01*
X184872285Y-61650619D02*
X184919904Y-61603000D01*
X185015142Y-61555380D01*
X185253238Y-61555380D01*
X185348476Y-61603000D01*
X185396095Y-61650619D01*
X185443714Y-61745857D01*
X185443714Y-61841095D01*
X185396095Y-61983952D01*
X184824666Y-62555380D01*
X185443714Y-62555380D01*
X179681142Y-83986666D02*
X179728761Y-84034285D01*
X179776380Y-84177142D01*
X179776380Y-84272380D01*
X179728761Y-84415238D01*
X179633523Y-84510476D01*
X179538285Y-84558095D01*
X179347809Y-84605714D01*
X179204952Y-84605714D01*
X179014476Y-84558095D01*
X178919238Y-84510476D01*
X178824000Y-84415238D01*
X178776380Y-84272380D01*
X178776380Y-84177142D01*
X178824000Y-84034285D01*
X178871619Y-83986666D01*
X179776380Y-83034285D02*
X179776380Y-83605714D01*
X179776380Y-83320000D02*
X178776380Y-83320000D01*
X178919238Y-83415238D01*
X179014476Y-83510476D01*
X179062095Y-83605714D01*
M02*
