G04 #@! TF.GenerationSoftware,KiCad,Pcbnew,(5.1.2)-2*
G04 #@! TF.CreationDate,2019-08-12T05:37:20+02:00*
G04 #@! TF.ProjectId,vco_mk1,76636f5f-6d6b-4312-9e6b-696361645f70,rev?*
G04 #@! TF.SameCoordinates,Original*
G04 #@! TF.FileFunction,Legend,Bot*
G04 #@! TF.FilePolarity,Positive*
%FSLAX46Y46*%
G04 Gerber Fmt 4.6, Leading zero omitted, Abs format (unit mm)*
G04 Created by KiCad (PCBNEW (5.1.2)-2) date 2019-08-12 05:37:20*
%MOMM*%
%LPD*%
G04 APERTURE LIST*
%ADD10C,0.160000*%
%ADD11C,0.150000*%
%ADD12C,0.010000*%
G04 APERTURE END LIST*
D10*
X170735047Y-137882380D02*
X170735047Y-138596666D01*
X170782666Y-138739523D01*
X170877904Y-138834761D01*
X171020761Y-138882380D01*
X171116000Y-138882380D01*
X169782666Y-138882380D02*
X170258857Y-138882380D01*
X170258857Y-137882380D01*
X168877904Y-138787142D02*
X168925523Y-138834761D01*
X169068380Y-138882380D01*
X169163619Y-138882380D01*
X169306476Y-138834761D01*
X169401714Y-138739523D01*
X169449333Y-138644285D01*
X169496952Y-138453809D01*
X169496952Y-138310952D01*
X169449333Y-138120476D01*
X169401714Y-138025238D01*
X169306476Y-137930000D01*
X169163619Y-137882380D01*
X169068380Y-137882380D01*
X168925523Y-137930000D01*
X168877904Y-137977619D01*
X168163619Y-137882380D02*
X168163619Y-138596666D01*
X168211238Y-138739523D01*
X168306476Y-138834761D01*
X168449333Y-138882380D01*
X168544571Y-138882380D01*
X167211238Y-138882380D02*
X167687428Y-138882380D01*
X167687428Y-137882380D01*
X166306476Y-138787142D02*
X166354095Y-138834761D01*
X166496952Y-138882380D01*
X166592190Y-138882380D01*
X166735047Y-138834761D01*
X166830285Y-138739523D01*
X166877904Y-138644285D01*
X166925523Y-138453809D01*
X166925523Y-138310952D01*
X166877904Y-138120476D01*
X166830285Y-138025238D01*
X166735047Y-137930000D01*
X166592190Y-137882380D01*
X166496952Y-137882380D01*
X166354095Y-137930000D01*
X166306476Y-137977619D01*
X165592190Y-137882380D02*
X165592190Y-138596666D01*
X165639809Y-138739523D01*
X165735047Y-138834761D01*
X165877904Y-138882380D01*
X165973142Y-138882380D01*
X164639809Y-138882380D02*
X165116000Y-138882380D01*
X165116000Y-137882380D01*
X163735047Y-138787142D02*
X163782666Y-138834761D01*
X163925523Y-138882380D01*
X164020761Y-138882380D01*
X164163619Y-138834761D01*
X164258857Y-138739523D01*
X164306476Y-138644285D01*
X164354095Y-138453809D01*
X164354095Y-138310952D01*
X164306476Y-138120476D01*
X164258857Y-138025238D01*
X164163619Y-137930000D01*
X164020761Y-137882380D01*
X163925523Y-137882380D01*
X163782666Y-137930000D01*
X163735047Y-137977619D01*
X163020761Y-137882380D02*
X163020761Y-138596666D01*
X163068380Y-138739523D01*
X163163619Y-138834761D01*
X163306476Y-138882380D01*
X163401714Y-138882380D01*
X162068380Y-138882380D02*
X162544571Y-138882380D01*
X162544571Y-137882380D01*
X161163619Y-138787142D02*
X161211238Y-138834761D01*
X161354095Y-138882380D01*
X161449333Y-138882380D01*
X161592190Y-138834761D01*
X161687428Y-138739523D01*
X161735047Y-138644285D01*
X161782666Y-138453809D01*
X161782666Y-138310952D01*
X161735047Y-138120476D01*
X161687428Y-138025238D01*
X161592190Y-137930000D01*
X161449333Y-137882380D01*
X161354095Y-137882380D01*
X161211238Y-137930000D01*
X161163619Y-137977619D01*
D11*
X201413452Y-62308666D02*
X201451547Y-62270571D01*
X201527738Y-62156285D01*
X201565833Y-62080095D01*
X201603928Y-61965809D01*
X201642023Y-61775333D01*
X201642023Y-61622952D01*
X201603928Y-61432476D01*
X201565833Y-61318190D01*
X201527738Y-61242000D01*
X201451547Y-61127714D01*
X201413452Y-61089619D01*
X200765833Y-61965809D02*
X200842023Y-62003904D01*
X200994404Y-62003904D01*
X201070595Y-61965809D01*
X201108690Y-61927714D01*
X201146785Y-61851523D01*
X201146785Y-61622952D01*
X201108690Y-61546761D01*
X201070595Y-61508666D01*
X200994404Y-61470571D01*
X200842023Y-61470571D01*
X200765833Y-61508666D01*
X200499166Y-62308666D02*
X200461071Y-62270571D01*
X200384880Y-62156285D01*
X200346785Y-62080095D01*
X200308690Y-61965809D01*
X200270595Y-61775333D01*
X200270595Y-61622952D01*
X200308690Y-61432476D01*
X200346785Y-61318190D01*
X200384880Y-61242000D01*
X200461071Y-61127714D01*
X200499166Y-61089619D01*
X199318214Y-61280095D02*
X199280119Y-61242000D01*
X199203928Y-61203904D01*
X199013452Y-61203904D01*
X198937261Y-61242000D01*
X198899166Y-61280095D01*
X198861071Y-61356285D01*
X198861071Y-61432476D01*
X198899166Y-61546761D01*
X199356309Y-62003904D01*
X198861071Y-62003904D01*
X198365833Y-61203904D02*
X198289642Y-61203904D01*
X198213452Y-61242000D01*
X198175357Y-61280095D01*
X198137261Y-61356285D01*
X198099166Y-61508666D01*
X198099166Y-61699142D01*
X198137261Y-61851523D01*
X198175357Y-61927714D01*
X198213452Y-61965809D01*
X198289642Y-62003904D01*
X198365833Y-62003904D01*
X198442023Y-61965809D01*
X198480119Y-61927714D01*
X198518214Y-61851523D01*
X198556309Y-61699142D01*
X198556309Y-61508666D01*
X198518214Y-61356285D01*
X198480119Y-61280095D01*
X198442023Y-61242000D01*
X198365833Y-61203904D01*
X197337261Y-62003904D02*
X197794404Y-62003904D01*
X197565833Y-62003904D02*
X197565833Y-61203904D01*
X197642023Y-61318190D01*
X197718214Y-61394380D01*
X197794404Y-61432476D01*
X196956309Y-62003904D02*
X196803928Y-62003904D01*
X196727738Y-61965809D01*
X196689642Y-61927714D01*
X196613452Y-61813428D01*
X196575357Y-61661047D01*
X196575357Y-61356285D01*
X196613452Y-61280095D01*
X196651547Y-61242000D01*
X196727738Y-61203904D01*
X196880119Y-61203904D01*
X196956309Y-61242000D01*
X196994404Y-61280095D01*
X197032500Y-61356285D01*
X197032500Y-61546761D01*
X196994404Y-61622952D01*
X196956309Y-61661047D01*
X196880119Y-61699142D01*
X196727738Y-61699142D01*
X196651547Y-61661047D01*
X196613452Y-61622952D01*
X196575357Y-61546761D01*
X195356309Y-61584857D02*
X195622976Y-61584857D01*
X195622976Y-62003904D02*
X195622976Y-61203904D01*
X195242023Y-61203904D01*
X194822976Y-62003904D02*
X194899166Y-61965809D01*
X194937261Y-61889619D01*
X194937261Y-61203904D01*
X194403928Y-62003904D02*
X194480119Y-61965809D01*
X194518214Y-61927714D01*
X194556309Y-61851523D01*
X194556309Y-61622952D01*
X194518214Y-61546761D01*
X194480119Y-61508666D01*
X194403928Y-61470571D01*
X194289642Y-61470571D01*
X194213452Y-61508666D01*
X194175357Y-61546761D01*
X194137261Y-61622952D01*
X194137261Y-61851523D01*
X194175357Y-61927714D01*
X194213452Y-61965809D01*
X194289642Y-62003904D01*
X194403928Y-62003904D01*
X193794404Y-62003904D02*
X193794404Y-61470571D01*
X193794404Y-61622952D02*
X193756309Y-61546761D01*
X193718214Y-61508666D01*
X193642023Y-61470571D01*
X193565833Y-61470571D01*
X193299166Y-62003904D02*
X193299166Y-61470571D01*
X193299166Y-61203904D02*
X193337261Y-61242000D01*
X193299166Y-61280095D01*
X193261071Y-61242000D01*
X193299166Y-61203904D01*
X193299166Y-61280095D01*
X192575357Y-62003904D02*
X192575357Y-61584857D01*
X192613452Y-61508666D01*
X192689642Y-61470571D01*
X192842023Y-61470571D01*
X192918214Y-61508666D01*
X192575357Y-61965809D02*
X192651547Y-62003904D01*
X192842023Y-62003904D01*
X192918214Y-61965809D01*
X192956309Y-61889619D01*
X192956309Y-61813428D01*
X192918214Y-61737238D01*
X192842023Y-61699142D01*
X192651547Y-61699142D01*
X192575357Y-61661047D01*
X192194404Y-61470571D02*
X192194404Y-62003904D01*
X192194404Y-61546761D02*
X192156309Y-61508666D01*
X192080119Y-61470571D01*
X191965833Y-61470571D01*
X191889642Y-61508666D01*
X191851547Y-61584857D01*
X191851547Y-62003904D01*
X190632500Y-61203904D02*
X190632500Y-61775333D01*
X190670595Y-61889619D01*
X190746785Y-61965809D01*
X190861071Y-62003904D01*
X190937261Y-62003904D01*
X189908690Y-61470571D02*
X189908690Y-62003904D01*
X190251547Y-61470571D02*
X190251547Y-61889619D01*
X190213452Y-61965809D01*
X190137261Y-62003904D01*
X190022976Y-62003904D01*
X189946785Y-61965809D01*
X189908690Y-61927714D01*
X189527738Y-61470571D02*
X189527738Y-62003904D01*
X189527738Y-61546761D02*
X189489642Y-61508666D01*
X189413452Y-61470571D01*
X189299166Y-61470571D01*
X189222976Y-61508666D01*
X189184880Y-61584857D01*
X189184880Y-62003904D01*
X188461071Y-61470571D02*
X188461071Y-62118190D01*
X188499166Y-62194380D01*
X188537261Y-62232476D01*
X188613452Y-62270571D01*
X188727738Y-62270571D01*
X188803928Y-62232476D01*
X188461071Y-61965809D02*
X188537261Y-62003904D01*
X188689642Y-62003904D01*
X188765833Y-61965809D01*
X188803928Y-61927714D01*
X188842023Y-61851523D01*
X188842023Y-61622952D01*
X188803928Y-61546761D01*
X188765833Y-61508666D01*
X188689642Y-61470571D01*
X188537261Y-61470571D01*
X188461071Y-61508666D01*
X188042023Y-61965809D02*
X188042023Y-62003904D01*
X188080119Y-62080095D01*
X188118214Y-62118190D01*
X199318214Y-62553904D02*
X198861071Y-62553904D01*
X199089642Y-63353904D02*
X199089642Y-62553904D01*
X198594404Y-63353904D02*
X198594404Y-62820571D01*
X198594404Y-62553904D02*
X198632500Y-62592000D01*
X198594404Y-62630095D01*
X198556309Y-62592000D01*
X198594404Y-62553904D01*
X198594404Y-62630095D01*
X198213452Y-63353904D02*
X198213452Y-62820571D01*
X198213452Y-62896761D02*
X198175357Y-62858666D01*
X198099166Y-62820571D01*
X197984880Y-62820571D01*
X197908690Y-62858666D01*
X197870595Y-62934857D01*
X197870595Y-63353904D01*
X197870595Y-62934857D02*
X197832500Y-62858666D01*
X197756309Y-62820571D01*
X197642023Y-62820571D01*
X197565833Y-62858666D01*
X197527738Y-62934857D01*
X197527738Y-63353904D01*
X197146785Y-63353904D02*
X197146785Y-62820571D01*
X197146785Y-62896761D02*
X197108690Y-62858666D01*
X197032500Y-62820571D01*
X196918214Y-62820571D01*
X196842023Y-62858666D01*
X196803928Y-62934857D01*
X196803928Y-63353904D01*
X196803928Y-62934857D02*
X196765833Y-62858666D01*
X196689642Y-62820571D01*
X196575357Y-62820571D01*
X196499166Y-62858666D01*
X196461071Y-62934857D01*
X196461071Y-63353904D01*
X195546785Y-62553904D02*
X195356309Y-63353904D01*
X195203928Y-62782476D01*
X195051547Y-63353904D01*
X194861071Y-62553904D01*
X194251547Y-63315809D02*
X194327738Y-63353904D01*
X194480119Y-63353904D01*
X194556309Y-63315809D01*
X194594404Y-63239619D01*
X194594404Y-62934857D01*
X194556309Y-62858666D01*
X194480119Y-62820571D01*
X194327738Y-62820571D01*
X194251547Y-62858666D01*
X194213452Y-62934857D01*
X194213452Y-63011047D01*
X194594404Y-63087238D01*
X193870595Y-63353904D02*
X193870595Y-62553904D01*
X193870595Y-62858666D02*
X193794404Y-62820571D01*
X193642023Y-62820571D01*
X193565833Y-62858666D01*
X193527738Y-62896761D01*
X193489642Y-62972952D01*
X193489642Y-63201523D01*
X193527738Y-63277714D01*
X193565833Y-63315809D01*
X193642023Y-63353904D01*
X193794404Y-63353904D01*
X193870595Y-63315809D01*
X192842023Y-63315809D02*
X192918214Y-63353904D01*
X193070595Y-63353904D01*
X193146785Y-63315809D01*
X193184880Y-63239619D01*
X193184880Y-62934857D01*
X193146785Y-62858666D01*
X193070595Y-62820571D01*
X192918214Y-62820571D01*
X192842023Y-62858666D01*
X192803928Y-62934857D01*
X192803928Y-63011047D01*
X193184880Y-63087238D01*
X192461071Y-63353904D02*
X192461071Y-62820571D01*
X192461071Y-62972952D02*
X192422976Y-62896761D01*
X192384880Y-62858666D01*
X192308690Y-62820571D01*
X192232500Y-62820571D01*
X191127738Y-63658666D02*
X191165833Y-63620571D01*
X191242023Y-63506285D01*
X191280119Y-63430095D01*
X191318214Y-63315809D01*
X191356309Y-63125333D01*
X191356309Y-62972952D01*
X191318214Y-62782476D01*
X191280119Y-62668190D01*
X191242023Y-62592000D01*
X191165833Y-62477714D01*
X191127738Y-62439619D01*
X190442023Y-63353904D02*
X190822976Y-63353904D01*
X190822976Y-62553904D01*
X189832500Y-63353904D02*
X189832500Y-62934857D01*
X189870595Y-62858666D01*
X189946785Y-62820571D01*
X190099166Y-62820571D01*
X190175357Y-62858666D01*
X189832500Y-63315809D02*
X189908690Y-63353904D01*
X190099166Y-63353904D01*
X190175357Y-63315809D01*
X190213452Y-63239619D01*
X190213452Y-63163428D01*
X190175357Y-63087238D01*
X190099166Y-63049142D01*
X189908690Y-63049142D01*
X189832500Y-63011047D01*
X189527738Y-62820571D02*
X189337261Y-63353904D01*
X189146785Y-62820571D02*
X189337261Y-63353904D01*
X189413452Y-63544380D01*
X189451547Y-63582476D01*
X189527738Y-63620571D01*
X188727738Y-63353904D02*
X188803928Y-63315809D01*
X188842023Y-63277714D01*
X188880119Y-63201523D01*
X188880119Y-62972952D01*
X188842023Y-62896761D01*
X188803928Y-62858666D01*
X188727738Y-62820571D01*
X188613452Y-62820571D01*
X188537261Y-62858666D01*
X188499166Y-62896761D01*
X188461071Y-62972952D01*
X188461071Y-63201523D01*
X188499166Y-63277714D01*
X188537261Y-63315809D01*
X188613452Y-63353904D01*
X188727738Y-63353904D01*
X187775357Y-62820571D02*
X187775357Y-63353904D01*
X188118214Y-62820571D02*
X188118214Y-63239619D01*
X188080119Y-63315809D01*
X188003928Y-63353904D01*
X187889642Y-63353904D01*
X187813452Y-63315809D01*
X187775357Y-63277714D01*
X187508690Y-62820571D02*
X187203928Y-62820571D01*
X187394404Y-62553904D02*
X187394404Y-63239619D01*
X187356309Y-63315809D01*
X187280119Y-63353904D01*
X187203928Y-63353904D01*
X187013452Y-63658666D02*
X186975357Y-63620571D01*
X186899166Y-63506285D01*
X186861071Y-63430095D01*
X186822976Y-63315809D01*
X186784880Y-63125333D01*
X186784880Y-62972952D01*
X186822976Y-62782476D01*
X186861071Y-62668190D01*
X186899166Y-62592000D01*
X186975357Y-62477714D01*
X187013452Y-62439619D01*
X201299166Y-64170571D02*
X201299166Y-64818190D01*
X201337261Y-64894380D01*
X201375357Y-64932476D01*
X201451547Y-64970571D01*
X201565833Y-64970571D01*
X201642023Y-64932476D01*
X201299166Y-64665809D02*
X201375357Y-64703904D01*
X201527738Y-64703904D01*
X201603928Y-64665809D01*
X201642023Y-64627714D01*
X201680119Y-64551523D01*
X201680119Y-64322952D01*
X201642023Y-64246761D01*
X201603928Y-64208666D01*
X201527738Y-64170571D01*
X201375357Y-64170571D01*
X201299166Y-64208666D01*
X200918214Y-64703904D02*
X200918214Y-64170571D01*
X200918214Y-63903904D02*
X200956309Y-63942000D01*
X200918214Y-63980095D01*
X200880119Y-63942000D01*
X200918214Y-63903904D01*
X200918214Y-63980095D01*
X200651547Y-64170571D02*
X200346785Y-64170571D01*
X200537261Y-63903904D02*
X200537261Y-64589619D01*
X200499166Y-64665809D01*
X200422976Y-64703904D01*
X200346785Y-64703904D01*
X200080119Y-64703904D02*
X200080119Y-63903904D01*
X199737261Y-64703904D02*
X199737261Y-64284857D01*
X199775357Y-64208666D01*
X199851547Y-64170571D01*
X199965833Y-64170571D01*
X200042023Y-64208666D01*
X200080119Y-64246761D01*
X199013452Y-64170571D02*
X199013452Y-64703904D01*
X199356309Y-64170571D02*
X199356309Y-64589619D01*
X199318214Y-64665809D01*
X199242023Y-64703904D01*
X199127738Y-64703904D01*
X199051547Y-64665809D01*
X199013452Y-64627714D01*
X198632500Y-64703904D02*
X198632500Y-63903904D01*
X198632500Y-64208666D02*
X198556309Y-64170571D01*
X198403928Y-64170571D01*
X198327738Y-64208666D01*
X198289642Y-64246761D01*
X198251547Y-64322952D01*
X198251547Y-64551523D01*
X198289642Y-64627714D01*
X198327738Y-64665809D01*
X198403928Y-64703904D01*
X198556309Y-64703904D01*
X198632500Y-64665809D01*
X197908690Y-64627714D02*
X197870595Y-64665809D01*
X197908690Y-64703904D01*
X197946785Y-64665809D01*
X197908690Y-64627714D01*
X197908690Y-64703904D01*
X197184880Y-64665809D02*
X197261071Y-64703904D01*
X197413452Y-64703904D01*
X197489642Y-64665809D01*
X197527738Y-64627714D01*
X197565833Y-64551523D01*
X197565833Y-64322952D01*
X197527738Y-64246761D01*
X197489642Y-64208666D01*
X197413452Y-64170571D01*
X197261071Y-64170571D01*
X197184880Y-64208666D01*
X196727738Y-64703904D02*
X196803928Y-64665809D01*
X196842023Y-64627714D01*
X196880119Y-64551523D01*
X196880119Y-64322952D01*
X196842023Y-64246761D01*
X196803928Y-64208666D01*
X196727738Y-64170571D01*
X196613452Y-64170571D01*
X196537261Y-64208666D01*
X196499166Y-64246761D01*
X196461071Y-64322952D01*
X196461071Y-64551523D01*
X196499166Y-64627714D01*
X196537261Y-64665809D01*
X196613452Y-64703904D01*
X196727738Y-64703904D01*
X196118214Y-64703904D02*
X196118214Y-64170571D01*
X196118214Y-64246761D02*
X196080119Y-64208666D01*
X196003928Y-64170571D01*
X195889642Y-64170571D01*
X195813452Y-64208666D01*
X195775357Y-64284857D01*
X195775357Y-64703904D01*
X195775357Y-64284857D02*
X195737261Y-64208666D01*
X195661071Y-64170571D01*
X195546785Y-64170571D01*
X195470595Y-64208666D01*
X195432500Y-64284857D01*
X195432500Y-64703904D01*
X194480119Y-63865809D02*
X195165833Y-64894380D01*
X194289642Y-64170571D02*
X194137261Y-64703904D01*
X193984880Y-64322952D01*
X193832500Y-64703904D01*
X193680119Y-64170571D01*
X193375357Y-64703904D02*
X193375357Y-64170571D01*
X193375357Y-63903904D02*
X193413452Y-63942000D01*
X193375357Y-63980095D01*
X193337261Y-63942000D01*
X193375357Y-63903904D01*
X193375357Y-63980095D01*
X192994404Y-64170571D02*
X192994404Y-64703904D01*
X192994404Y-64246761D02*
X192956309Y-64208666D01*
X192880119Y-64170571D01*
X192765833Y-64170571D01*
X192689642Y-64208666D01*
X192651547Y-64284857D01*
X192651547Y-64703904D01*
X191927738Y-64703904D02*
X191927738Y-63903904D01*
X191927738Y-64665809D02*
X192003928Y-64703904D01*
X192156309Y-64703904D01*
X192232500Y-64665809D01*
X192270595Y-64627714D01*
X192308690Y-64551523D01*
X192308690Y-64322952D01*
X192270595Y-64246761D01*
X192232500Y-64208666D01*
X192156309Y-64170571D01*
X192003928Y-64170571D01*
X191927738Y-64208666D01*
X191661071Y-64170571D02*
X191356309Y-64170571D01*
X191546785Y-64703904D02*
X191546785Y-64018190D01*
X191508690Y-63942000D01*
X191432500Y-63903904D01*
X191356309Y-63903904D01*
X191089642Y-64703904D02*
X191089642Y-64170571D01*
X191089642Y-63903904D02*
X191127738Y-63942000D01*
X191089642Y-63980095D01*
X191051547Y-63942000D01*
X191089642Y-63903904D01*
X191089642Y-63980095D01*
X190746785Y-64665809D02*
X190670595Y-64703904D01*
X190518214Y-64703904D01*
X190442023Y-64665809D01*
X190403928Y-64589619D01*
X190403928Y-64551523D01*
X190442023Y-64475333D01*
X190518214Y-64437238D01*
X190632500Y-64437238D01*
X190708690Y-64399142D01*
X190746785Y-64322952D01*
X190746785Y-64284857D01*
X190708690Y-64208666D01*
X190632500Y-64170571D01*
X190518214Y-64170571D01*
X190442023Y-64208666D01*
X189718214Y-64665809D02*
X189794404Y-64703904D01*
X189946785Y-64703904D01*
X190022976Y-64665809D01*
X190061071Y-64627714D01*
X190099166Y-64551523D01*
X190099166Y-64322952D01*
X190061071Y-64246761D01*
X190022976Y-64208666D01*
X189946785Y-64170571D01*
X189794404Y-64170571D01*
X189718214Y-64208666D01*
X189375357Y-64703904D02*
X189375357Y-63903904D01*
X189032500Y-64703904D02*
X189032500Y-64284857D01*
X189070595Y-64208666D01*
X189146785Y-64170571D01*
X189261071Y-64170571D01*
X189337261Y-64208666D01*
X189375357Y-64246761D01*
X188080119Y-63865809D02*
X188765833Y-64894380D01*
X187470595Y-64703904D02*
X187470595Y-64284857D01*
X187508690Y-64208666D01*
X187584880Y-64170571D01*
X187737261Y-64170571D01*
X187813452Y-64208666D01*
X187470595Y-64665809D02*
X187546785Y-64703904D01*
X187737261Y-64703904D01*
X187813452Y-64665809D01*
X187851547Y-64589619D01*
X187851547Y-64513428D01*
X187813452Y-64437238D01*
X187737261Y-64399142D01*
X187546785Y-64399142D01*
X187470595Y-64361047D01*
X187089642Y-64170571D02*
X187089642Y-64703904D01*
X187089642Y-64246761D02*
X187051547Y-64208666D01*
X186975357Y-64170571D01*
X186861071Y-64170571D01*
X186784880Y-64208666D01*
X186746785Y-64284857D01*
X186746785Y-64703904D01*
X186022976Y-64703904D02*
X186022976Y-64284857D01*
X186061071Y-64208666D01*
X186137261Y-64170571D01*
X186289642Y-64170571D01*
X186365833Y-64208666D01*
X186022976Y-64665809D02*
X186099166Y-64703904D01*
X186289642Y-64703904D01*
X186365833Y-64665809D01*
X186403928Y-64589619D01*
X186403928Y-64513428D01*
X186365833Y-64437238D01*
X186289642Y-64399142D01*
X186099166Y-64399142D01*
X186022976Y-64361047D01*
X185527738Y-64703904D02*
X185603928Y-64665809D01*
X185642023Y-64589619D01*
X185642023Y-63903904D01*
X185108690Y-64703904D02*
X185184880Y-64665809D01*
X185222976Y-64627714D01*
X185261071Y-64551523D01*
X185261071Y-64322952D01*
X185222976Y-64246761D01*
X185184880Y-64208666D01*
X185108690Y-64170571D01*
X184994404Y-64170571D01*
X184918214Y-64208666D01*
X184880119Y-64246761D01*
X184842023Y-64322952D01*
X184842023Y-64551523D01*
X184880119Y-64627714D01*
X184918214Y-64665809D01*
X184994404Y-64703904D01*
X185108690Y-64703904D01*
X184156309Y-64170571D02*
X184156309Y-64818190D01*
X184194404Y-64894380D01*
X184232500Y-64932476D01*
X184308690Y-64970571D01*
X184422976Y-64970571D01*
X184499166Y-64932476D01*
X184156309Y-64665809D02*
X184232500Y-64703904D01*
X184384880Y-64703904D01*
X184461071Y-64665809D01*
X184499166Y-64627714D01*
X184537261Y-64551523D01*
X184537261Y-64322952D01*
X184499166Y-64246761D01*
X184461071Y-64208666D01*
X184384880Y-64170571D01*
X184232500Y-64170571D01*
X184156309Y-64208666D01*
X183775357Y-64399142D02*
X183165833Y-64399142D01*
X182822976Y-64665809D02*
X182746785Y-64703904D01*
X182594404Y-64703904D01*
X182518214Y-64665809D01*
X182480119Y-64589619D01*
X182480119Y-64551523D01*
X182518214Y-64475333D01*
X182594404Y-64437238D01*
X182708690Y-64437238D01*
X182784880Y-64399142D01*
X182822976Y-64322952D01*
X182822976Y-64284857D01*
X182784880Y-64208666D01*
X182708690Y-64170571D01*
X182594404Y-64170571D01*
X182518214Y-64208666D01*
X182213452Y-64170571D02*
X182022976Y-64703904D01*
X181832500Y-64170571D02*
X182022976Y-64703904D01*
X182099166Y-64894380D01*
X182137261Y-64932476D01*
X182213452Y-64970571D01*
X181527738Y-64170571D02*
X181527738Y-64703904D01*
X181527738Y-64246761D02*
X181489642Y-64208666D01*
X181413452Y-64170571D01*
X181299166Y-64170571D01*
X181222976Y-64208666D01*
X181184880Y-64284857D01*
X181184880Y-64703904D01*
X180918214Y-64170571D02*
X180613452Y-64170571D01*
X180803928Y-63903904D02*
X180803928Y-64589619D01*
X180765833Y-64665809D01*
X180689642Y-64703904D01*
X180613452Y-64703904D01*
X180346785Y-64703904D02*
X180346785Y-63903904D01*
X180003928Y-64703904D02*
X180003928Y-64284857D01*
X180042023Y-64208666D01*
X180118214Y-64170571D01*
X180232500Y-64170571D01*
X180308690Y-64208666D01*
X180346785Y-64246761D01*
D12*
G36*
X161525045Y-69017865D02*
G01*
X169220866Y-69017865D01*
X169220866Y-61511597D01*
X169031314Y-61511597D01*
X169031314Y-68828313D01*
X161714597Y-68828313D01*
X161714597Y-61511597D01*
X169031314Y-61511597D01*
X169220866Y-61511597D01*
X169220866Y-61322044D01*
X161525045Y-61322044D01*
X161525045Y-69017865D01*
X161525045Y-69017865D01*
G37*
X161525045Y-69017865D02*
X169220866Y-69017865D01*
X169220866Y-61511597D01*
X169031314Y-61511597D01*
X169031314Y-68828313D01*
X161714597Y-68828313D01*
X161714597Y-61511597D01*
X169031314Y-61511597D01*
X169220866Y-61511597D01*
X169220866Y-61322044D01*
X161525045Y-61322044D01*
X161525045Y-69017865D01*
G36*
X162863915Y-65709320D02*
G01*
X162849037Y-65761544D01*
X162862412Y-65779331D01*
X162918716Y-65812012D01*
X163028353Y-65862608D01*
X163173161Y-65923783D01*
X163334981Y-65988204D01*
X163495651Y-66048535D01*
X163637011Y-66097441D01*
X163692998Y-66114800D01*
X163819050Y-66157017D01*
X163997412Y-66223940D01*
X164211442Y-66308744D01*
X164444494Y-66404606D01*
X164679926Y-66504699D01*
X164901095Y-66602200D01*
X165059323Y-66675046D01*
X165197406Y-66738538D01*
X165366392Y-66813597D01*
X165552654Y-66894487D01*
X165742569Y-66975467D01*
X165922513Y-67050798D01*
X166078861Y-67114742D01*
X166197989Y-67161561D01*
X166266273Y-67185514D01*
X166275756Y-67187435D01*
X166317962Y-67203703D01*
X166415719Y-67248684D01*
X166557034Y-67316641D01*
X166729917Y-67401835D01*
X166857529Y-67465750D01*
X167074568Y-67572906D01*
X167297101Y-67678937D01*
X167503713Y-67773887D01*
X167672993Y-67847802D01*
X167725292Y-67869183D01*
X167875151Y-67930186D01*
X167966506Y-67974095D01*
X168011892Y-68010311D01*
X168023847Y-68048235D01*
X168017266Y-68088127D01*
X167991258Y-68199759D01*
X167972026Y-68290411D01*
X167943929Y-68378057D01*
X167892079Y-68437433D01*
X167802799Y-68474882D01*
X167662411Y-68496748D01*
X167504464Y-68507266D01*
X167169933Y-68523260D01*
X167109905Y-68407180D01*
X167071170Y-68292508D01*
X167085983Y-68196134D01*
X167116424Y-68140336D01*
X167167992Y-68109575D01*
X167262565Y-68094419D01*
X167332709Y-68089750D01*
X167473971Y-68074086D01*
X167540758Y-68050382D01*
X167533123Y-68024534D01*
X167451120Y-68002437D01*
X167331812Y-67991414D01*
X167193179Y-67989642D01*
X167106638Y-68004160D01*
X167049342Y-68039734D01*
X167036386Y-68053055D01*
X166964501Y-68184888D01*
X166952169Y-68339479D01*
X167000951Y-68490741D01*
X167009341Y-68504823D01*
X167086417Y-68628032D01*
X167418691Y-68624613D01*
X167586598Y-68618983D01*
X167739901Y-68607031D01*
X167851944Y-68591029D01*
X167873298Y-68585845D01*
X167955389Y-68553510D01*
X168012995Y-68502027D01*
X168056372Y-68414944D01*
X168095776Y-68275808D01*
X168112770Y-68201679D01*
X168135520Y-68061817D01*
X168124328Y-67960996D01*
X168069111Y-67884963D01*
X167959781Y-67819466D01*
X167795794Y-67753723D01*
X167665159Y-67701211D01*
X167491648Y-67624770D01*
X167299675Y-67535422D01*
X167144397Y-67459652D01*
X166898452Y-67336856D01*
X166709739Y-67243309D01*
X166567792Y-67174112D01*
X166462148Y-67124368D01*
X166382341Y-67089178D01*
X166317907Y-67063646D01*
X166258382Y-67042872D01*
X166243542Y-67038011D01*
X166159710Y-67006712D01*
X166022507Y-66950921D01*
X165847712Y-66877245D01*
X165651104Y-66792288D01*
X165542198Y-66744392D01*
X165221075Y-66602472D01*
X164958638Y-66487103D01*
X164744378Y-66393841D01*
X164567785Y-66318243D01*
X164418348Y-66255865D01*
X164285557Y-66202264D01*
X164158903Y-66152996D01*
X164027876Y-66103619D01*
X164016785Y-66099492D01*
X163812134Y-66022688D01*
X163577246Y-65933456D01*
X163352435Y-65847144D01*
X163279035Y-65818690D01*
X163079022Y-65745947D01*
X162942506Y-65707898D01*
X162871030Y-65704952D01*
X162863915Y-65709320D01*
X162863915Y-65709320D01*
G37*
X162863915Y-65709320D02*
X162849037Y-65761544D01*
X162862412Y-65779331D01*
X162918716Y-65812012D01*
X163028353Y-65862608D01*
X163173161Y-65923783D01*
X163334981Y-65988204D01*
X163495651Y-66048535D01*
X163637011Y-66097441D01*
X163692998Y-66114800D01*
X163819050Y-66157017D01*
X163997412Y-66223940D01*
X164211442Y-66308744D01*
X164444494Y-66404606D01*
X164679926Y-66504699D01*
X164901095Y-66602200D01*
X165059323Y-66675046D01*
X165197406Y-66738538D01*
X165366392Y-66813597D01*
X165552654Y-66894487D01*
X165742569Y-66975467D01*
X165922513Y-67050798D01*
X166078861Y-67114742D01*
X166197989Y-67161561D01*
X166266273Y-67185514D01*
X166275756Y-67187435D01*
X166317962Y-67203703D01*
X166415719Y-67248684D01*
X166557034Y-67316641D01*
X166729917Y-67401835D01*
X166857529Y-67465750D01*
X167074568Y-67572906D01*
X167297101Y-67678937D01*
X167503713Y-67773887D01*
X167672993Y-67847802D01*
X167725292Y-67869183D01*
X167875151Y-67930186D01*
X167966506Y-67974095D01*
X168011892Y-68010311D01*
X168023847Y-68048235D01*
X168017266Y-68088127D01*
X167991258Y-68199759D01*
X167972026Y-68290411D01*
X167943929Y-68378057D01*
X167892079Y-68437433D01*
X167802799Y-68474882D01*
X167662411Y-68496748D01*
X167504464Y-68507266D01*
X167169933Y-68523260D01*
X167109905Y-68407180D01*
X167071170Y-68292508D01*
X167085983Y-68196134D01*
X167116424Y-68140336D01*
X167167992Y-68109575D01*
X167262565Y-68094419D01*
X167332709Y-68089750D01*
X167473971Y-68074086D01*
X167540758Y-68050382D01*
X167533123Y-68024534D01*
X167451120Y-68002437D01*
X167331812Y-67991414D01*
X167193179Y-67989642D01*
X167106638Y-68004160D01*
X167049342Y-68039734D01*
X167036386Y-68053055D01*
X166964501Y-68184888D01*
X166952169Y-68339479D01*
X167000951Y-68490741D01*
X167009341Y-68504823D01*
X167086417Y-68628032D01*
X167418691Y-68624613D01*
X167586598Y-68618983D01*
X167739901Y-68607031D01*
X167851944Y-68591029D01*
X167873298Y-68585845D01*
X167955389Y-68553510D01*
X168012995Y-68502027D01*
X168056372Y-68414944D01*
X168095776Y-68275808D01*
X168112770Y-68201679D01*
X168135520Y-68061817D01*
X168124328Y-67960996D01*
X168069111Y-67884963D01*
X167959781Y-67819466D01*
X167795794Y-67753723D01*
X167665159Y-67701211D01*
X167491648Y-67624770D01*
X167299675Y-67535422D01*
X167144397Y-67459652D01*
X166898452Y-67336856D01*
X166709739Y-67243309D01*
X166567792Y-67174112D01*
X166462148Y-67124368D01*
X166382341Y-67089178D01*
X166317907Y-67063646D01*
X166258382Y-67042872D01*
X166243542Y-67038011D01*
X166159710Y-67006712D01*
X166022507Y-66950921D01*
X165847712Y-66877245D01*
X165651104Y-66792288D01*
X165542198Y-66744392D01*
X165221075Y-66602472D01*
X164958638Y-66487103D01*
X164744378Y-66393841D01*
X164567785Y-66318243D01*
X164418348Y-66255865D01*
X164285557Y-66202264D01*
X164158903Y-66152996D01*
X164027876Y-66103619D01*
X164016785Y-66099492D01*
X163812134Y-66022688D01*
X163577246Y-65933456D01*
X163352435Y-65847144D01*
X163279035Y-65818690D01*
X163079022Y-65745947D01*
X162942506Y-65707898D01*
X162871030Y-65704952D01*
X162863915Y-65709320D01*
G36*
X165988701Y-65927701D02*
G01*
X165975472Y-65933883D01*
X165950804Y-65979309D01*
X165955002Y-65991722D01*
X165997931Y-66004272D01*
X166099951Y-66023951D01*
X166244995Y-66047889D01*
X166388445Y-66069203D01*
X166686659Y-66118367D01*
X166997024Y-66181760D01*
X167305741Y-66255524D01*
X167599010Y-66335798D01*
X167863029Y-66418722D01*
X168083999Y-66500434D01*
X168248119Y-66577076D01*
X168286900Y-66600239D01*
X168390505Y-66701478D01*
X168487719Y-66858131D01*
X168566864Y-67049979D01*
X168588228Y-67122050D01*
X168626820Y-67274734D01*
X168637327Y-67369776D01*
X168610984Y-67422853D01*
X168539027Y-67449640D01*
X168412689Y-67465815D01*
X168395006Y-67467629D01*
X168221636Y-67477473D01*
X168103692Y-67459244D01*
X168023475Y-67404916D01*
X167963289Y-67306464D01*
X167945075Y-67263595D01*
X167902261Y-67153732D01*
X167892128Y-67097278D01*
X167921123Y-67076501D01*
X167995688Y-67073674D01*
X168014100Y-67073704D01*
X168122979Y-67058715D01*
X168178225Y-67018780D01*
X168172597Y-66967443D01*
X168127216Y-66953658D01*
X168032869Y-66952747D01*
X167971329Y-66957966D01*
X167858589Y-66976296D01*
X167801063Y-67005281D01*
X167778149Y-67056651D01*
X167776118Y-67069127D01*
X167784387Y-67182876D01*
X167826491Y-67320247D01*
X167889585Y-67449711D01*
X167960824Y-67539739D01*
X167971067Y-67547648D01*
X168047524Y-67581223D01*
X168161494Y-67595768D01*
X168325108Y-67591755D01*
X168547084Y-67570061D01*
X168660209Y-67552908D01*
X168718539Y-67527088D01*
X168742911Y-67478598D01*
X168749781Y-67433853D01*
X168744753Y-67249550D01*
X168698399Y-67039551D01*
X168620238Y-66830081D01*
X168519786Y-66647368D01*
X168422172Y-66531039D01*
X168336528Y-66476340D01*
X168191178Y-66408424D01*
X167999942Y-66332592D01*
X167776640Y-66254146D01*
X167535090Y-66178388D01*
X167409770Y-66142618D01*
X167228548Y-66097514D01*
X167021271Y-66053680D01*
X166801480Y-66013088D01*
X166582714Y-65977706D01*
X166378514Y-65949506D01*
X166202418Y-65930459D01*
X166067967Y-65922533D01*
X165988701Y-65927701D01*
X165988701Y-65927701D01*
G37*
X165988701Y-65927701D02*
X165975472Y-65933883D01*
X165950804Y-65979309D01*
X165955002Y-65991722D01*
X165997931Y-66004272D01*
X166099951Y-66023951D01*
X166244995Y-66047889D01*
X166388445Y-66069203D01*
X166686659Y-66118367D01*
X166997024Y-66181760D01*
X167305741Y-66255524D01*
X167599010Y-66335798D01*
X167863029Y-66418722D01*
X168083999Y-66500434D01*
X168248119Y-66577076D01*
X168286900Y-66600239D01*
X168390505Y-66701478D01*
X168487719Y-66858131D01*
X168566864Y-67049979D01*
X168588228Y-67122050D01*
X168626820Y-67274734D01*
X168637327Y-67369776D01*
X168610984Y-67422853D01*
X168539027Y-67449640D01*
X168412689Y-67465815D01*
X168395006Y-67467629D01*
X168221636Y-67477473D01*
X168103692Y-67459244D01*
X168023475Y-67404916D01*
X167963289Y-67306464D01*
X167945075Y-67263595D01*
X167902261Y-67153732D01*
X167892128Y-67097278D01*
X167921123Y-67076501D01*
X167995688Y-67073674D01*
X168014100Y-67073704D01*
X168122979Y-67058715D01*
X168178225Y-67018780D01*
X168172597Y-66967443D01*
X168127216Y-66953658D01*
X168032869Y-66952747D01*
X167971329Y-66957966D01*
X167858589Y-66976296D01*
X167801063Y-67005281D01*
X167778149Y-67056651D01*
X167776118Y-67069127D01*
X167784387Y-67182876D01*
X167826491Y-67320247D01*
X167889585Y-67449711D01*
X167960824Y-67539739D01*
X167971067Y-67547648D01*
X168047524Y-67581223D01*
X168161494Y-67595768D01*
X168325108Y-67591755D01*
X168547084Y-67570061D01*
X168660209Y-67552908D01*
X168718539Y-67527088D01*
X168742911Y-67478598D01*
X168749781Y-67433853D01*
X168744753Y-67249550D01*
X168698399Y-67039551D01*
X168620238Y-66830081D01*
X168519786Y-66647368D01*
X168422172Y-66531039D01*
X168336528Y-66476340D01*
X168191178Y-66408424D01*
X167999942Y-66332592D01*
X167776640Y-66254146D01*
X167535090Y-66178388D01*
X167409770Y-66142618D01*
X167228548Y-66097514D01*
X167021271Y-66053680D01*
X166801480Y-66013088D01*
X166582714Y-65977706D01*
X166378514Y-65949506D01*
X166202418Y-65930459D01*
X166067967Y-65922533D01*
X165988701Y-65927701D01*
G36*
X166544415Y-65054242D02*
G01*
X166501815Y-65068906D01*
X166482625Y-65107052D01*
X166518509Y-65139781D01*
X166615361Y-65169267D01*
X166779075Y-65197686D01*
X166891265Y-65212599D01*
X167064438Y-65239446D01*
X167276794Y-65280487D01*
X167511322Y-65331566D01*
X167751016Y-65388527D01*
X167978865Y-65447218D01*
X168177861Y-65503481D01*
X168330997Y-65553162D01*
X168400961Y-65581401D01*
X168506438Y-65664767D01*
X168551479Y-65776002D01*
X168528970Y-65896604D01*
X168525086Y-65904164D01*
X168493207Y-65948196D01*
X168444664Y-65969046D01*
X168358332Y-65971317D01*
X168253479Y-65963365D01*
X168089922Y-65936465D01*
X167994224Y-65889896D01*
X167960259Y-65820574D01*
X167960052Y-65815699D01*
X167992108Y-65792242D01*
X168055427Y-65777789D01*
X168134004Y-65755635D01*
X168145993Y-65725661D01*
X168098004Y-65699821D01*
X168006860Y-65689972D01*
X167864696Y-65689972D01*
X167867977Y-65851214D01*
X167874803Y-65955788D01*
X167887975Y-66024422D01*
X167893475Y-66034672D01*
X167939335Y-66047546D01*
X168041067Y-66061792D01*
X168178829Y-66074773D01*
X168215256Y-66077422D01*
X168365530Y-66086509D01*
X168460267Y-66085368D01*
X168519543Y-66069381D01*
X168563432Y-66033929D01*
X168600720Y-65988751D01*
X168662896Y-65853537D01*
X168658441Y-65705595D01*
X168588976Y-65565217D01*
X168564619Y-65536819D01*
X168490555Y-65488746D01*
X168358083Y-65433236D01*
X168179366Y-65373049D01*
X167966568Y-65310943D01*
X167731851Y-65249678D01*
X167487379Y-65192012D01*
X167245316Y-65140705D01*
X167017825Y-65098515D01*
X166817068Y-65068202D01*
X166655211Y-65052525D01*
X166544415Y-65054242D01*
X166544415Y-65054242D01*
G37*
X166544415Y-65054242D02*
X166501815Y-65068906D01*
X166482625Y-65107052D01*
X166518509Y-65139781D01*
X166615361Y-65169267D01*
X166779075Y-65197686D01*
X166891265Y-65212599D01*
X167064438Y-65239446D01*
X167276794Y-65280487D01*
X167511322Y-65331566D01*
X167751016Y-65388527D01*
X167978865Y-65447218D01*
X168177861Y-65503481D01*
X168330997Y-65553162D01*
X168400961Y-65581401D01*
X168506438Y-65664767D01*
X168551479Y-65776002D01*
X168528970Y-65896604D01*
X168525086Y-65904164D01*
X168493207Y-65948196D01*
X168444664Y-65969046D01*
X168358332Y-65971317D01*
X168253479Y-65963365D01*
X168089922Y-65936465D01*
X167994224Y-65889896D01*
X167960259Y-65820574D01*
X167960052Y-65815699D01*
X167992108Y-65792242D01*
X168055427Y-65777789D01*
X168134004Y-65755635D01*
X168145993Y-65725661D01*
X168098004Y-65699821D01*
X168006860Y-65689972D01*
X167864696Y-65689972D01*
X167867977Y-65851214D01*
X167874803Y-65955788D01*
X167887975Y-66024422D01*
X167893475Y-66034672D01*
X167939335Y-66047546D01*
X168041067Y-66061792D01*
X168178829Y-66074773D01*
X168215256Y-66077422D01*
X168365530Y-66086509D01*
X168460267Y-66085368D01*
X168519543Y-66069381D01*
X168563432Y-66033929D01*
X168600720Y-65988751D01*
X168662896Y-65853537D01*
X168658441Y-65705595D01*
X168588976Y-65565217D01*
X168564619Y-65536819D01*
X168490555Y-65488746D01*
X168358083Y-65433236D01*
X168179366Y-65373049D01*
X167966568Y-65310943D01*
X167731851Y-65249678D01*
X167487379Y-65192012D01*
X167245316Y-65140705D01*
X167017825Y-65098515D01*
X166817068Y-65068202D01*
X166655211Y-65052525D01*
X166544415Y-65054242D01*
G36*
X162631477Y-63251939D02*
G01*
X162443211Y-63331535D01*
X162223125Y-63463560D01*
X162070977Y-63604839D01*
X161978886Y-63765060D01*
X161939202Y-63951050D01*
X161934724Y-64203403D01*
X161972498Y-64410579D01*
X162059896Y-64585053D01*
X162204289Y-64739299D01*
X162413052Y-64885792D01*
X162531602Y-64953400D01*
X162822606Y-65111288D01*
X163221158Y-65090978D01*
X163583465Y-65047536D01*
X163968671Y-64957368D01*
X164347303Y-64828570D01*
X164617644Y-64707247D01*
X164726594Y-64654720D01*
X164804613Y-64622208D01*
X164831858Y-64616453D01*
X164856635Y-64651226D01*
X164913369Y-64734204D01*
X164991934Y-64850525D01*
X165033738Y-64912808D01*
X165139937Y-65059095D01*
X165266989Y-65215334D01*
X165403913Y-65370112D01*
X165539729Y-65512017D01*
X165663458Y-65629637D01*
X165764120Y-65711558D01*
X165830734Y-65746368D01*
X165836151Y-65746838D01*
X165865048Y-65737415D01*
X165885902Y-65700891D01*
X165901297Y-65624880D01*
X165913817Y-65496998D01*
X165925166Y-65320345D01*
X165941511Y-65100721D01*
X165965128Y-64864350D01*
X165992144Y-64647734D01*
X166006642Y-64552659D01*
X166044081Y-64302419D01*
X166060933Y-64118534D01*
X166060354Y-64099291D01*
X165942664Y-64099291D01*
X165934985Y-64201999D01*
X165917923Y-64347419D01*
X165896950Y-64494271D01*
X165866822Y-64707892D01*
X165838996Y-64935775D01*
X165817593Y-65142812D01*
X165810210Y-65232854D01*
X165787539Y-65554107D01*
X165702738Y-65487403D01*
X165638447Y-65428031D01*
X165542879Y-65329482D01*
X165433884Y-65210331D01*
X165403761Y-65176231D01*
X165266227Y-65010465D01*
X165152923Y-64856835D01*
X165070548Y-64726049D01*
X165025802Y-64628814D01*
X165025382Y-64575839D01*
X165027081Y-64574155D01*
X165088156Y-64530505D01*
X165148113Y-64492671D01*
X164778636Y-64492671D01*
X164583676Y-64591464D01*
X164418962Y-64665885D01*
X164212199Y-64746310D01*
X163988527Y-64824178D01*
X163773089Y-64890927D01*
X163591026Y-64937999D01*
X163531738Y-64949644D01*
X163390279Y-64967337D01*
X163220153Y-64980238D01*
X163117717Y-64984170D01*
X162981286Y-64981307D01*
X162869676Y-64961045D01*
X162751826Y-64914912D01*
X162624881Y-64849752D01*
X162491294Y-64774977D01*
X162377500Y-64706563D01*
X162305883Y-64658033D01*
X162301190Y-64654190D01*
X162266730Y-64617226D01*
X162276580Y-64587384D01*
X162341203Y-64550366D01*
X162395284Y-64525610D01*
X162551302Y-64444197D01*
X162644066Y-64363326D01*
X162685079Y-64270869D01*
X162687169Y-64246022D01*
X162576188Y-64246022D01*
X162543435Y-64302271D01*
X162461627Y-64363010D01*
X162355445Y-64415064D01*
X162249570Y-64445256D01*
X162198583Y-64447612D01*
X162112565Y-64408860D01*
X162079153Y-64344151D01*
X162062281Y-64247668D01*
X162051043Y-64118200D01*
X162049221Y-64069301D01*
X162051786Y-63958110D01*
X162069743Y-63904438D01*
X162109304Y-63890542D01*
X162111785Y-63890569D01*
X162203146Y-63915486D01*
X162315214Y-63976810D01*
X162427568Y-64058911D01*
X162519784Y-64146157D01*
X162571441Y-64222916D01*
X162576188Y-64246022D01*
X162687169Y-64246022D01*
X162689774Y-64215067D01*
X162676654Y-64134849D01*
X162628253Y-64059696D01*
X162530669Y-63969263D01*
X162510685Y-63952923D01*
X162395583Y-63870284D01*
X162286085Y-63808785D01*
X162226503Y-63787065D01*
X162151089Y-63764606D01*
X162122524Y-63742323D01*
X162159326Y-63671134D01*
X162252310Y-63586899D01*
X162385174Y-63498830D01*
X162541621Y-63416138D01*
X162705350Y-63348035D01*
X162860063Y-63303733D01*
X162914131Y-63294933D01*
X163161143Y-63293173D01*
X163440118Y-63337324D01*
X163726906Y-63422303D01*
X163930889Y-63508937D01*
X164130017Y-63615155D01*
X164281919Y-63722492D01*
X164405433Y-63849582D01*
X164519394Y-64015060D01*
X164615696Y-64186387D01*
X164778636Y-64492671D01*
X165148113Y-64492671D01*
X165193007Y-64464343D01*
X165327123Y-64383920D01*
X165475995Y-64297488D01*
X165625113Y-64213298D01*
X165759967Y-64139602D01*
X165866050Y-64084650D01*
X165928850Y-64056694D01*
X165939408Y-64055332D01*
X165942664Y-64099291D01*
X166060354Y-64099291D01*
X166057197Y-63994385D01*
X166032872Y-63923353D01*
X166006561Y-63902735D01*
X165952384Y-63913220D01*
X165845702Y-63959684D01*
X165697543Y-64036723D01*
X165518934Y-64138933D01*
X165493192Y-64154305D01*
X165322927Y-64254901D01*
X165171838Y-64341266D01*
X165053744Y-64405711D01*
X164982466Y-64440547D01*
X164972446Y-64444034D01*
X164929583Y-64433884D01*
X164877345Y-64377119D01*
X164808610Y-64264572D01*
X164756039Y-64165586D01*
X164607061Y-63907186D01*
X164451391Y-63707551D01*
X164273021Y-63550197D01*
X164055942Y-63418644D01*
X164006710Y-63394094D01*
X163645170Y-63252718D01*
X163292198Y-63181769D01*
X162952674Y-63181445D01*
X162631477Y-63251939D01*
X162631477Y-63251939D01*
G37*
X162631477Y-63251939D02*
X162443211Y-63331535D01*
X162223125Y-63463560D01*
X162070977Y-63604839D01*
X161978886Y-63765060D01*
X161939202Y-63951050D01*
X161934724Y-64203403D01*
X161972498Y-64410579D01*
X162059896Y-64585053D01*
X162204289Y-64739299D01*
X162413052Y-64885792D01*
X162531602Y-64953400D01*
X162822606Y-65111288D01*
X163221158Y-65090978D01*
X163583465Y-65047536D01*
X163968671Y-64957368D01*
X164347303Y-64828570D01*
X164617644Y-64707247D01*
X164726594Y-64654720D01*
X164804613Y-64622208D01*
X164831858Y-64616453D01*
X164856635Y-64651226D01*
X164913369Y-64734204D01*
X164991934Y-64850525D01*
X165033738Y-64912808D01*
X165139937Y-65059095D01*
X165266989Y-65215334D01*
X165403913Y-65370112D01*
X165539729Y-65512017D01*
X165663458Y-65629637D01*
X165764120Y-65711558D01*
X165830734Y-65746368D01*
X165836151Y-65746838D01*
X165865048Y-65737415D01*
X165885902Y-65700891D01*
X165901297Y-65624880D01*
X165913817Y-65496998D01*
X165925166Y-65320345D01*
X165941511Y-65100721D01*
X165965128Y-64864350D01*
X165992144Y-64647734D01*
X166006642Y-64552659D01*
X166044081Y-64302419D01*
X166060933Y-64118534D01*
X166060354Y-64099291D01*
X165942664Y-64099291D01*
X165934985Y-64201999D01*
X165917923Y-64347419D01*
X165896950Y-64494271D01*
X165866822Y-64707892D01*
X165838996Y-64935775D01*
X165817593Y-65142812D01*
X165810210Y-65232854D01*
X165787539Y-65554107D01*
X165702738Y-65487403D01*
X165638447Y-65428031D01*
X165542879Y-65329482D01*
X165433884Y-65210331D01*
X165403761Y-65176231D01*
X165266227Y-65010465D01*
X165152923Y-64856835D01*
X165070548Y-64726049D01*
X165025802Y-64628814D01*
X165025382Y-64575839D01*
X165027081Y-64574155D01*
X165088156Y-64530505D01*
X165148113Y-64492671D01*
X164778636Y-64492671D01*
X164583676Y-64591464D01*
X164418962Y-64665885D01*
X164212199Y-64746310D01*
X163988527Y-64824178D01*
X163773089Y-64890927D01*
X163591026Y-64937999D01*
X163531738Y-64949644D01*
X163390279Y-64967337D01*
X163220153Y-64980238D01*
X163117717Y-64984170D01*
X162981286Y-64981307D01*
X162869676Y-64961045D01*
X162751826Y-64914912D01*
X162624881Y-64849752D01*
X162491294Y-64774977D01*
X162377500Y-64706563D01*
X162305883Y-64658033D01*
X162301190Y-64654190D01*
X162266730Y-64617226D01*
X162276580Y-64587384D01*
X162341203Y-64550366D01*
X162395284Y-64525610D01*
X162551302Y-64444197D01*
X162644066Y-64363326D01*
X162685079Y-64270869D01*
X162687169Y-64246022D01*
X162576188Y-64246022D01*
X162543435Y-64302271D01*
X162461627Y-64363010D01*
X162355445Y-64415064D01*
X162249570Y-64445256D01*
X162198583Y-64447612D01*
X162112565Y-64408860D01*
X162079153Y-64344151D01*
X162062281Y-64247668D01*
X162051043Y-64118200D01*
X162049221Y-64069301D01*
X162051786Y-63958110D01*
X162069743Y-63904438D01*
X162109304Y-63890542D01*
X162111785Y-63890569D01*
X162203146Y-63915486D01*
X162315214Y-63976810D01*
X162427568Y-64058911D01*
X162519784Y-64146157D01*
X162571441Y-64222916D01*
X162576188Y-64246022D01*
X162687169Y-64246022D01*
X162689774Y-64215067D01*
X162676654Y-64134849D01*
X162628253Y-64059696D01*
X162530669Y-63969263D01*
X162510685Y-63952923D01*
X162395583Y-63870284D01*
X162286085Y-63808785D01*
X162226503Y-63787065D01*
X162151089Y-63764606D01*
X162122524Y-63742323D01*
X162159326Y-63671134D01*
X162252310Y-63586899D01*
X162385174Y-63498830D01*
X162541621Y-63416138D01*
X162705350Y-63348035D01*
X162860063Y-63303733D01*
X162914131Y-63294933D01*
X163161143Y-63293173D01*
X163440118Y-63337324D01*
X163726906Y-63422303D01*
X163930889Y-63508937D01*
X164130017Y-63615155D01*
X164281919Y-63722492D01*
X164405433Y-63849582D01*
X164519394Y-64015060D01*
X164615696Y-64186387D01*
X164778636Y-64492671D01*
X165148113Y-64492671D01*
X165193007Y-64464343D01*
X165327123Y-64383920D01*
X165475995Y-64297488D01*
X165625113Y-64213298D01*
X165759967Y-64139602D01*
X165866050Y-64084650D01*
X165928850Y-64056694D01*
X165939408Y-64055332D01*
X165942664Y-64099291D01*
X166060354Y-64099291D01*
X166057197Y-63994385D01*
X166032872Y-63923353D01*
X166006561Y-63902735D01*
X165952384Y-63913220D01*
X165845702Y-63959684D01*
X165697543Y-64036723D01*
X165518934Y-64138933D01*
X165493192Y-64154305D01*
X165322927Y-64254901D01*
X165171838Y-64341266D01*
X165053744Y-64405711D01*
X164982466Y-64440547D01*
X164972446Y-64444034D01*
X164929583Y-64433884D01*
X164877345Y-64377119D01*
X164808610Y-64264572D01*
X164756039Y-64165586D01*
X164607061Y-63907186D01*
X164451391Y-63707551D01*
X164273021Y-63550197D01*
X164055942Y-63418644D01*
X164006710Y-63394094D01*
X163645170Y-63252718D01*
X163292198Y-63181769D01*
X162952674Y-63181445D01*
X162631477Y-63251939D01*
G36*
X168302295Y-64413009D02*
G01*
X168253813Y-64486049D01*
X168243800Y-64575746D01*
X168256966Y-64672235D01*
X168298531Y-64704261D01*
X168300666Y-64704301D01*
X168341526Y-64678191D01*
X168345806Y-64594859D01*
X168343533Y-64521162D01*
X168373095Y-64498241D01*
X168454798Y-64509560D01*
X168548499Y-64526407D01*
X168607804Y-64533696D01*
X168608688Y-64533704D01*
X168626183Y-64568144D01*
X168638203Y-64657660D01*
X168641860Y-64761166D01*
X168641860Y-64988629D01*
X168518651Y-64988363D01*
X168374681Y-64973435D01*
X168162054Y-64929329D01*
X167881961Y-64856353D01*
X167535596Y-64754817D01*
X167151203Y-64633787D01*
X166915120Y-64558689D01*
X166741499Y-64506743D01*
X166621302Y-64475870D01*
X166545491Y-64463993D01*
X166505028Y-64469033D01*
X166492564Y-64482336D01*
X166481618Y-64537755D01*
X166485759Y-64549629D01*
X166528805Y-64567687D01*
X166631560Y-64603321D01*
X166781058Y-64652498D01*
X166964331Y-64711182D01*
X167168413Y-64775340D01*
X167380337Y-64840938D01*
X167587137Y-64903942D01*
X167775844Y-64960318D01*
X167933492Y-65006032D01*
X168047115Y-65037050D01*
X168073203Y-65043482D01*
X168262291Y-65079459D01*
X168439125Y-65098188D01*
X168588134Y-65099483D01*
X168693748Y-65083158D01*
X168739606Y-65051425D01*
X168747720Y-64990365D01*
X168750867Y-64876988D01*
X168748464Y-64734671D01*
X168747894Y-64719708D01*
X168736636Y-64438928D01*
X168552978Y-64403471D01*
X168399059Y-64387131D01*
X168302295Y-64413009D01*
X168302295Y-64413009D01*
G37*
X168302295Y-64413009D02*
X168253813Y-64486049D01*
X168243800Y-64575746D01*
X168256966Y-64672235D01*
X168298531Y-64704261D01*
X168300666Y-64704301D01*
X168341526Y-64678191D01*
X168345806Y-64594859D01*
X168343533Y-64521162D01*
X168373095Y-64498241D01*
X168454798Y-64509560D01*
X168548499Y-64526407D01*
X168607804Y-64533696D01*
X168608688Y-64533704D01*
X168626183Y-64568144D01*
X168638203Y-64657660D01*
X168641860Y-64761166D01*
X168641860Y-64988629D01*
X168518651Y-64988363D01*
X168374681Y-64973435D01*
X168162054Y-64929329D01*
X167881961Y-64856353D01*
X167535596Y-64754817D01*
X167151203Y-64633787D01*
X166915120Y-64558689D01*
X166741499Y-64506743D01*
X166621302Y-64475870D01*
X166545491Y-64463993D01*
X166505028Y-64469033D01*
X166492564Y-64482336D01*
X166481618Y-64537755D01*
X166485759Y-64549629D01*
X166528805Y-64567687D01*
X166631560Y-64603321D01*
X166781058Y-64652498D01*
X166964331Y-64711182D01*
X167168413Y-64775340D01*
X167380337Y-64840938D01*
X167587137Y-64903942D01*
X167775844Y-64960318D01*
X167933492Y-65006032D01*
X168047115Y-65037050D01*
X168073203Y-65043482D01*
X168262291Y-65079459D01*
X168439125Y-65098188D01*
X168588134Y-65099483D01*
X168693748Y-65083158D01*
X168739606Y-65051425D01*
X168747720Y-64990365D01*
X168750867Y-64876988D01*
X168748464Y-64734671D01*
X168747894Y-64719708D01*
X168736636Y-64438928D01*
X168552978Y-64403471D01*
X168399059Y-64387131D01*
X168302295Y-64413009D01*
G36*
X168142218Y-63089055D02*
G01*
X168021490Y-63177920D01*
X167942161Y-63302724D01*
X167921561Y-63410266D01*
X167947725Y-63526913D01*
X168015916Y-63599394D01*
X168110685Y-63614095D01*
X168142509Y-63605001D01*
X168179234Y-63581639D01*
X168162058Y-63547213D01*
X168116466Y-63507366D01*
X168052158Y-63416979D01*
X168057167Y-63319713D01*
X168128623Y-63231888D01*
X168169424Y-63206065D01*
X168247652Y-63177291D01*
X168317470Y-63189205D01*
X168392061Y-63249758D01*
X168484607Y-63366898D01*
X168520104Y-63417542D01*
X168596047Y-63540060D01*
X168628275Y-63631641D01*
X168625254Y-63716359D01*
X168625225Y-63716505D01*
X168598182Y-63808913D01*
X168567754Y-63864764D01*
X168516647Y-63881762D01*
X168408623Y-63898347D01*
X168262555Y-63911980D01*
X168179883Y-63916958D01*
X167783606Y-63910282D01*
X167362796Y-63856547D01*
X166948276Y-63760509D01*
X166746337Y-63695749D01*
X166565892Y-63632685D01*
X166444055Y-63594016D01*
X166368534Y-63577273D01*
X166327034Y-63579991D01*
X166307261Y-63599700D01*
X166304264Y-63607017D01*
X166325742Y-63652305D01*
X166410609Y-63707227D01*
X166547662Y-63767826D01*
X166725699Y-63830142D01*
X166933516Y-63890216D01*
X167159910Y-63944090D01*
X167371860Y-63984264D01*
X167570738Y-64009407D01*
X167799626Y-64026347D01*
X168034912Y-64034469D01*
X168252986Y-64033161D01*
X168430234Y-64021811D01*
X168490218Y-64013293D01*
X168626598Y-63954490D01*
X168714038Y-63838668D01*
X168740067Y-63751584D01*
X168751250Y-63620495D01*
X168725682Y-63500947D01*
X168655799Y-63371154D01*
X168565351Y-63248398D01*
X168473421Y-63139843D01*
X168402351Y-63080972D01*
X168331832Y-63057796D01*
X168284838Y-63055196D01*
X168142218Y-63089055D01*
X168142218Y-63089055D01*
G37*
X168142218Y-63089055D02*
X168021490Y-63177920D01*
X167942161Y-63302724D01*
X167921561Y-63410266D01*
X167947725Y-63526913D01*
X168015916Y-63599394D01*
X168110685Y-63614095D01*
X168142509Y-63605001D01*
X168179234Y-63581639D01*
X168162058Y-63547213D01*
X168116466Y-63507366D01*
X168052158Y-63416979D01*
X168057167Y-63319713D01*
X168128623Y-63231888D01*
X168169424Y-63206065D01*
X168247652Y-63177291D01*
X168317470Y-63189205D01*
X168392061Y-63249758D01*
X168484607Y-63366898D01*
X168520104Y-63417542D01*
X168596047Y-63540060D01*
X168628275Y-63631641D01*
X168625254Y-63716359D01*
X168625225Y-63716505D01*
X168598182Y-63808913D01*
X168567754Y-63864764D01*
X168516647Y-63881762D01*
X168408623Y-63898347D01*
X168262555Y-63911980D01*
X168179883Y-63916958D01*
X167783606Y-63910282D01*
X167362796Y-63856547D01*
X166948276Y-63760509D01*
X166746337Y-63695749D01*
X166565892Y-63632685D01*
X166444055Y-63594016D01*
X166368534Y-63577273D01*
X166327034Y-63579991D01*
X166307261Y-63599700D01*
X166304264Y-63607017D01*
X166325742Y-63652305D01*
X166410609Y-63707227D01*
X166547662Y-63767826D01*
X166725699Y-63830142D01*
X166933516Y-63890216D01*
X167159910Y-63944090D01*
X167371860Y-63984264D01*
X167570738Y-64009407D01*
X167799626Y-64026347D01*
X168034912Y-64034469D01*
X168252986Y-64033161D01*
X168430234Y-64021811D01*
X168490218Y-64013293D01*
X168626598Y-63954490D01*
X168714038Y-63838668D01*
X168740067Y-63751584D01*
X168751250Y-63620495D01*
X168725682Y-63500947D01*
X168655799Y-63371154D01*
X168565351Y-63248398D01*
X168473421Y-63139843D01*
X168402351Y-63080972D01*
X168331832Y-63057796D01*
X168284838Y-63055196D01*
X168142218Y-63089055D01*
G36*
X167774111Y-61728652D02*
G01*
X167734642Y-61745924D01*
X167616921Y-61829043D01*
X167514717Y-61939543D01*
X167446492Y-62054253D01*
X167428726Y-62129856D01*
X167463782Y-62223418D01*
X167558051Y-62301341D01*
X167695176Y-62354214D01*
X167850576Y-62372666D01*
X167978215Y-62358499D01*
X168067474Y-62321458D01*
X168105637Y-62270085D01*
X168083457Y-62216256D01*
X168037434Y-62198381D01*
X168018379Y-62217863D01*
X167961327Y-62248153D01*
X167862753Y-62251613D01*
X167747214Y-62233558D01*
X167639267Y-62199298D01*
X167563467Y-62154148D01*
X167542457Y-62114897D01*
X167571053Y-62044359D01*
X167642081Y-61958764D01*
X167733405Y-61882797D01*
X167770338Y-61860801D01*
X167897124Y-61814973D01*
X168035558Y-61810513D01*
X168208148Y-61847668D01*
X168267636Y-61866207D01*
X168429049Y-61938668D01*
X168521992Y-62032453D01*
X168552749Y-62156194D01*
X168544323Y-62246464D01*
X168513859Y-62385224D01*
X168472395Y-62488036D01*
X168408262Y-62562419D01*
X168309792Y-62615889D01*
X168165314Y-62655965D01*
X167963162Y-62690162D01*
X167826785Y-62708718D01*
X167208703Y-62773151D01*
X166547266Y-62810266D01*
X165835876Y-62820133D01*
X165067937Y-62802822D01*
X164236852Y-62758403D01*
X164092009Y-62748389D01*
X163839535Y-62732178D01*
X163654919Y-62724693D01*
X163530705Y-62725914D01*
X163459435Y-62735822D01*
X163438200Y-62746677D01*
X163410011Y-62791834D01*
X163412745Y-62804544D01*
X163461086Y-62816999D01*
X163575683Y-62830623D01*
X163746990Y-62844926D01*
X163965459Y-62859417D01*
X164221543Y-62873603D01*
X164505697Y-62886996D01*
X164808374Y-62899102D01*
X165120027Y-62909430D01*
X165431108Y-62917491D01*
X165703800Y-62922415D01*
X166198336Y-62925615D01*
X166628228Y-62920749D01*
X166989874Y-62907897D01*
X167277084Y-62887391D01*
X167646891Y-62848590D01*
X167944078Y-62810887D01*
X168171828Y-62773753D01*
X168333323Y-62736654D01*
X168431746Y-62699059D01*
X168441970Y-62692887D01*
X168553828Y-62575047D01*
X168630577Y-62392829D01*
X168664227Y-62214773D01*
X168673545Y-62083265D01*
X168659860Y-61996675D01*
X168618374Y-61926319D01*
X168615342Y-61922537D01*
X168493964Y-61823566D01*
X168324321Y-61749713D01*
X168131243Y-61705956D01*
X167939563Y-61697276D01*
X167774111Y-61728652D01*
X167774111Y-61728652D01*
G37*
X167774111Y-61728652D02*
X167734642Y-61745924D01*
X167616921Y-61829043D01*
X167514717Y-61939543D01*
X167446492Y-62054253D01*
X167428726Y-62129856D01*
X167463782Y-62223418D01*
X167558051Y-62301341D01*
X167695176Y-62354214D01*
X167850576Y-62372666D01*
X167978215Y-62358499D01*
X168067474Y-62321458D01*
X168105637Y-62270085D01*
X168083457Y-62216256D01*
X168037434Y-62198381D01*
X168018379Y-62217863D01*
X167961327Y-62248153D01*
X167862753Y-62251613D01*
X167747214Y-62233558D01*
X167639267Y-62199298D01*
X167563467Y-62154148D01*
X167542457Y-62114897D01*
X167571053Y-62044359D01*
X167642081Y-61958764D01*
X167733405Y-61882797D01*
X167770338Y-61860801D01*
X167897124Y-61814973D01*
X168035558Y-61810513D01*
X168208148Y-61847668D01*
X168267636Y-61866207D01*
X168429049Y-61938668D01*
X168521992Y-62032453D01*
X168552749Y-62156194D01*
X168544323Y-62246464D01*
X168513859Y-62385224D01*
X168472395Y-62488036D01*
X168408262Y-62562419D01*
X168309792Y-62615889D01*
X168165314Y-62655965D01*
X167963162Y-62690162D01*
X167826785Y-62708718D01*
X167208703Y-62773151D01*
X166547266Y-62810266D01*
X165835876Y-62820133D01*
X165067937Y-62802822D01*
X164236852Y-62758403D01*
X164092009Y-62748389D01*
X163839535Y-62732178D01*
X163654919Y-62724693D01*
X163530705Y-62725914D01*
X163459435Y-62735822D01*
X163438200Y-62746677D01*
X163410011Y-62791834D01*
X163412745Y-62804544D01*
X163461086Y-62816999D01*
X163575683Y-62830623D01*
X163746990Y-62844926D01*
X163965459Y-62859417D01*
X164221543Y-62873603D01*
X164505697Y-62886996D01*
X164808374Y-62899102D01*
X165120027Y-62909430D01*
X165431108Y-62917491D01*
X165703800Y-62922415D01*
X166198336Y-62925615D01*
X166628228Y-62920749D01*
X166989874Y-62907897D01*
X167277084Y-62887391D01*
X167646891Y-62848590D01*
X167944078Y-62810887D01*
X168171828Y-62773753D01*
X168333323Y-62736654D01*
X168431746Y-62699059D01*
X168441970Y-62692887D01*
X168553828Y-62575047D01*
X168630577Y-62392829D01*
X168664227Y-62214773D01*
X168673545Y-62083265D01*
X168659860Y-61996675D01*
X168618374Y-61926319D01*
X168615342Y-61922537D01*
X168493964Y-61823566D01*
X168324321Y-61749713D01*
X168131243Y-61705956D01*
X167939563Y-61697276D01*
X167774111Y-61728652D01*
G36*
X162816362Y-63528734D02*
G01*
X162762271Y-63572592D01*
X162755854Y-63578980D01*
X162700653Y-63669105D01*
X162704622Y-63753090D01*
X162732211Y-63818321D01*
X162787468Y-63846117D01*
X162875552Y-63851316D01*
X162987078Y-63836909D01*
X163063286Y-63800569D01*
X163068623Y-63794933D01*
X163098620Y-63713556D01*
X163053307Y-63633539D01*
X162952332Y-63565456D01*
X162868398Y-63527134D01*
X162816362Y-63528734D01*
X162816362Y-63528734D01*
G37*
X162816362Y-63528734D02*
X162762271Y-63572592D01*
X162755854Y-63578980D01*
X162700653Y-63669105D01*
X162704622Y-63753090D01*
X162732211Y-63818321D01*
X162787468Y-63846117D01*
X162875552Y-63851316D01*
X162987078Y-63836909D01*
X163063286Y-63800569D01*
X163068623Y-63794933D01*
X163098620Y-63713556D01*
X163053307Y-63633539D01*
X162952332Y-63565456D01*
X162868398Y-63527134D01*
X162816362Y-63528734D01*
G36*
X198251036Y-65489018D02*
G01*
X198194188Y-65790570D01*
X197774662Y-65963512D01*
X197523016Y-65792395D01*
X197452542Y-65744750D01*
X197388837Y-65702210D01*
X197334874Y-65666715D01*
X197293627Y-65640210D01*
X197268066Y-65624636D01*
X197261105Y-65621278D01*
X197248565Y-65629914D01*
X197221769Y-65653792D01*
X197183720Y-65689859D01*
X197137421Y-65735067D01*
X197085877Y-65786364D01*
X197032091Y-65840701D01*
X196979065Y-65895028D01*
X196929805Y-65946295D01*
X196887313Y-65991451D01*
X196854593Y-66027446D01*
X196834649Y-66051230D01*
X196829881Y-66059190D01*
X196836743Y-66073865D01*
X196855980Y-66106014D01*
X196885570Y-66152492D01*
X196923490Y-66210156D01*
X196967718Y-66275860D01*
X196993346Y-66313336D01*
X197040059Y-66381768D01*
X197081568Y-66443520D01*
X197115860Y-66495519D01*
X197140920Y-66534692D01*
X197154736Y-66557965D01*
X197156812Y-66562855D01*
X197152105Y-66576755D01*
X197139277Y-66609150D01*
X197120262Y-66655485D01*
X197096997Y-66711206D01*
X197071416Y-66771758D01*
X197045455Y-66832586D01*
X197021050Y-66889136D01*
X197000137Y-66936852D01*
X196984651Y-66971181D01*
X196976528Y-66987568D01*
X196976048Y-66988212D01*
X196963293Y-66991341D01*
X196929323Y-66998321D01*
X196877660Y-67008467D01*
X196811824Y-67021092D01*
X196735336Y-67035509D01*
X196690710Y-67043823D01*
X196608979Y-67059384D01*
X196535157Y-67074192D01*
X196472979Y-67087436D01*
X196426178Y-67098305D01*
X196398491Y-67105989D01*
X196392926Y-67108427D01*
X196387474Y-67124930D01*
X196383076Y-67162200D01*
X196379728Y-67215880D01*
X196377426Y-67281612D01*
X196376168Y-67355037D01*
X196375952Y-67431796D01*
X196376773Y-67507532D01*
X196378629Y-67577886D01*
X196381518Y-67638500D01*
X196385435Y-67685016D01*
X196390378Y-67713075D01*
X196393343Y-67718916D01*
X196411066Y-67725917D01*
X196448619Y-67735927D01*
X196501036Y-67747769D01*
X196563348Y-67760267D01*
X196585100Y-67764310D01*
X196689976Y-67783520D01*
X196772820Y-67798991D01*
X196836370Y-67811337D01*
X196883363Y-67821173D01*
X196916537Y-67829114D01*
X196938629Y-67835776D01*
X196952376Y-67841773D01*
X196960516Y-67847719D01*
X196961655Y-67848894D01*
X196973023Y-67867826D01*
X196990365Y-67904669D01*
X197011950Y-67954913D01*
X197036046Y-68014046D01*
X197060921Y-68077556D01*
X197084843Y-68140932D01*
X197106081Y-68199662D01*
X197122903Y-68249235D01*
X197133578Y-68285139D01*
X197136373Y-68302862D01*
X197136140Y-68303483D01*
X197126669Y-68317970D01*
X197105182Y-68349844D01*
X197073937Y-68395789D01*
X197035193Y-68452485D01*
X196991207Y-68516617D01*
X196978681Y-68534842D01*
X196934016Y-68600914D01*
X196894712Y-68661200D01*
X196862912Y-68712235D01*
X196840755Y-68750560D01*
X196830383Y-68772711D01*
X196829881Y-68775432D01*
X196838595Y-68789736D01*
X196862675Y-68818072D01*
X196899024Y-68857396D01*
X196944547Y-68904661D01*
X196996148Y-68956823D01*
X197050733Y-69010835D01*
X197105206Y-69063653D01*
X197156471Y-69112231D01*
X197201433Y-69153523D01*
X197236996Y-69184485D01*
X197260065Y-69202070D01*
X197266446Y-69204941D01*
X197281301Y-69198178D01*
X197311714Y-69179939D01*
X197352732Y-69153297D01*
X197384291Y-69131852D01*
X197441475Y-69092503D01*
X197509194Y-69046171D01*
X197577120Y-68999913D01*
X197613639Y-68975155D01*
X197737248Y-68891547D01*
X197841009Y-68947650D01*
X197888280Y-68972228D01*
X197928477Y-68991331D01*
X197955674Y-69002227D01*
X197962598Y-69003743D01*
X197970923Y-68992549D01*
X197987346Y-68960917D01*
X198010643Y-68911765D01*
X198039586Y-68848010D01*
X198072950Y-68772571D01*
X198109509Y-68688364D01*
X198148036Y-68598308D01*
X198187306Y-68505321D01*
X198226092Y-68412320D01*
X198263170Y-68322223D01*
X198297311Y-68237948D01*
X198327292Y-68162413D01*
X198351884Y-68098534D01*
X198369864Y-68049231D01*
X198380003Y-68017421D01*
X198381634Y-68006496D01*
X198368709Y-67992561D01*
X198340411Y-67969940D01*
X198302654Y-67943333D01*
X198299485Y-67941228D01*
X198201900Y-67863114D01*
X198123214Y-67771982D01*
X198064109Y-67670745D01*
X198025268Y-67562318D01*
X198007372Y-67449614D01*
X198011103Y-67335548D01*
X198037143Y-67223034D01*
X198086175Y-67114985D01*
X198100600Y-67091345D01*
X198175631Y-66995887D01*
X198264270Y-66919232D01*
X198363451Y-66861780D01*
X198470105Y-66823929D01*
X198581164Y-66806078D01*
X198693561Y-66808625D01*
X198804227Y-66831970D01*
X198910094Y-66876510D01*
X199008095Y-66942645D01*
X199038410Y-66969487D01*
X199115562Y-67053512D01*
X199171782Y-67141966D01*
X199210347Y-67241115D01*
X199231826Y-67339303D01*
X199237128Y-67449697D01*
X199219448Y-67560640D01*
X199180581Y-67668381D01*
X199122323Y-67769169D01*
X199046469Y-67859256D01*
X198954817Y-67934892D01*
X198942772Y-67942864D01*
X198904611Y-67968974D01*
X198875601Y-67991595D01*
X198861732Y-68006039D01*
X198861531Y-68006496D01*
X198864508Y-68022121D01*
X198876311Y-68057582D01*
X198895714Y-68109962D01*
X198921488Y-68176345D01*
X198952409Y-68253814D01*
X198987249Y-68339450D01*
X199024783Y-68430337D01*
X199063783Y-68523559D01*
X199103023Y-68616197D01*
X199141276Y-68705335D01*
X199177317Y-68788055D01*
X199209917Y-68861441D01*
X199237852Y-68922575D01*
X199259895Y-68968541D01*
X199274818Y-68996421D01*
X199280828Y-69003743D01*
X199299191Y-68998041D01*
X199333552Y-68982749D01*
X199377984Y-68960599D01*
X199402417Y-68947650D01*
X199506178Y-68891547D01*
X199629787Y-68975155D01*
X199692886Y-69017987D01*
X199761970Y-69065122D01*
X199826707Y-69109503D01*
X199859134Y-69131852D01*
X199904741Y-69162477D01*
X199943360Y-69186747D01*
X199969952Y-69201587D01*
X199978590Y-69204724D01*
X199991161Y-69196261D01*
X200018984Y-69172636D01*
X200059361Y-69136302D01*
X200109595Y-69089711D01*
X200166988Y-69035317D01*
X200203286Y-69000392D01*
X200266790Y-68937996D01*
X200321673Y-68882188D01*
X200365714Y-68835354D01*
X200396695Y-68799882D01*
X200412398Y-68778161D01*
X200413905Y-68773752D01*
X200406914Y-68756985D01*
X200387594Y-68723082D01*
X200358091Y-68675476D01*
X200320545Y-68617599D01*
X200277100Y-68552884D01*
X200264745Y-68534842D01*
X200219727Y-68469267D01*
X200179340Y-68410228D01*
X200145840Y-68361042D01*
X200121486Y-68325028D01*
X200108536Y-68305502D01*
X200107285Y-68303483D01*
X200109156Y-68287922D01*
X200119087Y-68253709D01*
X200135347Y-68205355D01*
X200156205Y-68147371D01*
X200179927Y-68084270D01*
X200204784Y-68020563D01*
X200229042Y-67960761D01*
X200250971Y-67909376D01*
X200268838Y-67870919D01*
X200280913Y-67849902D01*
X200281771Y-67848894D01*
X200289154Y-67842888D01*
X200301625Y-67836948D01*
X200321920Y-67830460D01*
X200352778Y-67822809D01*
X200396934Y-67813380D01*
X200457126Y-67801559D01*
X200536093Y-67786729D01*
X200636570Y-67768277D01*
X200658325Y-67764310D01*
X200722802Y-67751853D01*
X200779011Y-67739666D01*
X200821987Y-67728926D01*
X200846760Y-67720809D01*
X200850082Y-67718916D01*
X200855556Y-67702138D01*
X200860006Y-67664645D01*
X200863428Y-67610794D01*
X200865819Y-67544944D01*
X200867177Y-67471453D01*
X200867499Y-67394680D01*
X200866781Y-67318983D01*
X200865021Y-67248720D01*
X200862216Y-67188250D01*
X200858362Y-67141930D01*
X200853457Y-67114119D01*
X200850500Y-67108427D01*
X200834037Y-67102686D01*
X200796551Y-67093345D01*
X200741775Y-67081215D01*
X200673445Y-67067107D01*
X200595294Y-67051830D01*
X200552716Y-67043823D01*
X200471929Y-67028721D01*
X200399887Y-67015040D01*
X200340111Y-67003467D01*
X200296121Y-66994687D01*
X200271439Y-66989387D01*
X200267377Y-66988212D01*
X200260511Y-66974965D01*
X200245998Y-66943057D01*
X200225771Y-66897047D01*
X200201766Y-66841492D01*
X200175918Y-66780953D01*
X200150160Y-66719986D01*
X200126427Y-66663151D01*
X200106654Y-66615006D01*
X200092776Y-66580110D01*
X200086726Y-66563021D01*
X200086614Y-66562274D01*
X200093472Y-66548793D01*
X200112698Y-66517770D01*
X200142272Y-66472289D01*
X200180173Y-66415432D01*
X200224380Y-66350283D01*
X200250079Y-66312862D01*
X200296907Y-66244247D01*
X200338499Y-66181952D01*
X200372825Y-66129129D01*
X200397857Y-66088927D01*
X200411565Y-66064500D01*
X200413544Y-66059024D01*
X200405034Y-66046278D01*
X200381507Y-66019063D01*
X200345968Y-65980428D01*
X200301423Y-65933423D01*
X200250877Y-65881095D01*
X200197336Y-65826495D01*
X200143805Y-65772670D01*
X200093289Y-65722670D01*
X200048794Y-65679543D01*
X200013325Y-65646339D01*
X199989887Y-65626106D01*
X199982046Y-65621278D01*
X199969280Y-65628067D01*
X199938744Y-65647142D01*
X199893410Y-65676561D01*
X199836244Y-65714381D01*
X199770216Y-65758661D01*
X199720410Y-65792395D01*
X199468764Y-65963512D01*
X199259001Y-65877041D01*
X199049237Y-65790570D01*
X198992389Y-65489018D01*
X198935540Y-65187466D01*
X198307885Y-65187466D01*
X198251036Y-65489018D01*
X198251036Y-65489018D01*
G37*
X198251036Y-65489018D02*
X198194188Y-65790570D01*
X197774662Y-65963512D01*
X197523016Y-65792395D01*
X197452542Y-65744750D01*
X197388837Y-65702210D01*
X197334874Y-65666715D01*
X197293627Y-65640210D01*
X197268066Y-65624636D01*
X197261105Y-65621278D01*
X197248565Y-65629914D01*
X197221769Y-65653792D01*
X197183720Y-65689859D01*
X197137421Y-65735067D01*
X197085877Y-65786364D01*
X197032091Y-65840701D01*
X196979065Y-65895028D01*
X196929805Y-65946295D01*
X196887313Y-65991451D01*
X196854593Y-66027446D01*
X196834649Y-66051230D01*
X196829881Y-66059190D01*
X196836743Y-66073865D01*
X196855980Y-66106014D01*
X196885570Y-66152492D01*
X196923490Y-66210156D01*
X196967718Y-66275860D01*
X196993346Y-66313336D01*
X197040059Y-66381768D01*
X197081568Y-66443520D01*
X197115860Y-66495519D01*
X197140920Y-66534692D01*
X197154736Y-66557965D01*
X197156812Y-66562855D01*
X197152105Y-66576755D01*
X197139277Y-66609150D01*
X197120262Y-66655485D01*
X197096997Y-66711206D01*
X197071416Y-66771758D01*
X197045455Y-66832586D01*
X197021050Y-66889136D01*
X197000137Y-66936852D01*
X196984651Y-66971181D01*
X196976528Y-66987568D01*
X196976048Y-66988212D01*
X196963293Y-66991341D01*
X196929323Y-66998321D01*
X196877660Y-67008467D01*
X196811824Y-67021092D01*
X196735336Y-67035509D01*
X196690710Y-67043823D01*
X196608979Y-67059384D01*
X196535157Y-67074192D01*
X196472979Y-67087436D01*
X196426178Y-67098305D01*
X196398491Y-67105989D01*
X196392926Y-67108427D01*
X196387474Y-67124930D01*
X196383076Y-67162200D01*
X196379728Y-67215880D01*
X196377426Y-67281612D01*
X196376168Y-67355037D01*
X196375952Y-67431796D01*
X196376773Y-67507532D01*
X196378629Y-67577886D01*
X196381518Y-67638500D01*
X196385435Y-67685016D01*
X196390378Y-67713075D01*
X196393343Y-67718916D01*
X196411066Y-67725917D01*
X196448619Y-67735927D01*
X196501036Y-67747769D01*
X196563348Y-67760267D01*
X196585100Y-67764310D01*
X196689976Y-67783520D01*
X196772820Y-67798991D01*
X196836370Y-67811337D01*
X196883363Y-67821173D01*
X196916537Y-67829114D01*
X196938629Y-67835776D01*
X196952376Y-67841773D01*
X196960516Y-67847719D01*
X196961655Y-67848894D01*
X196973023Y-67867826D01*
X196990365Y-67904669D01*
X197011950Y-67954913D01*
X197036046Y-68014046D01*
X197060921Y-68077556D01*
X197084843Y-68140932D01*
X197106081Y-68199662D01*
X197122903Y-68249235D01*
X197133578Y-68285139D01*
X197136373Y-68302862D01*
X197136140Y-68303483D01*
X197126669Y-68317970D01*
X197105182Y-68349844D01*
X197073937Y-68395789D01*
X197035193Y-68452485D01*
X196991207Y-68516617D01*
X196978681Y-68534842D01*
X196934016Y-68600914D01*
X196894712Y-68661200D01*
X196862912Y-68712235D01*
X196840755Y-68750560D01*
X196830383Y-68772711D01*
X196829881Y-68775432D01*
X196838595Y-68789736D01*
X196862675Y-68818072D01*
X196899024Y-68857396D01*
X196944547Y-68904661D01*
X196996148Y-68956823D01*
X197050733Y-69010835D01*
X197105206Y-69063653D01*
X197156471Y-69112231D01*
X197201433Y-69153523D01*
X197236996Y-69184485D01*
X197260065Y-69202070D01*
X197266446Y-69204941D01*
X197281301Y-69198178D01*
X197311714Y-69179939D01*
X197352732Y-69153297D01*
X197384291Y-69131852D01*
X197441475Y-69092503D01*
X197509194Y-69046171D01*
X197577120Y-68999913D01*
X197613639Y-68975155D01*
X197737248Y-68891547D01*
X197841009Y-68947650D01*
X197888280Y-68972228D01*
X197928477Y-68991331D01*
X197955674Y-69002227D01*
X197962598Y-69003743D01*
X197970923Y-68992549D01*
X197987346Y-68960917D01*
X198010643Y-68911765D01*
X198039586Y-68848010D01*
X198072950Y-68772571D01*
X198109509Y-68688364D01*
X198148036Y-68598308D01*
X198187306Y-68505321D01*
X198226092Y-68412320D01*
X198263170Y-68322223D01*
X198297311Y-68237948D01*
X198327292Y-68162413D01*
X198351884Y-68098534D01*
X198369864Y-68049231D01*
X198380003Y-68017421D01*
X198381634Y-68006496D01*
X198368709Y-67992561D01*
X198340411Y-67969940D01*
X198302654Y-67943333D01*
X198299485Y-67941228D01*
X198201900Y-67863114D01*
X198123214Y-67771982D01*
X198064109Y-67670745D01*
X198025268Y-67562318D01*
X198007372Y-67449614D01*
X198011103Y-67335548D01*
X198037143Y-67223034D01*
X198086175Y-67114985D01*
X198100600Y-67091345D01*
X198175631Y-66995887D01*
X198264270Y-66919232D01*
X198363451Y-66861780D01*
X198470105Y-66823929D01*
X198581164Y-66806078D01*
X198693561Y-66808625D01*
X198804227Y-66831970D01*
X198910094Y-66876510D01*
X199008095Y-66942645D01*
X199038410Y-66969487D01*
X199115562Y-67053512D01*
X199171782Y-67141966D01*
X199210347Y-67241115D01*
X199231826Y-67339303D01*
X199237128Y-67449697D01*
X199219448Y-67560640D01*
X199180581Y-67668381D01*
X199122323Y-67769169D01*
X199046469Y-67859256D01*
X198954817Y-67934892D01*
X198942772Y-67942864D01*
X198904611Y-67968974D01*
X198875601Y-67991595D01*
X198861732Y-68006039D01*
X198861531Y-68006496D01*
X198864508Y-68022121D01*
X198876311Y-68057582D01*
X198895714Y-68109962D01*
X198921488Y-68176345D01*
X198952409Y-68253814D01*
X198987249Y-68339450D01*
X199024783Y-68430337D01*
X199063783Y-68523559D01*
X199103023Y-68616197D01*
X199141276Y-68705335D01*
X199177317Y-68788055D01*
X199209917Y-68861441D01*
X199237852Y-68922575D01*
X199259895Y-68968541D01*
X199274818Y-68996421D01*
X199280828Y-69003743D01*
X199299191Y-68998041D01*
X199333552Y-68982749D01*
X199377984Y-68960599D01*
X199402417Y-68947650D01*
X199506178Y-68891547D01*
X199629787Y-68975155D01*
X199692886Y-69017987D01*
X199761970Y-69065122D01*
X199826707Y-69109503D01*
X199859134Y-69131852D01*
X199904741Y-69162477D01*
X199943360Y-69186747D01*
X199969952Y-69201587D01*
X199978590Y-69204724D01*
X199991161Y-69196261D01*
X200018984Y-69172636D01*
X200059361Y-69136302D01*
X200109595Y-69089711D01*
X200166988Y-69035317D01*
X200203286Y-69000392D01*
X200266790Y-68937996D01*
X200321673Y-68882188D01*
X200365714Y-68835354D01*
X200396695Y-68799882D01*
X200412398Y-68778161D01*
X200413905Y-68773752D01*
X200406914Y-68756985D01*
X200387594Y-68723082D01*
X200358091Y-68675476D01*
X200320545Y-68617599D01*
X200277100Y-68552884D01*
X200264745Y-68534842D01*
X200219727Y-68469267D01*
X200179340Y-68410228D01*
X200145840Y-68361042D01*
X200121486Y-68325028D01*
X200108536Y-68305502D01*
X200107285Y-68303483D01*
X200109156Y-68287922D01*
X200119087Y-68253709D01*
X200135347Y-68205355D01*
X200156205Y-68147371D01*
X200179927Y-68084270D01*
X200204784Y-68020563D01*
X200229042Y-67960761D01*
X200250971Y-67909376D01*
X200268838Y-67870919D01*
X200280913Y-67849902D01*
X200281771Y-67848894D01*
X200289154Y-67842888D01*
X200301625Y-67836948D01*
X200321920Y-67830460D01*
X200352778Y-67822809D01*
X200396934Y-67813380D01*
X200457126Y-67801559D01*
X200536093Y-67786729D01*
X200636570Y-67768277D01*
X200658325Y-67764310D01*
X200722802Y-67751853D01*
X200779011Y-67739666D01*
X200821987Y-67728926D01*
X200846760Y-67720809D01*
X200850082Y-67718916D01*
X200855556Y-67702138D01*
X200860006Y-67664645D01*
X200863428Y-67610794D01*
X200865819Y-67544944D01*
X200867177Y-67471453D01*
X200867499Y-67394680D01*
X200866781Y-67318983D01*
X200865021Y-67248720D01*
X200862216Y-67188250D01*
X200858362Y-67141930D01*
X200853457Y-67114119D01*
X200850500Y-67108427D01*
X200834037Y-67102686D01*
X200796551Y-67093345D01*
X200741775Y-67081215D01*
X200673445Y-67067107D01*
X200595294Y-67051830D01*
X200552716Y-67043823D01*
X200471929Y-67028721D01*
X200399887Y-67015040D01*
X200340111Y-67003467D01*
X200296121Y-66994687D01*
X200271439Y-66989387D01*
X200267377Y-66988212D01*
X200260511Y-66974965D01*
X200245998Y-66943057D01*
X200225771Y-66897047D01*
X200201766Y-66841492D01*
X200175918Y-66780953D01*
X200150160Y-66719986D01*
X200126427Y-66663151D01*
X200106654Y-66615006D01*
X200092776Y-66580110D01*
X200086726Y-66563021D01*
X200086614Y-66562274D01*
X200093472Y-66548793D01*
X200112698Y-66517770D01*
X200142272Y-66472289D01*
X200180173Y-66415432D01*
X200224380Y-66350283D01*
X200250079Y-66312862D01*
X200296907Y-66244247D01*
X200338499Y-66181952D01*
X200372825Y-66129129D01*
X200397857Y-66088927D01*
X200411565Y-66064500D01*
X200413544Y-66059024D01*
X200405034Y-66046278D01*
X200381507Y-66019063D01*
X200345968Y-65980428D01*
X200301423Y-65933423D01*
X200250877Y-65881095D01*
X200197336Y-65826495D01*
X200143805Y-65772670D01*
X200093289Y-65722670D01*
X200048794Y-65679543D01*
X200013325Y-65646339D01*
X199989887Y-65626106D01*
X199982046Y-65621278D01*
X199969280Y-65628067D01*
X199938744Y-65647142D01*
X199893410Y-65676561D01*
X199836244Y-65714381D01*
X199770216Y-65758661D01*
X199720410Y-65792395D01*
X199468764Y-65963512D01*
X199259001Y-65877041D01*
X199049237Y-65790570D01*
X198992389Y-65489018D01*
X198935540Y-65187466D01*
X198307885Y-65187466D01*
X198251036Y-65489018D01*
G36*
X196828540Y-69657030D02*
G01*
X196785289Y-69670245D01*
X196757442Y-69686941D01*
X196748371Y-69700145D01*
X196750868Y-69715797D01*
X196767069Y-69740385D01*
X196780768Y-69757800D01*
X196809008Y-69789283D01*
X196830225Y-69802529D01*
X196848312Y-69801664D01*
X196901965Y-69788010D01*
X196941370Y-69788630D01*
X196973368Y-69804104D01*
X196984110Y-69813161D01*
X197018495Y-69845027D01*
X197018495Y-70261179D01*
X197156812Y-70261179D01*
X197156812Y-69657614D01*
X197087653Y-69657614D01*
X197046131Y-69659256D01*
X197024709Y-69665087D01*
X197018498Y-69676461D01*
X197018495Y-69676798D01*
X197015561Y-69688713D01*
X197002296Y-69687159D01*
X196983916Y-69678563D01*
X196945954Y-69662568D01*
X196915128Y-69652945D01*
X196875464Y-69650478D01*
X196828540Y-69657030D01*
X196828540Y-69657030D01*
G37*
X196828540Y-69657030D02*
X196785289Y-69670245D01*
X196757442Y-69686941D01*
X196748371Y-69700145D01*
X196750868Y-69715797D01*
X196767069Y-69740385D01*
X196780768Y-69757800D01*
X196809008Y-69789283D01*
X196830225Y-69802529D01*
X196848312Y-69801664D01*
X196901965Y-69788010D01*
X196941370Y-69788630D01*
X196973368Y-69804104D01*
X196984110Y-69813161D01*
X197018495Y-69845027D01*
X197018495Y-70261179D01*
X197156812Y-70261179D01*
X197156812Y-69657614D01*
X197087653Y-69657614D01*
X197046131Y-69659256D01*
X197024709Y-69665087D01*
X197018498Y-69676461D01*
X197018495Y-69676798D01*
X197015561Y-69688713D01*
X197002296Y-69687159D01*
X196983916Y-69678563D01*
X196945954Y-69662568D01*
X196915128Y-69652945D01*
X196875464Y-69650478D01*
X196828540Y-69657030D01*
G36*
X199382012Y-69668002D02*
G01*
X199350717Y-69682950D01*
X199320409Y-69704541D01*
X199297318Y-69729391D01*
X199280500Y-69761087D01*
X199269006Y-69803214D01*
X199261891Y-69859358D01*
X199258207Y-69933106D01*
X199257008Y-70028044D01*
X199256989Y-70037985D01*
X199256713Y-70261179D01*
X199395030Y-70261179D01*
X199395030Y-70055418D01*
X199395128Y-69979189D01*
X199395809Y-69923939D01*
X199397651Y-69885501D01*
X199401233Y-69859706D01*
X199407132Y-69842384D01*
X199415927Y-69829368D01*
X199428180Y-69816507D01*
X199471047Y-69788873D01*
X199517843Y-69783745D01*
X199562424Y-69801217D01*
X199577928Y-69814221D01*
X199589310Y-69826447D01*
X199597481Y-69839540D01*
X199602974Y-69857615D01*
X199606320Y-69884787D01*
X199608051Y-69925170D01*
X199608697Y-69982879D01*
X199608792Y-70053132D01*
X199608792Y-70261179D01*
X199747109Y-70261179D01*
X199747109Y-69657614D01*
X199677950Y-69657614D01*
X199636428Y-69659256D01*
X199615006Y-69665087D01*
X199608795Y-69676461D01*
X199608792Y-69676798D01*
X199605910Y-69687938D01*
X199593199Y-69686674D01*
X199567926Y-69674434D01*
X199510605Y-69656424D01*
X199445037Y-69654421D01*
X199382012Y-69668002D01*
X199382012Y-69668002D01*
G37*
X199382012Y-69668002D02*
X199350717Y-69682950D01*
X199320409Y-69704541D01*
X199297318Y-69729391D01*
X199280500Y-69761087D01*
X199269006Y-69803214D01*
X199261891Y-69859358D01*
X199258207Y-69933106D01*
X199257008Y-70028044D01*
X199256989Y-70037985D01*
X199256713Y-70261179D01*
X199395030Y-70261179D01*
X199395030Y-70055418D01*
X199395128Y-69979189D01*
X199395809Y-69923939D01*
X199397651Y-69885501D01*
X199401233Y-69859706D01*
X199407132Y-69842384D01*
X199415927Y-69829368D01*
X199428180Y-69816507D01*
X199471047Y-69788873D01*
X199517843Y-69783745D01*
X199562424Y-69801217D01*
X199577928Y-69814221D01*
X199589310Y-69826447D01*
X199597481Y-69839540D01*
X199602974Y-69857615D01*
X199606320Y-69884787D01*
X199608051Y-69925170D01*
X199608697Y-69982879D01*
X199608792Y-70053132D01*
X199608792Y-70261179D01*
X199747109Y-70261179D01*
X199747109Y-69657614D01*
X199677950Y-69657614D01*
X199636428Y-69659256D01*
X199615006Y-69665087D01*
X199608795Y-69676461D01*
X199608792Y-69676798D01*
X199605910Y-69687938D01*
X199593199Y-69686674D01*
X199567926Y-69674434D01*
X199510605Y-69656424D01*
X199445037Y-69654421D01*
X199382012Y-69668002D01*
G36*
X195950102Y-69655457D02*
G01*
X195917904Y-69663279D01*
X195856175Y-69691921D01*
X195803390Y-69735667D01*
X195766859Y-69788117D01*
X195761840Y-69799893D01*
X195754955Y-69830740D01*
X195750136Y-69876371D01*
X195748495Y-69922492D01*
X195748495Y-70009693D01*
X195930822Y-70009693D01*
X196006021Y-70009978D01*
X196058997Y-70011704D01*
X196092675Y-70016181D01*
X196109980Y-70024720D01*
X196113837Y-70038630D01*
X196107171Y-70059222D01*
X196095230Y-70083315D01*
X196061920Y-70123525D01*
X196015632Y-70143558D01*
X195959056Y-70142905D01*
X195894969Y-70121101D01*
X195839583Y-70094193D01*
X195793625Y-70130532D01*
X195747667Y-70166872D01*
X195790904Y-70206819D01*
X195848626Y-70244563D01*
X195919614Y-70267320D01*
X195995971Y-70273688D01*
X196069801Y-70262268D01*
X196081713Y-70258393D01*
X196146601Y-70224506D01*
X196194870Y-70173986D01*
X196227535Y-70105325D01*
X196245615Y-70017014D01*
X196245825Y-70015121D01*
X196247444Y-69918878D01*
X196240900Y-69884542D01*
X196113148Y-69884542D01*
X196101416Y-69889822D01*
X196069562Y-69893867D01*
X196022603Y-69896176D01*
X195992846Y-69896525D01*
X195937352Y-69896306D01*
X195902654Y-69894916D01*
X195884399Y-69891251D01*
X195878234Y-69884210D01*
X195879805Y-69872690D01*
X195881122Y-69868233D01*
X195903618Y-69826355D01*
X195938997Y-69792604D01*
X195970220Y-69777773D01*
X196011699Y-69778668D01*
X196053731Y-69797164D01*
X196088988Y-69827786D01*
X196110146Y-69865062D01*
X196113148Y-69884542D01*
X196240900Y-69884542D01*
X196231310Y-69834229D01*
X196199302Y-69763191D01*
X196153299Y-69707779D01*
X196095179Y-69670009D01*
X196026820Y-69651896D01*
X195950102Y-69655457D01*
X195950102Y-69655457D01*
G37*
X195950102Y-69655457D02*
X195917904Y-69663279D01*
X195856175Y-69691921D01*
X195803390Y-69735667D01*
X195766859Y-69788117D01*
X195761840Y-69799893D01*
X195754955Y-69830740D01*
X195750136Y-69876371D01*
X195748495Y-69922492D01*
X195748495Y-70009693D01*
X195930822Y-70009693D01*
X196006021Y-70009978D01*
X196058997Y-70011704D01*
X196092675Y-70016181D01*
X196109980Y-70024720D01*
X196113837Y-70038630D01*
X196107171Y-70059222D01*
X196095230Y-70083315D01*
X196061920Y-70123525D01*
X196015632Y-70143558D01*
X195959056Y-70142905D01*
X195894969Y-70121101D01*
X195839583Y-70094193D01*
X195793625Y-70130532D01*
X195747667Y-70166872D01*
X195790904Y-70206819D01*
X195848626Y-70244563D01*
X195919614Y-70267320D01*
X195995971Y-70273688D01*
X196069801Y-70262268D01*
X196081713Y-70258393D01*
X196146601Y-70224506D01*
X196194870Y-70173986D01*
X196227535Y-70105325D01*
X196245615Y-70017014D01*
X196245825Y-70015121D01*
X196247444Y-69918878D01*
X196240900Y-69884542D01*
X196113148Y-69884542D01*
X196101416Y-69889822D01*
X196069562Y-69893867D01*
X196022603Y-69896176D01*
X195992846Y-69896525D01*
X195937352Y-69896306D01*
X195902654Y-69894916D01*
X195884399Y-69891251D01*
X195878234Y-69884210D01*
X195879805Y-69872690D01*
X195881122Y-69868233D01*
X195903618Y-69826355D01*
X195938997Y-69792604D01*
X195970220Y-69777773D01*
X196011699Y-69778668D01*
X196053731Y-69797164D01*
X196088988Y-69827786D01*
X196110146Y-69865062D01*
X196113148Y-69884542D01*
X196240900Y-69884542D01*
X196231310Y-69834229D01*
X196199302Y-69763191D01*
X196153299Y-69707779D01*
X196095179Y-69670009D01*
X196026820Y-69651896D01*
X195950102Y-69655457D01*
G36*
X196410774Y-69662880D02*
G01*
X196337920Y-69693830D01*
X196314973Y-69708895D01*
X196285646Y-69732048D01*
X196267236Y-69750253D01*
X196264039Y-69756183D01*
X196273065Y-69769340D01*
X196296163Y-69791667D01*
X196314656Y-69807250D01*
X196365272Y-69847926D01*
X196405240Y-69814295D01*
X196436126Y-69792584D01*
X196466241Y-69785090D01*
X196500708Y-69786920D01*
X196555439Y-69800528D01*
X196593114Y-69828772D01*
X196616009Y-69874433D01*
X196626403Y-69940289D01*
X196626405Y-69940331D01*
X196625506Y-70013939D01*
X196611537Y-70067946D01*
X196583672Y-70104716D01*
X196564675Y-70117168D01*
X196514224Y-70132673D01*
X196460337Y-70132683D01*
X196413454Y-70117638D01*
X196402356Y-70110287D01*
X196374524Y-70091511D01*
X196352764Y-70088434D01*
X196329296Y-70102409D01*
X196303351Y-70127510D01*
X196262284Y-70169880D01*
X196307879Y-70207464D01*
X196378326Y-70249882D01*
X196457767Y-70270785D01*
X196540785Y-70269272D01*
X196595306Y-70255411D01*
X196659030Y-70221135D01*
X196709995Y-70167212D01*
X196733149Y-70129149D01*
X196751901Y-70074536D01*
X196761285Y-70005369D01*
X196761357Y-69930407D01*
X196752176Y-69858409D01*
X196733801Y-69798137D01*
X196730907Y-69791958D01*
X196688048Y-69731351D01*
X196630021Y-69687224D01*
X196561409Y-69660493D01*
X196486799Y-69652073D01*
X196410774Y-69662880D01*
X196410774Y-69662880D01*
G37*
X196410774Y-69662880D02*
X196337920Y-69693830D01*
X196314973Y-69708895D01*
X196285646Y-69732048D01*
X196267236Y-69750253D01*
X196264039Y-69756183D01*
X196273065Y-69769340D01*
X196296163Y-69791667D01*
X196314656Y-69807250D01*
X196365272Y-69847926D01*
X196405240Y-69814295D01*
X196436126Y-69792584D01*
X196466241Y-69785090D01*
X196500708Y-69786920D01*
X196555439Y-69800528D01*
X196593114Y-69828772D01*
X196616009Y-69874433D01*
X196626403Y-69940289D01*
X196626405Y-69940331D01*
X196625506Y-70013939D01*
X196611537Y-70067946D01*
X196583672Y-70104716D01*
X196564675Y-70117168D01*
X196514224Y-70132673D01*
X196460337Y-70132683D01*
X196413454Y-70117638D01*
X196402356Y-70110287D01*
X196374524Y-70091511D01*
X196352764Y-70088434D01*
X196329296Y-70102409D01*
X196303351Y-70127510D01*
X196262284Y-70169880D01*
X196307879Y-70207464D01*
X196378326Y-70249882D01*
X196457767Y-70270785D01*
X196540785Y-70269272D01*
X196595306Y-70255411D01*
X196659030Y-70221135D01*
X196709995Y-70167212D01*
X196733149Y-70129149D01*
X196751901Y-70074536D01*
X196761285Y-70005369D01*
X196761357Y-69930407D01*
X196752176Y-69858409D01*
X196733801Y-69798137D01*
X196730907Y-69791958D01*
X196688048Y-69731351D01*
X196630021Y-69687224D01*
X196561409Y-69660493D01*
X196486799Y-69652073D01*
X196410774Y-69662880D01*
G36*
X197634633Y-69853342D02*
G01*
X197633445Y-69945563D01*
X197629103Y-70015610D01*
X197620442Y-70066381D01*
X197606296Y-70100772D01*
X197585500Y-70121679D01*
X197556890Y-70132000D01*
X197521465Y-70134636D01*
X197484364Y-70131682D01*
X197456182Y-70120889D01*
X197435757Y-70099360D01*
X197421921Y-70064199D01*
X197413509Y-70012510D01*
X197409357Y-69941394D01*
X197408297Y-69853342D01*
X197408297Y-69657614D01*
X197269980Y-69657614D01*
X197269980Y-70261179D01*
X197339138Y-70261179D01*
X197380830Y-70259489D01*
X197402299Y-70253556D01*
X197408297Y-70242293D01*
X197411909Y-70232261D01*
X197426286Y-70234383D01*
X197455264Y-70248580D01*
X197521681Y-70270480D01*
X197592125Y-70268928D01*
X197659623Y-70245147D01*
X197691767Y-70226362D01*
X197716285Y-70206022D01*
X197734196Y-70180573D01*
X197746521Y-70146458D01*
X197754277Y-70100121D01*
X197758484Y-70038007D01*
X197760160Y-69956561D01*
X197760376Y-69893578D01*
X197760376Y-69657614D01*
X197634633Y-69657614D01*
X197634633Y-69853342D01*
X197634633Y-69853342D01*
G37*
X197634633Y-69853342D02*
X197633445Y-69945563D01*
X197629103Y-70015610D01*
X197620442Y-70066381D01*
X197606296Y-70100772D01*
X197585500Y-70121679D01*
X197556890Y-70132000D01*
X197521465Y-70134636D01*
X197484364Y-70131682D01*
X197456182Y-70120889D01*
X197435757Y-70099360D01*
X197421921Y-70064199D01*
X197413509Y-70012510D01*
X197409357Y-69941394D01*
X197408297Y-69853342D01*
X197408297Y-69657614D01*
X197269980Y-69657614D01*
X197269980Y-70261179D01*
X197339138Y-70261179D01*
X197380830Y-70259489D01*
X197402299Y-70253556D01*
X197408297Y-70242293D01*
X197411909Y-70232261D01*
X197426286Y-70234383D01*
X197455264Y-70248580D01*
X197521681Y-70270480D01*
X197592125Y-70268928D01*
X197659623Y-70245147D01*
X197691767Y-70226362D01*
X197716285Y-70206022D01*
X197734196Y-70180573D01*
X197746521Y-70146458D01*
X197754277Y-70100121D01*
X197758484Y-70038007D01*
X197760160Y-69956561D01*
X197760376Y-69893578D01*
X197760376Y-69657614D01*
X197634633Y-69657614D01*
X197634633Y-69853342D01*
G36*
X198017238Y-69665055D02*
G01*
X197953637Y-69699692D01*
X197903877Y-69754372D01*
X197880432Y-69798842D01*
X197870366Y-69838121D01*
X197863844Y-69894116D01*
X197861049Y-69958621D01*
X197862164Y-70023429D01*
X197867374Y-70080334D01*
X197873459Y-70110727D01*
X197893986Y-70152306D01*
X197929537Y-70196468D01*
X197972381Y-70235087D01*
X198014789Y-70260034D01*
X198015823Y-70260430D01*
X198068447Y-70271331D01*
X198130812Y-70271601D01*
X198190076Y-70261676D01*
X198212960Y-70253722D01*
X198271898Y-70220300D01*
X198314110Y-70176511D01*
X198341844Y-70118538D01*
X198357349Y-70042565D01*
X198360857Y-70002771D01*
X198360410Y-69952766D01*
X198225624Y-69952766D01*
X198221083Y-70025732D01*
X198208014Y-70081334D01*
X198187244Y-70116861D01*
X198172448Y-70127020D01*
X198134536Y-70134104D01*
X198089473Y-70132007D01*
X198050513Y-70121812D01*
X198040296Y-70116204D01*
X198013341Y-70083538D01*
X197995549Y-70033545D01*
X197987976Y-69972705D01*
X197991675Y-69907497D01*
X197999943Y-69868253D01*
X198023680Y-69822805D01*
X198061151Y-69794396D01*
X198106280Y-69784573D01*
X198152989Y-69794887D01*
X198188868Y-69820112D01*
X198207723Y-69840925D01*
X198218728Y-69861439D01*
X198223974Y-69889203D01*
X198225551Y-69931762D01*
X198225624Y-69952766D01*
X198360410Y-69952766D01*
X198359906Y-69896580D01*
X198342612Y-69809501D01*
X198308971Y-69741530D01*
X198258982Y-69692664D01*
X198192644Y-69662899D01*
X198178399Y-69659448D01*
X198092790Y-69651345D01*
X198017238Y-69665055D01*
X198017238Y-69665055D01*
G37*
X198017238Y-69665055D02*
X197953637Y-69699692D01*
X197903877Y-69754372D01*
X197880432Y-69798842D01*
X197870366Y-69838121D01*
X197863844Y-69894116D01*
X197861049Y-69958621D01*
X197862164Y-70023429D01*
X197867374Y-70080334D01*
X197873459Y-70110727D01*
X197893986Y-70152306D01*
X197929537Y-70196468D01*
X197972381Y-70235087D01*
X198014789Y-70260034D01*
X198015823Y-70260430D01*
X198068447Y-70271331D01*
X198130812Y-70271601D01*
X198190076Y-70261676D01*
X198212960Y-70253722D01*
X198271898Y-70220300D01*
X198314110Y-70176511D01*
X198341844Y-70118538D01*
X198357349Y-70042565D01*
X198360857Y-70002771D01*
X198360410Y-69952766D01*
X198225624Y-69952766D01*
X198221083Y-70025732D01*
X198208014Y-70081334D01*
X198187244Y-70116861D01*
X198172448Y-70127020D01*
X198134536Y-70134104D01*
X198089473Y-70132007D01*
X198050513Y-70121812D01*
X198040296Y-70116204D01*
X198013341Y-70083538D01*
X197995549Y-70033545D01*
X197987976Y-69972705D01*
X197991675Y-69907497D01*
X197999943Y-69868253D01*
X198023680Y-69822805D01*
X198061151Y-69794396D01*
X198106280Y-69784573D01*
X198152989Y-69794887D01*
X198188868Y-69820112D01*
X198207723Y-69840925D01*
X198218728Y-69861439D01*
X198223974Y-69889203D01*
X198225551Y-69931762D01*
X198225624Y-69952766D01*
X198360410Y-69952766D01*
X198359906Y-69896580D01*
X198342612Y-69809501D01*
X198308971Y-69741530D01*
X198258982Y-69692664D01*
X198192644Y-69662899D01*
X198178399Y-69659448D01*
X198092790Y-69651345D01*
X198017238Y-69665055D01*
G36*
X198613983Y-69655452D02*
G01*
X198566366Y-69664482D01*
X198516966Y-69683370D01*
X198511688Y-69685777D01*
X198474226Y-69705476D01*
X198448283Y-69723781D01*
X198439897Y-69735508D01*
X198447883Y-69754632D01*
X198467280Y-69782850D01*
X198475890Y-69793384D01*
X198511372Y-69834847D01*
X198557115Y-69807858D01*
X198600650Y-69789878D01*
X198650950Y-69780267D01*
X198699188Y-69779660D01*
X198736533Y-69788691D01*
X198745495Y-69794327D01*
X198762563Y-69820171D01*
X198764637Y-69849941D01*
X198751866Y-69873197D01*
X198744312Y-69877708D01*
X198721675Y-69883309D01*
X198681885Y-69889892D01*
X198632834Y-69896183D01*
X198623785Y-69897170D01*
X198545004Y-69910798D01*
X198487864Y-69933946D01*
X198449970Y-69968752D01*
X198428921Y-70017354D01*
X198422365Y-70076718D01*
X198431423Y-70144198D01*
X198460836Y-70197188D01*
X198510722Y-70235783D01*
X198581200Y-70260081D01*
X198659435Y-70269667D01*
X198723234Y-70269552D01*
X198774984Y-70260845D01*
X198810327Y-70248825D01*
X198854983Y-70227880D01*
X198896253Y-70203574D01*
X198910921Y-70192876D01*
X198948643Y-70162084D01*
X198903148Y-70116049D01*
X198857653Y-70070013D01*
X198805928Y-70104243D01*
X198754048Y-70129952D01*
X198698649Y-70143399D01*
X198645395Y-70144818D01*
X198599951Y-70134443D01*
X198567984Y-70112507D01*
X198557662Y-70093998D01*
X198559211Y-70064314D01*
X198584860Y-70041615D01*
X198634540Y-70025940D01*
X198688969Y-70018695D01*
X198772736Y-70004873D01*
X198834967Y-69978796D01*
X198876493Y-69939699D01*
X198898147Y-69886820D01*
X198901147Y-69824126D01*
X198886329Y-69758642D01*
X198852546Y-69709144D01*
X198799495Y-69675408D01*
X198726874Y-69657207D01*
X198673072Y-69653639D01*
X198613983Y-69655452D01*
X198613983Y-69655452D01*
G37*
X198613983Y-69655452D02*
X198566366Y-69664482D01*
X198516966Y-69683370D01*
X198511688Y-69685777D01*
X198474226Y-69705476D01*
X198448283Y-69723781D01*
X198439897Y-69735508D01*
X198447883Y-69754632D01*
X198467280Y-69782850D01*
X198475890Y-69793384D01*
X198511372Y-69834847D01*
X198557115Y-69807858D01*
X198600650Y-69789878D01*
X198650950Y-69780267D01*
X198699188Y-69779660D01*
X198736533Y-69788691D01*
X198745495Y-69794327D01*
X198762563Y-69820171D01*
X198764637Y-69849941D01*
X198751866Y-69873197D01*
X198744312Y-69877708D01*
X198721675Y-69883309D01*
X198681885Y-69889892D01*
X198632834Y-69896183D01*
X198623785Y-69897170D01*
X198545004Y-69910798D01*
X198487864Y-69933946D01*
X198449970Y-69968752D01*
X198428921Y-70017354D01*
X198422365Y-70076718D01*
X198431423Y-70144198D01*
X198460836Y-70197188D01*
X198510722Y-70235783D01*
X198581200Y-70260081D01*
X198659435Y-70269667D01*
X198723234Y-70269552D01*
X198774984Y-70260845D01*
X198810327Y-70248825D01*
X198854983Y-70227880D01*
X198896253Y-70203574D01*
X198910921Y-70192876D01*
X198948643Y-70162084D01*
X198903148Y-70116049D01*
X198857653Y-70070013D01*
X198805928Y-70104243D01*
X198754048Y-70129952D01*
X198698649Y-70143399D01*
X198645395Y-70144818D01*
X198599951Y-70134443D01*
X198567984Y-70112507D01*
X198557662Y-70093998D01*
X198559211Y-70064314D01*
X198584860Y-70041615D01*
X198634540Y-70025940D01*
X198688969Y-70018695D01*
X198772736Y-70004873D01*
X198834967Y-69978796D01*
X198876493Y-69939699D01*
X198898147Y-69886820D01*
X198901147Y-69824126D01*
X198886329Y-69758642D01*
X198852546Y-69709144D01*
X198799495Y-69675408D01*
X198726874Y-69657207D01*
X198673072Y-69653639D01*
X198613983Y-69655452D01*
G36*
X199984699Y-69671614D02*
G01*
X199972168Y-69677514D01*
X199928799Y-69709283D01*
X199887790Y-69755646D01*
X199857168Y-69806696D01*
X199848459Y-69830166D01*
X199840512Y-69872091D01*
X199835774Y-69922757D01*
X199835199Y-69943679D01*
X199835129Y-70009693D01*
X200215083Y-70009693D01*
X200206983Y-70044273D01*
X200187104Y-70085170D01*
X200152347Y-70120514D01*
X200110998Y-70143282D01*
X200084649Y-70148010D01*
X200048916Y-70142273D01*
X200006282Y-70127882D01*
X199991799Y-70121262D01*
X199938240Y-70094513D01*
X199892533Y-70129376D01*
X199866158Y-70152955D01*
X199852124Y-70172417D01*
X199851414Y-70178129D01*
X199863951Y-70191973D01*
X199891428Y-70213012D01*
X199916366Y-70229425D01*
X199983664Y-70258930D01*
X200059110Y-70272284D01*
X200133888Y-70268812D01*
X200193495Y-70250663D01*
X200254941Y-70211784D01*
X200298608Y-70160595D01*
X200325926Y-70094367D01*
X200338322Y-70010371D01*
X200339421Y-69971936D01*
X200335022Y-69883861D01*
X200334482Y-69881299D01*
X200208582Y-69881299D01*
X200205115Y-69889558D01*
X200190863Y-69894113D01*
X200161470Y-69896065D01*
X200112575Y-69896517D01*
X200093748Y-69896525D01*
X200036467Y-69895843D01*
X200000141Y-69893364D01*
X199980604Y-69888443D01*
X199973690Y-69880434D01*
X199973445Y-69877862D01*
X199981336Y-69857423D01*
X200001085Y-69828789D01*
X200009575Y-69818763D01*
X200041094Y-69790408D01*
X200073949Y-69779259D01*
X200091651Y-69778327D01*
X200139539Y-69789981D01*
X200179699Y-69821285D01*
X200205173Y-69866752D01*
X200205625Y-69868233D01*
X200208582Y-69881299D01*
X200334482Y-69881299D01*
X200320392Y-69814510D01*
X200294038Y-69759025D01*
X200261807Y-69719639D01*
X200202217Y-69676931D01*
X200132168Y-69654109D01*
X200057661Y-69652046D01*
X199984699Y-69671614D01*
X199984699Y-69671614D01*
G37*
X199984699Y-69671614D02*
X199972168Y-69677514D01*
X199928799Y-69709283D01*
X199887790Y-69755646D01*
X199857168Y-69806696D01*
X199848459Y-69830166D01*
X199840512Y-69872091D01*
X199835774Y-69922757D01*
X199835199Y-69943679D01*
X199835129Y-70009693D01*
X200215083Y-70009693D01*
X200206983Y-70044273D01*
X200187104Y-70085170D01*
X200152347Y-70120514D01*
X200110998Y-70143282D01*
X200084649Y-70148010D01*
X200048916Y-70142273D01*
X200006282Y-70127882D01*
X199991799Y-70121262D01*
X199938240Y-70094513D01*
X199892533Y-70129376D01*
X199866158Y-70152955D01*
X199852124Y-70172417D01*
X199851414Y-70178129D01*
X199863951Y-70191973D01*
X199891428Y-70213012D01*
X199916366Y-70229425D01*
X199983664Y-70258930D01*
X200059110Y-70272284D01*
X200133888Y-70268812D01*
X200193495Y-70250663D01*
X200254941Y-70211784D01*
X200298608Y-70160595D01*
X200325926Y-70094367D01*
X200338322Y-70010371D01*
X200339421Y-69971936D01*
X200335022Y-69883861D01*
X200334482Y-69881299D01*
X200208582Y-69881299D01*
X200205115Y-69889558D01*
X200190863Y-69894113D01*
X200161470Y-69896065D01*
X200112575Y-69896517D01*
X200093748Y-69896525D01*
X200036467Y-69895843D01*
X200000141Y-69893364D01*
X199980604Y-69888443D01*
X199973690Y-69880434D01*
X199973445Y-69877862D01*
X199981336Y-69857423D01*
X200001085Y-69828789D01*
X200009575Y-69818763D01*
X200041094Y-69790408D01*
X200073949Y-69779259D01*
X200091651Y-69778327D01*
X200139539Y-69789981D01*
X200179699Y-69821285D01*
X200205173Y-69866752D01*
X200205625Y-69868233D01*
X200208582Y-69881299D01*
X200334482Y-69881299D01*
X200320392Y-69814510D01*
X200294038Y-69759025D01*
X200261807Y-69719639D01*
X200202217Y-69676931D01*
X200132168Y-69654109D01*
X200057661Y-69652046D01*
X199984699Y-69671614D01*
G36*
X201166261Y-69664148D02*
G01*
X201100479Y-69693231D01*
X201050540Y-69741793D01*
X201016374Y-69809908D01*
X200997907Y-69897651D01*
X200996583Y-69911351D01*
X200995546Y-70007939D01*
X201008993Y-70092602D01*
X201036108Y-70161221D01*
X201050627Y-70183294D01*
X201101201Y-70230011D01*
X201165609Y-70260268D01*
X201237666Y-70272824D01*
X201311185Y-70266439D01*
X201367072Y-70246772D01*
X201415132Y-70213629D01*
X201454412Y-70170175D01*
X201455092Y-70169158D01*
X201471044Y-70142338D01*
X201481410Y-70115368D01*
X201487688Y-70081332D01*
X201491373Y-70033310D01*
X201492997Y-69993931D01*
X201493672Y-69958219D01*
X201367955Y-69958219D01*
X201366726Y-69993770D01*
X201362266Y-70041094D01*
X201354397Y-70071465D01*
X201340207Y-70093072D01*
X201326917Y-70105694D01*
X201279802Y-70132122D01*
X201230505Y-70135653D01*
X201184593Y-70116639D01*
X201161638Y-70095331D01*
X201145096Y-70073859D01*
X201135421Y-70053313D01*
X201131174Y-70026574D01*
X201130920Y-69986523D01*
X201132228Y-69949638D01*
X201135043Y-69896947D01*
X201139505Y-69862772D01*
X201147548Y-69840480D01*
X201161103Y-69823442D01*
X201171845Y-69813703D01*
X201216777Y-69788123D01*
X201265249Y-69786847D01*
X201305894Y-69801999D01*
X201340567Y-69833642D01*
X201361224Y-69885620D01*
X201367955Y-69958219D01*
X201493672Y-69958219D01*
X201494479Y-69915621D01*
X201491948Y-69857056D01*
X201484362Y-69813007D01*
X201470681Y-69778248D01*
X201449865Y-69747551D01*
X201442147Y-69738436D01*
X201393889Y-69693021D01*
X201342128Y-69666493D01*
X201278828Y-69655379D01*
X201247961Y-69654471D01*
X201166261Y-69664148D01*
X201166261Y-69664148D01*
G37*
X201166261Y-69664148D02*
X201100479Y-69693231D01*
X201050540Y-69741793D01*
X201016374Y-69809908D01*
X200997907Y-69897651D01*
X200996583Y-69911351D01*
X200995546Y-70007939D01*
X201008993Y-70092602D01*
X201036108Y-70161221D01*
X201050627Y-70183294D01*
X201101201Y-70230011D01*
X201165609Y-70260268D01*
X201237666Y-70272824D01*
X201311185Y-70266439D01*
X201367072Y-70246772D01*
X201415132Y-70213629D01*
X201454412Y-70170175D01*
X201455092Y-70169158D01*
X201471044Y-70142338D01*
X201481410Y-70115368D01*
X201487688Y-70081332D01*
X201491373Y-70033310D01*
X201492997Y-69993931D01*
X201493672Y-69958219D01*
X201367955Y-69958219D01*
X201366726Y-69993770D01*
X201362266Y-70041094D01*
X201354397Y-70071465D01*
X201340207Y-70093072D01*
X201326917Y-70105694D01*
X201279802Y-70132122D01*
X201230505Y-70135653D01*
X201184593Y-70116639D01*
X201161638Y-70095331D01*
X201145096Y-70073859D01*
X201135421Y-70053313D01*
X201131174Y-70026574D01*
X201130920Y-69986523D01*
X201132228Y-69949638D01*
X201135043Y-69896947D01*
X201139505Y-69862772D01*
X201147548Y-69840480D01*
X201161103Y-69823442D01*
X201171845Y-69813703D01*
X201216777Y-69788123D01*
X201265249Y-69786847D01*
X201305894Y-69801999D01*
X201340567Y-69833642D01*
X201361224Y-69885620D01*
X201367955Y-69958219D01*
X201493672Y-69958219D01*
X201494479Y-69915621D01*
X201491948Y-69857056D01*
X201484362Y-69813007D01*
X201470681Y-69778248D01*
X201449865Y-69747551D01*
X201442147Y-69738436D01*
X201393889Y-69693021D01*
X201342128Y-69666493D01*
X201278828Y-69655379D01*
X201247961Y-69654471D01*
X201166261Y-69664148D01*
G36*
X196595419Y-70603970D02*
G01*
X196535315Y-70619597D01*
X196484979Y-70651848D01*
X196460607Y-70675940D01*
X196420655Y-70732895D01*
X196397758Y-70798965D01*
X196389892Y-70880182D01*
X196389852Y-70886748D01*
X196389782Y-70952763D01*
X196769736Y-70952763D01*
X196761637Y-70987342D01*
X196747013Y-71018659D01*
X196721419Y-71051291D01*
X196716065Y-71056500D01*
X196670057Y-71084694D01*
X196617590Y-71089475D01*
X196557197Y-71070926D01*
X196546960Y-71065931D01*
X196515561Y-71050745D01*
X196494530Y-71042094D01*
X196490861Y-71041293D01*
X196478052Y-71049063D01*
X196453622Y-71068072D01*
X196441221Y-71078460D01*
X196415524Y-71102321D01*
X196407085Y-71118077D01*
X196412942Y-71132571D01*
X196416072Y-71136534D01*
X196437275Y-71153879D01*
X196472262Y-71174959D01*
X196496663Y-71187265D01*
X196565928Y-71208946D01*
X196642612Y-71215971D01*
X196715235Y-71207647D01*
X196735574Y-71201686D01*
X196798524Y-71167952D01*
X196845185Y-71116045D01*
X196875827Y-71045459D01*
X196890718Y-70955692D01*
X196892353Y-70908753D01*
X196887579Y-70840413D01*
X196767010Y-70840413D01*
X196755348Y-70845465D01*
X196724002Y-70849429D01*
X196678429Y-70851768D01*
X196647554Y-70852169D01*
X196592019Y-70851783D01*
X196556967Y-70849975D01*
X196537738Y-70845773D01*
X196529670Y-70838203D01*
X196528099Y-70827218D01*
X196538879Y-70793381D01*
X196566020Y-70759940D01*
X196601723Y-70734272D01*
X196637440Y-70723772D01*
X196685952Y-70733086D01*
X196727947Y-70760013D01*
X196757064Y-70798827D01*
X196767010Y-70840413D01*
X196887579Y-70840413D01*
X196885401Y-70809236D01*
X196863945Y-70729949D01*
X196827530Y-70670263D01*
X196775703Y-70629549D01*
X196708010Y-70607179D01*
X196671338Y-70602871D01*
X196595419Y-70603970D01*
X196595419Y-70603970D01*
G37*
X196595419Y-70603970D02*
X196535315Y-70619597D01*
X196484979Y-70651848D01*
X196460607Y-70675940D01*
X196420655Y-70732895D01*
X196397758Y-70798965D01*
X196389892Y-70880182D01*
X196389852Y-70886748D01*
X196389782Y-70952763D01*
X196769736Y-70952763D01*
X196761637Y-70987342D01*
X196747013Y-71018659D01*
X196721419Y-71051291D01*
X196716065Y-71056500D01*
X196670057Y-71084694D01*
X196617590Y-71089475D01*
X196557197Y-71070926D01*
X196546960Y-71065931D01*
X196515561Y-71050745D01*
X196494530Y-71042094D01*
X196490861Y-71041293D01*
X196478052Y-71049063D01*
X196453622Y-71068072D01*
X196441221Y-71078460D01*
X196415524Y-71102321D01*
X196407085Y-71118077D01*
X196412942Y-71132571D01*
X196416072Y-71136534D01*
X196437275Y-71153879D01*
X196472262Y-71174959D01*
X196496663Y-71187265D01*
X196565928Y-71208946D01*
X196642612Y-71215971D01*
X196715235Y-71207647D01*
X196735574Y-71201686D01*
X196798524Y-71167952D01*
X196845185Y-71116045D01*
X196875827Y-71045459D01*
X196890718Y-70955692D01*
X196892353Y-70908753D01*
X196887579Y-70840413D01*
X196767010Y-70840413D01*
X196755348Y-70845465D01*
X196724002Y-70849429D01*
X196678429Y-70851768D01*
X196647554Y-70852169D01*
X196592019Y-70851783D01*
X196556967Y-70849975D01*
X196537738Y-70845773D01*
X196529670Y-70838203D01*
X196528099Y-70827218D01*
X196538879Y-70793381D01*
X196566020Y-70759940D01*
X196601723Y-70734272D01*
X196637440Y-70723772D01*
X196685952Y-70733086D01*
X196727947Y-70760013D01*
X196757064Y-70798827D01*
X196767010Y-70840413D01*
X196887579Y-70840413D01*
X196885401Y-70809236D01*
X196863945Y-70729949D01*
X196827530Y-70670263D01*
X196775703Y-70629549D01*
X196708010Y-70607179D01*
X196671338Y-70602871D01*
X196595419Y-70603970D01*
G36*
X196992745Y-70600486D02*
G01*
X196944405Y-70610015D01*
X196916886Y-70624125D01*
X196887936Y-70647568D01*
X196929124Y-70699571D01*
X196954518Y-70731064D01*
X196971762Y-70746428D01*
X196988898Y-70748776D01*
X197013973Y-70741217D01*
X197025743Y-70736941D01*
X197073730Y-70730631D01*
X197117676Y-70744156D01*
X197149940Y-70774710D01*
X197155181Y-70784452D01*
X197160888Y-70810258D01*
X197165294Y-70857817D01*
X197168189Y-70923758D01*
X197169369Y-71004710D01*
X197169386Y-71016226D01*
X197169386Y-71216822D01*
X197307703Y-71216822D01*
X197307703Y-70600683D01*
X197238544Y-70600683D01*
X197198667Y-70601725D01*
X197177893Y-70606358D01*
X197170211Y-70616849D01*
X197169386Y-70626745D01*
X197169386Y-70652806D01*
X197136255Y-70626745D01*
X197098265Y-70608965D01*
X197047230Y-70600174D01*
X196992745Y-70600486D01*
X196992745Y-70600486D01*
G37*
X196992745Y-70600486D02*
X196944405Y-70610015D01*
X196916886Y-70624125D01*
X196887936Y-70647568D01*
X196929124Y-70699571D01*
X196954518Y-70731064D01*
X196971762Y-70746428D01*
X196988898Y-70748776D01*
X197013973Y-70741217D01*
X197025743Y-70736941D01*
X197073730Y-70730631D01*
X197117676Y-70744156D01*
X197149940Y-70774710D01*
X197155181Y-70784452D01*
X197160888Y-70810258D01*
X197165294Y-70857817D01*
X197168189Y-70923758D01*
X197169369Y-71004710D01*
X197169386Y-71016226D01*
X197169386Y-71216822D01*
X197307703Y-71216822D01*
X197307703Y-70600683D01*
X197238544Y-70600683D01*
X197198667Y-70601725D01*
X197177893Y-70606358D01*
X197170211Y-70616849D01*
X197169386Y-70626745D01*
X197169386Y-70652806D01*
X197136255Y-70626745D01*
X197098265Y-70608965D01*
X197047230Y-70600174D01*
X196992745Y-70600486D01*
G36*
X197589589Y-70604417D02*
G01*
X197536589Y-70617290D01*
X197521269Y-70624110D01*
X197491572Y-70641974D01*
X197468780Y-70662093D01*
X197451917Y-70687962D01*
X197440002Y-70723073D01*
X197432058Y-70770920D01*
X197427106Y-70834996D01*
X197424169Y-70918794D01*
X197423053Y-70974768D01*
X197418948Y-71216822D01*
X197489068Y-71216822D01*
X197531607Y-71215038D01*
X197553524Y-71208942D01*
X197559188Y-71198706D01*
X197562179Y-71187637D01*
X197575549Y-71189754D01*
X197593767Y-71198629D01*
X197639376Y-71212233D01*
X197697993Y-71215899D01*
X197759646Y-71209903D01*
X197814362Y-71194521D01*
X197819270Y-71192386D01*
X197869277Y-71157255D01*
X197902244Y-71108419D01*
X197917413Y-71051333D01*
X197916254Y-71030824D01*
X197792492Y-71030824D01*
X197781587Y-71058425D01*
X197749255Y-71078204D01*
X197697090Y-71088819D01*
X197669213Y-71090228D01*
X197622753Y-71086620D01*
X197591871Y-71072597D01*
X197584336Y-71065931D01*
X197563924Y-71029666D01*
X197559188Y-70996773D01*
X197559188Y-70952763D01*
X197620487Y-70952763D01*
X197691744Y-70956395D01*
X197741724Y-70967818D01*
X197773304Y-70987824D01*
X197780374Y-70996743D01*
X197792492Y-71030824D01*
X197916254Y-71030824D01*
X197914029Y-70991456D01*
X197891337Y-70934244D01*
X197860376Y-70895580D01*
X197841624Y-70878864D01*
X197823267Y-70867878D01*
X197799381Y-70861180D01*
X197764043Y-70857326D01*
X197711331Y-70854873D01*
X197690423Y-70854168D01*
X197559188Y-70849879D01*
X197559380Y-70810158D01*
X197564463Y-70768405D01*
X197582838Y-70743158D01*
X197619961Y-70727030D01*
X197620957Y-70726742D01*
X197673590Y-70720400D01*
X197725094Y-70728684D01*
X197763370Y-70748827D01*
X197778728Y-70758773D01*
X197795270Y-70757397D01*
X197820725Y-70742987D01*
X197835672Y-70732817D01*
X197864909Y-70711088D01*
X197883020Y-70694800D01*
X197885926Y-70690137D01*
X197873960Y-70666005D01*
X197838604Y-70637185D01*
X197823247Y-70627461D01*
X197779099Y-70610714D01*
X197719602Y-70601227D01*
X197653513Y-70599095D01*
X197589589Y-70604417D01*
X197589589Y-70604417D01*
G37*
X197589589Y-70604417D02*
X197536589Y-70617290D01*
X197521269Y-70624110D01*
X197491572Y-70641974D01*
X197468780Y-70662093D01*
X197451917Y-70687962D01*
X197440002Y-70723073D01*
X197432058Y-70770920D01*
X197427106Y-70834996D01*
X197424169Y-70918794D01*
X197423053Y-70974768D01*
X197418948Y-71216822D01*
X197489068Y-71216822D01*
X197531607Y-71215038D01*
X197553524Y-71208942D01*
X197559188Y-71198706D01*
X197562179Y-71187637D01*
X197575549Y-71189754D01*
X197593767Y-71198629D01*
X197639376Y-71212233D01*
X197697993Y-71215899D01*
X197759646Y-71209903D01*
X197814362Y-71194521D01*
X197819270Y-71192386D01*
X197869277Y-71157255D01*
X197902244Y-71108419D01*
X197917413Y-71051333D01*
X197916254Y-71030824D01*
X197792492Y-71030824D01*
X197781587Y-71058425D01*
X197749255Y-71078204D01*
X197697090Y-71088819D01*
X197669213Y-71090228D01*
X197622753Y-71086620D01*
X197591871Y-71072597D01*
X197584336Y-71065931D01*
X197563924Y-71029666D01*
X197559188Y-70996773D01*
X197559188Y-70952763D01*
X197620487Y-70952763D01*
X197691744Y-70956395D01*
X197741724Y-70967818D01*
X197773304Y-70987824D01*
X197780374Y-70996743D01*
X197792492Y-71030824D01*
X197916254Y-71030824D01*
X197914029Y-70991456D01*
X197891337Y-70934244D01*
X197860376Y-70895580D01*
X197841624Y-70878864D01*
X197823267Y-70867878D01*
X197799381Y-70861180D01*
X197764043Y-70857326D01*
X197711331Y-70854873D01*
X197690423Y-70854168D01*
X197559188Y-70849879D01*
X197559380Y-70810158D01*
X197564463Y-70768405D01*
X197582838Y-70743158D01*
X197619961Y-70727030D01*
X197620957Y-70726742D01*
X197673590Y-70720400D01*
X197725094Y-70728684D01*
X197763370Y-70748827D01*
X197778728Y-70758773D01*
X197795270Y-70757397D01*
X197820725Y-70742987D01*
X197835672Y-70732817D01*
X197864909Y-70711088D01*
X197883020Y-70694800D01*
X197885926Y-70690137D01*
X197873960Y-70666005D01*
X197838604Y-70637185D01*
X197823247Y-70627461D01*
X197779099Y-70610714D01*
X197719602Y-70601227D01*
X197653513Y-70599095D01*
X197589589Y-70604417D01*
G36*
X198346476Y-70603237D02*
G01*
X198296745Y-70606971D01*
X198166709Y-70996773D01*
X198146322Y-70927614D01*
X198134054Y-70884874D01*
X198117915Y-70827115D01*
X198100488Y-70763625D01*
X198091274Y-70729570D01*
X198056612Y-70600683D01*
X197913609Y-70600683D01*
X197956354Y-70735857D01*
X197977404Y-70802342D01*
X198002833Y-70882539D01*
X198029390Y-70966193D01*
X198053098Y-71040782D01*
X198107098Y-71210535D01*
X198165402Y-71214328D01*
X198223705Y-71218122D01*
X198255321Y-71113734D01*
X198274818Y-71048889D01*
X198296096Y-70977400D01*
X198314692Y-70914263D01*
X198315426Y-70911750D01*
X198329316Y-70868969D01*
X198341571Y-70839779D01*
X198350154Y-70828741D01*
X198351918Y-70830018D01*
X198358109Y-70847130D01*
X198369872Y-70883787D01*
X198385775Y-70935378D01*
X198404386Y-70997294D01*
X198414457Y-71031352D01*
X198468993Y-71216822D01*
X198584736Y-71216822D01*
X198677263Y-70924471D01*
X198703256Y-70842462D01*
X198726934Y-70767987D01*
X198747180Y-70704544D01*
X198762874Y-70655632D01*
X198772898Y-70624749D01*
X198775945Y-70615726D01*
X198773533Y-70606487D01*
X198754592Y-70602441D01*
X198715177Y-70602846D01*
X198709007Y-70603152D01*
X198635914Y-70606971D01*
X198588043Y-70783010D01*
X198570447Y-70847211D01*
X198554723Y-70903649D01*
X198542254Y-70947422D01*
X198534426Y-70973630D01*
X198532980Y-70977903D01*
X198526986Y-70972990D01*
X198514899Y-70947532D01*
X198498107Y-70904997D01*
X198477997Y-70848850D01*
X198460997Y-70798130D01*
X198396206Y-70599504D01*
X198346476Y-70603237D01*
X198346476Y-70603237D01*
G37*
X198346476Y-70603237D02*
X198296745Y-70606971D01*
X198166709Y-70996773D01*
X198146322Y-70927614D01*
X198134054Y-70884874D01*
X198117915Y-70827115D01*
X198100488Y-70763625D01*
X198091274Y-70729570D01*
X198056612Y-70600683D01*
X197913609Y-70600683D01*
X197956354Y-70735857D01*
X197977404Y-70802342D01*
X198002833Y-70882539D01*
X198029390Y-70966193D01*
X198053098Y-71040782D01*
X198107098Y-71210535D01*
X198165402Y-71214328D01*
X198223705Y-71218122D01*
X198255321Y-71113734D01*
X198274818Y-71048889D01*
X198296096Y-70977400D01*
X198314692Y-70914263D01*
X198315426Y-70911750D01*
X198329316Y-70868969D01*
X198341571Y-70839779D01*
X198350154Y-70828741D01*
X198351918Y-70830018D01*
X198358109Y-70847130D01*
X198369872Y-70883787D01*
X198385775Y-70935378D01*
X198404386Y-70997294D01*
X198414457Y-71031352D01*
X198468993Y-71216822D01*
X198584736Y-71216822D01*
X198677263Y-70924471D01*
X198703256Y-70842462D01*
X198726934Y-70767987D01*
X198747180Y-70704544D01*
X198762874Y-70655632D01*
X198772898Y-70624749D01*
X198775945Y-70615726D01*
X198773533Y-70606487D01*
X198754592Y-70602441D01*
X198715177Y-70602846D01*
X198709007Y-70603152D01*
X198635914Y-70606971D01*
X198588043Y-70783010D01*
X198570447Y-70847211D01*
X198554723Y-70903649D01*
X198542254Y-70947422D01*
X198534426Y-70973630D01*
X198532980Y-70977903D01*
X198526986Y-70972990D01*
X198514899Y-70947532D01*
X198498107Y-70904997D01*
X198477997Y-70848850D01*
X198460997Y-70798130D01*
X198396206Y-70599504D01*
X198346476Y-70603237D01*
G36*
X198829188Y-71216822D02*
G01*
X198898346Y-71216822D01*
X198938488Y-71215645D01*
X198959394Y-71210772D01*
X198966922Y-71200186D01*
X198967505Y-71193029D01*
X198968774Y-71178676D01*
X198976779Y-71175923D01*
X198997815Y-71184771D01*
X199014173Y-71193029D01*
X199076977Y-71212597D01*
X199145248Y-71213729D01*
X199200752Y-71199135D01*
X199252438Y-71163877D01*
X199291838Y-71111835D01*
X199313413Y-71050450D01*
X199313962Y-71047018D01*
X199317167Y-71009571D01*
X199318761Y-70955813D01*
X199318633Y-70915155D01*
X199181279Y-70915155D01*
X199178097Y-70969194D01*
X199170859Y-71013735D01*
X199161060Y-71038888D01*
X199123989Y-71073260D01*
X199079974Y-71085582D01*
X199034584Y-71075618D01*
X198995797Y-71045895D01*
X198981108Y-71025905D01*
X198972519Y-71002050D01*
X198968496Y-70967230D01*
X198967505Y-70914930D01*
X198969278Y-70863139D01*
X198973963Y-70817634D01*
X198980603Y-70787181D01*
X198981710Y-70784452D01*
X199008491Y-70752000D01*
X199047579Y-70734183D01*
X199091315Y-70731306D01*
X199132038Y-70743674D01*
X199162087Y-70771593D01*
X199165204Y-70777148D01*
X199174961Y-70811022D01*
X199180277Y-70859728D01*
X199181279Y-70915155D01*
X199318633Y-70915155D01*
X199318568Y-70894540D01*
X199317664Y-70861563D01*
X199311514Y-70779981D01*
X199298733Y-70718730D01*
X199277471Y-70673449D01*
X199245878Y-70639779D01*
X199215207Y-70620014D01*
X199172354Y-70606120D01*
X199119056Y-70601354D01*
X199064480Y-70605236D01*
X199017792Y-70617282D01*
X198993124Y-70631693D01*
X198967505Y-70654878D01*
X198967505Y-70361773D01*
X198829188Y-70361773D01*
X198829188Y-71216822D01*
X198829188Y-71216822D01*
G37*
X198829188Y-71216822D02*
X198898346Y-71216822D01*
X198938488Y-71215645D01*
X198959394Y-71210772D01*
X198966922Y-71200186D01*
X198967505Y-71193029D01*
X198968774Y-71178676D01*
X198976779Y-71175923D01*
X198997815Y-71184771D01*
X199014173Y-71193029D01*
X199076977Y-71212597D01*
X199145248Y-71213729D01*
X199200752Y-71199135D01*
X199252438Y-71163877D01*
X199291838Y-71111835D01*
X199313413Y-71050450D01*
X199313962Y-71047018D01*
X199317167Y-71009571D01*
X199318761Y-70955813D01*
X199318633Y-70915155D01*
X199181279Y-70915155D01*
X199178097Y-70969194D01*
X199170859Y-71013735D01*
X199161060Y-71038888D01*
X199123989Y-71073260D01*
X199079974Y-71085582D01*
X199034584Y-71075618D01*
X198995797Y-71045895D01*
X198981108Y-71025905D01*
X198972519Y-71002050D01*
X198968496Y-70967230D01*
X198967505Y-70914930D01*
X198969278Y-70863139D01*
X198973963Y-70817634D01*
X198980603Y-70787181D01*
X198981710Y-70784452D01*
X199008491Y-70752000D01*
X199047579Y-70734183D01*
X199091315Y-70731306D01*
X199132038Y-70743674D01*
X199162087Y-70771593D01*
X199165204Y-70777148D01*
X199174961Y-70811022D01*
X199180277Y-70859728D01*
X199181279Y-70915155D01*
X199318633Y-70915155D01*
X199318568Y-70894540D01*
X199317664Y-70861563D01*
X199311514Y-70779981D01*
X199298733Y-70718730D01*
X199277471Y-70673449D01*
X199245878Y-70639779D01*
X199215207Y-70620014D01*
X199172354Y-70606120D01*
X199119056Y-70601354D01*
X199064480Y-70605236D01*
X199017792Y-70617282D01*
X198993124Y-70631693D01*
X198967505Y-70654878D01*
X198967505Y-70361773D01*
X198829188Y-70361773D01*
X198829188Y-71216822D01*
G36*
X199621356Y-70602020D02*
G01*
X199602539Y-70607660D01*
X199596473Y-70620053D01*
X199596218Y-70625647D01*
X199595129Y-70641230D01*
X199587632Y-70643676D01*
X199567381Y-70632993D01*
X199555351Y-70625694D01*
X199517400Y-70610063D01*
X199472072Y-70602334D01*
X199424544Y-70601740D01*
X199379995Y-70607513D01*
X199343602Y-70618884D01*
X199320543Y-70635088D01*
X199315996Y-70655355D01*
X199318291Y-70660843D01*
X199335020Y-70683626D01*
X199360963Y-70711647D01*
X199365655Y-70716177D01*
X199390383Y-70737005D01*
X199411718Y-70743735D01*
X199441555Y-70739038D01*
X199453508Y-70735917D01*
X199490705Y-70728421D01*
X199516859Y-70731792D01*
X199538946Y-70743681D01*
X199559178Y-70759635D01*
X199574079Y-70779700D01*
X199584434Y-70807702D01*
X199591029Y-70847467D01*
X199594649Y-70902823D01*
X199596078Y-70977594D01*
X199596218Y-71022740D01*
X199596218Y-71216822D01*
X199721960Y-71216822D01*
X199721960Y-70600683D01*
X199659089Y-70600683D01*
X199621356Y-70602020D01*
X199621356Y-70602020D01*
G37*
X199621356Y-70602020D02*
X199602539Y-70607660D01*
X199596473Y-70620053D01*
X199596218Y-70625647D01*
X199595129Y-70641230D01*
X199587632Y-70643676D01*
X199567381Y-70632993D01*
X199555351Y-70625694D01*
X199517400Y-70610063D01*
X199472072Y-70602334D01*
X199424544Y-70601740D01*
X199379995Y-70607513D01*
X199343602Y-70618884D01*
X199320543Y-70635088D01*
X199315996Y-70655355D01*
X199318291Y-70660843D01*
X199335020Y-70683626D01*
X199360963Y-70711647D01*
X199365655Y-70716177D01*
X199390383Y-70737005D01*
X199411718Y-70743735D01*
X199441555Y-70739038D01*
X199453508Y-70735917D01*
X199490705Y-70728421D01*
X199516859Y-70731792D01*
X199538946Y-70743681D01*
X199559178Y-70759635D01*
X199574079Y-70779700D01*
X199584434Y-70807702D01*
X199591029Y-70847467D01*
X199594649Y-70902823D01*
X199596078Y-70977594D01*
X199596218Y-71022740D01*
X199596218Y-71216822D01*
X199721960Y-71216822D01*
X199721960Y-70600683D01*
X199659089Y-70600683D01*
X199621356Y-70602020D01*
G36*
X200012210Y-70605555D02*
G01*
X199953055Y-70621339D01*
X199908023Y-70649948D01*
X199876246Y-70687419D01*
X199866366Y-70703411D01*
X199859073Y-70720163D01*
X199853974Y-70741592D01*
X199850679Y-70771616D01*
X199848797Y-70814154D01*
X199847937Y-70873122D01*
X199847707Y-70952440D01*
X199847703Y-70973484D01*
X199847703Y-71216822D01*
X199908059Y-71216822D01*
X199946557Y-71214126D01*
X199975023Y-71207295D01*
X199982155Y-71203083D01*
X200001652Y-71195813D01*
X200021566Y-71203083D01*
X200054353Y-71212160D01*
X200101978Y-71215813D01*
X200154764Y-71214228D01*
X200203036Y-71207589D01*
X200231218Y-71199072D01*
X200285753Y-71164063D01*
X200319835Y-71115479D01*
X200335157Y-71050882D01*
X200335299Y-71049223D01*
X200333955Y-71020566D01*
X200212356Y-71020566D01*
X200201726Y-71053161D01*
X200184410Y-71071505D01*
X200149652Y-71085379D01*
X200103773Y-71090917D01*
X200056988Y-71088191D01*
X200019514Y-71077274D01*
X200009015Y-71070269D01*
X199990668Y-71037904D01*
X199986020Y-71001111D01*
X199986020Y-70952763D01*
X200055582Y-70952763D01*
X200121667Y-70957850D01*
X200171764Y-70972263D01*
X200202929Y-70994729D01*
X200212356Y-71020566D01*
X200333955Y-71020566D01*
X200331987Y-70978647D01*
X200308710Y-70922845D01*
X200264948Y-70880647D01*
X200258899Y-70876808D01*
X200232907Y-70864309D01*
X200200735Y-70856740D01*
X200155760Y-70853061D01*
X200102331Y-70852216D01*
X199986020Y-70852169D01*
X199986020Y-70803411D01*
X199990953Y-70765581D01*
X200003543Y-70740236D01*
X200005017Y-70738887D01*
X200033034Y-70727800D01*
X200075326Y-70723503D01*
X200122064Y-70725615D01*
X200163418Y-70733756D01*
X200187957Y-70745965D01*
X200201253Y-70755746D01*
X200215294Y-70757613D01*
X200234671Y-70749600D01*
X200263976Y-70729739D01*
X200307803Y-70696063D01*
X200311825Y-70692909D01*
X200309764Y-70681236D01*
X200292568Y-70661822D01*
X200266433Y-70640248D01*
X200237552Y-70622096D01*
X200228478Y-70617809D01*
X200195380Y-70609256D01*
X200146880Y-70603155D01*
X200092695Y-70600708D01*
X200090161Y-70600703D01*
X200012210Y-70605555D01*
X200012210Y-70605555D01*
G37*
X200012210Y-70605555D02*
X199953055Y-70621339D01*
X199908023Y-70649948D01*
X199876246Y-70687419D01*
X199866366Y-70703411D01*
X199859073Y-70720163D01*
X199853974Y-70741592D01*
X199850679Y-70771616D01*
X199848797Y-70814154D01*
X199847937Y-70873122D01*
X199847707Y-70952440D01*
X199847703Y-70973484D01*
X199847703Y-71216822D01*
X199908059Y-71216822D01*
X199946557Y-71214126D01*
X199975023Y-71207295D01*
X199982155Y-71203083D01*
X200001652Y-71195813D01*
X200021566Y-71203083D01*
X200054353Y-71212160D01*
X200101978Y-71215813D01*
X200154764Y-71214228D01*
X200203036Y-71207589D01*
X200231218Y-71199072D01*
X200285753Y-71164063D01*
X200319835Y-71115479D01*
X200335157Y-71050882D01*
X200335299Y-71049223D01*
X200333955Y-71020566D01*
X200212356Y-71020566D01*
X200201726Y-71053161D01*
X200184410Y-71071505D01*
X200149652Y-71085379D01*
X200103773Y-71090917D01*
X200056988Y-71088191D01*
X200019514Y-71077274D01*
X200009015Y-71070269D01*
X199990668Y-71037904D01*
X199986020Y-71001111D01*
X199986020Y-70952763D01*
X200055582Y-70952763D01*
X200121667Y-70957850D01*
X200171764Y-70972263D01*
X200202929Y-70994729D01*
X200212356Y-71020566D01*
X200333955Y-71020566D01*
X200331987Y-70978647D01*
X200308710Y-70922845D01*
X200264948Y-70880647D01*
X200258899Y-70876808D01*
X200232907Y-70864309D01*
X200200735Y-70856740D01*
X200155760Y-70853061D01*
X200102331Y-70852216D01*
X199986020Y-70852169D01*
X199986020Y-70803411D01*
X199990953Y-70765581D01*
X200003543Y-70740236D01*
X200005017Y-70738887D01*
X200033034Y-70727800D01*
X200075326Y-70723503D01*
X200122064Y-70725615D01*
X200163418Y-70733756D01*
X200187957Y-70745965D01*
X200201253Y-70755746D01*
X200215294Y-70757613D01*
X200234671Y-70749600D01*
X200263976Y-70729739D01*
X200307803Y-70696063D01*
X200311825Y-70692909D01*
X200309764Y-70681236D01*
X200292568Y-70661822D01*
X200266433Y-70640248D01*
X200237552Y-70622096D01*
X200228478Y-70617809D01*
X200195380Y-70609256D01*
X200146880Y-70603155D01*
X200092695Y-70600708D01*
X200090161Y-70600703D01*
X200012210Y-70605555D01*
G36*
X200536759Y-69668184D02*
G01*
X200510247Y-69681282D01*
X200477553Y-69704106D01*
X200453725Y-69728996D01*
X200437406Y-69760249D01*
X200427240Y-69802166D01*
X200421872Y-69859044D01*
X200419944Y-69935184D01*
X200419831Y-69967917D01*
X200420161Y-70039656D01*
X200421527Y-70090927D01*
X200424500Y-70126404D01*
X200429649Y-70150763D01*
X200437543Y-70168680D01*
X200445757Y-70180902D01*
X200498187Y-70232905D01*
X200559930Y-70264184D01*
X200626536Y-70273592D01*
X200693558Y-70259980D01*
X200714792Y-70250354D01*
X200765624Y-70223859D01*
X200765624Y-70639052D01*
X200728525Y-70619868D01*
X200679643Y-70605025D01*
X200619561Y-70601222D01*
X200559564Y-70608243D01*
X200514256Y-70624013D01*
X200476675Y-70654047D01*
X200444564Y-70697024D01*
X200442150Y-70701436D01*
X200431967Y-70722221D01*
X200424530Y-70743170D01*
X200419411Y-70768548D01*
X200416181Y-70802618D01*
X200414413Y-70849641D01*
X200413677Y-70913882D01*
X200413544Y-70986176D01*
X200413544Y-71216822D01*
X200551861Y-71216822D01*
X200551861Y-70791533D01*
X200590549Y-70758979D01*
X200630738Y-70732940D01*
X200668797Y-70728205D01*
X200707066Y-70740389D01*
X200727462Y-70752320D01*
X200742642Y-70769313D01*
X200753438Y-70794995D01*
X200760683Y-70832991D01*
X200765208Y-70886926D01*
X200767844Y-70960425D01*
X200768772Y-71009347D01*
X200771911Y-71210535D01*
X200837926Y-71214336D01*
X200903940Y-71218136D01*
X200903940Y-69969650D01*
X200765624Y-69969650D01*
X200762097Y-70039254D01*
X200750215Y-70087569D01*
X200728020Y-70117631D01*
X200693559Y-70132471D01*
X200658742Y-70135436D01*
X200619329Y-70132028D01*
X200593171Y-70118617D01*
X200576814Y-70100896D01*
X200563937Y-70081835D01*
X200556272Y-70060601D01*
X200552861Y-70030849D01*
X200552749Y-69986236D01*
X200553897Y-69948880D01*
X200556532Y-69892604D01*
X200560456Y-69855658D01*
X200567063Y-69832223D01*
X200577749Y-69816480D01*
X200587833Y-69807380D01*
X200629970Y-69787537D01*
X200679840Y-69784332D01*
X200708476Y-69791168D01*
X200736828Y-69815464D01*
X200755609Y-69862728D01*
X200764712Y-69932624D01*
X200765624Y-69969650D01*
X200903940Y-69969650D01*
X200903940Y-69657614D01*
X200834782Y-69657614D01*
X200793260Y-69659256D01*
X200771838Y-69665087D01*
X200765626Y-69676461D01*
X200765624Y-69676798D01*
X200762742Y-69687938D01*
X200750030Y-69686673D01*
X200724757Y-69674433D01*
X200665869Y-69655707D01*
X200599615Y-69653739D01*
X200536759Y-69668184D01*
X200536759Y-69668184D01*
G37*
X200536759Y-69668184D02*
X200510247Y-69681282D01*
X200477553Y-69704106D01*
X200453725Y-69728996D01*
X200437406Y-69760249D01*
X200427240Y-69802166D01*
X200421872Y-69859044D01*
X200419944Y-69935184D01*
X200419831Y-69967917D01*
X200420161Y-70039656D01*
X200421527Y-70090927D01*
X200424500Y-70126404D01*
X200429649Y-70150763D01*
X200437543Y-70168680D01*
X200445757Y-70180902D01*
X200498187Y-70232905D01*
X200559930Y-70264184D01*
X200626536Y-70273592D01*
X200693558Y-70259980D01*
X200714792Y-70250354D01*
X200765624Y-70223859D01*
X200765624Y-70639052D01*
X200728525Y-70619868D01*
X200679643Y-70605025D01*
X200619561Y-70601222D01*
X200559564Y-70608243D01*
X200514256Y-70624013D01*
X200476675Y-70654047D01*
X200444564Y-70697024D01*
X200442150Y-70701436D01*
X200431967Y-70722221D01*
X200424530Y-70743170D01*
X200419411Y-70768548D01*
X200416181Y-70802618D01*
X200414413Y-70849641D01*
X200413677Y-70913882D01*
X200413544Y-70986176D01*
X200413544Y-71216822D01*
X200551861Y-71216822D01*
X200551861Y-70791533D01*
X200590549Y-70758979D01*
X200630738Y-70732940D01*
X200668797Y-70728205D01*
X200707066Y-70740389D01*
X200727462Y-70752320D01*
X200742642Y-70769313D01*
X200753438Y-70794995D01*
X200760683Y-70832991D01*
X200765208Y-70886926D01*
X200767844Y-70960425D01*
X200768772Y-71009347D01*
X200771911Y-71210535D01*
X200837926Y-71214336D01*
X200903940Y-71218136D01*
X200903940Y-69969650D01*
X200765624Y-69969650D01*
X200762097Y-70039254D01*
X200750215Y-70087569D01*
X200728020Y-70117631D01*
X200693559Y-70132471D01*
X200658742Y-70135436D01*
X200619329Y-70132028D01*
X200593171Y-70118617D01*
X200576814Y-70100896D01*
X200563937Y-70081835D01*
X200556272Y-70060601D01*
X200552861Y-70030849D01*
X200552749Y-69986236D01*
X200553897Y-69948880D01*
X200556532Y-69892604D01*
X200560456Y-69855658D01*
X200567063Y-69832223D01*
X200577749Y-69816480D01*
X200587833Y-69807380D01*
X200629970Y-69787537D01*
X200679840Y-69784332D01*
X200708476Y-69791168D01*
X200736828Y-69815464D01*
X200755609Y-69862728D01*
X200764712Y-69932624D01*
X200765624Y-69969650D01*
X200903940Y-69969650D01*
X200903940Y-69657614D01*
X200834782Y-69657614D01*
X200793260Y-69659256D01*
X200771838Y-69665087D01*
X200765626Y-69676461D01*
X200765624Y-69676798D01*
X200762742Y-69687938D01*
X200750030Y-69686673D01*
X200724757Y-69674433D01*
X200665869Y-69655707D01*
X200599615Y-69653739D01*
X200536759Y-69668184D01*
M02*
