M48
; DRILL file {KiCad (5.1.2)-2} date 12/08/2019 05:43:13
; FORMAT={-:-/ absolute / inch / decimal}
; #@! TF.CreationDate,2019-08-12T05:43:13+02:00
; #@! TF.GenerationSoftware,Kicad,Pcbnew,(5.1.2)-2
FMAT,2
INCH
T1C0.0236
T2C0.0276
T3C0.0295
T4C0.0315
T5C0.0394
%
G90
G05
T1
X6.385Y-4.54
X6.475Y-2.69
X6.51Y-2.84
X6.565Y-2.925
X6.72Y-3.17
X6.83Y-4.22
X6.93Y-3.24
X7.01Y-4.595
X7.01Y-4.745
X7.115Y-3.28
X7.13Y-3.395
X7.13Y-4.89
X7.21Y-2.76
X7.2252Y-2.8352
X7.23Y-4.19
X7.31Y-3.065
X7.365Y-2.91
X7.375Y-3.805
X7.405Y-4.5
X7.415Y-4.99
X7.4499Y-5.31
X7.48Y-3.9
X7.5046Y-5.2772
X7.505Y-3.295
X7.6214Y-4.9478
X7.635Y-2.575
X7.635Y-4.425
X7.6675Y-4.3675
X7.685Y-4.21
X7.715Y-3.755
X7.77Y-4.02
X7.9Y-3.045
X7.91Y-4.11
X7.92Y-5.12
X8.03Y-4.155
X8.07Y-4.01
T2
X6.495Y-3.47
X6.495Y-3.57
T3
X6.5667Y-2.8523
X6.6167Y-2.8523
X6.6667Y-2.8523
X7.71Y-4.64
X7.71Y-4.69
X7.71Y-4.74
X6.625Y-4.735
X6.675Y-4.735
X6.725Y-4.735
X7.885Y-3.91
X7.885Y-3.96
X7.885Y-4.01
X6.5667Y-2.9973
X6.6167Y-2.9973
X6.6667Y-2.9973
T4
X6.4617Y-2.7748
X6.4617Y-3.0748
X6.5617Y-2.7748
X6.5617Y-3.0748
X6.6617Y-2.7748
X6.6617Y-3.0748
X7.3056Y-3.5574
X7.3056Y-3.6574
X7.3056Y-3.7574
X7.3056Y-3.8574
X7.3056Y-3.9574
X7.3056Y-4.0574
X7.3056Y-4.1574
X7.6056Y-3.5574
X7.6056Y-3.6574
X7.6056Y-3.7574
X7.6056Y-3.8574
X7.6056Y-3.9574
X7.6056Y-4.0574
X7.6056Y-4.1574
X6.81Y-2.525
X6.91Y-2.525
X7.01Y-2.525
X6.575Y-4.5
X6.675Y-4.5
X6.775Y-4.5
X6.862Y-2.6886
X6.862Y-2.9886
X6.962Y-2.6886
X6.962Y-2.9886
X7.062Y-2.6886
X7.062Y-2.9886
X7.162Y-2.6886
X7.162Y-2.9886
X7.262Y-2.6886
X7.262Y-2.9886
X7.362Y-2.6886
X7.362Y-2.9886
X7.462Y-2.6886
X7.462Y-2.9886
X6.65Y-3.63
X6.75Y-3.63
X6.85Y-3.63
X6.6Y-3.85
X6.9Y-3.85
X7.255Y-4.4701
X7.255Y-4.5701
X7.255Y-4.6701
X7.255Y-4.7701
X7.255Y-4.8701
X7.255Y-4.9701
X7.255Y-5.0701
X7.555Y-4.4701
X7.555Y-4.5701
X7.555Y-4.6701
X7.555Y-4.7701
X7.555Y-4.8701
X7.555Y-4.9701
X7.555Y-5.0701
T5
X7.305Y-5.41
X7.405Y-5.41
X6.755Y-4.03
X6.855Y-4.03
X6.955Y-4.03
X7.05Y-5.41
X7.65Y-2.85
X7.7484Y-3.0469
X7.8469Y-2.85
X6.8531Y-5.165
X6.9516Y-4.9681
X7.05Y-5.165
X6.42Y-4.6651
X6.42Y-4.7651
X6.42Y-4.8651
X6.705Y-3.325
X6.805Y-3.325
X6.45Y-4.03
X6.45Y-4.13
X6.45Y-4.23
X6.55Y-4.03
X6.55Y-4.13
X6.55Y-4.23
X8.03Y-4.785
X8.03Y-4.885
X8.03Y-4.985
X8.03Y-5.085
X8.03Y-5.185
X8.03Y-5.285
X8.03Y-5.385
X8.13Y-4.785
X8.13Y-4.885
X8.13Y-4.985
X8.13Y-5.085
X8.13Y-5.185
X8.13Y-5.285
X8.13Y-5.385
X6.4231Y-5.1651
X6.5216Y-4.9682
X6.62Y-5.1651
X8.16Y-3.91
X8.16Y-4.01
X8.16Y-4.11
X8.16Y-4.21
X6.5Y-3.325
X6.6Y-3.325
X7.29Y-3.325
X7.39Y-3.325
X8.03Y-2.495
X8.03Y-2.595
X8.03Y-2.695
X8.03Y-2.795
X8.03Y-2.895
X8.03Y-2.995
X8.03Y-3.095
X8.13Y-2.495
X8.13Y-2.595
X8.13Y-2.695
X8.13Y-2.795
X8.13Y-2.895
X8.13Y-2.995
X8.13Y-3.095
X7.6931Y-3.365
X7.7916Y-3.1681
X7.89Y-3.365
T0
M30
