G04 #@! TF.GenerationSoftware,KiCad,Pcbnew,5.1.2*
G04 #@! TF.CreationDate,2019-08-12T01:59:44+02:00*
G04 #@! TF.ProjectId,vco_mk1,76636f5f-6d6b-4312-9e6b-696361645f70,rev?*
G04 #@! TF.SameCoordinates,Original*
G04 #@! TF.FileFunction,Legend,Bot*
G04 #@! TF.FilePolarity,Positive*
%FSLAX46Y46*%
G04 Gerber Fmt 4.6, Leading zero omitted, Abs format (unit mm)*
G04 Created by KiCad (PCBNEW 5.1.2) date 2019-08-12 01:59:44*
%MOMM*%
%LPD*%
G04 APERTURE LIST*
%ADD10C,0.160000*%
%ADD11C,0.120000*%
%ADD12C,0.200000*%
G04 APERTURE END LIST*
D10*
X172051142Y-160797142D02*
X172051142Y-161440000D01*
X172094000Y-161568571D01*
X172179714Y-161654285D01*
X172308285Y-161697142D01*
X172394000Y-161697142D01*
X171194000Y-161697142D02*
X171622571Y-161697142D01*
X171622571Y-160797142D01*
X170379714Y-161611428D02*
X170422571Y-161654285D01*
X170551142Y-161697142D01*
X170636857Y-161697142D01*
X170765428Y-161654285D01*
X170851142Y-161568571D01*
X170894000Y-161482857D01*
X170936857Y-161311428D01*
X170936857Y-161182857D01*
X170894000Y-161011428D01*
X170851142Y-160925714D01*
X170765428Y-160840000D01*
X170636857Y-160797142D01*
X170551142Y-160797142D01*
X170422571Y-160840000D01*
X170379714Y-160882857D01*
X169736857Y-160797142D02*
X169736857Y-161440000D01*
X169779714Y-161568571D01*
X169865428Y-161654285D01*
X169994000Y-161697142D01*
X170079714Y-161697142D01*
X168879714Y-161697142D02*
X169308285Y-161697142D01*
X169308285Y-160797142D01*
X168065428Y-161611428D02*
X168108285Y-161654285D01*
X168236857Y-161697142D01*
X168322571Y-161697142D01*
X168451142Y-161654285D01*
X168536857Y-161568571D01*
X168579714Y-161482857D01*
X168622571Y-161311428D01*
X168622571Y-161182857D01*
X168579714Y-161011428D01*
X168536857Y-160925714D01*
X168451142Y-160840000D01*
X168322571Y-160797142D01*
X168236857Y-160797142D01*
X168108285Y-160840000D01*
X168065428Y-160882857D01*
X167422571Y-160797142D02*
X167422571Y-161440000D01*
X167465428Y-161568571D01*
X167551142Y-161654285D01*
X167679714Y-161697142D01*
X167765428Y-161697142D01*
X166565428Y-161697142D02*
X166994000Y-161697142D01*
X166994000Y-160797142D01*
X165751142Y-161611428D02*
X165794000Y-161654285D01*
X165922571Y-161697142D01*
X166008285Y-161697142D01*
X166136857Y-161654285D01*
X166222571Y-161568571D01*
X166265428Y-161482857D01*
X166308285Y-161311428D01*
X166308285Y-161182857D01*
X166265428Y-161011428D01*
X166222571Y-160925714D01*
X166136857Y-160840000D01*
X166008285Y-160797142D01*
X165922571Y-160797142D01*
X165794000Y-160840000D01*
X165751142Y-160882857D01*
X165108285Y-160797142D02*
X165108285Y-161440000D01*
X165151142Y-161568571D01*
X165236857Y-161654285D01*
X165365428Y-161697142D01*
X165451142Y-161697142D01*
X164251142Y-161697142D02*
X164679714Y-161697142D01*
X164679714Y-160797142D01*
X163436857Y-161611428D02*
X163479714Y-161654285D01*
X163608285Y-161697142D01*
X163694000Y-161697142D01*
X163822571Y-161654285D01*
X163908285Y-161568571D01*
X163951142Y-161482857D01*
X163994000Y-161311428D01*
X163994000Y-161182857D01*
X163951142Y-161011428D01*
X163908285Y-160925714D01*
X163822571Y-160840000D01*
X163694000Y-160797142D01*
X163608285Y-160797142D01*
X163479714Y-160840000D01*
X163436857Y-160882857D01*
D11*
X181958348Y-147651400D02*
X182480852Y-147651400D01*
X181958348Y-149071400D02*
X182480852Y-149071400D01*
X177979000Y-131697252D02*
X177979000Y-131174748D01*
X179399000Y-131697252D02*
X179399000Y-131174748D01*
X197913248Y-141212500D02*
X198435752Y-141212500D01*
X197913248Y-142632500D02*
X198435752Y-142632500D01*
X197238252Y-134568000D02*
X196715748Y-134568000D01*
X197238252Y-133148000D02*
X196715748Y-133148000D01*
X202445252Y-134695000D02*
X201922748Y-134695000D01*
X202445252Y-133275000D02*
X201922748Y-133275000D01*
X189246252Y-134314000D02*
X188723748Y-134314000D01*
X189246252Y-132894000D02*
X188723748Y-132894000D01*
X200286252Y-132536000D02*
X199763748Y-132536000D01*
X200286252Y-131116000D02*
X199763748Y-131116000D01*
X194166748Y-125909000D02*
X194689252Y-125909000D01*
X194166748Y-127329000D02*
X194689252Y-127329000D01*
X200041252Y-127329000D02*
X199518748Y-127329000D01*
X200041252Y-125909000D02*
X199518748Y-125909000D01*
X204199748Y-125909000D02*
X204722252Y-125909000D01*
X204199748Y-127329000D02*
X204722252Y-127329000D01*
X183209000Y-131192748D02*
X183209000Y-131715252D01*
X181789000Y-131192748D02*
X181789000Y-131715252D01*
X183948000Y-131715252D02*
X183948000Y-131192748D01*
X185368000Y-131715252D02*
X185368000Y-131192748D01*
X194489000Y-144215752D02*
X194489000Y-143693248D01*
X195909000Y-144215752D02*
X195909000Y-143693248D01*
X200915748Y-150420000D02*
X201438252Y-150420000D01*
X200915748Y-151840000D02*
X201438252Y-151840000D01*
X204136248Y-146356000D02*
X204658752Y-146356000D01*
X204136248Y-147776000D02*
X204658752Y-147776000D01*
X188390600Y-155034348D02*
X188390600Y-155556852D01*
X186970600Y-155034348D02*
X186970600Y-155556852D01*
X190397200Y-143655148D02*
X190397200Y-144177652D01*
X188977200Y-143655148D02*
X188977200Y-144177652D01*
X178306800Y-149801948D02*
X178306800Y-150324452D01*
X176886800Y-149801948D02*
X176886800Y-150324452D01*
X179300348Y-162307200D02*
X179822852Y-162307200D01*
X179300348Y-163727200D02*
X179822852Y-163727200D01*
X179839252Y-158596400D02*
X179316748Y-158596400D01*
X179839252Y-157176400D02*
X179316748Y-157176400D01*
X182009148Y-141453800D02*
X182531652Y-141453800D01*
X182009148Y-142873800D02*
X182531652Y-142873800D01*
X182531652Y-146988600D02*
X182009148Y-146988600D01*
X182531652Y-145568600D02*
X182009148Y-145568600D01*
X182009148Y-143536600D02*
X182531652Y-143536600D01*
X182009148Y-144956600D02*
X182531652Y-144956600D01*
X161877752Y-148538000D02*
X161355248Y-148538000D01*
X161877752Y-147118000D02*
X161355248Y-147118000D01*
X153427500Y-145852248D02*
X153427500Y-146374752D01*
X152007500Y-145852248D02*
X152007500Y-146374752D01*
X152007500Y-142555752D02*
X152007500Y-142033248D01*
X153427500Y-142555752D02*
X153427500Y-142033248D01*
X159138252Y-151840000D02*
X158615748Y-151840000D01*
X159138252Y-150420000D02*
X158615748Y-150420000D01*
X162459600Y-156572852D02*
X162459600Y-156050348D01*
X163879600Y-156572852D02*
X163879600Y-156050348D01*
X172972800Y-156041348D02*
X172972800Y-156563852D01*
X171552800Y-156041348D02*
X171552800Y-156563852D01*
X195690748Y-130354000D02*
X196213252Y-130354000D01*
X195690748Y-131774000D02*
X196213252Y-131774000D01*
X189806948Y-148794400D02*
X190329452Y-148794400D01*
X189806948Y-150214400D02*
X190329452Y-150214400D01*
X188754652Y-152195600D02*
X188232148Y-152195600D01*
X188754652Y-150775600D02*
X188232148Y-150775600D01*
X200739752Y-147776000D02*
X200217248Y-147776000D01*
X200739752Y-146356000D02*
X200217248Y-146356000D01*
X188390600Y-143655148D02*
X188390600Y-144177652D01*
X186970600Y-143655148D02*
X186970600Y-144177652D01*
X157590748Y-147118000D02*
X158113252Y-147118000D01*
X157590748Y-148538000D02*
X158113252Y-148538000D01*
X167207000Y-150034248D02*
X167207000Y-150556752D01*
X165787000Y-150034248D02*
X165787000Y-150556752D01*
X163818500Y-148987252D02*
X163818500Y-148464748D01*
X165238500Y-148987252D02*
X165238500Y-148464748D01*
D12*
X179458857Y-148153380D02*
X179792190Y-147677190D01*
X180030285Y-148153380D02*
X180030285Y-147153380D01*
X179649333Y-147153380D01*
X179554095Y-147201000D01*
X179506476Y-147248619D01*
X179458857Y-147343857D01*
X179458857Y-147486714D01*
X179506476Y-147581952D01*
X179554095Y-147629571D01*
X179649333Y-147677190D01*
X180030285Y-147677190D01*
X179077904Y-147248619D02*
X179030285Y-147201000D01*
X178935047Y-147153380D01*
X178696952Y-147153380D01*
X178601714Y-147201000D01*
X178554095Y-147248619D01*
X178506476Y-147343857D01*
X178506476Y-147439095D01*
X178554095Y-147581952D01*
X179125523Y-148153380D01*
X178506476Y-148153380D01*
X177649333Y-147153380D02*
X177839809Y-147153380D01*
X177935047Y-147201000D01*
X177982666Y-147248619D01*
X178077904Y-147391476D01*
X178125523Y-147581952D01*
X178125523Y-147962904D01*
X178077904Y-148058142D01*
X178030285Y-148105761D01*
X177935047Y-148153380D01*
X177744571Y-148153380D01*
X177649333Y-148105761D01*
X177601714Y-148058142D01*
X177554095Y-147962904D01*
X177554095Y-147724809D01*
X177601714Y-147629571D01*
X177649333Y-147581952D01*
X177744571Y-147534333D01*
X177935047Y-147534333D01*
X178030285Y-147581952D01*
X178077904Y-147629571D01*
X178125523Y-147724809D01*
X179046142Y-134231142D02*
X179093761Y-134183523D01*
X179141380Y-134040666D01*
X179141380Y-133945428D01*
X179093761Y-133802571D01*
X178998523Y-133707333D01*
X178903285Y-133659714D01*
X178712809Y-133612095D01*
X178569952Y-133612095D01*
X178379476Y-133659714D01*
X178284238Y-133707333D01*
X178189000Y-133802571D01*
X178141380Y-133945428D01*
X178141380Y-134040666D01*
X178189000Y-134183523D01*
X178236619Y-134231142D01*
X179141380Y-135183523D02*
X179141380Y-134612095D01*
X179141380Y-134897809D02*
X178141380Y-134897809D01*
X178284238Y-134802571D01*
X178379476Y-134707333D01*
X178427095Y-134612095D01*
X178236619Y-135564476D02*
X178189000Y-135612095D01*
X178141380Y-135707333D01*
X178141380Y-135945428D01*
X178189000Y-136040666D01*
X178236619Y-136088285D01*
X178331857Y-136135904D01*
X178427095Y-136135904D01*
X178569952Y-136088285D01*
X179141380Y-135516857D01*
X179141380Y-136135904D01*
X202191857Y-142438380D02*
X202525190Y-141962190D01*
X202763285Y-142438380D02*
X202763285Y-141438380D01*
X202382333Y-141438380D01*
X202287095Y-141486000D01*
X202239476Y-141533619D01*
X202191857Y-141628857D01*
X202191857Y-141771714D01*
X202239476Y-141866952D01*
X202287095Y-141914571D01*
X202382333Y-141962190D01*
X202763285Y-141962190D01*
X201287095Y-141438380D02*
X201763285Y-141438380D01*
X201810904Y-141914571D01*
X201763285Y-141866952D01*
X201668047Y-141819333D01*
X201429952Y-141819333D01*
X201334714Y-141866952D01*
X201287095Y-141914571D01*
X201239476Y-142009809D01*
X201239476Y-142247904D01*
X201287095Y-142343142D01*
X201334714Y-142390761D01*
X201429952Y-142438380D01*
X201668047Y-142438380D01*
X201763285Y-142390761D01*
X201810904Y-142343142D01*
X200287095Y-142438380D02*
X200858523Y-142438380D01*
X200572809Y-142438380D02*
X200572809Y-141438380D01*
X200668047Y-141581238D01*
X200763285Y-141676476D01*
X200858523Y-141724095D01*
X194190857Y-134437380D02*
X194524190Y-133961190D01*
X194762285Y-134437380D02*
X194762285Y-133437380D01*
X194381333Y-133437380D01*
X194286095Y-133485000D01*
X194238476Y-133532619D01*
X194190857Y-133627857D01*
X194190857Y-133770714D01*
X194238476Y-133865952D01*
X194286095Y-133913571D01*
X194381333Y-133961190D01*
X194762285Y-133961190D01*
X193286095Y-133437380D02*
X193762285Y-133437380D01*
X193809904Y-133913571D01*
X193762285Y-133865952D01*
X193667047Y-133818333D01*
X193428952Y-133818333D01*
X193333714Y-133865952D01*
X193286095Y-133913571D01*
X193238476Y-134008809D01*
X193238476Y-134246904D01*
X193286095Y-134342142D01*
X193333714Y-134389761D01*
X193428952Y-134437380D01*
X193667047Y-134437380D01*
X193762285Y-134389761D01*
X193809904Y-134342142D01*
X192619428Y-133437380D02*
X192524190Y-133437380D01*
X192428952Y-133485000D01*
X192381333Y-133532619D01*
X192333714Y-133627857D01*
X192286095Y-133818333D01*
X192286095Y-134056428D01*
X192333714Y-134246904D01*
X192381333Y-134342142D01*
X192428952Y-134389761D01*
X192524190Y-134437380D01*
X192619428Y-134437380D01*
X192714666Y-134389761D01*
X192762285Y-134342142D01*
X192809904Y-134246904D01*
X192857523Y-134056428D01*
X192857523Y-133818333D01*
X192809904Y-133627857D01*
X192762285Y-133532619D01*
X192714666Y-133485000D01*
X192619428Y-133437380D01*
X205430380Y-133342142D02*
X204954190Y-133008809D01*
X205430380Y-132770714D02*
X204430380Y-132770714D01*
X204430380Y-133151666D01*
X204478000Y-133246904D01*
X204525619Y-133294523D01*
X204620857Y-133342142D01*
X204763714Y-133342142D01*
X204858952Y-133294523D01*
X204906571Y-133246904D01*
X204954190Y-133151666D01*
X204954190Y-132770714D01*
X204763714Y-134199285D02*
X205430380Y-134199285D01*
X204382761Y-133961190D02*
X205097047Y-133723095D01*
X205097047Y-134342142D01*
X205430380Y-134770714D02*
X205430380Y-134961190D01*
X205382761Y-135056428D01*
X205335142Y-135104047D01*
X205192285Y-135199285D01*
X205001809Y-135246904D01*
X204620857Y-135246904D01*
X204525619Y-135199285D01*
X204478000Y-135151666D01*
X204430380Y-135056428D01*
X204430380Y-134865952D01*
X204478000Y-134770714D01*
X204525619Y-134723095D01*
X204620857Y-134675476D01*
X204858952Y-134675476D01*
X204954190Y-134723095D01*
X205001809Y-134770714D01*
X205049428Y-134865952D01*
X205049428Y-135056428D01*
X205001809Y-135151666D01*
X204954190Y-135199285D01*
X204858952Y-135246904D01*
X189627857Y-132406380D02*
X189961190Y-131930190D01*
X190199285Y-132406380D02*
X190199285Y-131406380D01*
X189818333Y-131406380D01*
X189723095Y-131454000D01*
X189675476Y-131501619D01*
X189627857Y-131596857D01*
X189627857Y-131739714D01*
X189675476Y-131834952D01*
X189723095Y-131882571D01*
X189818333Y-131930190D01*
X190199285Y-131930190D01*
X188770714Y-131739714D02*
X188770714Y-132406380D01*
X189008809Y-131358761D02*
X189246904Y-132073047D01*
X188627857Y-132073047D01*
X188104047Y-131834952D02*
X188199285Y-131787333D01*
X188246904Y-131739714D01*
X188294523Y-131644476D01*
X188294523Y-131596857D01*
X188246904Y-131501619D01*
X188199285Y-131454000D01*
X188104047Y-131406380D01*
X187913571Y-131406380D01*
X187818333Y-131454000D01*
X187770714Y-131501619D01*
X187723095Y-131596857D01*
X187723095Y-131644476D01*
X187770714Y-131739714D01*
X187818333Y-131787333D01*
X187913571Y-131834952D01*
X188104047Y-131834952D01*
X188199285Y-131882571D01*
X188246904Y-131930190D01*
X188294523Y-132025428D01*
X188294523Y-132215904D01*
X188246904Y-132311142D01*
X188199285Y-132358761D01*
X188104047Y-132406380D01*
X187913571Y-132406380D01*
X187818333Y-132358761D01*
X187770714Y-132311142D01*
X187723095Y-132215904D01*
X187723095Y-132025428D01*
X187770714Y-131930190D01*
X187818333Y-131882571D01*
X187913571Y-131834952D01*
X204096857Y-132405380D02*
X204430190Y-131929190D01*
X204668285Y-132405380D02*
X204668285Y-131405380D01*
X204287333Y-131405380D01*
X204192095Y-131453000D01*
X204144476Y-131500619D01*
X204096857Y-131595857D01*
X204096857Y-131738714D01*
X204144476Y-131833952D01*
X204192095Y-131881571D01*
X204287333Y-131929190D01*
X204668285Y-131929190D01*
X203239714Y-131738714D02*
X203239714Y-132405380D01*
X203477809Y-131357761D02*
X203715904Y-132072047D01*
X203096857Y-132072047D01*
X202811142Y-131405380D02*
X202144476Y-131405380D01*
X202573047Y-132405380D01*
X193682857Y-125547380D02*
X194016190Y-125071190D01*
X194254285Y-125547380D02*
X194254285Y-124547380D01*
X193873333Y-124547380D01*
X193778095Y-124595000D01*
X193730476Y-124642619D01*
X193682857Y-124737857D01*
X193682857Y-124880714D01*
X193730476Y-124975952D01*
X193778095Y-125023571D01*
X193873333Y-125071190D01*
X194254285Y-125071190D01*
X192825714Y-124880714D02*
X192825714Y-125547380D01*
X193063809Y-124499761D02*
X193301904Y-125214047D01*
X192682857Y-125214047D01*
X191873333Y-124547380D02*
X192063809Y-124547380D01*
X192159047Y-124595000D01*
X192206666Y-124642619D01*
X192301904Y-124785476D01*
X192349523Y-124975952D01*
X192349523Y-125356904D01*
X192301904Y-125452142D01*
X192254285Y-125499761D01*
X192159047Y-125547380D01*
X191968571Y-125547380D01*
X191873333Y-125499761D01*
X191825714Y-125452142D01*
X191778095Y-125356904D01*
X191778095Y-125118809D01*
X191825714Y-125023571D01*
X191873333Y-124975952D01*
X191968571Y-124928333D01*
X192159047Y-124928333D01*
X192254285Y-124975952D01*
X192301904Y-125023571D01*
X192349523Y-125118809D01*
X200286857Y-125547380D02*
X200620190Y-125071190D01*
X200858285Y-125547380D02*
X200858285Y-124547380D01*
X200477333Y-124547380D01*
X200382095Y-124595000D01*
X200334476Y-124642619D01*
X200286857Y-124737857D01*
X200286857Y-124880714D01*
X200334476Y-124975952D01*
X200382095Y-125023571D01*
X200477333Y-125071190D01*
X200858285Y-125071190D01*
X199429714Y-124880714D02*
X199429714Y-125547380D01*
X199667809Y-124499761D02*
X199905904Y-125214047D01*
X199286857Y-125214047D01*
X198429714Y-124547380D02*
X198905904Y-124547380D01*
X198953523Y-125023571D01*
X198905904Y-124975952D01*
X198810666Y-124928333D01*
X198572571Y-124928333D01*
X198477333Y-124975952D01*
X198429714Y-125023571D01*
X198382095Y-125118809D01*
X198382095Y-125356904D01*
X198429714Y-125452142D01*
X198477333Y-125499761D01*
X198572571Y-125547380D01*
X198810666Y-125547380D01*
X198905904Y-125499761D01*
X198953523Y-125452142D01*
X205112857Y-125547380D02*
X205446190Y-125071190D01*
X205684285Y-125547380D02*
X205684285Y-124547380D01*
X205303333Y-124547380D01*
X205208095Y-124595000D01*
X205160476Y-124642619D01*
X205112857Y-124737857D01*
X205112857Y-124880714D01*
X205160476Y-124975952D01*
X205208095Y-125023571D01*
X205303333Y-125071190D01*
X205684285Y-125071190D01*
X204255714Y-124880714D02*
X204255714Y-125547380D01*
X204493809Y-124499761D02*
X204731904Y-125214047D01*
X204112857Y-125214047D01*
X203303333Y-124880714D02*
X203303333Y-125547380D01*
X203541428Y-124499761D02*
X203779523Y-125214047D01*
X203160476Y-125214047D01*
X185110380Y-134231142D02*
X184634190Y-133897809D01*
X185110380Y-133659714D02*
X184110380Y-133659714D01*
X184110380Y-134040666D01*
X184158000Y-134135904D01*
X184205619Y-134183523D01*
X184300857Y-134231142D01*
X184443714Y-134231142D01*
X184538952Y-134183523D01*
X184586571Y-134135904D01*
X184634190Y-134040666D01*
X184634190Y-133659714D01*
X184443714Y-135088285D02*
X185110380Y-135088285D01*
X184062761Y-134850190D02*
X184777047Y-134612095D01*
X184777047Y-135231142D01*
X184110380Y-135802571D02*
X184110380Y-135897809D01*
X184158000Y-135993047D01*
X184205619Y-136040666D01*
X184300857Y-136088285D01*
X184491333Y-136135904D01*
X184729428Y-136135904D01*
X184919904Y-136088285D01*
X185015142Y-136040666D01*
X185062761Y-135993047D01*
X185110380Y-135897809D01*
X185110380Y-135802571D01*
X185062761Y-135707333D01*
X185015142Y-135659714D01*
X184919904Y-135612095D01*
X184729428Y-135564476D01*
X184491333Y-135564476D01*
X184300857Y-135612095D01*
X184205619Y-135659714D01*
X184158000Y-135707333D01*
X184110380Y-135802571D01*
X183078380Y-134231142D02*
X182602190Y-133897809D01*
X183078380Y-133659714D02*
X182078380Y-133659714D01*
X182078380Y-134040666D01*
X182126000Y-134135904D01*
X182173619Y-134183523D01*
X182268857Y-134231142D01*
X182411714Y-134231142D01*
X182506952Y-134183523D01*
X182554571Y-134135904D01*
X182602190Y-134040666D01*
X182602190Y-133659714D01*
X182078380Y-134564476D02*
X182078380Y-135183523D01*
X182459333Y-134850190D01*
X182459333Y-134993047D01*
X182506952Y-135088285D01*
X182554571Y-135135904D01*
X182649809Y-135183523D01*
X182887904Y-135183523D01*
X182983142Y-135135904D01*
X183030761Y-135088285D01*
X183078380Y-134993047D01*
X183078380Y-134707333D01*
X183030761Y-134612095D01*
X182983142Y-134564476D01*
X183078380Y-135659714D02*
X183078380Y-135850190D01*
X183030761Y-135945428D01*
X182983142Y-135993047D01*
X182840285Y-136088285D01*
X182649809Y-136135904D01*
X182268857Y-136135904D01*
X182173619Y-136088285D01*
X182126000Y-136040666D01*
X182078380Y-135945428D01*
X182078380Y-135754952D01*
X182126000Y-135659714D01*
X182173619Y-135612095D01*
X182268857Y-135564476D01*
X182506952Y-135564476D01*
X182602190Y-135612095D01*
X182649809Y-135659714D01*
X182697428Y-135754952D01*
X182697428Y-135945428D01*
X182649809Y-136040666D01*
X182602190Y-136088285D01*
X182506952Y-136135904D01*
X197556380Y-144137142D02*
X197080190Y-143803809D01*
X197556380Y-143565714D02*
X196556380Y-143565714D01*
X196556380Y-143946666D01*
X196604000Y-144041904D01*
X196651619Y-144089523D01*
X196746857Y-144137142D01*
X196889714Y-144137142D01*
X196984952Y-144089523D01*
X197032571Y-144041904D01*
X197080190Y-143946666D01*
X197080190Y-143565714D01*
X196556380Y-144470476D02*
X196556380Y-145089523D01*
X196937333Y-144756190D01*
X196937333Y-144899047D01*
X196984952Y-144994285D01*
X197032571Y-145041904D01*
X197127809Y-145089523D01*
X197365904Y-145089523D01*
X197461142Y-145041904D01*
X197508761Y-144994285D01*
X197556380Y-144899047D01*
X197556380Y-144613333D01*
X197508761Y-144518095D01*
X197461142Y-144470476D01*
X196984952Y-145660952D02*
X196937333Y-145565714D01*
X196889714Y-145518095D01*
X196794476Y-145470476D01*
X196746857Y-145470476D01*
X196651619Y-145518095D01*
X196604000Y-145565714D01*
X196556380Y-145660952D01*
X196556380Y-145851428D01*
X196604000Y-145946666D01*
X196651619Y-145994285D01*
X196746857Y-146041904D01*
X196794476Y-146041904D01*
X196889714Y-145994285D01*
X196937333Y-145946666D01*
X196984952Y-145851428D01*
X196984952Y-145660952D01*
X197032571Y-145565714D01*
X197080190Y-145518095D01*
X197175428Y-145470476D01*
X197365904Y-145470476D01*
X197461142Y-145518095D01*
X197508761Y-145565714D01*
X197556380Y-145660952D01*
X197556380Y-145851428D01*
X197508761Y-145946666D01*
X197461142Y-145994285D01*
X197365904Y-146041904D01*
X197175428Y-146041904D01*
X197080190Y-145994285D01*
X197032571Y-145946666D01*
X196984952Y-145851428D01*
X201819857Y-153232380D02*
X202153190Y-152756190D01*
X202391285Y-153232380D02*
X202391285Y-152232380D01*
X202010333Y-152232380D01*
X201915095Y-152280000D01*
X201867476Y-152327619D01*
X201819857Y-152422857D01*
X201819857Y-152565714D01*
X201867476Y-152660952D01*
X201915095Y-152708571D01*
X202010333Y-152756190D01*
X202391285Y-152756190D01*
X201486523Y-152232380D02*
X200867476Y-152232380D01*
X201200809Y-152613333D01*
X201057952Y-152613333D01*
X200962714Y-152660952D01*
X200915095Y-152708571D01*
X200867476Y-152803809D01*
X200867476Y-153041904D01*
X200915095Y-153137142D01*
X200962714Y-153184761D01*
X201057952Y-153232380D01*
X201343666Y-153232380D01*
X201438904Y-153184761D01*
X201486523Y-153137142D01*
X199962714Y-152232380D02*
X200438904Y-152232380D01*
X200486523Y-152708571D01*
X200438904Y-152660952D01*
X200343666Y-152613333D01*
X200105571Y-152613333D01*
X200010333Y-152660952D01*
X199962714Y-152708571D01*
X199915095Y-152803809D01*
X199915095Y-153041904D01*
X199962714Y-153137142D01*
X200010333Y-153184761D01*
X200105571Y-153232380D01*
X200343666Y-153232380D01*
X200438904Y-153184761D01*
X200486523Y-153137142D01*
X205112857Y-149296380D02*
X205446190Y-148820190D01*
X205684285Y-149296380D02*
X205684285Y-148296380D01*
X205303333Y-148296380D01*
X205208095Y-148344000D01*
X205160476Y-148391619D01*
X205112857Y-148486857D01*
X205112857Y-148629714D01*
X205160476Y-148724952D01*
X205208095Y-148772571D01*
X205303333Y-148820190D01*
X205684285Y-148820190D01*
X204779523Y-148296380D02*
X204160476Y-148296380D01*
X204493809Y-148677333D01*
X204350952Y-148677333D01*
X204255714Y-148724952D01*
X204208095Y-148772571D01*
X204160476Y-148867809D01*
X204160476Y-149105904D01*
X204208095Y-149201142D01*
X204255714Y-149248761D01*
X204350952Y-149296380D01*
X204636666Y-149296380D01*
X204731904Y-149248761D01*
X204779523Y-149201142D01*
X203303333Y-148629714D02*
X203303333Y-149296380D01*
X203541428Y-148248761D02*
X203779523Y-148963047D01*
X203160476Y-148963047D01*
X190634857Y-155900380D02*
X190968190Y-155424190D01*
X191206285Y-155900380D02*
X191206285Y-154900380D01*
X190825333Y-154900380D01*
X190730095Y-154948000D01*
X190682476Y-154995619D01*
X190634857Y-155090857D01*
X190634857Y-155233714D01*
X190682476Y-155328952D01*
X190730095Y-155376571D01*
X190825333Y-155424190D01*
X191206285Y-155424190D01*
X190301523Y-154900380D02*
X189682476Y-154900380D01*
X190015809Y-155281333D01*
X189872952Y-155281333D01*
X189777714Y-155328952D01*
X189730095Y-155376571D01*
X189682476Y-155471809D01*
X189682476Y-155709904D01*
X189730095Y-155805142D01*
X189777714Y-155852761D01*
X189872952Y-155900380D01*
X190158666Y-155900380D01*
X190253904Y-155852761D01*
X190301523Y-155805142D01*
X189349142Y-154900380D02*
X188730095Y-154900380D01*
X189063428Y-155281333D01*
X188920571Y-155281333D01*
X188825333Y-155328952D01*
X188777714Y-155376571D01*
X188730095Y-155471809D01*
X188730095Y-155709904D01*
X188777714Y-155805142D01*
X188825333Y-155852761D01*
X188920571Y-155900380D01*
X189206285Y-155900380D01*
X189301523Y-155852761D01*
X189349142Y-155805142D01*
X191714380Y-143121142D02*
X191238190Y-142787809D01*
X191714380Y-142549714D02*
X190714380Y-142549714D01*
X190714380Y-142930666D01*
X190762000Y-143025904D01*
X190809619Y-143073523D01*
X190904857Y-143121142D01*
X191047714Y-143121142D01*
X191142952Y-143073523D01*
X191190571Y-143025904D01*
X191238190Y-142930666D01*
X191238190Y-142549714D01*
X190714380Y-143454476D02*
X190714380Y-144073523D01*
X191095333Y-143740190D01*
X191095333Y-143883047D01*
X191142952Y-143978285D01*
X191190571Y-144025904D01*
X191285809Y-144073523D01*
X191523904Y-144073523D01*
X191619142Y-144025904D01*
X191666761Y-143978285D01*
X191714380Y-143883047D01*
X191714380Y-143597333D01*
X191666761Y-143502095D01*
X191619142Y-143454476D01*
X190809619Y-144454476D02*
X190762000Y-144502095D01*
X190714380Y-144597333D01*
X190714380Y-144835428D01*
X190762000Y-144930666D01*
X190809619Y-144978285D01*
X190904857Y-145025904D01*
X191000095Y-145025904D01*
X191142952Y-144978285D01*
X191714380Y-144406857D01*
X191714380Y-145025904D01*
X176399180Y-149420342D02*
X175922990Y-149087009D01*
X176399180Y-148848914D02*
X175399180Y-148848914D01*
X175399180Y-149229866D01*
X175446800Y-149325104D01*
X175494419Y-149372723D01*
X175589657Y-149420342D01*
X175732514Y-149420342D01*
X175827752Y-149372723D01*
X175875371Y-149325104D01*
X175922990Y-149229866D01*
X175922990Y-148848914D01*
X175399180Y-149753676D02*
X175399180Y-150372723D01*
X175780133Y-150039390D01*
X175780133Y-150182247D01*
X175827752Y-150277485D01*
X175875371Y-150325104D01*
X175970609Y-150372723D01*
X176208704Y-150372723D01*
X176303942Y-150325104D01*
X176351561Y-150277485D01*
X176399180Y-150182247D01*
X176399180Y-149896533D01*
X176351561Y-149801295D01*
X176303942Y-149753676D01*
X175399180Y-150991771D02*
X175399180Y-151087009D01*
X175446800Y-151182247D01*
X175494419Y-151229866D01*
X175589657Y-151277485D01*
X175780133Y-151325104D01*
X176018228Y-151325104D01*
X176208704Y-151277485D01*
X176303942Y-151229866D01*
X176351561Y-151182247D01*
X176399180Y-151087009D01*
X176399180Y-150991771D01*
X176351561Y-150896533D01*
X176303942Y-150848914D01*
X176208704Y-150801295D01*
X176018228Y-150753676D01*
X175780133Y-150753676D01*
X175589657Y-150801295D01*
X175494419Y-150848914D01*
X175446800Y-150896533D01*
X175399180Y-150991771D01*
X180093857Y-161742380D02*
X180427190Y-161266190D01*
X180665285Y-161742380D02*
X180665285Y-160742380D01*
X180284333Y-160742380D01*
X180189095Y-160790000D01*
X180141476Y-160837619D01*
X180093857Y-160932857D01*
X180093857Y-161075714D01*
X180141476Y-161170952D01*
X180189095Y-161218571D01*
X180284333Y-161266190D01*
X180665285Y-161266190D01*
X179712904Y-160837619D02*
X179665285Y-160790000D01*
X179570047Y-160742380D01*
X179331952Y-160742380D01*
X179236714Y-160790000D01*
X179189095Y-160837619D01*
X179141476Y-160932857D01*
X179141476Y-161028095D01*
X179189095Y-161170952D01*
X179760523Y-161742380D01*
X179141476Y-161742380D01*
X178665285Y-161742380D02*
X178474809Y-161742380D01*
X178379571Y-161694761D01*
X178331952Y-161647142D01*
X178236714Y-161504285D01*
X178189095Y-161313809D01*
X178189095Y-160932857D01*
X178236714Y-160837619D01*
X178284333Y-160790000D01*
X178379571Y-160742380D01*
X178570047Y-160742380D01*
X178665285Y-160790000D01*
X178712904Y-160837619D01*
X178760523Y-160932857D01*
X178760523Y-161170952D01*
X178712904Y-161266190D01*
X178665285Y-161313809D01*
X178570047Y-161361428D01*
X178379571Y-161361428D01*
X178284333Y-161313809D01*
X178236714Y-161266190D01*
X178189095Y-161170952D01*
X180220857Y-156662380D02*
X180554190Y-156186190D01*
X180792285Y-156662380D02*
X180792285Y-155662380D01*
X180411333Y-155662380D01*
X180316095Y-155710000D01*
X180268476Y-155757619D01*
X180220857Y-155852857D01*
X180220857Y-155995714D01*
X180268476Y-156090952D01*
X180316095Y-156138571D01*
X180411333Y-156186190D01*
X180792285Y-156186190D01*
X179839904Y-155757619D02*
X179792285Y-155710000D01*
X179697047Y-155662380D01*
X179458952Y-155662380D01*
X179363714Y-155710000D01*
X179316095Y-155757619D01*
X179268476Y-155852857D01*
X179268476Y-155948095D01*
X179316095Y-156090952D01*
X179887523Y-156662380D01*
X179268476Y-156662380D01*
X178935142Y-155662380D02*
X178268476Y-155662380D01*
X178697047Y-156662380D01*
X182633857Y-140914380D02*
X182967190Y-140438190D01*
X183205285Y-140914380D02*
X183205285Y-139914380D01*
X182824333Y-139914380D01*
X182729095Y-139962000D01*
X182681476Y-140009619D01*
X182633857Y-140104857D01*
X182633857Y-140247714D01*
X182681476Y-140342952D01*
X182729095Y-140390571D01*
X182824333Y-140438190D01*
X183205285Y-140438190D01*
X182252904Y-140009619D02*
X182205285Y-139962000D01*
X182110047Y-139914380D01*
X181871952Y-139914380D01*
X181776714Y-139962000D01*
X181729095Y-140009619D01*
X181681476Y-140104857D01*
X181681476Y-140200095D01*
X181729095Y-140342952D01*
X182300523Y-140914380D01*
X181681476Y-140914380D01*
X180824333Y-140247714D02*
X180824333Y-140914380D01*
X181062428Y-139866761D02*
X181300523Y-140581047D01*
X180681476Y-140581047D01*
X179458857Y-146756380D02*
X179792190Y-146280190D01*
X180030285Y-146756380D02*
X180030285Y-145756380D01*
X179649333Y-145756380D01*
X179554095Y-145804000D01*
X179506476Y-145851619D01*
X179458857Y-145946857D01*
X179458857Y-146089714D01*
X179506476Y-146184952D01*
X179554095Y-146232571D01*
X179649333Y-146280190D01*
X180030285Y-146280190D01*
X179077904Y-145851619D02*
X179030285Y-145804000D01*
X178935047Y-145756380D01*
X178696952Y-145756380D01*
X178601714Y-145804000D01*
X178554095Y-145851619D01*
X178506476Y-145946857D01*
X178506476Y-146042095D01*
X178554095Y-146184952D01*
X179125523Y-146756380D01*
X178506476Y-146756380D01*
X178173142Y-145756380D02*
X177554095Y-145756380D01*
X177887428Y-146137333D01*
X177744571Y-146137333D01*
X177649333Y-146184952D01*
X177601714Y-146232571D01*
X177554095Y-146327809D01*
X177554095Y-146565904D01*
X177601714Y-146661142D01*
X177649333Y-146708761D01*
X177744571Y-146756380D01*
X178030285Y-146756380D01*
X178125523Y-146708761D01*
X178173142Y-146661142D01*
X179331687Y-144665450D02*
X179904106Y-144564435D01*
X179735748Y-145069511D02*
X180442854Y-144362404D01*
X180173480Y-144093030D01*
X180072465Y-144059358D01*
X180005122Y-144059358D01*
X179904106Y-144093030D01*
X179803091Y-144194045D01*
X179769419Y-144295061D01*
X179769419Y-144362404D01*
X179803091Y-144463419D01*
X180072465Y-144732793D01*
X179702076Y-143756312D02*
X179702076Y-143688969D01*
X179668404Y-143587954D01*
X179500045Y-143419595D01*
X179399030Y-143385923D01*
X179331687Y-143385923D01*
X179230671Y-143419595D01*
X179163328Y-143486938D01*
X179095984Y-143621625D01*
X179095984Y-144429748D01*
X178658251Y-143992015D01*
X179028641Y-143082877D02*
X179028641Y-143015534D01*
X178994969Y-142914519D01*
X178826610Y-142746160D01*
X178725595Y-142712488D01*
X178658251Y-142712488D01*
X178557236Y-142746160D01*
X178489893Y-142813503D01*
X178422549Y-142948190D01*
X178422549Y-143756312D01*
X177984816Y-143318580D01*
X162186857Y-149931380D02*
X162520190Y-149455190D01*
X162758285Y-149931380D02*
X162758285Y-148931380D01*
X162377333Y-148931380D01*
X162282095Y-148979000D01*
X162234476Y-149026619D01*
X162186857Y-149121857D01*
X162186857Y-149264714D01*
X162234476Y-149359952D01*
X162282095Y-149407571D01*
X162377333Y-149455190D01*
X162758285Y-149455190D01*
X161234476Y-149931380D02*
X161805904Y-149931380D01*
X161520190Y-149931380D02*
X161520190Y-148931380D01*
X161615428Y-149074238D01*
X161710666Y-149169476D01*
X161805904Y-149217095D01*
X160377333Y-148931380D02*
X160567809Y-148931380D01*
X160663047Y-148979000D01*
X160710666Y-149026619D01*
X160805904Y-149169476D01*
X160853523Y-149359952D01*
X160853523Y-149740904D01*
X160805904Y-149836142D01*
X160758285Y-149883761D01*
X160663047Y-149931380D01*
X160472571Y-149931380D01*
X160377333Y-149883761D01*
X160329714Y-149836142D01*
X160282095Y-149740904D01*
X160282095Y-149502809D01*
X160329714Y-149407571D01*
X160377333Y-149359952D01*
X160472571Y-149312333D01*
X160663047Y-149312333D01*
X160758285Y-149359952D01*
X160805904Y-149407571D01*
X160853523Y-149502809D01*
X154884380Y-145534142D02*
X154408190Y-145200809D01*
X154884380Y-144962714D02*
X153884380Y-144962714D01*
X153884380Y-145343666D01*
X153932000Y-145438904D01*
X153979619Y-145486523D01*
X154074857Y-145534142D01*
X154217714Y-145534142D01*
X154312952Y-145486523D01*
X154360571Y-145438904D01*
X154408190Y-145343666D01*
X154408190Y-144962714D01*
X154884380Y-146486523D02*
X154884380Y-145915095D01*
X154884380Y-146200809D02*
X153884380Y-146200809D01*
X154027238Y-146105571D01*
X154122476Y-146010333D01*
X154170095Y-145915095D01*
X154217714Y-147343666D02*
X154884380Y-147343666D01*
X153836761Y-147105571D02*
X154551047Y-146867476D01*
X154551047Y-147486523D01*
X151582380Y-141724142D02*
X151106190Y-141390809D01*
X151582380Y-141152714D02*
X150582380Y-141152714D01*
X150582380Y-141533666D01*
X150630000Y-141628904D01*
X150677619Y-141676523D01*
X150772857Y-141724142D01*
X150915714Y-141724142D01*
X151010952Y-141676523D01*
X151058571Y-141628904D01*
X151106190Y-141533666D01*
X151106190Y-141152714D01*
X151582380Y-142676523D02*
X151582380Y-142105095D01*
X151582380Y-142390809D02*
X150582380Y-142390809D01*
X150725238Y-142295571D01*
X150820476Y-142200333D01*
X150868095Y-142105095D01*
X150582380Y-143009857D02*
X150582380Y-143628904D01*
X150963333Y-143295571D01*
X150963333Y-143438428D01*
X151010952Y-143533666D01*
X151058571Y-143581285D01*
X151153809Y-143628904D01*
X151391904Y-143628904D01*
X151487142Y-143581285D01*
X151534761Y-143533666D01*
X151582380Y-143438428D01*
X151582380Y-143152714D01*
X151534761Y-143057476D01*
X151487142Y-143009857D01*
X161837666Y-151836380D02*
X162171000Y-151360190D01*
X162409095Y-151836380D02*
X162409095Y-150836380D01*
X162028142Y-150836380D01*
X161932904Y-150884000D01*
X161885285Y-150931619D01*
X161837666Y-151026857D01*
X161837666Y-151169714D01*
X161885285Y-151264952D01*
X161932904Y-151312571D01*
X162028142Y-151360190D01*
X162409095Y-151360190D01*
X161266238Y-151264952D02*
X161361476Y-151217333D01*
X161409095Y-151169714D01*
X161456714Y-151074476D01*
X161456714Y-151026857D01*
X161409095Y-150931619D01*
X161361476Y-150884000D01*
X161266238Y-150836380D01*
X161075761Y-150836380D01*
X160980523Y-150884000D01*
X160932904Y-150931619D01*
X160885285Y-151026857D01*
X160885285Y-151074476D01*
X160932904Y-151169714D01*
X160980523Y-151217333D01*
X161075761Y-151264952D01*
X161266238Y-151264952D01*
X161361476Y-151312571D01*
X161409095Y-151360190D01*
X161456714Y-151455428D01*
X161456714Y-151645904D01*
X161409095Y-151741142D01*
X161361476Y-151788761D01*
X161266238Y-151836380D01*
X161075761Y-151836380D01*
X160980523Y-151788761D01*
X160932904Y-151741142D01*
X160885285Y-151645904D01*
X160885285Y-151455428D01*
X160932904Y-151360190D01*
X160980523Y-151312571D01*
X161075761Y-151264952D01*
X161329666Y-157043380D02*
X161663000Y-156567190D01*
X161901095Y-157043380D02*
X161901095Y-156043380D01*
X161520142Y-156043380D01*
X161424904Y-156091000D01*
X161377285Y-156138619D01*
X161329666Y-156233857D01*
X161329666Y-156376714D01*
X161377285Y-156471952D01*
X161424904Y-156519571D01*
X161520142Y-156567190D01*
X161901095Y-156567190D01*
X160996333Y-156043380D02*
X160377285Y-156043380D01*
X160710619Y-156424333D01*
X160567761Y-156424333D01*
X160472523Y-156471952D01*
X160424904Y-156519571D01*
X160377285Y-156614809D01*
X160377285Y-156852904D01*
X160424904Y-156948142D01*
X160472523Y-156995761D01*
X160567761Y-157043380D01*
X160853476Y-157043380D01*
X160948714Y-156995761D01*
X160996333Y-156948142D01*
X174410666Y-156789380D02*
X174744000Y-156313190D01*
X174982095Y-156789380D02*
X174982095Y-155789380D01*
X174601142Y-155789380D01*
X174505904Y-155837000D01*
X174458285Y-155884619D01*
X174410666Y-155979857D01*
X174410666Y-156122714D01*
X174458285Y-156217952D01*
X174505904Y-156265571D01*
X174601142Y-156313190D01*
X174982095Y-156313190D01*
X173458285Y-156789380D02*
X174029714Y-156789380D01*
X173744000Y-156789380D02*
X173744000Y-155789380D01*
X173839238Y-155932238D01*
X173934476Y-156027476D01*
X174029714Y-156075095D01*
X193206666Y-131421142D02*
X193254285Y-131468761D01*
X193397142Y-131516380D01*
X193492380Y-131516380D01*
X193635238Y-131468761D01*
X193730476Y-131373523D01*
X193778095Y-131278285D01*
X193825714Y-131087809D01*
X193825714Y-130944952D01*
X193778095Y-130754476D01*
X193730476Y-130659238D01*
X193635238Y-130564000D01*
X193492380Y-130516380D01*
X193397142Y-130516380D01*
X193254285Y-130564000D01*
X193206666Y-130611619D01*
X192635238Y-130944952D02*
X192730476Y-130897333D01*
X192778095Y-130849714D01*
X192825714Y-130754476D01*
X192825714Y-130706857D01*
X192778095Y-130611619D01*
X192730476Y-130564000D01*
X192635238Y-130516380D01*
X192444761Y-130516380D01*
X192349523Y-130564000D01*
X192301904Y-130611619D01*
X192254285Y-130706857D01*
X192254285Y-130754476D01*
X192301904Y-130849714D01*
X192349523Y-130897333D01*
X192444761Y-130944952D01*
X192635238Y-130944952D01*
X192730476Y-130992571D01*
X192778095Y-131040190D01*
X192825714Y-131135428D01*
X192825714Y-131325904D01*
X192778095Y-131421142D01*
X192730476Y-131468761D01*
X192635238Y-131516380D01*
X192444761Y-131516380D01*
X192349523Y-131468761D01*
X192301904Y-131421142D01*
X192254285Y-131325904D01*
X192254285Y-131135428D01*
X192301904Y-131040190D01*
X192349523Y-130992571D01*
X192444761Y-130944952D01*
X190285666Y-148185142D02*
X190333285Y-148232761D01*
X190476142Y-148280380D01*
X190571380Y-148280380D01*
X190714238Y-148232761D01*
X190809476Y-148137523D01*
X190857095Y-148042285D01*
X190904714Y-147851809D01*
X190904714Y-147708952D01*
X190857095Y-147518476D01*
X190809476Y-147423238D01*
X190714238Y-147328000D01*
X190571380Y-147280380D01*
X190476142Y-147280380D01*
X190333285Y-147328000D01*
X190285666Y-147375619D01*
X189952333Y-147280380D02*
X189285666Y-147280380D01*
X189714238Y-148280380D01*
X191555666Y-151995142D02*
X191603285Y-152042761D01*
X191746142Y-152090380D01*
X191841380Y-152090380D01*
X191984238Y-152042761D01*
X192079476Y-151947523D01*
X192127095Y-151852285D01*
X192174714Y-151661809D01*
X192174714Y-151518952D01*
X192127095Y-151328476D01*
X192079476Y-151233238D01*
X191984238Y-151138000D01*
X191841380Y-151090380D01*
X191746142Y-151090380D01*
X191603285Y-151138000D01*
X191555666Y-151185619D01*
X190698523Y-151090380D02*
X190889000Y-151090380D01*
X190984238Y-151138000D01*
X191031857Y-151185619D01*
X191127095Y-151328476D01*
X191174714Y-151518952D01*
X191174714Y-151899904D01*
X191127095Y-151995142D01*
X191079476Y-152042761D01*
X190984238Y-152090380D01*
X190793761Y-152090380D01*
X190698523Y-152042761D01*
X190650904Y-151995142D01*
X190603285Y-151899904D01*
X190603285Y-151661809D01*
X190650904Y-151566571D01*
X190698523Y-151518952D01*
X190793761Y-151471333D01*
X190984238Y-151471333D01*
X191079476Y-151518952D01*
X191127095Y-151566571D01*
X191174714Y-151661809D01*
X200699666Y-149074142D02*
X200747285Y-149121761D01*
X200890142Y-149169380D01*
X200985380Y-149169380D01*
X201128238Y-149121761D01*
X201223476Y-149026523D01*
X201271095Y-148931285D01*
X201318714Y-148740809D01*
X201318714Y-148597952D01*
X201271095Y-148407476D01*
X201223476Y-148312238D01*
X201128238Y-148217000D01*
X200985380Y-148169380D01*
X200890142Y-148169380D01*
X200747285Y-148217000D01*
X200699666Y-148264619D01*
X199794904Y-148169380D02*
X200271095Y-148169380D01*
X200318714Y-148645571D01*
X200271095Y-148597952D01*
X200175857Y-148550333D01*
X199937761Y-148550333D01*
X199842523Y-148597952D01*
X199794904Y-148645571D01*
X199747285Y-148740809D01*
X199747285Y-148978904D01*
X199794904Y-149074142D01*
X199842523Y-149121761D01*
X199937761Y-149169380D01*
X200175857Y-149169380D01*
X200271095Y-149121761D01*
X200318714Y-149074142D01*
X188063142Y-140803333D02*
X188110761Y-140755714D01*
X188158380Y-140612857D01*
X188158380Y-140517619D01*
X188110761Y-140374761D01*
X188015523Y-140279523D01*
X187920285Y-140231904D01*
X187729809Y-140184285D01*
X187586952Y-140184285D01*
X187396476Y-140231904D01*
X187301238Y-140279523D01*
X187206000Y-140374761D01*
X187158380Y-140517619D01*
X187158380Y-140612857D01*
X187206000Y-140755714D01*
X187253619Y-140803333D01*
X187491714Y-141660476D02*
X188158380Y-141660476D01*
X187110761Y-141422380D02*
X187825047Y-141184285D01*
X187825047Y-141803333D01*
X157011666Y-149836142D02*
X157059285Y-149883761D01*
X157202142Y-149931380D01*
X157297380Y-149931380D01*
X157440238Y-149883761D01*
X157535476Y-149788523D01*
X157583095Y-149693285D01*
X157630714Y-149502809D01*
X157630714Y-149359952D01*
X157583095Y-149169476D01*
X157535476Y-149074238D01*
X157440238Y-148979000D01*
X157297380Y-148931380D01*
X157202142Y-148931380D01*
X157059285Y-148979000D01*
X157011666Y-149026619D01*
X156678333Y-148931380D02*
X156059285Y-148931380D01*
X156392619Y-149312333D01*
X156249761Y-149312333D01*
X156154523Y-149359952D01*
X156106904Y-149407571D01*
X156059285Y-149502809D01*
X156059285Y-149740904D01*
X156106904Y-149836142D01*
X156154523Y-149883761D01*
X156249761Y-149931380D01*
X156535476Y-149931380D01*
X156630714Y-149883761D01*
X156678333Y-149836142D01*
X166917666Y-148185142D02*
X166965285Y-148232761D01*
X167108142Y-148280380D01*
X167203380Y-148280380D01*
X167346238Y-148232761D01*
X167441476Y-148137523D01*
X167489095Y-148042285D01*
X167536714Y-147851809D01*
X167536714Y-147708952D01*
X167489095Y-147518476D01*
X167441476Y-147423238D01*
X167346238Y-147328000D01*
X167203380Y-147280380D01*
X167108142Y-147280380D01*
X166965285Y-147328000D01*
X166917666Y-147375619D01*
X166536714Y-147375619D02*
X166489095Y-147328000D01*
X166393857Y-147280380D01*
X166155761Y-147280380D01*
X166060523Y-147328000D01*
X166012904Y-147375619D01*
X165965285Y-147470857D01*
X165965285Y-147566095D01*
X166012904Y-147708952D01*
X166584333Y-148280380D01*
X165965285Y-148280380D01*
X164504666Y-151614142D02*
X164552285Y-151661761D01*
X164695142Y-151709380D01*
X164790380Y-151709380D01*
X164933238Y-151661761D01*
X165028476Y-151566523D01*
X165076095Y-151471285D01*
X165123714Y-151280809D01*
X165123714Y-151137952D01*
X165076095Y-150947476D01*
X165028476Y-150852238D01*
X164933238Y-150757000D01*
X164790380Y-150709380D01*
X164695142Y-150709380D01*
X164552285Y-150757000D01*
X164504666Y-150804619D01*
X163552285Y-151709380D02*
X164123714Y-151709380D01*
X163838000Y-151709380D02*
X163838000Y-150709380D01*
X163933238Y-150852238D01*
X164028476Y-150947476D01*
X164123714Y-150995095D01*
M02*
