M48
; DRILL file {KiCad 5.1.2} date Mon 12 Aug 2019 01:59:48 AM CEST
; FORMAT={-:-/ absolute / metric / decimal}
; #@! TF.CreationDate,2019-08-12T01:59:48+02:00
; #@! TF.GenerationSoftware,Kicad,Pcbnew,5.1.2
; #@! TF.FileFunction,Plated,1,2,PTH
FMAT,2
METRIC
T1C0.600
T2C0.700
T3C0.750
T4C0.800
T5C1.000
%
G90
G05
T1
X149.987Y-138.049
X158.496Y-132.207
X158.877Y-159.512
X159.004Y-138.303
X163.391Y-138.303
X164.465Y-129.54
X167.259Y-134.493
X169.037Y-148.209
X172.466Y-149.225
X175.574Y-149.038
X175.602Y-137.326
X176.276Y-159.004
X178.435Y-134.747
X181.61Y-152.654
X181.864Y-135.128
X182.753Y-160.274
X187.579Y-147.574
X190.373Y-147.574
X191.262Y-143.002
X196.85Y-138.176
X207.137Y-144.145
T2
X154.813Y-140.97
X154.813Y-143.51
T3
X198.374Y-139.446
X199.644Y-139.446
X200.914Y-139.446
X196.405Y-149.923
X196.405Y-151.194
X196.405Y-152.463
X182.499Y-138.176
X183.769Y-138.176
X185.039Y-138.176
X159.512Y-140.335
X159.512Y-141.605
X159.512Y-142.875
X163.068Y-140.335
X163.068Y-141.605
X163.068Y-142.875
T4
X177.292Y-139.827
X177.292Y-142.367
X177.292Y-144.907
X165.151Y-157.226
X167.691Y-157.226
X170.231Y-157.226
X150.495Y-146.24
X150.495Y-153.861
X146.456Y-147.726
X146.456Y-150.266
X146.456Y-152.806
X188.214Y-128.524
X188.214Y-136.144
X190.754Y-128.524
X190.754Y-136.144
X193.294Y-128.524
X193.294Y-136.144
X195.834Y-128.524
X195.834Y-136.144
X198.374Y-128.524
X198.374Y-136.144
X200.914Y-128.524
X200.914Y-136.144
X203.454Y-128.524
X203.454Y-136.144
X157.48Y-145.669
X157.48Y-153.289
X160.02Y-145.669
X160.02Y-153.289
X162.56Y-145.669
X162.56Y-153.289
X165.1Y-145.669
X165.1Y-153.289
X167.64Y-145.669
X167.64Y-153.289
X170.18Y-145.669
X170.18Y-153.289
X172.72Y-145.669
X172.72Y-153.289
X185.496Y-142.646
X185.496Y-145.186
X185.496Y-147.726
X185.496Y-150.266
X185.496Y-152.806
X185.496Y-155.346
X185.496Y-157.886
X193.116Y-142.646
X193.116Y-145.186
X193.116Y-147.726
X193.116Y-150.266
X193.116Y-152.806
X193.116Y-155.346
X193.116Y-157.886
X157.48Y-137.795
X157.48Y-140.335
X157.48Y-142.875
X165.1Y-137.795
X165.1Y-140.335
X165.1Y-142.875
T5
X201.168Y-144.907
X203.708Y-144.907
X186.182Y-161.544
X188.468Y-139.192
X191.008Y-139.192
X193.548Y-139.192
X146.71Y-157.378
X149.21Y-162.378
X151.71Y-157.378
X196.215Y-123.444
X198.755Y-123.444
X201.295Y-123.444
X154.051Y-150.368
X154.051Y-152.908
X177.524Y-160.437
X182.524Y-157.937
X182.524Y-162.937
X207.01Y-129.286
X207.01Y-131.826
X207.01Y-134.366
X207.01Y-136.906
X168.529Y-125.095
X168.529Y-127.635
X171.069Y-125.095
X171.069Y-127.635
X173.609Y-125.095
X173.609Y-127.635
X176.149Y-125.095
X176.149Y-127.635
X178.689Y-125.095
X178.689Y-127.635
X181.229Y-125.095
X181.229Y-127.635
X183.769Y-125.095
X183.769Y-127.635
X177.524Y-153.122
X182.524Y-150.622
X182.524Y-155.622
X154.686Y-124.015
X154.686Y-126.555
X157.226Y-124.015
X157.226Y-126.555
X159.766Y-124.015
X159.766Y-126.555
X160.528Y-132.651
X163.068Y-132.651
X168.228Y-142.875
X170.728Y-137.875
X173.228Y-142.875
X148.59Y-140.716
X148.59Y-143.256
X142.307Y-125.691
X142.307Y-128.231
X142.307Y-130.771
X142.307Y-133.311
X142.307Y-135.851
X142.307Y-138.391
X142.307Y-140.931
X144.847Y-125.691
X144.847Y-128.231
X144.847Y-130.771
X144.847Y-133.311
X144.847Y-135.851
X144.847Y-138.391
X144.847Y-140.931
T0
M30
